<svg width="41" height="15" viewBox="0 0 41 15" fill="none" xmlns="http://www.w3.org/2000/svg">
<path d="M2.90705 1.77163L3.6958 3.69017H2.12281L2.90705 1.77163Z" fill="#006FCF"/>
<path d="M21.0718 2.92626C20.9134 3.02221 20.7261 3.0254 20.5018 3.0254H19.1018V1.95646H20.5208C20.7216 1.95646 20.9312 1.96546 21.0673 2.04327C21.2168 2.11338 21.3093 2.2626 21.3093 2.46872C21.3093 2.67906 21.2213 2.84831 21.0718 2.92626Z" fill="#006FCF"/>
<path d="M30.2613 1.77163L31.0588 3.69017H29.4682L30.2613 1.77163Z" fill="#006FCF"/>
<path fill-rule="evenodd" clip-rule="evenodd" d="M0 6.71209H1.9691L2.41307 5.64315H3.407L3.84979 6.71209H7.72387V5.89485L8.06968 6.71557H10.0808L10.4266 5.88266V6.71209H20.0544L20.0499 4.95742H20.2362C20.3667 4.96192 20.4048 4.97397 20.4048 5.18895V6.71209H25.3843V6.30361C25.7859 6.51844 26.4107 6.71209 27.2327 6.71209H29.3276L29.7759 5.64315H30.7699L31.2083 6.71209H35.2452V5.69671L35.8566 6.71209H39.0915V0H35.89V0.792705L35.4417 0H32.1566V0.792705L31.7449 0H27.3075C26.5647 0 25.9117 0.103497 25.3843 0.391925V0H22.3221V0.391925C21.9865 0.0946427 21.5291 0 21.0206 0H9.83316L9.08251 1.73362L8.31165 0H4.78789V0.792705L4.40078 0H1.39558L0 3.19129V6.71209ZM17.1509 5.76681H13.3012V0.954254H17.1509V1.95642H14.4537V2.82388H17.0862V3.81037H14.4537V4.77146H17.1509V5.76681ZM11.261 5.76681H12.4422V0.954256H10.5236L9.1382 4.219L7.63007 0.954256H5.74924V5.51075L3.7893 0.954256H2.07714L0.0135191 5.76681H1.26513L1.71244 4.69337H4.11183L4.55463 5.76681H6.89848V1.99431L8.57384 5.76681H9.58566L11.2567 1.99765L11.261 5.76681ZM22.5787 2.25037C22.5787 3.01767 22.0657 3.4141 21.7667 3.53313C22.0189 3.62893 22.2342 3.79818 22.3368 3.93841C22.4995 4.17777 22.5276 4.39159 22.5276 4.8214V5.76681H21.3652L21.3609 5.15991C21.3609 5.13055 21.3612 5.09989 21.3614 5.06825C21.3641 4.78778 21.3674 4.43039 21.1789 4.22233C21.0106 4.05308 20.7539 4.01636 20.339 4.01636H19.1019V5.76681H17.9497V0.954256H20.6002C21.1891 0.954256 21.6231 0.969788 21.9956 1.18477C22.3602 1.39974 22.5787 1.71358 22.5787 2.25037ZM24.4229 5.76681H23.2471V0.954254H24.4229V5.76681ZM38.0643 5.76681H36.4313L34.2469 2.15471V5.76681H31.9L31.4516 4.69337H29.0577L28.6226 5.76681H27.2742C26.714 5.76681 26.0048 5.64314 25.6032 5.23452C25.1982 4.8259 24.9875 4.27241 24.9875 3.39726C24.9875 2.68352 25.1134 2.03104 25.6087 1.51544C25.9812 1.13135 26.5647 0.954256 27.3588 0.954256H28.4744V1.98546H27.3822C26.9617 1.98546 26.7242 2.04787 26.4954 2.27055C26.299 2.47319 26.1642 2.85626 26.1642 3.36068C26.1642 3.87628 26.2668 4.24803 26.481 4.49088C26.6585 4.68132 26.9809 4.73909 27.2842 4.73909H27.8017L29.4259 0.954402H31.1526L33.1037 5.5064V0.954402H34.8583L36.884 4.30609V0.954402H38.0643V5.76681Z" fill="#006FCF"/>
<path d="M25.4356 11.3143C25.6599 11.3143 25.8505 11.3065 26.0046 11.2152C26.154 11.125 26.2433 10.9591 26.2433 10.7531C26.2433 10.5472 26.154 10.3981 26.0046 10.3201C25.8652 10.2375 25.6599 10.2332 25.4547 10.2332H24.0357V11.3143H25.4356Z" fill="#006FCF"/>
<path d="M15.975 11.6527L17.7443 13.6135V9.75417L15.975 11.6527Z" fill="#006FCF"/>
<path d="M10.3418 13.0481H13.1751L14.4915 11.6358L13.231 10.233H10.3418V11.1082H12.8718V12.0903H10.3418V13.0481Z" fill="#006FCF"/>
<path d="M18.8921 11.459H20.3813C20.8241 11.459 21.0996 11.2397 21.0996 10.8234C21.0996 10.4024 20.8108 10.2332 20.3947 10.2332H18.8921V11.459Z" fill="#006FCF"/>
<path fill-rule="evenodd" clip-rule="evenodd" d="M41 13.4355C40.7201 13.8441 40.1746 14.0513 39.4362 14.0513H37.2107V13.019H39.4272C39.647 13.019 39.8009 12.9901 39.8935 12.8999C39.9738 12.8254 40.0298 12.7173 40.0298 12.5859C40.0298 12.4457 39.9738 12.3343 39.889 12.2676C39.8054 12.1941 39.6837 12.1607 39.483 12.1607C39.4122 12.1583 39.3403 12.1564 39.2677 12.1544C38.2301 12.1263 37.051 12.0945 37.051 10.6708C37.051 9.97261 37.4951 9.23768 38.7044 9.23768H40.9999V8.27993H38.8672C38.2235 8.27993 37.756 8.4338 37.4249 8.67302V8.27993H34.2704C33.7659 8.27993 33.1738 8.40477 32.8937 8.67302V8.27993H27.2605V8.67302C26.8122 8.35019 26.0557 8.27993 25.7065 8.27993H21.9908V8.67302C21.6361 8.33016 20.8474 8.27993 20.3666 8.27993H16.2081L15.2565 9.30794L14.3653 8.27993H8.15329V14.9967H14.2483L15.2289 13.9524L16.1526 14.9967L19.9096 15V13.42H20.279C20.7775 13.4277 21.3654 13.4076 21.8841 13.1838V14.9965H24.9829V13.2459H25.1324C25.3232 13.2459 25.342 13.2538 25.342 13.4441V14.9964H34.7558C35.3534 14.9964 35.9781 14.8437 36.3241 14.5666V14.9964H39.3101C39.9315 14.9964 40.5383 14.9094 41 14.6868V13.4355ZM36.4032 11.5124C36.6276 11.7442 36.7478 12.0369 36.7478 12.5323C36.7478 13.5679 36.0997 14.0512 34.9375 14.0512H32.693V13.019H34.9285C35.1471 13.019 35.3021 12.9901 35.3992 12.8998C35.4785 12.8254 35.5353 12.7172 35.5353 12.5859C35.5353 12.4456 35.4738 12.3343 35.3947 12.2675C35.3066 12.1941 35.185 12.1607 34.9844 12.1607C34.9138 12.1583 34.8421 12.1564 34.7696 12.1544C33.7357 12.1263 32.557 12.0943 32.557 10.6708C32.557 9.9726 32.9965 9.23767 34.2046 9.23767H36.5149V10.2622H34.4009C34.1914 10.2622 34.0551 10.27 33.9392 10.3491C33.813 10.4271 33.7662 10.5428 33.7662 10.6955C33.7662 10.8771 33.8734 11.0006 34.0183 11.054C34.1399 11.0963 34.2705 11.1086 34.4668 11.1086L35.0872 11.1253C35.7128 11.1405 36.1422 11.2485 36.4032 11.5124ZM26.7006 11.8142C26.9571 11.9087 27.1668 12.0781 27.2651 12.2183C27.4279 12.4533 27.4514 12.6727 27.4561 13.097V14.0512H26.2991V13.449C26.2991 13.4201 26.2994 13.3898 26.2997 13.3584C26.3023 13.0758 26.3057 12.7083 26.1128 12.5068C25.9444 12.3343 25.6878 12.2931 25.2674 12.2931H24.0358V14.0512H22.8779V9.23752H25.5384C26.1219 9.23752 26.5468 9.26322 26.925 9.4647C27.2887 9.68403 27.5174 9.98451 27.5174 10.5336C27.5173 11.302 27.004 11.694 26.7006 11.8142ZM28.1564 9.23752H32.0026V10.233H29.304V11.1082H31.9367V12.0903H29.304V13.0481L32.0026 13.0524V14.0512H28.1564V9.23752ZM22.3368 10.8234C22.3368 12.1606 21.3373 12.4367 20.33 12.4367H18.8921V14.0512H16.6522L15.2332 12.4577L13.7586 14.0512H9.19389V9.23752H13.8288L15.2466 10.8154L16.7124 9.23752H20.3947C21.3092 9.23752 22.3368 9.49024 22.3368 10.8234Z" fill="#006FCF"/>
<path d="M38.8997 10.2619H41V11.6316C40.9981 11.6292 40.9962 11.6268 40.9944 11.6244L40.9884 11.6165L40.9853 11.6125L40.9852 11.6123C40.9587 11.5776 40.9325 11.5434 40.8931 11.5124C40.6366 11.2487 40.2159 11.1405 39.5857 11.125L38.9611 11.1083C38.7691 11.1083 38.6386 11.096 38.517 11.0537C38.3676 11.0003 38.265 10.8768 38.265 10.6952C38.265 10.5425 38.3118 10.4268 38.4334 10.3488C38.5507 10.2697 38.69 10.2619 38.8997 10.2619Z" fill="#006FCF"/>
</svg>
