<svg width="308" height="185" viewBox="0 0 308 185" fill="none" xmlns="http://www.w3.org/2000/svg">
<path d="M56.0601 38.6205C56.4358 38.6468 56.6614 38.9958 56.9597 39.2526C58.3491 40.4444 59.771 41.5975 61.2207 42.7129C61.2207 42.7129 61.4351 42.9107 61.4179 43.1516C61.3923 43.5153 60.9588 43.7772 60.6009 43.5188C58.9255 42.23 57.2934 40.896 55.706 39.5116C55.706 39.5116 55.4077 38.6147 56.0601 38.6205Z" fill="#DCD6E3"/>
<path d="M76.1337 52.3258C76.3863 52.3528 76.6418 52.5442 76.9058 52.681C78.7311 53.6217 80.5825 54.5083 82.4586 55.3373C82.4586 55.3373 82.7825 55.5444 82.7602 55.8403C82.7354 56.1693 82.3965 56.4078 82.0475 56.2676C79.9495 55.3407 77.8904 54.3455 75.8614 53.2836C75.8614 53.2836 75.327 52.295 76.1337 52.3258Z" fill="#DCD6E3"/>
<path d="M99.2776 60.9289C99.2776 60.9289 99.6841 61.0155 99.9766 61.0787C106.191 62.4089 112.563 63.0362 118.875 62.6615C118.875 62.6615 119.164 62.6761 119.305 62.8559C119.535 63.1497 119.405 63.6201 118.935 63.6767C112.293 64.071 105.717 63.3853 99.2786 61.9672C99.2786 61.9672 98.9578 61.9287 98.8161 61.7335C98.5934 61.4257 98.8231 60.912 99.2776 60.9289Z" fill="#DCD6E3"/>
<path d="M40.1005 20.4944C40.4345 20.5358 40.6027 20.9106 40.8089 21.2207C41.9017 22.8558 43.0529 24.4482 44.2566 25.9988C44.2566 25.9988 44.4699 26.461 44.1793 26.702C43.8351 26.9875 43.3975 26.5521 43.0707 26.127C41.8673 24.5524 40.7176 22.9364 39.6289 21.2797C39.6289 21.2797 39.4958 20.4579 40.1005 20.4944Z" fill="#DCD6E3"/>
<path d="M60.9082 43.1162C63.2541 44.9215 65.7187 46.6532 68.2934 48.2999C70.8678 49.9469 73.473 51.4586 76.0955 52.8317L60.9455 59.7857L60.9082 43.1162Z" fill="white"/>
<path fill-rule="evenodd" clip-rule="evenodd" d="M61.7638 43.075C61.536 42.8404 61.3262 42.6244 60.9299 42.6096C60.5733 42.5903 60.4154 42.8035 60.3984 43.1177L60.4357 59.7872C60.4567 60.1486 60.8242 60.3787 61.1563 60.2482L76.3063 53.2942C76.8622 53.0007 76.3307 52.3821 76.3307 52.3821C71.3467 49.764 66.5891 46.7523 62.0976 43.3838C61.9707 43.288 61.8655 43.1796 61.7638 43.075ZM74.9457 52.8005L61.4498 58.9952L61.4498 58.9951C61.4386 54.0454 61.4274 49.0956 61.4166 44.1456L61.4854 44.1978C65.7661 47.4084 70.2789 50.2997 74.9457 52.8005Z" fill="#DCD6E3"/>
<path d="M99.2306 61.4367L87.3319 72.0945L82.252 55.8022" fill="white"/>
<path d="M82.3243 55.2963C82.6056 55.3543 82.6395 55.3919 82.7354 55.6478L87.5798 71.1852L98.9341 61.0196C99.3331 60.7681 99.4609 60.9311 99.6073 61.0945C99.7869 61.2952 99.7598 61.6202 99.568 61.8124L87.6693 72.4702C87.3906 72.6932 86.9714 72.5817 86.8446 72.2431L81.7647 55.9505C81.6772 55.6031 81.9457 55.2621 82.3243 55.2963Z" fill="#DCD6E3"/>
<path d="M82.2508 55.8014C87.9415 58.3127 93.6513 60.1886 99.2294 61.4359L82.2508 55.8014Z" fill="#FEBEBD"/>
<path d="M82.2917 55.2952C82.6087 55.3375 84.2774 56.1302 85.6432 56.6756C87.4762 57.4078 89.3324 58.0831 91.208 58.6977C93.8825 59.5741 96.5987 60.3223 99.3428 60.9405C99.3428 60.9405 99.8112 61.1745 99.7272 61.548C99.6345 61.9598 99.0775 61.9239 98.5935 61.8132C92.9177 60.4968 87.3701 58.6069 82.048 56.2675C82.048 56.2675 81.8725 56.1721 81.8022 56.0384C81.635 55.7201 81.8875 55.2864 82.2917 55.2952Z" fill="#DCD6E3"/>
<path d="M56.0368 39.1261L39.2422 41.3276L43.8554 26.3081C47.3256 30.7722 51.408 35.0884 56.0368 39.1261Z" fill="white"/>
<path fill-rule="evenodd" clip-rule="evenodd" d="M44.4843 26.2869C44.328 26.0748 44.1618 25.8491 43.9085 25.8077C43.6228 25.7941 43.4885 25.8426 43.3692 26.1642L38.756 41.1837C38.6692 41.5349 38.9523 41.8637 39.3082 41.8369L56.1028 39.6354C56.7387 39.5147 56.3716 38.7487 56.3716 38.7487C52.0922 35.0052 48.1126 30.8852 44.582 26.4168C44.5494 26.3753 44.5171 26.3314 44.4843 26.2869ZM54.8632 38.7736L39.962 40.7267L44.058 27.3918L44.1173 27.4667C47.3601 31.5179 50.9486 35.2882 54.8632 38.7736Z" fill="#DCD6E3"/>
<path d="M39.6161 62.6638C39.9934 62.691 40.0172 62.8669 40.1714 63.0006C41.4098 64.0735 42.6747 65.1011 43.9686 66.0964C43.9686 66.0964 44.4048 67.1272 43.582 67.0021C43.3888 66.9727 43.2362 66.8162 43.084 66.6986C41.78 65.6872 40.5037 64.6398 39.2594 63.555C39.2594 63.555 38.9505 62.6534 39.6161 62.6638Z" fill="#DCD6E3"/>
<path d="M56.3526 74.0979C56.653 74.1201 56.9141 74.3372 57.2039 74.4863C58.6729 75.2394 60.1634 75.9512 61.6741 76.619C61.6741 76.619 62.0223 76.8528 61.9699 77.1674C61.9185 77.476 61.5999 77.6855 61.2629 77.5493C59.5691 76.8003 57.8984 75.9955 56.2558 75.1403C56.2558 75.1403 55.9366 75.0195 55.8508 74.773C55.742 74.4593 55.9197 74.0934 56.3526 74.0979Z" fill="#DCD6E3"/>
<path d="M75.6927 81.278C75.6927 81.278 77.5718 81.6859 79.0538 81.9397C83.3341 82.6728 87.6965 82.9797 92.0287 82.7227C92.0287 82.7227 92.3014 82.74 92.4369 82.8904C92.6876 83.1694 92.4991 83.6904 92.0886 83.7379C86.5716 84.065 81.0481 83.4956 75.6627 82.3095C75.6627 82.3095 75.261 82.2384 75.1595 81.9541C75.0453 81.6327 75.3204 81.2592 75.6927 81.278Z" fill="#DCD6E3"/>
<path d="M20.8854 37.1702C21.256 37.2078 21.3852 37.6547 21.5511 38.0666C22.1068 39.4322 22.721 40.7735 23.3858 42.0891C23.3858 42.0891 23.5099 42.5576 23.201 42.7501C22.542 43.1603 21.9288 41.4753 21.359 40.2063C21.0334 39.4808 20.7257 38.748 20.4333 38.0088C20.4333 38.0088 20.2688 37.1449 20.8854 37.1702Z" fill="#DCD6E3"/>
<path d="M26.4259 47.7389C26.7745 47.7739 26.9462 48.1668 27.1665 48.4943C28.0133 49.7453 28.9018 50.9672 29.8279 52.1608C29.8279 52.1608 29.9809 52.4085 29.9102 52.6279C29.7826 53.0248 29.3426 53.1965 28.821 52.5212C27.8231 51.2226 26.8693 49.8912 25.9656 48.5267C25.9656 48.5267 25.857 47.714 26.4259 47.7389Z" fill="#DCD6E3"/>
<path d="M43.6582 66.4951C45.6157 68.0014 47.6725 69.4467 49.8208 70.8209C51.9694 72.1953 54.1435 73.4569 56.3318 74.6026L43.6894 80.4055L43.6582 66.4951Z" fill="white"/>
<path fill-rule="evenodd" clip-rule="evenodd" d="M43.7066 65.9559C43.7077 65.9703 43.7091 65.9875 43.6829 65.9876C43.6775 65.9869 43.6392 65.9869 43.6059 65.9903C43.2145 66.0313 43.1555 66.3889 43.1504 66.4964L43.1816 80.4068C43.2009 80.7745 43.5798 80.9966 43.9022 80.8678L56.5446 75.0648C57.0876 74.7815 56.569 74.1527 56.569 74.1527C53.2492 72.4088 50.0349 70.4503 46.9606 68.2918C45.6034 67.3387 43.9476 66.0778 43.9476 66.0778C43.7029 65.9082 43.7043 65.9261 43.7066 65.9559ZM55.1853 74.5703L44.1957 79.6143L44.1957 79.6142C44.1865 75.5837 44.1774 71.5532 44.1685 67.5227L44.278 67.6047C47.7391 70.1859 51.3724 72.5131 55.1853 74.5703Z" fill="#DCD6E3"/>
<path d="M75.6375 81.7827L65.7081 90.6766L61.4688 77.0811" fill="white"/>
<path d="M61.5261 76.5769C61.8146 76.626 61.8752 76.7226 61.9522 76.9304L65.9559 89.7711L75.3376 81.3714C75.6158 81.1917 75.7236 81.266 75.8436 81.3195C76.1494 81.4568 76.2263 81.912 75.9748 82.1622L66.0454 91.056C65.7749 91.274 65.3472 91.1699 65.2207 90.8289L60.9814 77.2334C60.895 76.8941 61.157 76.5531 61.5261 76.5769Z" fill="#DCD6E3"/>
<path d="M61.4683 77.0809C66.2174 79.1764 70.9819 80.7421 75.6373 81.7823L61.4683 77.0809Z" fill="#FEBEBD"/>
<path d="M61.5197 76.5746C61.6213 76.5901 61.643 76.6034 61.6738 76.615C66.1927 78.6013 70.9001 80.1941 75.7493 81.2861C75.7493 81.2861 76.4978 81.8824 75.8868 82.2256C75.6581 82.354 75.351 82.2389 75.0871 82.1785C70.3446 81.079 65.7103 79.4998 61.2645 77.546C61.2645 77.546 60.9328 77.3327 60.9633 77.0299C60.995 76.7115 61.4378 76.5706 61.5197 76.5746Z" fill="#DCD6E3"/>
<path d="M39.5929 63.1701L25.5781 65.0072L29.428 52.4736C32.3237 56.1991 35.7302 59.8008 39.5929 63.1701Z" fill="white"/>
<path fill-rule="evenodd" clip-rule="evenodd" d="M29.9938 52.3322C29.9024 52.1653 29.8174 52.0103 29.4693 51.965C29.1856 51.9575 29.0558 52.0158 28.9439 52.3226L25.0941 64.8561C25.0056 65.2053 25.2985 65.5374 25.6462 65.5093L39.661 63.6722C40.2596 63.5617 39.9298 62.7855 39.9298 62.7855C36.3623 59.6647 33.0453 56.2311 30.1025 52.5059C30.058 52.4493 30.0255 52.39 29.9938 52.3322ZM38.423 62.8088L26.2999 64.3978C26.9562 62.2616 27.6123 60.1254 28.2685 57.9891C28.7233 56.5086 29.178 55.0281 29.6329 53.5475L29.723 53.6603C32.3621 56.9367 35.2704 59.9856 38.423 62.8088Z" fill="#DCD6E3"/>
<path d="M49.3223 52.2139L54.0399 50.1896L49.8317 47.2407L49.3223 52.2139Z" fill="white"/>
<path fill-rule="evenodd" clip-rule="evenodd" d="M50.1233 46.8264C50.0446 46.7746 49.9565 46.7437 49.8623 46.7353C49.5206 46.7248 49.3613 46.9227 49.3257 47.1908L48.8163 52.164C48.7966 52.4392 48.9386 52.6226 49.1583 52.6972C49.1702 52.7012 49.1814 52.7055 49.1922 52.7097C49.2655 52.7377 49.3254 52.7606 49.5223 52.6829L54.2399 50.6587C54.5009 50.537 54.9663 50.2506 54.3314 49.7754L50.1233 46.8264ZM53.0013 50.0837L49.9168 51.4073C49.9724 50.8654 50.0279 50.3236 50.0834 49.7818C50.1389 49.2398 50.1944 48.6978 50.25 48.1557L53.0013 50.0837Z" fill="#DCD6E3"/>
<path d="M69.2891 71.2315L74.1646 72.8388L72.964 67.8423L69.2891 71.2315Z" fill="white"/>
<path fill-rule="evenodd" clip-rule="evenodd" d="M73.4628 67.7226C73.4035 67.5043 73.2171 67.3514 72.994 67.3335C72.7833 67.3294 72.7799 67.3324 72.6285 67.4634L72.6239 67.4674L68.9489 70.8566C68.7459 71.0559 68.4191 71.4531 69.1343 71.7135L74.0099 73.3208C74.2807 73.4004 74.4953 73.2944 74.6119 73.0879C74.6181 73.0769 74.6244 73.0666 74.6305 73.0566C74.673 72.9875 74.7075 72.9312 74.6634 72.7191L73.4628 67.7226ZM73.4617 72.0692L70.2738 71.0184C70.801 70.5325 71.328 70.0465 71.8549 69.5605C72.129 69.3077 72.403 69.055 72.677 68.8023L73.4617 72.0692Z" fill="#DCD6E3"/>
<path d="M17.6113 56.2588L22.3289 54.2346L18.1208 51.2856L17.6113 56.2588Z" fill="white"/>
<path fill-rule="evenodd" clip-rule="evenodd" d="M18.4123 50.865C18.333 50.8128 18.2449 50.7823 18.1513 50.7738C17.8087 50.7633 17.6504 50.9613 17.6148 51.2294L17.1053 56.2026C17.0857 56.4778 17.2277 56.6612 17.4473 56.7357C17.4593 56.7398 17.4704 56.7441 17.4813 56.7482C17.5546 56.7763 17.6145 56.7991 17.8114 56.7215L22.529 54.6973C22.79 54.5756 23.2553 54.2892 22.6205 53.8139L18.4123 50.865ZM21.2904 54.1222L18.2059 55.4459C18.2615 54.904 18.3169 54.3622 18.3724 53.8203C18.428 53.2783 18.4835 52.7363 18.5391 52.1943L21.2904 54.1222Z" fill="#DCD6E3"/>
<path d="M83.6309 94.7188L88.3485 92.6945L84.1403 89.7456L83.6309 94.7188Z" fill="white"/>
<path fill-rule="evenodd" clip-rule="evenodd" d="M84.4338 89.3323C84.3552 89.2804 84.2671 89.2496 84.1728 89.2411C83.8301 89.2306 83.6719 89.4286 83.6363 89.6967L83.1268 94.6698C83.1072 94.9451 83.2492 95.1285 83.4688 95.203C83.4808 95.2071 83.4919 95.2114 83.5028 95.2155C83.5761 95.2435 83.636 95.2664 83.8329 95.1888L88.5504 93.1645C88.8064 93.0452 88.8969 92.8235 88.8474 92.5917C88.8448 92.5793 88.8427 92.5674 88.8407 92.5559C88.8268 92.476 88.8155 92.4109 88.642 92.2812L84.4338 89.3323ZM87.3119 92.5895L84.2274 93.9131C84.2829 93.3712 84.3384 92.8294 84.3939 92.2876C84.4494 91.7456 84.505 91.2036 84.5605 90.6615L87.3119 92.5895Z" fill="#DCD6E3"/>
<path d="M48.3765 31.661C49.3376 31.7826 48.8164 32.5749 48.4291 32.666L41.7718 33.9825C41.247 34.0669 40.8772 33.1488 41.5745 32.985L48.2318 31.6685C48.2573 31.6645 48.2843 31.6557 48.3765 31.661Z" fill="#DCD6E3"/>
<path d="M50.7589 35.1113C50.9022 35.1332 50.9386 35.1585 51.0043 35.2068C51.3249 35.4424 51.2569 36.0247 50.78 36.1192L40.633 37.6706C39.5954 37.783 39.9963 36.7609 40.4793 36.6655L50.6263 35.114C50.6769 35.1084 50.6436 35.1035 50.7589 35.1113Z" fill="#DCD6E3"/>
<path d="M66.8232 79.0736C67.2187 79.1144 67.4503 79.6325 67.1355 79.9486C65.9625 81.0098 64.7353 82.0094 63.5351 83.0394C63.1325 83.367 62.3688 82.7722 62.853 82.2856C64.026 81.2245 65.2532 80.2249 66.4534 79.1949C66.5583 79.1094 66.6264 79.0639 66.8232 79.0736Z" fill="#DCD6E3"/>
<path d="M71.0639 80.6738C71.3101 80.6988 71.3394 80.765 71.4069 80.8397C71.5936 81.0454 71.6041 81.3467 71.3586 81.5698L65.087 86.8684C64.8601 87.0472 64.7475 87.0053 64.6203 86.9694C64.2675 86.8695 64.1019 86.3899 64.4307 86.0916L70.7023 80.793C70.8864 80.6481 70.8816 80.6681 71.0639 80.6738Z" fill="#DCD6E3"/>
<path d="M250.938 100.844L245.829 111.742C245.737 111.94 245.449 111.921 245.384 111.712L243.84 106.748C243.804 106.633 243.677 106.573 243.566 106.619L238.76 108.608C238.558 108.691 238.359 108.483 238.451 108.285L243.346 97.8428C243.8 98.5875 244.535 99.1383 245.363 99.3888C246.501 99.7375 247.819 99.5216 248.839 98.4671L248.959 98.3417L248.998 98.5088C249.291 99.6765 250.038 100.455 250.938 100.844Z" fill="white"/>
<path fill-rule="evenodd" clip-rule="evenodd" d="M243.815 97.6193C243.749 97.4879 243.696 97.3823 243.391 97.3374C243.14 97.3262 243.027 97.3564 242.882 97.6275L237.985 108.074C237.825 108.436 237.991 108.89 238.337 109.059C238.547 109.163 238.617 109.198 238.681 109.19C238.74 109.182 238.794 109.139 238.946 109.08L243.45 107.217L244.897 111.868C245.104 112.49 246.022 112.496 246.285 111.963L251.395 101.06C251.547 100.688 251.139 100.379 251.139 100.379C250.319 100.018 249.714 99.2596 249.489 98.3878C249.489 98.3878 249.319 97.838 248.962 97.8339C248.675 97.8306 248.449 98.1356 248.449 98.1356C247.113 99.4833 244.901 99.1481 243.891 97.7523C243.859 97.706 243.836 97.6613 243.815 97.6193ZM243.403 106.135L239.202 107.871L239.208 107.859C240.623 104.841 242.037 101.823 243.452 98.8053C244.246 99.6103 245.359 100.078 246.478 100.049C247.628 100.019 248.717 99.274 248.717 99.274C249.037 100.013 249.581 100.662 250.266 101.069L245.66 110.897L244.32 106.588C244.223 106.305 243.955 106.103 243.663 106.094C243.58 106.091 243.536 106.091 243.403 106.135Z" fill="#DCD6E3"/>
<path d="M266.203 108.7L260.966 106.533L259.284 111.942C259.245 112.069 259.069 112.082 259.013 111.961L253.805 100.846C254.542 100.524 255.178 99.9413 255.542 99.0959C255.621 98.9115 255.687 98.7176 255.741 98.5088L255.78 98.3414L255.901 98.4671C256.921 99.5213 258.238 99.7375 259.376 99.3884C260.205 99.1379 260.937 98.5871 261.394 97.8428L266.391 108.503C266.447 108.623 266.326 108.75 266.203 108.7Z" fill="white"/>
<path fill-rule="evenodd" clip-rule="evenodd" d="M261.855 97.626C261.738 97.406 261.709 97.3786 261.451 97.3365C261.075 97.3145 260.925 97.6348 260.925 97.6348C259.919 99.1689 257.577 99.4099 256.309 98.1551C255.895 97.7379 255.406 97.8077 255.286 98.2253C255.286 98.2253 254.929 99.437 254.263 99.978C254.155 100.066 254.032 100.147 253.912 100.227C253.545 100.47 253.198 100.699 253.346 101.061L258.557 112.184C258.78 112.618 259.273 112.658 259.578 112.39C259.649 112.328 259.687 112.292 259.754 112.141L261.288 107.215L266.019 109.172C266.416 109.319 266.76 109.119 266.878 108.779C266.883 108.765 266.889 108.751 266.894 108.738C266.933 108.637 266.965 108.552 266.856 108.295L261.855 97.626ZM256.042 99.2676C257.644 100.463 261.283 98.8053 261.283 98.8053C261.283 98.8053 264.118 104.849 265.534 107.871L261.161 106.062C260.898 105.968 260.621 106.085 260.5 106.331L259.077 110.896L254.473 101.07L254.546 101.024C255.522 100.395 256.042 99.2676 256.042 99.2676Z" fill="#DCD6E3"/>
<path d="M265.276 88.9741L265.103 89.0185L265.229 89.1388C267.829 91.6532 265.337 95.9688 261.862 94.976L261.692 94.9292L261.739 95.094C262.036 96.1359 261.857 97.0894 261.395 97.8419C260.938 98.5862 260.205 99.137 259.377 99.3878C258.239 99.7366 256.922 99.5204 255.902 98.4662L255.781 98.3408L255.742 98.5079C255.688 98.7167 255.622 98.9106 255.543 99.095C255.179 99.9407 254.542 100.523 253.805 100.845C252.901 101.239 251.841 101.239 250.937 100.843C250.037 100.454 249.29 99.6753 248.998 98.5079L248.959 98.3408L248.838 98.4662C247.818 99.5204 246.501 99.7366 245.363 99.3878C244.535 99.137 243.8 98.5862 243.345 97.8419C242.881 97.0874 242.701 96.1359 242.998 95.094L243.045 94.9292L242.878 94.976C239.403 95.9688 236.911 91.6532 239.508 89.1388L239.634 89.0185L239.464 88.9741C235.957 88.0993 235.957 83.1125 239.464 82.235L239.634 82.1909L239.508 82.0702C236.911 79.5586 239.403 75.2403 242.878 76.2334L243.045 76.2826L242.998 76.1151C242.006 72.6374 246.321 70.1454 248.838 72.7432L248.959 72.8686L248.998 72.7015C249.878 69.1919 254.862 69.1919 255.742 72.7015L255.781 72.8686L255.902 72.7432C258.416 70.1454 262.734 72.6374 261.739 76.1151L261.692 76.2826L261.862 76.2334C264.602 75.4494 266.733 77.9733 266.234 80.3056C266.099 80.93 265.777 81.5418 265.229 82.0702L265.103 82.1909L265.276 82.235C268.783 83.1125 268.783 88.0993 265.276 88.9741Z" fill="white"/>
<path fill-rule="evenodd" clip-rule="evenodd" d="M256.016 71.9189C255.396 70.4977 253.937 69.5818 252.411 69.5601C250.846 69.553 249.401 70.4634 248.765 71.8369L248.765 71.8369C248.748 71.8752 248.731 71.9135 248.715 71.9521C245.806 69.7597 242.009 72.6161 242.379 75.6111C238.75 75.162 236.931 79.5746 238.722 81.9462C235.42 83.3434 235.938 88.0851 238.722 89.2612C237.342 91.0903 237.954 93.7978 239.755 94.9913C240.864 95.7265 242.378 95.6058 242.378 95.6058C242.106 97.9039 244.006 99.919 246.159 100.043C247.475 100.119 248.722 99.2733 248.722 99.2733C249.614 101.328 252.206 102.172 254.129 101.256C255.373 100.664 256.045 99.2672 256.045 99.2672C258.882 101.384 262.75 98.55 262.363 95.596C266.012 96.0471 267.819 91.6431 266.021 89.2619C268.137 88.3674 268.947 85.7486 268.011 83.819C267.422 82.6041 266.026 81.9391 266.026 81.9391C268.156 79.1027 265.266 75.2298 262.363 75.6111C262.788 72.1907 258.688 70.1967 256.242 71.8009C255.844 72.0684 256.016 71.9189 256.016 71.9189ZM249.511 72.7555C249.87 71.4675 251.066 70.5977 252.342 70.5798C253.616 70.574 254.822 71.44 255.201 72.6511C255.591 73.9436 256.294 73.0721 256.294 73.0721C257.66 71.7048 259.94 72.0864 260.91 73.5514C261.365 74.2385 261.477 75.1079 261.271 75.9058C261.006 76.8905 262.003 76.724 262.003 76.724C264.699 75.9654 266.586 79.1872 265.36 81.1189C265.268 81.2628 265.154 81.404 265.043 81.5411C264.748 81.9065 264.476 82.243 264.72 82.5253C264.873 82.7019 265.189 82.7391 265.189 82.7391C267.041 83.2337 267.858 85.3766 267.095 86.949C266.736 87.6899 266.046 88.2272 265.26 88.4543C264.144 88.7641 264.877 89.5061 264.877 89.5061C266.274 90.8714 265.888 93.178 264.427 94.1467C263.752 94.5938 262.896 94.7111 262.109 94.5175C261.215 94.287 261.204 95.07 261.204 95.07C262.017 97.9315 258.866 99.8215 256.901 98.6247C256.723 98.516 256.561 98.3757 256.409 98.2442C256.108 97.9832 255.847 97.7565 255.574 97.8786C255.293 98.005 255.242 98.4165 255.242 98.4165C254.726 100.3 252.569 101.093 250.998 100.312C250.239 99.9345 249.972 99.2716 249.751 98.7263C249.564 98.2615 249.411 97.882 249.017 97.8376C248.708 97.8023 248.453 98.1359 248.453 98.1359C247.171 99.4283 244.99 99.1755 243.957 97.8356C243.419 97.1366 243.248 96.1876 243.465 95.3205C243.751 94.246 242.742 94.4884 242.742 94.4884C240.854 95.0175 239.037 93.5139 238.946 91.7479C238.904 90.9358 239.243 90.1375 239.811 89.5579C240.583 88.7871 239.593 88.4838 239.593 88.4838C237.686 87.9977 236.871 85.786 237.674 84.2126C238.037 83.5001 238.714 82.9812 239.483 82.7585C240.369 82.5117 239.988 81.8263 239.988 81.8263C238.445 80.342 238.857 77.8826 240.492 76.9589C241.111 76.6091 241.864 76.522 242.563 76.6786C243.714 76.9494 243.536 76.1475 243.536 76.1475C242.957 74.0761 244.512 72.1783 246.378 72.1776C247.143 72.1771 247.708 72.5981 248.168 72.9403C248.588 73.2535 248.92 73.5007 249.235 73.2979C249.48 73.1406 249.511 72.7555 249.511 72.7555Z" fill="#DCD6E3"/>
<path d="M244.191 88.3005C244.191 88.3005 244.057 88.2721 243.787 88.2154C243.518 88.1585 243.265 88.0751 243.028 87.9656C242.791 87.8562 242.579 87.724 242.393 87.5697L242.908 86.6522C243.136 86.8389 243.398 86.983 243.696 87.0847C243.994 87.186 244.3 87.2369 244.614 87.2369C244.976 87.2369 245.258 87.1752 245.458 87.0518C245.658 86.9291 245.759 86.7549 245.759 86.5302V86.5261C245.759 86.3692 245.714 86.2448 245.625 86.1526C245.535 86.0607 245.419 85.9929 245.275 85.9495C245.132 85.9065 244.948 85.8672 244.723 85.8319C244.715 85.8292 244.708 85.8278 244.701 85.8278C244.694 85.8278 244.687 85.8265 244.678 85.8238L244.589 85.8116C244.194 85.7492 243.867 85.6712 243.606 85.578C243.347 85.4845 243.126 85.3208 242.945 85.0869C242.763 84.8527 242.673 84.5205 242.673 84.09V84.0859C242.673 83.7043 242.758 83.3782 242.928 83.1074C243.099 82.8366 243.347 82.6301 243.672 82.4881C243.997 82.3457 244.389 82.2749 244.849 82.2749C245.06 82.2749 245.276 82.299 245.497 82.3478C245.717 82.3966 245.933 82.4671 246.145 82.5593C246.356 82.6511 246.556 82.7623 246.745 82.8921L246.275 83.8341C246.047 83.6772 245.809 83.5551 245.562 83.4687C245.314 83.3819 245.076 83.3385 244.849 83.3385C244.508 83.3385 244.244 83.3948 244.057 83.507C243.871 83.6195 243.777 83.7772 243.777 83.9802V83.9843C243.777 84.1548 243.826 84.2897 243.923 84.3883C244.021 84.4873 244.142 84.5595 244.285 84.6056C244.428 84.6517 244.63 84.7001 244.89 84.7517C244.901 84.7547 244.911 84.7564 244.922 84.7578C244.933 84.7591 244.944 84.7615 244.955 84.7639C244.971 84.7666 244.987 84.77 245.002 84.774C245.016 84.7781 245.032 84.7815 245.048 84.7842C245.422 84.8574 245.734 84.9462 245.984 85.0503C246.234 85.1543 246.444 85.3221 246.612 85.5536C246.779 85.7851 246.863 86.1014 246.863 86.5017V86.5098C246.863 86.8864 246.775 87.2084 246.599 87.4762C246.423 87.7443 246.167 87.9487 245.83 88.0894C245.493 88.2304 245.088 88.3005 244.614 88.3005H244.191Z" fill="#DCD6E3"/>
<path fill-rule="evenodd" clip-rule="evenodd" d="M250.117 82.3345H249.41L247.152 88.2381H248.35L248.682 87.2921H250.845L251.176 88.2381H252.374L250.117 82.3345ZM250.469 86.2203H251.344V87.2921H250.845L250.469 86.2203ZM250.469 86.2203H249.057L249.763 84.2062L250.469 86.2203ZM249.057 86.2203L248.682 87.2921H248.238V86.2203H249.057Z" fill="#DCD6E3"/>
<path fill-rule="evenodd" clip-rule="evenodd" d="M254.212 82.3345H253.1V88.2381H253.597V88.2386H257.057V87.1665H254.212V82.3345ZM254.212 87.1665H253.597V88.2381H254.212V87.1665Z" fill="#DCD6E3"/>
<path fill-rule="evenodd" clip-rule="evenodd" d="M258.272 82.3345H257.869V88.2381H258.272V88.2386H261.824V87.1665H258.982V85.844H261.378V84.7719H258.982V83.4063H261.824V82.3345H258.982V83.4063H258.272V82.3345ZM258.982 84.7719H258.272V85.844H258.982V84.7719ZM258.982 87.1665H258.272V88.2381H258.982V87.1665Z" fill="#DCD6E3"/>
<path d="M269.49 66.1939C269.938 66.2338 270.127 66.9245 269.682 67.1574C268.722 67.6025 267.742 68.0023 266.772 68.4245C266.303 68.6157 265.726 67.826 266.344 67.5025C267.304 67.0573 268.284 66.6572 269.254 66.235C269.328 66.2053 269.353 66.1883 269.49 66.1939Z" fill="#DCD6E3"/>
<path d="M260.94 60.3975C261.204 60.4124 261.422 60.632 261.432 60.8979C261.424 61.8879 261.369 62.8771 261.337 63.867C261.309 64.3724 260.348 64.5563 260.321 63.8585C260.329 62.8685 260.384 61.8793 260.416 60.8894C260.431 60.6131 260.613 60.3948 260.94 60.3975Z" fill="#DCD6E3"/>
<path d="M265.658 62.3311C266.02 62.3533 266.261 62.7901 266.07 63.1101C265.473 64.0124 264.836 64.887 264.22 65.7754C263.911 66.1991 263.064 65.73 263.372 65.2148C263.968 64.3125 264.605 63.4378 265.221 62.5493C265.324 62.4082 265.432 62.328 265.658 62.3311Z" fill="#DCD6E3"/>
<path d="M188.682 69.6786V167.607C188.682 176.669 181.336 184.016 172.274 184.016H104.633C95.5708 184.016 88.2246 176.669 88.2246 167.607V25.4143C88.2246 15.6046 96.1769 7.65234 105.987 7.65234H170.92C180.73 7.65234 188.682 15.6046 188.682 25.4143V61.4298" fill="white"/>
<path d="M171.042 6.8033C178.603 6.87516 185.914 11.9504 188.478 19.2281C189.177 21.2113 189.524 23.3125 189.531 25.411V61.4278C189.421 61.9789 189.194 62.086 189.008 62.2108L188.683 62.2752L188.359 62.2108L188.084 62.027C187.902 61.7538 187.9 61.7498 187.836 61.4278C187.836 49.386 187.875 37.3443 187.836 25.3029C187.756 16.8245 180.642 8.91195 171.684 8.51469C171.466 8.50486 171.249 8.50012 171.031 8.49809C149.314 8.42962 127.596 8.42962 105.878 8.49809C97.3998 8.57876 89.4875 15.6914 89.0903 24.6493C89.0804 24.8673 89.0757 25.0849 89.0737 25.3029C88.9242 72.7703 88.9211 120.239 89.0737 167.706C89.1492 175.693 95.9901 183.085 104.533 183.166C127.148 183.237 149.762 183.237 172.376 183.166C180.394 183.09 187.809 176.146 187.836 167.604V69.6766C187.88 69.4563 187.892 69.2058 188.359 68.8936L188.683 68.8292L189.008 68.8936L189.283 69.0773C189.465 69.3505 189.467 69.3546 189.531 69.6766C189.531 102.357 189.632 135.037 189.53 167.717C189.447 176.445 182.088 184.501 172.942 184.849C172.757 184.856 172.572 184.859 172.387 184.861C149.765 184.932 127.144 184.932 104.523 184.861C95.8219 184.778 87.8009 177.515 87.3958 168.382C87.386 168.161 87.3809 167.939 87.3789 167.717C87.2264 120.242 87.2294 72.7669 87.3789 25.292C87.468 15.9785 95.3003 7.25818 105.15 6.82161C105.389 6.81076 105.628 6.80568 105.868 6.8033C127.592 6.73484 149.317 6.73484 171.042 6.8033Z" fill="black"/>
<path fill-rule="evenodd" clip-rule="evenodd" d="M175.029 172.207H101.882C98.7857 172.207 96.2754 169.697 96.2754 166.601V24.1003C96.2754 19.6552 99.8788 16.0518 104.324 16.0518H172.587C177.032 16.0518 180.636 19.6552 180.636 24.1003V166.601C180.636 169.697 178.126 172.207 175.029 172.207Z" fill="black"/>
<path fill-rule="evenodd" clip-rule="evenodd" d="M181.486 24.04C181.442 19.1743 177.25 15.2451 172.648 15.2017C168.912 15.1898 165.177 15.1761 161.441 15.1623C142.365 15.092 123.288 15.0218 104.212 15.2021C99.4212 15.278 95.5049 19.4075 95.432 23.9824C94.987 71.5467 95.1331 119.116 95.432 166.681C95.4981 170.167 98.5406 173.031 101.883 173.052C110.008 173.052 118.133 173.069 126.258 173.086C142.544 173.12 158.83 173.154 175.116 173.051C178.592 172.986 181.466 169.944 181.487 166.601C181.487 150.773 181.503 134.945 181.52 119.117C181.554 87.4243 181.587 55.732 181.486 24.04ZM97.1251 24.0493C97.1617 20.158 100.578 16.9068 104.328 16.8949C111.915 16.8949 119.502 16.8711 127.089 16.8473C142.287 16.7995 157.486 16.7518 172.683 16.8956C176.569 16.9569 179.731 20.3089 179.79 24.0025C180.226 71.5526 180.089 119.107 179.79 166.659C179.742 169.229 177.551 171.309 175.093 171.355C150.67 171.509 126.246 171.509 101.823 171.355C99.2527 171.307 97.1722 169.111 97.1254 166.659C96.8268 119.123 96.9743 71.5855 97.1251 24.0493Z" fill="black"/>
<path d="M144.189 176.74C144.697 176.811 144.86 177.722 144.142 177.755H132.768C131.772 177.709 132.246 176.762 132.768 176.738H144.142C144.158 176.739 144.174 176.74 144.189 176.74Z" fill="black"/>
<path d="M142.769 12.0776C143.025 12.1074 143.041 12.1702 143.109 12.2464C143.365 12.5332 143.167 13.0765 142.73 13.0931H135.177C134.892 13.0823 134.875 13.0108 134.797 12.923C134.541 12.6362 134.739 12.0929 135.177 12.0763C137.707 12.0763 140.24 11.9807 142.769 12.0776Z" fill="black"/>
<path fill-rule="evenodd" clip-rule="evenodd" d="M108.628 37.4085L108.102 39.7493C107.231 44.3218 103.263 47.791 98.4702 47.9069C93.7449 48.0208 89.5065 44.6845 88.4229 40.0838C88.0711 38.588 88.0961 37.1525 88.3731 35.8452C88.4049 35.6533 88.4514 35.4723 88.4941 35.291L91.3539 30.5195L99.5007 16.9087C99.5041 16.9053 99.5041 16.9016 99.5078 16.9016C99.8308 16.3617 100.421 16.0454 101.05 16.0454H116.035L108.628 37.4085Z" fill="#7BA4F5"/>
<path fill-rule="evenodd" clip-rule="evenodd" d="M108.933 39.9284L109.446 37.6466L117.228 15.2036H101.048C100.428 15.2084 99.8138 15.4229 99.3399 15.8195C99.3245 15.8324 99.3098 15.8446 99.2956 15.8563C99.1366 15.9883 99.0512 16.0593 98.8345 16.3889L90.6287 30.0895L87.7018 34.9729C87.6147 35.3386 87.5327 35.705 87.4686 36.0786C86.6063 41.1009 89.7508 46.2615 94.406 48.0488C100.506 50.3906 107.739 46.1032 108.933 39.9284ZM100.08 17.5959C100.08 17.5959 100.475 16.9014 101.054 16.897H114.846L107.828 37.135L108.629 37.4126L107.802 37.2269L107.273 39.5799L107.251 39.6928C106.318 44.2507 101.785 47.4667 97.3502 47.0224C91.9486 46.481 88.0638 40.7622 89.2895 35.6189L92.0821 30.9592L100.08 17.5959Z" fill="black"/>
<path fill-rule="evenodd" clip-rule="evenodd" d="M131.021 16.0454L128.502 37.4085L128.406 38.2114C128.399 38.0908 128.399 37.9769 128.399 37.8562C128.399 38.0196 128.399 38.1864 128.392 38.3535L128.378 38.428C128.083 43.7147 123.702 47.9107 118.345 47.9107C113.42 47.9107 109.319 44.3774 108.444 39.7042C108.3 38.9375 108.372 38.1453 108.628 37.4085L116.035 16.0454H131.021Z" fill="#0053F5"/>
<path fill-rule="evenodd" clip-rule="evenodd" d="M129.222 38.5384L129.345 37.514C130.222 30.0792 131.098 22.6447 131.975 15.2103L131.976 15.2036H115.434L107.828 37.1378C107.604 37.7913 107.498 38.4841 107.532 39.1726C107.54 39.3468 107.557 39.5207 107.583 39.6932C108.386 44.9704 113.488 48.9172 118.685 48.7586C124.116 48.5925 128.906 43.902 129.222 38.5384ZM114.222 23.8202C115.031 21.5134 115.841 19.2067 116.642 16.897H130.071L127.664 37.3126L127.599 37.8597C127.599 37.8597 127.599 37.7614 127.51 38.724C127.001 44.2161 121.222 48.044 116.149 46.8041C111.973 45.7831 108.246 41.335 109.413 37.7472C110.969 33.0888 112.595 28.4545 114.222 23.8202Z" fill="black"/>
<path fill-rule="evenodd" clip-rule="evenodd" d="M148.51 38.1253C148.368 43.5611 143.916 47.9167 138.463 47.9167C133.027 47.9167 128.596 43.6143 128.408 38.2317V38.2175L131.023 16.0518H146.009L148.51 38.1253Z" fill="#7BA4F5"/>
<path fill-rule="evenodd" clip-rule="evenodd" d="M140.226 48.6185C145.246 47.7996 149.21 43.1413 149.358 38.0865L146.765 15.2012H130.27L127.561 38.1644C127.561 38.3092 127.569 38.4539 127.578 38.5986C127.997 44.9341 134.308 49.5839 140.226 48.6185ZM129.258 38.2501L131.778 16.8945H145.253L147.663 38.1569C147.493 42.9484 143.341 46.9172 138.756 47.0603C133.883 47.2121 129.438 42.9907 129.258 38.2501Z" fill="black"/>
<path fill-rule="evenodd" clip-rule="evenodd" d="M168.631 37.8562C168.631 43.4127 164.126 47.9107 158.576 47.9107C153.705 47.9107 149.637 44.4394 148.71 39.835L148.703 39.8066L148.529 38.1938L148.511 38.1189L146.01 16.0454H160.74L168.631 37.8562Z" fill="#0053F5"/>
<path fill-rule="evenodd" clip-rule="evenodd" d="M162.695 47.958C166.702 46.3215 169.465 42.1154 169.478 37.7144L161.334 15.2036H145.061L147.674 38.2699L147.866 39.9613L147.903 40.1247C148.48 42.7973 150.079 45.2128 152.308 46.7814C155.283 48.8752 159.333 49.3314 162.695 47.958ZM149.346 37.9777L146.958 16.897H160.144L167.781 38.039C167.674 42.8146 163.685 46.7627 159.167 47.0488C154.712 47.3308 150.423 43.9999 149.536 39.6514L149.346 37.9777Z" fill="black"/>
<path fill-rule="evenodd" clip-rule="evenodd" d="M188.483 40.1112C187.385 44.7122 183.139 48.0411 178.41 47.9133C173.324 47.7733 169.178 43.8611 168.679 38.8733C168.607 38.1453 168.471 37.425 168.222 36.7366L160.738 16.0518H175.886C176.511 16.0518 177.09 16.3792 177.412 16.9147L185.548 30.5187C185.558 30.5187 185.558 30.5259 185.558 30.5259L188.415 35.297C188.415 35.315 188.422 35.3221 188.422 35.3221C188.468 35.496 188.507 35.6702 188.536 35.8515C188.813 37.166 188.841 38.6083 188.483 40.1112Z" fill="#7BA4F5"/>
<path fill-rule="evenodd" clip-rule="evenodd" d="M178.138 16.4719C177.673 15.7119 176.822 15.2225 175.93 15.2005C172.281 15.1701 168.633 15.1801 164.984 15.1901C163.166 15.1951 161.349 15.2001 159.531 15.2001L167.425 37.0187C167.656 37.6668 167.749 38.3527 167.841 39.0365C167.857 39.1559 167.873 39.2753 167.89 39.3945C168.671 44.9198 174.181 49.2164 179.64 48.7158C185.225 48.2039 189.791 42.9379 189.589 37.4766C189.544 36.2696 189.205 34.9619 189.205 34.9619L186.315 30.1335L186.239 30.004L178.138 16.4719ZM164.321 23.4311C163.528 21.2522 162.736 19.0733 161.947 16.8932C163.496 16.8932 165.046 16.8806 166.595 16.868C169.703 16.8428 172.812 16.8176 175.918 16.8938C176.218 16.906 176.504 17.0654 176.67 17.3192C178.615 20.3822 180.45 23.513 182.285 26.6437C183.2 28.205 184.115 29.7663 185.044 31.3191L187.627 35.6222L187.731 36.1337C188.597 40.5889 185.746 45.1411 181.6 46.5708C177.718 47.9093 173.131 46.239 170.936 42.8291C170.026 41.4143 169.699 39.7185 169.429 38.0522C169.377 37.7312 169.31 37.4125 169.226 37.0987C169.22 37.0775 169.215 37.0581 169.21 37.0399C169.173 36.8986 169.154 36.8272 169.046 36.5147C167.49 32.1466 165.905 27.7889 164.321 23.4311Z" fill="black"/>
<rect x="88.2832" y="36.8828" width="100.464" height="1.69478" fill="black"/>
<path d="M154.681 115.669H122.346C117.195 115.669 113.02 111.493 113.02 106.342V74.007C113.02 68.8566 117.195 64.6807 122.346 64.6807H154.681C159.832 64.6807 164.008 68.8566 164.008 74.007V106.342C164.008 111.493 159.832 115.669 154.681 115.669Z" fill="white" fill-opacity="0.3"/>
<path d="M154.681 115.669H122.346C117.195 115.669 113.02 111.493 113.02 106.342V74.007C113.02 68.8566 117.195 64.6807 122.346 64.6807H154.681C159.832 64.6807 164.008 68.8566 164.008 74.007V106.342C164.008 111.493 159.832 115.669 154.681 115.669Z" fill="white" fill-opacity="0.3"/>
<path d="M148.655 107.406H128.378C124.459 107.406 121.281 104.229 121.281 100.309V80.0324C121.281 76.1131 124.459 72.936 128.378 72.936H148.655C152.574 72.936 155.751 76.1131 155.751 80.0324V100.309C155.751 104.229 152.574 107.406 148.655 107.406Z" fill="#D6F318"/>
<path fill-rule="evenodd" clip-rule="evenodd" d="M156.511 79.9812C156.471 75.7371 152.768 72.212 148.703 72.173C141.91 72.1513 135.117 72.1513 128.324 72.173C124.087 72.2137 120.581 75.8873 120.517 79.9307C120.453 86.7569 120.453 93.5838 120.517 100.41C120.584 104.643 124.242 108.103 128.274 108.167C134 108.221 139.727 108.2 145.454 108.179C146.537 108.176 147.62 108.172 148.703 108.168C152.947 108.128 156.446 104.468 156.511 100.41C156.564 94.6839 156.544 88.9572 156.523 83.2306C156.519 82.1475 156.515 81.0643 156.511 79.9812ZM122.042 79.9932C122.075 76.5216 125.079 73.711 128.378 73.7005C130.635 73.7005 132.892 73.6981 135.15 73.6957C139.664 73.6908 144.179 73.686 148.694 73.7005C152.117 73.7334 154.935 76.6914 154.986 79.9522C155.04 85.6705 155.019 91.3895 154.998 97.1083C154.994 98.1895 154.99 99.2707 154.987 100.352C154.955 103.78 152 106.592 148.735 106.644C143.017 106.698 137.299 106.677 131.58 106.656C130.499 106.652 129.417 106.648 128.335 106.645C124.908 106.613 122.095 103.652 122.043 100.393C121.989 94.6747 122.01 88.9558 122.031 83.2371C122.035 82.1558 122.039 81.0745 122.042 79.9932Z" fill="black"/>
<path d="M129.434 85.6133H146.601L144.988 93.7936L131.047 92.2958L129.434 85.6133Z" fill="#FCFFE7"/>
<path fill-rule="evenodd" clip-rule="evenodd" d="M147.265 85.7446C147.323 85.3531 147.055 84.9962 146.667 84.9389C146.646 84.9376 146.624 84.9367 146.603 84.9357L146.6 84.9355H129.433C129.006 84.9569 128.695 85.3552 128.774 85.7724L130.387 92.4549C130.468 92.7315 130.694 92.9264 130.974 92.9702L144.915 94.468C145.269 94.4883 145.569 94.2612 145.652 93.925L147.265 85.7446ZM131.594 91.6706L130.294 86.289H145.776L144.443 93.0512L131.594 91.6706Z" fill="black"/>
<path d="M151.067 80.1C151.721 80.2234 151.907 81.2362 151.107 81.4372C150.15 81.6239 149.182 81.7666 148.233 81.9978C148.087 82.0365 147.973 82.1588 147.942 82.308L145.631 94.0291L145.63 96.6821C145.591 97.7135 144.716 98.6029 143.649 98.6168H130.93C130.226 98.5785 129.898 97.3169 130.93 97.261C135.174 97.261 139.418 97.3159 143.662 97.2607C143.991 97.2481 144.271 96.9631 144.275 96.6268V93.963C144.278 93.8972 144.278 93.8972 144.288 93.8318C145.065 89.8911 145.807 85.9436 146.619 82.01C146.771 81.3416 147.324 80.7993 147.993 80.6627L150.849 80.1064C150.932 80.0949 150.877 80.0847 151.067 80.1Z" fill="black"/>
<path d="M134.645 99.5613C134.645 100.15 134.168 100.627 133.579 100.627C132.991 100.627 132.514 100.15 132.514 99.5613C132.514 98.9729 132.991 98.4956 133.579 98.4956C134.168 98.4956 134.645 98.9729 134.645 99.5613Z" fill="white"/>
<path fill-rule="evenodd" clip-rule="evenodd" d="M134.262 101.171C136.089 100.397 135.118 97.8776 133.627 97.821C132.858 97.8112 132.306 98.1972 132.012 98.8077C131.299 100.286 133.02 101.696 134.262 101.171ZM133.836 99.8584C133.255 100.362 133.121 99.1944 133.573 99.1774C133.82 99.174 134.009 99.4184 133.963 99.6435C133.955 99.6804 133.943 99.716 133.925 99.7492C133.902 99.7902 133.872 99.8275 133.836 99.8584Z" fill="black"/>
<path d="M143.085 99.5613C143.085 100.15 142.608 100.627 142.019 100.627C141.43 100.627 140.953 100.15 140.953 99.5613C140.953 98.9729 141.43 98.4956 142.019 98.4956C142.608 98.4956 143.085 98.9729 143.085 99.5613Z" fill="white"/>
<path fill-rule="evenodd" clip-rule="evenodd" d="M143.513 100.468C144.193 99.347 143.272 97.8657 142.066 97.82C141.251 97.8095 140.663 98.2552 140.399 98.9236C139.56 101.051 142.666 101.859 143.513 100.468ZM142.277 99.8568C141.696 100.361 141.561 99.1928 142.013 99.1759C142.261 99.1725 142.45 99.4165 142.404 99.6423C142.396 99.6789 142.383 99.7145 142.365 99.7477C142.343 99.789 142.312 99.826 142.277 99.8568Z" fill="black"/>
<path d="M134.803 84.937C135.136 84.9726 135.382 85.1675 135.428 85.5548L136.037 92.6239C136.065 93.1464 135.901 93.1592 135.688 93.2762C135.296 93.4921 134.743 93.2239 134.686 92.7403L134.077 85.6712C134.07 85.5377 134.079 85.5148 134.093 85.4554C134.183 85.0789 134.731 84.9337 134.803 84.937Z" fill="black"/>
<path d="M141.435 85.1624C141.577 85.1715 141.615 85.1877 141.688 85.22C141.957 85.3393 142.12 85.5679 142.086 85.9267L141.175 92.9641C141.062 93.663 139.739 93.7271 139.83 92.79L140.741 85.7527C140.762 85.6211 140.776 85.6003 140.802 85.5453C140.915 85.3121 141.157 85.1622 141.435 85.1624Z" fill="black"/>
<path d="M198.741 29.8558C198.995 29.8771 199.199 30.0808 199.22 30.3347C199.26 31.7448 199.367 33.2155 199.218 34.5422C199.165 35.0133 198.26 35.1638 198.205 34.514C198.166 33.1311 198.204 31.7468 198.204 30.3632C198.212 30.0768 198.388 29.8459 198.741 29.8558Z" fill="black"/>
<path d="M178.784 2.95141e-06C187.186 0.0799966 195.293 5.72972 198.098 13.8521C198.843 16.0072 199.213 18.285 199.22 20.5675V25.6475C199.183 26.1894 198.255 26.4047 198.203 25.6475C198.203 21.7088 198.383 17.7206 197.098 14.0707C194.441 6.52796 186.801 1.04229 178.65 1.01653C178.65 1.01653 178.374 0.99789 178.235 0.799939C178 0.464712 178.292 -0.00135287 178.784 2.95141e-06Z" fill="black"/>
<path fill-rule="evenodd" clip-rule="evenodd" d="M227.349 184.013H160.15C158.707 184.013 157.583 182.758 157.746 181.321L165.399 113.39C165.537 112.166 166.573 111.24 167.806 111.24H219.692C220.926 111.24 221.962 112.166 222.1 113.39L223.051 121.844L229.756 181.321C229.915 182.758 228.795 184.013 227.349 184.013Z" fill="#E3F37A"/>
<path fill-rule="evenodd" clip-rule="evenodd" d="M222.938 113.254C222.728 111.644 221.299 110.419 219.732 110.391C202.411 110.288 185.089 110.288 167.768 110.391C166.143 110.42 164.765 111.704 164.562 113.254C161.873 135.91 159.315 158.582 156.9 181.269C156.723 183.182 158.311 184.821 160.106 184.858C182.535 185.009 204.966 185.009 227.395 184.858C229.294 184.819 230.766 183.067 230.604 181.271C229.227 168.026 227.697 154.799 226.167 141.571C225.403 134.964 224.639 128.357 223.894 121.747L222.938 113.254ZM166.245 113.462C166.345 112.696 167.047 112.088 167.811 112.083C173.578 112.083 179.345 112.072 185.112 112.061C196.646 112.038 208.18 112.015 219.714 112.083C220.469 112.097 221.149 112.699 221.255 113.443C221.501 115.326 221.702 117.215 221.904 119.103C222.004 120.047 222.105 120.991 222.211 121.935L228.916 181.408C229.007 182.292 228.267 183.131 227.396 183.161C204.971 183.615 182.533 183.616 160.108 183.161C159.244 183.132 158.518 182.312 158.586 181.457C160.293 163.047 162.499 144.687 164.706 126.328C165.221 122.04 165.736 117.751 166.245 113.462Z" fill="black"/>
<path d="M178.683 117.756C178.683 119.14 177.562 120.261 176.178 120.261C174.795 120.261 173.674 119.14 173.674 117.756C173.674 116.373 174.795 115.251 176.178 115.251C177.562 115.251 178.683 116.373 178.683 117.756Z" fill="white"/>
<path d="M213.826 117.756C213.826 119.14 212.704 120.261 211.321 120.261C209.938 120.261 208.816 119.14 208.816 117.756C208.816 116.373 209.938 115.251 211.321 115.251C212.704 115.251 213.826 116.373 213.826 117.756Z" fill="white"/>
<path d="M193.872 88.5042C203.159 88.5923 211.784 96.4788 212.157 106.212C212.166 106.448 212.17 106.684 212.171 106.92V117.756C212.149 118.103 212.074 118.194 211.941 118.336C211.493 118.813 210.524 118.525 210.476 117.756C210.476 113.859 210.653 109.966 210.454 106.064C210.144 99.9995 206.227 94.2698 200.709 91.7232C196.18 89.6339 190.704 89.7329 186.25 91.9883C180.765 94.7657 177.051 100.696 177.03 106.923V117.756C177.008 118.103 176.934 118.194 176.8 118.336C176.352 118.813 175.384 118.525 175.336 117.756C175.336 111.976 174.567 105.942 176.382 100.815C178.883 93.7515 186.018 88.5764 193.634 88.5042C193.713 88.5038 193.793 88.5038 193.872 88.5042Z" fill="black"/>
<path d="M176.847 141.224C176.982 141.239 177.102 141.301 177.193 141.401L181.915 146.956C182.213 147.331 182.085 147.427 181.905 147.626C181.709 147.842 181.345 147.84 181.14 147.615L176.418 142.06C175.848 141.343 176.488 141.207 176.847 141.224Z" fill="black"/>
<path d="M180.092 141.415C180.598 141.448 181.103 142.335 181.629 142.976C181.941 143.382 181.264 144.07 180.855 143.634C180.289 142.991 179.525 142.315 179.56 141.882C179.581 141.622 179.816 141.406 180.092 141.415Z" fill="black"/>
<path d="M175.872 143.732C176.003 143.743 176.123 143.799 176.214 143.892C177.084 144.867 177.907 145.882 178.753 146.878C179.069 147.268 178.495 148.065 177.994 147.554C177.125 146.58 176.302 145.564 175.456 144.569C175.198 144.251 175.398 143.716 175.872 143.732Z" fill="black"/>
<path d="M215.695 112.094H219.641C220.442 112.094 221.114 112.696 221.202 113.491L223.179 131.279L228.934 181.059C229.064 182.189 228.181 183.181 227.043 183.181H216.159C216.159 183.181 217.093 182.057 217.464 179.9C217.963 176.997 215.695 112.094 215.695 112.094Z" fill="black" fill-opacity="0.25" style="mix-blend-mode:overlay"/>
<path fill-rule="evenodd" clip-rule="evenodd" d="M261.129 140.083L269.473 184.017H263.37" fill="#D6F318"/>
<path d="M261.129 140.083L269.473 184.017H263.37" fill="black" fill-opacity="0.25" style="mix-blend-mode:overlay"/>
<path d="M261.129 140.083L269.473 184.017H263.37" fill="black" fill-opacity="0.25" style="mix-blend-mode:overlay"/>
<path d="M261.21 139.242C261.764 139.337 261.826 139.422 261.96 139.928L270.304 183.861C270.366 184.371 270.008 184.83 269.471 184.867H263.369C262.5 184.805 262.252 183.252 263.369 183.172H268.448L260.295 140.243C260.295 140.243 260.251 139.217 261.21 139.242Z" fill="black"/>
<path d="M261.205 139.244C261.81 139.343 261.904 139.476 261.974 140.044L264.215 183.977C264.197 184.848 262.659 185.175 262.522 184.063L260.281 140.131C260.289 139.781 260.334 139.767 260.392 139.666C260.535 139.417 260.661 139.233 261.205 139.244Z" fill="black"/>
<path fill-rule="evenodd" clip-rule="evenodd" d="M196.601 156.164L198.68 137.711C198.78 136.813 199.544 136.13 200.448 136.13H259.092C259.997 136.13 260.761 136.813 260.861 137.711L260.945 138.472L261.127 140.087L263.368 184.02H196.17C194.727 184.02 193.603 182.765 193.766 181.328L195.53 165.671" fill="#EDF3C2"/>
<path d="M259.155 135.281C260.4 135.325 261.511 136.297 261.696 137.553C261.73 137.826 261.758 138.101 261.788 138.375L261.972 140.015L264.215 183.974C264.187 184.685 264.017 184.806 263.369 184.865C240.954 184.865 218.539 185.018 196.125 184.864C194.336 184.827 192.744 183.167 192.92 181.275L194.688 165.573C194.688 165.573 194.991 164.755 195.625 164.826C196.064 164.876 196.384 165.29 196.372 165.763C195.783 170.997 195.09 176.221 194.604 181.465C194.535 182.334 195.286 183.164 196.173 183.17H262.477L260.282 140.153C260.125 138.754 260.357 137.019 259.115 136.975C239.554 136.749 219.988 136.749 200.426 136.975C199.975 136.991 199.578 137.352 199.522 137.808L197.443 156.256C197.313 156.9 196.464 157.246 195.987 156.745C195.819 156.568 195.753 156.325 195.759 156.066L197.839 137.609C197.993 136.354 199.1 135.327 200.386 135.281C219.975 135.054 239.567 135.054 259.155 135.281Z" fill="black"/>
<path d="M218.664 146.655C218.664 148.039 217.542 149.16 216.159 149.16C214.776 149.16 213.654 148.039 213.654 146.655C213.654 145.272 214.776 144.15 216.159 144.15C217.542 144.15 218.664 145.272 218.664 146.655Z" fill="white" fill-opacity="0.3"/>
<path d="M242.187 146.655C242.187 148.039 241.066 149.16 239.682 149.16C238.299 149.16 237.178 148.039 237.178 146.655C237.178 145.272 238.299 144.15 239.682 144.15C241.066 144.15 242.187 145.272 242.187 146.655Z" fill="white" fill-opacity="0.3"/>
<path d="M239.77 145.812C240.191 145.879 240.506 146.221 240.529 146.655C240.529 149.1 240.537 151.544 240.529 153.989C240.471 160.049 235.516 165.686 229.441 166.425C222.485 167.271 215.381 161.424 215.311 153.989L215.311 153.909V146.655C215.311 146.655 215.346 146.197 215.66 145.969C216.166 145.602 216.965 145.885 217.005 146.655C217.005 149.096 216.998 151.537 217.006 153.978C217.055 159.231 221.352 164.104 226.603 164.742C232.645 165.478 238.812 160.396 238.834 153.906V146.655C238.86 146.167 239.252 145.785 239.77 145.812Z" fill="black"/>
<path d="M252.219 137.043H259.022C259.649 137.043 260.166 137.534 260.198 138.161L262.5 183.184H247.865C247.865 183.184 249.135 182.7 250.405 179.374C251.675 176.048 252.219 137.043 252.219 137.043Z" fill="black" style="mix-blend-mode:overlay"/>
<path d="M64.9972 121.16L94.4928 133.051C97.979 134.456 99.6646 138.418 98.2589 141.904L85.0319 174.714C83.6266 178.2 79.6642 179.886 76.178 178.48L23.1761 157.113C19.6899 155.707 18.0043 151.745 19.4096 148.258L32.6367 115.449C34.0424 111.963 38.0048 110.278 41.4909 111.683L64.9972 121.16Z" fill="white"/>
<path fill-rule="evenodd" clip-rule="evenodd" d="M41.7634 110.882C40.8862 110.538 39.9496 110.354 39.0087 110.343C38.946 110.343 38.8833 110.343 38.8206 110.344C35.8042 110.414 33.0349 112.329 31.8899 115.044C28.1017 124.188 24.4345 133.383 20.7674 142.577C20.0475 144.381 19.3277 146.186 18.6069 147.991C17.1091 151.812 19.1364 156.331 22.7696 157.864C40.4306 165.176 58.159 172.327 75.9546 179.305C79.7475 180.765 84.2488 178.76 85.7819 175.125C90.3192 164.17 94.7521 153.171 99.0829 142.132C100.556 138.307 98.5182 133.83 94.9025 132.305C88.3455 129.59 81.7553 126.957 75.1651 124.324C71.8806 123.011 68.5961 121.699 65.3157 120.376C62.6847 119.316 60.0548 118.252 57.4249 117.189C52.2074 115.079 46.99 112.969 41.7634 110.882ZM33.4385 115.732C34.3469 113.539 36.5938 112.055 38.9225 112.037C39.6665 112.036 40.4085 112.175 41.1033 112.442C46.3696 114.507 51.6094 116.639 56.8492 118.771C59.4588 119.832 62.0685 120.894 64.6814 121.947L94.213 133.853C97.1656 135.075 98.6076 138.647 97.5026 141.517C93.9197 150.65 90.2187 159.736 86.5178 168.821C85.7557 170.692 84.9935 172.563 84.2324 174.435C83.0108 177.384 79.4389 178.83 76.568 177.724C61.633 171.868 46.7762 165.814 31.9197 159.76C29.0994 158.611 26.2791 157.462 23.4583 156.314C20.5026 155.09 19.062 151.524 20.1684 148.649C23.747 139.52 27.4473 130.439 31.1475 121.358C31.9115 119.483 32.6755 117.607 33.4385 115.732Z" fill="black"/>
<path d="M97.4474 141.511L84.1712 174.443C82.9733 177.414 79.5942 178.851 76.6233 177.654L67.1973 173.853C70.5468 175.204 74.3608 173.584 75.7122 170.231L88.4329 138.678C89.7846 135.325 88.1603 131.513 84.8108 130.163L94.2368 133.963C97.2078 135.161 98.6453 138.54 97.4474 141.511Z" fill="#9794AE" fill-opacity="0.2"/>
<path d="M37.2302 135.512C37.3574 135.523 37.39 135.53 37.5102 135.573L53.3388 141.954C53.6327 142.087 53.7083 142.201 53.7946 142.392C54.0655 142.993 53.5185 143.815 52.7051 143.526L36.8765 137.145C36.1896 136.834 36.284 136.645 36.3582 136.215C36.4242 135.833 36.6651 135.554 37.1583 135.512C37.1823 135.512 37.2065 135.512 37.2302 135.512Z" fill="black"/>
<path d="M54.3898 149.244C54.4754 149.25 54.5585 149.266 54.6397 149.292C55.9707 149.796 57.2798 150.356 58.5999 150.888C59.3526 151.21 59.1992 152.868 58.0003 152.473C56.6693 151.969 55.3601 151.409 54.04 150.877C53.3242 150.57 53.281 149.225 54.3898 149.244Z" fill="black"/>
<path d="M34.9312 141.379C35.0723 141.403 35.1025 141.42 35.1454 141.435L52.2075 148.313C52.671 148.524 52.7002 148.771 52.7297 148.981C52.8128 149.569 52.2693 150.131 51.5738 149.885L34.5117 143.006C33.8106 142.688 33.8871 142.402 34.0178 141.973C34.1559 141.52 34.8151 141.37 34.9312 141.379Z" fill="black"/>
<rect width="12.4577" height="70.7544" transform="matrix(-0.373885 0.927475 0.927475 0.373885 32.6152 115.508)" fill="#0053F5"/>
<path fill-rule="evenodd" clip-rule="evenodd" d="M94.0499 154.619L99.3413 141.493L32.1465 114.405L26.8551 127.531L94.0499 154.619ZM93.112 152.413L29.0609 126.592L33.085 116.61L97.1361 142.43L93.112 152.413Z" fill="black"/>
<path d="M39.4766 130.751L42.3409 131.881L50.26 123.624L47.2593 122.414L39.4766 130.751Z" fill="white" fill-opacity="0.3"/>
<path d="M39.4766 130.751L42.3409 131.881L50.26 123.624L47.2593 122.414L39.4766 130.751Z" fill="white" fill-opacity="0.3"/>
<path d="M53.5049 124.934L45.7278 133.26L44.0993 132.615L51.8804 124.279L53.5049 124.934Z" fill="white" fill-opacity="0.3"/>
<path d="M53.5049 124.934L45.7278 133.26L44.0993 132.615L51.8804 124.279L53.5049 124.934Z" fill="white" fill-opacity="0.3"/>
<path d="M112.493 184.015H54.7211C51.1363 184.015 48.2305 181.109 48.2305 177.525V141.522C48.2305 137.938 51.1363 135.032 54.7211 135.032H112.493C116.078 135.032 118.984 137.938 118.984 141.522V177.525C118.984 181.109 116.078 184.015 112.493 184.015Z" fill="#0053F5"/>
<path fill-rule="evenodd" clip-rule="evenodd" d="M119.831 141.428C119.768 137.47 116.336 134.22 112.541 134.184C108.995 134.174 105.449 134.161 101.903 134.148C86.1441 134.091 70.3847 134.034 54.6264 134.185C50.6694 134.248 47.4432 137.665 47.3836 141.428C47.268 153.491 47.268 165.556 47.3836 177.619C47.4463 181.576 50.8643 184.802 54.6264 184.862C73.9459 185.046 93.2684 185.046 112.588 184.862C116.534 184.799 119.771 181.387 119.831 177.619C119.942 165.556 119.942 153.491 119.831 141.428ZM49.0782 141.448C49.1273 138.365 51.7986 135.886 54.7225 135.877C61.1456 135.877 67.5687 135.871 73.9918 135.865C86.838 135.852 99.6841 135.839 112.53 135.877C115.572 135.907 118.09 138.542 118.136 141.448C118.231 151.721 118.193 161.996 118.156 172.27C118.149 174.033 118.143 175.796 118.137 177.56C118.109 180.601 115.472 183.119 112.567 183.166C96.3237 183.321 80.0792 183.26 63.8352 183.199C60.7849 183.187 57.7347 183.176 54.6845 183.166C51.6339 183.137 49.1243 180.501 49.0782 177.596C48.9629 165.547 48.9629 153.496 49.0782 141.448Z" fill="black"/>
<path d="M91.2508 143.351C92.0985 143.5 92.3158 144.972 91.1525 145.04H60.2695C59.3943 144.989 58.9866 143.42 60.2695 143.345H91.1525C91.1854 143.347 91.2183 143.349 91.2508 143.351Z" fill="black"/>
<path d="M118.086 141.769V177.276C118.086 180.479 115.489 183.076 112.286 183.076H102.123C105.735 183.076 108.666 180.148 108.666 176.533V142.512C108.666 138.897 105.735 135.969 102.123 135.969H112.286C115.489 135.969 118.086 138.565 118.086 141.769Z" fill="black" fill-opacity="0.25" style="mix-blend-mode:overlay"/>
<path d="M111.058 169.652C111.058 173.593 107.862 176.789 103.92 176.789C99.9785 176.789 96.7832 173.593 96.7832 169.652C96.7832 165.709 99.9785 162.514 103.92 162.514C107.862 162.514 111.058 165.709 111.058 169.652Z" fill="white"/>
<path fill-rule="evenodd" clip-rule="evenodd" d="M111.763 168.138C111.069 164.519 107.633 161.699 103.973 161.663C103.904 161.663 103.836 161.664 103.767 161.665C97.8811 161.793 94.4478 168.458 96.7463 173.153C98.5373 176.812 103.328 178.571 107.029 177.005C110.373 175.589 112.445 171.693 111.763 168.138ZM97.6882 170.488C97.2032 166.86 100.332 163.391 103.882 163.357C103.936 163.357 103.99 163.357 104.044 163.358C107.018 163.423 109.609 165.714 110.114 168.533C110.787 172.296 107.52 175.96 103.882 175.937C100.871 175.918 98.0851 173.457 97.6882 170.488Z" fill="black"/>
<path fill-rule="evenodd" clip-rule="evenodd" d="M103.921 169.652C103.921 173.593 100.726 176.789 96.7835 176.789C92.8418 176.789 89.6465 173.593 89.6465 169.652C89.6465 165.709 92.8418 162.514 96.7835 162.514C100.726 162.514 103.921 165.709 103.921 169.652Z" fill="#D6F318"/>
<path fill-rule="evenodd" clip-rule="evenodd" d="M104.635 168.187C103.956 164.526 100.5 161.699 96.8355 161.663C96.767 161.663 96.6982 161.664 96.6298 161.665C90.7285 161.794 87.3088 168.455 89.609 173.153C91.4007 176.812 96.1908 178.571 99.8912 177.005C103.224 175.594 105.29 171.721 104.635 168.187ZM90.5505 170.488C90.0688 166.886 93.1865 163.392 96.7439 163.357C96.7981 163.357 96.8523 163.357 96.9066 163.358C99.2267 163.409 101.381 164.793 102.404 166.819C104.47 170.914 100.944 175.963 96.7439 175.937C93.7336 175.918 90.9474 173.456 90.5505 170.488Z" fill="black"/>
<path d="M77.4113 158.678C78.0513 158.762 78.034 158.958 78.1337 159.232C78.3218 159.749 77.993 160.341 77.3374 160.369H60.271C59.3375 160.328 59.3721 159.741 59.4365 159.375C59.506 158.981 59.7629 158.696 60.271 158.674H77.3374C77.3622 158.675 77.3866 158.676 77.4113 158.678Z" fill="black"/>
<path d="M85.596 164.994C86.4132 165.048 86.8074 166.607 85.596 166.687C84.1727 166.718 82.7488 166.688 81.3251 166.688C80.4639 166.669 80.1493 165.07 81.2875 164.994C82.7233 164.962 84.1602 164.962 85.596 164.994Z" fill="black"/>
<path d="M77.4131 164.998C78.053 165.082 78.0357 165.279 78.1354 165.552C78.3235 166.069 77.9947 166.661 77.3392 166.689H60.2727C59.5515 166.658 59.4915 166.291 59.4382 165.989C59.3515 165.497 59.6599 165.021 60.2727 164.995H77.3392C77.3639 164.996 77.3883 164.997 77.4131 164.998Z" fill="black"/>
<path d="M52.0877 141.408C52.5188 140.362 53.317 139.507 54.3219 139.003L52.0877 141.408Z" fill="#D1CEE7"/>
<path d="M54.3456 138.493C54.8106 138.524 55.0256 139.197 54.4256 139.52C53.5657 139.995 52.9874 140.828 52.5275 141.661C52.2294 142.15 51.1076 142.031 51.8995 140.633C52.4536 139.656 53.2959 138.467 54.3456 138.493Z" fill="black"/>
<path d="M98.7142 166.433C98.9786 166.447 99.1983 166.65 99.419 166.828C100.061 167.349 100.591 168.06 100.768 168.86C100.88 169.368 100.018 169.784 99.7399 168.98C99.3692 167.947 98.0956 167.435 98.1967 166.854C98.238 166.616 98.4599 166.43 98.7142 166.433Z" fill="black"/>
<path d="M34.0814 101.741C34.9806 101.751 35.8758 101.927 36.7144 102.256L41.073 104.016C41.3635 104.192 41.3421 104.329 41.3415 104.466C41.3401 104.797 40.9767 105.05 40.6429 104.936C37.3685 103.616 34.0176 101.846 30.9494 103.561C29.72 104.248 28.7411 105.358 28.2008 106.663L25.9728 112.049C25.7 112.49 24.8153 112.299 25.057 111.611C25.8034 109.804 26.5365 107.991 27.2965 106.19C28.4272 103.555 31.2046 101.728 34.0814 101.741Z" fill="black"/>
<path d="M24.2483 114.44C24.5735 114.46 24.811 114.806 24.7064 115.12C24.3389 116.072 23.9275 117.007 23.5377 117.95C23.3312 118.419 22.3831 118.204 22.5895 117.584C22.9569 116.632 23.3683 115.697 23.7581 114.754C23.8442 114.559 23.9817 114.435 24.2483 114.44Z" fill="black"/>
<path d="M306.834 183.175C307.76 183.287 307.67 183.825 307.596 184.189C307.518 184.572 307.262 184.847 306.765 184.867H292.614C291.748 184.832 291.404 183.221 292.614 183.172H306.765C306.788 183.173 306.811 183.174 306.834 183.175Z" fill="black"/>
<path d="M284.229 183.236C284.502 183.419 284.505 183.422 284.687 183.695L284.752 184.019L284.687 184.344L284.504 184.619L284.229 184.802L283.904 184.867H17.6072L17.2828 184.802C17.0099 184.62 17.0069 184.617 16.8242 184.344L16.7598 184.019L16.8242 183.695L17.0079 183.42C17.2811 183.238 17.2851 183.236 17.6072 183.172H283.904C284.012 183.193 284.121 183.215 284.229 183.236Z" fill="black"/>
<path d="M11.6334 183.174C12.4703 183.262 12.7676 184.825 11.5744 184.867H0.890551C-0.117505 184.831 -0.0571704 184.318 0.0682434 183.814C0.1601 183.446 0.425842 183.188 0.890551 183.172H11.5744C11.5941 183.173 11.6138 183.173 11.6334 183.174Z" fill="black"/>
<path d="M229.645 55.3865C230.003 55.4115 230.166 55.9626 229.801 56.1524C229.065 56.4929 228.315 56.8 227.572 57.1235C227.196 57.277 226.738 56.648 227.232 56.3912C228.034 56.0201 228.821 55.3668 229.645 55.3865Z" fill="black"/>
<path d="M223.122 50.9666C223.328 50.983 223.495 51.1577 223.503 51.3679C223.496 52.1265 223.454 52.8845 223.43 53.6429C223.408 54.0378 222.645 54.2216 222.623 53.636C222.63 52.8774 222.671 52.1194 222.695 51.3611C222.708 51.1363 222.857 50.9581 223.122 50.9666Z" fill="black"/>
<path d="M226.734 52.4382C227.016 52.4584 227.206 52.8032 227.052 53.0596C226.594 53.7504 226.107 54.421 225.635 55.1015C225.388 55.4412 224.712 55.0718 224.961 54.6563C225.419 53.9656 225.906 53.295 226.378 52.6145C226.461 52.5015 226.588 52.4346 226.734 52.4382Z" fill="black"/>
<path fill-rule="evenodd" clip-rule="evenodd" d="M226.039 67.4149C226.039 72.6102 221.652 76.8218 216.24 76.8218C210.828 76.8218 206.441 72.6102 206.441 67.4149C206.441 62.2196 210.828 58.0083 216.24 58.0083C221.652 58.0083 226.039 62.2196 226.039 67.4149Z" fill="#D6F318"/>
<path fill-rule="evenodd" clip-rule="evenodd" d="M226.243 65.2976C225.359 60.6382 220.994 57.03 216.354 56.9854C216.267 56.9851 216.179 56.9857 216.092 56.987C211.359 57.0934 207.123 60.8287 206.31 65.4236C205.496 70.0248 208.206 74.9716 212.458 76.7299C216.136 78.2511 220.571 77.3326 223.368 74.571C225.761 72.2084 226.871 68.6054 226.243 65.2976ZM207.666 65.5011C208.451 61.4959 212.216 58.386 216.232 58.3473H216.346C221.645 58.3982 225.655 63.4895 225.002 68.426C224.514 72.1215 221.5 75.3052 217.899 75.9801C211.656 77.1502 206.581 71.0346 207.666 65.5011Z" fill="black"/>
<path fill-rule="evenodd" clip-rule="evenodd" d="M219.126 68.7711C219.279 68.319 219.355 67.8032 219.355 67.2234C219.355 66.6433 219.279 66.1293 219.126 65.681C218.974 65.233 218.763 64.8563 218.492 64.5512C218.222 64.2464 217.898 64.0147 217.521 63.8565C217.144 63.6982 216.734 63.6191 216.293 63.6191C215.843 63.6191 215.43 63.6982 215.053 63.8565C214.676 64.0147 214.352 64.2464 214.082 64.5512C213.811 64.8563 213.602 65.233 213.453 65.681C213.305 66.1293 213.23 66.6433 213.23 67.2234C213.23 67.8032 213.305 68.319 213.453 68.7711C213.602 69.2229 213.811 69.6014 214.082 69.9066C214.352 70.2114 214.676 70.4431 215.053 70.6013C215.43 70.7595 215.843 70.8386 216.293 70.8386C216.734 70.8386 217.144 70.7595 217.521 70.6013C217.898 70.4431 218.222 70.2114 218.492 69.9066C218.763 69.6014 218.974 69.2229 219.126 68.7711ZM217.109 65.6862C217.304 66.0479 217.401 66.5602 217.401 67.2229C217.401 67.8857 217.304 68.3999 217.109 68.765C216.915 69.1304 216.639 69.3131 216.281 69.3131C215.923 69.3131 215.651 69.1304 215.464 68.765C215.277 68.3999 215.184 67.8857 215.184 67.2229C215.184 66.5602 215.277 66.0479 215.464 65.6862C215.651 65.3249 215.923 65.1441 216.281 65.1441C216.639 65.1441 216.915 65.3249 217.109 65.6862Z" fill="black"/>
</svg>
