<svg width="24" height="24" viewBox="0 0 24 24" fill="none" xmlns="http://www.w3.org/2000/svg">
<path opacity="0.4" d="M12.819 2.70895L12.8212 2.71015L19.1097 6.09927C19.1099 6.09939 19.1101 6.09951 19.1104 6.09963C19.4064 6.26085 19.5916 6.57524 19.5788 6.92148L19.5784 6.93073V6.93998C19.5784 7.30719 19.3898 7.62266 19.1004 7.78027C19.1001 7.78039 19.0999 7.78052 19.0997 7.78064L12.8112 11.1698L12.809 11.171C12.5543 11.31 12.2669 11.38 11.9884 11.38C11.71 11.38 11.4226 11.31 11.1679 11.171L11.1657 11.1698L4.87721 7.78064C4.87699 7.78052 4.87677 7.78039 4.87654 7.78027C4.58713 7.62265 4.39844 7.30717 4.39844 6.93998C4.39844 6.57274 4.58718 6.25719 4.87661 6.0996C4.87681 6.09949 4.87701 6.09938 4.87721 6.09927L11.1651 2.71045C11.1652 2.71038 11.1653 2.71032 11.1654 2.71026C11.6887 2.42925 12.3095 2.43102 12.819 2.70895Z" fill="#0053F5" stroke="#0053F5"/>
<path opacity="0.4" d="M9.67483 13.2355L9.67514 13.2356C10.3678 13.582 10.7867 14.2686 10.7788 15.0131H10.7787V15.0185V20.5484C10.7787 20.8795 10.6151 21.1743 10.34 21.3406L10.3328 21.345L10.3256 21.3497C10.1823 21.4432 10.0184 21.4884 9.84875 21.4884C9.70402 21.4884 9.56084 21.4555 9.43235 21.3913L9.43204 21.3911L3.58234 18.4712C3.58231 18.4712 3.58228 18.4712 3.58225 18.4712C2.89204 18.126 2.46875 17.4394 2.46875 16.6684V11.1385C2.46875 10.8074 2.63238 10.5126 2.90745 10.3463C3.19667 10.1714 3.53286 10.1563 3.82118 10.3036L3.82482 10.3055L9.67483 13.2355Z" fill="#0053F5" stroke="#0053F5"/>
<path opacity="0.4" d="M21.5309 11.1497V14.5227C20.6924 13.8787 19.6362 13.4996 18.5009 13.4996C17.1014 13.4996 15.8238 14.0775 14.9131 15.0104L14.913 15.0105C14.034 15.9118 13.5009 17.1462 13.5009 18.4996C13.5009 19.434 13.7675 20.3218 14.2212 21.0752C14.2972 21.2047 14.3796 21.3278 14.4665 21.4454C14.3658 21.4813 14.2588 21.4996 14.1509 21.4996C13.983 21.4996 13.8151 21.4552 13.656 21.3557L13.6541 21.3545C13.3801 21.1849 13.2109 20.885 13.2109 20.5596V15.0396C13.2109 14.2686 13.6343 13.582 14.3246 13.2368L20.1743 10.317L20.1743 10.317L20.1785 10.3149C20.4734 10.1642 20.8058 10.1777 21.0851 10.3531L21.0851 10.3531L21.0878 10.3548C21.3618 10.5244 21.5309 10.8242 21.5309 11.1497Z" fill="#0053F5" stroke="#0053F5"/>
<path d="M21.5918 15.9846L21.5918 15.9847L21.5955 15.9891C22.1618 16.6704 22.5 17.5577 22.5 18.5195C22.5 19.264 22.2872 19.9753 21.9218 20.5814L21.9213 20.5823C21.7076 20.9384 21.4419 21.2565 21.1346 21.5199L21.1346 21.5199L21.1284 21.5253C20.4267 22.147 19.5137 22.5195 18.5 22.5195C17.55 22.5195 16.6723 22.1825 15.9896 21.615L15.8507 21.4995H15.8416C15.5448 21.2392 15.2885 20.9319 15.0787 20.5823L15.0782 20.5814C14.7128 19.9753 14.5 19.264 14.5 18.5195C14.5 17.2554 15.0777 16.129 15.9996 15.4022L15.9996 15.4022L16.0036 15.399C16.6878 14.848 17.558 14.5195 18.5 14.5195C19.7546 14.5195 20.8638 15.0879 21.5918 15.9846ZM15.8564 19.4031L15.8564 19.4031L16.9665 20.513C16.9665 20.513 16.9665 20.513 16.9665 20.513C17.2151 20.7617 17.5345 20.8795 17.85 20.8795C18.1517 20.8795 18.4643 20.7648 18.6998 20.5463C18.7 20.5461 18.7001 20.546 18.7002 20.5459L21.0976 18.3284C21.6146 17.859 21.6435 17.0697 21.1655 16.5584C20.7003 16.0599 19.9048 16.0227 19.3998 16.4931C19.3995 16.4934 19.3991 16.4937 19.3988 16.494L17.8835 17.8959L17.6236 17.636L17.6235 17.6359C17.1383 17.1507 16.3417 17.1507 15.8564 17.6359C15.3712 18.1212 15.3712 18.9178 15.8564 19.4031Z" fill="#0053F5" stroke="#0053F5"/>
</svg>
