<svg width="20" height="20" viewBox="0 0 20 20" fill="none" xmlns="http://www.w3.org/2000/svg">
<path d="M6.66406 1.66602V4.16602" stroke="#101828" stroke-width="1.5" stroke-miterlimit="10" stroke-linecap="round" stroke-linejoin="round"/>
<path d="M13.3359 1.66602V4.16602" stroke="#101828" stroke-width="1.5" stroke-miterlimit="10" stroke-linecap="round" stroke-linejoin="round"/>
<path d="M2.91406 7.57422H17.0807" stroke="#101828" stroke-width="1.5" stroke-miterlimit="10" stroke-linecap="round" stroke-linejoin="round"/>
<path d="M16.0066 13.1416L13.0566 16.0916C12.9399 16.2082 12.8316 16.4249 12.8066 16.5832L12.6482 17.7082C12.5899 18.1166 12.8732 18.3999 13.2816 18.3416L14.4066 18.1833C14.5649 18.1583 14.7899 18.0499 14.8982 17.9332L17.8483 14.9833C18.3566 14.4749 18.5983 13.8833 17.8483 13.1333C17.1066 12.3916 16.5149 12.6332 16.0066 13.1416Z" stroke="#101828" stroke-width="1.5" stroke-miterlimit="10" stroke-linecap="round" stroke-linejoin="round"/>
<path d="M15.5781 13.5664C15.8281 14.4664 16.5281 15.1664 17.4281 15.4164" stroke="#101828" stroke-width="1.5" stroke-miterlimit="10" stroke-linecap="round" stroke-linejoin="round"/>
<path d="M10 18.3327H6.66667C3.75 18.3327 2.5 16.666 2.5 14.166V7.08268C2.5 4.58268 3.75 2.91602 6.66667 2.91602H13.3333C16.25 2.91602 17.5 4.58268 17.5 7.08268V9.99935" stroke="#101828" stroke-width="1.5" stroke-miterlimit="10" stroke-linecap="round" stroke-linejoin="round"/>
<path d="M9.99803 11.4167H10.0055" stroke="#101828" stroke-width="2" stroke-linecap="round" stroke-linejoin="round"/>
<path d="M6.91209 11.4167H6.91957" stroke="#101828" stroke-width="2" stroke-linecap="round" stroke-linejoin="round"/>
<path d="M6.91209 13.9167H6.91957" stroke="#101828" stroke-width="2" stroke-linecap="round" stroke-linejoin="round"/>
</svg>
