<svg width="20" height="20" viewBox="0 0 20 20" fill="none" xmlns="http://www.w3.org/2000/svg">
<path d="M18.3359 4.29102V7.37435C18.3359 9.24935 17.5859 9.99935 15.7109 9.99935H13.4609C11.5859 9.99935 10.8359 9.24935 10.8359 7.37435V4.29102C10.8359 2.41602 11.5859 1.66602 13.4609 1.66602H15.7109C17.5859 1.66602 18.3359 2.41602 18.3359 4.29102Z" stroke="#101828" stroke-width="1.5" stroke-linecap="round" stroke-linejoin="round"/>
<path d="M9.16406 12.625V15.7083C9.16406 17.5833 8.41406 18.3333 6.53906 18.3333H4.28906C2.41406 18.3333 1.66406 17.5833 1.66406 15.7083V12.625C1.66406 10.75 2.41406 10 4.28906 10H6.53906C8.41406 10 9.16406 10.75 9.16406 12.625Z" stroke="#101828" stroke-width="1.5" stroke-linecap="round" stroke-linejoin="round"/>
<path d="M18.3333 12.5C18.3333 15.725 15.725 18.3333 12.5 18.3333L13.375 16.875" stroke="#101828" stroke-width="1.5" stroke-linecap="round" stroke-linejoin="round"/>
<path d="M1.66406 7.49935C1.66406 4.27435 4.2724 1.66602 7.4974 1.66602L6.6224 3.12435" stroke="#101828" stroke-width="1.5" stroke-linecap="round" stroke-linejoin="round"/>
</svg>
