<svg width="24" height="24" viewBox="0 0 24 24" fill="none" xmlns="http://www.w3.org/2000/svg">
<path d="M21.7624 15.92L15.3624 4.4C14.5024 2.85 13.3124 2 12.0024 2C10.6924 2 9.50242 2.85 8.64242 4.4L2.24242 15.92C1.43242 17.39 1.34242 18.8 1.99242 19.91C2.64242 21.02 3.92242 21.63 5.60242 21.63H18.4024C20.0824 21.63 21.3624 21.02 22.0124 19.91C22.6624 18.8 22.5724 17.38 21.7624 15.92ZM11.2524 9C11.2524 8.59 11.5924 8.25 12.0024 8.25C12.4124 8.25 12.7524 8.59 12.7524 9V14C12.7524 14.41 12.4124 14.75 12.0024 14.75C11.5924 14.75 11.2524 14.41 11.2524 14V9ZM12.7124 17.71C12.6624 17.75 12.6124 17.79 12.5624 17.83C12.5024 17.87 12.4424 17.9 12.3824 17.92C12.3224 17.95 12.2624 17.97 12.1924 17.98C12.1324 17.99 12.0624 18 12.0024 18C11.9424 18 11.8724 17.99 11.8024 17.98C11.7424 17.97 11.6824 17.95 11.6224 17.92C11.5624 17.9 11.5024 17.87 11.4424 17.83C11.3924 17.79 11.3424 17.75 11.2924 17.71C11.1124 17.52 11.0024 17.26 11.0024 17C11.0024 16.74 11.1124 16.48 11.2924 16.29C11.3424 16.25 11.3924 16.21 11.4424 16.17C11.5024 16.13 11.5624 16.1 11.6224 16.08C11.6824 16.05 11.7424 16.03 11.8024 16.02C11.9324 15.99 12.0724 15.99 12.1924 16.02C12.2624 16.03 12.3224 16.05 12.3824 16.08C12.4424 16.1 12.5024 16.13 12.5624 16.17C12.6124 16.21 12.6624 16.25 12.7124 16.29C12.8924 16.48 13.0024 16.74 13.0024 17C13.0024 17.26 12.8924 17.52 12.7124 17.71Z" fill="#B54708"/>
</svg>
