<svg width="39" height="6" viewBox="0 0 39 6" fill="none" xmlns="http://www.w3.org/2000/svg">
<path d="M15.3193 5.9827C13.4704 5.9827 12.0341 4.67784 12.0341 2.99391C12.0341 1.33043 13.5059 0 15.3442 0C15.8699 0 16.3062 0.102494 16.8379 0.349949V1.66437C16.3344 1.20792 15.8947 1.02028 15.3193 1.02028C14.1787 1.02028 13.2853 1.88914 13.2853 2.9859C13.2853 4.14669 14.1507 4.9602 15.3724 4.9602C15.9247 4.9602 16.3516 4.78278 16.8379 4.333V5.64898C16.2876 5.88798 15.8406 5.9827 15.3193 5.9827Z" fill="#E6772F"/>
<path d="M9.86075 2.32403C9.13091 2.07769 8.91758 1.91361 8.91758 1.60413C8.91758 1.2444 9.29881 0.971597 9.82307 0.971597C10.1864 0.971597 10.4858 1.10544 10.8046 1.43249L11.4359 0.670338C10.9143 0.24791 10.2901 0.034028 9.6095 0.034028C8.50833 0.034028 7.66904 0.739039 7.66904 1.67127C7.66904 2.46277 8.05921 2.8643 9.19783 3.24559C9.67376 3.39789 9.9156 3.50194 10.0381 3.57242C10.2806 3.71671 10.4014 3.92348 10.4014 4.16249C10.4014 4.62827 10.0004 4.97066 9.45826 4.97066C8.8811 4.97066 8.41411 4.70475 8.13459 4.2054L7.35232 4.90263C7.9116 5.65677 8.58201 5.99382 9.50562 5.99382C10.7653 5.99382 11.6529 5.21767 11.6529 4.11224C11.6529 3.20135 11.2412 2.78848 9.86075 2.32403Z" fill="#E6772F"/>
<path fill-rule="evenodd" clip-rule="evenodd" d="M0 0.129358H1.78318C3.75021 0.129358 5.12245 1.30349 5.12245 2.99387C5.12245 3.83828 4.70184 4.65334 3.99301 5.19316C3.39628 5.64894 2.71548 5.85549 1.77231 5.85549H0V0.129358ZM1.53989 4.88525C2.3253 4.88525 2.81646 4.74652 3.20228 4.42925C3.61999 4.08753 3.871 3.53771 3.871 2.98588C3.871 2.43672 3.61999 1.9058 3.20228 1.56163C2.79761 1.22858 2.3253 1.09918 1.53989 1.09918H1.21399V4.88525H1.53989Z" fill="#E6772F"/>
<path d="M6.89137 0.129358H5.68221V5.85549H6.89137V0.129358Z" fill="#E6772F"/>
<path d="M26.6687 3.97368L25.0095 0.129358H23.6865L26.3242 6H26.9748L29.6637 0.129358H28.3512L26.6687 3.97368Z" fill="#E6772F"/>
<path d="M33.6553 5.85549H30.2143V0.129358H33.6553V1.09916H31.4283V2.36956H33.5707V3.33959H31.4283V4.88523H33.6553V5.85549Z" fill="#E6772F"/>
<path fill-rule="evenodd" clip-rule="evenodd" d="M38.4588 1.81885C38.4588 0.746548 37.6597 0.129358 36.2587 0.129358H34.4564V5.85549H35.673V3.55325H35.8308L37.5072 5.85549H39L37.0424 3.44209C37.9573 3.27 38.4588 2.69505 38.4588 1.81885ZM36.0253 2.76248H35.673V1.03052H36.0451C36.8032 1.03052 37.2093 1.32333 37.2093 1.88116C37.2093 2.45433 36.8032 2.76248 36.0253 2.76248Z" fill="#E6772F"/>
<path d="M20.614 5.99199C22.4061 5.99199 23.8576 4.65578 23.8576 3.0072C23.8576 1.35839 22.4061 0.0219625 20.614 0.0219625C18.8223 0.0219625 17.3706 1.35839 17.3706 3.0072C17.3706 4.65578 18.8223 5.99199 20.614 5.99199Z" fill="#E6772F"/>
</svg>
