<svg width="25" height="25" viewBox="0 0 25 25" fill="none" xmlns="http://www.w3.org/2000/svg">
<path fill-rule="evenodd" clip-rule="evenodd" d="M16.8287 22.5961C18.3588 22.5961 19.8262 21.9883 20.9082 20.9064C21.9901 19.8244 22.598 18.357 22.598 16.8269C22.598 15.2968 21.9901 13.8294 20.9082 12.7474C19.8262 11.6655 18.3588 11.0577 16.8287 11.0577C15.2986 11.0577 13.8312 11.6655 12.7493 12.7474C11.6673 13.8294 11.0595 15.2968 11.0595 16.8269C11.0595 18.357 11.6673 19.8244 12.7493 20.9064C13.8312 21.9883 15.2986 22.5961 16.8287 22.5961ZM24.0403 16.8269C24.0403 18.7395 23.2805 20.5738 21.9281 21.9262C20.5756 23.2786 18.7413 24.0384 16.8287 24.0384C14.9161 24.0384 13.0818 23.2786 11.7294 21.9262C10.377 20.5738 9.61719 18.7395 9.61719 16.8269C9.61719 14.9143 10.377 13.08 11.7294 11.7276C13.0818 10.3751 14.9161 9.61536 16.8287 9.61536C18.7413 9.61536 20.5756 10.3751 21.9281 11.7276C23.2805 13.08 24.0403 14.9143 24.0403 16.8269Z" fill="#7D7C82"/>
<path d="M19.6308 19.5753H15.7045V17.3775H17.3872C17.6968 17.3775 17.9481 17.1314 17.9481 16.8281C17.9481 16.5248 17.6968 16.2786 17.3872 16.2786H15.7045V15.7292C15.7045 14.8204 16.4595 14.0808 17.3872 14.0808C17.9863 14.0808 18.5449 14.3973 18.8456 14.905C19.0004 15.1676 19.3436 15.2578 19.6117 15.105C19.8798 14.9523 19.9718 14.6171 19.8159 14.3545C19.3156 13.5072 18.3845 12.9808 17.3872 12.9808C15.8414 12.9808 14.5827 14.2138 14.5827 15.7281V16.2775H14.0218C13.7122 16.2775 13.4609 16.5237 13.4609 16.827C13.4609 17.1303 13.7122 17.3764 14.0218 17.3764H14.5827V20.6731H19.6308C19.9404 20.6731 20.1917 20.427 20.1917 20.1237C20.1917 19.8204 19.9404 19.5742 19.6308 19.5742V19.5753Z" fill="#7D7C82"/>
<path d="M1.5625 0C1.1481 0 0.750671 0.162087 0.457646 0.450605C0.16462 0.739123 0 1.13044 0 1.53846L0 13.8462C0 14.2542 0.16462 14.6455 0.457646 14.934C0.750671 15.2225 1.1481 15.3846 1.5625 15.3846H7.94219C8.03281 14.8554 8.16875 14.3415 8.34531 13.8462H4.6875C4.6875 13.0301 4.35826 12.2475 3.77221 11.6704C3.18616 11.0934 2.3913 10.7692 1.5625 10.7692V4.61538C2.3913 4.61538 3.18616 4.29121 3.77221 3.71417C4.35826 3.13714 4.6875 2.35451 4.6875 1.53846H20.3125C20.3125 2.35451 20.6417 3.13714 21.2278 3.71417C21.8138 4.29121 22.6087 4.61538 23.4375 4.61538V10.0431C24.0312 10.5662 24.5578 11.1631 25 11.8185V1.53846C25 1.13044 24.8354 0.739123 24.5424 0.450605C24.2493 0.162087 23.8519 0 23.4375 0L1.5625 0Z" fill="#7D7C82"/>
<path d="M15.3835 8.09935L15.3864 7.96811C15.3861 7.42356 15.2576 6.88832 15.0132 6.41422C14.7688 5.94013 14.4169 5.54326 13.9915 5.26204C13.5661 4.98082 13.0817 4.82479 12.5851 4.80906C12.0886 4.79333 11.5968 4.91842 11.1573 5.17224C10.7178 5.42605 10.3456 5.79998 10.0766 6.25781C9.80764 6.71563 9.65109 7.24184 9.6221 7.78546C9.59312 8.32909 9.69268 8.87171 9.91115 9.36077C10.1296 9.84983 10.4596 10.2688 10.8691 10.577C12.1149 9.27613 13.687 8.41331 15.3835 8.09935Z" fill="#7D7C82"/>
</svg>
