<svg width="158" height="158" viewBox="0 0 158 158" fill="none" xmlns="http://www.w3.org/2000/svg">
<mask id="path-1-inside-1_2048_19154" fill="white">
<path d="M158 0C158 20.7489 153.913 41.2945 145.973 60.464C138.033 79.6334 126.395 97.0512 111.723 111.723C97.0512 126.395 79.6334 138.033 60.464 145.973C41.2945 153.913 20.7488 158 -6.9064e-06 158L-5.1798e-06 118.5C15.5616 118.5 30.9709 115.435 45.348 109.48C59.7251 103.525 72.7884 94.7959 83.7922 83.7922C94.7959 72.7884 103.525 59.7251 109.48 45.348C115.435 30.9709 118.5 15.5616 118.5 0H158Z"/>
</mask>
<path d="M158 0C158 20.7489 153.913 41.2945 145.973 60.464C138.033 79.6334 126.395 97.0512 111.723 111.723C97.0512 126.395 79.6334 138.033 60.464 145.973C41.2945 153.913 20.7488 158 -6.9064e-06 158L-5.1798e-06 118.5C15.5616 118.5 30.9709 115.435 45.348 109.48C59.7251 103.525 72.7884 94.7959 83.7922 83.7922C94.7959 72.7884 103.525 59.7251 109.48 45.348C115.435 30.9709 118.5 15.5616 118.5 0H158Z" stroke="#D7F31E" stroke-opacity="0.2" stroke-width="82" mask="url(#path-1-inside-1_2048_19154)"/>
</svg>
