<svg width="102" height="102" viewBox="0 0 102 102" fill="none" xmlns="http://www.w3.org/2000/svg">
<mask id="path-1-inside-1_2048_19153" fill="white">
<path d="M-4.45856e-06 102C13.3948 102 26.6585 99.3617 39.0337 94.2357C51.4089 89.1097 62.6533 81.5965 72.1249 72.1249C81.5965 62.6533 89.1097 51.4089 94.2357 39.0337C99.3617 26.6585 102 13.3948 102 -1.21593e-05L48.8195 -5.81973e-06C48.8195 6.41106 47.5567 12.7593 45.1033 18.6824C42.6499 24.6054 39.0539 29.9873 34.5206 34.5206C29.9873 39.0539 24.6054 42.6499 18.6824 45.1033C12.7593 47.5567 6.41106 48.8195 -2.13397e-06 48.8195L-4.45856e-06 102Z"/>
</mask>
<path d="M-4.45856e-06 102C13.3948 102 26.6585 99.3617 39.0337 94.2357C51.4089 89.1097 62.6533 81.5965 72.1249 72.1249C81.5965 62.6533 89.1097 51.4089 94.2357 39.0337C99.3617 26.6585 102 13.3948 102 -1.21593e-05L48.8195 -5.81973e-06C48.8195 6.41106 47.5567 12.7593 45.1033 18.6824C42.6499 24.6054 39.0539 29.9873 34.5206 34.5206C29.9873 39.0539 24.6054 42.6499 18.6824 45.1033C12.7593 47.5567 6.41106 48.8195 -2.13397e-06 48.8195L-4.45856e-06 102Z" stroke="#D7F31E" stroke-opacity="0.1" stroke-width="82" mask="url(#path-1-inside-1_2048_19153)"/>
</svg>
