<svg width="428" height="429" viewBox="0 0 428 429" fill="none" xmlns="http://www.w3.org/2000/svg">
<path d="M8.1339 272.404C2.83607 253.779 0 234.116 0 213.792C0 95.7178 95.7178 0 213.792 0C331.866 0 427.585 95.7178 427.585 213.792C427.585 331.866 331.866 427.584 213.792 427.584C116.042 427.584 33.6143 361.982 8.1339 272.404Z" fill="#D5D4EA"/>
<path d="M8.1339 272.404C2.83607 253.779 0 234.116 0 213.792C0 95.7178 95.7178 0 213.792 0C331.866 0 427.585 95.7178 427.585 213.792C427.585 331.866 331.866 427.584 213.792 427.584C116.042 427.584 33.6143 361.982 8.1339 272.404Z" fill="white" fill-opacity="0.3"/>
<path d="M8.1339 272.404C2.83607 253.779 0 234.116 0 213.792C0 95.7178 95.7178 0 213.792 0C331.866 0 427.585 95.7178 427.585 213.792C427.585 331.866 331.866 427.584 213.792 427.584C116.042 427.584 33.6143 361.982 8.1339 272.404Z" fill="white" fill-opacity="0.3"/>
<path d="M8.1339 272.404C2.83607 253.779 0 234.116 0 213.792C0 95.7178 95.7178 0 213.792 0C331.866 0 427.585 95.7178 427.585 213.792C427.585 331.866 331.866 427.584 213.792 427.584C116.042 427.584 33.6143 361.982 8.1339 272.404Z" fill="white" fill-opacity="0.3"/>
<path d="M8.1339 272.404C2.83607 253.779 0 234.116 0 213.792C0 95.7178 95.7178 0 213.792 0C331.866 0 427.585 95.7178 427.585 213.792C427.585 331.866 331.866 427.584 213.792 427.584C116.042 427.584 33.6143 361.982 8.1339 272.404Z" fill="white" fill-opacity="0.3"/>
<path d="M8.1339 272.404C2.83607 253.779 0 234.116 0 213.792C0 95.7178 95.7178 0 213.792 0C331.866 0 427.585 95.7178 427.585 213.792C427.585 331.866 331.866 427.584 213.792 427.584C116.042 427.584 33.6143 361.982 8.1339 272.404Z" fill="white" fill-opacity="0.3"/>
<path d="M8.1339 272.404C2.83607 253.779 0 234.116 0 213.792C0 95.7178 95.7178 0 213.792 0C331.866 0 427.585 95.7178 427.585 213.792C427.585 331.866 331.866 427.584 213.792 427.584C116.042 427.584 33.6143 361.982 8.1339 272.404Z" fill="white" fill-opacity="0.3"/>
<path d="M8.1339 272.404C2.83607 253.779 0 234.116 0 213.792C0 95.7178 95.7178 0 213.792 0C331.866 0 427.585 95.7178 427.585 213.792C427.585 331.866 331.866 427.584 213.792 427.584C116.042 427.584 33.6143 361.982 8.1339 272.404Z" fill="white" fill-opacity="0.3"/>
<path d="M8.1339 272.404C2.83607 253.779 0 234.116 0 213.792C0 95.7178 95.7178 0 213.792 0C331.866 0 427.585 95.7178 427.585 213.792C427.585 331.866 331.866 427.584 213.792 427.584C116.042 427.584 33.6143 361.982 8.1339 272.404Z" fill="#F9F8F4"/>
<path fill-rule="evenodd" clip-rule="evenodd" d="M181.484 1.5637L181.81 1.72902C189.995 8.1523 198.179 14.5762 206.364 21.0001L223.261 34.2634L251.694 2.8526C252.36 2.35788 252.702 2.59931 252.702 2.59931C253.415 3.02603 253.322 3.43404 253.322 3.43404C253.269 3.79338 253.268 3.79775 253.081 4.10905L224.064 36.1662C223.691 36.4475 223.268 36.5205 222.792 36.2741C209.797 26.074 196.801 15.8738 183.805 5.67432L180.654 3.20134C180.654 3.20134 180.267 3.041 180.33 2.21314L180.773 1.64979C180.773 1.64979 181.081 1.53313 181.484 1.5637ZM130.081 17.4618L130.08 17.4616C130.064 17.4521 130.047 17.4428 130.031 17.4333L129.669 17.3846L129.026 17.699L78.0368 75.4012L68.1324 57.6056L67.5709 57.1608L66.8591 57.2431L66.4142 57.8046L66.4966 58.5158L76.5202 76.5242C77.0717 77.4818 78.5022 77.6272 79.2471 76.8573C90.8162 64.1532 102.13 51.2201 113.444 38.287C119.095 31.8279 124.746 25.3687 130.428 18.938L130.661 18.2611C130.514 17.7069 130.284 17.5767 130.081 17.4618ZM162.64 20.21C163.276 20.2331 163.891 20.4465 164.406 20.8208C168.713 24.1193 172.967 27.4859 177.22 30.8525C179.338 32.5283 181.455 34.2041 183.579 35.8714L206.613 53.9466L206.968 54.6035L206.729 55.311L119.658 151.497C119.2 151.842 118.702 151.988 118.146 151.324L91.4709 103.392C90.6456 101.875 90.8171 99.9289 91.947 98.5708C106.959 81.2409 122.195 64.1067 137.431 46.9726L137.438 46.9647L137.442 46.9603L137.445 46.9577C145.058 38.3954 152.672 29.833 160.258 21.2463C160.862 20.5787 161.736 20.1988 162.64 20.21ZM250.451 43.4781L250.982 43.9591L251.018 44.6747L250.83 44.9878L244.379 52.1136L227.049 71.2643L226.851 71.4828L226.435 71.9427C175.822 127.848 125.209 183.754 74.598 239.663L56.3394 259.83L55.6918 260.136L55.0174 259.896L54.7111 259.248L54.9519 258.574C72.8657 238.787 90.7785 219 108.691 199.212L131.502 174.014L225.662 70.0078L242.992 50.8571L249.443 43.7314L250.09 43.4251C250.15 43.4338 250.211 43.4427 250.271 43.4516L250.451 43.4781ZM6.66191 169.27C6.42672 168.993 6.42297 168.99 6.10044 168.824C5.97941 168.815 5.85775 168.805 5.73672 168.795L5.11037 169.143C5.11037 169.143 4.77223 169.389 5.02615 170.179L40.1782 233.338C40.6455 234.199 40.6967 235.254 40.3011 236.136C40.1751 236.418 40.1021 236.563 39.8083 236.907C32.7712 244.846 25.6242 252.686 18.4773 260.526C14.9227 264.425 11.3682 268.324 7.82728 272.235L7.58647 272.91L7.89279 273.557C7.89279 273.557 8.22032 274.23 9.21475 273.492L41.1577 238.207C42.5732 236.61 42.8097 234.262 41.8177 232.436L6.66191 169.27ZM46.0771 270.757C46.0771 270.757 46.1694 270.348 45.4576 269.921C45.3372 269.904 45.2168 269.886 45.0964 269.868L44.4488 270.175L17.5965 299.836L17.4088 300.149L17.4443 300.864C17.9397 301.531 18.3364 301.398 18.3364 301.398L18.984 301.092L45.8363 271.431L46.0771 270.757ZM79.614 131.232C79.3788 130.955 79.3751 130.953 79.0525 130.787C78.1973 130.718 78.0527 131.063 77.9452 131.32C77.9287 131.36 77.9131 131.397 77.8959 131.431L77.9782 132.142L99.557 170.907L62.0367 212.355C61.4871 212.934 60.4328 212.826 60.011 212.157C49.6164 195.055 40.1046 177.44 30.593 159.825L30.5928 159.824L30.5926 159.824C25.8396 151.021 21.0866 142.219 16.2235 133.481C15.9883 133.204 15.9845 133.201 15.662 133.035C15.662 133.035 15.3045 132.817 14.6725 133.354C14.6725 133.354 14.3338 133.6 14.5877 134.39L58.3453 213.015C59.371 214.826 62.038 215.074 63.4049 213.632C71.9091 204.38 80.3193 195.042 88.7294 185.705L88.7301 185.704C92.9475 181.021 97.165 176.338 101.394 171.667L101.588 171.334L101.518 170.583L79.614 131.232ZM161.679 22.4691C161.903 22.2327 162.215 22.0936 162.54 22.083C162.81 22.0799 163.071 22.1641 163.288 22.3219C167.583 25.6114 171.826 28.9693 176.068 32.327C178.185 34.0026 180.302 35.6781 182.426 37.3451L204.67 54.8001L119.149 149.274L93.1123 102.491C92.6451 101.632 92.7536 100.531 93.3756 99.7837C115.891 73.7917 138.587 47.9508 161.679 22.4691ZM49.0719 76.9038C49.3945 77.0697 49.3982 77.0722 49.6334 77.3492L60.5896 97.0358L75.7626 124.297L75.8449 125.008C75.8449 125.008 75.8424 125.427 75.052 125.682C75.052 125.682 74.6646 125.839 74.1268 125.207L58.9539 97.9454L47.9976 78.2588L47.9153 77.5476C47.9153 77.5476 47.959 76.8133 49.0719 76.9038ZM281.479 10.2662L280.948 9.78522C280.891 9.77688 280.833 9.76839 280.776 9.7599C280.713 9.75061 280.65 9.74132 280.587 9.73219L279.939 10.0385L257.433 34.8988L257.245 35.2119L257.281 35.9275L257.812 36.4085C258.378 36.492 258.589 36.3317 258.774 36.1903C258.79 36.1784 258.805 36.1667 258.82 36.1552L281.327 11.295C281.62 10.8042 281.553 10.5484 281.494 10.3234C281.489 10.3042 281.484 10.2851 281.479 10.2662Z" fill="#DCD6E3"/>
<path d="M330.927 33.8343C331.64 34.261 331.547 34.669 331.547 34.669L331.307 35.344C261.812 112.113 192.321 188.886 122.822 265.652L47.8939 348.426L47.247 348.733L46.5719 348.492L46.2656 347.845L46.5064 347.17C77.5679 312.856 108.629 278.54 139.693 244.228L329.919 34.0876L330.566 33.7812C330.686 33.7987 330.807 33.8168 330.927 33.8343Z" fill="#DCD6E3"/>
<path d="M135.462 287.867C135.757 287.93 135.997 288.087 136.173 288.342L152.428 317.547C152.584 317.899 152.671 318.144 152.303 318.63L89.5635 387.935C88.8268 388.604 87.448 387.662 88.1761 386.679L150.466 317.871L135.172 290.393L65.3109 367.566C64.5854 368.224 63.1655 367.333 63.9235 366.309L134.661 288.169C134.876 287.973 135.145 287.861 135.462 287.867Z" fill="#DCD6E3"/>
<path d="M164.552 342.161C165.499 342.202 166.377 342.716 166.875 343.521C172.072 352.533 176.993 361.701 182.051 370.791L190.019 385.103C190.019 385.103 190.24 385.645 190.004 386.039C189.669 386.599 188.78 386.598 188.384 386.014L180.416 371.702C175.367 362.628 170.456 353.476 165.268 344.481C164.961 343.985 164.218 343.901 163.808 344.314C146.572 362.782 129.902 381.768 112.949 400.495L111.545 402.024C110.753 402.535 109.531 401.641 110.277 400.656C127.659 381.468 145.028 362.269 162.404 343.075C162.964 342.475 163.562 342.147 164.552 342.161Z" fill="#DCD6E3"/>
<path d="M193.969 392.975C194.422 393.062 194.436 393.089 194.664 393.447L213.411 427.132C213.83 427.999 212.538 429.24 211.776 428.042L193.029 394.357C192.72 393.718 193.2 392.918 193.969 392.975Z" fill="#DCD6E3"/>
<path d="M275.763 359.113C276.87 359.148 277.853 360.009 278.025 361.107L285.685 415.394C285.739 416.323 284.117 416.912 283.833 415.656C281.278 397.552 279.517 379.319 276.168 361.345C276.112 361.087 275.817 360.923 275.564 361.015C256.82 368.476 237.97 375.735 219.663 384.214C219.4 384.345 219.29 384.692 219.434 384.959L241.941 425.399C242.349 426.301 241.06 427.435 240.305 426.308L217.792 385.858C217.16 384.683 217.666 383.077 218.914 382.499C237.452 374.518 256.198 367.025 274.84 359.289C275.134 359.172 275.292 359.112 275.763 359.113Z" fill="#DCD6E3"/>
<path d="M328.984 179.634L329.377 180.268L347.305 302.639L351.153 328.942L357.567 372.724L357.392 373.418L356.777 373.785C356.777 373.785 356.13 374.162 355.715 372.995L349.301 329.213L345.454 302.909L327.908 183.149C324.943 188.134 321.978 193.12 319.013 198.106L288.321 249.737C295.624 301.486 302.926 353.236 310.23 404.985L310.051 405.679L309.434 406.042L308.741 405.863L308.377 405.247C304.509 377.848 300.643 350.448 296.777 323.049L286.422 249.673L286.544 249.064C298.525 228.909 310.503 208.754 322.487 188.602L327.647 179.925L328.252 179.489C328.252 179.489 328.594 179.469 328.984 179.634Z" fill="#DCD6E3"/>
<path d="M407.121 304.539C407.919 304.718 408.225 305.886 407.339 306.328C397.035 310.615 386.591 314.583 376.426 319.19C376.067 319.362 375.849 319.766 375.903 320.166L380.142 349.086C380.211 349.973 379.804 350.051 379.415 350.136C378.91 350.245 378.403 349.877 378.29 349.358C376.874 339.696 375.351 330.049 374.042 320.372C373.905 319.16 374.613 317.929 375.739 317.447L406.621 304.6C406.985 304.476 407.006 304.529 407.121 304.539Z" fill="#DCD6E3"/>
<path d="M427.295 198.55C428.085 198.786 428.306 199.885 427.479 200.332L362.369 227.666L371.682 291.237L416.944 272.408C417.915 272.113 418.786 273.535 417.663 274.137L371.289 293.428C370.465 293.685 370.192 293.481 370.004 292.699L360.412 227.219C360.39 226.809 360.406 226.525 360.975 226.221L426.754 198.606C426.955 198.544 426.826 198.507 427.295 198.55Z" fill="#DCD6E3"/>
<path d="M423.827 172.036C424.636 172.199 424.899 173.416 424.055 173.825L394.688 186.154C393.782 186.479 392.68 185.052 393.964 184.429L423.33 172.099C423.528 172.029 423.587 172.015 423.827 172.036Z" fill="#DCD6E3"/>
<path d="M384.468 83.8618C385.34 84.1369 385.428 84.475 385.095 85.2399C373.726 105.324 361.826 125.117 350.989 145.494C350.661 146.126 350.532 146.856 350.624 147.562C353.034 164.798 355.668 182.003 358.191 199.225C358.207 199.332 358.317 199.395 358.42 199.353L387.714 187.108C388.707 186.811 389.476 188.266 388.436 188.835L359.131 201.085C358.002 201.54 356.59 200.823 356.35 199.562C356.347 199.545 356.344 199.528 356.341 199.509C353.817 182.28 351.182 165.064 348.769 147.813C348.621 146.669 348.846 145.489 349.41 144.48L383.467 84.3178C383.695 83.999 384.02 83.8187 384.468 83.8618Z" fill="#DCD6E3"/>
<path d="M158.128 404.946C158.828 404.975 159.48 405.367 159.829 405.974L168.874 422.228C169.712 423.912 167.713 423.904 167.238 423.138C164.226 417.724 161.213 412.31 158.201 406.896C158.151 406.807 158.031 406.793 157.96 406.869L148.234 417.613C147.524 418.327 146.072 417.296 146.846 416.357L156.582 405.602C156.979 405.178 157.538 404.937 158.128 404.946Z" fill="#DCD6E3"/>
<path d="M401.729 110.727C402.372 110.817 402.768 111.514 402.473 112.122C400.137 116.248 397.763 120.352 395.466 124.5C395.295 124.825 395.229 125.198 395.278 125.563L396.734 135.752L398.955 150.648L415.73 143.605C416.65 143.285 417.716 144.705 416.454 145.33C410.734 147.732 405.052 150.223 399.295 152.534C398.402 152.862 397.312 152.252 397.158 151.291L394.882 136.022C394.382 132.525 393.722 129.139 393.4 125.603C393.35 124.891 393.506 124.176 393.853 123.55L400.844 111.2C401.137 110.751 401.161 110.72 401.729 110.727Z" fill="#DCD6E3"/>
<path d="M351.701 49.2806C352.764 49.9169 352.268 50.4771 352.268 50.4771L352.08 50.7903L154.755 268.762C171.705 299.216 188.653 329.672 205.603 360.126L272.095 332.529C267.945 303.12 263.794 273.71 259.643 244.301L259.765 243.692C280.415 208.952 301.065 174.213 321.715 139.473L336.966 113.828L339.336 109.842L342.626 104.409L366.685 64.6999C366.685 64.6999 366.806 63.9613 367.97 64.3842L368.394 64.9613L368.285 65.6694L344.227 105.379L340.946 110.8L338.514 114.881L323.324 140.43C302.73 175.075 282.136 209.72 261.542 244.365L267.247 284.782L274.05 332.985L273.816 333.745L273.482 333.98L205.55 362.174C205.55 362.174 205.13 362.682 204.373 361.765C192.599 340.609 180.823 319.452 169.05 298.295L152.796 269.089L152.678 268.629C152.74 268.295 152.741 268.291 152.92 268.001L350.693 49.5339C351.03 49.2831 350.829 49.1521 351.701 49.2806Z" fill="#DCD6E3"/>
<path d="M170.693 219.465C171.859 219.524 170.818 222.235 168.729 222.393C168.007 222.448 167.649 221.274 168.747 220.941C169.637 220.652 169.951 219.452 170.693 219.465Z" fill="black"/>
<path fill-rule="evenodd" clip-rule="evenodd" d="M303.479 298.809C303.479 310.363 301.333 321.412 297.419 331.584C296.41 334.201 295.288 336.757 294.052 339.252C287.606 352.244 278.169 363.482 266.629 372.055C262.277 375.29 257.627 378.143 252.723 380.577C244.639 384.585 235.887 387.419 226.677 388.886C226.658 388.886 226.649 388.891 226.64 388.891C224.848 389.168 223.032 389.404 221.212 389.583C220.575 389.64 219.938 389.701 219.297 389.749C218.005 389.843 216.713 389.914 215.401 389.956C214.94 389.98 214.482 389.989 214.02 389.994C213.44 390.013 212.86 390.017 212.275 390.017C205.183 390.017 198.283 389.206 191.653 387.674C190.201 387.339 188.757 386.966 187.329 386.561C183.287 385.415 179.354 383.996 175.558 382.322C143.476 368.188 121.076 336.116 121.076 298.809C121.076 279.012 127.381 260.696 138.105 245.742C138.591 245.053 139.091 244.374 139.6 243.7C140.666 242.299 141.769 240.927 142.915 239.588C143.684 238.696 144.462 237.814 145.268 236.952C145.32 236.89 145.372 236.825 145.433 236.768C145.697 236.485 145.966 236.192 146.24 235.914C146.433 235.697 146.641 235.49 146.848 235.277C147.032 235.084 147.216 234.895 147.414 234.707C147.654 234.452 147.904 234.197 148.164 233.952C148.414 233.702 148.654 233.462 148.909 233.226C149.116 233.014 149.329 232.811 149.536 232.622C149.729 232.434 149.927 232.255 150.126 232.066C150.432 231.774 150.743 231.486 151.059 231.212C151.253 231.033 151.441 230.859 151.635 230.694C151.828 230.519 152.012 230.35 152.201 230.189C152.521 229.911 152.837 229.637 153.153 229.364C153.229 229.298 153.299 229.236 153.375 229.175C153.761 228.845 154.158 228.515 154.549 228.199C154.931 227.883 155.322 227.572 155.714 227.266C155.832 227.167 155.945 227.077 156.067 226.978C156.487 226.652 156.921 226.323 157.35 225.988C157.826 225.634 158.303 225.28 158.784 224.931C159.27 224.582 159.751 224.238 160.241 223.903C160.722 223.563 161.208 223.228 161.698 222.904C161.722 222.889 161.736 222.875 161.759 222.865C162.189 222.578 162.627 222.295 163.056 222.017C163.127 221.965 163.202 221.927 163.264 221.875C163.707 221.597 164.16 221.319 164.608 221.036C165.216 220.664 165.834 220.295 166.452 219.937C166.904 219.673 167.357 219.409 167.815 219.154C180.972 211.797 196.138 207.605 212.275 207.605C218.877 207.605 225.324 208.303 231.52 209.647C233.643 210.095 235.722 210.623 237.788 211.222C237.976 211.279 238.17 211.33 238.363 211.392C263.913 219.004 284.771 237.508 295.542 261.526C296.424 263.501 297.245 265.511 297.989 267.562V267.567C297.994 267.562 297.994 267.567 297.994 267.567C298.324 268.481 298.645 269.401 298.947 270.326C299.149 270.943 299.348 271.566 299.537 272.188C299.73 272.815 299.909 273.442 300.088 274.07C301.06 277.531 301.838 281.077 302.394 284.694C302.597 286.006 302.776 287.33 302.922 288.665C303.29 291.994 303.479 295.376 303.479 298.809Z" fill="#0053F5"/>
<path fill-rule="evenodd" clip-rule="evenodd" d="M279.695 235.638C262.578 217.381 237.798 206.551 212.591 206.426C212.231 206.425 211.872 206.426 211.512 206.429C194.753 206.581 178.11 211.414 163.989 220.033L162.577 220.914L161.061 221.911C160.625 222.22 160.182 222.524 159.739 222.828C159.127 223.249 158.513 223.671 157.911 224.109C157.911 224.109 157.188 224.64 156.639 225.048C156.639 225.048 155.894 225.622 155.339 226.052C155.339 226.052 155.203 226.159 154.976 226.347C152.658 228.163 150.448 230.09 148.323 232.146C147.693 232.765 146.522 233.93 146.522 233.93C145.748 234.686 145.02 235.41 144.386 236.171C141.78 238.968 139.365 241.941 137.147 245.057C132.838 251.11 129.251 257.596 126.5 264.456C115.651 291.509 118.57 323.165 133.856 347.655C150.212 373.861 179.786 390.52 210.262 391.173C212.057 391.212 214.388 391.167 214.388 391.167C216.325 391.131 218.219 391.026 220.121 390.864C222.68 390.639 224.718 390.424 227.956 389.869C252.436 385.671 274.962 371.08 288.902 350.436C304.36 327.545 308.558 298.271 300.811 272.32C300.075 269.852 299.029 266.964 299.029 266.964C294.766 255.355 288.149 244.656 279.695 235.638ZM168.058 220.373C181.438 212.771 196.77 208.832 212.092 208.786C219.475 208.779 226.714 209.643 233.811 211.378C262.459 218.385 286.526 239.75 296.814 267.771V269.989L297.431 269.505L297.546 269.841C304.353 289.957 303.782 311.79 296.322 331.161C285.439 359.42 260.125 380.743 230.933 386.902C228.892 387.332 226.472 387.725 226.472 387.725C222.353 388.357 218.17 388.771 214 388.816C206.239 389.045 198.412 388.117 190.849 386.271C164.01 379.719 140.879 360.139 129.829 335.001C116.029 303.609 121.899 265.85 143.813 240.357C144.854 239.146 146.23 237.645 146.23 237.645C146.939 236.816 147.807 235.961 148.657 235.122C148.704 235.075 148.752 235.028 148.799 234.981C148.894 234.889 148.953 234.83 149.013 234.768C149.136 234.642 149.267 234.509 149.735 234.072C150 233.803 150.276 233.545 150.552 233.288C150.656 233.19 150.76 233.093 150.864 232.995C150.933 232.929 150.991 232.875 151.045 232.823C151.233 232.642 151.384 232.498 151.851 232.091C152.598 231.399 153.354 230.739 154.136 230.08C154.334 229.913 154.523 229.753 154.704 229.6C157.52 227.222 158.377 226.498 162.333 223.904C163.201 223.334 164.225 222.668 164.225 222.668C165.488 221.882 166.764 221.108 168.058 220.373Z" fill="black"/>
<path d="M302.251 298.534C302.251 312.851 298.909 326.388 292.959 338.399C286.609 351.206 277.303 362.283 265.928 370.735C261.642 373.923 257.054 376.735 252.219 379.134C244.252 383.081 235.624 385.879 226.546 387.324C226.528 387.324 226.518 387.329 226.509 387.329C224.743 387.603 222.957 387.831 221.159 388.012C220.531 388.068 219.903 388.124 219.271 388.17C218.002 388.263 216.724 388.338 215.431 388.38C214.98 388.403 214.525 388.412 214.074 388.417C213.498 388.431 212.926 388.436 212.354 388.436C208.44 388.436 204.582 388.184 200.798 387.701C201.458 387.617 202.119 387.52 202.774 387.417C202.783 387.417 202.792 387.413 202.807 387.413C211.89 385.967 220.517 383.169 228.484 379.223C233.319 376.824 237.902 374.012 242.193 370.822C253.563 362.372 262.869 351.294 269.224 338.488C275.169 326.476 278.516 312.94 278.516 298.622C278.516 287.806 276.61 277.43 273.11 267.826C273.11 267.826 273.11 267.822 273.105 267.822C272.366 265.799 271.562 263.82 270.693 261.871C260.071 238.197 239.515 219.956 214.33 212.454C214.139 212.393 213.949 212.342 213.758 212.286C211.726 211.696 209.677 211.176 207.585 210.734C205.14 210.204 202.658 209.776 200.143 209.455C204.135 208.912 208.212 208.633 212.354 208.633C218.862 208.633 225.212 209.321 231.325 210.646C233.412 211.087 235.466 211.608 237.497 212.198C237.684 212.254 237.879 212.305 238.065 212.361C263.25 219.864 283.81 238.104 294.428 261.779C295.297 263.731 296.106 265.707 296.84 267.729C296.845 267.729 296.845 267.733 296.845 267.733C300.345 277.342 302.251 287.717 302.251 298.534Z" fill="black" fill-opacity="0.25" style="mix-blend-mode:overlay"/>
<path fill-rule="evenodd" clip-rule="evenodd" d="M228.994 343.997C232.146 345.271 234.632 346.795 234.246 349.81C233.914 352.442 231.318 359.081 233.872 360.704C235.822 361.951 233.757 367.709 230.272 370.413C220.889 377.695 231.437 381.307 221.212 389.584C220.578 389.642 219.939 389.7 219.299 389.748C218.009 389.843 216.715 389.917 215.404 389.96C214.944 389.981 214.483 389.991 214.024 389.996C213.442 390.012 212.861 390.018 212.28 390.018C205.187 390.018 198.284 389.209 191.656 387.676C190.202 387.338 188.759 386.968 187.332 386.561C183.236 381.18 180.297 374.525 181.708 370.413C183.389 365.503 183.843 362.29 180.392 359.71C176.935 357.125 171.026 355.281 171.845 347.442C172.665 339.609 166.496 340.185 165.159 337.987C164.477 336.861 162.834 333.779 160.608 332.537C158.081 331.126 155.909 330.988 154.059 328.763C153.441 328.023 152.621 327.4 151.565 327.204C148.435 326.622 148.668 323.959 146.237 320.365C143.8 316.77 143.8 313.525 143.8 313.525C142.759 309.149 135.634 305.427 135.634 305.427C134.952 304.862 133.969 304.693 133.113 305.142C132.156 305.639 130.983 305.776 129.925 304.561C127.441 301.69 128.149 300.522 128.974 298.815C129.566 297.6 130.211 296.415 130.903 295.258C132.013 293.424 133.187 290.199 130.93 286.748C127.452 281.415 135.803 272.234 135.803 272.234C142.986 265.865 144.609 263.095 139.973 258.46C135.338 253.825 144.535 244.009 144.535 244.009C144.682 243.417 144.614 242.783 144.387 242.122C143.779 240.341 144.064 238.38 145.269 236.953C145.317 236.896 145.365 236.839 145.416 236.785C145.691 236.492 145.963 236.195 146.247 235.912C146.441 235.696 146.645 235.487 146.85 235.277C147.035 235.087 147.22 234.897 147.415 234.707C147.659 234.453 147.907 234.199 148.166 233.956C148.414 233.702 148.657 233.464 148.911 233.226C149.117 233.015 149.328 232.814 149.54 232.624C149.73 232.434 149.931 232.254 150.127 232.069C150.433 231.773 150.745 231.488 151.062 231.213C151.252 231.033 151.443 230.859 151.638 230.695C151.829 230.52 152.014 230.351 152.204 230.193C152.521 229.913 152.838 229.638 153.155 229.363C153.229 229.299 153.303 229.236 153.377 229.178C153.763 228.845 154.16 228.517 154.551 228.2C154.931 227.883 155.322 227.571 155.714 227.264C155.835 227.169 155.946 227.079 156.068 226.979C156.49 226.652 156.924 226.323 157.352 225.99C157.828 225.636 158.304 225.282 158.785 224.933C159.271 224.585 159.752 224.241 160.243 223.903C160.724 223.565 161.21 223.232 161.702 222.904C161.771 222.853 161.783 222.856 162.102 222.738C162.43 222.616 162.696 222.381 162.933 222.122C163.025 222.023 163.16 221.958 163.267 221.878C163.711 221.598 164.16 221.318 164.609 221.038C165.217 220.662 165.835 220.298 166.454 219.939C166.908 219.675 167.358 219.41 167.817 219.156C168.51 219.711 169.281 220.456 169.477 221.165C169.847 222.523 165.027 223.512 166.634 224.743C168.24 225.98 169.266 225.858 169.493 226.968C169.721 228.078 170.709 226.847 170.952 225.605C171.206 224.373 172.067 221.905 175.275 221.662C178.484 221.413 178.98 219.067 180.339 220.425C181.692 221.783 184.779 221.165 185.894 221.292C187.004 221.413 188.363 221.107 189.103 222.861C189.842 224.621 191.819 224.252 190.953 226.35C190.091 228.448 189.658 228.57 191.169 229.31C192.681 230.055 192.284 231.086 193.299 232.402C195.873 235.727 194.076 238.211 191.677 237.053C189.277 235.89 190.598 235.737 186.729 237.132C184.018 238.111 182.749 235.615 182.242 234.046C181.824 232.772 179.937 233.036 179.874 234.374C179.816 235.7 179.641 236.07 178.922 236.747C177.902 237.709 176.581 239.728 174.308 237.825C173.537 237.175 172.347 237.322 171.835 238.195C171.422 238.893 171.079 239.834 171.079 241.028C171.079 244.009 168.362 242.894 166.882 245.113C165.397 247.339 163.753 250.796 166.306 251.657C168.859 252.524 171.697 253.385 172.559 255.733C173.209 257.492 176.412 259.639 178.6 260.135C180.926 260.664 182.971 262.043 184.488 263.888C185.313 264.887 186.285 266.15 187.427 267.736C192.987 275.463 186.634 275.363 186.634 275.363C186.634 275.363 179.388 275.928 179.7 282.108C180.006 288.291 181.396 291.384 176.607 296.172C171.819 300.966 167.77 293.577 167.484 298.81C167.321 301.955 166.037 303.646 164.916 304.534C164.054 305.211 163.283 305.982 162.559 306.807C161.242 308.286 158.045 309.095 155.523 309.19C155.523 309.19 149.509 314.693 151.417 319.149C153.33 323.61 151.527 323.969 154.329 323.837C157.13 323.71 161.19 324.033 166.581 330.084C171.972 336.131 181.476 324.212 191.444 330.084C201.413 335.951 200.657 334.82 203.469 337.68C206.28 340.534 214.23 334.81 219.267 339.255C219.436 339.398 219.59 339.541 219.748 339.683" fill="#EDF3C2"/>
<path d="M179.679 218.831C180.939 218.954 181.695 220.123 183.42 220.145C186.001 220.177 188.913 219.798 190.068 222.144C190.671 223.367 192.279 223.848 192.342 225.35C192.383 226.317 191.854 227.216 191.466 228.115C191.466 228.115 192.972 228.887 193.528 230.242C194.018 231.435 194.866 232.428 195.315 233.504C196.007 235.161 195.808 237.543 193.961 238.302C192.541 238.886 190.978 237.984 189.709 237.326C189.709 237.326 187.846 238.103 186.569 238.409C185.569 238.648 184.484 238.522 183.597 237.983C182.314 237.204 181.662 235.716 181.113 234.397C180.959 234.381 181.045 234.515 181.035 234.684C180.924 236.35 179.923 237.738 178.26 239C176.911 240.024 175.032 239.813 173.51 238.699C172.82 238.221 172.309 240.149 172.245 241.366C172.165 242.531 171.545 243.625 170.527 244.184C169.332 244.84 168.168 245.162 167.276 246.705C166.531 247.993 165.377 250.051 166.646 250.528C169.312 251.46 172.243 252.265 173.489 254.909C174.508 257.072 176.699 258.481 178.981 259.014C179.522 259.146 179.567 259.168 179.822 259.251C183.835 260.562 186.543 264.33 188.771 267.603C190.337 269.904 192.041 272.817 190.095 275.117C188.579 276.909 185.56 276.524 183.803 277.359C181.9 278.264 180.768 280.312 180.906 282.606C181.153 286.56 181.891 290.771 179.692 294.255C177.873 297.135 174.844 299.556 171.642 298.928C170.648 298.733 169.699 298.257 168.788 298.043C168.788 298.043 168.567 302.863 165.963 305.19C164.317 306.661 162.847 308.521 160.613 309.376C159.168 309.929 157.631 310.224 156.084 310.34L156.024 310.344C153.574 312.813 151.431 316.088 152.634 319.01C153.102 320.166 153.435 321.366 153.628 322.614C153.628 322.614 156.835 322.467 159.301 323.318C162.656 324.475 165.236 326.99 167.614 329.466C169.278 331.148 172.093 330.605 174.026 330.009C179.851 328.214 185.943 325.6 191.912 328.994C196.16 331.467 200.875 333.379 204.175 336.72C205.243 337.801 207.153 337.284 208.687 337.008C212.44 336.331 216.435 335.511 219.695 338.079C219.903 338.243 220.102 338.416 220.298 338.593C220.607 338.872 220.82 339.214 220.923 339.625L220.856 340.08C220.621 340.472 220.616 340.477 220.25 340.749L219.803 340.86L219.348 340.793C219.348 340.793 218.068 339.624 216.882 339.148C211.942 337.166 206.079 341.82 202.675 338.556C199.314 335.208 194.874 333.447 190.736 331.038C190.187 330.725 190.096 330.689 189.785 330.547C184.342 328.059 177.591 331.679 173.077 332.71C170.442 333.312 167.545 332.906 165.455 330.598C164.794 329.877 164.104 329.179 163.368 328.531C160.819 326.282 157.563 324.902 153.999 325.029C152.95 325.06 152.644 325.32 151.84 324.424C150.824 323.295 151.096 321.499 150.275 319.481C148.64 315.307 152.236 310.663 154.698 308.344C154.698 308.344 155.086 308.044 155.917 307.988C158.248 307.813 160.71 307.087 161.957 305.707C162.929 304.641 164.201 303.805 164.99 302.79C165.976 301.52 166.182 299.826 166.341 298.282C166.474 297.087 167.105 295.635 168.643 295.658C170.323 295.683 171.911 296.967 173.573 296.637C174.608 296.43 175.441 295.701 176.177 294.92C177.338 293.685 178.342 292.231 178.72 290.59C179.789 285.944 176.881 280.785 180.224 277.089C181.915 275.219 184.549 274.397 186.904 274.167C187.45 274.105 188.043 273.959 188.343 273.531C189.136 272.402 188.125 271.103 187.579 270.14C185.328 266.165 182.44 262.319 178.149 261.239C175.254 260.483 172.448 258.571 171.405 256.024C170.068 252.896 164.872 253.724 163.953 250.852C163.161 248.379 164.916 245.718 166.087 244.195C166.915 243.12 168.415 242.777 169.519 242.042C170.108 241.648 169.844 240.681 170.008 239.771C170.112 239.195 170.293 238.633 170.545 238.105C171.331 236.459 173.445 235.656 175.184 237.019C176.05 237.679 176.949 237.055 178.269 235.735C178.98 235.006 178.339 233.562 179.564 232.575C180.818 231.566 182.841 232.191 183.428 233.88C183.452 233.948 183.477 234.016 183.503 234.084C183.567 234.249 183.635 234.411 183.711 234.57C183.767 234.685 183.825 234.799 183.888 234.909C183.937 234.996 183.989 235.081 184.044 235.165C184.565 235.954 185.552 236.306 186.669 235.899C188.095 235.374 189.547 234.54 190.958 235.321C192.003 235.911 193.543 236.982 193.366 235.247C193.283 234.436 192.806 233.707 192.304 233.043C192.304 233.043 191.557 231.15 191.06 230.647C190.184 229.76 188.692 229.468 189.042 227.925C189.233 227.082 189.873 226.338 189.983 225.492C189.983 225.492 188.582 224.33 187.905 223.094C187.213 221.871 185.009 222.482 183.821 222.502C183.603 222.504 183.387 222.504 183.169 222.498C183.018 222.494 182.867 222.487 182.716 222.476C181.556 222.396 180.356 222.097 179.485 221.241C179.485 221.241 177.142 222.598 175.066 222.868C173.479 223.094 172.51 224.308 172.034 226.142C171.938 226.486 171.812 226.821 171.648 227.139C171.604 227.225 171.556 227.311 171.506 227.395C170.881 228.432 168.818 229.362 168.345 227.25C168.102 226.163 163.856 226.323 165.312 223.456C165.881 222.334 167.251 221.943 168.17 221.245L167.669 220.594C166.408 221.324 165.159 222.078 163.926 222.854C163.926 222.854 163.066 223.641 162.315 223.914C162.315 223.914 158.093 226.875 156.006 228.533C155.425 228.998 154.846 229.47 154.286 229.949C153.337 230.76 153.784 230.336 152.572 231.436C152.572 231.436 151.22 232.647 150.497 233.334C150.235 233.588 150.219 233.597 150.107 233.701C149.112 234.645 148.16 235.591 147.253 236.556C147.253 236.556 144.573 238.865 145.549 241.891C146.039 243.481 145.913 243.298 145.679 244.281C145.679 244.281 144.369 245.93 143.324 247.348C141.762 249.468 140.251 251.75 139.896 254.402C139.731 255.633 140.08 256.884 141.03 257.855C142.722 259.614 144.165 261.822 143.646 264.312C142.874 268.021 139.541 270.471 136.918 272.817C136.918 272.817 135.63 274.23 134.775 275.425C132.327 278.845 130.015 283.095 132.03 286.285C132.321 286.757 132.356 286.837 132.491 287.107C133.944 290.028 133.259 293.537 131.537 296.501C130.167 298.887 128.535 301.039 130.607 303.544C131.143 304.192 131.697 304.469 132.808 303.98C133.911 303.521 135.219 303.673 136.187 304.368C136.29 304.441 136.497 304.556 136.687 304.664C140.3 306.739 144.012 309.423 144.943 313.246C144.943 313.246 145.059 314.682 145.366 315.77C146.197 318.716 148.066 321.114 149.513 324.043C150.004 325.015 150.704 325.822 151.906 326.07C153.782 326.482 154.94 328.356 156.416 329.282C158.174 330.384 160.322 330.764 162.03 332.068C163.821 333.436 164.958 335.5 166.175 337.391C167.301 339.081 170.922 339.331 172.352 342.366C173.918 345.69 172.007 349.727 174.02 353.065C176.549 357.261 182.909 358.065 183.993 362.985C184.791 366.609 182.331 370.156 182.546 373.358C182.84 377.729 185.269 381.8 187.989 385.477L188.032 385.534C196.463 387.892 205.271 388.986 213.999 388.817C214.696 388.804 215.392 388.783 216.088 388.754C217.602 388.692 219.117 388.588 220.627 388.453C220.627 388.453 224.343 385.76 224.848 382.401C225.193 380.11 224.497 377.746 225.049 375.519C226.265 370.612 232.714 368.828 233.413 362.981C233.553 361.806 232.741 361.418 232.329 360.819C230.793 358.589 231.703 355.652 232.252 353.309C232.687 351.448 233.504 349.461 232.867 348.088C232.08 346.392 230.131 345.733 228.547 345.089L228.163 344.836C227.906 344.458 227.904 344.452 227.812 344.004L227.899 343.553L228.152 343.169L228.532 342.911L228.983 342.818C228.983 342.818 231.086 343.561 232.235 344.258C234.316 345.52 235.87 347.722 235.3 350.647C234.783 353.295 233.693 355.957 233.966 358.475C234.071 359.446 234.926 359.944 235.273 360.477C236.475 362.327 235.619 364.803 234.602 366.826C232.657 370.694 227.936 372.582 227.253 376.486C226.847 378.812 227.59 381.258 227.015 383.583C226.333 386.346 224.279 388.595 222.076 390.399C221.499 390.871 220.802 390.806 220.115 390.865C209.152 391.778 198.02 390.757 187.549 387.847C186.76 387.628 186.208 387.047 185.71 386.355C182.088 381.316 178.886 375.107 180.74 369.585C181.802 366.376 182.715 362.791 179.378 360.432C175.628 357.781 171.305 355.338 170.681 350.412C170.587 349.675 170.567 348.931 170.603 348.19C170.701 346.162 170.949 343.989 169.609 342.428C168.112 340.686 165.274 340.497 164.002 338.353C163.889 338.16 163.775 337.968 163.661 337.775C162.223 335.376 160.502 333.667 157.139 332.265C155.531 331.589 154.14 330.537 152.935 329.277C152.075 328.391 150.566 328.952 148.66 326.986C146.927 325.199 146.323 322.744 144.906 320.484C143.631 318.422 142.727 316.08 142.623 313.688C141.727 310.317 138.082 308.105 135.15 306.507C135.15 306.507 134.34 305.874 133.417 306.303C130.151 307.765 126.066 303.237 127.282 299.718C128.824 295.255 132.741 291.759 129.89 287.315C129.676 286.971 129.665 286.936 129.579 286.761C129.46 286.522 129.357 286.275 129.27 286.023C128.048 282.479 129.876 278.749 131.609 275.928C132.576 274.355 133.671 272.858 134.897 271.475C134.897 271.475 139.877 266.781 140.764 265.246C141.86 263.349 140.891 261.201 138.94 259.086C136.583 256.446 137.794 252.049 139.237 249.367C140.338 247.321 141.725 245.428 143.258 243.664C143.258 243.664 143.461 243.082 143.235 242.402C143.235 242.402 142.587 240.229 143.199 238.307C143.585 237.095 144.4 236.103 145.353 235.135C145.353 235.135 146.471 233.937 147.304 233.145C147.304 233.145 147.874 232.549 148.664 231.824C148.664 231.824 150.962 229.709 151.662 229.096C152.783 228.115 153.962 227.155 155.148 226.205L156.637 225.051C158.091 223.968 159.589 222.939 161.066 221.907L162.119 221.265C162.305 221.09 162.603 220.901 162.603 220.901C164.07 219.978 165.543 219.082 167.067 218.223C167.356 218.062 167.366 218.085 167.682 217.984C167.682 217.984 168.692 218.349 168.696 218.353C168.795 218.435 168.893 218.518 168.989 218.604C169.141 218.737 169.288 218.875 169.43 219.019C170.305 219.902 171.048 221.162 170.41 222.253C169.885 223.152 168.807 223.624 167.9 224.192C168.529 224.593 169.25 224.849 169.807 225.305C170.331 222.818 172.358 220.765 175.007 220.501C176.276 220.375 177.137 219.732 178.501 219.077C178.87 218.899 179.117 218.796 179.679 218.831Z" fill="black"/>
<path fill-rule="evenodd" clip-rule="evenodd" d="M210.817 237.726C210.898 240.927 211.399 242.089 213.004 243.386C214.609 244.682 215.278 245.241 216.327 245.859C216.338 245.865 218.736 247.211 218.747 247.217C219.764 247.789 222.562 244.552 222.51 243.386C222.365 240.146 221.221 238.426 221.435 237.356C221.682 236.122 224.027 237.356 223.41 235.628C222.793 233.899 224.274 233.035 225.262 230.937C226.249 228.838 225.319 227.888 223.286 226.862C217.958 224.173 221.583 222.133 221.583 222.133C223.805 222.009 222.368 217.985 220.887 216.874C219.405 215.762 215.494 218.316 211.689 216.34C207.885 214.365 208.225 217.727 208.686 218.467C208.686 218.467 209.99 223.292 205.662 223.91C201.334 224.529 196.543 224.529 198.552 228.702C200.561 232.875 210.717 233.767 210.817 237.726Z" fill="#EDF3C2"/>
<path fill-rule="evenodd" clip-rule="evenodd" d="M212.026 215.211C211.326 214.899 210.618 214.584 209.839 214.548C206.454 214.472 207.579 218.91 207.579 218.91C207.914 220.585 207.263 222.389 205.728 222.702C204.935 222.857 204.117 222.944 203.308 223.031C201.296 223.246 199.338 223.456 197.955 224.667C196.655 225.804 196.782 227.654 197.412 229.042C198.606 231.672 201.457 232.893 204.295 234.107C204.976 234.399 205.655 234.689 206.311 234.999C206.46 235.07 206.617 235.141 206.779 235.215C208.023 235.781 209.545 236.473 209.638 237.71C209.765 239.992 210.103 242.265 211.634 243.747C211.651 243.763 211.666 243.778 211.681 243.792C211.804 243.913 211.858 243.965 212.182 244.234C212.294 244.326 212.407 244.418 212.52 244.51C213.216 245.079 213.912 245.648 214.645 246.169L214.692 246.203C215.003 246.425 215.144 246.525 215.739 246.878L216.961 247.564C217.091 247.637 217.22 247.71 217.349 247.783C217.635 247.945 217.922 248.107 218.211 248.265C218.995 248.663 219.898 248.362 220.581 247.905C223.044 246.258 223.685 243.25 223.685 243.25C223.626 242.117 223.349 241.022 223.076 239.939C222.901 239.248 222.728 238.563 222.613 237.875C222.613 237.875 223.66 237.803 224.158 237.356C224.796 236.784 224.701 235.818 224.498 235.159C224.325 234.598 224.81 233.859 225.382 232.986C226.06 231.952 226.862 230.729 226.838 229.389C226.837 229.328 226.836 229.269 226.836 229.212C226.813 227.722 226.808 227.402 224.119 225.962C222.328 225.022 221.204 223.886 222.013 223.265C223.472 222.989 224.036 221.424 223.872 220.149C223.564 217.762 221.895 215.393 219.757 215.4C219.376 215.401 219.269 215.405 218.564 215.506C218.311 215.544 218.057 215.585 217.804 215.626C216.344 215.863 214.89 216.1 213.484 215.759C212.987 215.639 212.508 215.426 212.026 215.211ZM209.793 218.063C209.793 218.063 209.431 216.915 209.714 216.907C210.112 216.906 210.485 217.075 210.848 217.241C212.996 218.254 215.108 218.434 217.339 218.097C217.688 218.043 218.028 217.946 218.353 217.853C219.087 217.644 219.739 217.458 220.213 217.844C220.966 218.455 221.421 219.488 221.536 220.489C221.601 221.051 221.585 221.049 221.436 221.032C221.343 221.022 221.199 221.006 220.991 221.114C220.991 221.114 220.291 221.582 219.929 222.015C218.474 223.754 219.657 225.856 221.061 226.894C221.223 227.014 221.389 227.128 221.557 227.237C221.58 227.251 221.601 227.265 221.622 227.278C221.854 227.429 221.949 227.49 222.493 227.78C222.646 227.86 222.801 227.936 222.952 228.011C223.732 228.396 224.42 228.736 224.476 229.372C224.552 230.231 223.976 231.099 223.373 232.01C222.672 233.067 221.934 234.181 222.134 235.402C222.171 235.606 221.958 235.641 221.721 235.68C221.597 235.701 221.467 235.722 221.363 235.769C219.579 236.57 220.114 238.409 220.7 240.422C220.986 241.407 221.285 242.433 221.331 243.401L221.329 243.408C221.113 244.229 220.169 245.487 219.087 246.057L218.114 245.511L216.917 244.839C215.787 244.168 214.762 243.316 213.745 242.47C213.701 242.434 213.658 242.398 213.615 242.363C212.268 241.22 212.055 239.374 211.994 237.627C211.827 234.641 208.812 233.384 205.663 232.072C204.369 231.532 203.053 230.984 201.903 230.302C200.393 229.408 198.51 227.363 199.484 226.464C200.551 225.478 202.216 225.37 203.896 225.26C204.613 225.213 205.333 225.166 206.01 225.05C209.331 224.484 210.679 220.902 209.793 218.063Z" fill="black"/>
<path fill-rule="evenodd" clip-rule="evenodd" d="M232.601 234.109C230.864 233.353 231.129 230.777 232.976 230.357C233.402 230.259 233.866 230.214 234.355 230.252C236.667 230.436 237.63 224.646 242.447 230.239C247.264 235.831 243.989 239.877 239.75 238.914C235.511 237.95 236.859 234.868 233.969 234.482C233.446 234.413 232.993 234.28 232.601 234.109Z" fill="#EDF3C2"/>
<path fill-rule="evenodd" clip-rule="evenodd" d="M245.135 232.084C244.043 229.938 241.903 226.685 238.818 226.621C237.472 226.615 236.55 227.426 235.609 228.255C235.418 228.423 235.226 228.592 235.03 228.755C234.529 229.17 233.852 229.254 233.176 229.337C232.46 229.425 231.745 229.514 231.239 229.996C229.202 231.938 230.915 235.067 233.357 235.577C234.569 235.819 234.932 236.415 235.384 237.157C235.408 237.197 235.433 237.237 235.458 237.278C237.138 240.015 241.305 241.169 243.985 239.372C246.396 237.756 246.321 234.416 245.135 232.084ZM236.943 229.994C237.549 229.47 238.095 228.998 238.758 228.981C240.45 228.963 244.496 232.477 243.58 236.118C243.265 237.37 241.9 237.954 240.71 237.873C238.745 237.74 237.957 236.604 237.146 235.435C236.995 235.217 236.843 234.998 236.683 234.785C235.803 233.612 234.216 233.331 234.216 233.331C231.212 232.904 232.844 231.444 233.967 231.423C235.303 231.412 236.172 230.661 236.943 229.994Z" fill="black"/>
<path fill-rule="evenodd" clip-rule="evenodd" d="M255.609 231.421C256.717 231.554 257.805 231.834 258.816 232.307C261.997 233.796 267.77 237.592 268.105 245.629C268.349 251.467 269.527 254.606 270.591 256.271C271.156 257.153 271.144 258.285 270.585 259.17C269.655 260.644 270.597 263.204 271.583 265.105C272.928 267.697 271.68 267.097 273.901 267.964C276.123 268.827 279.899 268.784 279.157 266.187C278.414 263.595 282.813 265.989 283.132 265.363C286.73 258.304 279.715 261.042 280.948 257.461C280.948 257.461 278.852 251.781 281.444 253.015C284.036 254.248 286.875 256.103 287.866 258.57C288.85 261.042 290.087 259.312 289.963 257.582C289.838 255.857 293.667 257.828 293.913 260.916C293.992 261.941 294.674 261.974 295.536 261.524C284.764 237.508 263.907 219.002 238.357 211.388C238.181 211.453 237.986 211.388 237.782 211.221C235.724 210.623 233.637 210.094 231.522 209.645C231.3 210.925 231.226 212.181 231.073 212.645C231.073 212.645 228.845 216.262 231.782 218.271C234.719 220.281 240.606 215.489 244.386 223.526C247.319 229.762 253.144 231.124 255.609 231.421Z" fill="#EDF3C2"/>
<path fill-rule="evenodd" clip-rule="evenodd" d="M295.962 259.627C284.938 236.127 263.508 217.704 238.697 210.264C238.674 210.258 238.65 210.253 238.626 210.247C238.602 210.242 238.579 210.236 238.555 210.231L237.917 210.037C235.888 209.455 233.842 208.939 231.77 208.496C230.548 208.327 230.34 209.575 230.34 209.575C230.281 209.939 230.24 210.306 230.199 210.671C230.141 211.189 230.084 211.702 229.974 212.199C228.714 214.502 228.889 217.511 230.825 219.034C232.277 220.177 233.981 220.042 235.723 219.904C237.031 219.8 238.36 219.695 239.62 220.126C241.287 220.697 242.413 222.205 243.197 223.776C245.35 228.165 249.483 231.451 254.235 232.398C254.274 232.406 254.309 232.413 254.341 232.419C254.556 232.463 254.667 232.485 255.209 232.562C260.586 233.279 265.315 237.654 266.556 242.922C266.893 244.351 267.046 245.935 267.203 247.568C267.474 250.388 267.76 253.352 269.034 255.908C269.827 257.498 269.86 257.976 269.434 258.82C268.452 260.761 269.292 263.06 270.246 265.068C270.461 265.513 270.619 265.957 270.767 266.375C271.079 267.253 271.351 268.018 272.024 268.442C273.815 269.569 277.218 270.419 279.32 268.947C280.599 268.051 280.37 266.173 280.37 266.173C280.655 266.219 280.948 266.306 281.249 266.394C281.917 266.59 282.62 266.796 283.332 266.592C283.879 266.436 284.177 265.917 284.177 265.917C284.891 264.507 285.662 262.836 285.241 261.188C284.906 259.873 283.808 259.366 282.98 258.984C282.379 258.707 281.92 258.495 281.998 258.087C282.035 257.907 282.013 256.938 282.013 256.938C281.584 255.696 281.406 254.312 281.406 254.312C283.525 255.381 285.615 256.67 286.632 258.698C286.658 258.751 286.685 258.807 286.712 258.864C287.09 259.647 287.615 260.737 288.589 260.947C290.605 261.382 291.136 258.423 291.136 258.423C291.821 258.896 292.363 259.583 292.613 260.372L292.621 260.399C292.67 260.554 292.694 260.629 292.73 260.913C292.92 262.685 294.565 263.282 295.873 262.677C297.133 262.095 296.675 261.129 296.085 259.887C296.045 259.801 296.004 259.715 295.962 259.627ZM281.954 264.11C281.337 263.958 280.718 263.805 280.081 263.782C280.018 263.78 279.956 263.78 279.893 263.781C278.437 263.831 277.707 265.144 277.981 266.351C277.981 266.351 278.165 266.91 277.908 267.055C276.9 267.625 275.546 267.315 274.414 266.905C274.35 266.881 274.285 266.86 274.221 266.84C273.853 266.723 273.497 266.61 273.211 265.849L273.208 265.843C273.068 265.468 273.022 265.347 272.696 264.697C272.679 264.663 272.661 264.628 272.643 264.593C271.777 262.907 270.826 261.057 271.619 259.748C272.562 258.193 271.919 256.212 271.455 255.431C269.724 252.518 269.504 249.022 269.291 245.64C269.282 245.489 269.272 245.339 269.263 245.188C268.824 238.3 263.609 231.926 256.997 230.468C256.975 230.463 256.954 230.459 256.934 230.454C256.658 230.393 256.535 230.366 255.978 230.287C253.124 229.906 250.316 228.824 248.213 226.861C247.012 225.739 246.207 224.34 245.419 222.971C244.459 221.303 243.525 219.678 241.928 218.647C240.01 217.409 237.622 217.4 235.356 217.577C230.079 217.991 231.351 215.007 232.02 213.438C232.088 213.278 232.15 213.134 232.198 213.009C232.198 213.009 232.337 212.409 232.393 211.99C232.418 211.8 232.441 211.609 232.465 211.419C232.479 211.305 232.493 211.19 232.507 211.076L232.642 211.107C233.935 211.406 235.221 211.734 236.499 212.089C236.528 212.097 236.558 212.105 236.587 212.113C236.749 212.159 236.911 212.205 237.072 212.25C237.418 212.349 238.317 212.614 238.317 212.614C260.754 219.426 280.256 235.333 291.462 255.951C291.462 255.951 290.73 255.717 290.233 255.789C288.952 255.972 288.778 257.722 288.778 257.722C287.939 256.003 286.482 254.68 284.895 253.613C284.776 253.533 284.656 253.452 284.534 253.369C282.98 252.314 281.26 251.147 279.94 251.89C278.152 252.896 278.984 255.351 279.647 257.308C279.669 257.373 279.691 257.438 279.713 257.502C279.295 259.261 280.748 260.336 282.127 261.025C283.852 261.886 282.369 264.211 282.369 264.211C282.23 264.178 282.092 264.144 281.954 264.11Z" fill="black"/>
<path fill-rule="evenodd" clip-rule="evenodd" d="M303.481 298.811C303.481 310.365 301.335 321.415 297.42 331.586C297.138 330.766 295.621 330.136 295.649 329.357C295.776 325.585 289.789 328.394 288.184 330.241C286.786 331.849 288.635 334.501 282.075 333.902C279.435 333.661 265.197 332.11 266.485 325.21C267.117 321.796 266.051 318.462 261.703 316.774C253.026 313.398 249.47 304.013 252.875 296.609C252.875 296.609 255.474 292.299 262.906 291.177C270.338 290.049 263.231 284.296 273.846 286.692C276.968 287.399 279.85 284.626 280.213 281.443C280.354 280.226 280.529 278.798 280.585 277.218C280.708 273.639 282.674 271.517 284.905 272.233C294.129 275.181 295.539 268.328 295.539 268.328C296.407 264.692 297.935 267.456 297.991 267.564V267.569C298.326 268.484 298.642 269.404 298.949 270.328C299.151 270.945 299.35 271.568 299.538 272.19C299.727 272.813 299.911 273.44 300.09 274.073C301.061 277.533 301.84 281.08 302.396 284.697C302.604 286.008 302.778 287.333 302.924 288.668C303.292 291.997 303.481 295.378 303.481 298.811Z" fill="#EDF3C2"/>
<path fill-rule="evenodd" clip-rule="evenodd" d="M297.36 265.382C297.263 265.335 297.18 265.295 296.781 265.277C295.108 265.271 294.689 266.896 294.435 267.881C294.392 268.05 294.353 268.201 294.314 268.32C293.519 270.742 290.97 271.894 288.654 271.778C287.961 271.744 287.244 271.554 286.518 271.362C285.303 271.04 284.065 270.712 282.887 271.1C279.809 272.115 279.545 275.431 279.27 278.887C279.202 279.736 279.134 280.594 279.023 281.428C278.72 283.511 276.642 285.97 274.266 285.573C274.178 285.557 274.086 285.54 273.99 285.522C271.64 285.084 267.197 284.257 266.075 287.198C266.049 287.27 266.023 287.341 265.998 287.413C265.475 288.961 264.476 289.669 263.173 289.933C263.1 289.946 263.028 289.96 262.956 289.973C259.758 290.517 256.647 291.548 254.144 293.565C252.896 294.571 251.757 296.21 251.757 296.21C248.489 303.51 251.812 312.433 258.425 316.467C259.208 316.944 260.047 317.314 260.884 317.683C261.22 317.831 261.555 317.979 261.886 318.133C264.694 319.443 265.736 322.43 265.289 325.191C264.888 327.954 266.667 330.194 268.791 331.508C272.434 333.76 276.839 334.52 281.125 334.99C281.288 335.008 281.454 335.027 281.622 335.047C283.54 335.268 285.735 335.522 287.362 334.276C288.167 333.66 288.451 332.7 288.728 331.765C288.74 331.727 288.751 331.689 288.762 331.651C289.39 329.543 294.166 327.676 294.441 328.94C294.46 329.027 294.466 329.116 294.469 329.204C294.483 330.547 295.631 331.7 296.699 332.52C297.802 333.367 298.453 332.198 298.883 331.04C302.785 320.55 304.731 309.344 304.654 298.159C304.579 287.297 302.178 276.818 299.086 267.136C299.086 267.136 298.425 265.813 297.435 265.415C297.406 265.404 297.383 265.392 297.36 265.382ZM290.947 273.977C293.822 273.413 295.733 271.223 296.863 267.985C296.872 267.959 296.944 268.143 296.944 268.143C303.756 286.973 304.17 309.459 296.983 329.381C296.983 329.381 296.89 329.295 296.828 329.225C296.828 329.225 296.802 328.549 296.66 328.121C295.801 325.552 293.096 326.148 291.164 326.926C289.211 327.714 287.153 328.915 286.522 330.922C285.905 332.94 284.616 332.873 283.046 332.79L283.003 332.788C279.025 332.579 274.956 331.878 271.359 330.21C269.761 329.47 267.353 327.926 267.605 325.671C268.09 321.899 266.734 318.062 263.488 316.302L263.471 316.293C263.122 316.103 262.977 316.024 262.35 315.764C255.257 312.898 251.194 305.11 253.434 298.392C253.466 298.298 253.495 298.202 253.525 298.107C253.627 297.773 253.729 297.442 253.917 297.167C255.646 294.649 258.687 293.284 261.668 292.609C261.707 292.6 261.743 292.591 261.776 292.584C262.02 292.528 262.137 292.501 262.754 292.395C263.919 292.205 265.077 291.97 266.064 291.363C267.097 290.727 267.475 289.725 267.793 288.883C268.045 288.216 268.258 287.649 268.73 287.448C269.936 286.933 271.359 287.29 272.731 287.635C273.05 287.715 273.366 287.794 273.676 287.862C276.663 288.462 279.426 286.557 280.663 284.026C281.486 282.339 281.545 281.093 281.601 279.902C281.615 279.609 281.628 279.32 281.653 279.028C281.682 278.682 281.699 278.334 281.715 277.987C281.754 277.157 281.793 276.332 282.01 275.542C282.273 274.589 283.163 272.978 284.478 273.337C286.573 273.95 288.806 274.397 290.947 273.977Z" fill="black"/>
<path d="M297.537 294.13C297.532 295.18 297.345 296.187 297.005 297.122C296.808 297.664 296.56 298.183 296.266 298.671C296.015 299.087 295.771 299.507 295.548 299.938L290.011 310.638C289.434 311.753 287.84 311.753 287.263 310.638L281.726 299.938C281.503 299.507 281.259 299.087 281.008 298.671C280.714 298.183 280.466 297.664 280.269 297.122C279.924 296.174 279.736 295.151 279.736 294.084C279.736 289.143 283.763 285.142 288.714 285.184C293.596 285.225 297.562 289.247 297.537 294.13Z" fill="white"/>
<path fill-rule="evenodd" clip-rule="evenodd" d="M297.058 298.74C300.652 292.258 295.193 284.54 288.723 284.465C288.661 284.465 288.599 284.465 288.536 284.465C282.409 284.55 278.031 290.695 279.252 296.18C279.515 297.361 280.098 298.431 280.681 299.502C280.806 299.731 280.93 299.96 281.052 300.19C281.83 301.682 282.598 303.178 283.367 304.675C284.452 306.789 285.538 308.904 286.649 311.004C287.441 312.44 289.535 312.481 290.431 311.316C290.435 311.31 290.44 311.305 290.444 311.3C290.516 311.205 290.549 311.162 290.651 310.97C291.263 309.787 291.874 308.603 292.486 307.419C293.731 305.008 294.976 302.596 296.229 300.189L296.27 300.113C296.409 299.854 296.558 299.6 296.707 299.347C296.826 299.146 296.945 298.944 297.058 298.74ZM280.706 292.074C281.589 288.567 285.003 285.925 288.605 285.898C290.682 285.896 292.679 286.687 294.176 288.069C296.905 290.585 297.564 295.021 295.705 298.213C294.22 300.728 292.912 303.337 291.603 305.946C290.869 307.41 290.135 308.873 289.37 310.32C289.074 310.856 288.218 310.854 287.92 310.334C286.977 308.625 286.107 306.875 285.237 305.125C284.159 302.955 283.081 300.786 281.864 298.697C280.69 296.697 280.142 294.309 280.706 292.074Z" fill="black"/>
<path fill-rule="evenodd" clip-rule="evenodd" d="M292.867 294.68C292.867 297.014 290.975 298.906 288.64 298.906C286.306 298.906 284.414 297.014 284.414 294.68C284.414 292.346 286.306 290.453 288.64 290.453C290.975 290.453 292.867 292.346 292.867 294.68Z" fill="#D6F318"/>
<path fill-rule="evenodd" clip-rule="evenodd" d="M293.539 295.371C293.938 292.521 291.504 289.79 288.706 289.737C288.675 289.736 288.659 289.736 288.643 289.736C288.627 289.736 288.611 289.736 288.579 289.737C286.735 289.772 285.016 290.869 284.213 292.483C282.604 295.719 285.372 299.625 288.643 299.625C291.01 299.625 293.213 297.701 293.539 295.371ZM285.46 296.161C284.407 293.908 286.29 291.215 288.595 291.171C288.641 291.171 288.686 291.171 288.731 291.172C292 291.276 292.973 295.44 291.03 297.248C289.37 298.794 286.384 298.139 285.46 296.161Z" fill="black"/>
<path d="M288.678 310.83C289.301 310.83 289.45 310.356 289.684 309.843L294.813 299.96C295.021 299.559 295.291 299.005 295.524 298.618C295.797 298.165 296.13 297.565 296.313 297.06C296.628 296.191 296.885 295.273 296.908 294.297C297.011 289.778 293.234 285.683 288.402 285.807C287.498 285.831 286.611 286.038 285.795 286.3C290.158 286.535 293.89 290.271 293.868 294.682C293.863 295.658 293.599 296.728 293.283 297.597L287.83 310.077C287.779 310.193 287.8 310.33 287.889 310.421C287.92 310.453 287.949 310.484 287.975 310.514C288.154 310.715 288.409 310.83 288.678 310.83Z" fill="black" fill-opacity="0.25" style="mix-blend-mode:overlay"/>
<path d="M163.902 199.419C165.228 199.526 164.593 200.589 164.122 200.787C161.195 201.902 158.353 203.179 155.591 204.619C155.591 204.619 154.887 204.799 154.637 204.319C154.237 203.551 155.604 203.007 156.788 202.426C159.016 201.333 161.292 200.351 163.618 199.465C163.618 199.465 163.672 199.416 163.902 199.419Z" fill="black"/>
<path d="M150.576 205.994C151.178 206.086 151.431 206.917 150.88 207.301C142.567 212.436 135.167 219.176 129.257 227.034C129.257 227.034 128.095 227.63 127.988 226.689C127.944 226.301 128.3 225.952 128.549 225.624C134.506 217.85 141.865 211.207 150.136 206.097C150.136 206.097 150.171 205.977 150.576 205.994Z" fill="black"/>
<path d="M275.662 388.377C276.182 388.43 276.203 388.624 276.282 388.845C276.574 389.663 275.227 390.092 274.092 390.649C273.113 391.129 272.124 391.589 271.127 392.028C269.853 392.59 268.562 393.115 267.261 393.61C267.261 393.61 265.697 393.358 266.482 392.478C266.934 391.972 267.868 391.863 268.67 391.535C270.92 390.614 273.123 389.584 275.289 388.456C275.289 388.456 275.396 388.369 275.662 388.377Z" fill="black"/>
<path d="M302.296 365.773C302.788 365.879 303.04 366.464 302.75 366.897C296.763 374.857 289.265 381.716 280.74 386.983C280.74 386.983 280.409 387.139 280.151 387.055C279.649 386.892 279.509 386.119 279.996 385.78C288.308 380.644 295.716 373.895 301.62 366.046C301.62 366.046 301.842 365.726 302.296 365.773Z" fill="black"/>
<path fill-rule="evenodd" clip-rule="evenodd" d="M425.748 403.499L389.724 383.165C387.956 382.166 386.131 381.264 384.236 380.533C381.458 379.462 378.91 378.891 375.446 378.937C362.172 379.113 340.697 375.428 333.409 368.979C324.39 360.998 324.054 350.175 324.156 347.109C324.174 346.568 323.955 346.05 323.548 345.695C320.153 342.736 304.53 329.085 298.343 323.101C293.737 318.647 293.064 315.418 293.136 313.744C293.172 312.897 293.691 312.163 294.481 311.853C296.226 311.169 300.061 310.643 305.718 315.172C309.84 318.473 317.165 323.667 323.273 327.909C323.273 327.909 317.839 322.905 321.857 319.261C325.877 315.619 335.335 322.503 335.335 322.503C335.335 322.503 327.877 315.296 332.568 310.823C335.837 307.707 343.917 312.142 348.515 315.116C348.515 315.116 345.394 311.562 347.912 308.244C350.43 304.925 356.419 306.625 367.373 314.351C373.824 318.901 384.89 328.899 394.198 340.957C396.931 344.496 400.36 347.436 404.327 349.498L439.109 367.059" fill="#FFD0C2"/>
<path d="M351.59 305C356.774 305.131 361.445 308.37 366.042 311.454C377.488 319.131 387.249 329.355 395.61 340.115C398.179 343.376 401.397 346.118 405.071 348.045L439.843 365.6C441.273 366.497 440.402 369.313 438.372 368.513L403.578 350.946C395.617 346.771 390.699 338.725 384.413 331.959C376.937 323.914 368.74 316.375 359.268 311.093C356.792 309.713 354.172 308.275 351.444 308.262C349.981 308.255 348.531 309.512 348.561 311.13C348.581 312.206 349.035 313.199 349.748 314.047C349.748 314.047 350.329 314.924 350.041 315.689C349.262 317.756 345.751 315.167 342.701 313.629C338.899 311.713 333.662 309.758 332.738 313.582C332.05 316.435 334.336 319.202 336.459 321.319C336.459 321.319 336.821 321.707 336.92 322.121C337.279 323.624 335.513 324.547 333.543 323.256C329.556 320.673 323.452 317.695 322.122 321.654C321.455 323.637 323.135 325.49 324.347 326.679C324.347 326.679 325.279 328.018 324.541 328.933C324.029 329.567 323.098 329.675 322.34 329.247C316.263 325.022 310.196 320.765 304.449 316.248C301.821 314.208 298.499 312.315 295.401 313.257C293.025 313.979 296.625 319.191 299.768 322.208C307.783 329.904 316.234 337.15 324.628 344.471C324.628 344.471 325.799 345.985 325.775 347.606C325.707 356.64 329.97 365.988 338.258 370.209C349.812 376.092 363.603 377.294 375.931 377.301C381.048 377.334 386.003 379.199 390.523 381.741L426.549 402.076C427.956 403.052 426.814 405.756 424.945 404.918C412.829 398.079 400.748 391.179 388.598 384.402C384.18 381.96 379.237 380.584 374.169 380.572C362.618 380.493 350.837 378.782 340.441 374.74C334.176 372.304 328.575 367.628 325.47 361.071C323.426 356.754 322.399 351.856 322.519 347.213C322.521 347.139 322.54 347.041 322.508 346.968C322.366 346.671 321.973 346.486 321.699 346.246C313.523 339.109 305.242 331.989 297.508 324.562C294.531 321.704 291.7 318.288 291.506 314.333C291.369 311.533 294.408 309.518 297.838 309.805C301.95 310.148 305.473 312.945 308.398 315.198C311.787 317.797 315.265 320.283 318.755 322.753C318.75 322.669 318.747 322.585 318.745 322.502C318.709 320.089 320.31 317.724 322.71 316.912C325.073 316.111 327.653 316.784 329.882 317.654C329.882 317.654 330.186 317.95 330.027 317.546C328.857 314.445 329.429 310.515 332.552 308.836C336.263 306.841 341.109 309.07 345.175 311.238C345.175 311.238 345.133 311.958 345.347 310.283C345.727 307.31 348.238 304.972 351.59 305Z" fill="black"/>
<path d="M323.414 326.277C323.677 326.309 323.824 326.324 324.179 326.547L340.814 337.701C342.165 338.669 340.927 341.618 338.997 340.411L322.362 329.257C321.41 328.575 321.598 328.294 321.646 327.758C321.721 326.907 322.516 326.226 323.414 326.277Z" fill="black"/>
<path d="M321.258 343.689C321.258 343.689 337.476 357.839 339.802 359.017L321.258 343.689Z" fill="white"/>
<path d="M321.328 342.056C322.445 342.148 323.336 343.339 324.33 344.199C329.508 348.676 334.418 353.404 340.122 357.299C340.994 357.895 340.723 357.666 340.825 357.749C342.177 358.852 340.925 361.887 337.957 359.767C331.793 355.365 326.161 350.119 320.36 345.075C320.36 345.075 318.532 342.014 321.328 342.056Z" fill="black"/>
<path d="M335.45 320.875C335.709 320.902 335.858 320.92 336.198 321.122L348.485 328.856C349.879 329.786 348.677 332.759 346.747 331.617L334.459 323.883C333.571 323.289 333.714 323.035 333.698 322.557C333.667 321.632 334.3 320.821 335.45 320.875Z" fill="black"/>
<path d="M348.51 315.117L355.837 320.119L348.51 315.117Z" fill="white"/>
<path d="M348.599 313.483C348.873 313.504 349.136 313.587 349.373 313.728C351.869 315.356 354.296 317.087 356.758 318.767C358.077 319.709 357.009 322.708 354.976 321.499C352.479 319.871 350.052 318.14 347.591 316.46C346.424 315.627 346.802 313.423 348.599 313.483Z" fill="black"/>
<path d="M394.565 351.361C399.806 356.84 405.986 360.418 409.42 362.541C417.415 367.484 426.397 372.873 435.386 377.214L438.545 368.585L402.951 350.611C402.673 350.5 396.509 346.613 394.62 344.058C392.732 341.503 387.455 335.393 387.455 335.393C387.455 335.393 386.567 334.394 385.539 333.172C384.512 331.95 380.18 327.59 380.18 327.59C380.18 327.59 385.4 341.78 394.565 351.361Z" fill="black" fill-opacity="0.25" style="mix-blend-mode:overlay"/>
<path d="M321.626 285.687C322.045 285.722 322.359 286.138 322.272 286.553C321.91 287.957 321.48 289.342 321.083 290.736C320.871 291.417 319.529 291.27 319.714 290.382C320.076 288.979 320.506 287.593 320.903 286.199C321.001 285.883 321.219 285.672 321.626 285.687Z" fill="black"/>
<path d="M331.06 296.218C331.71 296.278 332.013 297.411 331.16 297.615C329.828 297.87 328.484 298.063 327.147 298.286C326.441 298.387 325.998 297.109 326.881 296.897C328.282 296.629 329.723 296.157 331.06 296.218Z" fill="black"/>
<path d="M327.565 290.163C328.119 290.206 328.435 290.978 328.004 291.391C326.855 292.399 325.662 293.356 324.491 294.337C323.922 294.792 322.952 293.854 323.558 293.274C324.707 292.266 325.901 291.31 327.072 290.328C327.211 290.216 327.382 290.158 327.565 290.163Z" fill="black"/>
</svg>
