<svg width="20" height="20" viewBox="0 0 20 20" fill="none" xmlns="http://www.w3.org/2000/svg">
<path d="M14.1666 15.3568H10.8333L7.12495 17.8235C6.57495 18.1901 5.83329 17.7985 5.83329 17.1318V15.3568C3.33329 15.3568 1.66663 13.6902 1.66663 11.1902V6.1901C1.66663 3.6901 3.33329 2.02344 5.83329 2.02344H14.1666C16.6666 2.02344 18.3333 3.6901 18.3333 6.1901V11.1902C18.3333 13.6902 16.6666 15.3568 14.1666 15.3568Z" stroke="#101828" stroke-width="1.5" stroke-miterlimit="10" stroke-linecap="round" stroke-linejoin="round"/>
<path d="M10 9.46484V9.28988C10 8.72321 10.35 8.4232 10.7 8.18153C11.0417 7.9482 11.3833 7.64821 11.3833 7.09821C11.3833 6.33154 10.7667 5.71484 10 5.71484C9.23334 5.71484 8.6167 6.33154 8.6167 7.09821" stroke="#101828" stroke-width="1.5" stroke-linecap="round" stroke-linejoin="round"/>
<path d="M9.99629 11.4596H10.0038" stroke="#101828" stroke-width="1.5" stroke-linecap="round" stroke-linejoin="round"/>
</svg>
