<svg width="20" height="20" viewBox="0 0 20 20" fill="none" xmlns="http://www.w3.org/2000/svg">
<path d="M13.3333 1.66797H6.66663C3.33329 1.66797 1.66663 3.33464 1.66663 6.66797V17.5013C1.66663 17.9596 2.04163 18.3346 2.49996 18.3346H13.3333C16.6666 18.3346 18.3333 16.668 18.3333 13.3346V6.66797C18.3333 3.33464 16.6666 1.66797 13.3333 1.66797Z" stroke="#101828" stroke-width="1.5" stroke-linecap="round" stroke-linejoin="round"/>
<path d="M10.7583 6.53444L6.43332 10.8594C6.26666 11.0261 6.10833 11.3511 6.07499 11.5844L5.84166 13.2344C5.75833 13.8344 6.17499 14.2511 6.77499 14.1678L8.42498 13.9344C8.65831 13.9011 8.98333 13.7428 9.15 13.5761L13.475 9.2511C14.2167 8.50944 14.575 7.64277 13.475 6.54277C12.375 5.43444 11.5083 5.78444 10.7583 6.53444Z" stroke="#101828" stroke-width="1.5" stroke-miterlimit="10" stroke-linecap="round" stroke-linejoin="round"/>
<path d="M10.1416 7.15234C10.5083 8.46068 11.5333 9.49401 12.8499 9.86068" stroke="#292D32" stroke-width="1.5" stroke-miterlimit="10" stroke-linecap="round" stroke-linejoin="round"/>
</svg>
