<svg width="88" height="35" viewBox="0 0 88 35" fill="none" xmlns="http://www.w3.org/2000/svg">
<path d="M36.524 17.0672V26.0056H33.688V3.94123H41.2095C43.0238 3.90604 44.7677 4.59225 46.0888 5.85911C47.4099 7.03798 48.1497 8.74472 48.1145 10.5042C48.1497 12.2814 47.4099 13.9881 46.0888 15.1846C44.7677 16.4338 43.1471 17.0672 41.2271 17.0672H36.524ZM36.524 6.65089V14.3576H41.2799C42.3368 14.3928 43.3585 13.9705 44.0807 13.2139C45.5779 11.7711 45.5956 9.39574 44.1511 7.90015L44.0807 7.82977C43.3585 7.05558 42.3368 6.6333 41.2799 6.66849L36.524 6.65089ZM54.6495 10.4163C56.7457 10.4163 58.4015 10.9793 59.6169 12.0878C60.8323 13.2139 61.4312 14.7447 61.4312 16.6977V25.988H58.7185V23.8942H58.5952C57.4151 25.6185 55.865 26.4807 53.9097 26.4807C52.2539 26.4807 50.8448 25.988 49.735 25.0027C48.6429 24.0877 48.0264 22.7329 48.0616 21.3077C48.0616 19.7417 48.6605 18.51 49.8407 17.5775C51.0209 16.645 52.6062 16.1875 54.5791 16.1875C56.2701 16.1875 57.644 16.5042 58.7362 17.1024V16.4514C58.7362 15.4837 58.3134 14.5687 57.5736 13.9529C56.8162 13.2843 55.8473 12.9148 54.8433 12.9148C53.258 12.9148 52.0073 13.5834 51.0737 14.9206L48.5724 13.3547C49.9288 11.4016 51.9545 10.4163 54.6495 10.4163ZM50.9857 21.3781C50.9857 22.1171 51.338 22.8033 51.9193 23.2256C52.5534 23.7182 53.3284 23.9822 54.1211 23.9646C55.3189 23.9646 56.4639 23.4895 57.3094 22.6449C58.2429 21.7652 58.7185 20.727 58.7185 19.5306C57.8378 18.8268 56.6048 18.4749 55.0194 18.4749C53.8745 18.4749 52.9057 18.7564 52.1306 19.3018C51.3732 19.8649 50.9857 20.5511 50.9857 21.3781ZM77.0027 10.9089L67.5259 32.6566H64.6019L68.1248 25.0555L61.8892 10.9265H64.9718L69.4635 21.7652H69.534L73.9201 10.9265L77.0027 10.9089Z" fill="#5F6368"/>
<path d="M25.0507 15.1324C25.0507 14.2702 24.9802 13.408 24.8393 12.5635H12.8789V17.4373H19.731C19.4492 19.0033 18.5332 20.4109 17.1945 21.2907V24.4578H21.2811C23.6767 22.2584 25.0507 19.0033 25.0507 15.1324Z" fill="#4285F4"/>
<path d="M12.8815 27.5192C16.2987 27.5192 19.1875 26.3931 21.2837 24.4576L17.1971 21.2905C16.0521 22.0647 14.5901 22.5046 12.8815 22.5046C9.56989 22.5046 6.76914 20.27 5.7651 17.2788H1.55518V20.5515C3.70417 24.8095 8.09025 27.5192 12.8815 27.5192Z" fill="#34A853"/>
<path d="M5.76596 17.2784C5.23752 15.7124 5.23752 14.0057 5.76596 12.4221V9.16699H1.55604C0.661501 10.9282 0.195313 12.8753 0.195312 14.8502C0.195313 16.8252 0.661501 18.7723 1.55604 20.5335L5.76596 17.2784Z" fill="#FBBC04"/>
<path d="M12.8815 7.19655C14.6958 7.16136 16.4396 7.84757 17.7431 9.09683L21.3542 5.48981C19.0642 3.32561 16.0345 2.14673 12.8815 2.18192C8.09025 2.18192 3.70417 4.89158 1.55518 9.16721L5.7651 12.4399C6.76914 9.43114 9.56989 7.19655 12.8815 7.19655Z" fill="#EA4335"/>
</svg>
