<svg width="250" height="170" viewBox="0 0 250 170" fill="none" xmlns="http://www.w3.org/2000/svg">
<path fill-rule="evenodd" clip-rule="evenodd" d="M31.7891 55.5587C31.7755 55.3332 31.7123 55.199 31.4236 55.1461L31.3734 55.1431H14.9747C14.7458 55.1569 14.5727 55.3348 14.5591 55.5587V63.4301C14.5729 63.659 14.7508 63.8322 14.9747 63.8458H31.3734C31.6023 63.8319 31.7755 63.654 31.7891 63.4301V55.5587ZM15.3898 63.0163V55.9762H30.9572V63.0163H15.3898Z" fill="#DCD6E3"/>
<path d="M39.3185 55.1509C39.7255 55.2598 39.7275 55.9337 39.2464 55.9758H6.84277C6.39416 55.9365 6.35176 55.1875 6.84277 55.1445H39.2464C39.2705 55.1467 39.2946 55.1487 39.3185 55.1509Z" fill="#DCD6E3"/>
<path d="M38.6658 63.0223C39.0559 63.1332 39.1088 63.7982 38.5893 63.8464H2.7746C2.33873 63.806 2.22125 63.0664 2.7746 63.0151H38.5893C38.6148 63.0176 38.6403 63.0198 38.6658 63.0223Z" fill="#DCD6E3"/>
<path d="M23.0828 46.2227C23.2923 46.252 23.4502 46.4236 23.4602 46.6366V55.5574C23.4225 56.3715 22.6486 55.9836 22.6289 55.5574V46.6366C22.64 46.3989 22.8323 46.2113 23.0828 46.2227Z" fill="#DCD6E3"/>
<path d="M23.0985 63.0167C23.3007 63.0514 23.452 63.2138 23.4612 63.4291V69.9277C23.4501 70.7992 22.7022 71.5734 21.8039 71.5848H15.6333C15.2891 71.5701 15.2584 71.4022 15.2271 71.2567C15.1744 71.0126 15.3265 70.7665 15.6333 70.7535C17.6965 70.7535 19.76 70.7792 21.823 70.7532C22.2553 70.7366 22.6244 70.3597 22.6299 69.9222V63.4291C22.6402 63.1852 22.8491 62.9957 23.0985 63.0167Z" fill="#DCD6E3"/>
<path fill-rule="evenodd" clip-rule="evenodd" d="M129.9 9.33263C129.887 9.10708 129.824 8.97297 129.535 8.92004L129.485 8.91699H113.086C112.857 8.93085 112.684 9.10874 112.67 9.33263V17.204C112.684 17.4329 112.862 17.6061 113.086 17.6197H129.485C129.714 17.6058 129.887 17.4279 129.9 17.204V9.33263ZM113.501 16.7902V9.75009H129.069V16.7902H113.501Z" fill="#DCD6E3"/>
<path d="M137.429 8.92874C137.831 9.03625 137.858 9.70986 137.357 9.75365H104.953C104.498 9.71374 104.43 8.96808 104.953 8.92236H137.357C137.381 8.92458 137.405 8.92652 137.429 8.92874Z" fill="#DCD6E3"/>
<path d="M136.777 16.8002C137.187 16.9168 137.209 17.5771 136.7 17.6243H100.886C100.43 17.5821 100.356 16.842 100.886 16.793H136.7C136.726 16.7955 136.751 16.7977 136.777 16.8002Z" fill="#DCD6E3"/>
<path d="M121.192 0.000490748C121.402 0.0298627 121.56 0.201384 121.57 0.414469V9.33523C121.55 9.76695 120.766 9.93237 120.738 9.33523V0.414469C120.749 0.176445 120.946 -0.0108701 121.192 0.000490748Z" fill="#DCD6E3"/>
<path d="M121.207 16.7946C121.416 16.8306 121.56 17.0007 121.569 17.2069V23.7056C121.558 24.5779 120.81 25.3512 119.912 25.3626H113.741C113.511 25.3529 113.492 25.2922 113.429 25.2216C113.218 24.981 113.364 24.5474 113.741 24.5313C115.805 24.5313 117.868 24.5571 119.931 24.531C120.363 24.5147 120.733 24.1376 120.738 23.7V17.2069C120.748 16.963 120.957 16.7735 121.207 16.7946Z" fill="#DCD6E3"/>
<path d="M217.693 117.185L230.633 130.785C230.931 131.1 230.919 131.597 230.605 131.895L219.386 142.569C219.072 142.868 218.575 142.856 218.276 142.542L205.379 128.987C205.05 128.641 204.858 128.188 204.839 127.712L204.793 126.595L206.641 126.765L206.565 124.91L208.413 125.079L208.336 123.225L210.185 123.393L210.108 121.539L211.956 121.708L211.879 119.854L213.68 120.017L213.606 118.211L215.454 118.38L215.377 116.526L216.552 116.633C216.986 116.672 217.392 116.868 217.693 117.185Z" fill="white"/>
<path fill-rule="evenodd" clip-rule="evenodd" d="M215.682 116.142C215.592 116.135 215.502 116.127 215.412 116.119C215.082 116.114 215.022 116.172 214.962 116.486L215.017 117.93L213.641 117.804C213.337 117.799 213.252 117.851 213.19 118.17L213.243 119.567L211.914 119.447C211.609 119.443 211.525 119.494 211.463 119.814L211.518 121.258L210.143 121.132C209.839 121.128 209.754 121.179 209.692 121.499L209.747 122.943L208.371 122.818C208.067 122.814 207.982 122.865 207.92 123.185L207.976 124.629L206.6 124.503C206.296 124.498 206.211 124.55 206.15 124.869L206.204 126.315L204.828 126.188C204.497 126.184 204.388 126.267 204.375 126.619L204.421 127.737C204.447 128.292 204.668 128.829 205.038 129.241C209.282 133.85 213.617 138.374 217.993 142.858C218.449 143.302 219.213 143.302 219.668 142.879C220.916 141.692 222.169 140.51 223.421 139.328C225.931 136.959 228.441 134.591 230.911 132.182C231.355 131.726 231.356 130.964 230.933 130.508C229.496 128.998 228.068 127.48 226.64 125.962C223.769 122.909 220.897 119.856 217.956 116.869C217.367 116.284 216.525 116.213 215.682 116.142ZM215.414 118.803C215.745 118.808 215.855 118.724 215.868 118.372L215.81 116.992L216.511 117.056C216.832 117.087 217.139 117.23 217.368 117.458C221.767 121.927 226.073 126.489 230.336 131.088C230.46 131.229 230.457 131.453 230.33 131.59C227.398 134.601 224.311 137.455 221.224 140.308C220.512 140.966 219.8 141.624 219.09 142.284C218.949 142.408 218.725 142.405 218.588 142.278C214.474 138.272 210.583 134.042 206.695 129.815C206.348 129.437 206.001 129.06 205.654 128.683C205.276 128.263 205.25 127.649 205.226 127.062L206.601 127.188C206.905 127.192 206.99 127.141 207.052 126.821L206.998 125.376L208.373 125.502C208.678 125.506 208.763 125.455 208.824 125.135L208.769 123.691L210.145 123.816C210.449 123.82 210.534 123.769 210.596 123.449L210.541 122.005L211.916 122.131C212.22 122.135 212.305 122.084 212.367 121.764L212.312 120.32L213.641 120.44C213.945 120.444 214.029 120.393 214.091 120.073L214.039 118.677L215.414 118.803Z" fill="#DCD6E3"/>
<path d="M213.034 126.038C213.355 126.066 213.531 126.492 213.309 126.738C212.405 127.644 211.455 128.504 210.527 129.386C210.215 129.669 209.57 129.209 209.939 128.799C210.844 127.893 211.794 127.034 212.721 126.151C212.808 126.073 212.868 126.031 213.034 126.038Z" fill="#DCD6E3"/>
<path d="M217.125 126.085C217.325 126.104 217.347 126.156 217.401 126.214C217.554 126.374 217.572 126.612 217.387 126.801L212.495 131.455C212.33 131.602 212.244 131.578 212.156 131.566C211.846 131.527 211.658 131.121 211.922 130.853L216.814 126.199C216.951 126.077 216.951 126.081 217.125 126.085Z" fill="#DCD6E3"/>
<path d="M215.536 131.814C215.857 131.835 216.044 132.276 215.812 132.52C215.182 133.141 214.584 133.962 214.135 133.742C213.899 133.626 213.835 133.274 214.021 133.077C214.584 132.523 215.185 131.802 215.536 131.814Z" fill="#DCD6E3"/>
<path d="M220.129 131.678C220.326 131.698 220.354 131.753 220.41 131.815C220.556 131.978 220.564 132.215 220.387 132.394L216.713 135.889C216.541 136.044 216.474 136.013 216.374 136C216.07 135.961 215.891 135.538 216.14 135.287L219.814 131.792C219.901 131.714 219.955 131.671 220.129 131.678Z" fill="#DCD6E3"/>
<path d="M218.091 121.215C218.41 121.232 218.614 121.667 218.374 121.921C217.914 122.375 217.445 122.821 216.969 123.258C216.652 123.528 216.036 123.038 216.396 122.656C216.857 122.202 217.325 121.756 217.801 121.319C217.881 121.251 217.983 121.213 218.091 121.215Z" fill="#DCD6E3"/>
<path d="M220.06 123.284C220.384 123.301 220.576 123.743 220.343 123.99C219.883 124.444 219.414 124.89 218.938 125.327C218.627 125.592 217.981 125.132 218.365 124.725C218.971 124.128 219.692 123.278 220.06 123.284Z" fill="#DCD6E3"/>
<path d="M222.175 125.498C222.499 125.522 222.682 125.952 222.456 126.201C221.673 126.982 220.854 127.726 220.052 128.488C219.742 128.77 219.106 128.294 219.465 127.9C220.248 127.119 221.067 126.375 221.869 125.612C221.953 125.536 222.013 125.494 222.175 125.498Z" fill="#DCD6E3"/>
<path d="M224.277 127.715C224.601 127.732 224.793 128.174 224.56 128.421C224.099 128.875 223.631 129.321 223.155 129.758C222.834 130.032 222.249 129.51 222.582 129.156C223.187 128.559 223.909 127.709 224.277 127.715Z" fill="#DCD6E3"/>
<path d="M239.89 110.873L237.062 129.432C236.997 129.86 236.596 130.155 236.167 130.09L220.859 127.757C220.43 127.691 220.135 127.291 220.2 126.862L223.019 108.365C223.091 107.894 223.332 107.465 223.696 107.158L224.551 106.438L225.549 108.003L226.969 106.807L227.967 108.371L229.385 107.175L230.384 108.74L231.803 107.543L232.801 109.108L234.219 107.912L235.194 109.435L236.576 108.27L237.574 109.835L238.993 108.639L239.628 109.633C239.862 110.001 239.956 110.441 239.89 110.873Z" fill="white"/>
<path fill-rule="evenodd" clip-rule="evenodd" d="M224.877 106.178C224.828 106.108 224.799 106.066 224.613 106.024C224.413 106.008 224.368 106.047 224.315 106.091C224.305 106.1 224.295 106.109 224.283 106.117L223.427 106.838C223.005 107.197 222.716 107.7 222.617 108.246C221.568 114.423 220.647 120.622 219.785 126.827C219.712 127.47 220.181 128.063 220.793 128.164C222.49 128.423 224.186 128.689 225.883 128.955C229.297 129.49 232.712 130.026 236.135 130.502C236.767 130.573 237.371 130.108 237.472 129.494C237.786 127.431 238.112 125.37 238.438 123.31C239.092 119.172 239.747 115.034 240.308 110.883C240.369 110.388 240.261 109.878 240.004 109.449C239.953 109.367 239.902 109.279 239.85 109.19C239.533 108.648 239.19 108.062 238.772 108.284L237.669 109.209L236.926 108.044C236.743 107.797 236.553 107.811 236.356 107.915L235.288 108.809L234.569 107.685C234.386 107.438 234.195 107.452 233.999 107.556L232.896 108.481L232.153 107.317C231.97 107.07 231.779 107.083 231.582 107.188L230.479 108.113L229.735 106.948C229.644 106.826 229.504 106.639 229.165 106.819L228.061 107.744L227.319 106.58C227.136 106.333 226.945 106.347 226.748 106.451L225.643 107.376L224.901 106.212C224.892 106.2 224.884 106.189 224.877 106.178ZM223.431 108.409C223.492 108.046 223.683 107.711 223.963 107.473C224.126 107.335 224.29 107.198 224.453 107.06L225.196 108.224C225.379 108.471 225.57 108.458 225.766 108.353L226.871 107.429L227.614 108.593C227.797 108.84 227.988 108.826 228.185 108.722L229.288 107.797L230.032 108.962C230.123 109.084 230.263 109.271 230.603 109.091L231.706 108.165L232.448 109.33C232.631 109.576 232.822 109.563 233.019 109.459L234.123 108.533L234.842 109.657C235.025 109.904 235.215 109.891 235.412 109.786L236.479 108.892L237.222 110.057C237.405 110.304 237.595 110.29 237.792 110.186L238.896 109.261L239.275 109.854C239.447 110.127 239.521 110.457 239.482 110.778C238.642 116.992 237.671 123.189 236.647 129.377C236.612 129.561 236.432 129.696 236.247 129.679C231.881 129.186 227.546 128.457 223.212 127.728C222.445 127.599 221.677 127.47 220.91 127.342C220.726 127.307 220.591 127.128 220.607 126.942C221.12 122.423 221.864 117.935 222.608 113.447C222.886 111.768 223.165 110.089 223.431 108.409Z" fill="#DCD6E3"/>
<path d="M225.935 111.856C225.96 111.858 225.96 111.858 225.984 111.861L229.76 112.436C229.988 112.478 230.004 112.549 230.056 112.636C230.211 112.9 229.986 113.301 229.635 113.258L225.859 112.682C225.486 112.614 225.506 112.482 225.506 112.27C225.507 112.045 225.648 111.855 225.935 111.856Z" fill="#DCD6E3"/>
<path d="M225.521 114.674L232.228 115.695C232.44 115.736 232.45 115.791 232.501 115.86C232.691 116.119 232.468 116.558 232.103 116.517L225.428 115.5C224.537 115.328 225.21 114.664 225.521 114.674Z" fill="#DCD6E3"/>
<path d="M225.043 117.702C226.058 117.756 227.384 117.922 227.027 118.568C226.791 118.997 225.777 118.668 224.951 118.526C224.559 118.443 224.495 117.695 225.043 117.702Z" fill="#DCD6E3"/>
<path d="M224.602 120.725L229.643 121.492C229.959 121.551 229.945 121.655 229.982 121.797C230.054 122.067 229.835 122.351 229.518 122.314L224.505 121.55C224.207 121.494 224.218 121.402 224.174 121.273C224.085 121.01 224.243 120.707 224.602 120.725Z" fill="#DCD6E3"/>
<path d="M234.736 113.193C235.37 113.222 236.022 113.386 236.676 113.486C237.089 113.558 237.098 114.356 236.568 114.31C235.931 114.227 235.298 114.117 234.663 114.02C234.262 113.95 234.213 113.192 234.736 113.193Z" fill="#DCD6E3"/>
<path d="M234.304 116.015C234.939 116.043 235.591 116.207 236.245 116.307C236.643 116.376 236.728 117.183 236.137 117.131C235.5 117.048 234.867 116.938 234.232 116.841C233.829 116.771 233.782 116.013 234.304 116.015Z" fill="#DCD6E3"/>
<mask id="mask0_2357_41739" style="mask-type:luminance" maskUnits="userSpaceOnUse" x="232" y="118" width="5" height="3">
<path fill-rule="evenodd" clip-rule="evenodd" d="M232.047 120.156L236.139 120.156L236.139 118.828L232.047 118.828L232.047 120.156Z" fill="white"/>
</mask>
<g mask="url(#mask0_2357_41739)">
<path d="M232.464 119.244L235.725 119.741L232.464 119.244Z" fill="#5D536F"/>
</g>
<path d="M232.479 118.836L232.502 118.837C233.6 118.974 234.691 119.17 235.785 119.337C236.194 119.411 236.263 120.201 235.683 120.161C234.584 120.025 233.494 119.828 232.399 119.662C231.981 119.586 231.906 118.828 232.479 118.836Z" fill="#DCD6E3"/>
<path d="M233.384 122.064C234.013 122.092 234.67 122.257 235.324 122.356C235.737 122.428 235.746 123.227 235.216 123.18C234.579 123.097 233.946 122.987 233.311 122.89C232.913 122.821 232.845 122.063 233.384 122.064Z" fill="#DCD6E3"/>
<path d="M246.294 102.433C246.644 102.464 246.836 103.004 246.462 103.214C245.725 103.585 244.971 103.922 244.225 104.276C243.858 104.44 243.335 103.825 243.852 103.534C244.637 103.139 245.41 102.513 246.236 102.433C246.255 102.432 246.274 102.432 246.294 102.433Z" fill="#DCD6E3"/>
<path d="M239.497 98.1302C239.703 98.1492 239.869 98.3179 239.884 98.5251C239.902 99.2974 239.885 100.07 239.885 100.843C239.876 101.245 239.097 101.458 239.055 100.863C239.036 100.09 239.053 99.3174 239.053 98.5449C239.058 98.3135 239.252 98.1186 239.497 98.1302Z" fill="#DCD6E3"/>
<path d="M243.208 99.5196C243.498 99.5363 243.698 99.8824 243.552 100.145C243.11 100.863 242.636 101.562 242.177 102.27C241.951 102.603 241.18 102.357 241.47 101.834C241.912 101.116 242.386 100.417 242.844 99.7092C242.926 99.5898 243.057 99.5174 243.208 99.5196Z" fill="#DCD6E3"/>
<path d="M204.556 159.249C205.548 159.249 206.279 160.132 206.07 161.064C205.655 162.925 204.686 164.588 203.337 165.885C201.51 167.644 198.984 168.731 196.195 168.731H55.5366C50.6914 168.731 46.6427 165.449 45.6629 161.068C45.4537 160.134 46.1825 159.249 47.1764 159.249H204.556Z" fill="#D5D4EA"/>
<path fill-rule="evenodd" clip-rule="evenodd" d="M206.701 161.403C207.056 159.941 205.955 158.586 204.586 158.557C152.106 158.212 99.6217 158.213 47.1412 158.557C45.6593 158.588 44.7017 160.054 45.0231 161.385C46.1542 166.07 50.7227 169.387 55.474 169.424C102.403 169.55 149.333 169.558 196.262 169.424C200.294 169.386 204.146 167.076 205.919 163.533C206.18 163.012 206.396 162.468 206.563 161.91C206.613 161.742 206.659 161.573 206.701 161.403ZM46.404 161.203C46.2139 160.47 46.6037 159.948 47.1751 159.944C64.663 159.944 82.1522 159.82 99.6414 159.696C134.624 159.449 169.607 159.202 204.579 159.944C205.074 159.961 205.487 160.433 205.393 160.904C204.489 165.093 200.419 168.001 196.253 168.04C149.329 168.174 102.404 168.166 55.4799 168.04C51.9439 168.013 48.5254 165.959 47.0025 162.826C46.9188 162.653 46.8404 162.478 46.7681 162.301C46.7076 162.152 46.6514 162.002 46.599 161.851C46.5256 161.637 46.4605 161.421 46.404 161.203Z" fill="black"/>
<path d="M190.811 106.956V159.247H60.918V79.4318C60.918 73.448 65.7691 68.5972 71.7529 68.5972H179.976C185.959 68.5972 190.811 73.448 190.811 79.4318V100.478" fill="#D5D4EA"/>
<path d="M190.754 107.044V159.334H60.8613V79.5197C60.8613 73.5359 65.7124 68.6851 71.6963 68.6851H179.919C185.903 68.6851 190.754 73.5359 190.754 79.5197V100.566" fill="white" fill-opacity="0.3"/>
<path d="M180.049 67.9043C185.998 67.9611 191.483 73.1062 191.502 79.4303V100.478C191.413 100.928 191.227 101.016 191.075 101.118L190.81 101.171L190.545 101.118L190.32 100.968C190.171 100.744 190.169 100.741 190.117 100.478C190.117 93.4405 190.139 86.4031 190.117 79.3658C190.067 74.1279 185.597 69.3427 180.04 69.2898C143.923 69.1765 107.804 69.1765 71.6865 69.2898C66.4602 69.3397 61.6274 73.8632 61.61 79.4326V158.553H190.117V106.955C190.153 106.776 190.163 106.571 190.545 106.315L190.81 106.263L191.075 106.315L191.3 106.466C191.449 106.689 191.45 106.692 191.502 106.955V159.246L191.45 159.511L191.3 159.736L191.075 159.886L190.81 159.939H60.9172L60.652 159.886C60.429 159.737 60.4265 159.734 60.2771 159.511L60.2245 159.246C60.2245 132.616 60.1411 105.986 60.2248 79.3569C60.2816 73.395 65.3563 67.9647 71.6776 67.9043C107.801 67.791 143.926 67.791 180.049 67.9043Z" fill="black"/>
<path fill-rule="evenodd" clip-rule="evenodd" d="M184.301 159.245H67.709V83.2286C67.709 78.5493 71.5024 74.7559 76.1817 74.7559H175.828C180.508 74.7559 184.301 78.5493 184.301 83.2286V159.245Z" fill="#D6F318"/>
<path fill-rule="evenodd" clip-rule="evenodd" d="M184.994 83.2246C184.978 78.2737 180.664 74.1062 175.889 74.0605C142.634 73.9577 109.378 73.9577 76.1234 74.0605C71.1093 74.1084 67.0618 78.4499 67.0175 83.1664C66.962 100.235 66.9804 117.305 66.9988 134.374C67.008 142.894 67.0172 151.414 67.0172 159.934H184.994V83.2246ZM68.4025 83.2245C68.4164 78.95 72.1269 75.4559 76.1836 75.4434C87.2509 75.4434 98.3183 75.432 109.386 75.4206C131.55 75.3979 153.715 75.3751 175.88 75.4437C180.143 75.4844 183.571 79.1592 183.609 83.1729C183.665 99.9318 183.647 116.691 183.628 133.45C183.618 141.815 183.609 150.181 183.609 158.547H68.4025V83.2245Z" fill="black"/>
<path d="M141.807 162.495H109.641C108.234 162.495 107.094 161.354 107.094 159.948V159.249H144.354V159.948C144.354 161.354 143.214 162.495 141.807 162.495Z" fill="white"/>
<path fill-rule="evenodd" clip-rule="evenodd" d="M145.046 159.243C145.012 158.776 144.941 158.663 144.451 158.557L144.353 158.55H107.093C106.626 158.583 106.514 158.655 106.407 159.144L106.4 159.983C106.434 161.732 107.929 163.149 109.598 163.181C120.348 163.248 131.098 163.248 141.848 163.181C143.179 163.156 144.402 162.277 144.849 161.056C145.047 160.515 145.046 159.927 145.046 159.338C145.046 159.306 145.046 159.274 145.046 159.243ZM109.615 161.797C108.637 161.778 107.785 160.905 107.785 159.937H143.659V159.941C143.653 160.931 142.811 161.767 141.853 161.797C132.963 161.966 124.07 161.901 115.178 161.836C113.323 161.822 111.469 161.809 109.615 161.797Z" fill="black"/>
<path d="M129.331 71.1958C130.197 71.3011 129.647 72.0116 129.297 72.0257H122.435C122.046 72.0099 122.051 71.8971 122.022 71.6602C121.994 71.4277 122.182 71.2047 122.435 71.1944C124.733 71.1944 127.034 71.1032 129.331 71.1958Z" fill="black"/>
<path fill-rule="evenodd" clip-rule="evenodd" d="M88.0587 81.8286C88.0587 87.4625 83.4913 92.0298 77.8575 92.0298C72.2236 92.0298 67.6562 87.4625 67.6562 81.8286H88.0587Z" fill="#0053F5"/>
<path fill-rule="evenodd" clip-rule="evenodd" d="M85.4642 85.4789C85.9253 83.8933 86.3043 81.9068 85.276 81.7436L85.2034 81.7397H64.801C64.2972 81.7661 64.0997 82.2371 64.1119 82.7135C64.259 88.5172 69.3351 93.2555 74.8617 93.3256C79.6114 93.3857 84.1463 90.0118 85.4642 85.4789ZM71.8434 91.4047C68.3747 90.1833 65.7867 86.7917 65.5195 83.1266H84.4866L84.4839 83.1662C83.9776 89.5579 77.201 93.2918 71.8434 91.4047Z" fill="black"/>
<path d="M105.603 82.4302C105.603 88.0641 101.038 92.6314 95.4043 92.6314C89.7705 92.6314 85.2031 88.0641 85.2031 82.4302H105.603Z" fill="#ACC5F5"/>
<path fill-rule="evenodd" clip-rule="evenodd" d="M105.864 85.4789C106.325 83.893 106.704 81.9068 105.676 81.7436L105.603 81.7397H85.2033C84.6996 81.7661 84.502 82.2371 84.5142 82.7132C84.6611 88.5177 89.7446 93.2558 95.2641 93.3256C100.013 93.3857 104.547 90.0116 105.864 85.4789ZM92.2457 91.4047C88.7771 90.183 86.1893 86.7942 85.9219 83.1266H104.886L104.884 83.1662C104.377 89.5684 97.5983 93.2901 92.2457 91.4047Z" fill="black"/>
<path fill-rule="evenodd" clip-rule="evenodd" d="M126.717 83.1172C126.717 88.7511 122.15 93.3184 116.516 93.3184C110.882 93.3184 106.314 88.7511 106.314 83.1172H126.717Z" fill="#0053F5"/>
<path fill-rule="evenodd" clip-rule="evenodd" d="M126.285 85.4143C126.729 83.8526 127.1 81.9054 126.079 81.7436L126.006 81.7397H105.604C105.1 81.7661 104.902 82.2371 104.915 82.7132C105.061 88.5175 110.161 93.2561 115.664 93.3256C120.434 93.386 124.993 89.9686 126.285 85.4143ZM112.646 91.4047C109.177 90.1833 106.589 86.7917 106.322 83.1266H125.289L125.287 83.1662C124.78 89.5574 118.003 93.2915 112.646 91.4047Z" fill="black"/>
<path d="M146.409 82.4302C146.409 88.0641 141.841 92.6314 136.207 92.6314C130.573 92.6314 126.006 88.0641 126.006 82.4302H146.409Z" fill="#ACC5F5"/>
<path fill-rule="evenodd" clip-rule="evenodd" d="M146.704 85.3497C147.132 83.8094 147.487 81.9035 146.479 81.7436L146.407 81.7397H126.004C125.5 81.7661 125.303 82.2369 125.315 82.7135C125.462 88.5177 130.553 93.2558 136.065 93.3256C140.849 93.386 145.433 89.9354 146.704 85.3497ZM133.047 91.4047C129.578 90.1833 126.99 86.7942 126.723 83.1266H145.69L145.687 83.1662C145.182 89.5574 138.404 93.2915 133.047 91.4047Z" fill="black"/>
<path fill-rule="evenodd" clip-rule="evenodd" d="M166.811 82.4302C166.811 88.0641 162.244 92.6314 156.61 92.6314C150.976 92.6314 146.408 88.0641 146.408 82.4302H166.811Z" fill="#0053F5"/>
<path fill-rule="evenodd" clip-rule="evenodd" d="M167.07 85.4789C167.531 83.8933 167.91 81.9068 166.881 81.7436L166.809 81.7397H146.406C145.903 81.7661 145.705 82.2371 145.717 82.7132C145.864 88.5175 150.959 93.2558 156.467 93.3256C161.217 93.3857 165.753 90.0096 167.07 85.4789ZM153.449 91.4047C149.98 90.183 147.392 86.7906 147.125 83.1266H166.092L166.089 83.1662C165.582 89.5582 158.799 93.2893 153.449 91.4047Z" fill="black"/>
<path d="M187.213 82.4302C187.213 88.0641 182.646 92.6314 177.012 92.6314C171.378 92.6314 166.811 88.0641 166.811 82.4302H187.213Z" fill="#ACC5F5"/>
<path fill-rule="evenodd" clip-rule="evenodd" d="M187.511 85.3497C187.938 83.8094 188.294 81.9035 187.286 81.7436L187.213 81.7397H166.811C166.307 81.7661 166.109 82.2371 166.122 82.7132C166.268 88.5177 171.36 93.2558 176.872 93.3256C181.662 93.3863 186.238 89.9381 187.511 85.3497ZM173.853 91.4047C170.385 90.183 167.796 86.7911 167.529 83.1266H186.497L186.494 83.1662C185.987 89.5576 179.201 93.2882 173.853 91.4047Z" fill="black"/>
<path fill-rule="evenodd" clip-rule="evenodd" d="M90.5539 74.0967L85.2642 81.7694H65.2391C65.0973 81.7694 65.0252 81.5996 65.1233 81.4973L70.7694 75.6235C71.706 74.6481 73.0028 74.0967 74.355 74.0967H90.5539Z" fill="#0053F5"/>
<path fill-rule="evenodd" clip-rule="evenodd" d="M91.0625 75.1533C91.3293 74.7113 91.0483 74.1591 90.5756 74.0724L90.4922 74.0674H74.2911C72.7415 74.0771 71.268 74.7172 70.2097 75.8053C69.5819 76.4585 68.9497 77.1074 68.3175 77.7564C67.0462 79.0614 65.775 80.3664 64.5396 81.7049C64.0558 82.2691 64.5343 83.1139 65.1711 83.1256H85.2025L85.2063 83.1254C85.5277 83.1059 85.555 83.1043 85.7727 82.826L91.0625 75.1533ZM71.2058 76.7698C72.0127 75.9402 73.1372 75.4614 74.2957 75.4542H89.1734L84.8389 81.7415H66.4271L71.2058 76.7698Z" fill="black"/>
<path d="M109.451 74.7567L105.602 82.4295L85.2023 82.4295L90.4921 74.7568L109.451 74.7567Z" fill="#ACC5F5"/>
<path fill-rule="evenodd" clip-rule="evenodd" d="M110.069 75.0668C110.258 74.6314 109.976 74.1445 109.529 74.0679L109.45 74.0635L90.4917 74.0635C90.1667 74.081 90.1321 74.09 89.9214 74.3631L84.6317 82.0358C84.3455 82.506 84.6839 83.0921 85.2019 83.1219L105.601 83.1217C105.968 83.1016 106.029 83.0744 106.221 82.7397L110.069 75.0668ZM86.5206 81.7341L90.8552 75.447C94.3515 75.447 97.8477 75.447 101.344 75.4469C103.672 75.4469 106 75.4469 108.328 75.4469L105.174 81.7342L86.5206 81.7341Z" fill="black"/>
<path fill-rule="evenodd" clip-rule="evenodd" d="M126.006 74.7583L126.003 82.4311L105.601 82.4309L109.45 74.7582L126.006 74.7583Z" fill="#0053F5"/>
<path fill-rule="evenodd" clip-rule="evenodd" d="M128.088 74.7558C128.07 74.4005 127.812 74.1211 127.468 74.0664L127.396 74.0628L110.839 74.0626C110.479 74.0808 110.347 74.2204 110.22 74.4448L106.371 82.1175C106.169 82.5802 106.504 83.0949 106.991 83.1208L127.393 83.121C127.776 83.1009 128.066 82.8042 128.086 82.4285L128.088 74.7558ZM108.113 81.7359L111.267 75.4487C116.412 75.4486 121.557 75.4485 126.703 75.4487L126.701 81.736L108.113 81.7359Z" fill="black"/>
<path d="M146.408 82.4286H126.003L126.006 74.7559H142.559L146.408 82.4286Z" fill="#ACC5F5"/>
<path fill-rule="evenodd" clip-rule="evenodd" d="M143.182 74.4495C143.018 74.1588 142.979 74.1236 142.632 74.071C142.609 74.0696 142.586 74.0685 142.563 74.0674H126.009C125.626 74.0873 125.336 74.3841 125.317 74.7598L125.314 82.4326C125.334 82.8158 125.63 83.1059 126.007 83.1256H146.412C146.916 83.0984 147.226 82.5689 147.031 82.1222L143.182 74.4495ZM126.699 81.7415L126.702 75.4542H142.135L145.289 81.7415H126.699Z" fill="black"/>
<path fill-rule="evenodd" clip-rule="evenodd" d="M166.809 81.7694H146.409L142.56 74.0967H161.522L166.809 81.7694Z" fill="#0053F5"/>
<path fill-rule="evenodd" clip-rule="evenodd" d="M162.086 74.3572C161.917 74.1392 161.903 74.1212 161.597 74.0713C161.572 74.0702 161.547 74.0688 161.523 74.0674H142.561C142.06 74.0956 141.749 74.6246 141.942 75.0707L145.791 82.7435C145.973 83.0621 146.025 83.1043 146.41 83.1256H166.81C167.348 83.0948 167.65 82.4841 167.38 82.0399L162.093 74.3669L162.086 74.3572ZM146.839 81.7415L143.685 75.4542H161.16L165.492 81.7415H146.839Z" fill="black"/>
<path d="M186.616 82.4286H166.809L161.521 74.7559H177.72C179.073 74.7559 180.367 75.3073 181.306 76.2826L186.799 81.9994C186.953 82.1604 186.839 82.4286 186.616 82.4286Z" fill="#ACC5F5"/>
<path fill-rule="evenodd" clip-rule="evenodd" d="M181.754 75.7498C180.706 74.7027 179.268 74.0911 177.791 74.0631C174.166 74.0404 170.54 74.0478 166.914 74.0552C165.116 74.0589 163.318 74.0626 161.52 74.0626C160.964 74.0961 160.687 74.7132 160.95 75.1485L166.237 82.8213C166.436 83.0787 166.463 83.1022 166.807 83.1208H186.621C187.456 83.1056 187.798 82.0592 187.301 81.5233C186.691 80.8882 186.082 80.2516 185.474 79.615C184.238 78.3225 183.002 77.0301 181.754 75.7498ZM162.838 75.4447H177.716C178.979 75.4528 179.992 75.9255 180.806 76.7607L185.582 81.732H167.17L162.838 75.4447Z" fill="black"/>
<path d="M161.552 87.4731C161.89 87.4943 162.055 87.9073 161.799 88.2247C161.15 89.0183 160.338 89.688 159.442 90.1626C159.007 90.393 158.437 89.7688 159.172 89.3635C159.98 88.9106 160.616 88.2149 161.25 87.5865C161.333 87.5122 161.437 87.4713 161.552 87.4731Z" fill="black"/>
<path d="M183.194 72.1356C183.496 72.1634 183.761 72.427 184.044 72.6254C184.975 73.2787 185.805 74.0757 186.504 74.9772C186.504 74.9772 186.66 75.2677 186.514 75.4727C186.331 75.7304 186.036 75.7181 185.695 75.2943C184.924 74.3459 183.992 73.5359 182.952 72.9057C182.952 72.9057 182.743 72.7461 182.752 72.5343C182.76 72.3087 182.914 72.1248 183.194 72.1356Z" fill="black"/>
<path d="M174.108 99.2779V105.315C174.108 107.038 172.711 108.436 170.987 108.436H132.38C130.657 108.436 129.26 107.038 129.26 105.315V99.2806C129.26 97.5557 130.658 96.1572 132.383 96.1572H170.987C172.711 96.1572 174.108 97.5543 174.108 99.2779Z" fill="white" fill-opacity="0.3"/>
<path d="M117.083 134.953H83.4649C80.3637 134.953 77.8496 132.439 77.8496 129.338V101.773C77.8496 98.6716 80.3637 96.1572 83.4649 96.1572H117.083C120.184 96.1572 122.698 98.6716 122.698 101.773V129.338C122.698 132.439 120.184 134.953 117.083 134.953Z" fill="white" fill-opacity="0.3"/>
<path d="M168.536 152.245H134.918C131.817 152.245 129.303 149.731 129.303 146.629V119.064C129.303 115.963 131.817 113.448 134.918 113.448H168.536C171.637 113.448 174.152 115.963 174.152 119.064V146.629C174.152 149.731 171.637 152.245 168.536 152.245Z" fill="white" fill-opacity="0.3"/>
<path d="M111.705 130.629H88.5492C85.4479 130.629 82.9336 128.115 82.9336 125.013V106.091C82.9336 102.99 85.4479 100.476 88.5492 100.476H111.705C114.806 100.476 117.32 102.99 117.32 106.091V125.013C117.32 128.115 114.806 130.629 111.705 130.629Z" fill="white"/>
<path fill-rule="evenodd" clip-rule="evenodd" d="M118.014 106.05C117.983 102.64 115.003 99.8132 111.747 99.783C104.001 99.7572 96.255 99.7572 88.5094 99.783C85.13 99.8143 82.2942 102.763 82.2424 106.01C82.1822 112.371 82.1822 118.733 82.2424 125.094C82.2967 128.5 85.248 131.269 88.4687 131.321C94.7866 131.382 101.105 131.359 107.423 131.336C108.864 131.331 110.305 131.326 111.747 131.321C115.133 131.289 117.962 128.341 118.014 125.094C118.064 119.658 118.044 114.221 118.024 108.784C118.02 107.873 118.017 106.961 118.014 106.05ZM83.6268 106.058C83.6521 103.397 85.9857 101.175 88.5508 101.167C91.1271 101.167 93.7035 101.164 96.2798 101.161C101.432 101.156 106.585 101.15 111.737 101.167C114.377 101.192 116.587 103.489 116.628 106.026C116.678 111.452 116.658 116.879 116.638 122.306C116.635 123.218 116.631 124.131 116.628 125.043C116.604 127.683 114.306 129.893 111.769 129.934C105.461 129.995 99.1521 129.972 92.8435 129.949C91.4016 129.944 89.9597 129.938 88.5178 129.934C85.8247 129.908 83.6676 127.597 83.6271 125.075C83.5771 119.783 83.5965 114.49 83.6159 109.198C83.6197 108.151 83.6235 107.104 83.6268 106.058Z" fill="black"/>
<path fill-rule="evenodd" clip-rule="evenodd" d="M106.32 114.702L106.3 117.288L106.236 125.319C106.234 125.687 105.934 125.983 105.567 125.979L100.569 125.939L94.4544 125.891C94.0867 125.889 93.7899 125.589 93.7941 125.222L93.8547 117.692L93.8786 114.604C93.8825 114.047 93.7625 113.726 93.1132 113.94C92.8999 114.01 92.3986 114.245 92.1936 114.178C92.1304 114.158 92.0703 114.128 92.0154 114.088L88.8003 111.813C88.5174 111.612 88.4334 111.228 88.6096 110.931C91.073 106.827 95.0482 105.796 96.575 105.546C96.905 105.493 97.2214 105.689 97.3162 106.009C97.5382 106.752 98.1552 108 99.7981 108.018C100.034 108.021 100.271 108.022 100.507 108.023C102.15 108.033 102.787 106.793 103.022 106.055C103.121 105.737 103.442 105.544 103.77 105.603C105.086 105.841 108.222 106.691 110.596 109.594C110.969 110.048 111.323 110.553 111.648 111.115C111.821 111.414 111.728 111.797 111.443 111.992L108.192 114.217C107.951 114.384 107.631 114.371 107.401 114.188C107.335 114.135 107.263 114.094 107.188 114.073C106.426 113.865 106.326 114.232 106.32 114.702Z" fill="#E9F3AA"/>
<path fill-rule="evenodd" clip-rule="evenodd" d="M106.194 105.576C105.384 105.257 104.551 104.938 103.708 104.895C103.265 104.882 102.839 105.084 102.577 105.428C102.489 105.544 102.447 105.604 102.374 105.811C101.956 107.095 100.857 107.336 99.7787 107.318C98.9422 107.295 98.2846 106.679 98.0214 105.923C97.7587 105.142 97.051 104.751 96.3059 104.884C92.9364 105.489 89.8754 107.555 88.0803 110.467C87.6858 111.114 87.8218 111.948 88.3993 112.37C88.7618 112.626 89.1245 112.882 89.4872 113.139C90.2032 113.644 90.9192 114.15 91.6335 114.658C92.0481 114.94 92.5596 114.875 92.9888 114.721C93.0558 114.697 93.1223 114.671 93.1888 114.646L93.1653 117.68C93.1586 118.52 93.1491 119.361 93.1397 120.201C93.1209 121.882 93.102 123.562 93.1046 125.243C93.1243 125.965 93.7466 126.565 94.4485 126.578C95.7053 126.587 96.9622 126.601 98.2193 126.615C100.678 126.642 103.137 126.67 105.597 126.666C106.248 126.648 106.817 126.143 106.915 125.523C106.917 125.515 106.918 125.507 106.919 125.5C106.926 125.459 106.93 125.437 106.932 125.322C106.936 124.885 106.939 124.449 106.943 124.012C106.967 120.927 106.992 117.842 107.016 114.757L107.018 114.758C107.47 115.082 108.101 115.097 108.566 114.797L108.612 114.766C109.702 114.031 110.791 113.295 111.866 112.539C112.362 112.171 112.556 111.492 112.337 110.94C112.333 110.931 112.33 110.924 112.328 110.917C112.314 110.881 112.306 110.86 112.252 110.765C110.879 108.402 108.714 106.567 106.194 105.576ZM94.3728 113.649C94.1885 113.251 94.1846 113.242 93.5689 113.178C93.2196 113.155 92.9918 113.242 92.7345 113.34C92.6185 113.385 92.4965 113.431 92.3547 113.471L89.2335 111.236C90.8581 108.572 93.6415 106.733 96.6635 106.228C96.6635 106.228 96.858 106.799 97.0669 107.149C97.768 108.323 99.1526 108.701 100.508 108.709C102.763 108.709 103.708 106.289 103.708 106.289C106.737 106.867 109.482 108.756 111.034 111.428L107.816 113.624C107.434 113.334 106.875 113.211 106.386 113.383C105.824 113.581 105.64 114.156 105.63 114.686C105.607 117.713 105.583 120.74 105.558 123.767C105.554 124.271 105.55 124.775 105.546 125.279L100.577 125.239L94.4897 125.192L94.5501 117.69L94.5739 114.599C94.5739 114.319 94.5531 114.031 94.4309 113.774C94.4095 113.729 94.3903 113.687 94.3728 113.649Z" fill="black"/>
<path d="M163.263 147.925H140.108C137.006 147.925 134.492 145.411 134.492 142.31V123.388C134.492 120.287 137.006 117.772 140.108 117.772H163.263C166.364 117.772 168.879 120.287 168.879 123.388V142.31C168.879 145.411 166.364 147.925 163.263 147.925Z" fill="white"/>
<path fill-rule="evenodd" clip-rule="evenodd" d="M169.571 123.343C169.539 119.938 166.568 117.108 163.303 117.076C155.557 117.053 147.812 117.053 140.066 117.076C136.656 117.109 133.851 120.065 133.799 123.303C133.749 128.739 133.769 134.176 133.789 139.613C133.792 140.524 133.796 141.436 133.799 142.347C133.83 145.733 136.774 148.562 140.026 148.614C146.669 148.675 153.314 148.651 159.958 148.626C161.073 148.622 162.188 148.618 163.303 148.614C166.686 148.583 169.518 145.634 169.57 142.387C169.62 136.951 169.6 131.514 169.58 126.077C169.577 125.166 169.574 124.255 169.571 123.343ZM135.186 123.352C135.21 120.691 137.545 118.469 140.11 118.461C142.686 118.461 145.262 118.459 147.838 118.456C152.991 118.451 158.143 118.446 163.296 118.461C165.965 118.487 168.146 120.79 168.186 123.32C168.236 128.747 168.216 134.174 168.196 139.601C168.193 140.513 168.19 141.425 168.187 142.337C168.162 144.983 165.868 147.187 163.327 147.228C156.703 147.289 150.077 147.265 143.452 147.24C142.327 147.236 141.202 147.232 140.077 147.228C137.434 147.204 135.227 144.908 135.186 142.369C135.136 136.943 135.156 131.515 135.176 126.089C135.179 125.176 135.183 124.264 135.186 123.352Z" fill="black"/>
<path fill-rule="evenodd" clip-rule="evenodd" d="M159.077 124.334C161.768 124.334 162.318 126.861 162.321 128.914C162.323 129.759 162.07 130.679 161.659 131.518C161.201 132.456 160.874 133.451 160.653 134.471L160.02 139.776C160.002 139.927 159.874 140.04 159.723 140.04H158.504C158.351 140.04 158.222 139.924 158.206 139.771L157.507 132.897C157.471 132.539 157.046 132.381 156.778 132.621C156.53 132.844 156.266 133.144 156.025 133.445C155.555 134.031 155.179 134.682 154.857 135.36C154.039 137.089 152.805 138.531 152.03 139.339C151.602 139.785 151.013 140.04 150.395 140.04H142.95C142.423 140.04 141.21 139.829 141.052 138.775C140.929 137.952 144.178 135.555 145.609 134.544C145.991 134.274 146.47 134.18 146.922 134.296C147.86 134.536 149.616 134.743 150.908 133.452C152.753 131.607 157.022 124.334 159.077 124.334Z" fill="#E9F3AA"/>
<path fill-rule="evenodd" clip-rule="evenodd" d="M161.986 125.002C161.293 124.083 160.213 123.652 159.115 123.64C158.43 123.637 157.971 123.942 157.487 124.314C155.7 125.689 154.445 127.517 153.198 129.334C152.373 130.536 151.55 131.734 150.579 132.793C149.635 133.823 148.513 133.736 147.45 133.653C146.635 133.589 145.854 133.528 145.213 133.975C144.148 134.73 143.097 135.507 142.115 136.36C142.051 136.416 141.987 136.471 141.923 136.526C141.221 137.129 140.504 137.746 140.373 138.546C140.158 139.852 141.476 140.567 142.54 140.704C142.665 140.72 142.791 140.729 142.918 140.731C145.423 140.746 147.929 140.747 150.435 140.731C151.109 140.718 151.77 140.475 152.285 140.047C153.603 138.952 154.578 137.452 155.36 135.911L155.374 135.884C155.403 135.825 155.407 135.816 155.444 135.741C155.827 134.942 156.283 134.172 156.875 133.511L157.52 139.849C157.576 140.287 157.827 140.556 158.187 140.679L158.188 140.679C158.282 140.711 158.329 140.727 158.498 140.731H159.733C160.154 140.721 160.432 140.522 160.601 140.204C160.648 140.115 160.671 140.068 160.703 139.902L161.352 134.525C161.537 133.712 161.791 132.915 162.128 132.154C162.162 132.077 162.165 132.071 162.194 132.007L162.204 131.986C163.118 130.052 163.551 127.073 161.986 125.002ZM158.197 132.822C158.132 132.28 157.684 131.861 157.149 131.817C156.646 131.792 156.289 132.131 156.289 132.131C155.352 132.994 154.698 134.145 154.026 135.327C153.462 136.319 152.885 137.333 152.118 138.218C151.653 138.754 151.121 139.325 150.437 139.348C147.93 139.397 145.423 139.394 142.917 139.348C142.832 139.345 142.748 139.337 142.664 139.325C142.601 139.315 142.538 139.302 142.475 139.287C142.186 139.216 141.544 138.98 141.921 138.502C142.798 137.39 143.995 136.541 145.178 135.703C145.361 135.573 145.544 135.443 145.726 135.313C146.041 135.088 146.361 134.892 146.705 134.957C148.523 135.33 150.448 135.012 151.651 133.676C152.568 132.659 153.362 131.541 154.156 130.423C154.54 129.883 154.924 129.341 155.323 128.811C157 126.581 158.975 124.413 160.411 125.387C161.413 126.066 161.593 127.429 161.626 128.642C161.657 129.734 161.243 130.738 160.811 131.788C160.474 132.607 160.125 133.453 159.967 134.39L159.375 139.348H158.861L158.197 132.822Z" fill="black"/>
<path d="M122.697 143.16V149.197C122.697 150.921 121.3 152.318 119.577 152.318H80.97C79.2464 152.318 77.8496 150.921 77.8496 149.197V143.163C77.8496 141.438 79.2478 140.04 80.9727 140.04H119.577C121.3 140.04 122.697 141.437 122.697 143.16Z" fill="white" fill-opacity="0.3"/>
<path d="M68.8229 60.6293C69.1761 60.6966 69.1745 60.8388 69.1856 61.0156C69.1997 61.2408 69.0085 61.4423 68.7708 61.4573C66.3631 61.4573 63.949 61.3173 61.7453 62.0937C57.4132 63.6197 54.2438 67.9637 54.2289 72.7153V78.4952C54.2109 78.7837 54.1058 78.8169 53.9903 78.8712C53.7412 78.9884 53.4164 78.7945 53.3976 78.4952C53.3976 75.0947 53.0191 71.7128 54.0812 68.6974C55.7207 64.0431 60.3923 60.642 65.4858 60.626H68.7708C68.7882 60.6271 68.8054 60.6282 68.8229 60.6293Z" fill="black"/>
<path d="M53.8481 80.6304C54.0509 80.6528 54.2119 80.8166 54.2288 81.0216C54.2584 82.0901 54.2296 83.1591 54.2296 84.2282C54.218 84.6502 53.4454 84.8142 53.3989 84.2509C53.3692 83.1824 53.3983 82.1134 53.3983 81.0446C53.4047 80.8061 53.5577 80.6143 53.8481 80.6304Z" fill="black"/>
<path d="M73.4227 119.766H34.1562L36.3071 118.319L39.3005 116.302L36.8848 112.732H70.6922L68.2765 116.302L71.2722 118.319L73.4227 119.766Z" fill="#EDF3C2"/>
<path fill-rule="evenodd" clip-rule="evenodd" d="M71.2679 113.115C71.5239 112.671 71.2634 112.145 70.794 112.041L70.6943 112.034H36.8869C36.3238 112.075 36.06 112.676 36.3133 113.115L38.3397 116.11L35.9223 117.738L33.7715 119.186C33.2386 119.606 33.5554 120.408 34.1583 120.453H73.4248C73.7877 120.426 74.0912 120.154 74.1158 119.81C74.1408 119.461 73.8116 119.186 73.8116 119.186C72.2881 118.16 70.7647 117.135 69.2415 116.109L71.2679 113.115ZM39.875 115.909L38.1911 113.421H69.3878L67.7039 115.909C67.521 116.226 67.5548 116.371 67.641 116.571C67.6465 116.584 67.651 116.596 67.6552 116.607C67.6798 116.673 67.6981 116.722 67.8906 116.872L70.8863 118.889L71.154 119.069H36.4272L36.6948 118.889L39.6886 116.872C40.1679 116.496 39.875 115.909 39.875 115.909Z" fill="black"/>
<path fill-rule="evenodd" clip-rule="evenodd" d="M36.8876 112.732L35.7285 118.709L39.3025 116.302L36.8876 112.732Z" fill="#EDF3C2"/>
<path fill-rule="evenodd" clip-rule="evenodd" d="M37.4605 112.338C37.3347 112.163 37.1427 112.053 36.926 112.034C36.8603 112.032 36.4192 112.123 36.2718 112.407C36.2696 112.411 36.2675 112.415 36.2655 112.419C36.2437 112.46 36.231 112.485 36.2067 112.594L35.0476 118.57C34.9434 119.204 35.6397 119.577 36.1144 119.277L39.6884 116.87C39.9713 116.667 40.043 116.405 39.9735 116.127C39.9555 116.056 39.9458 116.018 39.8754 115.907L37.4605 112.338ZM38.3382 116.11L36.7247 117.196C36.8213 116.698 36.9179 116.201 37.0144 115.703C37.0923 115.301 37.1702 114.9 37.2481 114.498L38.3382 116.11Z" fill="black"/>
<path fill-rule="evenodd" clip-rule="evenodd" d="M70.6939 112.732L71.853 118.709L68.2793 116.302L70.6939 112.732Z" fill="#EDF3C2"/>
<path fill-rule="evenodd" clip-rule="evenodd" d="M70.9132 112.07C70.8692 112.054 70.8433 112.044 70.7317 112.035C70.4862 112.027 70.2598 112.14 70.1176 112.338L67.703 115.908C67.5165 116.202 67.5481 116.472 67.7166 116.703C67.7601 116.763 67.7831 116.794 67.8901 116.871L71.4637 119.277C71.9972 119.614 72.6226 119.129 72.5306 118.571L71.3715 112.594C71.3055 112.299 71.1528 112.156 70.9259 112.074C70.9215 112.073 70.9173 112.071 70.9132 112.07ZM70.8516 117.196L69.2386 116.11C69.6016 115.573 69.9645 115.036 70.3275 114.5L70.3284 114.498L70.8516 117.196Z" fill="black"/>
<path fill-rule="evenodd" clip-rule="evenodd" d="M77.586 168.699H29.9965C28.2502 168.699 26.9141 167.143 27.1779 165.416L34.1581 119.765H73.4243L80.4046 165.416C80.6686 167.143 79.3325 168.699 77.586 168.699Z" fill="#EDF3C2"/>
<path d="M77.586 168.699H29.9965C28.2502 168.699 26.9141 167.143 27.1779 165.416L34.1581 119.765H73.4243L80.4046 165.416C80.6686 167.143 79.3325 168.699 77.586 168.699Z" fill="white" fill-opacity="0.3"/>
<path fill-rule="evenodd" clip-rule="evenodd" d="M74.1088 119.662C74.0132 119.255 73.9853 119.191 73.533 119.082L73.4241 119.074H34.158C33.6905 119.111 33.5891 119.168 33.4733 119.662L26.4924 165.316C26.184 167.434 27.9361 169.351 29.9459 169.393C45.8422 169.498 61.7399 169.498 77.6362 169.393C79.7435 169.349 81.3576 167.35 81.0966 165.363C79.6132 155.197 78.0372 145.044 76.4612 134.892C75.6732 129.816 74.8852 124.74 74.1088 119.662ZM32.4344 135.465C33.2113 130.464 33.9881 125.463 34.7531 120.461H72.8294L79.7193 165.522C79.9064 166.803 78.8399 167.983 77.6173 168.009C61.7337 168.114 45.8488 168.114 29.9652 168.009C28.6739 167.982 27.7002 166.756 27.8582 165.555C29.3198 155.515 30.8771 145.49 32.4344 135.465Z" fill="black"/>
<path d="M62.9122 155.142C63.0303 155.149 63.136 155.2 63.2152 155.288L66.8979 159.62C67.0978 159.871 67.0204 159.935 66.9554 160.07C66.8363 160.317 66.4651 160.379 66.2646 160.158L62.5819 155.826C62.1198 155.246 62.6319 155.141 62.9122 155.142Z" fill="black"/>
<path d="M65.4572 155.29C65.8665 155.313 66.2587 156.011 66.6732 156.514C66.9267 156.843 66.4004 157.437 66.0403 157.052C65.4653 156.398 64.6639 155.631 65.2531 155.334C65.3164 155.302 65.3856 155.288 65.4572 155.29Z" fill="black"/>
<path d="M62.1751 157.097C62.2799 157.107 62.3759 157.152 62.45 157.227C63.128 157.988 63.7703 158.78 64.4301 159.557C64.6939 159.882 64.1832 160.491 63.8099 160.11C63.1319 159.349 62.4894 158.557 61.8295 157.781C61.621 157.523 61.7778 157.078 62.1751 157.097Z" fill="black"/>
<path d="M46.0984 128.444C46.0984 129.457 45.2768 130.279 44.2629 130.279C43.2493 130.279 42.4277 129.457 42.4277 128.444C42.4277 127.43 43.2493 126.608 44.2629 126.608C45.2768 126.608 46.0984 127.43 46.0984 128.444Z" fill="white" fill-opacity="0.3"/>
<path d="M76.8172 167.984H68.3354C70.7489 167.984 72.5943 165.899 72.2286 163.582L68.1758 121.856C68.0954 121.34 67.9059 120.472 67.3711 120.472H72.8215L79.638 164.798C80.1321 167.465 78.5521 168.172 76.8172 167.984Z" fill="black" style="mix-blend-mode:overlay"/>
<path d="M64.9148 128.444C64.9148 129.457 64.0932 130.279 63.0793 130.279C62.0657 130.279 61.2441 129.457 61.2441 128.444C61.2441 127.43 62.0657 126.608 63.0793 126.608C64.0932 126.608 64.9148 127.43 64.9148 128.444Z" fill="white" fill-opacity="0.3"/>
<path d="M63.2556 127.778C63.5532 127.871 63.7586 128.133 63.7746 128.449C63.7746 132.064 64.287 135.875 62.8818 138.982C60.8942 143.378 55.4768 145.903 50.7875 144.508C46.6904 143.29 43.6122 139.279 43.5706 134.89L43.5703 134.826V128.449C43.5703 128.449 43.5933 128.091 43.8391 127.901C44.2467 127.585 44.9234 127.807 44.9558 128.449C44.9558 130.593 44.9491 132.737 44.9561 134.881C44.991 138.582 47.6134 142.119 51.1826 143.181C54.1146 144.053 57.4768 143.241 59.6864 141.134C61.3869 139.513 62.3817 137.198 62.3892 134.823V128.449C62.411 128.02 62.8062 127.686 63.2556 127.778Z" fill="black"/>
<path d="M157.912 27.2298V47.9606C157.912 51.1876 160.528 53.8037 163.755 53.8037C164.389 53.8037 164.903 54.3177 164.903 54.9517V59.585C164.903 60.5612 166.063 61.0718 166.784 60.4129L172.651 55.0431C173.523 54.2459 174.661 53.8037 175.842 53.8037H216.272C219.499 53.8037 222.115 51.1876 222.115 47.9606V27.2298C222.115 24.0028 219.499 21.3867 216.272 21.3867H163.755C160.528 21.3867 157.912 24.0028 157.912 27.2298Z" fill="white"/>
<path fill-rule="evenodd" clip-rule="evenodd" d="M222.808 27.1871C222.775 23.6575 219.702 20.7259 216.314 20.6934C213.351 20.6841 210.388 20.6732 207.425 20.6623C192.84 20.6085 178.255 20.5547 163.672 20.694C160.147 20.7497 157.274 23.7927 157.22 27.145C157.165 33.0752 157.187 39.006 157.209 44.9365C157.213 45.9584 157.216 46.9803 157.22 48.0022C157.249 51.1693 159.692 53.9126 162.681 54.4077C162.849 54.4357 163.026 54.4511 163.197 54.4661C163.724 54.5121 164.196 54.5533 164.211 54.9389C164.221 55.7591 164.217 56.5792 164.212 57.3994C164.208 58.1397 164.204 58.88 164.211 59.6202C164.254 61.1736 166.199 61.8347 167.225 60.9474C168.3 59.9826 169.361 59.0035 170.423 58.0244C171.331 57.1873 172.239 56.3502 173.154 55.5219C173.881 54.8805 174.828 54.513 175.795 54.4961C182.027 54.4595 188.26 54.4836 194.492 54.5078C201.78 54.5361 209.069 54.5643 216.356 54.4953C219.881 54.4396 222.754 51.3993 222.807 48.0443C222.863 42.1013 222.841 36.1578 222.819 30.2145C222.815 29.2054 222.811 28.1962 222.808 27.1871ZM158.607 27.194C158.633 24.4106 161.077 22.0858 163.758 22.0772C169.597 22.0772 175.436 22.0711 181.275 22.0649C192.952 22.0527 204.63 22.0404 216.307 22.0772C219.09 22.1038 221.381 24.5129 221.423 27.1608C221.479 33.0836 221.457 39.0068 221.435 44.9299C221.431 45.9506 221.427 46.9712 221.424 47.9919C221.398 50.7789 218.99 53.0663 216.34 53.1081C209.05 53.1773 201.76 53.149 194.47 53.1207C188.24 53.0965 182.01 53.0723 175.78 53.109C174.54 53.1309 173.324 53.5739 172.376 54.3631C171.251 55.3002 170.171 56.3235 169.089 57.3499C168.173 58.2186 167.254 59.0896 166.303 59.9125C166.047 60.1253 165.614 59.9302 165.598 59.6024C165.574 58.7223 165.583 57.8418 165.592 56.9613C165.599 56.2749 165.606 55.5885 165.597 54.9023C165.543 53.4844 163.804 53.1092 163.804 53.1092C161.061 53.0743 158.65 50.7068 158.607 48.0251C158.552 42.1023 158.574 36.1791 158.596 30.256C158.599 29.2353 158.603 28.2147 158.607 27.194Z" fill="black"/>
<path d="M164.298 24.2095C164.744 24.2395 164.834 25.0216 164.197 25.0418C163.084 25.0914 162.15 26.0783 162.115 27.2286C162.115 27.2286 162.002 27.6231 161.697 27.6211C160.638 27.6144 161.692 24.321 164.165 24.2112C164.209 24.2099 164.254 24.2085 164.298 24.2095Z" fill="black"/>
<path d="M207.694 30.2755C208.309 30.4157 208.376 31.4576 207.602 31.5155H169.942C169.285 31.4664 169.148 30.3281 169.942 30.2686H207.602C207.633 30.2708 207.664 30.2733 207.694 30.2755Z" fill="black"/>
<path d="M207.677 36.4114C208.306 36.5222 208.46 37.6043 207.604 37.6541H185.236C184.683 37.622 184.663 37.3704 184.622 37.139C184.559 36.7816 184.853 36.4294 185.236 36.4072H207.604C207.628 36.4086 207.652 36.41 207.677 36.4114Z" fill="black"/>
<path d="M180.98 36.4094C181.428 36.4654 181.417 36.5929 181.499 36.7802C181.667 37.164 181.42 37.6339 180.928 37.6541H169.943C169.299 37.6275 169.046 36.4444 169.943 36.4072H180.928C180.945 36.4081 180.962 36.4086 180.98 36.4094Z" fill="black"/>
<path d="M200.612 42.4941C201.239 42.6243 201.292 43.6828 200.527 43.7352H169.944C168.812 43.6579 169.286 42.5332 169.944 42.4883H200.527C200.556 42.4902 200.584 42.4922 200.612 42.4941Z" fill="black"/>
<path d="M241.325 14.2072C241.732 14.2338 241.85 14.9479 241.37 15.0332C240.551 15.1385 239.728 15.2047 238.907 15.2902C238.497 15.3228 238.231 14.5673 238.801 14.466C239.62 14.3607 240.443 14.2945 241.264 14.209C241.264 14.209 241.281 14.2064 241.325 14.2072Z" fill="black"/>
<path d="M236.348 7.88417C236.606 7.90124 236.798 8.16877 236.728 8.41979C236.488 9.15374 236.215 9.87686 235.958 10.6052C235.812 10.9912 235.015 10.8996 235.168 10.3467C235.408 9.61276 235.682 8.88963 235.938 8.16132C236.003 7.98996 236.126 7.87981 236.348 7.88417Z" fill="black"/>
<path d="M239.397 10.4323C239.732 10.4534 239.915 10.93 239.649 11.1653C238.992 11.6952 238.313 12.1964 237.645 12.7116C237.315 12.9553 236.696 12.442 237.123 12.0649C237.78 11.5351 238.459 11.034 239.127 10.5187C239.206 10.4602 239.258 10.4296 239.397 10.4323Z" fill="black"/>
<path d="M229.85 46.3225C230.055 46.3575 230.207 46.5232 230.219 46.7357C230.219 50.1888 230.697 53.808 228.93 56.5648C227.459 58.8583 224.812 60.3285 222.036 60.3374H218.589C218.204 60.3158 218.196 60.1465 218.176 59.9683C218.15 59.7333 218.351 59.5194 218.589 59.5061C220.638 59.5061 222.674 59.7389 224.521 59.0755C227.339 58.0636 229.378 55.2245 229.388 52.1529V46.7357C229.401 46.4971 229.592 46.3081 229.85 46.3225Z" fill="black"/>
<path d="M229.838 40.1865C230.041 40.2089 230.202 40.3738 230.219 40.5777C230.249 41.6709 230.219 42.7648 230.219 43.8583C230.207 44.2806 229.435 44.4446 229.389 43.8813C229.358 42.7881 229.388 41.6942 229.388 40.6005C229.394 40.3622 229.549 40.1704 229.838 40.1865Z" fill="black"/>
<path fill-rule="evenodd" clip-rule="evenodd" d="M234.357 22.8128C234.357 29.9824 228.545 35.7941 221.376 35.7941C214.206 35.7941 208.395 29.9824 208.395 22.8128C208.395 15.6436 214.206 9.83154 221.376 9.83154C228.545 9.83154 234.357 15.6436 234.357 22.8128Z" fill="#EDF3C2"/>
<path fill-rule="evenodd" clip-rule="evenodd" d="M234.819 20.3129C233.661 14.065 227.751 9.20169 221.463 9.14184H221.286C217.793 9.17509 214.375 10.5719 211.883 12.976C208.786 15.9636 207.237 20.47 207.833 24.7262C208.489 29.411 211.765 33.6303 216.13 35.4464C221.104 37.516 227.08 36.3087 230.866 32.6555C234.111 29.5238 235.638 24.7314 234.819 20.3129ZM209.32 20.4143C210.42 14.8677 215.679 10.5803 221.294 10.5268C223.089 10.5212 224.92 10.9067 226.564 11.6748C231.326 13.8999 234.292 19.4196 233.532 24.6101C232.916 28.8119 229.948 32.5879 226.016 34.1953C221.543 36.0244 216.179 34.9144 212.791 31.6064C209.873 28.7571 208.529 24.402 209.32 20.4143Z" fill="black"/>
<path d="M216.204 27.773C216.811 28.3945 217.81 28.4073 218.433 27.801C218.557 27.6807 218.656 27.5469 218.729 27.4011C218.11 26.8384 217.412 26.124 216.679 25.2373C216.518 25.3113 216.366 25.413 216.232 25.5443C215.611 26.1512 215.598 27.1495 216.204 27.773Z" fill="#E9F3AA"/>
<path fill-rule="evenodd" clip-rule="evenodd" d="M217.36 25.0758C217.172 24.853 216.974 24.6246 216.696 24.6113C215.672 24.6055 215.07 25.8328 215.14 26.8259C215.29 28.9362 218.14 29.3405 219.128 27.9423C219.51 27.4014 219.15 26.9381 219.15 26.9381C218.513 26.3565 217.919 25.7308 217.36 25.0758ZM216.91 27.5255C216.387 27.2675 216.241 26.5335 216.579 26.0901L216.582 26.0862C216.994 26.5603 217.425 27.0173 217.876 27.4548C217.876 27.4548 217.277 27.707 216.91 27.5255Z" fill="black"/>
<path fill-rule="evenodd" clip-rule="evenodd" d="M227.049 23.1982C226.624 24.1082 225.693 24.9836 225.502 25.1983C224.959 25.8195 224.378 26.5211 224.171 27.7332C224.026 28.5897 223.901 28.8296 223.681 29.1552C223.461 29.4827 222.902 29.7795 222.313 29.6792C222.11 29.6448 221.915 29.5916 221.728 29.5176C221.54 29.4434 221.359 29.35 221.19 29.2383C221.153 29.2189 220.152 28.6994 218.73 27.3995C218.111 26.8384 217.413 26.1227 216.681 25.2368C216.599 25.1404 216.52 25.0423 216.439 24.9406C215.924 24.2966 215.394 23.5709 214.866 22.7505C214.758 22.5795 214.671 22.3969 214.602 22.2073C214.533 22.0178 214.483 21.8183 214.455 21.6163C214.372 21.0264 214.68 20.4758 215.014 20.2635C215.346 20.0513 215.59 19.9324 216.447 19.8083C217.665 19.6337 218.381 19.0704 219.014 18.5411C219.235 18.3577 220.135 17.451 221.055 17.0476C221.975 16.6441 223.164 16.5879 224.235 16.9143C224.527 17.0296 224.794 17.1656 225.037 17.3105C225.214 17.4181 225.378 17.5308 225.53 17.6475C226.026 18.0304 226.394 18.4563 226.658 18.8393C226.762 18.9878 226.85 19.1305 226.924 19.2621C227.138 19.6478 227.236 19.9338 227.259 20.0078C227.261 20.01 227.261 20.0117 227.261 20.0117C227.264 20.0214 227.266 20.0252 227.266 20.0252C227.565 21.1026 227.478 22.2869 227.049 23.1982Z" fill="#FF87B0"/>
<path d="M227.049 23.1982C226.624 24.1082 225.693 24.9836 225.502 25.1983C224.959 25.8195 224.378 26.5211 224.171 27.7332C224.026 28.5897 223.901 28.8296 223.681 29.1552C223.461 29.4827 222.902 29.7795 222.313 29.6792C222.11 29.6448 221.915 29.5916 221.728 29.5176C221.54 29.4434 221.359 29.35 221.19 29.2383C221.153 29.2189 220.152 28.6994 218.73 27.3995C218.111 26.8384 217.413 26.1227 216.681 25.2368C216.599 25.1404 216.52 25.0423 216.439 24.9406C215.924 24.2966 215.394 23.5709 214.866 22.7505C214.758 22.5795 214.671 22.3969 214.602 22.2073C214.533 22.0178 214.483 21.8183 214.455 21.6163C214.372 21.0264 214.68 20.4758 215.014 20.2635C215.346 20.0513 215.59 19.9324 216.447 19.8083C217.665 19.6337 218.381 19.0704 219.014 18.5411C219.235 18.3577 220.135 17.451 221.055 17.0476C221.975 16.6441 223.164 16.5879 224.235 16.9143C224.527 17.0296 224.794 17.1656 225.037 17.3105C225.214 17.4181 225.378 17.5308 225.53 17.6475C226.026 18.0304 226.394 18.4563 226.658 18.8393C226.762 18.9878 226.85 19.1305 226.924 19.2621C227.138 19.6478 227.236 19.9338 227.259 20.0078C227.261 20.01 227.261 20.0117 227.261 20.0117C227.264 20.0214 227.266 20.0252 227.266 20.0252C227.565 21.1026 227.478 22.2869 227.049 23.1982Z" fill="white" fill-opacity="0.3"/>
<path d="M227.049 23.1982C226.624 24.1082 225.693 24.9836 225.502 25.1983C224.959 25.8195 224.378 26.5211 224.171 27.7332C224.026 28.5897 223.901 28.8296 223.681 29.1552C223.461 29.4827 222.902 29.7795 222.313 29.6792C222.11 29.6448 221.915 29.5916 221.728 29.5176C221.54 29.4434 221.359 29.35 221.19 29.2383C221.153 29.2189 220.152 28.6994 218.73 27.3995C218.111 26.8384 217.413 26.1227 216.681 25.2368C216.599 25.1404 216.52 25.0423 216.439 24.9406C215.924 24.2966 215.394 23.5709 214.866 22.7505C214.758 22.5795 214.671 22.3969 214.602 22.2073C214.533 22.0178 214.483 21.8183 214.455 21.6163C214.372 21.0264 214.68 20.4758 215.014 20.2635C215.346 20.0513 215.59 19.9324 216.447 19.8083C217.665 19.6337 218.381 19.0704 219.014 18.5411C219.235 18.3577 220.135 17.451 221.055 17.0476C221.975 16.6441 223.164 16.5879 224.235 16.9143C224.527 17.0296 224.794 17.1656 225.037 17.3105C225.214 17.4181 225.378 17.5308 225.53 17.6475C226.026 18.0304 226.394 18.4563 226.658 18.8393C226.762 18.9878 226.85 19.1305 226.924 19.2621C227.138 19.6478 227.236 19.9338 227.259 20.0078C227.261 20.01 227.261 20.0117 227.261 20.0117C227.264 20.0214 227.266 20.0252 227.266 20.0252C227.565 21.1026 227.478 22.2869 227.049 23.1982Z" fill="#D6F318"/>
<path fill-rule="evenodd" clip-rule="evenodd" d="M227.829 19.745C227.077 17.5648 224.967 16.1068 222.851 16.0768C222.822 16.0767 222.807 16.0766 222.793 16.0767C222.778 16.0767 222.763 16.0768 222.734 16.0771C221.308 16.1015 220.04 16.7945 218.986 17.7258C218.16 18.4615 217.437 19.0071 216.119 19.2255C213.04 19.7356 213.596 21.9432 214.443 23.2414C215.82 25.3517 217.502 27.3402 219.546 28.8922C220.098 29.3111 220.874 29.7739 220.874 29.7739C221.75 30.3444 222.917 30.5101 223.734 29.9554C224.329 29.5522 224.601 28.7971 224.742 28.0725C224.981 26.791 225.699 25.9306 226.48 25.0672C226.675 24.8505 226.864 24.6269 227.039 24.3933C228.495 22.4492 227.829 19.745 227.829 19.745ZM219.58 18.8487C220.558 18.0921 221.523 17.3461 222.75 17.3251C223.344 17.3212 224.054 17.5121 224.054 17.5121C225.017 17.9112 225.838 18.6236 226.355 19.5222C226.462 19.7073 226.556 19.8999 226.631 20.0994C226.635 20.1079 226.638 20.115 226.64 20.1219C226.652 20.1495 226.662 20.1742 226.689 20.2784C226.7 20.3227 226.71 20.367 226.72 20.4114C227.055 21.9437 226.379 23.3619 225.358 24.4445C224.349 25.5066 223.858 26.4573 223.458 28.124C223.089 29.6612 222.056 29.0391 221.29 28.5771L221.264 28.5615C218.93 27.1558 217.073 24.9651 215.536 22.6351C215.141 22.0318 214.878 21.0952 215.351 20.7868C215.679 20.579 216.05 20.5138 216.469 20.4403C216.592 20.4188 216.718 20.3967 216.848 20.3701C217.886 20.1585 218.738 19.4997 219.58 18.8487Z" fill="black"/>
<path d="M227.067 18.5028L226.659 18.8425C226.396 18.4596 226.028 18.0337 225.531 17.6507L226.077 17.2503C226.357 17.0445 226.75 17.0932 226.971 17.3612L227.153 17.5804C227.383 17.8591 227.344 18.2714 227.067 18.5028Z" fill="white"/>
<path d="M226.503 16.4987C227.604 16.5458 228.433 18.1081 227.489 18.9591C227.022 19.3581 226.48 19.6595 226.076 19.0987C225.72 18.613 225.119 18.2417 224.965 17.9139C224.629 17.1967 225.814 16.4849 226.503 16.4987Z" fill="black"/>
<path d="M249.371 167.964C249.639 168 249.728 168.074 249.841 168.209C250.172 168.604 249.981 169.318 249.311 169.347L235.819 169.351C235.548 169.34 235.454 169.273 235.329 169.149C234.95 168.77 235.122 167.997 235.818 167.966L249.31 167.962C249.33 167.963 249.35 167.964 249.371 167.964Z" fill="black"/>
<path d="M229.931 168.061C230.154 168.211 230.156 168.213 230.306 168.436L230.359 168.701L230.306 168.967L230.156 169.191L229.931 169.342L229.666 169.394L17.5231 169.452L17.2579 169.399L17.0332 169.249L16.8829 169.025C16.8305 168.761 16.8305 168.758 16.8828 168.494L17.0329 168.269L17.2576 168.119L17.5227 168.066L229.666 168.009C229.754 168.026 229.842 168.044 229.931 168.061Z" fill="black"/>
<path d="M11.4914 168.066C12.0032 168.126 11.985 168.269 12.0773 168.491C12.2506 168.909 11.9271 169.43 11.4375 169.449L0.683725 169.452C0.168879 169.432 0.175769 169.289 0.0662617 169.074C-0.147486 168.654 0.18017 168.086 0.683368 168.067L11.4371 168.064C11.4551 168.065 11.4734 168.065 11.4914 168.066Z" fill="black"/>
</svg>
