<svg width="428" height="88" viewBox="0 0 428 88" fill="none" xmlns="http://www.w3.org/2000/svg">
<path d="M412.291 0H16.4614L-19 75.3018H447.751L412.291 0Z" fill="#D6F318"/>
<path d="M434.017 88.001C426.435 88.001 420.289 82.3146 420.289 75.3008H447.745C447.745 82.3146 441.599 88.001 434.017 88.001Z" fill="black"/>
<path d="M406.572 88.001C398.99 88.001 392.844 82.3146 392.844 75.3008H420.299C420.299 82.3146 414.153 88.001 406.572 88.001Z" fill="#D6F318"/>
<path d="M379.111 88.001C371.529 88.001 365.383 82.3146 365.383 75.3008H392.838C392.839 82.3146 386.693 88.001 379.111 88.001Z" fill="black"/>
<path d="M351.658 88.001C344.076 88.001 337.93 82.3146 337.93 75.3008H365.385C365.386 82.3146 359.239 88.001 351.658 88.001Z" fill="#D6F318"/>
<path d="M324.197 88.001C316.615 88.001 310.469 82.3146 310.469 75.3008H337.924C337.925 82.3146 331.779 88.001 324.197 88.001Z" fill="black"/>
<path d="M296.743 88.001C289.162 88.001 283.016 82.3146 283.016 75.3008H310.471C310.471 82.3146 304.324 88.001 296.743 88.001Z" fill="#D6F318"/>
<path d="M269.291 88.001C261.709 88.001 255.562 82.3146 255.562 75.3008H283.019C283.019 82.3146 276.873 88.001 269.291 88.001Z" fill="black"/>
<path d="M241.83 88.001C234.248 88.001 228.102 82.3146 228.102 75.3008H255.557C255.557 82.3146 249.411 88.001 241.83 88.001Z" fill="#D6F318"/>
<path d="M214.377 88.001C206.794 88.001 200.648 82.3146 200.648 75.3008H228.105C228.105 82.3146 221.959 88.001 214.377 88.001Z" fill="black"/>
<path d="M186.916 88.001C179.334 88.001 173.188 82.3146 173.188 75.3008H200.643C200.643 82.3146 194.497 88.001 186.916 88.001Z" fill="#D6F318"/>
<path d="M159.463 88.001C151.88 88.001 145.734 82.3146 145.734 75.3008H173.19C173.191 82.3146 167.045 88.001 159.463 88.001Z" fill="black"/>
<path d="M132.009 88.001C124.427 88.001 118.281 82.3146 118.281 75.3008H145.737C145.738 82.3146 139.591 88.001 132.009 88.001Z" fill="#D6F318"/>
<path d="M104.548 88.001C96.9664 88.001 90.8203 82.3146 90.8203 75.3008H118.277C118.277 82.3146 112.131 88.001 104.548 88.001Z" fill="black"/>
<path d="M77.0953 88.001C69.5132 88.001 63.3672 82.3146 63.3672 75.3008H90.8226C90.8226 82.3146 84.6766 88.001 77.0953 88.001Z" fill="#D6F318"/>
<path d="M49.6422 88.001C42.0601 88.001 35.9141 82.3146 35.9141 75.3008H63.3695C63.3704 82.3146 57.2243 88.001 49.6422 88.001Z" fill="black"/>
<path d="M22.1813 88.001C14.5992 88.001 8.45312 82.3146 8.45312 75.3008H35.9086C35.9095 82.3146 29.7625 88.001 22.1813 88.001Z" fill="#D6F318"/>
<path d="M-5.27185 88.001C-12.854 88.001 -19 82.3146 -19 75.3008H8.45642C8.45642 82.3146 2.31026 88.001 -5.27185 88.001Z" fill="black"/>
<path d="M420.295 75.3018L388.953 0H412.229L447.752 75.3018H420.295Z" fill="black"/>
<path d="M392.839 75.3018L365.675 0H342.398L365.384 75.3018H392.839Z" fill="black"/>
<path d="M337.927 75.3018L319.121 0H295.844L310.471 75.3018H337.927Z" fill="black"/>
<path d="M283.014 75.3018L272.566 0H249.289L255.558 75.3018H283.014Z" fill="black"/>
<path d="M226.016 0L228.105 75.3018H200.648L202.739 0H226.016Z" fill="black"/>
<path d="M179.459 0L173.19 75.3018H145.734L156.182 0H179.459Z" fill="black"/>
<path d="M132.903 0L118.277 75.3018H90.8203L109.627 0H132.903Z" fill="black"/>
<path d="M86.3549 0L63.3695 75.3018H35.9141L63.0779 0H86.3549Z" fill="black"/>
<path d="M39.7996 0L8.45642 75.3018H-19L16.5227 0H39.7996Z" fill="black"/>
</svg>
