<svg width="367" height="29" viewBox="0 0 367 29" fill="none" xmlns="http://www.w3.org/2000/svg">
<g clip-path="url(#clip0_8529_44061)">
<path d="M349.535 -45H17.726L-12 18.1228H379.26L349.535 -45Z" fill="black"/>
<path d="M367.75 28.7672C361.394 28.7672 356.242 24.0005 356.242 18.1211H379.257C379.258 24.0005 374.106 28.7672 367.75 28.7672Z" fill="#D6F318"/>
<path d="M344.742 28.7672C338.386 28.7672 333.234 24.0005 333.234 18.1211H356.249C356.249 24.0005 351.097 28.7672 344.742 28.7672Z" fill="black"/>
<path d="M321.719 28.7672C315.363 28.7672 310.211 24.0005 310.211 18.1211H333.226C333.227 24.0005 328.075 28.7672 321.719 28.7672Z" fill="#D6F318"/>
<path d="M298.711 28.7672C292.355 28.7672 287.203 24.0005 287.203 18.1211H310.218C310.219 24.0005 305.066 28.7672 298.711 28.7672Z" fill="black"/>
<path d="M275.695 28.7672C269.34 28.7672 264.188 24.0005 264.188 18.1211H287.202C287.203 24.0005 282.051 28.7672 275.695 28.7672Z" fill="#D6F318"/>
<path d="M252.679 28.7672C246.324 28.7672 241.172 24.0005 241.172 18.1211H264.187C264.187 24.0005 259.034 28.7672 252.679 28.7672Z" fill="black"/>
<path d="M229.664 28.7672C223.308 28.7672 218.156 24.0005 218.156 18.1211H241.172C241.172 24.0005 236.02 28.7672 229.664 28.7672Z" fill="#D6F318"/>
<path d="M206.648 28.7672C200.293 28.7672 195.141 24.0005 195.141 18.1211H218.155C218.155 24.0005 213.004 28.7672 206.648 28.7672Z" fill="black"/>
<path d="M183.633 28.7672C177.277 28.7672 172.125 24.0005 172.125 18.1211H195.141C195.141 24.0005 189.989 28.7672 183.633 28.7672Z" fill="#D6F318"/>
<path d="M160.617 28.7672C154.261 28.7672 149.109 24.0005 149.109 18.1211H172.124C172.124 24.0005 166.972 28.7672 160.617 28.7672Z" fill="black"/>
<path d="M137.602 28.7672C131.246 28.7672 126.094 24.0005 126.094 18.1211H149.109C149.109 24.0005 143.957 28.7672 137.602 28.7672Z" fill="#D6F318"/>
<path d="M114.586 28.7672C108.23 28.7672 103.078 24.0005 103.078 18.1211H126.093C126.094 24.0005 120.941 28.7672 114.586 28.7672Z" fill="black"/>
<path d="M91.5703 28.7672C85.2145 28.7672 80.0625 24.0005 80.0625 18.1211H103.078C103.078 24.0005 97.9261 28.7672 91.5703 28.7672Z" fill="#D6F318"/>
<path d="M68.5547 28.7672C62.1989 28.7672 57.0469 24.0005 57.0469 18.1211H80.0618C80.0618 24.0005 74.9098 28.7672 68.5547 28.7672Z" fill="black"/>
<path d="M45.5391 28.7672C39.1833 28.7672 34.0312 24.0005 34.0312 18.1211H57.0462C57.0469 24.0005 51.8949 28.7672 45.5391 28.7672Z" fill="#D6F318"/>
<path d="M22.5234 28.7672C16.1676 28.7672 11.0156 24.0005 11.0156 18.1211H34.0305C34.0313 24.0005 28.8785 28.7672 22.5234 28.7672Z" fill="black"/>
<path d="M-0.492189 28.7672C-6.84799 28.7672 -12 24.0005 -12 18.1211H11.0157C11.0157 24.0005 5.86361 28.7672 -0.492189 28.7672Z" fill="#D6F318"/>
<path d="M356.242 18.1228L329.969 -45H349.48L379.258 18.1228H356.242Z" fill="#D6F318"/>
<path d="M333.236 18.1228L310.465 -45H290.953L310.221 18.1228H333.236Z" fill="#D6F318"/>
<path d="M287.198 18.1228L271.434 -45H251.922L264.184 18.1228H287.198Z" fill="#D6F318"/>
<path d="M241.169 18.1228L232.411 -45H212.898L218.153 18.1228H241.169Z" fill="#D6F318"/>
<path d="M193.389 -45L195.141 18.1228H172.125L173.877 -45H193.389Z" fill="#D6F318"/>
<path d="M154.363 -45L149.109 18.1228H126.094L134.851 -45H154.363Z" fill="#D6F318"/>
<path d="M115.339 -45L103.078 18.1228H80.0625L95.8276 -45H115.339Z" fill="#D6F318"/>
<path d="M76.3139 -45L57.0462 18.1228H34.0312L56.8017 -45H76.3139Z" fill="#D6F318"/>
<path d="M37.2896 -45L11.0157 18.1228H-12L17.7774 -45H37.2896Z" fill="#D6F318"/>
</g>
<defs>
<clipPath id="clip0_8529_44061">
<path d="M0 8C0 3.58172 3.58172 0 8 0H359C363.418 0 367 3.58172 367 8V29H0V8Z" fill="white"/>
</clipPath>
</defs>
</svg>
