<svg width="32" height="32" viewBox="0 0 32 32" fill="none" xmlns="http://www.w3.org/2000/svg">
<rect width="32" height="32" rx="16" fill="#EEF4FF"/>
<path d="M16 6C10.49 6 6 10.49 6 16C6 21.51 10.49 26 16 26C21.51 26 26 21.51 26 16C26 10.49 21.51 6 16 6ZM15.25 12C15.25 11.59 15.59 11.25 16 11.25C16.41 11.25 16.75 11.59 16.75 12V17C16.75 17.41 16.41 17.75 16 17.75C15.59 17.75 15.25 17.41 15.25 17V12ZM16.92 20.38C16.87 20.51 16.8 20.61 16.71 20.71C16.61 20.8 16.5 20.87 16.38 20.92C16.26 20.97 16.13 21 16 21C15.87 21 15.74 20.97 15.62 20.92C15.5 20.87 15.39 20.8 15.29 20.71C15.2 20.61 15.13 20.51 15.08 20.38C15.03 20.26 15 20.13 15 20C15 19.87 15.03 19.74 15.08 19.62C15.13 19.5 15.2 19.39 15.29 19.29C15.39 19.2 15.5 19.13 15.62 19.08C15.86 18.98 16.14 18.98 16.38 19.08C16.5 19.13 16.61 19.2 16.71 19.29C16.8 19.39 16.87 19.5 16.92 19.62C16.97 19.74 17 19.87 17 20C17 20.13 16.97 20.26 16.92 20.38Z" fill="#0053F5"/>
</svg>
