<svg width="29" height="22" viewBox="0 0 29 22" fill="none" xmlns="http://www.w3.org/2000/svg">
<path d="M28.5651 17.5651C28.5651 20.0095 26.5746 22 24.1302 22H0V4.43492C0 1.99048 1.99048 0 4.43492 0H28.5651V17.5651Z" fill="white"/>
<path d="M22.332 1.48438C20.5859 1.48438 19.1542 2.89866 19.1542 4.66215V7.96215H23.6415C23.7462 7.96215 23.8685 7.96215 23.9558 7.97961C24.9685 8.03199 25.7193 8.5558 25.7193 9.46374C25.7193 10.1796 25.2129 10.7907 24.2701 10.9129V10.9479C25.3002 11.0177 26.0859 11.5939 26.0859 12.4844C26.0859 13.4447 25.2129 14.0733 24.0605 14.0733H19.1367V20.5336H23.7986C25.5447 20.5336 26.9764 19.1193 26.9764 17.3558V1.48438H22.332Z" fill="#05A551"/>
<path d="M20.7081 13.0606H22.5415C22.5677 13.0606 22.6113 13.0562 22.655 13.0518C22.6986 13.0475 22.7423 13.0431 22.7685 13.0431C23.1177 12.9732 23.4145 12.659 23.4145 12.2225C23.4145 11.8034 23.1177 11.4891 22.7685 11.4018C22.7161 11.3844 22.6113 11.3844 22.5415 11.3844H20.7081V13.0606Z" fill="#05A551"/>
<path d="M22.5415 8.92246C22.8907 8.97484 23.1875 9.25421 23.1875 9.67326C23.1875 10.0923 22.8907 10.3717 22.5415 10.4241C22.524 10.4415 22.4193 10.4415 22.3669 10.4415H20.7081V8.905H22.3669C22.3957 8.905 22.4351 8.9103 22.4706 8.91505C22.4995 8.91894 22.5258 8.92246 22.5415 8.92246Z" fill="#05A551"/>
<path d="M4.76653 1.48438C3.0205 1.48438 1.58875 2.89866 1.58875 4.66215V12.5018C2.47923 12.9383 3.40462 13.2177 4.33002 13.2177C5.43002 13.2177 6.02367 12.5542 6.02367 11.6463V7.94469H8.74748V11.6288C8.74748 13.0606 7.857 14.2304 4.83637 14.2304C3.00303 14.2304 1.57129 13.8288 1.57129 13.8288V20.5161H6.23319C7.97923 20.5161 9.41097 19.1018 9.41097 17.3383V1.48438H4.76653Z" fill="#0A4EA1"/>
<path d="M13.5489 1.48438C11.8028 1.48438 10.3711 2.89866 10.3711 4.66215V8.81771C11.1743 8.13676 12.5711 7.70025 14.8235 7.80501C16.0282 7.85739 17.3203 8.18914 17.3203 8.18914V9.53358C16.6743 9.20183 15.906 8.90501 14.9108 8.83517C13.1997 8.71295 12.1695 9.55104 12.1695 11.0177C12.1695 12.5018 13.1997 13.3399 14.9108 13.2002C15.906 13.1304 16.6743 12.8161 17.3203 12.5018V13.8463C17.3203 13.8463 16.0457 14.178 14.8235 14.2304C12.5711 14.3352 11.1743 13.8987 10.3711 13.2177V20.551H15.033C16.779 20.551 18.2108 19.1368 18.2108 17.3733V1.48438H13.5489Z" fill="#EE1C24"/>
</svg>
