<svg width="250" height="176" viewBox="0 0 250 176" fill="none" xmlns="http://www.w3.org/2000/svg">
<path fill-rule="evenodd" clip-rule="evenodd" d="M143.004 40.3513C142.987 40.0732 142.842 39.9775 142.64 39.9405L142.59 39.9375H126.264C126.037 39.9513 125.864 40.1284 125.851 40.3513V48.1876C125.864 48.4155 126.042 48.5879 126.264 48.6014H142.59C142.818 48.5876 142.99 48.4105 143.004 48.1876V40.3513ZM126.678 47.774V40.7652H142.176V47.774H126.678Z" fill="#DCD6E3"/>
<path d="M150.498 39.9478C150.898 40.0548 150.925 40.7254 150.426 40.769H118.167C117.729 40.7306 117.646 39.9869 118.167 39.9414H150.426C150.45 39.9436 150.474 39.9455 150.498 39.9478Z" fill="#DCD6E3"/>
<path d="M149.848 47.7806C150.26 47.8976 150.25 48.5566 149.772 48.601H114.117C113.663 48.5591 113.589 47.8223 114.117 47.7734H149.772C149.797 47.7759 149.822 47.7781 149.848 47.7806Z" fill="#DCD6E3"/>
<path d="M134.335 31.0591C134.543 31.0883 134.7 31.2591 134.71 31.4712V40.3522C134.691 40.782 133.91 40.9467 133.883 40.3522V31.4712C133.894 31.2343 134.09 31.0478 134.335 31.0591Z" fill="#DCD6E3"/>
<path d="M134.349 47.7789C134.558 47.8148 134.701 47.9842 134.71 48.1894V54.6592C134.699 55.5309 133.954 56.2975 133.06 56.3091H126.917C126.052 56.2724 126.537 55.4978 126.917 55.4815C128.971 55.4815 131.025 55.5074 133.079 55.4812C133.509 55.4649 133.877 55.0889 133.882 54.6536V48.1894C133.893 47.9467 134.101 47.758 134.349 47.7789Z" fill="#DCD6E3"/>
<path fill-rule="evenodd" clip-rule="evenodd" d="M242.203 111.461C242.19 111.236 242.127 111.103 241.839 111.05L241.789 111.047H225.464C225.236 111.061 225.063 111.238 225.05 111.461V119.297C225.064 119.525 225.241 119.697 225.464 119.711H241.789C242.017 119.697 242.19 119.52 242.203 119.297V111.461ZM225.877 118.883V111.875H241.375V118.883H225.877Z" fill="#DCD6E3"/>
<path d="M249.698 111.053C250.098 111.16 250.126 111.831 249.627 111.874H217.367C216.914 111.835 216.847 111.092 217.367 111.047H249.627C249.651 111.049 249.675 111.051 249.698 111.053Z" fill="#DCD6E3"/>
<path d="M249.05 118.886C249.439 118.996 249.491 119.658 248.974 119.706H213.319C212.878 119.666 212.802 118.927 213.319 118.879H248.974C249 118.881 249.025 118.884 249.05 118.886Z" fill="#DCD6E3"/>
<path d="M233.536 102.165C233.744 102.194 233.902 102.365 233.912 102.577V111.458C233.892 111.888 233.111 112.042 233.084 111.458V102.577C233.095 102.34 233.291 102.153 233.536 102.165Z" fill="#DCD6E3"/>
<path d="M233.549 118.88C233.751 118.915 233.901 119.077 233.911 119.291V125.761C233.899 126.633 233.155 127.399 232.261 127.411H226.118C225.775 127.396 225.745 127.229 225.713 127.084C225.661 126.841 225.812 126.596 226.118 126.583C228.172 126.583 230.226 126.609 232.28 126.583C232.71 126.567 233.077 126.191 233.083 125.755V119.291C233.093 119.048 233.301 118.86 233.549 118.88Z" fill="#DCD6E3"/>
<path fill-rule="evenodd" clip-rule="evenodd" d="M63.2871 9.2927C63.2703 9.01463 63.1255 8.91891 62.9233 8.88194L62.8733 8.87891H46.5477C46.3198 8.8927 46.1474 9.0698 46.1339 9.2927V17.129C46.1477 17.3569 46.3248 17.5293 46.5477 17.5428H62.8733C63.1012 17.529 63.2736 17.3519 63.2871 17.129V9.2927ZM46.9613 16.7154V9.70662H62.4594V16.7154H46.9613Z" fill="#DCD6E3"/>
<path d="M70.7831 8.88916C71.1831 8.99619 71.2104 9.66681 70.7114 9.71039H38.452C38.0137 9.67205 37.9315 8.92833 38.452 8.88281H70.7114C70.7354 8.88502 70.7594 8.88695 70.7831 8.88916Z" fill="#DCD6E3"/>
<path d="M70.1329 16.722C70.5448 16.839 70.5348 17.498 70.0568 17.5424H34.4019C33.9481 17.5005 33.8739 16.7637 34.4019 16.7148H70.0568C70.0822 16.7173 70.1075 16.7195 70.1329 16.722Z" fill="#DCD6E3"/>
<path d="M54.6179 0.000488562C54.8264 0.0297297 54.9837 0.200487 54.9936 0.412623V9.29365C54.9564 10.1016 54.185 9.70413 54.166 9.29365V0.412623C54.1771 0.17566 54.3732 -0.0108217 54.6179 0.000488562Z" fill="#DCD6E3"/>
<path d="M54.6324 16.7203C54.8338 16.7548 54.9844 16.9165 54.9935 17.1308V23.6003C54.9825 24.4681 54.2379 25.2389 53.3436 25.2502H47.2005C46.8932 25.2372 46.8935 25.1468 46.8311 25.0226C46.7023 24.7674 46.8656 24.437 47.2005 24.4226C49.2545 24.4226 51.3089 24.4483 53.3626 24.4223C53.7927 24.4061 54.1604 24.0304 54.1659 23.5953V17.1308C54.1762 16.8881 54.3841 16.6994 54.6324 16.7203Z" fill="#DCD6E3"/>
<path fill-rule="evenodd" clip-rule="evenodd" d="M224.844 17.6482C224.827 17.3701 224.682 17.2744 224.48 17.2374L224.43 17.2344H208.104C207.876 17.2482 207.704 17.4253 207.691 17.6482V25.4845C207.704 25.7124 207.881 25.8848 208.104 25.8983H224.43C224.658 25.8845 224.83 25.7074 224.844 25.4845V17.6482ZM208.518 25.0709V18.0621H224.016V25.0709H208.518Z" fill="#DCD6E3"/>
<path d="M232.339 17.2446C232.734 17.3503 232.788 18.0203 232.267 18.0659H200.008C199.557 18.0264 199.451 17.2871 200.008 17.2383H232.267C232.291 17.2405 232.315 17.2424 232.339 17.2446Z" fill="#DCD6E3"/>
<path d="M231.691 25.0775C232.09 25.1911 232.154 25.848 231.615 25.8979H195.959C195.529 25.8579 195.383 25.1236 195.959 25.0703H231.615C231.64 25.0728 231.665 25.075 231.691 25.0775Z" fill="#DCD6E3"/>
<path d="M216.176 8.35596C216.385 8.3852 216.542 8.55596 216.552 8.76809V17.6491C216.515 18.4596 215.744 18.0734 215.725 17.6491V8.76809C215.736 8.53113 215.932 8.34465 216.176 8.35596Z" fill="#DCD6E3"/>
<path d="M216.19 25.0758C216.392 25.1103 216.542 25.2719 216.551 25.4863V31.956C216.54 32.8242 215.796 33.5944 214.902 33.6057H208.758C208.416 33.5911 208.385 33.4239 208.354 33.2791C208.302 33.036 208.453 32.7911 208.758 32.7781C210.812 32.7781 212.867 32.804 214.921 32.7778C215.351 32.7615 215.718 32.3855 215.724 31.9505V25.4863C215.734 25.2435 215.942 25.0548 216.19 25.0758Z" fill="#DCD6E3"/>
<path fill-rule="evenodd" clip-rule="evenodd" d="M29.2559 129.933C29.2423 129.709 29.1794 129.575 28.892 129.523L28.8421 129.52H12.5164C12.2885 129.533 12.1161 129.71 12.1026 129.933V137.769C12.1164 137.997 12.2935 138.17 12.5164 138.183H28.8421C29.0699 138.169 29.2423 137.992 29.2559 137.769V129.933ZM12.9301 137.356V130.347H28.4281V137.356H12.9301Z" fill="#DCD6E3"/>
<path d="M36.7512 129.53C37.1543 129.638 37.2238 130.303 36.6795 130.351H4.42019C3.96723 130.311 3.89964 129.569 4.42019 129.523H36.6795C36.7035 129.526 36.7275 129.528 36.7512 129.53Z" fill="#DCD6E3"/>
<path d="M36.1016 137.367C36.4978 137.479 36.5223 138.141 36.0255 138.187H0.370601C-0.0633269 138.147 -0.180291 137.41 0.370601 137.359H36.0255C36.0509 137.362 36.0762 137.364 36.1016 137.367Z" fill="#DCD6E3"/>
<path d="M20.5866 120.641C20.7952 120.67 20.9524 120.841 20.9623 121.053V129.934C20.924 130.765 20.1532 130.332 20.1348 129.934V121.053C20.1458 120.816 20.3419 120.63 20.5866 120.641Z" fill="#DCD6E3"/>
<path d="M20.6024 137.361C20.811 137.397 20.9547 137.566 20.9635 137.771V144.241C20.9525 145.114 20.2082 145.88 19.3139 145.891H13.1705C12.3258 145.855 12.7255 145.083 13.1705 145.064C15.2246 145.064 17.2789 145.089 19.3327 145.063C19.7627 145.047 20.1305 144.671 20.136 144.236V137.771C20.1462 137.529 20.3542 137.34 20.6024 137.361Z" fill="#DCD6E3"/>
<path d="M201.281 165.594C202.269 165.594 202.997 166.473 202.789 167.401C202.376 169.254 201.411 170.909 200.068 172.201C198.249 173.953 195.734 175.034 192.958 175.034H52.9263C48.1023 175.034 44.072 171.767 43.0963 167.406C42.8883 166.475 43.6138 165.594 44.603 165.594H201.281Z" fill="white"/>
<path fill-rule="evenodd" clip-rule="evenodd" d="M203.422 167.74C203.776 166.283 202.681 164.934 201.317 164.907C149.07 164.526 96.8197 164.526 44.5729 164.907C43.1026 164.937 42.1434 166.394 42.4643 167.723C43.5906 172.387 48.1384 175.689 52.8689 175.726C99.589 175.851 146.31 175.871 193.03 175.726C197.653 175.684 201.97 172.563 203.271 168.29C203.327 168.108 203.377 167.925 203.422 167.74ZM43.8399 167.539C43.6493 166.805 44.0391 166.29 44.6079 166.286C62.0179 166.286 79.4284 166.209 96.8388 166.131C131.66 165.977 166.481 165.823 201.297 166.286C201.9 166.294 202.204 166.933 202.062 167.493C201.011 171.638 197.077 174.31 193.021 174.346C146.306 174.491 99.5906 174.472 52.8757 174.346C49.3218 174.319 45.9486 172.266 44.4358 169.155C44.3525 168.983 44.2747 168.809 44.2027 168.632C44.1423 168.485 44.0863 168.335 44.0341 168.184C43.961 167.972 43.8962 167.757 43.8399 167.539Z" fill="black"/>
<path d="M160.442 75.3516H176.814C182.772 75.3516 187.601 80.1808 187.601 86.138V165.597H58.2871V86.138C58.2871 80.1808 63.1163 75.3516 69.0738 75.3516H153.168" fill="white"/>
<path d="M176.964 74.6602C182.88 74.754 188.271 79.8654 188.292 86.1343V165.595L188.24 165.859L188.09 166.082L187.867 166.232L187.603 166.284H58.289L58.025 166.232C57.8029 166.083 57.8004 166.081 57.6517 165.859L57.5993 165.595C57.5993 139.083 57.5163 112.572 57.5996 86.0612C57.6553 80.2249 62.7013 74.6793 69.0745 74.6594H153.17L153.434 74.7118L153.658 74.8613C153.806 75.0837 153.808 75.087 153.86 75.3491L153.807 75.613C153.659 75.8351 153.656 75.8376 153.434 75.9863L153.17 76.0387C125.117 76.0387 97.0633 75.951 69.0103 76.039C63.791 76.0886 58.996 80.592 58.9786 86.1365V164.905H186.913C186.913 138.627 187.002 112.348 186.913 86.0701C186.863 80.8348 182.36 76.0561 176.815 76.0387H160.443L160.179 75.9863L159.956 75.8368C159.807 75.6144 159.806 75.6111 159.754 75.3491L159.806 75.0851C159.955 74.863 159.957 74.8605 160.179 74.7118L160.443 74.6594C165.95 74.6594 171.458 74.6078 176.964 74.6602Z" fill="black"/>
<path fill-rule="evenodd" clip-rule="evenodd" d="M181.121 165.597H65.0488V89.9193C65.0488 85.2609 68.8251 81.4844 73.4838 81.4844H174.484C178.15 81.4844 181.121 84.4559 181.121 88.1216V165.597Z" fill="#D6F318"/>
<path fill-rule="evenodd" clip-rule="evenodd" d="M181.811 88.119C181.797 84.1122 178.345 80.8294 174.531 80.7936C140.829 80.6876 107.127 80.6896 73.4245 80.7936C68.5029 80.8407 64.4045 85.1237 64.3592 89.8589C64.3068 106.852 64.3242 123.846 64.3416 140.84C64.3503 149.321 64.359 157.803 64.359 166.285H181.811V88.119ZM65.7381 89.9204C65.7514 85.6653 69.4719 82.1864 73.4846 82.174C84.7087 82.174 95.9329 82.1388 107.157 82.1036C129.625 82.0331 152.094 81.9626 174.56 82.1745C177.77 82.2256 180.383 84.9977 180.431 88.0443C180.592 105.131 180.538 122.218 180.485 139.305C180.458 147.839 180.431 156.373 180.431 164.907H65.7381V89.9204Z" fill="black"/>
<path d="M138.817 168.825H106.794C105.393 168.825 104.258 167.69 104.258 166.29V165.594H141.352V166.29C141.352 167.69 140.217 168.825 138.817 168.825Z" fill="white"/>
<path fill-rule="evenodd" clip-rule="evenodd" d="M142.04 165.596C142.007 165.131 141.936 165.019 141.449 164.913L141.35 164.906H104.256C103.894 164.932 103.793 165.041 103.676 165.223C103.668 165.235 103.661 165.245 103.654 165.255C103.614 165.311 103.584 165.354 103.566 165.596V166.294C103.577 168.027 105.079 169.486 106.75 169.517C117.452 169.588 128.155 169.588 138.856 169.517C139.693 169.502 140.508 169.16 141.095 168.573C141.84 167.828 142.04 166.71 142.04 165.596ZM106.767 168.137C105.794 168.119 104.945 167.248 104.945 166.285H140.66V166.289C140.653 167.289 139.798 168.119 138.838 168.137C128.148 168.208 117.457 168.208 106.767 168.137Z" fill="black"/>
<path d="M126.394 77.9437C126.643 77.9737 126.688 78.0794 126.735 78.1787C126.854 78.4297 126.705 78.7561 126.361 78.7699H119.529C119.214 78.7572 119.218 78.6661 119.155 78.5334C119.037 78.2841 119.222 77.9547 119.529 77.9423C121.818 77.9423 124.108 77.8515 126.394 77.9437Z" fill="black"/>
<path d="M116.451 154.712H78.4832C76.6383 154.712 75.1426 153.216 75.1426 151.371V133.27C75.1426 131.425 76.6383 129.93 78.4832 129.93H116.451C118.296 129.93 119.791 131.425 119.791 133.27V151.371C119.791 153.216 118.296 154.712 116.451 154.712Z" fill="white" fill-opacity="0.3"/>
<path d="M170.974 94.8077V101.653C170.974 103.608 169.583 105.192 167.868 105.192H129.433C127.717 105.192 126.326 103.608 126.326 101.653V94.8107C126.326 92.8549 127.718 91.2695 129.435 91.2695H167.868C169.583 91.2695 170.974 92.8538 170.974 94.8077Z" fill="white" fill-opacity="0.3"/>
<path d="M115.642 123.346H79.2918C77.0002 123.346 75.1426 121.489 75.1426 119.197V95.419C75.1426 93.1274 77.0002 91.2695 79.2918 91.2695H115.642C117.934 91.2695 119.791 93.1274 119.791 95.419V119.197C119.791 121.489 117.934 123.346 115.642 123.346Z" fill="white" fill-opacity="0.3"/>
<path d="M167.058 154.874H130.326C128.139 154.874 126.367 153.102 126.367 150.916V114.841C126.367 112.655 128.139 110.883 130.326 110.883H167.058C169.244 110.883 171.016 112.655 171.016 114.841V150.916C171.016 153.102 169.244 154.874 167.058 154.874Z" fill="white" fill-opacity="0.3"/>
<path d="M116.451 154.712H78.4832C76.6383 154.712 75.1426 153.216 75.1426 151.371V133.27C75.1426 131.425 76.6383 129.93 78.4832 129.93H116.451C118.296 129.93 119.791 131.425 119.791 133.27V151.371C119.791 153.216 118.296 154.712 116.451 154.712Z" fill="white" fill-opacity="0.3"/>
<path d="M170.974 94.8077V101.653C170.974 103.608 169.583 105.192 167.868 105.192H129.433C127.717 105.192 126.326 103.608 126.326 101.653V94.8107C126.326 92.8549 127.718 91.2695 129.435 91.2695H167.868C169.583 91.2695 170.974 92.8538 170.974 94.8077Z" fill="white" fill-opacity="0.3"/>
<path d="M115.642 123.346H79.2918C77.0002 123.346 75.1426 121.489 75.1426 119.197V95.419C75.1426 93.1274 77.0002 91.2695 79.2918 91.2695H115.642C117.934 91.2695 119.791 93.1274 119.791 95.419V119.197C119.791 121.489 117.934 123.346 115.642 123.346Z" fill="white" fill-opacity="0.3"/>
<path d="M167.058 154.874H130.326C128.139 154.874 126.367 153.102 126.367 150.916V114.841C126.367 112.655 128.139 110.883 130.326 110.883H167.058C169.244 110.883 171.016 112.655 171.016 114.841V150.916C171.016 153.102 169.244 154.874 167.058 154.874Z" fill="white" fill-opacity="0.3"/>
<path fill-rule="evenodd" clip-rule="evenodd" d="M140.907 116.963C139.199 113.776 135.927 109.662 133.33 110.31C132.458 110.529 131.467 111.023 130.473 111.642L130.146 104.164C130.146 104.164 130.663 102.346 132.943 102.084C135.238 101.82 137.346 103.374 137.885 105.621C138.172 106.822 138.418 109.234 138.5 111.727C138.522 112.39 138.71 113.039 139.058 113.605C139.528 114.367 140.239 115.582 140.907 116.963Z" fill="#FFD0C2"/>
<path fill-rule="evenodd" clip-rule="evenodd" d="M138.44 105.047C137.755 102.946 135.682 101.393 133.483 101.367C131.623 101.367 129.456 102.675 129.459 104.196L129.785 111.674C129.813 111.988 130.048 112.271 130.358 112.324C130.602 112.366 130.837 112.231 130.837 112.231C132.157 111.415 133.552 110.656 134.735 111.104C137.217 112.044 138.838 114.648 140.182 117.073C140.568 117.774 141.344 117.753 141.552 117.213C141.612 117.057 141.652 116.91 141.401 116.402C141.296 116.19 141.188 115.978 141.079 115.767C140.704 115.047 140.305 114.339 139.888 113.642C139.521 113.032 139.235 112.444 139.194 111.783C139.171 111.349 139.154 110.909 139.137 110.467C139.068 108.634 138.998 106.757 138.44 105.047ZM130.855 104.244C131.268 103.314 132.331 102.771 133.385 102.746C133.43 102.746 133.475 102.746 133.52 102.746C137.506 102.842 137.66 107.323 137.791 111.13C137.796 111.281 137.801 111.431 137.807 111.58L137.806 111.579C136.765 110.581 135.458 109.569 133.928 109.554C133.089 109.545 132.304 109.89 131.558 110.25C131.478 110.29 131.398 110.33 131.318 110.37C131.25 110.405 131.182 110.441 131.115 110.476L130.855 104.244Z" fill="black"/>
<path fill-rule="evenodd" clip-rule="evenodd" d="M130.473 111.644C127.572 113.446 124.651 116.289 124.651 116.289C124.651 116.289 124.559 116.43 124.464 116.651C124.439 115.252 124.443 113.586 124.295 111.645C123.94 107.001 122.41 106.577 122.41 106.577C122.41 106.577 122.623 102.414 126.572 102.414C127.6 102.414 128.449 102.728 129.149 103.227C129.786 103.682 130.158 104.421 130.192 105.202L130.473 111.644Z" fill="#FFD0C2"/>
<path fill-rule="evenodd" clip-rule="evenodd" d="M130.857 104.896C130.608 102.912 128.569 101.751 126.626 101.723C124.493 101.712 122.765 103.023 122.086 104.883C121.764 105.763 121.482 106.837 122.093 107.188C122.093 107.188 122.566 107.559 122.802 108.038C123.832 110.132 123.804 112.537 123.777 114.905C123.77 115.494 123.764 116.081 123.773 116.66C123.801 117.109 124.092 117.332 124.451 117.339C124.721 117.343 124.808 117.226 124.956 117.024C125.042 116.907 125.149 116.762 125.326 116.595C126.948 115.065 128.687 113.611 130.574 112.394C130.967 112.142 131.161 111.927 131.162 111.611L130.88 105.168C130.876 105.077 130.869 104.986 130.857 104.896ZM124.267 103.938C124.874 103.354 125.706 103.112 126.531 103.101C127.996 103.095 129.42 103.926 129.501 105.203C129.569 106.556 129.625 107.909 129.681 109.263C129.709 109.933 129.737 110.602 129.766 111.272L129.758 111.278C128.112 112.349 126.581 113.598 125.126 114.904L125.121 114.644C125.108 114.043 125.09 113.443 125.06 112.843C125.054 112.715 125.048 112.586 125.042 112.454C124.94 110.275 124.815 107.597 123.149 106.226C123.298 105.387 123.64 104.54 124.267 103.938Z" fill="black"/>
<mask id="mask0_2314_19682" style="mask-type:luminance" maskUnits="userSpaceOnUse" x="123" y="115" width="3" height="5">
<rect x="123.57" y="115.965" width="1.65295" height="3.15997" fill="white"/>
</mask>
<g mask="url(#mask0_2314_19682)">
<path d="M124.461 116.652C124.278 117.08 124.087 117.812 124.533 118.433C124.49 117.895 124.471 117.303 124.461 116.652Z" fill="white"/>
<path d="M124.493 115.965C125.473 116.026 125.474 118.152 125.137 118.766C125.102 118.831 125.056 118.89 125.002 118.94C124.577 119.334 123.85 118.942 123.639 118.127C123.398 117.188 123.671 115.94 124.493 115.965Z" fill="black"/>
</g>
<path fill-rule="evenodd" clip-rule="evenodd" d="M119.349 121.674C119.229 122.788 118.702 125.033 116.397 124.329C115.602 124.086 114.976 123.595 114.477 122.966C112.678 120.701 112.496 116.64 111.773 115.852C111.72 115.794 111.663 115.747 111.604 115.706C110.944 115.257 109.956 115.864 109.396 116.293C109.135 116.492 108.967 116.654 108.967 116.654C108.981 116.559 108.992 116.474 109.003 116.397C109.043 116.121 109.069 115.969 109.069 115.969C109.069 115.969 109.389 113.301 111.523 111.808C113.658 110.312 115.365 110.74 115.365 110.74C115.365 110.74 117.157 110.881 118.078 113.99C118.235 114.519 118.368 115.136 118.461 115.852C118.739 117.983 118.929 119.563 119.261 120.699C119.352 121.012 119.385 121.339 119.35 121.663C119.349 121.667 119.349 121.67 119.349 121.674Z" fill="#FFD0C2"/>
<path fill-rule="evenodd" clip-rule="evenodd" d="M119.136 115.691C118.804 113.27 117.746 110.057 114.824 109.993C114.765 109.992 114.705 109.992 114.646 109.993C111.58 110.079 109.196 112.5 108.509 115.253C108.317 116.026 108.086 117.035 108.705 117.289C109.059 117.435 109.442 117.153 109.442 117.153C110.063 116.564 111.141 115.949 111.385 116.549C111.663 117.232 111.869 118.029 112.083 118.86C112.578 120.78 113.121 122.883 114.715 124.188C117.155 126.186 119.297 124.635 119.813 122.885C120.029 122.155 120.144 121.343 119.944 120.577C119.585 119.264 119.419 117.934 119.252 116.601C119.214 116.298 119.176 115.995 119.136 115.691ZM109.983 115.12C110.692 113.011 112.559 111.404 114.72 111.371C114.914 111.37 114.976 111.363 115.038 111.367C115.099 111.372 115.159 111.388 115.347 111.434C115.855 111.559 116.278 111.97 116.595 112.409C117.62 113.829 117.827 115.672 118.037 117.551C118.149 118.555 118.263 119.568 118.503 120.533C118.507 120.55 118.511 120.565 118.515 120.58C118.53 120.638 118.543 120.69 118.583 120.831C118.774 121.502 118.691 123.143 117.726 123.655C117.405 123.825 117.022 123.784 116.686 123.692C116.617 123.673 116.549 123.652 116.481 123.628C114.504 122.928 113.859 120.53 113.326 118.424C113.262 118.171 113.209 117.915 113.156 117.661C112.985 116.845 112.819 116.052 112.347 115.459C111.557 114.466 109.983 115.12 109.983 115.12Z" fill="black"/>
<path fill-rule="evenodd" clip-rule="evenodd" d="M142.688 123.228C142.497 126.744 139.684 133.223 134.924 138.97C133.732 140.411 133.083 142.225 133.083 144.095V165.597H113.339L113.44 144.251C113.545 139.982 111.632 138.277 109.498 132.299C107.692 127.244 108.635 119.058 108.968 116.655C108.968 116.655 110.639 115.051 111.606 115.707C111.637 115.728 111.667 115.752 111.696 115.778C111.711 115.79 111.723 115.802 111.735 115.815C111.749 115.827 111.762 115.84 111.775 115.854C111.79 115.87 111.807 115.89 111.822 115.911C111.834 115.928 111.847 115.944 111.858 115.964C111.868 115.976 111.876 115.99 111.885 116.004C111.891 116.015 111.898 116.027 111.904 116.039C112.156 116.486 112.35 117.36 112.605 118.384C112.629 118.483 112.654 118.582 112.679 118.683C112.698 118.756 112.716 118.83 112.736 118.904C112.775 119.054 112.815 119.206 112.857 119.359C112.885 119.458 112.913 119.557 112.942 119.657C112.962 119.727 112.982 119.795 113.003 119.865C113.013 119.896 113.023 119.926 113.031 119.956C113.056 120.038 113.083 120.12 113.109 120.201C113.15 120.325 113.192 120.448 113.235 120.571C113.286 120.719 113.341 120.865 113.399 121.01C113.434 121.099 113.47 121.188 113.508 121.276C113.552 121.381 113.6 121.486 113.647 121.589C113.679 121.657 113.711 121.725 113.746 121.793C113.788 121.877 113.831 121.961 113.875 122.043C113.92 122.125 113.966 122.207 114.014 122.287C114.061 122.366 114.11 122.446 114.16 122.522C114.207 122.596 114.257 122.67 114.309 122.741C114.313 122.747 114.316 122.751 114.32 122.756C114.367 122.824 114.418 122.891 114.47 122.957C114.473 122.96 114.476 122.964 114.479 122.967C114.978 123.596 115.603 124.087 116.399 124.331C118.704 125.034 119.23 122.79 119.35 121.675C119.389 121.324 119.386 121.084 119.386 121.084C119.436 121.225 119.489 121.359 119.548 121.484C119.566 121.526 119.585 121.566 119.606 121.607C119.608 121.609 119.609 121.614 119.611 121.616C119.634 121.662 119.658 121.708 119.683 121.752C119.691 121.77 119.702 121.788 119.712 121.804C119.734 121.845 119.758 121.883 119.782 121.92C119.813 121.969 119.845 122.016 119.878 122.062V122.064C119.912 122.108 119.945 122.153 119.981 122.195C120.015 122.238 120.052 122.28 120.09 122.319C120.125 122.358 120.162 122.394 120.2 122.429C120.206 122.434 120.211 122.44 120.217 122.444C120.292 122.512 120.37 122.577 120.453 122.634C120.458 122.636 120.462 122.639 120.466 122.642C120.499 122.666 120.534 122.688 120.571 122.709C120.575 122.713 120.579 122.715 120.583 122.717C120.6 122.727 120.616 122.738 120.633 122.747C120.669 122.767 120.705 122.787 120.742 122.805C120.775 122.823 120.81 122.84 120.846 122.855C120.852 122.858 120.859 122.862 120.866 122.864C120.884 122.873 120.904 122.881 120.923 122.889C121.004 122.923 121.089 122.954 121.178 122.981C121.199 122.989 121.218 122.994 121.239 123C121.302 123.018 121.368 123.036 121.433 123.051C121.478 123.062 121.523 123.071 121.569 123.081C121.646 123.096 121.726 123.108 121.806 123.121C121.967 123.145 122.118 123.156 122.262 123.156C122.3 123.156 122.337 123.155 122.375 123.153C122.412 123.152 122.449 123.151 122.485 123.146C122.521 123.144 122.556 123.139 122.591 123.135C122.622 123.131 122.651 123.127 122.68 123.121C122.688 123.12 122.697 123.119 122.705 123.117C122.734 123.113 122.764 123.107 122.793 123.1C122.836 123.091 122.881 123.08 122.923 123.067C122.947 123.06 122.972 123.053 122.996 123.045C123.024 123.035 123.052 123.025 123.08 123.016C123.106 123.006 123.133 122.994 123.158 122.983C123.184 122.972 123.209 122.961 123.235 122.948C123.247 122.943 123.258 122.937 123.269 122.932C123.292 122.921 123.313 122.91 123.333 122.898C123.375 122.875 123.416 122.851 123.455 122.826C123.474 122.813 123.494 122.801 123.512 122.788C123.524 122.779 123.536 122.772 123.547 122.763C123.568 122.748 123.587 122.734 123.607 122.717C123.814 122.554 123.985 122.355 124.125 122.139C124.147 122.104 124.168 122.069 124.189 122.033C124.37 121.725 124.493 121.389 124.576 121.076C124.601 120.981 124.622 120.889 124.64 120.801C124.66 120.704 124.677 120.612 124.691 120.524C124.696 120.491 124.7 120.459 124.705 120.427C124.709 120.401 124.712 120.378 124.714 120.354C124.72 120.316 124.723 120.281 124.727 120.248C124.738 120.135 124.744 120.041 124.748 119.971C124.749 119.954 124.749 119.94 124.749 119.926C124.752 119.883 124.752 119.855 124.752 119.847C124.784 119.974 124.82 120.096 124.862 120.213C124.96 120.499 125.084 120.757 125.241 120.987C126.36 122.624 130.148 123.028 130.494 119.047C130.494 119.047 130.54 121.729 133.003 121.998C133.318 121.901 133.574 121.827 133.753 121.777C133.928 121.728 134.051 121.568 134.052 121.387C134.071 118.679 132.549 118.284 132.549 118.284C132.117 118.464 131.247 118.78 130.494 119.047C129.53 119.391 128.51 119.556 127.492 119.515C127.196 119.503 126.899 119.475 126.605 119.428C125.465 119.244 124.848 118.867 124.537 118.437L124.536 118.435C124.09 117.814 124.281 117.083 124.465 116.655V116.653C124.56 116.432 124.652 116.291 124.652 116.291C124.652 116.291 126.898 113.351 129.798 111.548C130.763 110.949 132.255 110.239 133.14 109.996L133.223 109.974C135.589 109.383 138.604 113.027 140.414 116.088C140.591 116.389 140.757 116.683 140.909 116.967C141.302 117.779 141.682 118.649 141.989 119.518C141.989 119.521 141.99 119.522 141.99 119.525C142.451 120.828 142.748 122.128 142.688 123.228Z" fill="#FFD0C2"/>
<path fill-rule="evenodd" clip-rule="evenodd" d="M142.664 119.369C144.155 123.654 142.363 128.583 139.868 133.001C138.572 135.297 137.031 137.448 135.377 139.503C134.352 140.792 133.783 142.417 133.77 144.055V165.597C133.77 165.597 133.726 166.23 133.08 166.287H113.337C112.776 166.237 112.689 166.107 112.647 165.594L112.747 144.242C112.761 143.576 112.71 142.382 112.42 141.281C111.976 139.595 111.241 138.028 110.497 136.441C109.69 134.719 108.872 132.974 108.402 131.029C107.289 126.422 107.629 121.457 108.249 116.806C108.363 115.952 109.278 115.464 109.908 115.159C110.689 114.782 111.772 114.695 112.372 115.5C113.042 116.396 113.267 117.483 113.503 118.627C113.748 119.812 114.006 121.059 114.785 122.221C114.976 122.507 115.047 122.585 115.134 122.682C115.15 122.699 115.166 122.717 115.183 122.736C115.849 123.474 116.92 124.084 117.724 123.659C118.64 123.173 118.689 121.967 118.694 121.095C118.694 121.095 119.082 120.114 119.728 120.487L119.733 120.49C119.781 120.518 119.814 120.536 119.841 120.561C119.896 120.61 119.93 120.683 120.033 120.903L120.033 120.903L120.033 120.903C120.074 120.992 120.126 121.104 120.195 121.247C120.398 121.669 120.695 121.996 121.137 122.23C121.12 122.222 121.085 122.208 121.027 122.194C121.027 122.194 123.837 123.574 124.057 119.923C124.076 119.68 124.077 119.678 124.098 119.619L124.1 119.615C124.123 119.549 124.181 119.492 124.234 119.439C124.318 119.356 124.391 119.283 124.3 119.202C124.023 118.946 123.97 118.834 123.97 118.834C123.479 118.141 123.485 117.19 123.826 116.388C124.006 115.965 124.202 115.733 124.401 115.499C124.424 115.472 124.447 115.445 124.47 115.417C126.722 112.724 129.526 110.306 132.907 109.345C134.615 108.859 136.358 110.07 137.501 111.163C139.078 112.671 140.339 114.499 141.394 116.42C141.513 116.636 142.167 117.984 142.607 119.204L142.672 119.443C142.672 119.443 142.659 119.328 142.664 119.369ZM121.151 122.237C121.151 122.237 121.147 122.235 121.137 122.23L121.151 122.237ZM132.732 117.621C134.687 118.167 135.569 121.881 133.977 122.43C133.614 122.539 133.111 122.681 133.111 122.681C132.095 122.775 131.102 122.13 130.516 121.283C130.098 121.959 129.44 122.484 128.665 122.714C127.426 123.081 126.001 122.723 125.071 121.847C125.071 121.847 124.635 122.84 123.921 123.343L123.352 123.65C122.495 123.982 121.519 123.856 120.65 123.525C120.65 123.525 119.877 123.094 120.184 123.284C120.13 123.253 120.117 123.243 120.1 123.231C120.094 123.227 120.088 123.222 120.079 123.216C120.028 123.182 120.001 123.118 119.979 123.064C119.92 122.924 119.89 122.855 119.563 123.551C119.198 124.327 118.528 124.976 117.646 125.121C116.219 125.356 114.787 124.504 113.957 123.423C113.906 123.357 113.97 123.436 113.97 123.436C113.97 123.436 112.498 120.712 112.008 118.856C111.953 118.635 111.905 118.41 111.857 118.185L111.857 118.185L111.857 118.185L111.857 118.185C111.725 117.565 111.593 116.944 111.314 116.404C111.314 116.404 110.66 116.133 109.623 116.995L109.614 117.003C108.929 122.187 108.52 127.605 110.243 132.342C110.679 133.541 111.207 134.708 111.732 135.866C112.971 138.605 114.189 141.297 114.127 144.261L114.029 164.909H132.39C132.39 162.594 132.384 160.28 132.378 157.965L132.378 157.963C132.366 153.309 132.354 148.655 132.391 144.001C132.421 141.797 133.42 139.745 134.824 138C137.865 134.187 140.5 129.895 141.663 125.224C142.114 123.415 141.958 121.518 141.337 119.756C141.253 119.468 141.31 119.678 141.31 119.678C141.028 118.884 140.687 118.107 140.321 117.344C140.321 117.344 139.404 115.62 138.254 114.105C137.256 112.79 136.133 111.462 134.689 110.827C133.38 110.251 131.783 111.183 130.428 111.974L130.428 111.974C128.397 113.16 126.651 114.86 125.219 116.684C125.108 116.826 124.785 117.501 125.054 117.974C125.032 117.958 125.02 117.949 125.02 117.949L125.082 118.019C125.072 118.004 125.063 117.989 125.054 117.974C125.239 118.108 126.161 118.737 127.315 118.817C129.013 118.934 130.681 118.301 132.243 117.665C132.243 117.665 132.439 117.565 132.732 117.621ZM120.928 122.12C121.066 122.203 120.931 122.122 120.931 122.122L120.926 122.118C120.926 122.118 120.927 122.118 120.928 122.12ZM125.473 119.875C126.035 121.638 128.867 122.097 129.596 120.019C128.237 120.312 126.804 120.304 125.499 119.871C125.499 119.871 125.462 119.841 125.473 119.875ZM131.246 119.51C131.246 119.51 131.994 119.241 132.511 119.041C132.533 119.032 132.999 119.51 133.147 119.918C133.17 119.981 133.19 120.046 133.209 120.111C133.233 120.196 133.254 120.283 133.272 120.37C133.317 120.595 133.341 120.825 133.353 121.055C133.362 121.253 133.111 121.322 132.941 121.295C131.978 121.136 131.423 120.338 131.246 119.51Z" fill="black"/>
<path d="M120.217 122.442C120.291 122.51 120.37 122.573 120.454 122.631C120.37 122.574 120.292 122.51 120.217 122.442Z" fill="white"/>
<path d="M120.221 121.754C120.992 121.764 121.607 123.169 120.548 123.316C120.46 123.329 120.37 123.324 120.284 123.302C119.797 123.178 119.411 122.673 119.563 122.223C119.655 121.949 119.932 121.754 120.221 121.754Z" fill="black"/>
<path fill-rule="evenodd" clip-rule="evenodd" d="M124.751 119.845V119.848C124.751 119.856 124.751 119.884 124.748 119.927C124.748 119.941 124.748 119.955 124.746 119.972C124.742 120.042 124.737 120.136 124.726 120.249C124.721 120.283 124.717 120.318 124.713 120.355C124.71 120.379 124.706 120.403 124.703 120.427C124.699 120.46 124.694 120.492 124.689 120.525C124.676 120.613 124.659 120.705 124.639 120.802C124.621 120.892 124.599 120.984 124.575 121.077C124.492 121.39 124.369 121.726 124.188 122.034C124.167 122.07 124.146 122.105 124.124 122.14C123.984 122.356 123.813 122.555 123.605 122.718C123.586 122.734 123.566 122.749 123.545 122.764C123.534 122.773 123.523 122.78 123.511 122.789C123.492 122.802 123.473 122.814 123.453 122.827C123.414 122.852 123.374 122.876 123.332 122.899C123.311 122.91 123.291 122.922 123.268 122.933C123.257 122.938 123.246 122.944 123.233 122.95C123.208 122.962 123.183 122.973 123.157 122.984C123.132 122.995 123.105 123.007 123.079 123.016C123.051 123.026 123.023 123.036 122.995 123.046C122.971 123.054 122.946 123.061 122.921 123.068C122.88 123.081 122.835 123.092 122.792 123.101C122.762 123.108 122.734 123.114 122.704 123.118C122.696 123.12 122.687 123.121 122.679 123.122C122.649 123.128 122.62 123.133 122.59 123.136C122.555 123.142 122.519 123.145 122.484 123.147C122.448 123.152 122.411 123.153 122.374 123.154C122.336 123.156 122.298 123.157 122.261 123.157C122.117 123.157 121.965 123.146 121.805 123.122C121.724 123.11 121.645 123.097 121.568 123.082C121.521 123.072 121.476 123.062 121.432 123.053C121.366 123.037 121.301 123.019 121.238 123.001C121.217 122.995 121.196 122.989 121.177 122.982C121.088 122.955 121.003 122.924 120.922 122.89C120.902 122.883 120.883 122.874 120.865 122.864C120.858 122.863 120.851 122.859 120.845 122.856C120.809 122.841 120.774 122.824 120.741 122.806C120.704 122.788 120.668 122.768 120.632 122.747C120.615 122.739 120.598 122.729 120.582 122.718C120.578 122.715 120.573 122.714 120.569 122.71C120.533 122.689 120.498 122.667 120.465 122.643C120.461 122.64 120.456 122.637 120.452 122.635C120.369 122.578 120.291 122.514 120.216 122.445C120.21 122.441 120.204 122.435 120.199 122.43C120.161 122.395 120.123 122.357 120.089 122.32C120.051 122.281 120.015 122.239 119.98 122.196C119.945 122.154 119.912 122.111 119.877 122.065V122.063C119.843 122.017 119.811 121.97 119.781 121.921C119.757 121.884 119.733 121.846 119.711 121.805C119.701 121.789 119.69 121.771 119.682 121.753C119.657 121.709 119.633 121.664 119.609 121.618C119.608 121.615 119.606 121.61 119.605 121.608C119.584 121.567 119.565 121.527 119.547 121.485C119.488 121.36 119.435 121.226 119.385 121.085C118.973 119.931 118.772 118.237 118.461 115.855C117.82 110.936 115.365 110.743 115.365 110.743C115.365 110.743 114.673 107.764 118.301 106.27C119.799 105.653 121.649 106.167 122.41 106.581C122.41 106.581 123.94 107.004 124.295 111.648C124.443 113.589 124.438 115.255 124.464 116.655V116.656C124.28 117.083 124.089 117.815 124.535 118.437L124.536 118.438C124.576 118.959 124.643 119.429 124.751 119.845Z" fill="#FFD0C2"/>
<path fill-rule="evenodd" clip-rule="evenodd" d="M122.695 105.948C121.856 105.5 120.88 105.306 119.92 105.293C118.103 105.283 116.152 106.294 115.207 107.952C114.562 109.081 114.196 110.796 114.988 111.317C115.155 111.427 115.164 111.426 115.204 111.422C115.224 111.421 115.253 111.418 115.315 111.43C115.856 111.543 116.286 111.978 116.608 112.428C117.624 113.85 117.816 115.653 118.011 117.483C118.162 118.895 118.315 120.323 118.848 121.604C118.885 121.693 118.911 121.759 118.931 121.812C119.004 122.003 119.016 122.034 119.312 122.455C119.348 122.506 119.767 123.009 120.147 123.257C120.228 123.308 120.134 123.257 120.134 123.258C120.133 123.258 120.167 123.277 120.294 123.346C120.573 123.5 120.579 123.499 120.585 123.497C120.588 123.497 120.591 123.496 120.625 123.514C120.625 123.514 121.155 123.712 121.573 123.781C122.603 123.952 123.93 123.337 123.93 123.337C124.6 122.858 125.007 122.099 125.225 121.32C125.367 120.811 125.499 120.258 125.433 119.73C125.433 119.73 125.31 119.18 125.264 118.785C125.203 118.251 124.971 117.899 124.971 117.899L125.086 118.017C124.748 117.515 125.155 116.647 125.155 116.647C125.149 116.294 125.145 115.941 125.141 115.588C125.12 113.734 125.099 111.883 124.809 110.073C124.557 108.5 124.025 106.465 122.695 105.948ZM120.843 106.772C121.637 106.928 122.523 107.363 122.181 107.23L122.176 107.228C122.171 107.225 122.189 107.244 122.222 107.28C122.339 107.401 122.64 107.716 122.787 108.008C123.794 110.007 123.782 112.465 123.77 114.897C123.767 115.444 123.764 115.989 123.773 116.528L123.768 116.541C123.5 117.269 123.516 118.083 123.865 118.667C123.915 119.234 124.06 119.924 124.06 119.924C123.974 121.016 123.386 122.34 122.481 122.455C121.615 122.565 120.724 122.179 120.326 121.489C120.217 121.3 120.218 121.301 120.227 121.314C120.232 121.322 120.241 121.335 120.231 121.313C119.67 120.146 119.467 118.611 119.259 117.041C118.914 114.442 118.556 111.748 116.545 110.48C116.309 110.331 116.004 110.188 116.004 110.188C115.987 107.813 118.628 106.338 120.843 106.772Z" fill="black"/>
<path d="M133.079 121.312C133.449 121.369 133.469 121.468 133.559 121.589C133.856 121.994 133.662 122.511 132.953 122.736C129.754 123.765 126.529 125.139 124.28 127.474C122.665 129.152 121.811 131.75 122.299 134.011C122.299 134.011 122.245 134.869 121.601 134.846C120.942 134.823 120.809 133.794 120.809 132.919C120.806 127.683 125.664 123.742 131.936 121.619C132.135 121.552 132.334 121.486 132.534 121.422C132.701 121.369 132.783 121.292 133.079 121.312Z" fill="black"/>
<path d="M140.94 116.278C141.615 116.321 141.914 117.356 142.261 118.194C142.457 118.668 142.805 119.104 142.657 119.688C142.493 120.331 141.517 120.333 141.258 119.466C141.024 118.709 140.675 117.992 140.3 117.291C140.3 117.291 140.185 116.258 140.94 116.278Z" fill="black"/>
<path d="M128.778 113.408C129.489 113.45 130.57 114.283 131.094 115.19C131.291 115.567 130.715 116.096 130.329 115.534C129.893 114.915 129.251 114.514 128.577 114.191C128.245 114.015 128.351 113.402 128.778 113.408Z" fill="black"/>
<path fill-rule="evenodd" clip-rule="evenodd" d="M134.052 121.384C134.051 121.565 133.929 121.725 133.753 121.774C133.727 121.781 133.7 121.789 133.672 121.797C132.755 122.058 131.751 121.761 131.172 121.004C130.513 120.143 130.494 119.045 130.494 119.045C131.248 118.777 132.117 118.461 132.549 118.281C132.549 118.281 134.071 118.677 134.052 121.384Z" fill="#FFD0C2"/>
<path fill-rule="evenodd" clip-rule="evenodd" d="M133.982 122.428C135.668 121.879 134.456 117.732 132.585 117.595C131.995 117.577 131.467 117.834 130.935 118.092C130.704 118.205 130.473 118.317 130.234 118.408C129.584 118.691 129.803 119.687 130.093 120.455C130.194 120.723 130.322 120.981 130.479 121.221C131.485 122.753 133.663 122.532 133.982 122.428ZM131.25 119.51C131.25 119.51 131.997 119.24 132.514 119.041C132.528 119.035 132.531 119.037 132.542 119.047C132.546 119.05 132.552 119.054 132.559 119.059C133.454 119.719 133.36 121.167 133.36 121.167C132.468 121.343 131.697 120.768 131.397 120.002C131.371 119.936 131.348 119.87 131.327 119.803C131.296 119.706 131.271 119.609 131.25 119.51Z" fill="black"/>
<path fill-rule="evenodd" clip-rule="evenodd" d="M130.494 119.048C130.148 123.029 126.36 122.625 125.241 120.987C125.019 120.664 124.863 120.284 124.752 119.848V119.845C124.645 119.428 124.578 118.959 124.537 118.438C124.848 118.868 125.465 119.244 126.605 119.428C127.911 119.637 129.248 119.492 130.494 119.048Z" fill="#FFD0C2"/>
<path fill-rule="evenodd" clip-rule="evenodd" d="M125.205 118.11C125.012 117.937 124.829 117.771 124.586 117.746C124.52 117.743 123.997 117.866 123.881 118.216C123.858 118.285 123.846 118.321 123.846 118.45C123.846 118.45 123.915 119.279 124.039 119.835C124.058 119.917 124.068 119.957 124.074 119.972C124.088 120.055 124.113 120.136 124.137 120.217C124.14 120.226 124.142 120.234 124.145 120.243C124.763 122.298 127.011 123.32 128.861 122.645C130.251 122.138 131.001 120.693 131.164 119.258C131.264 118.308 130.262 118.394 130.262 118.394C128.792 118.912 127.086 119.072 125.699 118.468C125.507 118.384 125.353 118.245 125.205 118.11ZM129.579 120.064C128.785 122.191 126.003 121.544 125.477 119.877C125.46 119.823 125.547 119.881 125.547 119.881C126.789 120.279 128.143 120.294 129.434 120.047C129.772 119.98 129.579 120.064 129.579 120.064Z" fill="black"/>
<path d="M109.003 116.398L109.396 116.293C109.135 116.492 108.967 116.654 108.967 116.654C108.981 116.559 108.992 116.474 109.003 116.398Z" fill="white"/>
<path fill-rule="evenodd" clip-rule="evenodd" d="M109.695 116.931C110.326 116.424 109.99 115.607 109.403 115.598C109.235 115.598 109.043 115.658 108.854 115.717C108.834 115.723 108.815 115.729 108.796 115.734C108.008 115.991 108.258 117.307 108.938 117.337C109.198 117.349 109.403 117.176 109.603 117.007C109.634 116.981 109.664 116.956 109.695 116.931ZM109.469 116.736L109.521 116.678C109.521 116.678 109.338 116.472 109.469 116.736Z" fill="black"/>
<path fill-rule="evenodd" clip-rule="evenodd" d="M108.621 116.472L111.607 115.705C111.665 115.745 111.722 115.792 111.775 115.851C112.498 116.638 112.681 120.7 114.48 122.964L105.482 125.351C105.051 130.216 101.073 134.026 96.0878 134.152C92.588 134.24 89.4948 132.471 87.7237 129.759C87.615 129.592 87.7083 129.368 87.9022 129.326L93.9601 128.016C95.5918 127.662 96.6285 126.054 96.2759 124.423C95.9681 123.006 94.7168 122.037 93.3234 122.037C93.1118 122.037 92.8972 122.06 92.6812 122.106L86.5924 123.424C86.3988 123.466 86.2233 123.301 86.2509 123.105C86.9157 118.405 90.9535 114.789 95.837 114.789C98.6878 114.789 101.252 116.021 103.023 117.983L107.113 116.898L108.621 116.472Z" fill="#EDF3C2"/>
<path fill-rule="evenodd" clip-rule="evenodd" d="M103.212 117.185C101.264 115.224 98.6095 114.129 95.9049 114.102C95.8608 114.101 95.8164 114.101 95.7722 114.102C90.7262 114.146 86.3166 118.098 85.582 122.892C85.4683 123.634 86.0846 124.231 86.7298 124.101C87.4133 123.953 88.0963 123.803 88.7793 123.653C90.136 123.355 91.4927 123.057 92.8531 122.776C93.5298 122.645 94.2421 122.816 94.7731 123.24C96.2583 124.425 95.5041 126.943 93.8398 127.338C92.9405 127.539 92.0386 127.729 91.1367 127.919C89.9974 128.159 88.8581 128.399 87.7238 128.661C87.0002 128.852 86.6962 129.523 87.3715 130.474C89.7795 133.864 94.1905 135.488 98.1637 134.588C102.237 133.665 105.538 130.036 106.111 125.899L114.653 123.632C114.934 123.539 115.143 123.301 115.164 123.017C115.184 122.753 114.998 122.514 114.998 122.514C114.04 121.284 113.639 119.675 113.237 118.059C113.132 117.636 113.027 117.211 112.911 116.794C112.693 116.007 112.22 114.887 111.432 115.039L108.438 115.808C106.535 116.346 106.027 116.479 104.861 116.785C104.439 116.896 103.931 117.03 103.239 117.213L103.212 117.185ZM87.0376 122.596C87.9149 118.523 91.7206 115.515 95.7804 115.48C95.8395 115.48 95.8988 115.48 95.9578 115.481C98.3192 115.521 100.621 116.512 102.271 118.195C102.338 118.263 102.394 118.324 102.443 118.377C102.719 118.675 102.775 118.736 103.196 118.651L107.292 117.564C108.923 117.103 109.241 117.022 110.371 116.734C110.642 116.665 110.96 116.583 111.354 116.482L111.361 116.498C111.706 117.304 111.918 118.174 112.13 119.049C112.36 119.995 112.591 120.946 112.994 121.823C113.011 121.861 113.026 121.893 113.04 121.923C113.106 122.072 113.152 122.173 113.366 122.547L105.301 124.686C104.792 124.855 104.781 125.398 104.781 125.398C104.505 128.077 102.995 130.562 100.758 132.018C96.92 134.515 91.3493 133.472 88.6409 129.873L94.1049 128.691C95.5719 128.363 96.7432 127.12 96.9824 125.663C97.3515 123.414 95.3112 121.238 93.1245 121.354L93.1243 121.354C92.928 121.364 92.8427 121.369 92.5352 121.432L87.0376 122.596Z" fill="black"/>
<path fill-rule="evenodd" clip-rule="evenodd" d="M166.406 108.106C166.197 111.338 164.373 114.399 161.281 116.042C157.154 118.237 152.208 117.176 149.327 113.72L140.413 116.085C138.604 113.024 135.588 109.38 133.223 109.971L147.134 106.282C147.506 103.347 149.211 100.621 151.984 99.0558C156.238 96.6566 161.531 97.8202 164.419 101.586C164.54 101.744 164.468 101.974 164.278 102.032L158.328 103.878C156.734 104.373 155.842 106.066 156.336 107.66V107.661C156.831 109.255 158.524 110.147 160.12 109.652L166.038 107.816C166.229 107.757 166.419 107.908 166.406 108.106Z" fill="#EDF3C2"/>
<path fill-rule="evenodd" clip-rule="evenodd" d="M164.893 101.075C162.965 98.6194 159.928 97.1513 156.818 97.1173C153.285 97.0986 149.83 98.9893 147.961 101.966C147.173 103.22 146.683 104.789 146.519 105.734L133.045 109.307C132.577 109.466 132.398 110.082 132.705 110.43C132.947 110.704 133.427 110.634 133.427 110.634C133.926 110.527 134.44 110.689 134.896 110.922C136.957 111.976 138.391 114.096 139.651 116.157C140.102 116.901 140.59 116.754 140.59 116.754L149.092 114.503C151.328 116.947 154.712 118.196 157.956 117.805C162.597 117.245 166.536 113.241 167.051 108.638C167.18 107.487 166.562 106.948 165.84 107.157C165.193 107.358 164.546 107.56 163.9 107.762C162.563 108.18 161.226 108.598 159.886 109.004C159.272 109.182 158.607 109.103 158.062 108.791C156.356 107.814 156.837 105.1 158.503 104.548C159.378 104.271 160.256 104.003 161.134 103.735C162.262 103.392 163.389 103.048 164.51 102.684C165.189 102.439 165.302 101.595 164.893 101.075ZM147.818 106.373C148.397 101.928 152.408 98.5199 156.708 98.4959C156.758 98.4959 156.807 98.4962 156.857 98.4967C159.371 98.5381 161.847 99.6691 163.5 101.553L158.121 103.222C156.622 103.697 155.551 105.139 155.511 106.671C155.501 107.071 155.496 107.333 155.707 107.958C156.321 109.772 158.384 110.825 160.186 110.352C161.469 109.999 162.666 109.613 163.87 109.226C164.461 109.036 165.054 108.845 165.66 108.657L165.655 108.693C165.172 112.156 162.585 115.129 159.301 116.118C156.049 117.098 152.38 116.052 150.113 113.575C149.686 113.102 149.15 113.055 149.15 113.055L140.736 115.287L140.692 115.215C139.56 113.404 138.276 111.665 136.601 110.384C136.583 110.37 136.567 110.358 136.551 110.345C136.401 110.23 136.298 110.151 135.983 109.954L147.311 106.95C147.761 106.798 147.818 106.373 147.818 106.373Z" fill="black"/>
<path d="M143.219 109.383C144.877 109.422 145.978 112.43 143.667 113.06L139.137 114.263C138.806 114.336 138.782 114.229 138.692 114.1C138.538 113.88 138.619 113.559 138.925 113.463C140.448 113.059 141.983 112.702 143.493 112.25C144.34 111.984 144.45 110.406 143.356 110.224C143.21 110.2 143.06 110.209 142.917 110.246L136.824 111.864C135.995 112.046 136.23 111.183 136.612 111.064C138.659 110.52 140.696 109.94 142.752 109.434C142.905 109.398 143.061 109.381 143.219 109.383Z" fill="black"/>
<path d="M147.896 110.299C148.853 110.34 148.861 112.206 149.84 113.262C149.84 113.262 150.05 113.535 150.008 113.822C149.926 114.375 149.168 114.611 148.677 114.031C147.983 113.209 147.509 112.212 147.216 111.176C147.216 111.176 147.174 110.297 147.896 110.299Z" fill="black"/>
<path d="M103.021 117.983C103.021 117.983 104.132 119.278 104.369 121.384L103.021 117.983Z" fill="white"/>
<path d="M103.046 117.295C103.478 117.32 103.749 117.771 104.002 118.192C104.561 119.121 104.914 120.171 105.048 121.254C105.048 121.254 104.966 122.127 104.312 122.072C103.766 122.027 103.69 121.288 103.552 120.705C103.354 119.871 103 119.064 102.472 118.401C102.472 118.401 102.218 117.283 103.046 117.295Z" fill="black"/>
<path d="M112.511 117.573C112.808 117.617 112.795 117.697 112.848 117.827C112.939 118.047 112.845 118.296 112.578 118.382C111.043 118.814 109.494 119.198 107.974 119.679C107.135 119.955 107.033 121.521 108.127 121.7C108.273 121.724 108.422 121.715 108.565 121.678C110.075 121.264 111.58 120.829 113.088 120.405C113.292 120.356 113.322 120.399 113.395 120.439C113.68 120.591 113.663 121.089 113.312 121.202C111.793 121.629 110.282 122.086 108.755 122.484C107.463 122.803 106.041 121.417 106.533 120.041C106.729 119.496 107.185 119.06 107.742 118.884C109.271 118.422 110.816 118.018 112.354 117.586C112.417 117.57 112.435 117.567 112.511 117.573Z" fill="black"/>
<path d="M134.926 116.28C135.527 116.318 135.822 117.168 135.203 117.595C134.46 118.1 133.658 118.515 132.846 118.907C132.846 118.907 132.561 119.026 132.307 118.933C131.761 118.73 131.701 117.935 132.487 117.547C133.186 117.198 133.877 116.824 134.52 116.39C134.52 116.39 134.684 116.273 134.926 116.28Z" fill="black"/>
<path d="M117.017 119.662C117.267 119.67 117.538 119.746 117.601 119.984C117.757 120.571 116.56 120.479 115.918 120.84C115.528 121.04 114.877 120.445 115.732 119.982C116.13 119.767 116.467 119.654 117.017 119.662Z" fill="black"/>
<path d="M122.412 118.49C122.605 118.492 122.797 118.516 122.983 118.564C123.468 118.691 123.503 119.55 122.756 119.361C122.125 119.209 121.458 119.747 121.11 119.776C120.709 119.809 120.425 119.241 121.097 118.852C121.501 118.618 121.9 118.489 122.412 118.49Z" fill="black"/>
<path d="M129.166 164.898H132.388L132.37 146.277C132.37 144.297 132.3 141.972 133.223 140.264C134.113 138.616 135.866 136.672 135.866 136.672C135.866 136.672 137.309 134.524 138.824 132.024C140.338 129.523 141.677 125.333 141.677 125.333C141.677 125.333 142.345 123.22 141.677 120.719C141.007 118.219 139.458 115.895 139.458 115.895C139.458 115.895 140.869 121.216 139.904 124.112C138.072 129.605 131.885 133.456 129.433 138.903C126.981 144.349 127.554 164.898 127.554 164.898H129.166Z" fill="black" fill-opacity="0.25" style="mix-blend-mode:overlay"/>
<path d="M112.518 138.602C112.634 138.614 112.653 138.624 112.703 138.643C113.067 138.776 113.212 139.254 113.412 139.664C114.176 141.226 114.865 142.856 115.872 144.25C115.872 144.25 116.052 144.552 115.98 144.829C115.832 145.392 115.033 145.497 114.589 144.817C113.522 143.186 112.713 141.398 111.865 139.636C111.865 139.636 111.727 139.37 111.8 139.106C111.902 138.735 112.453 138.599 112.518 138.602Z" fill="black"/>
<path d="M133.738 140.26C134.367 140.289 134.546 140.964 133.978 141.886C133.165 143.207 132.176 144.444 130.849 145.245C130.849 145.245 129.674 145.455 129.811 144.551C129.862 144.209 130.227 144.024 130.518 143.809C131.624 142.993 132.479 141.828 133.112 140.628C133.112 140.628 133.307 140.26 133.738 140.26Z" fill="black"/>
<path d="M95.7765 117.242C96.3258 117.251 97.0507 117.259 96.96 117.796C96.8918 118.201 96.269 118.075 95.7677 118.07C94.9743 118.061 94.1821 118.271 93.493 118.669C93.493 118.669 93.2168 118.779 93.0342 118.639C92.3851 118.141 94.189 117.234 95.7765 117.242Z" fill="black"/>
<path d="M197.029 88.1995C197.119 88.2092 197.134 88.2186 197.172 88.2359C197.314 88.301 197.408 88.4472 197.414 88.6122V94.0726C197.398 94.5142 196.607 94.6684 196.586 94.0726V88.6122C196.589 88.5215 196.598 88.5066 196.612 88.4677C196.674 88.3024 196.84 88.1926 197.029 88.1995Z" fill="black"/>
<path d="M189.436 68.4796C193.622 68.5196 197.401 72.1124 197.415 76.5093V85.3741C197.397 85.6612 197.293 85.6943 197.178 85.7484C196.93 85.8651 196.606 85.672 196.588 85.3741C196.588 82.3882 196.616 79.4022 196.587 76.4166C196.529 72.6978 193.288 69.319 189.384 69.3069H183.137C182.85 69.289 182.817 69.1844 182.763 69.0694C182.646 68.8214 182.839 68.4981 183.137 68.4793C185.237 68.4793 187.337 68.473 189.436 68.4796Z" fill="black"/>
<path d="M200.342 175.087H179.663C177.098 175.087 175.02 173.009 175.02 170.444V126.706C175.02 124.141 177.098 122.062 179.663 122.062H200.342C202.907 122.062 204.986 124.141 204.986 126.706V170.444C204.986 173.009 202.907 175.087 200.342 175.087Z" fill="white"/>
<path fill-rule="evenodd" clip-rule="evenodd" d="M205.674 126.637C205.62 123.804 203.169 121.426 200.411 121.373C193.472 121.329 186.532 121.329 179.594 121.373C176.721 121.428 174.348 123.932 174.329 126.703C174.329 131.562 174.319 136.42 174.308 141.278C174.287 151.023 174.266 160.768 174.33 170.513C174.385 173.385 176.895 175.758 179.66 175.777C181.956 175.777 184.253 175.782 186.549 175.786C191.17 175.796 195.79 175.806 200.411 175.776C203.283 175.721 205.658 173.21 205.675 170.446C205.675 165.588 205.685 160.73 205.695 155.873C205.715 146.127 205.735 136.382 205.674 126.637ZM175.709 126.655C175.749 124.52 177.607 122.766 179.664 122.753C181.963 122.753 184.261 122.748 186.559 122.743C191.17 122.734 195.782 122.724 200.393 122.753C202.528 122.794 204.256 124.615 204.295 126.655C204.386 141.269 204.386 155.883 204.295 170.496C204.254 172.631 202.423 174.36 200.393 174.398C193.465 174.443 186.538 174.443 179.611 174.398C177.502 174.358 175.748 172.531 175.709 170.496C175.613 155.883 175.613 141.269 175.709 126.655Z" fill="black"/>
<path d="M199.479 172.338H180.524C178.951 172.338 177.676 171.063 177.676 169.49V128.603C177.676 126.812 179.128 125.359 180.92 125.359H199.084C200.875 125.359 202.327 126.812 202.327 128.603V169.49C202.327 171.063 201.052 172.338 199.479 172.338Z" fill="white" fill-opacity="0.3"/>
<path d="M184.108 123.449L182.758 122.062H198.042L196.766 123.419C196.322 123.891 195.702 124.16 195.053 124.16H185.792C185.158 124.16 184.551 123.903 184.108 123.449Z" fill="white"/>
<path fill-rule="evenodd" clip-rule="evenodd" d="M198.493 122.491C198.81 122.119 198.575 121.518 198.101 121.448L198.04 121.445H182.756C182.24 121.471 181.981 122.124 182.312 122.499L183.663 123.887C184.213 124.443 184.974 124.769 185.753 124.783C188.866 124.804 191.978 124.803 195.09 124.783C196.393 124.758 197.297 123.781 198.206 122.799C198.301 122.696 198.397 122.593 198.493 122.491ZM185.747 123.543C185.118 123.523 184.641 123.113 184.227 122.688H196.604L196.314 122.997C195.997 123.329 195.554 123.529 195.096 123.543C191.98 123.605 188.863 123.602 185.747 123.543Z" fill="black"/>
<path fill-rule="evenodd" clip-rule="evenodd" d="M183.859 138.673H181.228C180.684 138.673 180.242 138.232 180.242 137.687V135.057C180.242 134.512 180.684 134.07 181.228 134.07H183.859C184.404 134.07 184.845 134.512 184.845 135.057V137.687C184.845 138.232 184.404 138.673 183.859 138.673Z" fill="#5DBBFF"/>
<path fill-rule="evenodd" clip-rule="evenodd" d="M191.015 138.673H188.385C187.84 138.673 187.398 138.232 187.398 137.687V135.057C187.398 134.512 187.84 134.07 188.385 134.07H191.015C191.56 134.07 192.001 134.512 192.001 135.057V137.687C192.001 138.232 191.56 138.673 191.015 138.673Z" fill="#5DBBFF"/>
<path fill-rule="evenodd" clip-rule="evenodd" d="M198.304 138.673H195.674C195.129 138.673 194.688 138.232 194.688 137.687V135.057C194.688 134.512 195.129 134.07 195.674 134.07H198.304C198.849 134.07 199.29 134.512 199.29 135.057V137.687C199.29 138.232 198.849 138.673 198.304 138.673Z" fill="#5DBBFF"/>
<path fill-rule="evenodd" clip-rule="evenodd" d="M183.759 147.81H181.129C180.584 147.81 180.143 147.368 180.143 146.824V144.194C180.143 143.649 180.584 143.207 181.129 143.207H183.759C184.304 143.207 184.745 143.649 184.745 144.194V146.824C184.745 147.368 184.304 147.81 183.759 147.81Z" fill="#5DBBFF"/>
<path fill-rule="evenodd" clip-rule="evenodd" d="M190.913 147.81H188.283C187.738 147.81 187.297 147.368 187.297 146.824V144.194C187.297 143.649 187.738 143.207 188.283 143.207H190.913C191.458 143.207 191.9 143.649 191.9 144.194V146.824C191.9 147.368 191.458 147.81 190.913 147.81Z" fill="#5DBBFF"/>
<path fill-rule="evenodd" clip-rule="evenodd" d="M198.202 147.81H195.572C195.028 147.81 194.586 147.368 194.586 146.824V144.194C194.586 143.649 195.028 143.207 195.572 143.207H198.202C198.747 143.207 199.189 143.649 199.189 144.194V146.824C199.189 147.368 198.747 147.81 198.202 147.81Z" fill="#5DBBFF"/>
<path fill-rule="evenodd" clip-rule="evenodd" d="M183.775 156.943H181.144C180.6 156.943 180.158 156.501 180.158 155.957V153.327C180.158 152.782 180.6 152.34 181.144 152.34H183.775C184.32 152.34 184.761 152.782 184.761 153.327V155.957C184.761 156.501 184.32 156.943 183.775 156.943Z" fill="#5DBBFF"/>
<path fill-rule="evenodd" clip-rule="evenodd" d="M190.929 156.943H188.299C187.754 156.943 187.312 156.501 187.312 155.957V153.327C187.312 152.782 187.754 152.34 188.299 152.34H190.929C191.474 152.34 191.915 152.782 191.915 153.327V155.957C191.915 156.501 191.474 156.943 190.929 156.943Z" fill="#5DBBFF"/>
<path fill-rule="evenodd" clip-rule="evenodd" d="M198.22 156.943H195.59C195.045 156.943 194.604 156.501 194.604 155.957V153.327C194.604 152.782 195.045 152.34 195.59 152.34H198.22C198.765 152.34 199.206 152.782 199.206 153.327V155.957C199.206 156.501 198.765 156.943 198.22 156.943Z" fill="#5DBBFF"/>
<path d="M183.859 138.673H181.228C180.684 138.673 180.242 138.232 180.242 137.687V135.057C180.242 134.512 180.684 134.07 181.228 134.07H183.859C184.404 134.07 184.845 134.512 184.845 135.057V137.687C184.845 138.232 184.404 138.673 183.859 138.673Z" fill="white" fill-opacity="0.3"/>
<path d="M191.015 138.673H188.385C187.84 138.673 187.398 138.232 187.398 137.687V135.057C187.398 134.512 187.84 134.07 188.385 134.07H191.015C191.56 134.07 192.001 134.512 192.001 135.057V137.687C192.001 138.232 191.56 138.673 191.015 138.673Z" fill="white" fill-opacity="0.3"/>
<path d="M198.304 138.673H195.674C195.129 138.673 194.688 138.232 194.688 137.687V135.057C194.688 134.512 195.129 134.07 195.674 134.07H198.304C198.849 134.07 199.29 134.512 199.29 135.057V137.687C199.29 138.232 198.849 138.673 198.304 138.673Z" fill="white" fill-opacity="0.3"/>
<path d="M183.759 147.81H181.129C180.584 147.81 180.143 147.368 180.143 146.824V144.194C180.143 143.649 180.584 143.207 181.129 143.207H183.759C184.304 143.207 184.745 143.649 184.745 144.194V146.824C184.745 147.368 184.304 147.81 183.759 147.81Z" fill="white" fill-opacity="0.3"/>
<path d="M190.913 147.81H188.283C187.738 147.81 187.297 147.368 187.297 146.824V144.194C187.297 143.649 187.738 143.207 188.283 143.207H190.913C191.458 143.207 191.9 143.649 191.9 144.194V146.824C191.9 147.368 191.458 147.81 190.913 147.81Z" fill="white" fill-opacity="0.3"/>
<path d="M198.202 147.81H195.572C195.028 147.81 194.586 147.368 194.586 146.824V144.194C194.586 143.649 195.028 143.207 195.572 143.207H198.202C198.747 143.207 199.189 143.649 199.189 144.194V146.824C199.189 147.368 198.747 147.81 198.202 147.81Z" fill="white" fill-opacity="0.3"/>
<path d="M183.775 156.943H181.144C180.6 156.943 180.158 156.501 180.158 155.957V153.327C180.158 152.782 180.6 152.34 181.144 152.34H183.775C184.32 152.34 184.761 152.782 184.761 153.327V155.957C184.761 156.501 184.32 156.943 183.775 156.943Z" fill="white" fill-opacity="0.3"/>
<path d="M190.929 156.943H188.299C187.754 156.943 187.312 156.501 187.312 155.957V153.327C187.312 152.782 187.754 152.34 188.299 152.34H190.929C191.474 152.34 191.915 152.782 191.915 153.327V155.957C191.915 156.501 191.474 156.943 190.929 156.943Z" fill="white" fill-opacity="0.3"/>
<path d="M198.22 156.943H195.59C195.045 156.943 194.604 156.501 194.604 155.957V153.327C194.604 152.782 195.045 152.34 195.59 152.34H198.22C198.765 152.34 199.206 152.782 199.206 153.327V155.957C199.206 156.501 198.765 156.943 198.22 156.943Z" fill="white" fill-opacity="0.3"/>
<path d="M183.859 138.673H181.228C180.684 138.673 180.242 138.232 180.242 137.687V135.057C180.242 134.512 180.684 134.07 181.228 134.07H183.859C184.404 134.07 184.845 134.512 184.845 135.057V137.687C184.845 138.232 184.404 138.673 183.859 138.673Z" fill="white" fill-opacity="0.3"/>
<path d="M191.015 138.673H188.385C187.84 138.673 187.398 138.232 187.398 137.687V135.057C187.398 134.512 187.84 134.07 188.385 134.07H191.015C191.56 134.07 192.001 134.512 192.001 135.057V137.687C192.001 138.232 191.56 138.673 191.015 138.673Z" fill="white" fill-opacity="0.3"/>
<path d="M198.304 138.673H195.674C195.129 138.673 194.688 138.232 194.688 137.687V135.057C194.688 134.512 195.129 134.07 195.674 134.07H198.304C198.849 134.07 199.29 134.512 199.29 135.057V137.687C199.29 138.232 198.849 138.673 198.304 138.673Z" fill="white" fill-opacity="0.3"/>
<path d="M183.759 147.81H181.129C180.584 147.81 180.143 147.368 180.143 146.824V144.194C180.143 143.649 180.584 143.207 181.129 143.207H183.759C184.304 143.207 184.745 143.649 184.745 144.194V146.824C184.745 147.368 184.304 147.81 183.759 147.81Z" fill="white" fill-opacity="0.3"/>
<path d="M190.913 147.81H188.283C187.738 147.81 187.297 147.368 187.297 146.824V144.194C187.297 143.649 187.738 143.207 188.283 143.207H190.913C191.458 143.207 191.9 143.649 191.9 144.194V146.824C191.9 147.368 191.458 147.81 190.913 147.81Z" fill="white" fill-opacity="0.3"/>
<path d="M198.202 147.81H195.572C195.028 147.81 194.586 147.368 194.586 146.824V144.194C194.586 143.649 195.028 143.207 195.572 143.207H198.202C198.747 143.207 199.189 143.649 199.189 144.194V146.824C199.189 147.368 198.747 147.81 198.202 147.81Z" fill="white" fill-opacity="0.3"/>
<path d="M183.775 156.943H181.144C180.6 156.943 180.158 156.501 180.158 155.957V153.327C180.158 152.782 180.6 152.34 181.144 152.34H183.775C184.32 152.34 184.761 152.782 184.761 153.327V155.957C184.761 156.501 184.32 156.943 183.775 156.943Z" fill="white" fill-opacity="0.3"/>
<path d="M190.929 156.943H188.299C187.754 156.943 187.312 156.501 187.312 155.957V153.327C187.312 152.782 187.754 152.34 188.299 152.34H190.929C191.474 152.34 191.915 152.782 191.915 153.327V155.957C191.915 156.501 191.474 156.943 190.929 156.943Z" fill="white" fill-opacity="0.3"/>
<path d="M198.22 156.943H195.59C195.045 156.943 194.604 156.501 194.604 155.957V153.327C194.604 152.782 195.045 152.34 195.59 152.34H198.22C198.765 152.34 199.206 152.782 199.206 153.327V155.957C199.206 156.501 198.765 156.943 198.22 156.943Z" fill="white" fill-opacity="0.3"/>
<path d="M183.859 138.673H181.228C180.684 138.673 180.242 138.232 180.242 137.687V135.057C180.242 134.512 180.684 134.07 181.228 134.07H183.859C184.404 134.07 184.845 134.512 184.845 135.057V137.687C184.845 138.232 184.404 138.673 183.859 138.673Z" fill="white" fill-opacity="0.3"/>
<path d="M191.015 138.673H188.385C187.84 138.673 187.398 138.232 187.398 137.687V135.057C187.398 134.512 187.84 134.07 188.385 134.07H191.015C191.56 134.07 192.001 134.512 192.001 135.057V137.687C192.001 138.232 191.56 138.673 191.015 138.673Z" fill="white" fill-opacity="0.3"/>
<path d="M198.304 138.673H195.674C195.129 138.673 194.688 138.232 194.688 137.687V135.057C194.688 134.512 195.129 134.07 195.674 134.07H198.304C198.849 134.07 199.29 134.512 199.29 135.057V137.687C199.29 138.232 198.849 138.673 198.304 138.673Z" fill="white" fill-opacity="0.3"/>
<path d="M183.759 147.81H181.129C180.584 147.81 180.143 147.368 180.143 146.824V144.194C180.143 143.649 180.584 143.207 181.129 143.207H183.759C184.304 143.207 184.745 143.649 184.745 144.194V146.824C184.745 147.368 184.304 147.81 183.759 147.81Z" fill="white" fill-opacity="0.3"/>
<path d="M190.913 147.81H188.283C187.738 147.81 187.297 147.368 187.297 146.824V144.194C187.297 143.649 187.738 143.207 188.283 143.207H190.913C191.458 143.207 191.9 143.649 191.9 144.194V146.824C191.9 147.368 191.458 147.81 190.913 147.81Z" fill="white" fill-opacity="0.3"/>
<path d="M198.202 147.81H195.572C195.028 147.81 194.586 147.368 194.586 146.824V144.194C194.586 143.649 195.028 143.207 195.572 143.207H198.202C198.747 143.207 199.189 143.649 199.189 144.194V146.824C199.189 147.368 198.747 147.81 198.202 147.81Z" fill="white" fill-opacity="0.3"/>
<path d="M183.775 156.943H181.144C180.6 156.943 180.158 156.501 180.158 155.957V153.327C180.158 152.782 180.6 152.34 181.144 152.34H183.775C184.32 152.34 184.761 152.782 184.761 153.327V155.957C184.761 156.501 184.32 156.943 183.775 156.943Z" fill="white" fill-opacity="0.3"/>
<path d="M190.929 156.943H188.299C187.754 156.943 187.312 156.501 187.312 155.957V153.327C187.312 152.782 187.754 152.34 188.299 152.34H190.929C191.474 152.34 191.915 152.782 191.915 153.327V155.957C191.915 156.501 191.474 156.943 190.929 156.943Z" fill="white" fill-opacity="0.3"/>
<path d="M198.22 156.943H195.59C195.045 156.943 194.604 156.501 194.604 155.957V153.327C194.604 152.782 195.045 152.34 195.59 152.34H198.22C198.765 152.34 199.206 152.782 199.206 153.327V155.957C199.206 156.501 198.765 156.943 198.22 156.943Z" fill="white" fill-opacity="0.3"/>
<path d="M192.389 171.921C192.809 171.959 192.943 172.729 192.363 172.747H188.433C188.011 172.734 187.838 171.938 188.433 171.92C189.752 171.92 191.071 171.88 192.389 171.921Z" fill="black"/>
<path d="M213.415 153.356H192.32C190.58 153.356 189.17 151.946 189.17 150.206V142.467C189.17 140.727 190.58 139.316 192.32 139.316H213.415C215.155 139.316 216.565 140.727 216.565 142.467V150.206C216.565 151.946 215.155 153.356 213.415 153.356Z" fill="white"/>
<path fill-rule="evenodd" clip-rule="evenodd" d="M217.186 142.42C217.148 140.415 215.413 138.734 213.464 138.697C206.4 138.653 199.335 138.653 192.271 138.697C190.241 138.736 188.586 140.479 188.55 142.42C188.533 145.031 188.533 147.644 188.55 150.256C188.588 152.286 190.327 153.941 192.271 153.978C199.335 154.022 206.4 154.022 213.464 153.978C215.5 153.939 217.149 152.198 217.186 150.256C217.202 147.644 217.202 145.031 217.186 142.42ZM189.791 142.436C189.817 141.069 191.007 139.947 192.322 139.939C194.665 139.939 197.007 139.934 199.35 139.929C204.049 139.919 208.749 139.91 213.448 139.939C214.815 139.965 215.92 141.13 215.945 142.436C215.961 145.037 215.961 147.639 215.945 150.24C215.919 151.59 214.751 152.712 213.448 152.737C206.395 152.781 199.341 152.781 192.287 152.737C190.938 152.711 189.816 151.544 189.791 150.24C189.775 147.639 189.775 145.037 189.791 142.436Z" fill="black"/>
<path d="M212.707 144.06C213.341 144.127 213.558 145.269 212.663 145.3H204.986C204.36 145.278 204.377 145.033 204.366 144.701C204.354 144.361 204.59 144.072 204.986 144.059H212.663C212.678 144.059 212.692 144.06 212.707 144.06Z" fill="black"/>
<path d="M212.694 147.37C213.301 147.414 213.564 148.588 212.664 148.61H208.825C208.22 148.595 207.869 147.392 208.825 147.369C210.115 147.369 211.405 147.338 212.694 147.37Z" fill="black"/>
<path fill-rule="evenodd" clip-rule="evenodd" d="M201.166 146.332C201.166 148.058 199.767 149.457 198.041 149.457C196.315 149.457 194.916 148.058 194.916 146.332C194.916 144.606 196.315 143.207 198.041 143.207C199.767 143.207 201.166 144.606 201.166 146.332Z" fill="#0053F5"/>
<path fill-rule="evenodd" clip-rule="evenodd" d="M196.433 143.037C198.842 141.875 201.754 143.89 201.802 146.364C201.802 146.412 201.802 146.412 201.802 146.46C201.736 149.885 197.305 151.051 195.346 148.996C193.676 147.245 194.329 144.051 196.433 143.037ZM196.972 148.669C198.579 149.443 200.529 148.101 200.561 146.444C200.57 144.898 199.127 143.733 197.706 143.931C195.237 144.277 195.128 147.78 196.972 148.669Z" fill="black"/>
<path d="M84.1556 101.346H32.4098C28.4211 101.346 25.1875 98.1124 25.1875 94.1238V56.566C25.1875 52.5774 28.4211 49.3438 32.4098 49.3438H84.1556C88.1442 49.3438 91.3779 52.5774 91.3779 56.566V94.1238C91.3779 98.1124 88.1442 101.346 84.1556 101.346Z" fill="white"/>
<path fill-rule="evenodd" clip-rule="evenodd" d="M92.0659 56.5132C92.0259 52.2462 88.3103 48.6912 84.2053 48.6526C81.3985 48.6436 78.5917 48.6333 75.7848 48.623C61.2919 48.5696 46.7986 48.5163 32.3064 48.6528C28.0449 48.7204 24.5354 52.4238 24.4968 56.5132C24.4568 69.0665 24.4568 81.6197 24.4968 94.173C24.5379 98.5007 28.2672 101.995 32.3574 102.034C49.64 102.091 66.9227 102.091 84.2053 102.034C88.4723 101.994 92.0273 98.2778 92.0659 94.173C92.1059 81.6197 92.1059 69.0665 92.0659 56.5132ZM25.8769 56.5225C25.9108 52.9422 29.0134 50.0429 32.4103 50.0321C38.1627 50.0321 43.9151 50.0141 49.6675 49.9962C61.1918 49.9601 72.716 49.9241 84.2397 50.0327C87.7638 50.0884 90.6339 53.1391 90.6871 56.4801C90.8057 69.0551 90.8057 81.6321 90.6871 94.2072C90.6308 97.7316 87.579 100.602 84.2397 100.655C66.9353 100.818 49.629 100.818 32.3245 100.655C28.7955 100.599 25.9301 97.5548 25.8772 94.2072C25.7775 83.7079 25.8163 73.2076 25.8551 62.7078C25.8627 60.646 25.8703 58.5843 25.8769 56.5225Z" fill="black"/>
<path d="M62.2191 74.6336H54.3474C53.7844 74.6336 53.3281 74.1771 53.3281 73.6141V72.0334C53.3281 69.2966 55.5466 67.0781 58.2831 67.0781C61.0199 67.0781 63.2387 69.2966 63.2387 72.0334V73.6141C63.2387 74.1771 62.7821 74.6336 62.2191 74.6336Z" fill="#7BA4F5"/>
<path fill-rule="evenodd" clip-rule="evenodd" d="M63.9268 71.9626C63.8692 68.9221 61.2551 66.4462 58.355 66.391C58.3184 66.3908 58.3002 66.3906 58.282 66.3906C58.2639 66.3906 58.2457 66.3908 58.2094 66.391C55.8629 66.4357 53.717 68.0012 52.957 70.1596C52.6007 71.1712 52.6173 72.2697 52.634 73.3743C52.6355 73.4695 52.6369 73.5647 52.6381 73.6599C52.6726 74.5642 53.4591 75.3143 54.3421 75.3253C55.2172 75.3253 56.0923 75.3289 56.9674 75.3325C58.7324 75.3398 60.4973 75.3471 62.262 75.3248C62.7406 75.3066 63.2002 75.0928 63.5106 74.7347C63.9944 74.1761 63.967 73.3374 63.9395 72.492C63.9337 72.315 63.9279 72.1377 63.9268 71.9626ZM54.0167 71.9793C54.0603 69.6759 56.0263 67.8113 58.2263 67.7694C58.2817 67.7691 58.3369 67.7694 58.3921 67.7705C60.495 67.837 62.3192 69.5669 62.5256 71.5978C62.5311 71.6525 62.5371 71.7098 62.5434 71.769C62.6336 72.6294 62.7681 73.9113 62.2354 73.9448C59.6017 74.0455 56.9623 74.0455 54.3284 73.9448C54.2012 73.9368 54.0851 73.8532 54.039 73.7363C53.9831 73.5946 53.9948 73.0759 54.0068 72.5472C54.0111 72.3532 54.0156 72.1579 54.0167 71.9793Z" fill="black"/>
<path d="M60.9858 61.6677C60.9858 63.1607 59.7756 64.3706 58.283 64.3706C56.7903 64.3706 55.5801 63.1607 55.5801 61.6677C55.5801 60.175 56.7903 58.9648 58.283 58.9648C59.7756 58.9648 60.9858 60.175 60.9858 61.6677Z" fill="#7BA4F5"/>
<path fill-rule="evenodd" clip-rule="evenodd" d="M61.3425 63.1437C62.395 60.9611 60.5704 58.3231 58.3288 58.2806C58.3068 58.2805 58.2959 58.2804 58.285 58.2804C58.2742 58.2804 58.2633 58.2805 58.2416 58.2806C55.1409 58.3394 54.0794 62.3495 55.9448 64.128C57.531 65.6405 60.4242 65.0486 61.3425 63.1437ZM56.8792 63.1125C55.6017 61.8651 56.7313 59.688 58.2588 59.6593C59.2257 59.653 60.0866 60.3755 60.2621 61.2908C60.6364 63.2433 58.0444 64.2505 56.8792 63.1125Z" fill="black"/>
<path d="M67.3071 78.9567C68.0025 79.0632 68.1898 80.2841 67.2373 80.3324H49.2065C48.4813 80.2957 48.2239 79.0031 49.2065 78.9531H67.2373C67.2605 78.9542 67.2839 78.9556 67.3071 78.9567Z" fill="black"/>
<path d="M70.5034 84.2272C71.1977 84.2826 71.3986 85.5806 70.4667 85.6054H65.4841C64.7989 85.5872 64.496 84.2523 65.4841 84.2261C67.1572 84.2261 68.8309 84.1825 70.5034 84.2272Z" fill="black"/>
<path d="M62.3975 84.2296C62.8273 84.2914 62.8872 84.4721 62.9592 84.6296C63.1487 85.0445 62.8174 85.5827 62.3319 85.6059H46.0992C45.3585 85.5706 45.204 84.2693 46.0992 84.2266H62.3319C62.3537 84.2277 62.3755 84.2288 62.3975 84.2296Z" fill="black"/>
<path d="M29.2005 94.1416C29.6098 94.1685 29.6302 94.8035 29.882 95.2844C30.2827 96.0503 31.0084 96.61 31.8369 96.88C31.8369 96.88 32.0337 96.9642 32.0918 97.1406C32.1904 97.4399 31.8805 97.7589 31.5165 97.6472C30.1589 97.2172 29.0806 96.0365 28.7794 94.6426C28.7794 94.6426 28.7639 94.135 29.2005 94.1416Z" fill="black"/>
<path d="M85.0396 53.4268C86.0811 53.4908 87.5934 54.8447 87.944 56.4677C87.944 56.4677 87.9609 56.7774 87.762 56.9041C87.5112 57.0639 87.2019 56.8965 87.1034 56.5069C86.8226 55.4346 85.9552 54.5783 84.8865 54.2304C84.8865 54.2304 84.7014 54.1511 84.6386 53.9897C84.5393 53.7327 84.7069 53.4232 85.0396 53.4268Z" fill="black"/>
<path d="M77.4836 87.4795C77.6013 87.4872 77.7066 87.5382 77.7855 87.625L81.4519 91.9375C81.721 92.2757 81.2073 92.8993 80.8214 92.4735L77.155 88.1611C76.6945 87.5833 77.2035 87.4793 77.4836 87.4795Z" fill="black"/>
<path d="M80.0151 87.6303C80.4234 87.6503 80.8155 88.3467 81.2292 88.8495C81.4858 89.1828 80.9301 89.7388 80.5989 89.3853C80.0241 88.7305 79.2244 87.9584 79.8223 87.671C79.883 87.6419 79.9175 87.6289 80.0151 87.6303Z" fill="black"/>
<path d="M76.7493 89.4311C76.8538 89.4407 76.9495 89.4861 77.0231 89.5615C77.6982 90.3185 78.3377 91.1069 78.995 91.8799C79.2576 92.2037 78.749 92.8099 78.3774 92.4303C77.7021 91.6731 77.0627 90.8849 76.4055 90.1119C76.1948 89.8522 76.3617 89.4134 76.7493 89.4311Z" fill="black"/>
<path d="M39.4605 35.2256C39.8194 35.2483 39.9931 35.7971 39.6443 36.0009C38.9169 36.3826 38.1725 36.7312 37.4365 37.0962C37.057 37.274 36.5991 36.6284 37.0522 36.3637C37.8451 35.9476 38.6351 35.2109 39.4605 35.2256Z" fill="black"/>
<path d="M32.6262 31.0589C32.8309 31.0743 32.9993 31.2394 33.0173 31.4454C33.0492 32.2138 33.0452 32.9831 33.0588 33.7521C33.0565 34.153 32.2844 34.3777 32.2322 33.786C32.2004 33.0177 32.2044 32.2484 32.1908 31.4794C32.1922 31.249 32.3819 31.0517 32.6262 31.0589Z" fill="black"/>
<path d="M36.3628 32.3736C36.6463 32.3981 36.8341 32.7325 36.6972 32.9894C36.2694 33.7123 35.8097 34.4155 35.3656 35.1285C35.1363 35.479 34.4049 35.174 34.6538 34.707C35.0816 33.9842 35.5413 33.2809 35.9854 32.5679C36.0692 32.4397 36.1681 32.3658 36.3628 32.3736Z" fill="black"/>
<path fill-rule="evenodd" clip-rule="evenodd" d="M39.0053 53.8446C39.0053 61.4757 32.8192 67.6616 25.1881 67.6616C17.5572 67.6616 11.3711 61.4757 11.3711 53.8446C11.3711 46.2135 17.5572 40.0273 25.1881 40.0273C32.8192 40.0273 39.0053 46.2135 39.0053 53.8446Z" fill="#D6F318"/>
<path fill-rule="evenodd" clip-rule="evenodd" d="M38.1088 47.2439C35.7036 42.5507 30.5734 39.3905 25.2841 39.34C25.1906 39.3397 25.0968 39.34 25.0032 39.3408C21.3233 39.399 17.7459 40.8746 15.1206 43.4076C11.8304 46.5824 10.1918 51.3587 10.8243 55.8734C11.5209 60.8433 14.9964 65.3196 19.627 67.2465C26.7219 70.1985 35.1268 66.6441 38.2655 60.134C40.2034 56.1145 40.1375 51.2028 38.1088 47.2439ZM12.3139 51.2831C13.4904 45.3507 19.11 40.7778 25.1058 40.7204C26.9927 40.7144 28.8757 41.1044 30.5904 41.8801C35.701 44.1924 38.944 50.0492 38.2017 55.6014C37.5962 60.1335 34.4362 64.2215 30.2241 65.974C25.4608 67.9561 19.7196 66.8068 16.0785 63.2938C12.926 60.2518 11.4637 55.5697 12.3139 51.2831Z" fill="black"/>
<path fill-rule="evenodd" clip-rule="evenodd" d="M31.6913 52.9619C31.9395 53.0361 32.1139 53.259 32.1282 53.5189L32.1289 53.5454C32.1315 53.645 32.134 53.7448 32.134 53.8444C32.134 53.9558 32.131 54.067 32.1252 54.1785C32.1139 54.4386 31.9395 54.6612 31.6913 54.7354L30.7487 55.0127C30.6201 55.0496 30.52 55.1553 30.483 55.2869C30.4372 55.4609 30.3829 55.6322 30.3175 55.798C30.2717 55.9236 30.2888 56.0637 30.3716 56.1693L30.9713 56.9492C31.1285 57.1547 31.1401 57.4402 30.9969 57.6546C30.8744 57.8402 30.7456 58.0201 30.6058 58.1914C30.443 58.3942 30.1716 58.4714 29.9288 58.3828L29.0036 58.0546C28.875 58.0088 28.7349 58.0344 28.6292 58.12C28.4894 58.2314 28.3437 58.3371 28.1923 58.4372C28.0811 58.5114 28.0124 58.6369 28.0182 58.7713L28.0439 59.7539C28.0524 60.0137 27.8924 60.2479 27.6496 60.3392C27.4441 60.4165 27.2356 60.4852 27.0212 60.545C26.7699 60.6107 26.5043 60.5136 26.3586 60.2992L25.8017 59.4912C25.7275 59.3798 25.5961 59.3169 25.4618 59.3224C25.3733 59.3282 25.2819 59.331 25.1934 59.331C25.1018 59.331 25.0135 59.3282 24.925 59.3224C24.7906 59.3169 24.6593 59.3798 24.5821 59.4912L24.0282 60.2992C23.8822 60.5136 23.6169 60.6107 23.3653 60.545C23.1512 60.4852 22.9399 60.4165 22.7341 60.3392C22.4913 60.2479 22.3344 60.0137 22.3402 59.7539L22.3686 58.7713C22.3713 58.6369 22.3057 58.5114 22.1915 58.4372C22.0428 58.3371 21.8974 58.2314 21.7573 58.12C21.6516 58.0344 21.5087 58.0088 21.3805 58.0546L20.4577 58.3828C20.2149 58.4714 19.9407 58.3942 19.778 58.1914C19.6409 58.0173 19.5096 57.8402 19.3896 57.6546C19.2467 57.4375 19.2552 57.1547 19.4152 56.9492L20.0122 56.1721C20.095 56.0637 20.1151 55.9208 20.0665 55.7953C20.0036 55.6295 19.9496 55.4582 19.9007 55.2838C19.8867 55.2325 19.8607 55.184 19.8265 55.1409C19.781 55.0811 19.7123 55.0325 19.6351 55.0127L18.6955 54.7354C18.447 54.6612 18.2699 54.4386 18.2586 54.1785C18.2528 54.067 18.25 53.9558 18.25 53.8444C18.25 53.736 18.2528 53.6273 18.2586 53.5189C18.2699 53.259 18.447 53.0361 18.6955 52.9619L19.6381 52.6847C19.7667 52.645 19.8665 52.5421 19.9007 52.4108C19.9496 52.2364 20.0036 52.0651 20.0665 51.8993C20.1151 51.7735 20.095 51.6309 20.0122 51.5222L19.4125 50.7426C19.2552 50.5371 19.2439 50.2541 19.3868 50.0373C19.5096 49.8544 19.6381 49.6745 19.7752 49.5029C19.938 49.3002 20.2092 49.2232 20.4549 49.3117L21.3805 49.64C21.5087 49.6858 21.6516 49.6602 21.7573 49.5744C21.8974 49.4629 22.0428 49.3573 22.1915 49.2602C22.3057 49.186 22.3713 49.0574 22.3686 48.9231L22.3402 47.938C22.3344 47.6778 22.4913 47.4436 22.7341 47.3523C22.9399 47.2723 23.1484 47.2067 23.3625 47.1468C23.6138 47.0781 23.8795 47.1752 24.0251 47.3893L24.5821 48.2036C24.6593 48.3178 24.7906 48.3777 24.925 48.3719C25.0135 48.3661 25.1018 48.3661 25.1934 48.3661H25.2276C25.3007 48.3661 25.3762 48.3688 25.4494 48.3714L25.4618 48.3719C25.5961 48.3777 25.7275 48.3178 25.8017 48.2036L26.3614 47.3893C26.5073 47.1752 26.7727 47.0781 27.0243 47.1468C27.2383 47.2067 27.4469 47.2723 27.6496 47.3523C27.8924 47.4436 28.0524 47.6778 28.0439 47.938L28.0182 48.9231C28.0124 49.0574 28.0811 49.186 28.1923 49.2602C28.3437 49.3573 28.4894 49.4629 28.6292 49.5774C28.7349 49.6602 28.875 49.6858 29.0036 49.64L29.9318 49.3087C30.1746 49.2232 30.4488 49.3002 30.6088 49.5029C30.7456 49.6745 30.8772 49.8544 30.9969 50.0373C31.1401 50.2541 31.1313 50.5371 30.9713 50.7426L30.3716 51.5252C30.2888 51.6309 30.2717 51.7708 30.3175 51.8966C30.3829 52.0621 30.4372 52.2364 30.483 52.4108C30.52 52.5421 30.6201 52.645 30.7487 52.6847L31.6913 52.9619ZM21.9715 54.0788C22.0857 55.684 23.3623 56.9576 24.9676 57.0663C26.8525 57.1949 28.4208 55.7039 28.4208 53.8446C28.4208 52.0622 26.9753 50.617 25.1932 50.617C23.3309 50.617 21.8402 52.1908 21.9715 54.0788Z" fill="black"/>
<path d="M244.936 174.299C245.378 174.357 245.455 174.559 245.524 174.75C245.675 175.165 245.427 175.651 244.877 175.676L231.474 175.679C231.205 175.668 231.11 175.602 230.986 175.478C230.609 175.101 230.781 174.331 231.474 174.3L244.876 174.296C244.896 174.297 244.916 174.298 244.936 174.299Z" fill="black"/>
<path d="M225.321 174.398C225.543 174.546 225.546 174.549 225.694 174.771L225.747 175.035L225.695 175.299L225.545 175.523L225.321 175.672L225.057 175.725L17.7736 175.781L17.5096 175.729C17.2875 175.58 17.285 175.578 17.1363 175.356L17.0838 175.092L17.1361 174.828L17.2856 174.604L17.5093 174.454L17.7733 174.402L225.057 174.345C225.145 174.363 225.233 174.38 225.321 174.398Z" fill="black"/>
<path d="M11.7689 174.405C12.1251 174.447 12.1469 174.536 12.2393 174.644C12.5768 175.039 12.297 175.759 11.7152 175.782L1.00938 175.785C0.651038 175.771 0.622324 175.684 0.521607 175.583C0.142468 175.204 0.407902 174.429 1.00899 174.406L11.7148 174.402C11.7328 174.403 11.751 174.404 11.7689 174.405Z" fill="black"/>
</svg>
