<svg width="20" height="20" viewBox="0 0 20 20" fill="none" xmlns="http://www.w3.org/2000/svg">
<path d="M1.6665 10.5088H15.8332" stroke="#101828" stroke-width="1.5" stroke-miterlimit="10" stroke-linecap="round" stroke-linejoin="round"/>
<path d="M15.8332 8.56634V14.5247C15.8082 16.8997 15.1581 17.4997 12.6831 17.4997H4.81653C2.29986 17.4997 1.6665 16.8747 1.6665 14.3913V8.56634C1.6665 6.31634 2.1915 5.59134 4.1665 5.47467C4.3665 5.46634 4.58319 5.45801 4.81653 5.45801H12.6831C15.1998 5.45801 15.8332 6.08301 15.8332 8.56634Z" stroke="#101828" stroke-width="1.5" stroke-linecap="round" stroke-linejoin="round"/>
<path d="M18.3332 5.60833V11.4333C18.3332 13.6833 17.8082 14.4083 15.8332 14.525V8.56667C15.8332 6.08333 15.1998 5.45833 12.6831 5.45833H4.81653C4.5832 5.45833 4.3665 5.46667 4.1665 5.475C4.1915 3.1 4.84153 2.5 7.31653 2.5H15.1831C17.6998 2.5 18.3332 3.125 18.3332 5.60833Z" stroke="#101828" stroke-width="1.5" stroke-linecap="round" stroke-linejoin="round"/>
<path d="M4.375 14.8418H5.80831" stroke="#292D32" stroke-width="1.5" stroke-miterlimit="10" stroke-linecap="round" stroke-linejoin="round"/>
<path d="M7.5918 14.8418H10.4585" stroke="#292D32" stroke-width="1.5" stroke-miterlimit="10" stroke-linecap="round" stroke-linejoin="round"/>
</svg>
