<svg width="250" height="185" viewBox="0 0 250 185" fill="none" xmlns="http://www.w3.org/2000/svg">
<path d="M193.748 7.36781C193.423 7.34926 193.26 7.74749 193.505 7.95819L200.087 13.6086V13.6112L205.56 18.3093H205.563L209.217 21.4493C209.566 21.7493 210.078 21.7722 210.453 21.5046L227.552 9.30762L193.748 7.36781Z" fill="white"/>
<path fill-rule="evenodd" clip-rule="evenodd" d="M227.577 8.87443L193.767 6.93433C192.943 6.90332 192.733 7.85627 193.212 8.28434L199.781 13.9238L205.27 18.6384L208.929 21.7798C209.415 22.1884 210.156 22.227 210.684 21.8757C214.523 19.2016 218.322 16.4706 222.12 13.7395C224.015 12.3776 225.909 11.0156 227.808 9.66072C228.261 9.27439 227.577 8.87443 227.577 8.87443ZM205.85 17.9842L200.374 13.2832C198.253 11.4628 196.132 9.64211 194.012 7.82142L226.29 9.6737L210.196 21.1537C209.996 21.2937 209.715 21.287 209.523 21.1392C208.683 20.464 207.873 19.753 207.063 19.042C206.66 18.6879 206.257 18.3338 205.85 17.9842Z" fill="#DCD6E3"/>
<path d="M200.117 13.5586V20.3273C200.117 20.4827 200.274 20.5873 200.415 20.526L205.529 18.3101L200.117 13.5586Z" fill="white"/>
<path fill-rule="evenodd" clip-rule="evenodd" d="M200.386 13.21C200.348 13.1749 200.321 13.149 200.166 13.1294C199.976 13.1209 199.798 13.2279 199.728 13.3988C199.726 13.4024 199.725 13.4058 199.723 13.4091C199.708 13.4472 199.698 13.4697 199.694 13.5676C199.694 14.3199 199.691 15.0722 199.687 15.8245C199.68 17.3357 199.672 18.8467 199.695 20.3577C199.716 20.7933 200.189 21.0943 200.579 20.9472C201.728 20.4704 202.867 19.9699 204.006 19.4695C204.574 19.2198 205.142 18.97 205.712 18.7233C205.923 18.6213 205.988 18.468 205.974 18.2848C205.973 18.273 205.972 18.2619 205.972 18.2511C205.969 18.1794 205.967 18.1217 205.825 17.987L200.414 13.2355C200.403 13.2265 200.394 13.218 200.386 13.21ZM204.733 18.1919L200.565 19.9981V14.5323L204.733 18.1919Z" fill="#DCD6E3"/>
<path d="M200.088 13.6086V13.6057L227.553 9.30469" fill="white"/>
<path d="M227.62 8.87758C228.027 8.97409 228.117 9.61866 227.62 9.73662L200.155 14.0405C200.155 14.0405 199.68 14.035 199.646 13.611C199.646 13.611 199.668 13.2618 200.017 13.1786L227.483 8.87758C227.483 8.87758 227.546 8.87178 227.62 8.87758Z" fill="#DCD6E3"/>
<path fill-rule="evenodd" clip-rule="evenodd" d="M188.466 24.7303L188.244 24.4801C188.134 24.4512 188.019 24.4306 187.908 24.4587C187.9 24.4609 187.612 24.5585 187.479 24.6035C187.44 24.6166 187.415 24.6253 187.413 24.6259C187.243 24.6839 187.073 24.7424 186.903 24.8013C185.955 25.1305 185.012 25.4754 184.076 25.8348L183.833 26.0649L183.826 26.3973L184.058 26.6379L184.395 26.6451C185.065 26.3878 185.738 26.1376 186.415 25.8965C187.294 25.5832 188.34 25.1969 188.34 25.1969C188.34 25.1969 188.517 25.1125 188.466 24.7303ZM180.646 27.3812L180.669 27.3954C180.763 27.4517 180.869 27.5155 180.929 27.7747C180.929 27.7747 180.565 28.226 179.807 28.5729C178.893 28.9938 177.987 29.4328 177.093 29.8928C177.093 29.8928 177.093 29.9908 176.705 29.9499L176.447 29.7366C176.447 29.7366 176.312 29.5949 176.499 29.2563L176.633 29.1497C177.802 28.5437 178.993 27.9779 180.197 27.4409L180.477 27.3528L180.561 27.367L180.646 27.3812ZM173.394 31.9893C173.79 31.7525 174.259 31.4723 173.412 31.0983C173.298 31.0951 173.184 31.1038 173.081 31.1543C173.074 31.1577 172.799 31.3305 172.797 31.3319C171.98 31.8461 171.178 32.3875 170.4 32.9602C170.319 33.0195 170.233 33.0749 170.149 33.1298L170.149 33.1298L170.149 33.1298L170.149 33.1298C169.929 33.2721 169.715 33.4108 169.605 33.6047C169.423 33.925 169.642 34.0861 169.642 34.0861L169.936 34.2493C170.211 34.2281 170.27 34.1513 170.27 34.1513C171.236 33.4079 172.241 32.7153 173.269 32.0652C173.308 32.0403 173.351 32.0151 173.394 31.9893ZM167.135 36.1007C167.756 36.4853 167.584 36.629 167.252 36.9077C167.143 36.9992 167.016 37.1052 166.895 37.2391C166.155 38.0614 165.48 38.9413 164.909 39.8855C164.909 39.8855 164.916 40.0922 164.455 40.1174L164.165 39.9479L164.081 39.6256L164.138 39.4656C164.82 38.3254 165.652 37.2786 166.563 36.3097L166.966 36.0726L167.044 36.0855L167.135 36.1007ZM163.37 43.1548L163.094 42.9641C162.904 42.9601 162.763 43.0221 162.763 43.0221L162.556 43.356C162.342 44.3426 162.253 45.3543 162.3 46.3609C162.331 47.0147 162.569 47.7228 162.569 47.7228C163.116 47.9868 163.185 47.6402 163.185 47.6402C163.355 47.2976 163.264 47.2652 163.264 47.2652C163.108 46.0667 163.146 44.8561 163.387 43.676C163.4 43.6113 163.414 43.547 163.428 43.4826L163.37 43.1548ZM164.468 51.1924C165.001 52.2993 165.671 53.3398 166.447 54.3005C166.447 54.3005 166.537 54.2979 166.57 54.6535C166.57 54.6535 166.602 54.8454 166.257 55.0245C166.257 55.0245 165.94 55.0709 165.641 54.695C165.501 54.5196 165.365 54.342 165.233 54.1617C164.597 53.2948 164.047 52.3668 163.593 51.3921L163.581 51.0574L163.811 50.8145L164.147 50.8035L164.393 51.0304C164.418 51.0846 164.443 51.1385 164.468 51.1924ZM170.226 57.8224C169.87 57.5321 169.518 57.2443 169.123 57.0312C169.067 57.0254 169.01 57.0193 168.953 57.0133L168.655 57.1674L168.554 57.4848C168.632 57.7474 168.72 57.7883 168.72 57.7883C169.517 58.4412 170.352 59.0493 171.215 59.6162C171.432 59.7585 171.651 59.8985 171.871 60.0361C172.257 60.2779 172.543 60.1361 172.543 60.1361C172.728 59.9426 172.723 59.8198 172.718 59.7117L172.717 59.6846L172.434 59.3591C171.918 59.0377 171.409 58.7047 170.912 58.3557C170.674 58.1889 170.449 58.0051 170.226 57.8224ZM176.027 61.3467C176.182 61.4238 176.337 61.5 176.492 61.5757C177.545 62.0863 178.61 62.564 179.685 63.0213L179.919 63.2598L179.915 63.5926L179.674 63.8247L179.337 63.8201C178.096 63.292 176.868 62.7361 175.662 62.1385C175.662 62.1385 175.447 62.1623 175.39 61.7026L175.542 61.4055L175.861 61.3015L176.027 61.3467ZM183.985 64.7228C183.801 64.6543 183.616 64.5858 183.433 64.5165L183.348 64.5022L183.264 64.4881L182.956 64.6241C182.956 64.6241 182.788 64.7246 182.875 65.1005L183.198 65.3585C184.442 65.8242 185.692 66.2723 186.945 66.7056C187.113 66.7291 187.115 66.7291 187.281 66.687L187.505 66.4389L187.486 66.1065L187.06 65.8245C186.05 65.4732 185.044 65.1141 184.04 64.7435L183.985 64.7228ZM191.07 67.1704C192.328 67.5811 193.588 67.982 194.85 68.3796C194.85 68.3796 195.409 68.5981 195.13 69.0984L194.831 69.2514L194.661 69.2326C193.394 68.8349 192.13 68.4306 190.868 68.0202L190.539 67.7788C190.384 67.2241 190.734 67.1948 190.734 67.1948C190.734 67.1948 190.881 67.1476 191.07 67.1704ZM202.11 70.6284C201.006 70.2887 199.901 69.9488 198.797 69.6082C198.486 69.5755 198.465 69.5999 198.408 69.6664C198.389 69.6881 198.366 69.7143 198.329 69.7445L198.228 70.0621C198.228 70.0621 198.193 70.2537 198.535 70.438L199.142 70.6252C199.942 70.872 200.743 71.1183 201.543 71.3647L202.411 71.6315L202.746 71.6014C202.746 71.6014 202.938 71.5605 202.979 71.1771C202.979 71.1771 203.014 70.9855 202.672 70.8014L202.11 70.6284ZM206.547 71.9954C207.673 72.3446 208.797 72.6956 209.921 73.0486L210.289 73.1643C210.895 73.3556 210.621 73.9001 210.621 73.9001C210.316 74.1404 210.152 74.0337 210.152 74.0337C209.022 73.6773 207.89 73.324 206.757 72.9718L206.133 72.7437L205.978 72.4487C206.019 72.0655 206.212 72.025 206.212 72.025C206.212 72.025 206.358 71.9754 206.547 71.9954ZM217.843 75.6066C216.658 75.2139 215.472 74.825 214.284 74.4415L214.245 74.4367C214.058 74.4131 213.914 74.3947 213.729 74.7198L213.755 75.0516L214.122 75.304C215.37 75.7078 216.616 76.1161 217.859 76.5294L218.195 76.5065L218.416 76.2558C218.466 75.8736 218.288 75.7895 218.288 75.7895L217.843 75.6066ZM221.984 77.0036C223.248 77.439 224.51 77.8818 225.769 78.3307L226.062 78.571L226.078 78.9034C225.876 79.2336 225.684 79.1898 225.684 79.1898C225.684 79.1898 223.811 78.558 222.266 78.0224L221.547 77.7389L221.4 77.4395C221.454 77.0575 221.648 77.0231 221.648 77.0231C221.648 77.0231 221.795 76.9778 221.984 77.0036ZM233.188 81.0881C232.004 80.6317 230.818 80.1816 229.629 79.7393C229.32 79.689 229.298 79.7123 229.236 79.7756C229.216 79.7962 229.192 79.8211 229.153 79.8491L229.034 80.1604C229.034 80.1604 228.988 80.3497 229.319 80.5531L229.55 80.6389C231.181 81.2478 233.271 82.0185 233.271 82.0185L233.58 81.8855L233.703 81.5756C233.703 81.5756 233.752 81.387 233.423 81.1791L233.188 81.0881ZM237.17 82.8493C238.359 83.4982 239.488 84.2532 240.547 85.0978L240.754 85.4282C240.718 85.8119 240.526 85.8554 240.526 85.8554C240.154 85.969 240.04 85.8105 240.04 85.8105C239.95 85.7383 239.86 85.6667 239.769 85.596C238.821 84.8598 237.814 84.1984 236.76 83.6185C236.76 83.6185 236.666 83.6002 236.535 83.3504C236.535 83.3504 236.432 83.1849 236.684 82.8902L237.007 82.798L237.17 82.8493ZM245.78 91.0634L245.78 91.0633C245.098 89.8943 244.354 88.6169 243.419 87.8857C243.236 87.8347 243.083 87.8593 243.083 87.8593L242.827 88.0749C242.721 88.4459 242.884 88.5549 242.884 88.5549C243.612 89.4003 244.275 90.3005 244.863 91.2468C244.898 91.3028 244.93 91.3601 244.962 91.417C245.088 91.6386 245.21 91.8542 245.44 91.967L245.773 91.9244L245.979 91.6609L245.92 91.3033L245.78 91.0634ZM247.424 94.8031L247.647 95.0523C248.096 96.3406 248.42 97.672 248.597 99.0258L248.51 99.3594C248.215 99.6116 248.046 99.5116 248.046 99.5116C247.697 99.3385 247.727 99.1461 247.727 99.1461C247.714 99.0473 247.7 98.9487 247.686 98.8502C247.511 97.6642 247.219 96.5049 246.83 95.3766C246.83 95.3766 246.745 95.3479 246.836 95.0033L247.088 94.7828C247.088 94.7828 247.24 94.7552 247.424 94.8031ZM248.641 103.141C248.641 103.141 248.714 102.96 248.414 102.713C248.36 102.696 248.305 102.679 248.251 102.662L247.928 102.756C247.737 102.982 247.764 103.07 247.764 103.07C247.638 104.179 247.33 105.251 247.105 106.038L247.105 106.038C246.984 106.459 246.887 106.798 246.854 107.017L246.998 107.317C246.998 107.317 247.103 107.482 247.481 107.389L247.709 107.138C248.171 105.844 248.492 104.503 248.641 103.141ZM245.77 110.239C246.189 110.621 246.146 110.667 245.946 110.885C245.867 110.97 245.764 111.082 245.655 111.25C245.006 112.256 244.275 113.212 243.49 114.12C243.49 114.12 243.447 114.207 243.182 114.28L242.862 114.176L242.71 113.879C242.71 113.879 243.585 112.683 244.288 111.702C244.702 111.125 245.165 110.383 245.165 110.383C245.165 110.383 245.277 110.06 245.77 110.239ZM240.727 116.567L240.501 116.32L240.335 116.279L240.018 116.391C240.018 116.391 239.347 116.984 238.861 117.386C237.884 118.194 236.738 119.19 236.738 119.19C236.758 119.575 236.948 119.627 236.948 119.627C236.948 119.627 237.119 119.837 237.525 119.536C238.598 118.744 239.623 117.917 240.608 117.035C240.608 117.035 240.784 116.948 240.727 116.567ZM233.921 121.093L234.195 121.285L234.252 121.613C234.125 121.895 233.859 122.039 233.589 122.185L233.589 122.185L233.589 122.185L233.589 122.185L233.589 122.185L233.589 122.185L233.589 122.185L233.588 122.185C233.512 122.226 233.436 122.268 233.363 122.312C232.478 122.849 231.579 123.363 230.668 123.861C230.122 124.159 229.888 123.599 229.888 123.599L229.982 123.279C230.62 122.749 231.381 122.351 232.157 121.944L232.158 121.944C232.637 121.693 233.123 121.439 233.589 121.149C233.589 121.149 233.731 121.088 233.921 121.093ZM227.158 125.365C227.158 125.365 227.199 125.174 226.863 124.98C226.648 124.95 226.449 125.037 226.449 125.037C225.424 125.527 224.392 125.998 223.349 126.455L223.028 126.594L222.856 126.668C222.856 126.668 222.661 126.695 222.592 127.075C222.592 127.075 222.572 127.741 223.319 127.417C224.749 126.799 227.048 125.679 227.048 125.679L227.158 125.365ZM219.458 128.206L219.692 128.446L219.686 128.778L219.444 129.009C218.221 129.486 216.991 129.943 215.756 130.385L215.297 130.413L215.071 130.167L215.087 129.834L215.336 129.61C215.601 129.516 215.865 129.421 216.13 129.325C217.002 129.008 217.87 128.684 218.735 128.351L219.29 128.17C219.346 128.182 219.402 128.194 219.458 128.206ZM212.066 131.191L211.846 130.939C211.652 130.886 211.478 130.926 211.478 130.926C210.485 131.249 209.49 131.564 208.493 131.871C208.213 131.957 207.933 132.042 207.653 132.127L207.393 132.338C207.225 132.889 207.574 132.926 207.574 132.926C207.962 133.042 207.981 132.937 207.981 132.937C209.254 132.551 210.523 132.154 211.787 131.741L212.042 131.523L212.066 131.191ZM204.1 133.296C204.397 133.546 204.323 133.726 204.323 133.726C204.203 134.093 204.006 134.094 204.006 134.094C202.874 134.412 201.738 134.719 200.603 135.017C200.562 135.028 200.522 135.039 200.481 135.05C200.295 135.101 200.11 135.152 199.912 135.164L199.621 134.996C199.621 134.996 199.464 134.879 199.591 134.514L199.859 134.313C201.154 133.975 202.447 133.626 203.737 133.266C203.737 133.266 203.91 133.236 204.1 133.296ZM196.464 135.615L196.265 135.347C196.086 135.283 195.932 135.297 195.932 135.297C195.638 135.368 195.342 135.439 195.046 135.509L195.045 135.509C194.163 135.719 193.278 135.929 192.402 136.174C191.899 136.314 191.668 136.663 191.668 136.663C191.691 136.928 191.788 137.006 191.873 137.074L191.894 137.091L192.228 137.127C192.228 137.127 193.076 136.888 193.669 136.737C194.006 136.652 194.363 136.592 194.704 136.535L194.704 136.535C195.658 136.376 196.492 136.237 196.464 135.615ZM188.44 137.585C188.757 137.809 188.698 137.995 188.698 137.995C188.61 138.371 188.414 138.388 188.414 138.388C187.156 138.857 185.917 139.368 184.696 139.919C184.696 139.919 184.545 140.044 184.213 139.841C184.213 139.841 184.038 139.752 184.101 139.371C184.101 139.371 185.116 138.771 186.033 138.39C186.502 138.194 186.975 138.005 187.449 137.822C187.588 137.769 187.727 137.716 187.866 137.663C188.047 137.595 188.224 137.535 188.44 137.585ZM181.317 141.27C181.317 141.27 181.35 141.078 181.005 140.899C180.557 140.859 180.387 141.087 180.387 141.087C179.287 141.686 178.205 142.316 177.146 142.984L177.022 143.101C176.914 143.345 176.961 143.458 177.002 143.559L177.012 143.584L177.288 143.775L177.652 143.696C178.1 143.415 178.552 143.139 179.007 142.87C179.271 142.715 179.544 142.576 179.815 142.437L179.815 142.437C180.313 142.184 180.804 141.933 181.222 141.589L181.317 141.27ZM174.268 145.254L174.469 145.52L174.421 145.85C174.073 146.232 173.634 146.545 173.189 146.862L173.189 146.863C172.94 147.04 172.69 147.218 172.452 147.411C171.858 147.893 171.031 148.564 171.031 148.564C170.454 148.639 170.473 148.292 170.473 148.292L170.496 147.96C170.711 147.682 171.01 147.447 171.313 147.209L171.313 147.209C171.409 147.133 171.505 147.057 171.599 146.98C172.281 146.419 172.977 145.877 173.686 145.349L174.106 145.197L174.268 145.254ZM168.361 150.752L168.118 150.522L167.949 150.492L167.603 150.664C166.673 151.628 165.78 152.629 164.938 153.671L164.859 153.821L164.897 154.152C165.281 154.602 165.703 154.118 165.703 154.118C166.384 153.282 167.097 152.472 167.835 151.686L167.89 151.629C168.142 151.365 168.43 151.065 168.361 150.752ZM163.478 157.215C163.478 157.146 163.406 157.077 163.248 156.926C163.216 156.896 163.181 156.863 163.142 156.825C163.089 156.804 163.036 156.783 162.982 156.762C162.982 156.762 162.598 156.851 162.423 157.119C162.29 157.322 162.16 157.526 162.03 157.731C161.473 158.617 160.95 159.525 160.462 160.45L160.414 160.613L160.515 160.93L160.814 161.084C161.201 161.042 161.242 160.852 161.242 160.852C161.735 159.916 162.267 159 162.831 158.104C163.05 157.761 163.221 157.565 163.332 157.439C163.427 157.331 163.478 157.273 163.478 157.215Z" fill="#DCD6E3"/>
<path fill-rule="evenodd" clip-rule="evenodd" d="M8.14579 46.1272C7.01376 45.3595 5.85946 44.6219 4.6732 43.9379L4.51111 43.8828L4.18575 43.9674C3.92721 44.2564 4.02658 44.4242 4.02658 44.4242C4.14266 44.6593 4.23675 44.6929 4.23675 44.6929C5.40629 45.3719 6.54887 46.0942 7.66097 46.8529L7.99014 46.9228C8.53095 46.7104 8.34306 46.4168 8.34306 46.4168C8.23753 46.1536 8.14579 46.1272 8.14579 46.1272ZM11.3343 48.4776C11.6413 48.6302 11.9113 48.8578 12.1831 49.0871C12.2773 49.1664 12.3716 49.246 12.4678 49.3227C13.1997 49.907 13.9202 50.5049 14.6316 51.1135C14.6316 51.1135 14.721 51.0785 14.8224 51.4462C14.8224 51.4462 14.8884 51.6297 14.58 51.8656C14.58 51.8656 14.3086 51.9874 14.0554 51.7703C13.9871 51.7118 13.9185 51.6534 13.8499 51.595L13.7476 51.5077C12.8541 50.7512 11.9411 50.0102 11.0116 49.2894C11.0116 49.2894 10.9099 49.3354 10.7809 48.95C10.7809 48.95 10.705 48.7706 11.0002 48.5184C11.0002 48.5184 11.1447 48.4639 11.3343 48.4776ZM18.422 54.5611C18.1538 54.2824 17.8878 54.006 17.5732 53.8077C17.3862 53.7749 17.237 53.8149 17.237 53.8149C17.237 53.8149 17.0421 53.8425 16.9744 54.2221L17.1588 54.5731C18.0056 55.3794 18.8369 56.2022 19.6526 57.0416C19.7646 57.1572 19.8763 57.2726 19.9876 57.3888L20.2948 57.5244L20.6091 57.4056L20.7465 57.1018L20.6017 56.7654C19.9812 56.1208 19.3527 55.484 18.7132 54.8577C18.6143 54.7609 18.518 54.6609 18.422 54.5611ZM23.2573 59.7085C23.5302 59.9188 23.7408 60.1829 23.9525 60.4483C24.0279 60.5429 24.1035 60.6376 24.1821 60.7302C24.8035 61.4631 25.4117 62.2068 26.0094 62.9589C26.0094 62.9589 26.0832 63.0273 26.1026 63.2838C26.1026 63.2838 26.1319 63.4763 25.7837 63.6499L25.4495 63.6093C25.4495 63.6093 24.5825 62.568 23.8121 61.6492C23.4604 61.2298 23.104 60.8145 22.7449 60.4012C22.7449 60.4012 22.6596 60.3679 22.6215 60.0653C22.6215 60.0653 22.5506 59.5158 23.2573 59.7085ZM30.8405 69.7775C30.2927 68.3919 29.3876 67.0885 28.3511 66.1196C28.059 66.0094 28.0323 66.0277 27.9594 66.0777C27.9356 66.094 27.907 66.1136 27.8627 66.1333L27.6836 66.415L27.8062 66.8054C28.3839 67.6157 28.9485 68.4353 29.4992 69.2645C29.5721 69.375 29.6379 69.4909 29.7018 69.6036C29.8427 69.8522 29.9748 70.0853 30.1561 70.2105C30.3126 70.3183 30.485 70.2818 30.485 70.2818L30.7684 70.1027L30.8405 69.7775ZM32.6448 72.9063C32.9482 73.0563 33.1144 73.394 33.2859 73.7423C33.3391 73.8503 33.3927 73.9594 33.4512 74.0642C33.8999 74.8687 34.3335 75.6811 34.7541 76.5001C34.7541 76.5001 34.8274 76.5917 34.9053 76.87L34.7995 77.1859L34.4991 77.3354C34.4991 77.3354 34.3138 77.4015 34.0741 77.0975C33.4691 75.9092 32.8345 74.7415 32.1729 73.5859C32.1729 73.5859 31.9612 73.4955 32.1814 73.0593L32.4736 72.8944L32.5073 72.8968C32.5532 72.9001 32.5991 72.9033 32.6448 72.9063ZM36.6146 80.4005C36.5173 80.2623 36.5155 80.2605 36.3722 80.1698C36.3322 80.1628 36.2971 80.1497 36.2639 80.1373C36.136 80.0897 36.0375 80.053 35.8024 80.4164L35.8449 80.83C36.0788 81.361 36.3074 81.894 36.5293 82.4301C36.9426 83.4286 37.4345 84.6302 37.4345 84.6302C37.4345 84.6302 37.525 84.803 37.9099 84.7406L38.1561 84.5137L38.1488 84.1314C37.7452 83.0712 37.3178 82.0195 36.8673 80.9773C36.7837 80.7845 36.6996 80.5924 36.6146 80.4005ZM39.2933 87.7855L39.5093 88.0408C39.9091 89.3036 40.2873 90.5754 40.6528 91.85C40.6528 91.85 40.7712 91.8744 40.6393 92.2737L40.3749 92.4795C40.3749 92.4795 40.2067 92.5804 39.9103 92.3297C39.9103 92.3297 39.2414 90.1169 38.6734 88.3112L38.7 87.9693C38.9738 87.6335 39.0676 87.6806 39.1894 87.7416C39.2209 87.7575 39.2544 87.7742 39.2933 87.7855ZM41.9126 96.5386C41.8463 96.1773 41.7825 95.8298 41.5337 95.606C41.3549 95.5426 41.2007 95.5568 41.2007 95.5568L40.9302 95.7544L40.8803 96.0837C40.8803 96.0837 41.1146 97.0236 41.2711 97.6864C41.5539 98.8834 41.8641 100.179 41.8641 100.179C41.8641 100.179 41.9743 100.632 42.4755 100.291C42.5137 100.265 42.5465 100.246 42.5741 100.23C42.6193 100.204 42.6508 100.185 42.6696 100.158C42.7124 100.097 42.6891 99.9889 42.6126 99.6356L42.6125 99.6355L42.6125 99.6354L42.6125 99.6354L42.6125 99.6353L42.6125 99.6353L42.6125 99.6352L42.5977 99.5671C42.4034 98.6686 42.1982 97.7748 41.9825 96.883C41.9549 96.7692 41.9337 96.6532 41.9126 96.5386ZM43.0905 103.496C43.4461 103.654 43.4253 103.848 43.4253 103.848C43.6448 105.149 43.838 106.455 43.9968 107.764C43.9978 107.771 43.9989 107.779 44.0001 107.787C44.0025 107.802 44.0054 107.817 44.0082 107.831L44.0082 107.832C44.0331 107.961 44.0575 108.089 43.7893 108.315L43.4552 108.354C43.4552 108.354 43.1661 108.211 43.0929 107.615C42.9401 106.402 42.7608 105.194 42.5579 103.991L42.6335 103.667L42.919 103.491L43.0905 103.496ZM44.3949 112.054C44.4099 111.919 44.4266 111.769 44.0837 111.569C43.8959 111.544 43.7478 111.589 43.7478 111.589C43.4365 111.821 43.5001 112.005 43.5001 112.005C43.5784 113.348 43.6145 114.693 43.5977 116.03L43.7226 116.339L44.0319 116.47L44.3443 116.347L44.4783 115.938C44.4891 114.906 44.4707 113.874 44.4246 112.844C44.4141 112.613 44.4024 112.382 44.3895 112.151C44.3877 112.119 44.3912 112.087 44.3949 112.054ZM44.014 119.702C44.3141 119.948 44.242 120.13 44.242 120.13C44.118 121.316 43.9407 122.499 43.6974 123.667C43.8031 123.716 43.9075 123.766 44.0124 123.816L44.0132 123.816L44.0644 123.841C44.8737 124.229 44.8515 124.296 44.7708 124.54C44.7597 124.573 44.7475 124.61 44.7362 124.652L44.483 124.871L43.3568 124.47L43.0611 124.513L42.7855 124.322L42.7301 124.181C41.99 123.847 41.242 123.53 40.4875 123.226L40.1932 122.971C40.0742 122.408 40.4256 122.401 40.4256 122.401L40.7621 122.398C41.4732 122.681 42.1782 122.98 42.877 123.292C43.0892 122.23 43.2484 121.152 43.3641 120.07L43.5274 119.747L43.8501 119.653L43.9212 119.674L44.014 119.702ZM21.2123 121.919C21.2123 121.919 21.2399 121.726 20.8902 121.556C20.6994 121.543 20.554 121.601 20.554 121.601C19.3138 122.319 18.2049 123.268 17.4038 124.442C17.4038 124.442 17.254 124.568 17.4015 124.925C17.4015 124.925 17.4619 125.11 17.852 125.112L18.1445 124.911C18.8058 123.96 19.6758 123.175 20.6604 122.554C20.7936 122.471 20.8934 122.437 20.969 122.411C21.1367 122.354 21.1846 122.337 21.2123 121.919ZM48.1647 126.042C49.3078 126.735 50.4132 127.474 51.4875 128.28C51.7085 128.446 51.846 128.61 51.6701 128.965L51.379 129.132C51.379 129.132 50.228 128.42 49.3049 127.802C48.7799 127.449 48.2456 127.111 47.7048 126.783L47.5072 126.513C47.5072 126.513 47.3035 126.23 47.8323 125.989C47.8323 125.989 47.9865 125.976 48.1647 126.042ZM42.4316 128.15C42.579 127.912 42.6102 127.861 42.1418 127.567C41.9545 127.535 41.8053 127.576 41.8053 127.576L41.5556 127.861C41.1502 128.889 40.6724 129.889 40.1105 130.844C40.0766 130.901 40.0407 130.957 40.0052 131.013C39.8626 131.237 39.7244 131.454 39.7312 131.697L39.9258 131.969L40.2576 132.025L40.5584 131.791C41.0722 130.977 41.5257 130.128 41.9208 129.254C42.0307 129.011 42.1362 128.766 42.2374 128.519C42.305 128.355 42.3764 128.239 42.4316 128.15ZM16.6127 128.083L16.8249 128.342C16.8644 128.756 16.8743 129.201 16.8846 129.666C16.9039 130.53 16.9247 131.463 17.1397 132.397C17.1397 132.397 17.2332 132.568 16.965 132.848C16.965 132.848 16.4201 133.201 16.2592 132.49C15.9684 131.206 15.8321 129.877 15.9508 128.576C15.9997 128.039 16.2779 128.049 16.2779 128.049C16.2779 128.049 16.4309 128.028 16.6127 128.083ZM57.1106 133.588C56.3271 132.587 55.5049 131.537 54.5918 130.95C54.0762 130.855 54.0202 131.192 54.0202 131.192C53.9487 131.571 54.1213 131.664 54.1213 131.664C54.6044 132.131 55.0734 132.612 55.5251 133.109C55.7094 133.312 55.8782 133.526 56.0466 133.741C56.3258 134.096 56.6043 134.451 56.9517 134.747L57.2856 134.789C57.2856 134.789 57.4825 134.789 57.6051 134.423L57.5013 134.084C57.3723 133.922 57.2425 133.756 57.1116 133.589L57.1106 133.588ZM37.7637 134.35C38.0832 134.57 38.0267 134.757 38.0267 134.757L37.8913 135.062C36.875 136.025 35.7333 136.852 34.489 137.514C34.489 137.514 34.4049 137.572 34.1519 137.546L33.8928 137.333C33.8928 137.333 33.6041 137.125 34.076 136.746C34.076 136.746 35.9271 135.719 37.2827 134.434L37.5961 134.313L37.7637 134.35ZM19.5393 135.885C19.3546 135.734 19.1691 135.583 18.9867 135.475C18.6775 135.431 18.6554 135.454 18.5953 135.519C18.5757 135.54 18.552 135.565 18.513 135.594L18.4004 135.907L18.5537 136.215C19.5612 137.099 20.7442 137.774 22.0035 138.263C22.422 138.425 22.6782 138.227 22.6782 138.227L22.7961 137.915C22.7067 137.54 22.5106 137.523 22.5106 137.523C21.5995 137.187 20.7234 136.746 19.9299 136.189C19.801 136.098 19.6704 135.992 19.5393 135.885ZM60.161 138.075C60.0053 137.76 59.8517 137.449 59.572 137.311C59.3826 137.297 59.2381 137.352 59.2381 137.352L59.0318 137.615L59.0737 137.945C59.655 138.954 60.1708 139.999 60.6199 141.071C61.0625 142.142 61.3808 141.794 61.3808 141.794L61.6241 141.564C61.6918 141.262 61.6215 141.205 61.6215 141.205C61.2272 140.214 60.7808 139.245 60.2778 138.306C60.2375 138.23 60.1992 138.153 60.161 138.075ZM62.6631 144.894C62.8816 145.097 62.9438 145.449 63.0063 145.804C63.0204 145.884 63.0344 145.963 63.0503 146.042C63.2599 147.075 63.4126 148.119 63.5167 149.17C63.5167 149.17 63.5571 149.57 63.1257 149.698L62.8038 149.6C62.8038 149.6 62.5538 148.295 62.3709 147.201C62.2677 146.584 62.1443 145.97 62.0018 145.361C62.0018 145.361 61.9077 145.19 62.1748 144.909L62.5025 144.834L62.6631 144.894ZM63.6578 153.334C63.6578 153.334 63.7158 153.148 63.3978 152.925C63.3421 152.912 63.2864 152.899 63.2304 152.887L62.9162 153.006C62.689 153.322 62.7769 153.37 62.7769 153.37C62.7611 153.884 62.735 154.398 62.6969 154.911C62.6061 156.139 62.524 157.625 62.524 157.625C62.959 158.007 63.1398 157.709 63.1398 157.709C63.2988 157.533 63.3225 157.347 63.3472 157.154L63.3529 157.109C63.3808 156.899 63.4072 156.689 63.4315 156.478C63.552 155.434 63.6282 154.384 63.6578 153.334ZM62.556 161.487C62.6748 161.236 62.7107 161.16 62.1983 160.921C62.0086 160.912 61.8656 160.97 61.8656 160.97C61.629 161.183 61.6578 161.268 61.6578 161.268C61.3685 162.398 61.0326 163.517 60.6207 164.609C60.4879 164.955 60.4478 165.373 60.4478 165.373L60.6849 165.61L61.0214 165.611C61.2782 165.442 61.2706 165.352 61.2706 165.352C61.7387 164.221 62.0966 163.047 62.4102 161.867C62.4538 161.703 62.5108 161.582 62.556 161.487ZM26.4939 138.352C27.7787 138.428 29.0702 138.339 30.335 138.083L30.6768 138.142L30.867 138.416L30.8051 138.743L30.5276 138.932C29.159 139.218 27.7479 139.305 26.3442 139.213L26.0229 139.063L25.9168 138.747C26.0713 138.192 26.387 138.345 26.387 138.345L26.4299 138.348L26.4939 138.352ZM36.8587 120.989C35.5481 120.575 34.2092 120.255 32.8529 120.036C32.7963 120.027 32.6562 120.038 32.6562 120.038L32.3836 120.233L32.3303 120.562C32.5226 120.976 32.7125 120.894 32.7125 120.894C33.2636 120.983 33.8117 121.088 34.356 121.211C35.4799 121.465 36.7798 121.842 36.7798 121.842L37.0791 121.69L37.1826 121.374C37.0562 120.935 36.8587 120.989 36.8587 120.989ZM28.8408 119.733L29.0791 119.969V120.301L28.8414 120.537C28.3944 120.625 27.9187 120.632 27.4355 120.639H27.4354H27.4353H27.4352H27.4351H27.435H27.4349H27.4348H27.4347H27.4346H27.4345H27.4344C27.0698 120.645 26.7009 120.65 26.337 120.691C25.79 120.752 25.2472 120.841 24.7099 120.957L24.3617 120.904C24.0797 120.637 24.1644 120.462 24.1644 120.462C24.3054 120.102 24.5021 120.112 24.5021 120.112C25.8645 119.812 27.2656 119.706 28.6679 119.7C28.6679 119.7 28.7708 119.72 28.8408 119.733Z" fill="#DCD6E3"/>
<path d="M202.148 22.6896C202.551 22.7169 202.717 23.4144 202.229 23.5462C201.141 23.8154 199.905 24.4717 199.721 23.7752C199.548 23.1244 200.932 22.9477 202.038 22.6979C202.071 22.692 202.073 22.6874 202.148 22.6896Z" fill="#DCD6E3"/>
<path d="M167.407 163.853C168.162 163.901 167.467 165.539 167.066 166.408C166.851 166.827 166.057 166.673 166.349 165.829C166.478 165.461 166.61 165.095 166.748 164.731C166.907 164.313 167.03 163.845 167.407 163.853Z" fill="#DCD6E3"/>
<path d="M93.9199 62.2767C94.3555 62.3396 94.5734 62.813 93.7691 63.2701C89.5721 65.6692 85.7886 68.7638 82.4331 72.2452C82.4331 72.2452 82.1094 72.4736 81.865 72.303C81.2579 71.8784 82.5836 70.8253 83.5678 69.8835C86.5793 67.001 89.9172 64.4448 93.5559 62.3913C93.5559 62.3913 93.7177 62.2679 93.9199 62.2767Z" fill="black"/>
<path d="M177.697 120.329C178.06 120.379 178.173 120.749 177.897 121.22C175.419 125.407 171.718 130.004 167.372 129.134C166.762 129.012 166.702 128.1 167.503 128.273C169.95 128.776 172.29 126.865 173.83 125.25C174.174 124.89 174.503 124.516 174.819 124.131C175.742 123.01 176.548 121.799 177.275 120.545C177.275 120.545 177.412 120.316 177.697 120.329Z" fill="black"/>
<path fill-rule="evenodd" clip-rule="evenodd" d="M168.587 97.248C168.587 97.248 167.843 97.4715 166.53 98.0132C165.597 98.3986 164.384 98.9435 162.945 99.6797V99.6826C162.851 99.7318 162.754 99.7811 162.657 99.8304C162.432 99.9466 162.2 100.068 161.966 100.196C161.708 100.335 161.441 100.48 161.171 100.63C160.91 100.775 160.644 100.926 160.374 101.082C158.615 102.094 156.974 103.178 155.602 104.149C155.584 104.16 155.57 104.172 155.552 104.184C154.726 104.763 153.999 105.299 153.404 105.754C153.119 105.969 152.864 106.166 152.644 106.34C152.008 106.838 151.648 107.14 151.648 107.14C150.226 104.282 148.441 100.326 148.318 100.126C148.321 100.14 148.292 101.001 148.306 101.039L146.407 138.621H96.7114L96.6382 137.206L94.7094 100.338C94.7094 100.338 93.6308 103.308 91.6376 107.377C91.6288 107.372 91.6229 107.363 91.6141 107.357C91.3767 107.163 91.0953 106.946 90.7728 106.708C90.5794 106.569 90.3771 106.421 90.1602 106.267C90.1045 106.224 90.043 106.183 89.9844 106.14C89.9023 106.085 89.8202 106.027 89.7411 105.969C88.9115 105.386 87.9442 104.734 86.8978 104.068C85.9305 103.453 84.8987 102.833 83.8435 102.248C83.3687 101.987 82.8909 101.732 82.4102 101.488C82.29 101.427 82.1698 101.366 82.0526 101.308C81.6949 101.132 81.3373 100.961 80.9797 100.801C80.9328 100.778 80.8859 100.758 80.839 100.738C80.7921 100.714 80.7452 100.694 80.6983 100.674C80.3906 100.538 79.9362 100.343 79.4115 100.117C78.8077 99.8593 78.116 99.5608 77.4535 99.2797C77.3304 99.2275 77.2073 99.1754 77.0871 99.1232C75.8472 98.5928 74.8008 98.1494 74.8008 98.1494C74.8008 98.1494 74.9004 97.9639 75.088 97.6248C75.4369 96.993 76.0905 95.8192 76.9787 94.2889C77.1223 94.0396 77.2718 93.7817 77.4271 93.5151C78.0075 92.5297 78.667 91.4225 79.391 90.2342C79.7955 89.5676 80.2235 88.875 80.669 88.162C83.9871 82.8698 88.2843 76.569 92.4114 72.2013C96.9371 67.4076 102.307 65.8744 106.777 65.6135C109.04 65.4802 111.074 65.6744 112.645 65.9352C114.299 66.2077 115.964 66.4048 117.631 66.5352C119.299 66.6627 120.976 66.7236 122.653 66.7236C124.927 66.7236 127.199 66.5902 129.459 66.3207C130.954 66.141 132.997 65.9845 135.309 66.0396C135.523 66.0454 135.737 66.0512 135.957 66.0599C141.277 66.2714 147.834 67.6539 152.419 72.4128C157.112 77.2848 161.315 83.8465 164.258 88.9996C166.949 93.7121 168.587 97.248 168.587 97.248Z" fill="#D6F318"/>
<path fill-rule="evenodd" clip-rule="evenodd" d="M111.385 65.0168C110.371 64.9003 109.35 64.8409 108.33 64.8359C108.191 64.8359 108.052 64.8365 107.913 64.8383C101.555 64.9339 95.5694 67.6606 91.3843 72.2253C85.6517 78.478 81.1195 85.8086 76.7934 93.1421L76.6767 93.3426C76.0999 94.3364 75.5265 95.332 74.9646 96.3339C74.517 97.1324 74.0703 98.0845 74.0703 98.0845L74.1096 98.3795L74.2658 98.6343L74.6949 98.8829C75.235 99.1123 75.7728 99.3378 76.3106 99.5633C77.7481 100.166 79.1856 100.769 80.6667 101.446C83.8977 102.926 86.9951 104.866 89.7223 106.838C89.8075 106.9 89.8928 106.961 89.9781 107.022C90.3863 107.315 90.7939 107.608 91.1794 107.934L91.4965 108.079L91.8152 108.071L92.1001 107.93C92.1222 107.902 92.1451 107.875 92.168 107.848C92.2135 107.795 92.2589 107.741 92.2976 107.683C92.2996 107.68 92.4004 107.472 92.4525 107.365C92.4702 107.328 92.4823 107.304 92.4829 107.302C93.0656 106.099 93.6199 104.887 94.1502 103.658L95.9065 137.234L95.9798 138.648C96.0824 139.06 96.3488 139.266 96.7117 139.335H146.407C146.829 139.255 147.051 139.002 147.139 138.647L148.933 103.149L149.078 103.459L149.206 103.734C149.769 104.932 150.337 106.132 150.923 107.314C151.37 108.216 152.119 107.686 152.119 107.686C154.93 105.357 158.006 103.237 161.239 101.415C162.202 100.872 163.298 100.305 163.298 100.305C165.04 99.4168 166.816 98.5833 168.68 97.9697C168.722 97.9564 168.764 97.9427 168.806 97.93L169.075 97.7793L169.257 97.5323L169.32 97.2332L169.233 96.8927C165.114 88.14 160.012 79.3855 153.284 72.254C147.298 65.9086 138.184 64.6134 129.663 65.5576C123.435 66.2709 117.426 65.7112 111.385 65.0168ZM147.766 99.6409L147.587 100.15C147.583 100.078 147.552 100.667 147.572 101.044L145.71 137.887H97.4081L97.3706 137.159L95.4419 100.291C95.2583 99.5725 94.9856 99.5874 94.717 99.6022C94.7029 99.6029 94.6888 99.6037 94.6748 99.6044C94.2638 99.6238 94.0091 100.114 94.0091 100.114C93.2353 102.195 92.3304 104.23 91.3725 106.237L91.2089 106.116C91.2089 106.116 90.5218 105.617 90.0071 105.257C86.3434 102.7 82.3514 100.576 78.2451 98.8184C78.0953 98.7544 77.9454 98.6904 77.7956 98.6265C77.1399 98.3467 76.4842 98.0668 75.8284 97.7877L75.8758 97.7017C78.1721 93.5722 80.632 89.4758 83.2469 85.4823C86.3763 80.7028 89.5704 75.9317 93.6207 72.0037C98.5612 67.2128 105.634 65.5837 112.233 66.5935C117.704 67.4462 123.213 67.6858 128.688 67.1265C136.646 66.2828 146.405 67.0868 152.213 73.243C158.608 80.0226 163.421 88.2357 167.576 96.8174C166.834 97.0884 166.103 97.3875 165.38 97.7054C164.13 98.2555 162.534 99.0685 162.534 99.0685C159.552 100.606 156.677 102.43 153.955 104.424C152.993 105.129 151.901 105.987 151.901 105.987C151.353 104.859 150.823 103.722 150.293 102.586C149.898 101.739 149.504 100.892 149.101 100.049C149.089 100.023 149.08 100.002 149.07 99.9814C149.045 99.9241 149.021 99.8727 148.955 99.7577C148.502 99.2351 148.12 99.367 147.766 99.6409Z" fill="black"/>
<path d="M166.153 93.9979L167.575 96.819C167.575 96.819 166.25 97.2816 163.761 98.4977C163.761 98.4977 162.576 95.9927 160.58 91.8488C158.585 87.7052 152.149 76.1121 145.713 71.672C139.301 67.2496 131.318 66.8377 131.318 66.8377C131.318 66.8377 135.44 66.3934 140.433 67.2814C145.425 68.1695 149.804 70.3524 152.909 73.9784C156.015 77.6044 158.781 81.1148 163.87 89.8015L166.112 93.9179L166.153 93.9979Z" fill="black" fill-opacity="0.25" style="mix-blend-mode:overlay"/>
<path d="M139.705 137.914L145.725 137.864L146.111 129.958L146.797 116.552L147.596 100.285L146.012 96.5234C146.012 96.5234 142.998 116.232 142.25 121.893C141.524 127.377 139.705 137.914 139.705 137.914Z" fill="black" fill-opacity="0.25" style="mix-blend-mode:overlay"/>
<path fill-rule="evenodd" clip-rule="evenodd" d="M127.679 73.7907C124.004 74.8784 119.88 74.7251 115.489 73.7142C108.896 72.2013 106.763 67.6974 106.777 65.6135C109.041 65.4802 111.075 65.6744 112.646 65.9352C114.299 66.2077 115.964 66.4048 117.632 66.5352C119.3 66.6627 120.976 66.7236 122.653 66.7236C124.927 66.7236 127.199 66.5902 129.459 66.3207C130.954 66.141 132.997 65.9845 135.31 66.0396C135.524 66.0454 135.738 66.0512 135.958 66.0599C135.732 67.7843 134.162 70.2273 132.495 71.4301C132.288 71.5796 132.078 71.7234 131.867 71.861" fill="#FFCE93"/>
<path d="M108.331 64.8399C109.352 64.8448 110.372 64.9042 111.385 65.0207C117.426 65.7154 123.437 66.2751 129.664 65.5615C131.744 65.3311 133.824 65.2531 135.903 65.3268C135.903 65.3268 136.186 65.3207 136.392 65.4699C137.093 65.9794 136.502 67.2929 135.878 68.4812C135.066 70.0254 133.889 71.3789 132.436 72.3507C132.004 72.6402 131.484 72.6486 131.233 72.2168C130.855 71.5687 131.894 71.0152 132.478 70.5094C133.624 69.5176 134.519 68.2282 135.021 66.8057C135.021 66.8057 134.788 66.7492 134.662 66.7481C133.464 66.7405 132.267 66.7843 131.073 66.8811C125.03 67.3709 119.003 67.6746 112.84 66.695C111.119 66.4211 109.375 66.2565 107.634 66.2968L107.586 66.298C108.328 69.8625 112.201 72.2492 116.058 73.0929C119.777 73.9062 123.668 74.1621 127.304 73.1384L127.561 73.0697C127.966 73.0297 128.07 73.1289 128.226 73.3028C128.595 73.712 128.336 74.3548 127.619 74.5566C123.163 75.7857 118.302 75.384 114.086 74.0824C110.375 72.9367 106.847 70.2692 106.133 66.5046C106.092 66.2881 106.063 66.069 106.051 65.849C106.022 65.3149 106.241 64.9068 107.061 64.8671C107.484 64.8485 107.908 64.8396 108.331 64.8399Z" fill="black"/>
<path d="M166.968 95.6107C166.968 95.6107 155.141 98.7913 151.076 104.279L150.269 102.552L150.16 102.327L149.424 100.737C154.27 95.0169 165.396 92.5742 165.396 92.5742L165.798 93.3298L166.362 94.4027L166.968 95.6107Z" fill="#EDF3C2"/>
<path d="M77.6299 94.6086L78.45 93.2148C78.45 93.2148 88.7722 95.4085 93.6187 101.128L92.8835 102.895L92.856 102.966L92.0487 104.774C87.984 99.2861 76.6758 96.2858 76.6758 96.2858L77.5393 94.7692L77.6299 94.6086Z" fill="#EDF3C2"/>
<path d="M146.399 94.7882C146.682 94.8048 146.933 94.9793 147.05 95.241L148.981 99.8776C149.252 100.575 148.071 101.393 147.644 100.435L145.712 95.7982C145.658 95.6585 145.655 95.6066 145.655 95.5135C145.655 95.1167 145.867 94.7838 146.399 94.7882Z" fill="black"/>
<path d="M96.4895 95.1982C96.8174 95.2275 96.8523 95.309 96.9486 95.4043C97.1525 95.606 97.2289 95.8709 97.1136 96.1909L95.2683 100.937C94.9734 101.642 93.6016 101.289 93.9177 100.411L95.7629 95.6657C95.8869 95.3692 96.0946 95.183 96.4895 95.1982Z" fill="black"/>
<path fill-rule="evenodd" clip-rule="evenodd" d="M87.465 40.1872C87.4594 40.2521 87.4539 40.3167 87.448 40.3811C86.8292 47.2236 90.8025 53.6183 97.0837 55.7955C97.7025 56.0099 98.3491 56.2267 99.0251 56.4452C101.788 57.3382 104.821 58.2442 108.188 58.7688C112.392 59.4307 117.045 59.722 121.997 59.722C126.798 59.722 131.314 59.4473 135.413 58.8293C138.775 58.3239 141.854 57.588 144.578 56.5826C155.925 52.3996 161.122 43.5662 154.882 27.3612C154.666 26.8036 154.445 26.257 154.216 25.7243C152.679 22.1287 150.955 19.1076 149.127 16.5751C145.457 11.4883 141.366 8.35995 137.495 6.45377C131.884 3.69608 126.739 3.50943 124.009 3.67695C122.645 3.75955 121.288 3.75955 119.923 3.67695C117.147 3.50653 111.858 3.70709 106.129 6.61028C102.261 8.57413 98.1873 11.7741 94.5506 16.9321C94.5506 16.9321 88.7885 24.347 87.465 40.1872Z" fill="#ACC5F5"/>
<path fill-rule="evenodd" clip-rule="evenodd" d="M147.214 13.0236C141.687 6.85847 133.761 2.93538 125.542 2.90234H125.376C124.739 2.90591 124.105 2.92139 123.474 2.93681C122.207 2.96773 120.95 2.99843 119.693 2.93249C109.118 2.44152 99.1699 8.45338 93.4769 17.1963C89.0361 24.0156 87.4334 32.1707 86.7278 40.2157C86.0862 47.5306 90.6627 54.389 97.556 56.7175C104.236 58.9735 110.996 60.1241 117.868 60.3693C125.287 60.6336 132.767 60.3794 139.972 58.6958C145.677 57.3626 151.452 54.9342 154.95 50.3422C157.82 46.5759 158.636 41.6564 158.137 37.0366C157.245 28.7678 153.291 19.8018 147.214 13.0236ZM123.543 4.37596C124.155 4.3665 124.767 4.35705 125.382 4.35362C129.087 4.34493 132.771 5.13355 136.152 6.62412C142.981 9.63541 148.025 15.3386 151.454 21.6661C154.84 27.9159 158.081 36.0098 156.424 43.6752C155.249 49.1132 151.079 52.9319 146.329 55.0804C141.241 57.3816 135.581 58.2743 129.957 58.707C118.678 59.5747 107.408 58.5867 97.3279 55.1079C91.1431 52.9449 87.6324 46.5815 88.1879 40.343C88.6633 34.8352 89.6907 29.367 91.6599 24.2006C92.5826 21.7794 93.6282 19.3457 95.1447 17.354C100.714 9.48615 109.758 4.05655 119.277 4.36754C120.728 4.41947 122.135 4.39772 123.543 4.37596Z" fill="black"/>
<path d="M98.8064 41.3075C99.3606 41.3918 99.0233 42.2818 98.8582 42.9967C98.2545 45.6073 98.8414 48.4265 100.421 50.6539C100.421 50.6539 100.606 51.4317 100.007 51.3444C99.6261 51.2888 99.3555 50.655 99.0981 50.2108C97.6367 47.6888 97.3918 44.5631 98.3081 41.7303C98.3081 41.7303 98.4458 41.2855 98.8064 41.3075Z" fill="black"/>
<path d="M119.959 0.000602515C120.435 0.0498729 120.793 0.53678 121.17 0.956738C121.637 1.47726 122 2.08851 122.223 2.7496C122.223 2.7496 123.388 1.89461 123.72 0.987459C123.72 0.987459 123.824 0.774727 124.004 0.71995C124.37 0.608077 124.767 0.971519 124.401 1.58189C123.865 2.47629 123.057 3.20695 122.27 3.94484C122.27 3.94484 121.634 4.22076 121.504 3.46953C121.303 2.38413 120.57 1.43292 119.669 0.78603C119.669 0.78603 119.516 0.664304 119.492 0.495625C119.454 0.235361 119.617 -0.0138888 119.959 0.000602515Z" fill="black"/>
<path d="M101.772 27.5219C102.566 27.5712 102.855 28.829 101.388 29.0421C99.9898 29.2448 98.5634 29.2656 97.1465 29.2174C97.1465 29.2174 96.6177 29.1174 96.4814 28.7347C96.291 28.2002 96.8056 27.7608 97.5999 27.7808C98.9344 27.8091 100.288 27.8143 101.59 27.5378C101.59 27.5378 101.59 27.5198 101.772 27.5219Z" fill="black"/>
<path d="M141.178 27.5466C141.178 27.5466 141.399 27.5807 141.592 27.6105C142.924 27.8122 144.268 27.9408 145.615 27.9924C145.615 27.9924 146.314 28.1778 146.321 28.7089C146.326 29.0884 145.994 29.4274 145.597 29.4409C145.523 29.4399 145.523 29.4391 145.447 29.4363C143.964 29.3743 142.485 29.2318 141.026 28.9874C141.026 28.9874 140.53 28.8562 140.419 28.4617C140.294 28.0146 140.599 27.5179 141.178 27.5466Z" fill="black"/>
<path d="M134.306 9.09006C135.097 9.1518 136.716 10.1729 138.021 11.1849C138.021 11.1849 138.24 11.4107 138.174 11.6437C137.989 12.2973 136.847 11.34 135.805 10.7435C135.263 10.4325 134.698 10.161 134.117 9.92679C134.117 9.92679 133.831 9.75753 133.844 9.5022C133.856 9.26947 133.976 9.08253 134.306 9.09006Z" fill="black"/>
<path d="M139.264 57.4639C139.264 57.4639 139.385 57.432 139.594 57.3744C140.505 57.1234 143.242 56.4571 144.871 55.767C146.874 54.9184 152.131 52.7496 154.741 48.1825C157.764 42.8924 156.719 37.3813 156.719 37.3813C156.719 37.3813 156.362 30.3571 151.022 20.8462C144.949 10.0302 137.434 7.32812 137.434 7.32812C137.434 7.32812 149.679 16.5504 152.649 36.4269C153.339 41.0433 151.63 47.0148 148.686 50.662C146.542 53.3171 143.902 55.0259 139.594 57.3744" fill="black" fill-opacity="0.25" style="mix-blend-mode:overlay"/>
<path d="M129.064 17.5419C129.426 17.5941 129.357 17.6791 129.554 18.0466C132.006 22.5258 136.622 25.8145 141.298 27.9315C141.298 27.9315 141.707 28.2717 141.476 28.589C141.297 28.8337 140.934 28.723 140.619 28.5777C135.958 26.4098 131.629 23.2598 129.006 18.8436C128.844 18.5712 128.633 18.1602 128.633 18.1602C128.515 17.8724 128.724 17.5289 129.064 17.5419Z" fill="black"/>
<path d="M144.155 41.3033C144.644 41.3629 144.724 42.147 144.872 42.7911C145.52 45.5922 144.922 48.6298 143.28 51.0041C143.037 51.3555 142.435 51.501 142.383 50.9494C142.351 50.6031 142.799 50.1737 143.036 49.7654C144.395 47.4195 144.585 44.5004 143.709 41.8838C143.709 41.8838 143.707 41.2899 144.155 41.3033Z" fill="black"/>
<path fill-rule="evenodd" clip-rule="evenodd" d="M130.626 58.9589V66.5871C130.626 66.6538 130.62 66.7205 130.609 66.7816C130.547 67.0981 130.353 67.3853 130.06 67.6059C129.998 67.6522 129.939 67.6931 129.872 67.7308C127.003 69.368 124.156 69.9019 121.614 69.87C121.508 69.87 121.399 69.8671 121.294 69.8613C117.557 69.7567 114.521 68.4594 113.118 67.7511C113.071 67.725 113.018 67.6989 112.977 67.6638C112.83 67.5798 112.71 67.4726 112.61 67.3592C112.59 67.3389 112.575 67.3187 112.563 67.2981C112.481 67.2111 112.428 67.1123 112.39 67.008C112.375 66.9935 112.369 66.979 112.369 66.9616C112.343 66.9062 112.328 66.8454 112.313 66.7816C112.296 66.7118 112.287 66.6393 112.287 66.5668V58.9531C112.287 58.9531 112.29 58.9531 112.29 58.956C113.555 59.6293 114.815 60.2098 115.986 60.6889C118.379 61.6729 120.425 62.2215 121.461 62.2215C122.03 62.2215 122.905 62.0589 123.974 61.7453C125.8 61.2143 128.207 60.2507 130.626 58.9589Z" fill="#FFD0C2"/>
<path fill-rule="evenodd" clip-rule="evenodd" d="M112.664 58.328L112.356 58.2274C111.914 58.208 111.575 58.5352 111.555 58.9488V66.568C111.565 67.2218 111.767 67.4739 111.965 67.7189C111.983 67.7417 112.001 67.7644 112.019 67.7873C112.019 67.7873 112.338 68.1333 112.671 68.3296C112.748 68.3744 112.827 68.4136 112.907 68.4527C112.913 68.4561 112.92 68.4595 112.927 68.4629C117.215 70.5818 122.549 71.2748 127.168 69.732C129.018 69.1138 131.34 68.3252 131.359 66.5865V58.9546C131.343 58.6384 131.138 58.3503 130.838 58.2607C130.57 58.1807 130.279 58.3164 130.279 58.3164C128.409 59.3113 126.469 60.1797 124.457 60.8335C124.436 60.8403 124.415 60.8471 124.394 60.8539C123.257 61.2234 122.057 61.6135 120.883 61.443C117.998 61.0251 115.269 59.7078 112.664 58.328ZM113.382 67.0824C113.247 67.0562 113.028 67.014 113.021 66.5553V60.1405L113.028 60.144C114.756 60.9944 116.533 61.7505 118.374 62.3212C119.597 62.7006 120.861 63.0495 122.103 62.8962C124.798 62.5632 127.396 61.3865 129.894 60.1472V66.5773C129.894 66.5773 129.771 66.9381 129.523 67.0877C126.999 68.5342 124.055 69.2362 121.148 69.1254C118.494 69.0243 115.845 68.3012 113.462 67.1045C113.443 67.0942 113.415 67.0888 113.382 67.0824Z" fill="black"/>
<path d="M126.061 68.5491C127.159 68.2166 128.037 67.8836 129.217 67.2767C129.269 67.2504 129.607 67.0597 129.65 67.0243C129.782 66.9168 129.821 66.8606 129.883 66.6556C129.897 66.6067 129.888 66.3223 129.888 66.2664V60.125C128.774 60.7473 127.737 61.1101 126.748 61.5579L126.759 66.436C126.759 66.8956 126.692 67.355 126.537 67.7935C126.413 68.1419 126.315 68.3604 126.061 68.5491Z" fill="black" fill-opacity="0.25" style="mix-blend-mode:overlay"/>
<path fill-rule="evenodd" clip-rule="evenodd" d="M101.73 34.2V42.595C100.544 42.6785 99.2737 42.2867 98.234 41.416C96.2777 39.771 95.8914 37.0498 97.3663 35.3309C98.416 34.1098 100.125 33.7278 101.73 34.2Z" fill="#FFD0C2"/>
<path fill-rule="evenodd" clip-rule="evenodd" d="M101.893 33.4905C101.423 33.3584 100.938 33.2853 100.45 33.2775C99.0934 33.2665 97.7521 33.8006 96.8648 34.7916C93.8399 38.1692 97.3634 43.2113 101.258 43.3261C101.683 43.3385 102.112 43.3101 102.326 43.0116C102.338 42.9942 102.35 42.9797 102.361 42.9661C102.416 42.8973 102.451 42.8535 102.46 42.5928V34.1977C102.445 33.7311 101.893 33.4905 101.893 33.4905ZM97.2192 37.45C97.3839 35.9006 98.8364 34.7416 100.369 34.7286C100.528 34.7286 100.687 34.7378 100.845 34.7558C100.895 34.7619 100.945 34.7688 100.995 34.7764L100.969 41.8557C98.7669 41.5879 97.0011 39.5026 97.2192 37.45Z" fill="black"/>
<path d="M99.5828 37.1833C100.381 37.2539 99.5939 39.5065 101.426 40.0228C101.426 40.0228 101.634 40.0998 101.706 40.2815C101.858 40.6601 101.446 40.9867 100.834 40.7524C99.6259 40.2902 98.9313 38.8408 99.1305 37.5391C99.1743 37.325 99.3178 37.1733 99.5828 37.1833Z" fill="black"/>
<path fill-rule="evenodd" clip-rule="evenodd" d="M144.631 41.4864C143.591 42.3571 142.321 42.7489 141.135 42.6654V34.2703C142.74 33.7979 144.449 34.1805 145.499 35.4012C146.974 37.1202 146.587 39.8414 144.631 41.4864Z" fill="#FFD0C2"/>
<path fill-rule="evenodd" clip-rule="evenodd" d="M147.1 38.1999C147.29 35.6164 145.04 33.3594 142.516 33.3482C141.659 33.3519 140.448 33.5121 140.418 34.2801L140.381 42.6929C140.397 43.2058 140.769 43.4041 141.187 43.4212C144.147 43.5424 146.892 41.0518 147.1 38.1999ZM141.879 34.8513C141.879 34.8513 142.209 34.8058 142.441 34.801C143.486 34.788 144.51 35.242 145.096 36.0624C146.777 38.4156 144.546 41.5433 141.968 41.9327C141.928 41.9384 141.888 41.9438 141.847 41.9484L141.879 34.8513Z" fill="black"/>
<path d="M143.282 37.2573C144.116 37.3102 143.764 39.4464 142.823 40.3143C142.278 40.8174 141.396 41.1913 141.139 40.735C140.865 40.25 141.912 40.041 142.338 39.5688C142.772 39.0877 142.901 38.3977 142.829 37.7586C142.796 37.496 142.965 37.253 143.282 37.2573Z" fill="black"/>
<path fill-rule="evenodd" clip-rule="evenodd" d="M150.072 184.065H92.4238L95.8269 147.875L96.6975 138.617H146.39L147.797 155.969L148.119 159.963L150.072 184.065Z" fill="#7BA4F5"/>
<path fill-rule="evenodd" clip-rule="evenodd" d="M147.122 138.561C147.047 138.11 147.015 138.031 146.512 137.904L146.391 137.895H96.6987C96.0561 137.947 95.9691 138.552 95.9691 138.552L95.0985 147.809L91.6954 184C91.6916 184.396 91.7971 184.501 91.9727 184.637C91.9861 184.647 91.9977 184.657 92.0088 184.667C92.0748 184.724 92.1249 184.767 92.425 184.792H150.073C150.469 184.759 150.564 184.647 150.686 184.464C150.695 184.45 150.704 184.438 150.712 184.427C150.764 184.357 150.802 184.305 150.803 184.009L148.851 159.907L148.529 155.914L147.122 138.561ZM96.5582 147.945L97.3669 139.346H145.715L147.068 156.031L147.391 160.025L149.279 183.344H93.2295L96.5582 147.945Z" fill="black"/>
<rect width="4.93935" height="17.7594" transform="matrix(-1 0 0 1 123.914 139.352)" fill="black" fill-opacity="0.25" style="mix-blend-mode:overlay"/>
<path d="M137.332 141.433C137.765 141.466 137.907 142.257 137.332 142.301C136.352 142.326 135.371 142.302 134.391 142.302C133.959 142.291 133.734 141.433 134.391 141.433C135.371 141.432 136.352 141.408 137.332 141.433Z" fill="black"/>
<path d="M131.965 141.444C132.404 141.561 132.408 142.262 131.889 142.307H96.4695C96.0096 142.267 95.9041 141.486 96.4695 141.438H131.889C131.914 141.44 131.94 141.442 131.965 141.444Z" fill="black"/>
<path d="M107.6 144.653C108.251 144.741 107.717 145.855 107.246 146.694C105.373 150.029 102.13 152.752 98.2833 153.251C98.2833 153.251 97.8993 153.247 97.802 152.967C97.7084 152.697 97.8097 152.444 98.3077 152.366C102.235 151.709 105.55 148.577 107.156 144.917C107.156 144.917 107.339 144.641 107.6 144.653Z" fill="black"/>
<path d="M134.974 144.653C135.36 144.705 135.359 144.963 135.447 145.156C137.109 148.78 140.38 151.914 144.327 152.386C144.327 152.386 144.737 152.529 144.717 152.852C144.682 153.401 143.7 153.19 142.948 152.97C139.243 151.885 136.181 148.949 134.575 145.342C134.575 145.342 134.451 144.629 134.974 144.653Z" fill="black"/>
<path d="M140.553 183.349H149.172L145.617 139.32H139.705L140.553 183.349Z" fill="black" fill-opacity="0.25" style="mix-blend-mode:overlay"/>
<path fill-rule="evenodd" clip-rule="evenodd" d="M141.165 28.2866V43.7245C141.165 49.9117 135.862 55.4123 130.669 58.974C130.669 58.974 130.666 58.974 130.666 58.9769V58.9711C128.246 60.2617 125.84 61.2256 124.013 61.7575C122.946 62.0702 122.069 62.2336 121.501 62.2336C120.465 62.2336 118.417 61.6853 116.025 60.7022C114.854 60.2228 113.596 59.6414 112.33 58.9685C112.33 58.9656 112.327 58.9656 112.327 58.9656C107.132 55.401 101.832 49.9033 101.832 43.7245L101.781 28.2588C111.546 26.4303 118.969 20.0628 120.937 18.2329C121.198 17.9903 121.602 17.99 121.863 18.2326C123.841 20.0709 131.329 26.4917 141.165 28.2866Z" fill="#FFD0C2"/>
<path fill-rule="evenodd" clip-rule="evenodd" d="M121.433 17.3243C121.859 17.3388 122.222 17.5718 122.562 17.8834C127.827 22.6643 134.225 26.2669 141.3 27.572C141.3 27.572 141.851 27.6879 141.898 28.2843C141.898 29.9986 141.9 31.7129 141.902 33.4273V33.4273C141.906 36.8847 141.909 40.3422 141.898 43.7996C141.846 48.9156 138.355 53.534 134.641 56.8078C133.511 57.8028 132.374 58.7969 131.072 59.5763C131.072 59.5763 130.802 59.7191 130.553 59.849C127.963 61.1828 125.254 62.4363 122.378 62.8791C119.147 63.3766 115.708 61.5655 112.817 60.0426L112.814 60.0414C112.615 59.9366 112.419 59.8331 112.225 59.7319C112.128 59.6809 110.407 58.5367 108.955 57.3145C108.347 56.8032 107.757 56.2717 107.189 55.7187C103.852 52.4741 101.115 48.4307 101.099 43.7245L101.049 28.2588C101.094 27.6537 101.313 27.6108 101.925 27.4907L101.979 27.4801C108.697 26.1292 114.929 22.6391 120.013 18.0877L120.056 18.0499C120.458 17.6889 120.871 17.3181 121.433 17.3243ZM121.341 18.85C116.046 23.7046 109.545 27.3819 102.516 28.8508C102.522 30.5036 102.523 32.1564 102.525 33.8092C102.529 37.1588 102.532 40.5083 102.566 43.8577C102.637 48.1172 105.377 51.9536 108.325 54.7913C109.656 56.0724 111.107 57.2311 112.626 58.286L112.721 58.3513C115.32 59.7274 118.036 61.0397 120.922 61.4576C122.098 61.6278 123.297 61.2378 124.434 60.868L124.496 60.8478C126.508 60.1934 128.447 59.3257 130.313 58.3342C130.413 58.2658 130.511 58.1971 130.61 58.1278C135.529 54.6557 140.151 50.0043 140.421 44.1953C140.429 44.0373 140.432 43.8794 140.432 43.7214V28.8818C133.298 27.4234 126.731 23.682 121.461 18.8503C121.461 18.8503 121.455 18.7442 121.341 18.85ZM111.613 59.1437L111.65 59.2335C111.65 59.2335 111.583 58.8886 111.613 59.1437Z" fill="black"/>
<path d="M140.426 28.8422C140.44 28.9822 140.426 29.126 140.426 29.2608L140.408 43.2167C140.432 47.6276 138.364 51.067 135.396 54.0898C132.561 56.9782 129.962 59.3064 123.299 61.1285C126.284 60.3622 130.594 56.4453 132.636 54.2797C135.204 51.5565 137.422 47.8934 137.422 43.226L137.398 28.082C137.398 28.082 138.34 28.3562 138.784 28.4681C139.228 28.58 139.994 28.7481 140.17 28.7892C140.346 28.8304 140.426 28.8422 140.426 28.8422Z" fill="black" fill-opacity="0.25" style="mix-blend-mode:overlay"/>
<path d="M112.311 37.1241C114.009 37.1241 114.011 34.5156 112.311 34.5156C110.614 34.5156 110.611 37.1241 112.311 37.1241Z" fill="black"/>
<path d="M130.633 37.128C132.331 37.128 132.334 34.5195 130.633 34.5195C128.936 34.5195 128.933 37.128 130.633 37.128Z" fill="black"/>
<path d="M122.494 40.286C123.056 40.3181 123.38 41.176 122.437 41.5029C121.477 41.836 119.861 41.7158 119.994 40.7895C120.052 40.3824 120.538 40.2448 120.967 40.4146C121.529 40.629 122.164 40.2788 122.494 40.286Z" fill="black"/>
<path d="M115.77 25.991C116.45 26.038 116.859 27.1624 115.906 27.4197L110.075 28.8232C109.355 28.9758 108.729 27.6865 109.736 27.4143L115.567 26.0109C115.65 25.9932 115.673 25.9896 115.77 25.991Z" fill="black"/>
<path d="M128.062 26.2486C128.102 26.2529 128.14 26.2588 128.179 26.267L133.626 27.5735C134.184 27.7234 134.142 27.9115 134.181 28.1761C134.25 28.6385 133.788 29.0887 133.288 28.9826L127.841 27.6761C127.308 27.5334 127.343 27.3594 127.293 27.1124C127.202 26.6719 127.495 26.2216 128.062 26.2486Z" fill="black"/>
<path d="M113.875 42.2953C113.875 43.565 112.286 44.5942 110.327 44.5942C108.368 44.5942 106.779 43.5647 106.779 42.295C106.779 41.0253 108.368 39.9961 110.327 39.9961C112.287 39.9961 113.875 41.0256 113.875 42.2953Z" fill="white" fill-opacity="0.3"/>
<path d="M136.041 42.2953C136.041 43.565 134.452 44.5942 132.493 44.5942C130.534 44.5942 128.945 43.5647 128.945 42.295C128.945 41.0253 130.534 39.9961 132.493 39.9961C134.453 39.9961 136.041 41.0256 136.041 42.2953Z" fill="white" fill-opacity="0.3"/>
<path d="M135.883 35.7268C135.883 38.8702 133.306 41.4184 130.13 41.4184C129.765 41.4184 129.41 41.385 129.065 41.3187C128.799 41.2714 128.538 41.205 128.286 41.1193C127.956 41.0085 127.639 40.87 127.342 40.7065C126.849 40.4379 126.404 40.0999 126.015 39.7066C125.001 38.6818 124.373 37.275 124.373 35.7268C124.373 32.7273 126.721 30.2679 129.698 30.0546C129.841 30.0407 129.984 30.0352 130.13 30.0352C130.552 30.0352 130.967 30.0795 131.365 30.1682C131.704 30.2401 132.031 30.3427 132.345 30.4757C132.594 30.5754 132.832 30.6945 133.062 30.8328C134.751 31.8216 135.883 33.6441 135.883 35.7268Z" fill="black" fill-opacity="0.25" style="mix-blend-mode:overlay"/>
<path d="M118.308 35.7268C118.308 38.8702 115.731 41.4184 112.555 41.4184C112.191 41.4184 111.835 41.385 111.49 41.3187C111.225 41.2714 110.964 41.205 110.712 41.1193C110.381 41.0085 110.065 40.87 109.768 40.7065C109.275 40.4379 108.83 40.0999 108.44 39.7066C107.426 38.6818 106.799 37.275 106.799 35.7268C106.799 32.7273 109.146 30.2679 112.124 30.0546C112.267 30.0407 112.409 30.0352 112.555 30.0352C112.978 30.0352 113.393 30.0795 113.79 30.1682C114.129 30.2401 114.457 30.3427 114.771 30.4757C115.02 30.5754 115.258 30.6945 115.488 30.8328C117.177 31.8216 118.308 33.6441 118.308 35.7268Z" fill="black" fill-opacity="0.25" style="mix-blend-mode:overlay"/>
<path d="M131.366 30.1679L127.343 40.7063C126.85 40.4376 126.405 40.0999 126.016 39.7066L129.699 30.0543C129.842 30.0407 129.985 30.0352 130.13 30.0352C130.553 30.0352 130.968 30.0792 131.366 30.1679Z" fill="white" fill-opacity="0.3"/>
<path d="M133.063 30.8336L129.066 41.3195C128.8 41.2723 128.539 41.2059 128.287 41.1201L132.346 30.4766C132.595 30.576 132.833 30.6951 133.063 30.8336Z" fill="white" fill-opacity="0.3"/>
<path d="M113.791 30.1679L109.769 40.7063C109.276 40.4376 108.831 40.0999 108.441 39.7066L112.125 30.0543C112.268 30.0407 112.411 30.0352 112.556 30.0352C112.979 30.0352 113.394 30.0792 113.791 30.1679Z" fill="white" fill-opacity="0.3"/>
<path d="M115.489 30.8336L111.491 41.3195C111.226 41.2723 110.965 41.2059 110.713 41.1201L114.772 30.4766C115.021 30.576 115.259 30.6951 115.489 30.8336Z" fill="white" fill-opacity="0.3"/>
<path fill-rule="evenodd" clip-rule="evenodd" d="M118.939 34.5035C118.376 31.5345 115.611 29.2701 112.68 29.242C112.638 29.242 112.597 29.242 112.556 29.2426C108.343 29.3103 105.423 33.705 106.456 37.4672C107.449 41.0869 111.687 43.0869 114.99 41.7685C117.752 40.6663 119.497 37.4461 118.939 34.5035ZM107.767 34.7501C108.215 32.465 110.351 30.7306 112.606 30.7089C112.671 30.7089 112.735 30.7095 112.799 30.7115C116.014 30.8247 118.229 34.2167 117.417 37.1062C116.82 39.2287 114.737 40.7819 112.574 40.7544C109.621 40.7166 107.205 37.6166 107.767 34.7501Z" fill="black"/>
<path fill-rule="evenodd" clip-rule="evenodd" d="M136.513 34.5409C135.95 31.5719 133.189 29.3075 130.254 29.2794C130.212 29.2794 130.171 29.2794 130.13 29.28C125.963 29.3468 122.978 33.7624 124.041 37.5433C125.067 41.1938 129.35 43.1351 132.637 41.7762C135.362 40.6492 137.066 37.4574 136.513 34.5409ZM125.341 34.7853C125.789 32.5004 127.925 30.7658 130.181 30.7441C130.245 30.7441 130.309 30.7446 130.373 30.7467C133.598 30.8601 135.789 34.2336 134.999 37.1118C134.411 39.2557 132.32 40.8171 130.149 40.7896C127.181 40.7514 124.78 37.6476 125.341 34.7853Z" fill="black"/>
<path d="M121.451 34.4689C122.734 34.486 124.089 34.9561 124.971 35.7936C125.504 36.2997 124.811 37.4607 123.878 36.7883C122.45 35.7734 120.437 35.6409 118.963 36.7617C118.359 37.221 118.383 37.1677 117.991 36.9434C117.438 36.6275 117.67 35.8348 118.483 35.3291C119.376 34.7732 120.353 34.4622 121.451 34.4689Z" fill="black"/>
<path d="M101.773 31.5402C101.899 31.5527 101.975 31.5651 102.131 31.6646L107.29 35.1462C107.906 35.5848 107.336 36.8933 106.48 36.3474L101.32 32.8659C100.784 32.4833 100.942 31.4997 101.773 31.5402Z" fill="black"/>
<path d="M141.16 31.5193C141.771 31.5531 142.14 32.4159 141.537 32.8468L136.377 36.3289C135.753 36.7263 134.669 35.7676 135.566 35.1277L140.726 31.6456C140.848 31.5676 140.847 31.5182 141.16 31.5193Z" fill="black"/>
<path d="M121.598 45.4143C123.006 45.4351 124.485 45.7931 125.442 46.7733C125.991 47.3355 125.159 48.4821 124.307 47.7025C122.817 46.3881 119.833 46.5614 118.644 47.7929C118.644 47.7929 118.337 48.0613 117.998 48.0079C117.442 47.9198 117.169 47.1721 117.708 46.6698C118.671 45.7722 120.089 45.4346 121.446 45.4143C121.522 45.414 121.522 45.414 121.598 45.4143Z" fill="black"/>
<path fill-rule="evenodd" clip-rule="evenodd" d="M89.7405 105.961C89.7405 105.961 89.0077 107.285 87.7004 109.25C85.6222 112.374 82.0989 117.125 77.7754 120.759C78.0421 120.53 78.3118 120.249 78.5903 119.919C78.5932 119.916 78.5932 119.913 78.5961 119.91C81.8234 116.044 81.6856 109.021 80.9792 100.793C81.3368 100.953 81.6944 101.124 82.052 101.3C82.1722 101.358 82.2924 101.419 82.4096 101.48C82.8903 101.723 83.3681 101.978 83.843 102.239C84.8982 102.825 85.93 103.445 86.8973 104.059C87.9437 104.726 88.911 105.378 89.7405 105.961Z" fill="#FFD0C2"/>
<path fill-rule="evenodd" clip-rule="evenodd" d="M81.2612 100.132C81.225 100.117 81.184 100.1 81.0617 100.08C80.3767 100.038 80.2483 100.86 80.2483 100.86C80.5221 104.084 80.7616 107.318 80.6203 110.553C80.4732 113.918 79.9353 117.693 77.4678 120.062C76.9546 120.543 76.9285 121.172 77.4619 121.421C77.9356 121.642 78.4556 121.143 78.4556 121.143C83.2182 117.063 87.1079 111.98 90.2417 106.563C90.7036 105.756 90.0054 105.265 90.0054 105.265C87.2381 103.339 84.379 101.529 81.2813 100.14C81.2744 100.137 81.2679 100.134 81.2612 100.132ZM81.2088 116.413C82.5797 111.851 82.1949 106.9 81.8191 102.083C81.8165 102.05 81.8132 102 81.8132 102C84.2848 103.232 86.5474 104.651 88.7728 106.182L88.7546 106.213C86.5931 109.859 84.0758 113.314 81.1983 116.448L81.2088 116.413Z" fill="black"/>
<path fill-rule="evenodd" clip-rule="evenodd" d="M76.2831 79.4066C77.003 82.133 77.6816 84.8701 78.3106 87.6182C79.151 91.2918 79.822 93.2382 80.4185 96.999C80.5334 97.7236 80.9912 100.728 81.0525 101.441C81.7592 109.67 81.8234 116.045 78.5961 119.912C78.5932 119.915 78.5932 119.917 78.5903 119.92C78.3118 120.251 78.0422 120.532 77.7754 120.761L77.7051 120.822C77.6845 120.842 77.664 120.859 77.6435 120.871V120.874C75.7588 122.421 74.173 121.662 73.0767 120.784C68.0321 116.747 65.9859 106.468 65.5315 99.3648C65.3134 95.9582 64.9087 90.3892 64.8579 84.0226L64.3438 67.5257C64.2696 66.3009 64.2515 66.1656 64.121 65.35C63.8235 63.4867 63.1007 62.9395 61.9587 62.4121C61.9487 62.4074 61.9385 62.4028 61.9285 62.3981C59.7521 61.4101 56.8367 60.0616 53.3853 56.9946C52.1978 55.9423 52.2025 55.6493 51.7766 54.7995C51.6661 54.5844 51.4492 54.4616 51.2933 54.3674C50.999 54.1839 50.7522 53.9294 50.5877 53.6257C49.585 51.7514 49.0219 47.7559 48.9814 47.4521C48.977 47.4411 48.9735 47.431 48.9691 47.42C48.27 46.3644 47.6249 44.7825 47.75 44.0814C47.9344 43.0598 48.6939 43.327 48.9032 43.4447C48.9111 43.4499 48.9169 43.4514 48.9254 43.4537C48.9665 43.4647 49.0146 43.4496 49.0392 43.416C49.2045 43.2001 49.4727 43.0763 49.7465 43.1059C51.2071 43.2473 51.2238 45.1857 51.2179 45.5184C51.2156 45.5488 51.2299 45.5772 51.2522 45.599C51.669 45.9757 51.7315 47.2179 51.7385 47.4457C51.7388 47.4675 51.7476 47.4915 51.7649 47.5083C51.9238 47.6837 52.8893 48.6558 55.8331 50.2811C58.3284 51.6572 60.287 51.9589 61.0679 52.0212C61.1749 52.0311 61.2241 51.896 61.1374 51.8357C59.6656 50.8155 57.7809 49.2772 57.5906 47.964C57.2758 45.7758 58.8947 46.4974 59.4593 46.9635C60.0212 47.4289 64.9327 51.3112 67.892 52.9374C70.4709 54.3511 72.1173 57.0662 71.4546 60.8409C71.3667 61.3412 73.9364 70.5104 74.0634 70.999L76.2831 79.4066Z" fill="#FFD0C2"/>
<path fill-rule="evenodd" clip-rule="evenodd" d="M51.9473 45.2654C51.8884 43.9192 51.0146 42.4193 49.6988 42.379C49.1991 42.3724 48.8048 42.6416 48.8048 42.6416C47.8182 42.4289 47.0397 43.2757 47.0033 44.1965C46.9538 45.4547 48.2813 47.7353 48.2813 47.7353C48.4106 48.6109 48.5689 49.4827 48.7603 50.3472C48.7832 50.4509 48.8059 50.5545 48.8286 50.658C49.1174 51.9772 49.4007 53.2714 50.1326 54.2706C50.2625 54.448 50.4146 54.6094 50.5835 54.7508C50.6443 54.8019 50.7191 54.8435 50.7954 54.8861C50.9365 54.9648 51.083 55.0465 51.1562 55.1957C51.4669 55.829 51.8075 56.4709 52.3061 56.9799C54.7285 59.4524 57.737 61.2571 60.8769 62.717C61.0131 62.7799 61.1508 62.8393 61.288 62.8984C61.8081 63.1226 62.3199 63.3432 62.7022 63.7427C63.4353 64.5089 63.5172 65.9283 63.5933 67.2469C63.5994 67.3522 63.6054 67.4569 63.6117 67.5605L64.1253 84.0386L64.1279 84.3293C64.1722 88.5121 64.3706 92.7015 64.6362 96.8805C65.0574 103.438 65.7922 110.209 68.6806 116.102C69.9276 118.647 71.5526 121.177 73.9908 122.189C75.3207 122.742 76.8871 122.398 78.0118 121.513L78.0225 121.505C78.0659 121.471 78.0905 121.451 78.2044 121.354C78.5394 121.068 78.8094 120.809 79.2423 120.276C80.6461 118.55 81.3926 116.416 81.7755 114.264C82.486 110.27 82.1732 106.187 81.8473 102.15C81.4787 97.7062 80.5524 93.8491 79.6124 89.9353C79.4551 89.2801 79.2973 88.6233 79.1418 87.962C77.8084 82.2498 76.2833 76.5647 74.757 70.8752C74.1782 68.7176 73.5993 66.5594 73.0305 64.3988C72.5991 62.7593 72.1928 60.8722 72.1928 60.8722C72.6896 57.8131 71.5805 54.6221 69.1341 52.8635C68.8932 52.6902 68.7873 52.6142 68.3784 52.3786C65.5402 50.7756 62.9065 48.7706 60.3206 46.7238C59.6754 46.2105 58.8072 45.5639 57.9003 45.7856C57.4284 45.9007 57.0731 46.2714 56.9257 46.7122C56.435 48.1808 57.3381 49.4728 58.2954 50.4536C58.6149 50.7747 58.5311 50.7063 58.5311 50.7063C57.2765 50.2606 56.1088 49.6334 54.975 48.9505C53.7492 48.2124 52.4536 47.1159 52.4536 47.1159C52.3779 46.1981 51.9473 45.2654 51.9473 45.2654ZM49.5383 43.9266C49.574 43.8763 49.6047 43.833 49.6661 43.8301C49.7092 43.8298 50.196 44.0855 50.3253 44.4393C50.3414 44.4831 50.3558 44.5277 50.3687 44.5724C50.5957 45.3528 50.5438 45.6025 50.5164 45.7343C50.4908 45.857 50.4866 45.8774 50.7491 46.1293C50.7884 46.167 50.9485 46.7388 50.9886 47.1799C51.0439 47.8518 51.0487 47.8553 51.1268 47.9122C51.1501 47.9292 51.1799 47.951 51.2196 47.9967C51.2196 47.9967 51.4579 48.2384 51.6335 48.3908C54.1353 50.5619 57.3684 52.3632 60.8322 52.7312C61.5553 52.8037 61.9695 52.364 61.9108 51.8331C61.9094 51.8199 61.9081 51.807 61.9068 51.7944C61.8913 51.6394 61.88 51.5266 61.616 51.2891C61.616 51.2891 61.0444 50.8874 60.6589 50.5894C59.5122 49.7029 57.9839 48.4239 58.3099 47.197C58.3099 47.197 58.9518 47.4958 59.2666 47.7474C61.7136 49.702 64.2385 51.6238 66.9393 53.2326C68.8032 54.334 70.5092 56.0625 70.8047 58.2374C70.8766 58.7675 70.8368 59.2969 70.7973 59.8225C70.752 60.4251 70.707 61.0227 70.8313 61.6106C71.7049 65.7416 72.839 69.7681 73.971 73.7867C74.5396 75.8052 75.1076 77.8217 75.6417 79.8485C75.8851 80.7757 76.1293 81.6942 76.3716 82.6058C78.0853 89.0528 79.7062 95.1508 80.3202 101.477C80.5289 103.796 80.6895 106.115 80.7124 108.439C80.7464 111.911 80.5822 115.643 78.6456 118.622C78.1022 119.458 77.2011 120.301 77.2011 120.301C77.4418 120.1 76.8444 120.639 76.2919 120.869C75.3307 121.267 74.3253 120.844 73.5849 120.262C73.4958 120.192 73.4081 120.12 73.322 120.046C70.0299 117.233 68.6458 112.835 67.6355 108.61C65.7265 100.628 65.664 92.9354 65.6018 85.2773C65.5984 84.8556 65.595 84.434 65.5912 84.0124L65.0765 67.4967C64.9062 64.7147 64.2203 62.6789 62.3259 61.786C59.7799 60.602 57.2942 59.2552 55.1163 57.5082C55.0032 57.4174 54.889 57.3273 54.7748 57.2372C54.111 56.7135 53.4468 56.1896 52.9754 55.5266C52.6164 55.0216 52.5938 54.9357 52.5611 54.8114C52.5423 54.7403 52.5203 54.6565 52.4299 54.4743C52.2862 54.2063 52.0552 54.0402 51.8264 53.8758C51.6677 53.7618 51.5101 53.6485 51.3835 53.5025C51.3392 53.4515 51.299 53.397 51.2642 53.3396C50.3725 51.8784 50.0954 49.9937 49.8311 48.1965C49.803 48.005 49.775 47.8146 49.7464 47.6257C49.7332 47.537 49.7203 47.4483 49.7083 47.3596L49.5236 46.9362C49.0491 46.1876 48.6419 45.385 48.4936 44.5344C48.3975 43.9825 48.5393 44.0206 48.7806 44.0856C48.9631 44.1347 49.2024 44.1992 49.4386 44.035C49.4837 44.0038 49.5123 43.9633 49.5383 43.9266Z" fill="black"/>
<path d="M61.9416 55.9104C62.1445 55.9284 62.1679 55.9803 62.2523 56.0168C62.9277 56.3006 63.6828 56.271 64.4112 56.1081C64.7667 56.0319 64.835 56.0252 65.0396 56.0003C66.514 55.8203 67.9248 56.4078 69.1817 57.3619C69.6222 57.6917 69.3139 58.5513 68.6485 58.0531C67.4253 57.1248 65.9934 56.6631 64.3262 57.019C63.4497 57.1976 62.527 57.1292 61.7312 56.7373C61.3868 56.5678 61.3888 55.9446 61.9073 55.9102C61.9188 55.9102 61.9302 55.9102 61.9416 55.9104Z" fill="black"/>
<path d="M49.097 42.6966C49.2424 42.712 49.2852 42.7311 49.3631 42.769C49.9189 43.04 49.6689 43.8707 49.631 44.6494C50.1724 44.3883 50.2375 44.4819 50.4858 44.5048C50.9369 44.5463 51.3648 44.7523 51.7181 45.0395C51.7181 45.0395 52.0865 45.4346 51.9467 45.8363C51.7887 46.2904 51.1702 46.4481 50.7481 46.1278C50.5298 45.967 50.3551 45.669 50.1789 46.3356C49.9652 47.1451 49.9356 48.0004 49.9412 48.8502C49.9412 48.8502 49.8078 49.5194 49.2875 49.575C48.8302 49.6243 48.5233 49.2374 48.4293 48.6093C48.1693 46.8391 47.9175 45.0184 48.3211 43.2707C48.3211 43.2707 48.4656 42.6638 49.097 42.6966Z" fill="black"/>
<path d="M53.0325 49.1875C54.3673 49.2284 54.8173 51.1578 54.7246 52.3739C54.6986 52.7167 54.6215 53.2065 54.6215 53.2065C54.666 53.2506 54.71 53.2949 54.7537 53.3396C55.0116 53.6051 55.3593 53.9911 55.3593 53.9911C55.3912 53.9981 55.4232 54.0059 55.4548 54.014C56.5074 54.2885 57.8121 54.736 57.4381 55.5941C57.2698 55.9799 56.7779 56.1176 56.3509 55.9135C55.3071 55.4144 55.4777 55.535 54.8967 55.371C54.3245 55.1962 53.9748 54.6241 53.5284 54.1751C53.5284 54.1751 53.0914 53.5242 53.199 52.8237C53.3209 52.0035 53.3238 50.9584 53.0096 50.6555C52.3278 51.5841 52.0491 53.3289 52.4706 54.5681C52.4706 54.5681 52.5696 55.0837 52.2504 55.3515C51.8459 55.6909 51.2008 55.4727 51.012 54.8093C50.5568 53.21 50.9548 51.3917 51.6788 50.0347C51.9397 49.546 52.4421 49.1835 53.0325 49.1875Z" fill="black"/>
<path d="M51.7759 46.6936C52.1012 46.7159 52.381 46.9565 52.4542 47.279C52.648 48.329 52.7993 49.3866 52.9714 50.4407C53.074 51.1626 51.7785 51.7262 51.5467 50.704C51.3529 49.654 51.2019 48.5964 51.0297 47.5422C50.9659 47.0958 51.2575 46.6802 51.7759 46.6936Z" fill="black"/>
<path d="M87.4734 105.309L88.7758 106.182C88.7758 106.182 88.0966 107.349 86.9913 108.999L86.9306 109.091C85.4535 111.296 83.3044 114.26 81.2051 116.434L81.6826 114.508L81.7386 114.113L81.8883 113.016C85.3307 107.466 86.3446 104.578 86.3446 104.578L87.3556 105.231L87.4734 105.309Z" fill="black" fill-opacity="0.25" style="mix-blend-mode:overlay"/>
<path d="M79.9549 115.628C79.0081 118.39 78.5831 118.762 77.4106 120.118C76.2381 121.474 74.7169 121.103 73.8697 120.512C82.8656 114.573 75.6853 83.9303 74.9411 80.9477C74.1385 77.7312 70.9004 62.1235 70.8066 61.5352C71.0851 62.5901 73.1076 70.2705 73.2688 70.9574C73.4447 71.6993 75.9392 80.997 76.2645 82.3302C76.587 83.6605 78.4834 91.5063 78.4834 91.5063C78.4834 91.5063 79.2016 94.2855 79.8552 98.3636C80.4532 102.094 80.6027 105.119 80.6525 106.65C80.6525 106.65 80.9046 112.866 79.9549 115.628Z" fill="black" fill-opacity="0.25" style="mix-blend-mode:overlay"/>
<path fill-rule="evenodd" clip-rule="evenodd" d="M71.4651 60.834C71.4651 60.834 70.9828 62.0549 70.2367 62.8049L71.4651 60.834Z" fill="#FFD0C2"/>
<path d="M71.4781 60.0953C72.1274 60.1166 72.2776 60.8696 71.8461 61.7135C71.3978 62.5912 70.7693 63.8034 69.9542 63.475C69.4904 63.2882 69.3793 62.6528 69.8001 62.1974C70.4918 61.429 70.6253 60.0954 71.4781 60.0953Z" fill="black"/>
<path d="M76.5828 118.137C76.9723 118.159 77.1569 118.643 76.716 119.029C76.0891 119.577 75.1007 119.807 74.3746 119.276C74.0319 119.025 73.9939 118.39 74.5363 118.402C74.8061 118.408 74.9802 118.706 75.2882 118.741C75.8329 118.802 76.1396 118.131 76.5828 118.137Z" fill="black"/>
<path d="M166.569 118.193C167.132 118.234 167.475 119.123 168.346 118.529C168.763 118.27 169.608 118.897 168.499 119.482C167.764 119.869 166.788 119.551 166.212 118.908C165.991 118.639 166.172 118.182 166.569 118.193Z" fill="black"/>
<path fill-rule="evenodd" clip-rule="evenodd" d="M165.117 120.763C161.023 117.32 157.643 112.877 155.532 109.761C154.014 107.518 153.152 105.964 153.152 105.964C153.237 105.904 153.322 105.831 153.404 105.75C153.999 105.295 154.726 104.759 155.553 104.179C155.571 104.168 155.585 104.156 155.603 104.145C156.975 103.174 158.616 102.089 160.375 101.078C160.644 100.922 160.911 100.771 161.172 100.626C161.442 100.475 161.708 100.331 161.966 100.191C161.946 100.417 161.928 100.626 161.914 100.797C161.219 108.892 161.075 115.819 164.144 119.723C164.194 119.787 164.244 119.85 164.297 119.914C164.3 119.917 164.3 119.92 164.303 119.923C164.581 120.253 164.851 120.534 165.117 120.763Z" fill="#FFD0C2"/>
<path fill-rule="evenodd" clip-rule="evenodd" d="M162.643 100.853C162.697 100.231 162.621 99.5622 162.051 99.4666C161.797 99.4503 161.612 99.5507 161.442 99.6434C161.434 99.6477 161.426 99.6521 161.418 99.6564C158.97 100.984 156.628 102.494 154.376 104.118C153.7 104.606 152.89 105.228 152.89 105.228C152.368 105.736 152.521 106.329 152.521 106.329C155.618 111.827 159.562 116.934 164.349 121.061C164.975 121.597 165.652 121.508 165.818 120.969C165.939 120.575 165.576 120.192 165.576 120.192C163.747 118.59 162.997 116.22 162.605 113.89C161.894 109.661 162.258 105.383 162.62 101.122C162.628 101.032 162.636 100.942 162.643 100.853ZM154.195 106.056C156.398 104.402 158.668 102.882 161.041 101.526C161.069 101.509 161.118 101.487 161.118 101.487C161.111 101.573 161.104 101.658 161.097 101.744C160.701 106.637 160.301 111.577 161.622 116.198C161.646 116.279 161.67 116.359 161.694 116.44L161.63 116.37C158.778 113.238 156.247 109.78 154.095 106.131L154.195 106.056Z" fill="black"/>
<path fill-rule="evenodd" clip-rule="evenodd" d="M193.925 47.4212C193.919 47.4328 193.916 47.4415 193.91 47.4531C193.872 47.7574 193.306 51.7512 192.304 53.6264C192.139 53.9307 191.893 54.1858 191.6 54.3683C191.442 54.4611 191.225 54.5857 191.116 54.8002C190.691 55.6494 190.694 55.9421 189.507 56.9971C186.054 60.0634 183.141 61.4111 180.963 62.3994C180.954 62.4023 180.942 62.4081 180.933 62.4139C179.972 62.8573 179.307 63.3153 178.943 64.5586C178.876 64.7934 178.817 65.0542 178.77 65.3498C178.641 66.1672 178.624 66.3005 178.547 67.5264L178.533 68.0018L178.035 84.0233C177.985 90.3908 177.58 95.9584 177.36 99.3667C176.906 106.47 174.86 116.748 169.815 120.785C168.719 121.663 167.133 122.422 165.249 120.875V120.872C165.228 120.86 165.208 120.843 165.187 120.823L165.117 120.762C164.85 120.533 164.58 120.252 164.302 119.921C164.299 119.918 164.299 119.915 164.296 119.912C164.243 119.849 164.193 119.785 164.144 119.721C161.075 115.817 161.218 108.89 161.913 100.796C161.928 100.625 161.945 100.416 161.966 100.19C161.992 99.9 162.021 99.578 162.054 99.2624C162.103 98.7899 162.156 98.3262 162.209 97.9958C162.728 94.7121 163.508 92.0544 164.258 88.9938C164.366 88.5446 164.478 88.0896 164.583 87.6201C165.211 84.8696 165.891 82.1337 166.609 79.4064L168.831 70.9986C168.898 70.7377 169.663 67.996 170.349 65.4223C170.68 64.1819 170.991 62.982 171.196 62.1183C171.36 61.4227 171.457 60.9474 171.439 60.8431C170.774 57.0666 172.421 54.351 175.001 52.9395C177.958 51.3107 182.871 47.4299 183.434 46.9633C183.997 46.4996 185.618 45.7779 185.301 47.9661C185.11 49.279 183.226 50.8151 181.754 51.8353C181.669 51.8961 181.716 52.0324 181.825 52.0208C182.604 51.9599 184.565 51.6585 187.06 50.2818C190.003 48.6559 190.97 47.685 191.128 47.5082C191.146 47.4937 191.155 47.4676 191.155 47.4473C191.16 47.2183 191.222 45.9779 191.641 45.5982C191.662 45.5779 191.676 45.549 191.673 45.52C191.667 45.1867 191.685 43.2477 193.145 43.1057C193.42 43.0767 193.687 43.2014 193.854 43.4158C193.878 43.4506 193.924 43.4651 193.966 43.4535C193.974 43.4535 193.98 43.4506 193.989 43.4448C194.197 43.3289 194.959 43.0593 195.141 44.0824C195.267 44.7838 194.622 46.3663 193.925 47.4212Z" fill="#FFD0C2"/>
<path fill-rule="evenodd" clip-rule="evenodd" d="M185.435 49.4535C186.486 47.9134 186.08 45.809 184.678 45.7461C184.024 45.7316 183.556 45.9742 183.08 46.3173C182.543 46.7192 181.998 47.133 181.447 47.5522C179.241 49.2309 176.921 50.9952 174.447 52.4184C171.576 54.1026 170.241 57.3458 170.643 60.5014C170.648 60.5438 170.654 60.5817 170.658 60.6159C170.698 60.9024 170.702 60.9288 170.664 61.1248C170.379 62.5893 169.98 64.0317 169.582 65.4732C169.47 65.8772 169.359 66.2811 169.249 66.6854C166.809 75.6868 164.485 84.5961 162.332 93.6586C161.22 98.339 160.874 102.899 160.778 107.465C160.684 111.89 160.873 116.65 163.485 120.068C163.933 120.655 164.8 121.453 164.878 121.515C165.394 121.921 165.986 122.248 166.632 122.399C167.94 122.705 169.253 122.167 170.274 121.35C173.002 119.166 174.642 115.666 175.773 112.188C178.595 103.509 178.681 93.6832 178.763 84.1975L178.765 84.0399L179.263 68.0264C179.264 67.9781 179.265 67.9298 179.267 67.8815C179.27 67.775 179.273 67.6686 179.277 67.5621C179.278 67.5442 179.3 67.1888 179.302 67.1636C179.339 66.595 179.402 66.0281 179.491 65.4652C179.726 63.9883 180.65 63.3434 181.685 62.8696C184.277 61.6827 186.741 60.235 188.936 58.4404C189.002 58.3865 189.068 58.3326 189.135 58.2787C189.832 57.7106 190.532 57.1412 191.06 56.4328C191.197 56.2499 191.278 56.0689 191.359 55.8877C191.506 55.5588 191.653 55.2293 192.134 54.8866C193.314 54.0442 193.646 52.535 193.957 51.1153C193.996 50.9412 194.034 50.7684 194.073 50.5983C194.366 49.3237 194.642 47.654 194.642 47.654C196.322 44.9537 195.797 42.3479 194.156 42.6284C194.106 42.638 193.996 42.6044 193.851 42.5603C193.574 42.4758 193.171 42.3529 192.828 42.4232C191.087 42.7812 190.936 45.3038 190.936 45.3038C190.471 45.9788 190.419 47.1856 190.419 47.1856C188.765 48.7023 186.691 49.8454 184.542 50.6421C184.469 50.6688 184.395 50.6951 184.322 50.7206C184.729 50.3323 185.117 49.9184 185.435 49.4535ZM192.402 45.5651C192.402 45.5651 192.248 43.9224 193.219 43.8285C193.243 43.8266 193.274 43.8577 193.318 43.9022C193.407 43.9901 193.547 44.1304 193.788 44.1722C193.959 44.2018 193.969 44.1978 193.989 44.1895C194.001 44.1848 194.016 44.1787 194.066 44.1766C194.066 44.1766 194.372 43.7827 194.418 44.2273C194.516 45.173 193.869 46.1709 193.306 47.0293L193.175 47.3994C192.917 49.2784 192.591 51.186 191.833 52.9154C191.631 53.3742 191.343 53.6008 191.068 53.8172C190.901 53.948 190.739 54.075 190.604 54.2474C190.428 54.4726 190.428 54.4767 190.426 54.504C190.425 54.5212 190.423 54.5475 190.376 54.6439C190.139 55.1395 189.876 55.625 189.495 56.0087C187.533 57.9859 185.141 59.5437 182.634 60.8068C181.707 61.2737 180.581 61.7777 180.581 61.7777C178.213 62.8758 177.954 65.2266 177.812 67.4954L177.797 67.9817L177.298 84.0114C177.239 90.7553 177.111 97.6917 176.062 104.467C175.244 109.753 173.986 115.209 170.55 119.076C169.78 119.942 168.832 120.964 167.561 121.04C166.634 121.095 165.632 120.259 165.632 120.259C165.832 120.392 165.55 120.125 165.27 119.86C165.093 119.692 164.916 119.525 164.865 119.463C163.884 118.259 163.258 116.776 162.882 115.258C161.785 110.835 162.196 106.033 162.597 101.353C162.611 101.188 162.625 101.023 162.639 100.859C162.946 97.2606 163.756 94.0195 164.566 90.7753C164.743 90.0701 164.919 89.3647 165.09 88.6555C165.132 88.4819 165.173 88.3083 165.214 88.1344C166.422 82.9079 167.843 77.6252 169.264 72.3365C170.01 69.5649 170.755 66.7917 171.471 64.0241C171.877 62.4536 172.16 60.7343 172.16 60.7343C171.671 57.8865 172.828 55.0259 175.243 53.6368C178.217 51.9601 181.032 49.8229 183.738 47.6533C183.992 47.4478 184.267 47.2339 184.579 47.1971C184.579 47.1971 184.611 47.453 184.598 47.6269C184.595 47.6782 184.589 47.7295 184.583 47.7808C184.414 49.1638 183.08 50.0621 181.84 50.8969C181.661 51.0176 181.484 51.1371 181.312 51.2564C180.587 51.8225 181.082 52.8174 181.964 52.7383C183.571 52.5934 185.128 52.0543 186.581 51.3486C188.627 50.3544 191.141 48.41 191.581 48.0692C191.611 48.0462 191.632 48.0305 191.642 48.0229C191.619 48.0256 191.862 47.6348 191.862 47.6348C191.912 47.3769 191.921 47.2021 191.93 47.0437C191.937 46.9124 191.944 46.7923 191.972 46.6453C192.014 46.4315 192.108 46.2626 192.198 46.1015C192.295 45.9291 192.387 45.7655 192.402 45.5651Z" fill="black"/>
<path d="M181.017 55.9117C181.34 55.9587 181.326 56.0477 181.381 56.1891C181.696 57.0073 179.536 57.1983 178.118 56.9215C176.716 56.6615 175.482 57.1391 174.159 58.1132C173.732 58.4208 173.069 57.8457 173.744 57.333C175.086 56.3004 176.736 55.7262 178.478 56.1074C179.241 56.2743 180.024 56.3062 180.781 55.9511C180.781 55.9511 180.855 55.9007 181.017 55.9117Z" fill="black"/>
<path d="M193.873 42.6953C194.002 42.7026 194.037 42.715 194.106 42.7399C194.59 42.9167 194.651 43.5868 194.7 44.2059C194.825 45.7912 194.656 47.3911 194.406 48.9677C194.406 48.9677 194.166 49.6068 193.643 49.579C192.446 49.5158 193.187 47.0992 192.572 45.9515L192.116 46.1497C191.667 46.512 190.876 46.1773 190.905 45.5672C190.944 44.7461 192.333 44.2036 193.259 44.6502C193.256 44.5824 193.252 44.5146 193.248 44.447C193.22 44.0308 192.94 43.6781 193.179 43.1321C193.296 42.8649 193.42 42.6944 193.873 42.6953Z" fill="black"/>
<path d="M189.933 49.1877C190.986 49.2329 191.476 50.504 191.778 51.601C192.08 52.7015 192.194 53.886 191.826 54.9891C191.579 55.7296 190.111 55.6056 190.462 54.4463C190.826 53.1939 190.556 51.6996 189.895 50.6716C189.715 50.4009 189.56 51.9787 189.732 53.0502C189.732 53.0502 189.688 53.8443 189.193 54.3471C188.928 54.6196 188.565 55.0253 188.565 55.0253C188.041 55.5487 187.205 55.5876 186.455 55.9562C186.455 55.9562 185.763 56.1388 185.491 55.6644C185.087 54.959 186.307 54.2822 187.517 53.9947C187.517 53.9947 187.896 53.5823 188.252 53.2264C188.252 53.2264 188.09 52.0349 188.177 51.2367C188.255 50.5119 188.518 49.7375 189.225 49.3497C189.364 49.2732 189.669 49.1833 189.933 49.1877Z" fill="black"/>
<path d="M191.19 46.6935C191.599 46.717 191.922 47.0977 191.88 47.5126C191.73 48.5697 191.537 49.6204 191.365 50.6746C191.229 51.4124 189.838 51.3875 189.93 50.4709C190.081 49.4138 190.274 48.3631 190.446 47.3089C190.512 46.9502 190.768 46.687 191.19 46.6935Z" fill="black"/>
<path d="M178.256 64.3362C178.256 64.3362 177.757 64.9857 177.046 69.6105C176.335 74.2355 175.661 88.11 174.726 96.99C174.523 98.9121 173.828 109.31 170.048 116.563C168.175 120.157 164.922 119.559 164.922 119.559C167.025 121.702 167.916 121.446 169.861 119.781C171.807 118.116 172.93 115.49 174.202 112.196C175.474 108.904 176.11 103.946 176.41 101.763C176.709 99.5799 177.158 88.5911 177.158 88.5911C177.158 88.5911 177.607 73.3104 177.757 69.0186C177.906 64.7266 178.328 64.1719 178.328 64.1719" fill="black" fill-opacity="0.25" style="mix-blend-mode:overlay"/>
<path fill-rule="evenodd" clip-rule="evenodd" d="M178.944 64.5614C178.876 64.7962 178.818 65.057 178.771 65.3527C178.642 66.17 178.624 66.3033 178.548 67.5292L178.533 68.0046L170.35 65.4251C170.681 64.1847 170.991 62.9848 171.196 62.1211L178.944 64.5614Z" fill="#0053F5"/>
<path fill-rule="evenodd" clip-rule="evenodd" d="M171.42 61.4318C171.338 61.4086 171.316 61.4049 171.231 61.3985C170.743 61.3927 170.485 61.9552 170.485 61.9552C170.295 62.7482 170.092 63.5374 169.885 64.326C169.866 64.3985 169.845 64.4726 169.824 64.5473C169.668 65.1057 169.5 65.704 169.914 66.0079C169.919 66.0113 169.923 66.0146 169.927 66.0178C169.973 66.0514 170 66.0715 170.128 66.1166L178.312 68.696C178.649 68.7899 178.878 68.7021 179.068 68.503C179.08 68.4897 179.093 68.478 179.105 68.4667C179.173 68.4019 179.228 68.3493 179.264 68.0749C179.264 68.0749 179.273 67.7784 179.281 67.5637C179.282 67.5512 179.295 67.3525 179.302 67.2401C179.304 67.2005 179.306 67.1716 179.307 67.1654C179.338 66.6894 179.406 66.2362 179.467 65.8259C179.619 64.8194 179.731 64.0704 179.167 63.8721L171.42 61.4318ZM171.243 64.9171C171.394 64.3439 171.542 63.7703 171.688 63.1959C171.698 63.1547 171.708 63.1138 171.718 63.0728C171.72 63.0646 171.722 63.0565 171.724 63.0483L178.077 65.0629C177.965 65.6971 177.919 66.0698 177.877 66.5909C177.866 66.7364 177.856 66.8822 177.846 67.0279L171.243 64.9171Z" fill="black"/>
<path d="M131.924 116.524C132.048 116.533 132.16 116.588 132.244 116.68L136.14 121.263C136.43 121.627 135.897 122.29 135.477 121.826L131.581 117.243C131.092 116.629 131.63 116.522 131.924 116.524Z" fill="black"/>
<path d="M134.613 116.71C135.044 116.734 135.462 117.472 135.902 118.007C136.175 118.361 135.592 118.945 135.24 118.57C134.629 117.874 133.781 117.052 134.41 116.752C134.474 116.722 134.51 116.708 134.613 116.71Z" fill="black"/>
<path d="M131.143 118.586C131.254 118.597 131.355 118.645 131.433 118.725C132.15 119.53 132.83 120.368 133.528 121.189C133.81 121.537 133.244 122.141 132.879 121.767C132.162 120.963 131.483 120.125 130.785 119.304C130.561 119.028 130.731 118.565 131.143 118.586Z" fill="black"/>
<path fill-rule="evenodd" clip-rule="evenodd" d="M91.6378 107.373C91.6378 107.373 90.6587 110.008 87.7012 109.254C89.0085 107.289 89.7413 105.965 89.7413 105.965C89.8204 106.023 89.9025 106.081 89.9846 106.136C90.0432 106.179 90.1047 106.22 90.1604 106.263C90.3774 106.417 90.5796 106.565 90.7731 106.704C91.0955 106.942 91.3769 107.159 91.6143 107.353C91.6231 107.359 91.629 107.367 91.6378 107.373Z" fill="#5DBBFF"/>
<path fill-rule="evenodd" clip-rule="evenodd" d="M90.6287 105.685C90.3746 105.47 90.1311 105.264 89.7646 105.242C89.3281 105.236 89.0969 105.615 89.0969 105.615C88.5789 106.539 88.0126 107.438 87.4343 108.328C86.7159 109.427 87.0987 109.881 87.7901 110.02C89.6418 110.392 91.4506 109.431 92.2186 107.86C92.4765 107.333 92.2608 106.938 91.8827 106.639C91.6599 106.463 91.4336 106.292 91.2053 106.122L90.9039 105.905C90.8071 105.835 90.7173 105.759 90.6287 105.685ZM88.9905 108.609C89.3214 108.089 89.6462 107.565 89.9616 107.036C90.0117 106.951 90.692 107.582 90.692 107.582C90.097 108.447 88.9905 108.609 88.9905 108.609Z" fill="black"/>
<path fill-rule="evenodd" clip-rule="evenodd" d="M155.192 109.257C152.169 109.257 151.646 107.136 151.646 107.136C151.646 107.136 152.007 106.834 152.643 106.336C152.863 106.162 153.118 105.965 153.403 105.75C153.32 105.831 153.235 105.904 153.15 105.965C153.15 105.965 153.674 107.014 155.192 109.257Z" fill="#5DBBFF"/>
<path fill-rule="evenodd" clip-rule="evenodd" d="M154.053 106.089C154.289 105.626 153.941 105.062 153.439 105.028C153.192 105.022 153.1 105.074 152.959 105.176C152.959 105.176 152.518 105.512 152.189 105.77C152.08 105.856 151.961 105.941 151.842 106.026C151.357 106.371 150.859 106.726 150.921 107.226C151.079 108.484 152.281 109.363 153.472 109.738C154.482 110.055 155.769 110.137 155.914 109.395C155.967 109.126 155.804 108.856 155.804 108.856C155.192 107.951 154.592 107.034 154.053 106.089ZM152.545 107.346C152.545 107.346 152.733 107.195 152.878 107.08C152.958 107.018 152.972 107.136 152.972 107.136C153.29 107.672 153.652 108.26 153.652 108.26C153.2 108.067 152.801 107.756 152.545 107.346Z" fill="black"/>
<path d="M249.338 183.339C249.944 183.425 249.953 183.681 249.994 183.957C250.053 184.369 249.698 184.765 249.268 184.785H231.609C230.833 184.749 230.612 183.383 231.609 183.336H249.268C249.291 183.337 249.314 183.338 249.338 183.339Z" fill="black"/>
<path d="M224.879 183.391C225.115 183.547 225.117 183.55 225.275 183.783L225.331 184.061L225.275 184.338L225.116 184.573L224.879 184.73L224.598 184.785H20.0531L19.7726 184.73C19.5366 184.574 19.534 184.571 19.376 184.338L19.3203 184.061L19.376 183.783L19.5349 183.548C19.7711 183.392 19.7746 183.391 20.0531 183.336H224.598C224.692 183.354 224.785 183.373 224.879 183.391Z" fill="black"/>
<path d="M14.278 183.339C15.0668 183.439 14.9967 183.917 14.9322 184.213C14.8613 184.538 14.6435 184.767 14.2159 184.785H0.721823C0.315267 184.768 0.281265 184.662 0.171638 184.539C-0.201502 184.12 0.0570288 183.364 0.721823 183.336H14.2159C14.2367 183.337 14.2572 183.338 14.278 183.339Z" fill="black"/>
</svg>
