<svg width="22" height="22" viewBox="0 0 22 22" fill="none" xmlns="http://www.w3.org/2000/svg">
<path d="M7 20.3212V20.9879H6.33333V20.3212H7ZM20.3333 20.3212H21V20.9879H20.3333V20.3212ZM1.66667 20.3333V21H1V20.3333H1.66667ZM10.3333 5.66405C10.3333 7.50335 11.8251 8.99479 13.6667 8.99479V10.3281C11.0896 10.3281 9 8.24055 9 5.66405H10.3333ZM13.6667 8.99479C15.5082 8.99479 17 7.50335 17 5.66405H18.3333C18.3333 8.24055 16.2438 10.3281 13.6667 10.3281V8.99479ZM17 5.66405C17 3.82476 15.5082 2.33333 13.6667 2.33333V1C16.2438 1 18.3333 3.08756 18.3333 5.66405H17ZM13.6667 2.33333C11.8251 2.33333 10.3333 3.82476 10.3333 5.66405H9C9 3.08756 11.0896 1 13.6667 1V2.33333ZM7 19.6545H20.3333V20.9879H7V19.6545ZM19.6667 20.3212V20.3156V20.3101V20.3045V20.2989V20.2935V20.2879V20.2824V20.2768V20.2713V20.2657V20.2603V20.2547V20.2492V20.2436V20.2381V20.2325V20.2271V20.2215V20.216V20.2104V20.2049V20.1993V20.1939V20.1884V20.1828V20.1773V20.1717V20.1663V20.1608V20.1552V20.1497V20.1443V20.1387V20.1332V20.1277V20.1221V20.1167V20.1112V20.1056V20.1001V20.0947V20.0892V20.0836V20.0781V20.0727V20.0672V20.0616V20.0561V20.0507V20.0452V20.0397V20.0341V20.0287V20.0232V20.0177V20.0123V20.0068V20.0012V19.9957V19.9903V19.9848V19.9793V19.9739V19.9684V19.9629V19.9575V19.952V19.9465V19.9411V19.9356V19.9301V19.9247V19.9192V19.9137V19.9083V19.9028V19.8973V19.8919V19.8864V19.8809V19.8755V19.87V19.8645V19.8591V19.8536V19.8481V19.8428V19.8373V19.8319V19.8264V19.8209V19.8155V19.8101V19.8047V19.7992V19.7937V19.7883V19.7829V19.7775V19.772V19.7665V19.7612V19.7557V19.7503V19.7448V19.7395V19.734V19.7285V19.7232V19.7177V19.7123V19.7069V19.7015V19.6961V19.6907V19.6852V19.6799V19.6744V19.6691V19.6636V19.6581V19.6528V19.6473V19.642V19.6365V19.6312V19.6257V19.6204V19.6149V19.6096V19.6041V19.5988V19.5935V19.588V19.5827V19.5772V19.5719V19.5664V19.5611V19.5557V19.5503V19.5449V19.5396V19.5341V19.5288V19.5235V19.518V19.5127V19.5073V19.5019V19.4965V19.4912V19.4859V19.4804V19.4751V19.4697V19.4644V19.4591V19.4536V19.4483V19.4429V19.4376V19.4323V19.4269V19.4216V19.4161V19.4108V19.4055V19.4001V19.3948V19.3895V19.3841V19.3788V19.3735V19.3681V19.3628V19.3575V19.3521V19.3468V19.3415V19.3361V19.3308V19.3255V19.3201V19.3148V19.3095V19.3041V19.2988V19.2936V19.2883V19.2829V19.2776V19.2723V19.2669V19.2616V19.2564V19.2511V19.2457V19.2404V19.2352V19.2299V19.2245V19.2192V19.214V19.2087V19.2033V19.198V19.1928V19.1875V19.1821V19.1769V19.1716V19.1664V19.1611V19.1557V19.1505V19.1452V19.14V19.1347V19.1293V19.1241V19.1188V19.1136V19.1083V19.1031V19.0977V19.0925V19.0872V19.082V19.0768V19.0715V19.0663V19.0609V19.0557V19.0504V19.0452V19.04V19.0347V19.0295V19.0243V19.0189V19.0137V19.0085V19.0032V18.998V18.9928V18.9876V18.9823V18.9771V18.9719V18.9667V18.9615V18.9561V18.9509V18.9457V18.9405V18.9353V18.9301V18.9248V18.9196V18.9144V18.9092V18.904V18.8988V18.8936V18.8884V18.8832V18.878V18.8728V18.8676V18.8624V18.8572V18.852V18.8468V18.8416V18.8364V18.8312V18.826V18.8208V18.8156V18.8105V18.8053V18.8001V18.7949V18.7897V18.7845V18.7795V18.7743V18.7691V18.7639V18.7587V18.7536V18.7484V18.7432V18.7381V18.7329V18.7277V18.7227V18.7175V18.7123V18.7072V18.702V18.6968V18.6917V18.6865V18.6815V18.6763V18.6711V18.666V18.6608V18.6557V18.6505V18.6455V18.6403V18.6352V18.63V18.6249V18.6199V18.6147V18.6096V18.6044V18.5993V18.5943V18.5891V18.584V18.5789V18.5737V18.5687V18.5636V18.5584V18.5533V18.5483V18.5431V18.538V18.5329V18.5279V18.5228V18.5176V18.5125V18.5075V18.5024V18.4973V18.4923V18.4872V18.482V18.4769V18.4719V18.4668V18.4617V18.4567V18.4516V18.4465V18.4415V18.4364V18.4313V18.4263V18.4212V18.4161V18.4111V18.406V18.4009V18.396V18.3909V18.3859V18.3808V18.3757V18.3707V18.3656V18.3607V18.3556V18.3505V18.3455V18.3405V18.3355V18.3304V18.3253V18.3204V18.3153V18.3103V18.3053V18.3003V18.2952V18.2903V18.2852V18.2803V18.2752V18.2701V18.2652V18.2601V18.2552V18.2501V18.2452V18.2401V18.2352V18.2301V18.2252V18.2201V18.2152V18.2103V18.2052V18.2003V18.1952V18.1903V18.1853V18.1803V18.1753V18.1704V18.1653V18.1604V18.1555V18.1505V18.1455V18.1405V18.1356V18.1307V18.1257V18.1207V18.1157V18.1108V18.1059V18.1009V18.096V18.0911V18.086V18.0811V18.0761V18.0712V18.0663V18.0613V18.0564V18.0515V18.0465V18.0416V18.0367V18.0317V18.0269V18.022V18.0171V18.0121V18.0072V18.0023V17.9973V17.9924V17.9876V17.9827V17.9777V17.9728V17.968V17.9631V17.9581V17.9532V17.9484V17.9435V17.9385V17.9337V17.9288V17.9239V17.9191V17.9141V17.9093V17.9044V17.8995V17.8947V17.8897V17.8849V17.88V17.8752V17.8703V17.8655V17.8605V17.8557V17.8509V17.846V17.8412V17.8363V17.8315V17.8267V17.8217V17.8169V17.8121V17.8072V17.8024V17.7976V17.7928V17.7879V17.7831V17.7783V17.7735V17.7685V17.7637V17.7589V17.7541V17.7493V17.7445V17.7397V17.7349V17.7301V17.7253V17.7204V17.7156V17.7108V17.706V17.7012V17.6964V17.6917V17.6869V17.6821V17.6773V17.6725V17.6677V17.6629V17.6581H21V17.6629V17.6677V17.6725V17.6773V17.6821V17.6869V17.6917V17.6964V17.7012V17.706V17.7108V17.7156V17.7204V17.7253V17.7301V17.7349V17.7397V17.7445V17.7493V17.7541V17.7589V17.7637V17.7685V17.7735V17.7783V17.7831V17.7879V17.7928V17.7976V17.8024V17.8072V17.8121V17.8169V17.8217V17.8267V17.8315V17.8363V17.8412V17.846V17.8509V17.8557V17.8605V17.8655V17.8703V17.8752V17.88V17.8849V17.8897V17.8947V17.8995V17.9044V17.9093V17.9141V17.9191V17.9239V17.9288V17.9337V17.9385V17.9435V17.9484V17.9532V17.9581V17.9631V17.968V17.9728V17.9777V17.9827V17.9876V17.9924V17.9973V18.0023V18.0072V18.0121V18.0171V18.022V18.0269V18.0317V18.0367V18.0416V18.0465V18.0515V18.0564V18.0613V18.0663V18.0712V18.0761V18.0811V18.086V18.0911V18.096V18.1009V18.1059V18.1108V18.1157V18.1207V18.1257V18.1307V18.1356V18.1405V18.1455V18.1505V18.1555V18.1604V18.1653V18.1704V18.1753V18.1803V18.1853V18.1903V18.1952V18.2003V18.2052V18.2103V18.2152V18.2201V18.2252V18.2301V18.2352V18.2401V18.2452V18.2501V18.2552V18.2601V18.2652V18.2701V18.2752V18.2803V18.2852V18.2903V18.2952V18.3003V18.3053V18.3103V18.3153V18.3204V18.3253V18.3304V18.3355V18.3405V18.3455V18.3505V18.3556V18.3607V18.3656V18.3707V18.3757V18.3808V18.3859V18.3909V18.396V18.4009V18.406V18.4111V18.4161V18.4212V18.4263V18.4313V18.4364V18.4415V18.4465V18.4516V18.4567V18.4617V18.4668V18.4719V18.4769V18.482V18.4872V18.4923V18.4973V18.5024V18.5075V18.5125V18.5176V18.5228V18.5279V18.5329V18.538V18.5431V18.5483V18.5533V18.5584V18.5636V18.5687V18.5737V18.5789V18.584V18.5891V18.5943V18.5993V18.6044V18.6096V18.6147V18.6199V18.6249V18.63V18.6352V18.6403V18.6455V18.6505V18.6557V18.6608V18.666V18.6711V18.6763V18.6815V18.6865V18.6917V18.6968V18.702V18.7072V18.7123V18.7175V18.7227V18.7277V18.7329V18.7381V18.7432V18.7484V18.7536V18.7587V18.7639V18.7691V18.7743V18.7795V18.7845V18.7897V18.7949V18.8001V18.8053V18.8105V18.8156V18.8208V18.826V18.8312V18.8364V18.8416V18.8468V18.852V18.8572V18.8624V18.8676V18.8728V18.878V18.8832V18.8884V18.8936V18.8988V18.904V18.9092V18.9144V18.9196V18.9248V18.9301V18.9353V18.9405V18.9457V18.9509V18.9561V18.9615V18.9667V18.9719V18.9771V18.9823V18.9876V18.9928V18.998V19.0032V19.0085V19.0137V19.0189V19.0243V19.0295V19.0347V19.04V19.0452V19.0504V19.0557V19.0609V19.0663V19.0715V19.0768V19.082V19.0872V19.0925V19.0977V19.1031V19.1083V19.1136V19.1188V19.1241V19.1293V19.1347V19.14V19.1452V19.1505V19.1557V19.1611V19.1664V19.1716V19.1769V19.1821V19.1875V19.1928V19.198V19.2033V19.2087V19.214V19.2192V19.2245V19.2299V19.2352V19.2404V19.2457V19.2511V19.2564V19.2616V19.2669V19.2723V19.2776V19.2829V19.2883V19.2936V19.2988V19.3041V19.3095V19.3148V19.3201V19.3255V19.3308V19.3361V19.3415V19.3468V19.3521V19.3575V19.3628V19.3681V19.3735V19.3788V19.3841V19.3895V19.3948V19.4001V19.4055V19.4108V19.4161V19.4216V19.4269V19.4323V19.4376V19.4429V19.4483V19.4536V19.4591V19.4644V19.4697V19.4751V19.4804V19.4859V19.4912V19.4965V19.5019V19.5073V19.5127V19.518V19.5235V19.5288V19.5341V19.5396V19.5449V19.5503V19.5557V19.5611V19.5664V19.5719V19.5772V19.5827V19.588V19.5935V19.5988V19.6041V19.6096V19.6149V19.6204V19.6257V19.6312V19.6365V19.642V19.6473V19.6528V19.6581V19.6636V19.6691V19.6744V19.6799V19.6852V19.6907V19.6961V19.7015V19.7069V19.7123V19.7177V19.7232V19.7285V19.734V19.7395V19.7448V19.7503V19.7557V19.7612V19.7665V19.772V19.7775V19.7829V19.7883V19.7937V19.7992V19.8047V19.8101V19.8155V19.8209V19.8264V19.8319V19.8373V19.8428V19.8481V19.8536V19.8591V19.8645V19.87V19.8755V19.8809V19.8864V19.8919V19.8973V19.9028V19.9083V19.9137V19.9192V19.9247V19.9301V19.9356V19.9411V19.9465V19.952V19.9575V19.9629V19.9684V19.9739V19.9793V19.9848V19.9903V19.9957V20.0012V20.0068V20.0123V20.0177V20.0232V20.0287V20.0341V20.0397V20.0452V20.0507V20.0561V20.0616V20.0672V20.0727V20.0781V20.0836V20.0892V20.0947V20.1001V20.1056V20.1112V20.1167V20.1221V20.1277V20.1332V20.1387V20.1443V20.1497V20.1552V20.1608V20.1663V20.1717V20.1773V20.1828V20.1884V20.1939V20.1993V20.2049V20.2104V20.216V20.2215V20.2271V20.2325V20.2381V20.2436V20.2492V20.2547V20.2603V20.2657V20.2713V20.2768V20.2824V20.2879V20.2935V20.2989V20.3045V20.3101V20.3156V20.3212H19.6667ZM16.3333 14.3255H11V12.9922H16.3333V14.3255ZM7.66667 17.6581V17.6629V17.6677V17.6725V17.6773V17.6821V17.6869V17.6917V17.6964V17.7012V17.706V17.7108V17.7156V17.7204V17.7253V17.7301V17.7349V17.7397V17.7445V17.7493V17.7541V17.7589V17.7637V17.7685V17.7735V17.7783V17.7831V17.7879V17.7928V17.7976V17.8024V17.8072V17.8121V17.8169V17.8217V17.8267V17.8315V17.8363V17.8412V17.846V17.8509V17.8557V17.8605V17.8655V17.8703V17.8752V17.88V17.8849V17.8897V17.8947V17.8995V17.9044V17.9093V17.9141V17.9191V17.9239V17.9288V17.9337V17.9385V17.9435V17.9484V17.9532V17.9581V17.9631V17.968V17.9728V17.9777V17.9827V17.9876V17.9924V17.9973V18.0023V18.0072V18.0121V18.0171V18.022V18.0269V18.0317V18.0367V18.0416V18.0465V18.0515V18.0564V18.0613V18.0663V18.0712V18.0761V18.0811V18.086V18.0911V18.096V18.1009V18.1059V18.1108V18.1157V18.1207V18.1257V18.1307V18.1356V18.1405V18.1455V18.1505V18.1555V18.1604V18.1653V18.1704V18.1753V18.1803V18.1853V18.1903V18.1952V18.2003V18.2052V18.2103V18.2152V18.2201V18.2252V18.2301V18.2352V18.2401V18.2452V18.2501V18.2552V18.2601V18.2652V18.2701V18.2752V18.2803V18.2852V18.2903V18.2952V18.3003V18.3053V18.3103V18.3153V18.3204V18.3253V18.3304V18.3355V18.3405V18.3455V18.3505V18.3556V18.3607V18.3656V18.3707V18.3757V18.3808V18.3859V18.3909V18.396V18.4009V18.406V18.4111V18.4161V18.4212V18.4263V18.4313V18.4364V18.4415V18.4465V18.4516V18.4567V18.4617V18.4668V18.4719V18.4769V18.482V18.4872V18.4923V18.4973V18.5024V18.5075V18.5125V18.5176V18.5228V18.5279V18.5329V18.538V18.5431V18.5483V18.5533V18.5584V18.5636V18.5687V18.5737V18.5789V18.584V18.5891V18.5943V18.5993V18.6044V18.6096V18.6147V18.6199V18.6249V18.63V18.6352V18.6403V18.6455V18.6505V18.6557V18.6608V18.666V18.6711V18.6763V18.6815V18.6865V18.6917V18.6968V18.702V18.7072V18.7123V18.7175V18.7227V18.7277V18.7329V18.7381V18.7432V18.7484V18.7536V18.7587V18.7639V18.7691V18.7743V18.7795V18.7845V18.7897V18.7949V18.8001V18.8053V18.8105V18.8156V18.8208V18.826V18.8312V18.8364V18.8416V18.8468V18.852V18.8572V18.8624V18.8676V18.8728V18.878V18.8832V18.8884V18.8936V18.8988V18.904V18.9092V18.9144V18.9196V18.9248V18.9301V18.9353V18.9405V18.9457V18.9509V18.9561V18.9615V18.9667V18.9719V18.9771V18.9823V18.9876V18.9928V18.998V19.0032V19.0085V19.0137V19.0189V19.0243V19.0295V19.0347V19.04V19.0452V19.0504V19.0557V19.0609V19.0663V19.0715V19.0768V19.082V19.0872V19.0925V19.0977V19.1031V19.1083V19.1136V19.1188V19.1241V19.1293V19.1347V19.14V19.1452V19.1505V19.1557V19.1611V19.1664V19.1716V19.1769V19.1821V19.1875V19.1928V19.198V19.2033V19.2087V19.214V19.2192V19.2245V19.2299V19.2352V19.2404V19.2457V19.2511V19.2564V19.2616V19.2669V19.2723V19.2776V19.2829V19.2883V19.2936V19.2988V19.3041V19.3095V19.3148V19.3201V19.3255V19.3308V19.3361V19.3415V19.3468V19.3521V19.3575V19.3628V19.3681V19.3735V19.3788V19.3841V19.3895V19.3948V19.4001V19.4055V19.4108V19.4161V19.4216V19.4269V19.4323V19.4376V19.4429V19.4483V19.4536V19.4591V19.4644V19.4697V19.4751V19.4804V19.4859V19.4912V19.4965V19.5019V19.5073V19.5127V19.518V19.5235V19.5288V19.5341V19.5396V19.5449V19.5503V19.5557V19.5611V19.5664V19.5719V19.5772V19.5827V19.588V19.5935V19.5988V19.6041V19.6096V19.6149V19.6204V19.6257V19.6312V19.6365V19.642V19.6473V19.6528V19.6581V19.6636V19.6691V19.6744V19.6799V19.6852V19.6907V19.6961V19.7015V19.7069V19.7123V19.7177V19.7232V19.7285V19.734V19.7395V19.7448V19.7503V19.7557V19.7612V19.7665V19.772V19.7775V19.7829V19.7883V19.7937V19.7992V19.8047V19.8101V19.8155V19.8209V19.8264V19.8319V19.8373V19.8428V19.8481V19.8536V19.8591V19.8645V19.87V19.8755V19.8809V19.8864V19.8919V19.8973V19.9028V19.9083V19.9137V19.9192V19.9247V19.9301V19.9356V19.9411V19.9465V19.952V19.9575V19.9629V19.9684V19.9739V19.9793V19.9848V19.9903V19.9957V20.0012V20.0068V20.0123V20.0177V20.0232V20.0287V20.0341V20.0397V20.0452V20.0507V20.0561V20.0616V20.0672V20.0727V20.0781V20.0836V20.0892V20.0947V20.1001V20.1056V20.1112V20.1167V20.1221V20.1277V20.1332V20.1387V20.1443V20.1497V20.1552V20.1608V20.1663V20.1717V20.1773V20.1828V20.1884V20.1939V20.1993V20.2049V20.2104V20.216V20.2215V20.2271V20.2325V20.2381V20.2436V20.2492V20.2547V20.2603V20.2657V20.2713V20.2768V20.2824V20.2879V20.2935V20.2989V20.3045V20.3101V20.3156V20.3212H6.33333V20.3156V20.3101V20.3045V20.2989V20.2935V20.2879V20.2824V20.2768V20.2713V20.2657V20.2603V20.2547V20.2492V20.2436V20.2381V20.2325V20.2271V20.2215V20.216V20.2104V20.2049V20.1993V20.1939V20.1884V20.1828V20.1773V20.1717V20.1663V20.1608V20.1552V20.1497V20.1443V20.1387V20.1332V20.1277V20.1221V20.1167V20.1112V20.1056V20.1001V20.0947V20.0892V20.0836V20.0781V20.0727V20.0672V20.0616V20.0561V20.0507V20.0452V20.0397V20.0341V20.0287V20.0232V20.0177V20.0123V20.0068V20.0012V19.9957V19.9903V19.9848V19.9793V19.9739V19.9684V19.9629V19.9575V19.952V19.9465V19.9411V19.9356V19.9301V19.9247V19.9192V19.9137V19.9083V19.9028V19.8973V19.8919V19.8864V19.8809V19.8755V19.87V19.8645V19.8591V19.8536V19.8481V19.8428V19.8373V19.8319V19.8264V19.8209V19.8155V19.8101V19.8047V19.7992V19.7937V19.7883V19.7829V19.7775V19.772V19.7665V19.7612V19.7557V19.7503V19.7448V19.7395V19.734V19.7285V19.7232V19.7177V19.7123V19.7069V19.7015V19.6961V19.6907V19.6852V19.6799V19.6744V19.6691V19.6636V19.6581V19.6528V19.6473V19.642V19.6365V19.6312V19.6257V19.6204V19.6149V19.6096V19.6041V19.5988V19.5935V19.588V19.5827V19.5772V19.5719V19.5664V19.5611V19.5557V19.5503V19.5449V19.5396V19.5341V19.5288V19.5235V19.518V19.5127V19.5073V19.5019V19.4965V19.4912V19.4859V19.4804V19.4751V19.4697V19.4644V19.4591V19.4536V19.4483V19.4429V19.4376V19.4323V19.4269V19.4216V19.4161V19.4108V19.4055V19.4001V19.3948V19.3895V19.3841V19.3788V19.3735V19.3681V19.3628V19.3575V19.3521V19.3468V19.3415V19.3361V19.3308V19.3255V19.3201V19.3148V19.3095V19.3041V19.2988V19.2936V19.2883V19.2829V19.2776V19.2723V19.2669V19.2616V19.2564V19.2511V19.2457V19.2404V19.2352V19.2299V19.2245V19.2192V19.214V19.2087V19.2033V19.198V19.1928V19.1875V19.1821V19.1769V19.1716V19.1664V19.1611V19.1557V19.1505V19.1452V19.14V19.1347V19.1293V19.1241V19.1188V19.1136V19.1083V19.1031V19.0977V19.0925V19.0872V19.082V19.0768V19.0715V19.0663V19.0609V19.0557V19.0504V19.0452V19.04V19.0347V19.0295V19.0243V19.0189V19.0137V19.0085V19.0032V18.998V18.9928V18.9876V18.9823V18.9771V18.9719V18.9667V18.9615V18.9561V18.9509V18.9457V18.9405V18.9353V18.9301V18.9248V18.9196V18.9144V18.9092V18.904V18.8988V18.8936V18.8884V18.8832V18.878V18.8728V18.8676V18.8624V18.8572V18.852V18.8468V18.8416V18.8364V18.8312V18.826V18.8208V18.8156V18.8105V18.8053V18.8001V18.7949V18.7897V18.7845V18.7795V18.7743V18.7691V18.7639V18.7587V18.7536V18.7484V18.7432V18.7381V18.7329V18.7277V18.7227V18.7175V18.7123V18.7072V18.702V18.6968V18.6917V18.6865V18.6815V18.6763V18.6711V18.666V18.6608V18.6557V18.6505V18.6455V18.6403V18.6352V18.63V18.6249V18.6199V18.6147V18.6096V18.6044V18.5993V18.5943V18.5891V18.584V18.5789V18.5737V18.5687V18.5636V18.5584V18.5533V18.5483V18.5431V18.538V18.5329V18.5279V18.5228V18.5176V18.5125V18.5075V18.5024V18.4973V18.4923V18.4872V18.482V18.4769V18.4719V18.4668V18.4617V18.4567V18.4516V18.4465V18.4415V18.4364V18.4313V18.4263V18.4212V18.4161V18.4111V18.406V18.4009V18.396V18.3909V18.3859V18.3808V18.3757V18.3707V18.3656V18.3607V18.3556V18.3505V18.3455V18.3405V18.3355V18.3304V18.3253V18.3204V18.3153V18.3103V18.3053V18.3003V18.2952V18.2903V18.2852V18.2803V18.2752V18.2701V18.2652V18.2601V18.2552V18.2501V18.2452V18.2401V18.2352V18.2301V18.2252V18.2201V18.2152V18.2103V18.2052V18.2003V18.1952V18.1903V18.1853V18.1803V18.1753V18.1704V18.1653V18.1604V18.1555V18.1505V18.1455V18.1405V18.1356V18.1307V18.1257V18.1207V18.1157V18.1108V18.1059V18.1009V18.096V18.0911V18.086V18.0811V18.0761V18.0712V18.0663V18.0613V18.0564V18.0515V18.0465V18.0416V18.0367V18.0317V18.0269V18.022V18.0171V18.0121V18.0072V18.0023V17.9973V17.9924V17.9876V17.9827V17.9777V17.9728V17.968V17.9631V17.9581V17.9532V17.9484V17.9435V17.9385V17.9337V17.9288V17.9239V17.9191V17.9141V17.9093V17.9044V17.8995V17.8947V17.8897V17.8849V17.88V17.8752V17.8703V17.8655V17.8605V17.8557V17.8509V17.846V17.8412V17.8363V17.8315V17.8267V17.8217V17.8169V17.8121V17.8072V17.8024V17.7976V17.7928V17.7879V17.7831V17.7783V17.7735V17.7685V17.7637V17.7589V17.7541V17.7493V17.7445V17.7397V17.7349V17.7301V17.7253V17.7204V17.7156V17.7108V17.706V17.7012V17.6964V17.6917V17.6869V17.6821V17.6773V17.6725V17.6677V17.6629V17.6581H7.66667ZM11 14.3255C9.15891 14.3255 7.66667 15.8173 7.66667 17.6581H6.33333C6.33333 15.0807 8.42281 12.9922 11 12.9922V14.3255ZM19.6667 17.6581C19.6667 15.8173 18.1744 14.3255 16.3333 14.3255V12.9922C18.9105 12.9922 21 15.0807 21 17.6581H19.6667ZM2.33333 18.3333V20.3333H1V18.3333H2.33333ZM1.66667 19.6667H5V21H1.66667V19.6667ZM5 15.6667C3.5272 15.6667 2.33333 16.8605 2.33333 18.3333H1C1 16.1241 2.7908 14.3333 5 14.3333V15.6667ZM5.66667 11.6667C6.7712 11.6667 7.66667 10.7712 7.66667 9.66667H9C9 11.5076 7.5076 13 5.66667 13V11.6667ZM3.66667 9.66667C3.66667 10.7712 4.56213 11.6667 5.66667 11.6667V13C3.82573 13 2.33333 11.5076 2.33333 9.66667H3.66667ZM5.66667 7.66667C4.56213 7.66667 3.66667 8.56209 3.66667 9.66667H2.33333C2.33333 7.82572 3.82573 6.33333 5.66667 6.33333V7.66667ZM5.66667 6.33333C7.5076 6.33333 9 7.82572 9 9.66667H7.66667C7.66667 8.56209 6.7712 7.66667 5.66667 7.66667V6.33333Z" fill="#0053F5"/>
<path d="M7 20.9879V20.3212H6.33333M7 20.9879H6.33333V20.3212M7 20.9879H20.3333M7 20.9879V19.6545H20.3333V20.9879M6.33333 20.3212H7.66667V20.3156V20.3101V20.3045V20.2989V20.2935V20.2879V20.2824V20.2768V20.2713V20.2657V20.2603V20.2547V20.2492V20.2436V20.2381V20.2325V20.2271V20.2215V20.216V20.2104V20.2049V20.1993V20.1939V20.1884V20.1828V20.1773V20.1717V20.1663V20.1608V20.1552V20.1497V20.1443V20.1387V20.1332V20.1277V20.1221V20.1167V20.1112V20.1056V20.1001V20.0947V20.0892V20.0836V20.0781V20.0727V20.0672V20.0616V20.0561V20.0507V20.0452V20.0397V20.0341V20.0287V20.0232V20.0177V20.0123V20.0068V20.0012V19.9957V19.9903V19.9848V19.9793V19.9739V19.9684V19.9629V19.9575V19.952V19.9465V19.9411V19.9356V19.9301V19.9247V19.9192V19.9137V19.9083V19.9028V19.8973V19.8919V19.8864V19.8809V19.8755V19.87V19.8645V19.8591V19.8536V19.8481V19.8428V19.8373V19.8319V19.8264V19.8209V19.8155V19.8101V19.8047V19.7992V19.7937V19.7883V19.7829V19.7775V19.772V19.7665V19.7612V19.7557V19.7503V19.7448V19.7395V19.734V19.7285V19.7232V19.7177V19.7123V19.7069V19.7015V19.6961V19.6907V19.6852V19.6799V19.6744V19.6691V19.6636V19.6581V19.6528V19.6473V19.642V19.6365V19.6312V19.6257V19.6204V19.6149V19.6096V19.6041V19.5988V19.5935V19.588V19.5827V19.5772V19.5719V19.5664V19.5611V19.5557V19.5503V19.5449V19.5396V19.5341V19.5288V19.5235V19.518V19.5127V19.5073V19.5019V19.4965V19.4912V19.4859V19.4804V19.4751V19.4697V19.4644V19.4591V19.4536V19.4483V19.4429V19.4376V19.4323V19.4269V19.4216V19.4161V19.4108V19.4055V19.4001V19.3948V19.3895V19.3841V19.3788V19.3735V19.3681V19.3628V19.3575V19.3521V19.3468V19.3415V19.3361V19.3308V19.3255V19.3201V19.3148V19.3095V19.3041V19.2988V19.2936V19.2883V19.2829V19.2776V19.2723V19.2669V19.2616V19.2564V19.2511V19.2457V19.2404V19.2352V19.2299V19.2245V19.2192V19.214V19.2087V19.2033V19.198V19.1928V19.1875V19.1821V19.1769V19.1716V19.1664V19.1611V19.1557V19.1505V19.1452V19.14V19.1347V19.1293V19.1241V19.1188V19.1136V19.1083V19.1031V19.0977V19.0925V19.0872V19.082V19.0768V19.0715V19.0663V19.0609V19.0557V19.0504V19.0452V19.04V19.0347V19.0295V19.0243V19.0189V19.0137V19.0085V19.0032V18.998V18.9928V18.9876V18.9823V18.9771V18.9719V18.9667V18.9615V18.9561V18.9509V18.9457V18.9405V18.9353V18.9301V18.9248V18.9196V18.9144V18.9092V18.904V18.8988V18.8936V18.8884V18.8832V18.878V18.8728V18.8676V18.8624V18.8572V18.852V18.8468V18.8416V18.8364V18.8312V18.826V18.8208V18.8156V18.8105V18.8053V18.8001V18.7949V18.7897V18.7845V18.7795V18.7743V18.7691V18.7639V18.7587V18.7536V18.7484V18.7432V18.7381V18.7329V18.7277V18.7227V18.7175V18.7123V18.7072V18.702V18.6968V18.6917V18.6865V18.6815V18.6763V18.6711V18.666V18.6608V18.6557V18.6505V18.6455V18.6403V18.6352V18.63V18.6249V18.6199V18.6147V18.6096V18.6044V18.5993V18.5943V18.5891V18.584V18.5789V18.5737V18.5687V18.5636V18.5584V18.5533V18.5483V18.5431V18.538V18.5329V18.5279V18.5228V18.5176V18.5125V18.5075V18.5024V18.4973V18.4923V18.4872V18.482V18.4769V18.4719V18.4668V18.4617V18.4567V18.4516V18.4465V18.4415V18.4364V18.4313V18.4263V18.4212V18.4161V18.4111V18.406V18.4009V18.396V18.3909V18.3859V18.3808V18.3757V18.3707V18.3656V18.3607V18.3556V18.3505V18.3455V18.3405V18.3355V18.3304V18.3253V18.3204V18.3153V18.3103V18.3053V18.3003V18.2952V18.2903V18.2852V18.2803V18.2752V18.2701V18.2652V18.2601V18.2552V18.2501V18.2452V18.2401V18.2352V18.2301V18.2252V18.2201V18.2152V18.2103V18.2052V18.2003V18.1952V18.1903V18.1853V18.1803V18.1753V18.1704V18.1653V18.1604V18.1555V18.1505V18.1455V18.1405V18.1356V18.1307V18.1257V18.1207V18.1157V18.1108V18.1059V18.1009V18.096V18.0911V18.086V18.0811V18.0761V18.0712V18.0663V18.0613V18.0564V18.0515V18.0465V18.0416V18.0367V18.0317V18.0269V18.022V18.0171V18.0121V18.0072V18.0023V17.9973V17.9924V17.9876V17.9827V17.9777V17.9728V17.968V17.9631V17.9581V17.9532V17.9484V17.9435V17.9385V17.9337V17.9288V17.9239V17.9191V17.9141V17.9093V17.9044V17.8995V17.8947V17.8897V17.8849V17.88V17.8752V17.8703V17.8655V17.8605V17.8557V17.8509V17.846V17.8412V17.8363V17.8315V17.8267V17.8217V17.8169V17.8121V17.8072V17.8024V17.7976V17.7928V17.7879V17.7831V17.7783V17.7735V17.7685V17.7637V17.7589V17.7541V17.7493V17.7445V17.7397V17.7349V17.7301V17.7253V17.7204V17.7156V17.7108V17.706V17.7012V17.6964V17.6917V17.6869V17.6821V17.6773V17.6725V17.6677V17.6629V17.6581M6.33333 20.3212V20.3156V20.3101V20.3045V20.2989V20.2935V20.2879V20.2824V20.2768V20.2713V20.2657V20.2603V20.2547V20.2492V20.2436V20.2381V20.2325V20.2271V20.2215V20.216V20.2104V20.2049V20.1993V20.1939V20.1884V20.1828V20.1773V20.1717V20.1663V20.1608V20.1552V20.1497V20.1443V20.1387V20.1332V20.1277V20.1221V20.1167V20.1112V20.1056V20.1001V20.0947V20.0892V20.0836V20.0781V20.0727V20.0672V20.0616V20.0561V20.0507V20.0452V20.0397V20.0341V20.0287V20.0232V20.0177V20.0123V20.0068V20.0012V19.9957V19.9903V19.9848V19.9793V19.9739V19.9684V19.9629V19.9575V19.952V19.9465V19.9411V19.9356V19.9301V19.9247V19.9192V19.9137V19.9083V19.9028V19.8973V19.8919V19.8864V19.8809V19.8755V19.87V19.8645V19.8591V19.8536V19.8481V19.8428V19.8373V19.8319V19.8264V19.8209V19.8155V19.8101V19.8047V19.7992V19.7937V19.7883V19.7829V19.7775V19.772V19.7665V19.7612V19.7557V19.7503V19.7448V19.7395V19.734V19.7285V19.7232V19.7177V19.7123V19.7069V19.7015V19.6961V19.6907V19.6852V19.6799V19.6744V19.6691V19.6636V19.6581V19.6528V19.6473V19.642V19.6365V19.6312V19.6257V19.6204V19.6149V19.6096V19.6041V19.5988V19.5935V19.588V19.5827V19.5772V19.5719V19.5664V19.5611V19.5557V19.5503V19.5449V19.5396V19.5341V19.5288V19.5235V19.518V19.5127V19.5073V19.5019V19.4965V19.4912V19.4859V19.4804V19.4751V19.4697V19.4644V19.4591V19.4536V19.4483V19.4429V19.4376V19.4323V19.4269V19.4216V19.4161V19.4108V19.4055V19.4001V19.3948V19.3895V19.3841V19.3788V19.3735V19.3681V19.3628V19.3575V19.3521V19.3468V19.3415V19.3361V19.3308V19.3255V19.3201V19.3148V19.3095V19.3041V19.2988V19.2936V19.2883V19.2829V19.2776V19.2723V19.2669V19.2616V19.2564V19.2511V19.2457V19.2404V19.2352V19.2299V19.2245V19.2192V19.214V19.2087V19.2033V19.198V19.1928V19.1875V19.1821V19.1769V19.1716V19.1664V19.1611V19.1557V19.1505V19.1452V19.14V19.1347V19.1293V19.1241V19.1188V19.1136V19.1083V19.1031V19.0977V19.0925V19.0872V19.082V19.0768V19.0715V19.0663V19.0609V19.0557V19.0504V19.0452V19.04V19.0347V19.0295V19.0243V19.0189V19.0137V19.0085V19.0032V18.998V18.9928V18.9876V18.9823V18.9771V18.9719V18.9667V18.9615V18.9561V18.9509V18.9457V18.9405V18.9353V18.9301V18.9248V18.9196V18.9144V18.9092V18.904V18.8988V18.8936V18.8884V18.8832V18.878V18.8728V18.8676V18.8624V18.8572V18.852V18.8468V18.8416V18.8364V18.8312V18.826V18.8208V18.8156V18.8105V18.8053V18.8001V18.7949V18.7897V18.7845V18.7795V18.7743V18.7691V18.7639V18.7587V18.7536V18.7484V18.7432V18.7381V18.7329V18.7277V18.7227V18.7175V18.7123V18.7072V18.702V18.6968V18.6917V18.6865V18.6815V18.6763V18.6711V18.666V18.6608V18.6557V18.6505V18.6455V18.6403V18.6352V18.63V18.6249V18.6199V18.6147V18.6096V18.6044V18.5993V18.5943V18.5891V18.584V18.5789V18.5737V18.5687V18.5636V18.5584V18.5533V18.5483V18.5431V18.538V18.5329V18.5279V18.5228V18.5176V18.5125V18.5075V18.5024V18.4973V18.4923V18.4872V18.482V18.4769V18.4719V18.4668V18.4617V18.4567V18.4516V18.4465V18.4415V18.4364V18.4313V18.4263V18.4212V18.4161V18.4111V18.406V18.4009V18.396V18.3909V18.3859V18.3808V18.3757V18.3707V18.3656V18.3607V18.3556V18.3505V18.3455V18.3405V18.3355V18.3304V18.3253V18.3204V18.3153V18.3103V18.3053V18.3003V18.2952V18.2903V18.2852V18.2803V18.2752V18.2701V18.2652V18.2601V18.2552V18.2501V18.2452V18.2401V18.2352V18.2301V18.2252V18.2201V18.2152V18.2103V18.2052V18.2003V18.1952V18.1903V18.1853V18.1803V18.1753V18.1704V18.1653V18.1604V18.1555V18.1505V18.1455V18.1405V18.1356V18.1307V18.1257V18.1207V18.1157V18.1108V18.1059V18.1009V18.096V18.0911V18.086V18.0811V18.0761V18.0712V18.0663V18.0613V18.0564V18.0515V18.0465V18.0416V18.0367V18.0317V18.0269V18.022V18.0171V18.0121V18.0072V18.0023V17.9973V17.9924V17.9876V17.9827V17.9777V17.9728V17.968V17.9631V17.9581V17.9532V17.9484V17.9435V17.9385V17.9337V17.9288V17.9239V17.9191V17.9141V17.9093V17.9044V17.8995V17.8947V17.8897V17.8849V17.88V17.8752V17.8703V17.8655V17.8605V17.8557V17.8509V17.846V17.8412V17.8363V17.8315V17.8267V17.8217V17.8169V17.8121V17.8072V17.8024V17.7976V17.7928V17.7879V17.7831V17.7783V17.7735V17.7685V17.7637V17.7589V17.7541V17.7493V17.7445V17.7397V17.7349V17.7301V17.7253V17.7204V17.7156V17.7108V17.706V17.7012V17.6964V17.6917V17.6869V17.6821V17.6773V17.6725V17.6677V17.6629V17.6581M21 20.3212H20.3333V20.9879M21 20.3212V20.9879H20.3333M21 20.3212V20.3156V20.3101V20.3045V20.2989V20.2935V20.2879V20.2824V20.2768V20.2713V20.2657V20.2603V20.2547V20.2492V20.2436V20.2381V20.2325V20.2271V20.2215V20.216V20.2104V20.2049V20.1993V20.1939V20.1884V20.1828V20.1773V20.1717V20.1663V20.1608V20.1552V20.1497V20.1443V20.1387V20.1332V20.1277V20.1221V20.1167V20.1112V20.1056V20.1001V20.0947V20.0892V20.0836V20.0781V20.0727V20.0672V20.0616V20.0561V20.0507V20.0452V20.0397V20.0341V20.0287V20.0232V20.0177V20.0123V20.0068V20.0012V19.9957V19.9903V19.9848V19.9793V19.9739V19.9684V19.9629V19.9575V19.952V19.9465V19.9411V19.9356V19.9301V19.9247V19.9192V19.9137V19.9083V19.9028V19.8973V19.8919V19.8864V19.8809V19.8755V19.87V19.8645V19.8591V19.8536V19.8481V19.8428V19.8373V19.8319V19.8264V19.8209V19.8155V19.8101V19.8047V19.7992V19.7937V19.7883V19.7829V19.7775V19.772V19.7665V19.7612V19.7557V19.7503V19.7448V19.7395V19.734V19.7285V19.7232V19.7177V19.7123V19.7069V19.7015V19.6961V19.6907V19.6852V19.6799V19.6744V19.6691V19.6636V19.6581V19.6528V19.6473V19.642V19.6365V19.6312V19.6257V19.6204V19.6149V19.6096V19.6041V19.5988V19.5935V19.588V19.5827V19.5772V19.5719V19.5664V19.5611V19.5557V19.5503V19.5449V19.5396V19.5341V19.5288V19.5235V19.518V19.5127V19.5073V19.5019V19.4965V19.4912V19.4859V19.4804V19.4751V19.4697V19.4644V19.4591V19.4536V19.4483V19.4429V19.4376V19.4323V19.4269V19.4216V19.4161V19.4108V19.4055V19.4001V19.3948V19.3895V19.3841V19.3788V19.3735V19.3681V19.3628V19.3575V19.3521V19.3468V19.3415V19.3361V19.3308V19.3255V19.3201V19.3148V19.3095V19.3041V19.2988V19.2936V19.2883V19.2829V19.2776V19.2723V19.2669V19.2616V19.2564V19.2511V19.2457V19.2404V19.2352V19.2299V19.2245V19.2192V19.214V19.2087V19.2033V19.198V19.1928V19.1875V19.1821V19.1769V19.1716V19.1664V19.1611V19.1557V19.1505V19.1452V19.14V19.1347V19.1293V19.1241V19.1188V19.1136V19.1083V19.1031V19.0977V19.0925V19.0872V19.082V19.0768V19.0715V19.0663V19.0609V19.0557V19.0504V19.0452V19.04V19.0347V19.0295V19.0243V19.0189V19.0137V19.0085V19.0032V18.998V18.9928V18.9876V18.9823V18.9771V18.9719V18.9667V18.9615V18.9561V18.9509V18.9457V18.9405V18.9353V18.9301V18.9248V18.9196V18.9144V18.9092V18.904V18.8988V18.8936V18.8884V18.8832V18.878V18.8728V18.8676V18.8624V18.8572V18.852V18.8468V18.8416V18.8364V18.8312V18.826V18.8208V18.8156V18.8105V18.8053V18.8001V18.7949V18.7897V18.7845V18.7795V18.7743V18.7691V18.7639V18.7587V18.7536V18.7484V18.7432V18.7381V18.7329V18.7277V18.7227V18.7175V18.7123V18.7072V18.702V18.6968V18.6917V18.6865V18.6815V18.6763V18.6711V18.666V18.6608V18.6557V18.6505V18.6455V18.6403V18.6352V18.63V18.6249V18.6199V18.6147V18.6096V18.6044V18.5993V18.5943V18.5891V18.584V18.5789V18.5737V18.5687V18.5636V18.5584V18.5533V18.5483V18.5431V18.538V18.5329V18.5279V18.5228V18.5176V18.5125V18.5075V18.5024V18.4973V18.4923V18.4872V18.482V18.4769V18.4719V18.4668V18.4617V18.4567V18.4516V18.4465V18.4415V18.4364V18.4313V18.4263V18.4212V18.4161V18.4111V18.406V18.4009V18.396V18.3909V18.3859V18.3808V18.3757V18.3707V18.3656V18.3607V18.3556V18.3505V18.3455V18.3405V18.3355V18.3304V18.3253V18.3204V18.3153V18.3103V18.3053V18.3003V18.2952V18.2903V18.2852V18.2803V18.2752V18.2701V18.2652V18.2601V18.2552V18.2501V18.2452V18.2401V18.2352V18.2301V18.2252V18.2201V18.2152V18.2103V18.2052V18.2003V18.1952V18.1903V18.1853V18.1803V18.1753V18.1704V18.1653V18.1604V18.1555V18.1505V18.1455V18.1405V18.1356V18.1307V18.1257V18.1207V18.1157V18.1108V18.1059V18.1009V18.096V18.0911V18.086V18.0811V18.0761V18.0712V18.0663V18.0613V18.0564V18.0515V18.0465V18.0416V18.0367V18.0317V18.0269V18.022V18.0171V18.0121V18.0072V18.0023V17.9973V17.9924V17.9876V17.9827V17.9777V17.9728V17.968V17.9631V17.9581V17.9532V17.9484V17.9435V17.9385V17.9337V17.9288V17.9239V17.9191V17.9141V17.9093V17.9044V17.8995V17.8947V17.8897V17.8849V17.88V17.8752V17.8703V17.8655V17.8605V17.8557V17.8509V17.846V17.8412V17.8363V17.8315V17.8267V17.8217V17.8169V17.8121V17.8072V17.8024V17.7976V17.7928V17.7879V17.7831V17.7783V17.7735V17.7685V17.7637V17.7589V17.7541V17.7493V17.7445V17.7397V17.7349V17.7301V17.7253V17.7204V17.7156V17.7108V17.706V17.7012V17.6964V17.6917V17.6869V17.6821V17.6773V17.6725V17.6677V17.6629V17.6581M21 20.3212H19.6667V20.3156V20.3101V20.3045V20.2989V20.2935V20.2879V20.2824V20.2768V20.2713V20.2657V20.2603V20.2547V20.2492V20.2436V20.2381V20.2325V20.2271V20.2215V20.216V20.2104V20.2049V20.1993V20.1939V20.1884V20.1828V20.1773V20.1717V20.1663V20.1608V20.1552V20.1497V20.1443V20.1387V20.1332V20.1277V20.1221V20.1167V20.1112V20.1056V20.1001V20.0947V20.0892V20.0836V20.0781V20.0727V20.0672V20.0616V20.0561V20.0507V20.0452V20.0397V20.0341V20.0287V20.0232V20.0177V20.0123V20.0068V20.0012V19.9957V19.9903V19.9848V19.9793V19.9739V19.9684V19.9629V19.9575V19.952V19.9465V19.9411V19.9356V19.9301V19.9247V19.9192V19.9137V19.9083V19.9028V19.8973V19.8919V19.8864V19.8809V19.8755V19.87V19.8645V19.8591V19.8536V19.8481V19.8428V19.8373V19.8319V19.8264V19.8209V19.8155V19.8101V19.8047V19.7992V19.7937V19.7883V19.7829V19.7775V19.772V19.7665V19.7612V19.7557V19.7503V19.7448V19.7395V19.734V19.7285V19.7232V19.7177V19.7123V19.7069V19.7015V19.6961V19.6907V19.6852V19.6799V19.6744V19.6691V19.6636V19.6581V19.6528V19.6473V19.642V19.6365V19.6312V19.6257V19.6204V19.6149V19.6096V19.6041V19.5988V19.5935V19.588V19.5827V19.5772V19.5719V19.5664V19.5611V19.5557V19.5503V19.5449V19.5396V19.5341V19.5288V19.5235V19.518V19.5127V19.5073V19.5019V19.4965V19.4912V19.4859V19.4804V19.4751V19.4697V19.4644V19.4591V19.4536V19.4483V19.4429V19.4376V19.4323V19.4269V19.4216V19.4161V19.4108V19.4055V19.4001V19.3948V19.3895V19.3841V19.3788V19.3735V19.3681V19.3628V19.3575V19.3521V19.3468V19.3415V19.3361V19.3308V19.3255V19.3201V19.3148V19.3095V19.3041V19.2988V19.2936V19.2883V19.2829V19.2776V19.2723V19.2669V19.2616V19.2564V19.2511V19.2457V19.2404V19.2352V19.2299V19.2245V19.2192V19.214V19.2087V19.2033V19.198V19.1928V19.1875V19.1821V19.1769V19.1716V19.1664V19.1611V19.1557V19.1505V19.1452V19.14V19.1347V19.1293V19.1241V19.1188V19.1136V19.1083V19.1031V19.0977V19.0925V19.0872V19.082V19.0768V19.0715V19.0663V19.0609V19.0557V19.0504V19.0452V19.04V19.0347V19.0295V19.0243V19.0189V19.0137V19.0085V19.0032V18.998V18.9928V18.9876V18.9823V18.9771V18.9719V18.9667V18.9615V18.9561V18.9509V18.9457V18.9405V18.9353V18.9301V18.9248V18.9196V18.9144V18.9092V18.904V18.8988V18.8936V18.8884V18.8832V18.878V18.8728V18.8676V18.8624V18.8572V18.852V18.8468V18.8416V18.8364V18.8312V18.826V18.8208V18.8156V18.8105V18.8053V18.8001V18.7949V18.7897V18.7845V18.7795V18.7743V18.7691V18.7639V18.7587V18.7536V18.7484V18.7432V18.7381V18.7329V18.7277V18.7227V18.7175V18.7123V18.7072V18.702V18.6968V18.6917V18.6865V18.6815V18.6763V18.6711V18.666V18.6608V18.6557V18.6505V18.6455V18.6403V18.6352V18.63V18.6249V18.6199V18.6147V18.6096V18.6044V18.5993V18.5943V18.5891V18.584V18.5789V18.5737V18.5687V18.5636V18.5584V18.5533V18.5483V18.5431V18.538V18.5329V18.5279V18.5228V18.5176V18.5125V18.5075V18.5024V18.4973V18.4923V18.4872V18.482V18.4769V18.4719V18.4668V18.4617V18.4567V18.4516V18.4465V18.4415V18.4364V18.4313V18.4263V18.4212V18.4161V18.4111V18.406V18.4009V18.396V18.3909V18.3859V18.3808V18.3757V18.3707V18.3656V18.3607V18.3556V18.3505V18.3455V18.3405V18.3355V18.3304V18.3253V18.3204V18.3153V18.3103V18.3053V18.3003V18.2952V18.2903V18.2852V18.2803V18.2752V18.2701V18.2652V18.2601V18.2552V18.2501V18.2452V18.2401V18.2352V18.2301V18.2252V18.2201V18.2152V18.2103V18.2052V18.2003V18.1952V18.1903V18.1853V18.1803V18.1753V18.1704V18.1653V18.1604V18.1555V18.1505V18.1455V18.1405V18.1356V18.1307V18.1257V18.1207V18.1157V18.1108V18.1059V18.1009V18.096V18.0911V18.086V18.0811V18.0761V18.0712V18.0663V18.0613V18.0564V18.0515V18.0465V18.0416V18.0367V18.0317V18.0269V18.022V18.0171V18.0121V18.0072V18.0023V17.9973V17.9924V17.9876V17.9827V17.9777V17.9728V17.968V17.9631V17.9581V17.9532V17.9484V17.9435V17.9385V17.9337V17.9288V17.9239V17.9191V17.9141V17.9093V17.9044V17.8995V17.8947V17.8897V17.8849V17.88V17.8752V17.8703V17.8655V17.8605V17.8557V17.8509V17.846V17.8412V17.8363V17.8315V17.8267V17.8217V17.8169V17.8121V17.8072V17.8024V17.7976V17.7928V17.7879V17.7831V17.7783V17.7735V17.7685V17.7637V17.7589V17.7541V17.7493V17.7445V17.7397V17.7349V17.7301V17.7253V17.7204V17.7156V17.7108V17.706V17.7012V17.6964V17.6917V17.6869V17.6821V17.6773V17.6725V17.6677V17.6629V17.6581M1.66667 21V20.3333H1M1.66667 21H1V20.3333M1.66667 21H5V19.6667H1.66667V21ZM1 20.3333H2.33333V18.3333M1 20.3333V18.3333M10.3333 5.66405C10.3333 7.50335 11.8251 8.99479 13.6667 8.99479M10.3333 5.66405H9M10.3333 5.66405C10.3333 3.82476 11.8251 2.33333 13.6667 2.33333M13.6667 8.99479V10.3281M13.6667 8.99479C15.5082 8.99479 17 7.50335 17 5.66405M13.6667 10.3281C11.0896 10.3281 9 8.24055 9 5.66405M13.6667 10.3281C16.2438 10.3281 18.3333 8.24055 18.3333 5.66405M9 5.66405C9 3.08756 11.0896 1 13.6667 1M17 5.66405H18.3333M17 5.66405C17 3.82476 15.5082 2.33333 13.6667 2.33333M18.3333 5.66405C18.3333 3.08756 16.2438 1 13.6667 1M13.6667 2.33333V1M19.6667 17.6581H21M19.6667 17.6581C19.6667 15.8173 18.1744 14.3255 16.3333 14.3255M21 17.6581C21 15.0807 18.9105 12.9922 16.3333 12.9922M16.3333 14.3255H11M16.3333 14.3255V12.9922M11 14.3255V12.9922M11 14.3255C9.15891 14.3255 7.66667 15.8173 7.66667 17.6581M11 12.9922H16.3333M11 12.9922C8.42281 12.9922 6.33333 15.0807 6.33333 17.6581M7.66667 17.6581H6.33333M2.33333 18.3333H1M2.33333 18.3333C2.33333 16.8605 3.5272 15.6667 5 15.6667V14.3333C2.7908 14.3333 1 16.1241 1 18.3333M5.66667 11.6667C6.7712 11.6667 7.66667 10.7712 7.66667 9.66667M5.66667 11.6667V13M5.66667 11.6667C4.56213 11.6667 3.66667 10.7712 3.66667 9.66667M7.66667 9.66667H9M7.66667 9.66667C7.66667 8.56209 6.7712 7.66667 5.66667 7.66667M9 9.66667C9 11.5076 7.5076 13 5.66667 13M9 9.66667C9 7.82572 7.5076 6.33333 5.66667 6.33333M5.66667 13C3.82573 13 2.33333 11.5076 2.33333 9.66667M3.66667 9.66667H2.33333M3.66667 9.66667C3.66667 8.56209 4.56213 7.66667 5.66667 7.66667M2.33333 9.66667C2.33333 7.82572 3.82573 6.33333 5.66667 6.33333M5.66667 7.66667V6.33333" stroke="#0053F5" stroke-width="0.4"/>
</svg>
