<svg width="260" height="186" viewBox="0 0 260 186" fill="none" xmlns="http://www.w3.org/2000/svg">
<path d="M198.159 0.442531C197.834 0.423679 197.669 0.828408 197.916 1.04255L204.531 6.78535V6.788L210.03 11.5629H210.033L213.705 14.7542C214.056 15.059 214.57 15.0823 214.947 14.8104L232.131 2.41374L198.159 0.442531Z" fill="white"/>
<path fill-rule="evenodd" clip-rule="evenodd" d="M232.154 1.97226L198.179 0.00075335C197.351 -0.0307649 197.136 0.934811 197.62 1.37283L204.222 7.10443L209.738 11.8961L213.415 15.0888C213.904 15.5036 214.649 15.5431 215.178 15.1863C219.04 12.4658 222.861 9.68734 226.683 6.90884C228.582 5.52733 230.482 4.14581 232.387 2.77141C232.842 2.37876 232.154 1.97226 232.154 1.97226ZM210.321 11.2292L204.818 6.45143L198.424 0.900398L230.862 2.78265L214.689 14.4506C214.487 14.5928 214.204 14.5861 214.012 14.4361C213.169 13.7502 212.357 13.0286 211.544 12.3071C211.137 11.9463 210.731 11.5856 210.321 11.2292Z" fill="#DCD6E3"/>
<path d="M204.531 6.78906V13.5911C204.531 13.7472 204.691 13.8521 204.834 13.7908L210.031 11.5639L204.531 6.78906Z" fill="white"/>
<path fill-rule="evenodd" clip-rule="evenodd" d="M204.568 6.34914L204.567 6.34911C204.374 6.34056 204.194 6.44808 204.122 6.61981C204.121 6.62343 204.119 6.62687 204.118 6.63019C204.102 6.66852 204.092 6.69108 204.088 6.78948C204.088 7.54588 204.084 8.30228 204.079 9.05867C204.07 10.5769 204.061 12.095 204.089 13.613C204.108 14.0463 204.59 14.3536 204.987 14.2054C206.155 13.7269 207.312 13.2238 208.47 12.7207C209.047 12.4696 209.625 12.2185 210.204 11.9705C210.471 11.8433 210.534 11.5829 210.424 11.3655C210.423 11.3624 210.421 11.3594 210.42 11.3565C210.401 11.3192 210.391 11.2979 210.319 11.2306L204.82 6.45574C204.709 6.36716 204.658 6.36061 204.568 6.34914ZM209.208 11.4352L204.972 13.25V7.75759L209.208 11.4352Z" fill="#DCD6E3"/>
<path d="M204.531 6.78929V6.78635L232.131 2.41504" fill="white"/>
<path d="M232.199 1.97869C232.613 2.07825 232.688 2.73425 232.199 2.85178L204.599 7.22603C204.599 7.22603 204.122 7.22043 204.088 6.78949C204.088 6.78949 204.11 6.43454 204.461 6.35L232.061 1.97869C232.061 1.97869 232.124 1.9728 232.199 1.97869Z" fill="#DCD6E3"/>
<path fill-rule="evenodd" clip-rule="evenodd" d="M192.787 18.2937C192.787 18.2937 192.852 18.107 192.541 17.869C192.43 17.8392 192.315 17.8186 192.204 17.8472C192.195 17.8494 191.909 17.9479 191.774 17.9944C191.733 18.0083 191.706 18.0176 191.704 18.0183C190.549 18.4183 189.404 18.8384 188.267 19.284C187.937 19.4952 187.986 19.6867 187.986 19.6867C188.055 20.0726 188.251 20.1003 188.251 20.1003C188.627 20.1824 188.637 20.0882 188.637 20.0882C189.278 19.8384 189.921 19.5951 190.567 19.3597C191.504 19.0183 192.638 18.5971 192.638 18.5971L192.787 18.2937ZM184.739 20.8989L184.986 21.1302C185.075 21.5119 184.906 21.6144 184.906 21.6144C184.906 21.6144 183.609 22.2395 182.557 22.7618C182.05 23.013 181.548 23.2716 181.048 23.5362C181.048 23.5362 180.964 23.5954 180.71 23.57L180.448 23.355C180.448 23.355 180.312 23.2119 180.497 22.8666L180.63 22.7573C181.835 22.1152 183.063 21.5196 184.305 20.9534C184.305 20.9534 184.519 20.8627 184.739 20.8989ZM177.669 25.168C177.669 25.168 177.688 24.9709 177.328 24.8145C177.17 24.8116 177.025 24.8546 176.898 24.937C175.715 25.7 174.633 26.4673 173.568 27.3351L173.408 27.6329L173.505 27.9566L173.803 28.1171L174.135 28.0129C174.563 27.6682 174.997 27.3327 175.44 27.0084C175.712 26.8098 175.998 26.63 176.282 26.4514L176.282 26.4514L176.282 26.4514L176.282 26.4514L176.282 26.4514C176.752 26.1564 177.216 25.865 177.597 25.4982L177.669 25.168ZM170.965 30.1239L171.217 30.3492L171.236 30.6868C171.085 30.9423 170.97 31.0625 170.865 31.1714L170.865 31.1714L170.865 31.1714L170.865 31.1714C170.825 31.2136 170.786 31.2541 170.747 31.3001C170.026 32.1661 169.377 33.0934 168.845 34.086L168.552 34.3644L168.215 34.3326L167.999 34.0719C167.966 33.7482 168.184 33.4063 168.4 33.0668C168.441 33.0031 168.481 32.9396 168.52 32.8763C169.091 31.9428 169.759 31.0706 170.485 30.2514L170.794 30.1L170.965 30.1239ZM167.577 38.0008C167.639 37.8375 167.656 37.7919 167.333 37.4999L167.171 37.4422L166.843 37.5249L166.652 37.9382C166.466 39.3291 166.528 40.7492 166.823 42.1186C166.823 42.1186 166.812 42.316 167.176 42.46C167.176 42.46 167.354 42.5466 167.626 42.265L167.683 41.9113C167.437 40.738 167.365 39.528 167.493 38.337C167.511 38.1762 167.549 38.076 167.577 38.0008ZM168.838 45.4949C169.011 45.586 169.058 45.6434 169.319 46.0988C169.918 47.1301 170.635 48.0906 171.438 48.9793C171.438 48.9793 171.648 49.0279 171.534 49.4892L171.284 49.7172L170.947 49.7019L170.808 49.5997C169.862 48.5643 169.032 47.4214 168.356 46.1892C168.356 46.1892 168.251 46.1913 168.289 45.7922C168.289 45.7922 168.313 45.4457 168.838 45.4949ZM175.483 52.4246C175.116 52.1455 174.752 51.868 174.339 51.6666C174.148 51.6551 174.004 51.7123 174.004 51.7123C174.004 51.7123 173.813 51.7627 173.789 52.1538L173.98 52.4619C175.098 53.3035 176.275 54.0664 177.486 54.769L177.649 54.8246C178.26 54.786 178.146 54.4452 178.146 54.4452C178.121 54.0541 177.93 54.0046 177.93 54.0046C177.328 53.6558 176.735 53.2932 176.154 52.9117C175.922 52.7595 175.702 52.5918 175.483 52.4247L175.483 52.4246ZM181.594 55.9167C181.764 55.9977 181.935 56.0775 182.106 56.1567C183.192 56.6584 184.286 57.1311 185.391 57.5827C185.391 57.5827 185.587 57.6057 185.665 57.9898L185.537 58.3026C185.537 58.3026 185.441 58.4752 185.056 58.4007C183.776 57.8773 182.503 57.3232 181.249 56.7314C181.249 56.7314 181.032 56.7674 180.963 56.2937C180.963 56.2937 180.879 55.7367 181.594 55.9167ZM189.957 59.3319C189.727 59.2486 189.497 59.1652 189.268 59.081C188.747 58.9991 188.701 59.3431 188.701 59.3431L188.714 59.6813C188.97 60.0324 189.076 59.9517 189.076 59.9517C190.348 60.4159 191.626 60.8645 192.907 61.3014L193.244 61.2796C193.555 61.0413 193.49 60.8548 193.49 60.8548L193.341 60.5511L192.935 60.3773C191.94 60.0365 190.948 59.6892 189.957 59.3319ZM197.144 61.7726C198.438 62.1918 199.733 62.603 201.027 63.0113C201.027 63.0113 201.109 62.9273 201.374 63.256L201.403 63.593L201.186 63.8519L200.849 63.8817C199.592 63.4861 198.337 63.0864 197.084 62.6819L196.721 62.5294L196.568 62.228C196.568 62.228 196.5 62.0424 196.807 61.7994C196.807 61.7994 196.954 61.7502 197.144 61.7726ZM206.727 64.792C206.183 64.6226 205.639 64.4532 205.094 64.2837C204.904 64.2637 204.758 64.3143 204.758 64.3143L204.541 64.5741L204.572 64.9108L204.956 65.1659L205.851 65.4445C206.839 65.7518 207.827 66.0591 208.814 66.3674L209.151 66.3368C209.151 66.3368 209.344 66.2956 209.386 65.9058C209.386 65.9058 209.421 65.7111 209.077 65.5238L208.854 65.454C208.147 65.2336 207.439 65.0135 206.732 64.7935L206.727 64.792ZM213.06 66.7741C214.335 67.177 215.609 67.5838 216.882 67.9939C216.882 67.9939 217.189 67.8934 217.341 68.4286L217.237 68.7506L216.936 68.9046L216.764 68.8846C216.191 68.6996 215.618 68.5155 215.045 68.332C214.401 68.1264 213.756 67.9217 213.112 67.7176L212.642 67.5338L212.486 67.2336C212.529 66.8442 212.723 66.8035 212.723 66.8035C212.723 66.8035 212.87 66.7532 213.06 66.7741ZM224.566 70.5429C223.38 70.1379 222.192 69.7376 221.003 69.3423C220.48 69.2769 220.444 69.6221 220.444 69.6221C220.395 70.0109 220.574 70.0957 220.574 70.0957L221.005 70.2743C222.231 70.6828 223.454 71.0958 224.672 71.5135C224.672 71.5135 224.835 71.6254 225.147 71.3877L225.257 71.0678C225.257 71.0678 225.298 70.8743 224.959 70.6775L224.566 70.5429ZM228.903 72.0547C230.142 72.4962 231.378 72.9451 232.612 73.4002L232.828 73.4803C233.162 73.6856 233.116 73.878 233.116 73.878C233.054 74.2651 232.859 74.2963 232.859 74.2963C232.693 74.336 232.69 74.336 232.521 74.3089C231.31 73.8606 230.099 73.4211 228.886 72.9869L228.458 72.7987C228.458 72.7987 228.281 72.7104 228.338 72.3224C228.338 72.3224 228.381 71.9781 228.903 72.0547ZM240.528 76.4571C239.267 75.9501 238.003 75.4505 236.735 74.9607L236.634 74.943L236.565 74.9309L236.256 75.0679C236.046 75.399 236.172 75.5516 236.172 75.5516L236.416 75.7849C237.532 76.2158 238.644 76.6544 239.753 77.0977C239.932 77.1696 240.111 77.2415 240.29 77.3136C240.29 77.3136 240.447 77.4344 240.771 77.2138C240.771 77.2138 240.942 77.1151 240.862 76.7313L240.528 76.4571ZM244.484 78.0861C244.748 78.1977 244.815 78.2391 244.883 78.2809C244.897 78.2893 244.911 78.2977 244.926 78.3066C244.938 78.314 244.952 78.3218 244.968 78.3302C246.022 78.9052 247.048 79.5415 248.051 80.2087L248.323 80.5471L248.257 80.8785L248.19 80.9449C248.009 81.1262 247.929 81.2064 247.852 81.2042C247.79 81.2024 247.73 81.1488 247.622 81.0525C247.5 80.9442 247.318 80.7819 247.005 80.5789C246.107 80.0004 245.194 79.4431 244.248 78.9482L243.903 78.6599L243.905 78.3217C243.905 78.3217 243.967 77.98 244.484 78.0861ZM252.216 83.3577C251.946 83.1098 251.678 82.8634 251.367 82.6955C250.842 82.6419 250.814 82.9881 250.814 82.9881C250.775 83.3781 250.956 83.4585 250.956 83.4585C250.956 83.4585 251.752 84.1198 252.379 84.693C253.227 85.4689 254.282 86.3938 254.282 86.3938L254.598 86.273L254.735 85.9643L254.614 85.6482C253.929 84.9254 253.208 84.237 252.461 83.5792C252.378 83.5067 252.297 83.4323 252.216 83.3579L252.216 83.3577ZM256.996 88.762C257.297 88.8869 257.501 89.2475 257.707 89.611C257.749 89.6865 257.792 89.7621 257.836 89.8357C258.386 90.7618 258.855 91.7365 259.218 92.7489C259.218 92.7489 259.266 92.8391 259.202 93.0906C259.202 93.0906 259.168 93.2853 258.78 93.3413L258.475 93.1955C258.475 93.1955 257.653 91.1076 256.542 89.4401L256.477 89.1084L256.665 88.8274C256.665 88.8274 256.806 88.7617 256.996 88.762ZM259.996 96.981C259.996 96.981 260.048 96.7901 259.72 96.5754L259.716 96.5747C259.661 96.5643 259.605 96.5539 259.55 96.5433L259.239 96.6755L259.113 97.102C259.113 97.6599 259.073 98.2167 258.992 98.7678C258.836 99.8276 258.436 101.106 258.436 101.106C258.535 101.485 258.732 101.497 258.732 101.497L259.07 101.477C259.302 101.302 259.301 101.206 259.301 101.206C259.764 99.8456 260.01 98.4176 259.996 96.981ZM257.073 104.348L257.352 104.539L257.414 104.872C257.268 105.215 257.018 105.528 256.766 105.843L256.766 105.843L256.688 105.942L256.655 105.983C256.636 106.008 256.616 106.033 256.597 106.057C256.005 106.82 255.362 107.54 254.686 108.229C254.686 108.229 254.721 108.337 254.315 108.421C254.315 108.421 254.125 108.475 253.905 108.151C253.905 108.151 253.713 107.985 254.514 107.133C255.261 106.333 255.958 105.486 256.58 104.585L256.9 104.347L257.073 104.348ZM251.577 110.96C251.577 110.96 251.853 110.739 251.408 110.358L251.245 110.305L250.919 110.396C250.437 110.775 249.947 111.143 249.45 111.501C248.452 112.22 247.367 113.078 247.367 113.078C247.363 113.469 247.55 113.533 247.55 113.533C247.987 113.719 248.076 113.516 248.076 113.516C248.885 112.985 249.681 112.435 250.458 111.859C250.512 111.819 250.567 111.78 250.622 111.74C250.661 111.713 250.701 111.685 250.74 111.657C251.045 111.441 251.349 111.226 251.577 110.96ZM244.352 114.904L244.618 115.112L244.659 115.448L244.45 115.714C243.244 116.394 242.02 117.039 240.782 117.659C240.782 117.659 240.67 117.851 240.258 117.615L240.107 117.312L240.214 116.992C240.214 116.992 242.307 115.908 244.017 114.944C244.017 114.944 244.162 114.889 244.352 114.904ZM237.18 118.884L236.934 118.652C236.731 118.618 236.552 118.682 236.552 118.682C235.548 119.132 234.537 119.568 233.521 119.993C233.125 120.157 232.633 120.396 232.633 120.396C232.633 120.396 232.46 120.492 232.535 120.877L232.773 121.117L233.152 121.102C234.429 120.576 235.7 120.034 236.958 119.468C237.098 119.369 237.099 119.367 237.19 119.222L237.18 118.884ZM229.245 121.835C229.72 122.175 229.465 122.42 229.465 122.42C229.366 122.559 229.364 122.561 229.219 122.651C227.957 123.127 226.685 123.59 225.41 124.04C225.41 124.04 225.365 124.169 224.952 124.063L224.726 123.811L224.745 123.474L224.997 123.248C226.304 122.789 227.608 122.314 228.907 121.825C228.907 121.825 229.059 121.792 229.245 121.835ZM221.613 124.866L221.393 124.61C221.2 124.556 221.03 124.593 221.03 124.593C219.078 125.232 216.936 125.928 216.936 125.928L216.778 126.227C216.819 126.617 217.012 126.659 217.012 126.659C217.364 126.764 217.392 126.678 217.392 126.678C218.708 126.27 220.022 125.854 221.331 125.424L221.588 125.204L221.613 124.866ZM213.434 127.078L213.646 127.342L213.609 127.678C213.499 127.809 213.497 127.81 213.345 127.89C212.114 128.248 210.881 128.597 209.647 128.94L209.383 129.013C209.109 129.088 208.99 128.987 208.99 128.987L208.783 128.72C208.74 128.137 209.091 128.176 209.091 128.176C209.441 128.08 209.79 127.983 210.14 127.885L210.193 127.87C211.044 127.632 211.895 127.389 212.746 127.143L213.27 127.026C213.325 127.043 213.379 127.06 213.434 127.078L213.434 127.078ZM205.608 129.575L205.404 129.306C205.349 129.287 205.295 129.268 205.241 129.249L204.832 129.322C203.991 129.541 203.149 129.758 202.306 129.972C201.882 130.08 201.457 130.187 201.032 130.293C200.678 130.46 200.702 130.656 200.702 130.656C200.716 130.926 200.809 131.009 200.891 131.082L200.912 131.1L201.376 131.118C202.231 130.904 203.085 130.687 203.939 130.466C204.576 130.302 205.447 130.039 205.447 130.039C205.447 130.039 205.631 129.966 205.608 129.575ZM197.306 131.401C197.489 131.541 197.578 131.729 197.508 131.992C197.508 131.992 197.093 132.267 196.552 132.465C195.493 132.855 194.45 133.288 193.419 133.748C193.419 133.748 193.266 133.874 192.935 133.665L192.797 133.357L192.918 133.041L193.058 132.941C194.328 132.374 195.615 131.846 196.929 131.393C196.929 131.393 197.109 131.349 197.306 131.401ZM189.881 134.963L189.621 134.747C189.215 134.704 189.046 134.903 189.046 134.903C187.889 135.519 186.749 136.163 185.629 136.838L185.501 136.954C185.334 137.309 185.478 137.445 185.478 137.445C185.889 137.897 186.084 137.595 186.084 137.595C187.141 136.959 188.215 136.35 189.303 135.767C189.434 135.698 189.564 135.629 189.695 135.56L189.911 135.3L189.881 134.963ZM182.59 139.107C183.164 139.664 182.899 139.794 182.455 140.012C182.297 140.089 182.118 140.177 181.945 140.299C181.034 140.944 180.14 141.608 179.265 142.297C179.265 142.297 178.806 142.54 178.567 142.07C178.567 142.07 178.53 141.749 178.974 141.403C179.248 141.19 179.516 140.965 179.784 140.74C180.553 140.095 181.326 139.448 182.258 139.046C182.258 139.046 182.413 139.036 182.59 139.107ZM176.223 144.493L175.996 144.243C175.557 144.133 175.499 144.324 175.499 144.324C174.467 145.264 173.466 146.241 172.506 147.257C172.506 147.257 172.337 147.359 172.424 147.741L172.67 147.973C172.67 147.973 172.829 148.09 173.149 147.864C173.149 147.864 173.844 147.134 174.348 146.634C175.173 145.816 176.206 144.831 176.206 144.831L176.223 144.493ZM170.216 150.286L170.481 150.496C170.587 150.824 170.327 151.148 170.039 151.507L170.039 151.507C169.981 151.58 169.921 151.654 169.863 151.731C169.239 152.555 168.642 153.4 168.075 154.266C168.075 154.266 168.101 154.523 167.579 154.53C167.579 154.53 167.382 154.548 167.227 154.188C167.227 154.188 167.587 153.391 168.017 152.769C168.547 152.005 169.102 151.258 169.677 150.527C169.677 150.527 169.631 150.239 170.216 150.286ZM165.775 157.311L165.994 157.569C166.028 157.863 165.894 158.102 165.756 158.35C165.713 158.426 165.669 158.504 165.63 158.584C165.148 159.585 164.708 160.605 164.316 161.643C164.316 161.643 164.338 161.731 164.074 161.921C164.074 161.921 163.83 162.177 163.488 161.702C163.488 161.702 163.668 160.845 163.957 160.151C164.327 159.261 164.733 158.386 165.168 157.527L165.437 157.284C165.437 157.284 165.591 157.259 165.775 157.311Z" fill="#DCD6E3"/>
<path fill-rule="evenodd" clip-rule="evenodd" d="M7.8366 46.1492C6.72934 45.3536 5.59999 44.5886 4.44412 43.8663C4.26533 43.7986 4.11039 43.8104 4.11039 43.8104L3.83526 44.0068L3.7793 44.3403L3.97577 44.6157C3.97577 44.6157 4.76284 45.1117 5.31544 45.4785C6.35967 46.1716 7.52731 46.9745 7.52731 46.9745L7.86135 46.9206C8.14825 46.6538 8.06548 46.4744 8.06548 46.4744C7.92762 46.1035 7.8366 46.1492 7.8366 46.1492ZM11.0277 48.6293C11.0277 48.6293 12.1533 49.5018 13.0275 50.2562C13.4496 50.6206 13.8676 50.9897 14.2827 51.362C14.2827 51.362 14.3787 51.3261 14.4759 51.7102L14.3631 52.0292L14.0576 52.1744C14.0576 52.1744 12.8623 51.2683 11.8325 50.3979C11.2764 49.9275 10.5128 49.2626 10.5128 49.2626L10.4781 48.9263L10.6914 48.6638C10.6914 48.6638 10.8377 48.6114 11.0277 48.6293ZM19.0261 55.97C18.2285 55.1337 17.199 54.1578 17.199 54.1578C17.0116 54.1213 16.8608 54.159 16.8608 54.159L16.6225 54.3991C16.5126 54.9629 16.821 54.9803 16.821 54.9803C17.6181 55.7762 18.4014 56.5868 19.1672 57.4089C19.2995 57.5518 19.4318 57.6947 19.5631 57.8381L19.8698 57.981L20.1876 57.8652L20.3302 57.5586L20.2144 57.241C20.2144 57.241 19.5257 56.4937 19.0261 55.97ZM22.8082 60.254C23.9299 61.1624 24.9335 62.4016 25.5948 63.7616C25.5948 63.7616 25.6946 63.9325 25.4345 64.2256C25.4345 64.2256 25.3146 64.3832 24.9444 64.255C24.9444 64.255 24.0839 63.1734 23.319 62.2193C22.8385 61.6199 22.1805 60.776 22.1805 60.776L22.2114 60.4393C22.45 60.1447 22.5899 60.1874 22.7708 60.2427L22.8082 60.254ZM28.3992 67.6368C28.2231 67.3554 28.0482 67.0757 27.8167 66.8491C27.5255 66.7321 27.4983 66.7502 27.4242 66.7995C27.4 66.8156 27.3709 66.835 27.326 66.8542L27.141 67.1372L27.2102 67.4683C27.2102 67.4683 27.749 68.2613 28.1251 68.836C28.8347 69.9197 29.714 71.1097 29.714 71.1097L30.048 71.0567C30.418 70.7141 30.1114 70.315 30.1114 70.315C29.6139 69.5099 29.1054 68.7123 28.5823 67.9237C28.5196 67.8292 28.4594 67.7329 28.3992 67.6368L28.3992 67.6368ZM32.0085 73.8245C32.3131 73.9842 32.447 74.2807 32.5863 74.5889L32.5863 74.5889C32.631 74.6879 32.6762 74.788 32.7278 74.8853C33.0631 75.5165 33.3886 76.1525 33.7061 76.7928C33.8059 76.994 33.9049 77.1958 34.0033 77.3982C34.1379 77.6759 34.1803 78.0648 34.1803 78.0648C33.9809 78.402 33.7877 78.3593 33.7877 78.3593L33.4687 78.2474C33.4687 78.2474 33.251 77.8707 33.0913 77.544C32.5812 76.5048 32.0495 75.4764 31.4957 74.4599C31.4957 74.4599 31.3578 74.3179 31.5399 73.9709L31.8368 73.8089L31.9266 73.8171L32.0085 73.8245ZM35.8543 81.5151C35.7592 81.3725 35.7577 81.3711 35.6151 81.2759C35.0982 81.1731 35.0378 81.5151 35.0378 81.5151C34.9538 81.9384 35.0852 81.9673 35.0852 81.9673C35.7951 83.689 36.5945 85.8293 36.5945 85.8293C36.8111 85.9914 36.9346 85.9719 37.0435 85.9548L37.0703 85.9506L37.3218 85.7244L37.295 85.2602C36.8461 83.9977 36.3657 82.7485 35.8543 81.5151ZM38.3993 89.0685L38.6129 89.3306C39.0055 90.6409 39.379 91.9564 39.7328 93.2778L39.6969 93.6463L39.4285 93.8519L39.0933 93.8071C38.9646 93.694 38.9631 93.6922 38.8877 93.5385C38.5445 92.2495 38.1804 90.9711 37.7999 89.6962L37.8008 89.2479C37.812 89.2342 37.8229 89.2187 37.8345 89.2022C37.91 89.0946 38.0117 88.9497 38.3993 89.0685ZM40.7392 97.3274C40.6691 97.1709 40.6676 97.1692 40.543 97.0517C40.5049 97.0372 40.4727 97.0176 40.4423 96.9991C40.325 96.9277 40.2348 96.8727 39.9341 97.1916L39.8952 97.6013C40.3238 99.4803 40.7825 101.704 40.7825 101.704L41.0617 101.895C41.4535 101.899 41.5174 101.712 41.5174 101.712C41.6741 101.345 41.5745 101.315 41.5745 101.315C41.3218 99.9808 41.0434 98.6529 40.7392 97.3274ZM41.9344 105.104C42.2873 105.274 42.261 105.47 42.261 105.47C42.4448 106.78 42.5971 108.094 42.715 109.412L42.6284 109.913L42.3279 110.069L42.0057 109.966L41.8501 109.666C41.74 108.383 41.593 107.101 41.418 105.823L41.3959 105.421C41.5863 105.026 41.6891 105.051 41.8224 105.084L41.8225 105.084C41.857 105.092 41.8937 105.101 41.9344 105.104ZM42.6994 113.348L42.676 113.334C42.6358 113.327 42.6005 113.313 42.5671 113.301C42.4386 113.253 42.3395 113.215 42.1037 113.585L42.0781 113.972C42.1093 115.788 42.0351 118.014 42.0351 118.014L42.2604 118.266C42.6398 118.364 42.7464 118.197 42.7464 118.197C42.9008 117.992 42.8934 117.89 42.8934 117.89C42.968 116.507 42.9865 115.123 42.9574 113.736C42.8989 113.472 42.7929 113.406 42.6994 113.348ZM27.3446 119.871C27.7287 119.948 27.7522 120.144 27.7522 120.144C27.8282 120.529 27.6559 120.626 27.6559 120.626L27.3434 120.755C27.2509 120.754 27.1587 120.756 27.0662 120.757C25.8287 120.779 24.6016 120.916 23.3989 121.222C23.3989 121.222 23.3314 121.284 23.0372 121.183C23.0372 121.183 22.846 121.133 22.8224 120.741L22.993 120.449C22.993 120.449 23.7547 120.219 24.3241 120.12C25.32 119.947 26.3277 119.869 27.3446 119.871ZM31.9213 120.345C31.8125 120.324 31.7041 120.303 31.5962 120.282C31.4595 120.256 31.1947 120.337 31.1947 120.337C30.9193 120.616 31.0097 120.791 31.0097 120.791L31.1997 121.071C31.1997 121.071 31.658 121.188 32.1452 121.304C33.5506 121.65 35.6043 122.227 35.6043 122.227C35.9133 121.986 35.8461 121.8 35.8461 121.8L35.6941 121.498C34.5684 120.86 33.2222 120.598 31.9213 120.345ZM42.468 121.862L42.2668 121.59C42.0872 121.525 41.9325 121.54 41.9325 121.54C41.6878 121.655 41.6471 121.773 41.6113 121.877L41.6023 121.903C41.6023 121.903 41.4795 122.688 41.3811 123.219C41.3555 123.356 41.3295 123.492 41.3024 123.628C40.8585 123.431 40.4126 123.239 39.964 123.052C39.5719 122.889 39.105 122.842 39.105 122.842C38.781 123.063 38.8358 123.253 38.8358 123.253C38.9483 123.793 39.2202 123.702 39.2202 123.702C39.7539 123.92 40.2841 124.145 40.8111 124.377C40.8431 124.391 40.8794 124.391 40.9145 124.39C41.0398 124.389 41.1495 124.387 40.9884 125.054C40.954 125.194 40.9192 125.333 40.8833 125.473C40.8618 125.556 40.8403 125.639 40.8185 125.722L40.7743 125.886C40.7734 125.888 40.8164 126.223 40.8164 126.223L41.0836 126.43L41.4191 126.388C41.6126 126.219 41.627 126.118 41.627 126.118C41.7776 125.56 41.9558 124.9 41.9558 124.9C42.5143 125.165 43.1823 125.352 43.1823 125.352C43.5217 125.156 43.4813 124.963 43.4813 124.963C43.4181 124.48 43.1315 124.393 42.8263 124.3C42.7246 124.269 42.6208 124.238 42.5225 124.191C42.3911 124.128 42.2598 124.066 42.1281 124.005L42.1614 123.839C42.1929 123.68 42.2286 123.521 42.2642 123.363L42.2643 123.362L42.2643 123.362L42.2643 123.362L42.2644 123.362L42.2644 123.361L42.2645 123.361L42.2645 123.361L42.2646 123.361L42.2646 123.361L42.2647 123.36L42.2647 123.36L42.2648 123.36C42.3785 122.853 42.4913 122.35 42.468 121.862ZM46.8818 126.545C47.7826 127.095 48.6621 127.68 49.5169 128.298C49.7084 128.437 49.8984 128.577 50.0872 128.719L50.1052 128.733C50.2609 128.85 50.4154 128.966 50.4922 129.19L50.4053 129.517C50.4053 129.517 50.332 129.701 49.9408 129.676C49.9408 129.676 48.8875 128.915 47.9852 128.305C47.4809 127.964 46.9681 127.636 46.45 127.317C46.45 127.317 46.1224 127.107 46.2744 126.692C46.2744 126.692 46.3869 126.364 46.8818 126.545ZM15.8045 129.143C16.0619 129.389 15.9807 129.883 15.9008 130.37C15.8756 130.523 15.8506 130.675 15.8363 130.819C15.7859 131.324 15.7562 131.831 15.7438 132.338C15.7314 132.841 15.7547 133.592 15.7547 133.592C15.6816 134.173 15.3455 134.064 15.3455 134.064L15.0245 133.958C14.8182 133.692 14.8324 133.3 14.8474 132.884L14.8474 132.884C14.8507 132.794 14.854 132.702 14.8551 132.611C14.8678 131.549 14.9526 130.488 15.1314 129.442L15.3137 129.153C15.3585 129.134 15.3874 129.114 15.4114 129.098C15.4848 129.047 15.5118 129.029 15.8045 129.143ZM54.2728 132.411C53.9805 132.085 53.6901 131.76 53.3393 131.532C53.1517 131.497 53.0012 131.537 53.0012 131.537C52.6783 131.759 52.7337 131.948 52.7337 131.948C52.8165 132.337 52.9137 132.304 52.9137 132.304C53.3517 132.735 53.7788 133.176 54.1918 133.632C54.8958 134.408 55.7123 135.393 55.7123 135.393L56.0478 135.434C56.0478 135.434 56.7939 135.384 56.1282 134.547C56.0033 134.39 55.877 134.234 55.7491 134.079C55.3568 133.606 54.9497 133.144 54.5296 132.694C54.4428 132.601 54.3577 132.506 54.2728 132.411ZM35.411 136.263L35.6437 136.509L35.6349 136.847C34.8673 137.932 33.4596 138.748 32.1806 139.468L31.7982 139.532L31.5337 139.321L31.4957 138.985L31.5054 138.966C31.5841 138.813 31.5967 138.788 32.0268 138.538C33.0531 137.931 34.0098 137.205 34.8788 136.392L35.2428 136.225L35.411 136.263ZM17.528 137.583C17.3531 137.386 17.1809 137.193 16.9901 137.03C16.8087 136.971 16.6543 136.99 16.6543 136.99L16.3886 137.199C16.271 137.561 16.3695 137.656 16.4637 137.747C16.4839 137.766 16.5039 137.786 16.5215 137.807C17.2031 138.646 18.057 139.341 18.9949 139.88C19.5098 140.176 20.1634 140.322 20.1634 140.322L20.4121 140.093L20.4259 139.755L20.1967 139.506C19.4291 139.15 18.7065 138.701 18.0723 138.145C17.8748 137.972 17.7001 137.776 17.528 137.583ZM58.9521 138.789C58.8105 138.472 58.673 138.165 58.3436 138.001C57.8176 137.965 57.8013 138.312 57.8013 138.312C57.7796 138.63 57.8597 138.673 57.8597 138.673C58.44 139.697 58.956 140.755 59.4049 141.841C59.6689 142.488 59.9944 142.588 59.9944 142.588C60.5959 142.48 60.4445 142.154 60.4445 142.154C60.2862 141.271 59.8375 140.452 59.3945 139.644C59.2914 139.456 59.1887 139.268 59.0901 139.081C59.0399 138.985 58.9958 138.887 58.9521 138.789ZM61.4521 145.707L61.6483 145.983C61.959 147.332 62.1779 148.7 62.3119 150.076L62.2153 150.432L61.9163 150.59C61.3187 150.528 61.3257 150.459 61.3581 150.136C61.3733 149.985 61.3941 149.777 61.3608 149.488C61.2282 148.376 61.0382 147.271 60.7873 146.181C60.7873 146.181 60.6927 146.008 60.9614 145.722L61.291 145.646C61.3446 145.667 61.3982 145.687 61.4521 145.707ZM62.4204 154.112L62.1882 153.866L62.0203 153.828L61.7043 153.948L61.5658 154.256C61.5358 155.306 61.4598 156.353 61.3417 157.396C61.3303 157.493 61.314 157.587 61.2973 157.683C61.2575 157.911 61.2157 158.151 61.2342 158.486L61.4374 158.757C61.4374 158.757 61.5744 158.899 61.9276 158.73L62.1005 158.432C62.2342 157.465 62.3341 156.493 62.3941 155.519C62.4009 155.409 62.4099 155.3 62.419 155.191C62.4494 154.825 62.4795 154.461 62.4204 154.112ZM61.3403 162.608C61.4713 162.34 61.517 162.247 60.9832 161.994C60.4566 161.968 60.4471 162.314 60.4471 162.314C60.1582 163.465 59.8191 164.604 59.4064 165.716C59.2642 166.093 59.2232 166.519 59.2232 166.519L59.4615 166.759L59.7997 166.76L60.0636 166.463C60.5169 165.348 60.8681 164.191 61.1759 163.028C61.2237 162.847 61.2887 162.714 61.3403 162.608ZM28.3203 140.212L28.5159 140.488C28.5309 141.031 28.4898 141.034 28.1992 141.052H28.1991C28.0963 141.059 27.9624 141.067 27.7886 141.103C26.5326 141.357 25.2469 141.441 23.9661 141.35C23.9661 141.35 23.8683 141.365 23.6536 141.196L23.549 140.874C23.549 140.874 23.511 140.68 23.853 140.488C23.853 140.488 26.2596 140.549 27.9869 140.156C27.9869 140.156 28.1418 140.144 28.3203 140.212ZM40.2563 130.07C40.3083 130.023 40.5188 129.834 40.0207 129.489C39.8342 129.449 39.6825 129.484 39.6825 129.484L39.436 129.727C39.2109 130.241 38.9703 130.747 38.7105 131.244C38.5373 131.576 38.3328 131.896 38.1326 132.209C37.8686 132.622 37.612 133.024 37.4442 133.425L37.509 133.756C37.509 133.756 37.5702 133.945 37.962 133.946L38.2533 133.745C38.8012 132.925 39.2934 132.07 39.7306 131.188C39.8428 130.962 39.9515 130.733 40.0569 130.503C40.1105 130.386 40.163 130.269 40.2148 130.151C40.2221 130.134 40.2296 130.117 40.237 130.1L40.246 130.08C40.2468 130.078 40.2506 130.075 40.2562 130.07L40.2563 130.07ZM19.7695 122.147C20.0587 122.411 19.9777 122.592 19.9777 122.592L19.8027 122.881C19.7432 122.925 19.6849 122.97 19.6266 123.015C18.6545 123.775 17.848 124.746 17.2551 125.832C17.2551 125.832 17.2392 126.191 16.6556 126.009C16.6556 126.009 16.463 125.964 16.4279 125.574C16.4279 125.574 17.007 124.426 17.7452 123.581C18.2003 123.06 18.7129 122.591 19.2684 122.177L19.6074 122.089L19.7695 122.147Z" fill="#DCD6E3"/>
<path d="M251.014 184.503C251.619 184.58 251.648 184.881 251.682 185.143C251.735 185.562 251.469 185.951 250.951 185.973H237.071C236.483 185.948 236.49 185.764 236.388 185.511C236.207 185.059 236.494 184.524 237.071 184.5H250.951C250.972 184.501 250.993 184.502 251.014 184.503Z" fill="#3B1B6A"/>
<path d="M230.314 184.556C230.551 184.715 230.554 184.717 230.712 184.955L230.768 185.236L230.712 185.518L230.553 185.757L230.314 185.917L230.032 185.973H23.7208L23.4389 185.917C23.2018 185.758 23.1991 185.755 23.0403 185.518L22.9844 185.236L23.0403 184.955L23.2 184.716C23.4374 184.557 23.4409 184.556 23.7208 184.5H230.032C230.126 184.519 230.22 184.537 230.314 184.556Z" fill="#3B1B6A"/>
<path d="M17.9253 184.503C18.6817 184.612 18.7966 185.928 17.8552 185.973H0.731397C0.221214 185.949 0.114877 185.707 0.0353451 185.477C-0.115471 185.041 0.235059 184.524 0.731397 184.5H17.8552C17.8785 184.501 17.9017 184.502 17.9253 184.503Z" fill="#3B1B6A"/>
<path d="M246.854 9.38651C247.246 9.41574 247.415 10.0221 247.027 10.2242C246.231 10.5929 245.418 10.9251 244.614 11.2754C244.199 11.4445 243.745 10.7325 244.242 10.4736C245.11 10.0717 245.96 9.36126 246.854 9.38651Z" fill="black"/>
<path d="M239.784 4.58117C240.01 4.59901 240.193 4.7885 240.202 5.016C240.195 5.83715 240.149 6.65765 240.123 7.47847C240.1 7.89858 239.264 8.11048 239.24 7.47076C239.247 6.64961 239.292 5.8291 239.318 5.00829C239.332 4.76499 239.497 4.57194 239.784 4.58117Z" fill="black"/>
<path d="M243.692 6.18432C244.001 6.20802 244.209 6.58356 244.042 6.86127C243.547 7.60909 243.02 8.33506 242.508 9.07163C242.245 9.43365 241.481 9.06921 241.772 8.58425C242.267 7.83643 242.794 7.11029 243.305 6.37373C243.395 6.25161 243.533 6.17954 243.692 6.18432Z" fill="black"/>
<path d="M243.292 39.2144L247.798 55.3608C248.086 56.3956 247.946 57.4484 247.484 58.3309C246.985 59.2906 246.102 60.05 244.978 60.3637L217.819 67.9422C216.715 68.25 215.588 68.0709 214.672 67.5325C213.797 67.0199 213.11 66.1784 212.816 65.1224L208.31 48.9759C208.036 47.9915 208.149 46.9885 208.56 46.1322C209.047 45.1127 209.957 44.3003 211.13 43.9728L238.289 36.3942C239.487 36.0602 240.71 36.3003 241.664 36.9495C242.431 37.4697 243.024 38.2529 243.292 39.2144Z" fill="white"/>
<path fill-rule="evenodd" clip-rule="evenodd" d="M243.703 39.0476C243.139 37.1501 241.342 35.8316 239.413 35.8042C238.851 35.8039 238.581 35.8587 238.171 35.97C235.162 36.8097 232.151 37.6424 229.139 38.475C223.071 40.153 217.002 41.831 210.95 43.5662C208.64 44.2626 207.286 46.7999 207.87 49.0451C209.35 54.4715 210.86 59.8894 212.405 65.2973C213.109 67.6523 215.685 68.982 217.935 68.3699C220.951 67.5283 223.969 66.6933 226.986 65.8583C233.047 64.1812 239.108 62.504 245.154 60.7743C247.47 60.0788 248.819 57.5403 248.237 55.2975C246.758 49.8719 245.246 44.4552 243.703 39.0476ZM238.457 36.8078C238.736 36.7366 239.02 36.6962 239.307 36.6883C240.958 36.6662 242.399 37.7646 242.854 39.2945C244.395 44.6956 245.906 50.1056 247.383 55.5244C247.867 57.3892 246.698 59.3875 244.905 59.9263C235.838 62.5202 226.753 65.0552 217.653 67.5307C215.774 68.0156 213.787 66.8338 213.253 65.0493C211.71 59.6479 210.202 54.2368 208.724 48.8175C208.235 46.9381 209.411 44.9528 211.199 44.4137C220.267 41.8139 229.353 39.2783 238.457 36.8078Z" fill="#DCD6E3"/>
<path d="M247.484 58.3305C246.985 59.2902 246.102 60.0496 244.977 60.3633L217.818 67.9418C216.715 68.2496 215.588 68.0705 214.672 67.532L223.952 55.4423L223.951 55.4408L227.667 50.6006L247.484 58.3305Z" fill="white"/>
<path fill-rule="evenodd" clip-rule="evenodd" d="M227.829 50.1873L227.761 50.1667C227.514 50.1343 227.318 50.3299 227.318 50.3299L223.602 55.1701C221.736 57.9989 219.607 60.6403 217.478 63.2817C216.415 64.6005 215.353 65.9193 214.322 67.2614C214.118 67.5807 214.245 67.7951 214.497 67.9389C215.531 68.5294 216.788 68.6785 217.937 68.366C220.955 67.5237 223.975 66.688 226.995 65.8522C233.053 64.1758 239.112 62.4994 245.155 60.7704C246.27 60.4358 247.226 59.6834 247.796 58.6807C247.808 58.6598 247.822 58.6377 247.836 58.6146C247.957 58.4187 248.123 58.1512 247.646 57.9172L227.829 50.1873ZM215.349 67.3735L224.31 55.6974L227.816 51.1302L246.833 58.5482C246.362 59.2041 245.677 59.6902 244.906 59.9217C235.838 62.5156 226.754 65.0503 217.654 67.5261C216.892 67.7229 216.074 67.6719 215.349 67.3735Z" fill="#DCD6E3"/>
<path d="M241.664 36.9494L232.073 53.8479C230.776 56.1354 227.875 56.9449 225.58 55.6597L208.561 46.1324C209.047 45.1129 209.957 44.3005 211.131 43.9729L238.29 36.3944C239.487 36.0601 240.71 36.3002 241.664 36.9494Z" fill="white"/>
<path fill-rule="evenodd" clip-rule="evenodd" d="M241.967 36.6302C241.323 36.0213 240.327 35.8172 239.413 35.8042C238.851 35.8039 238.582 35.859 238.172 35.9703C235.161 36.8105 232.148 37.6439 229.135 38.4774C223.068 40.1554 217.001 41.8334 210.951 43.5665C209.971 43.8623 209.093 44.4894 208.513 45.3345C208.464 45.4056 208.412 45.4744 208.362 45.5413C208.094 45.8956 207.867 46.1969 208.344 46.5198L225.365 56.0477C227.826 57.4057 231.092 56.4392 232.456 54.0689L242.048 37.1692C242.174 36.8967 242.104 36.7592 241.967 36.6302ZM238.458 36.8081C238.736 36.7366 239.021 36.6962 239.308 36.6883C239.919 36.68 240.528 36.8232 241.067 37.1071L231.689 53.6303C230.623 55.4817 228.251 56.2796 226.343 55.535C226.334 55.5314 226.325 55.528 226.317 55.5247C226.17 55.4675 226.104 55.4418 225.844 55.3029C222.123 53.2502 218.419 51.1668 214.715 49.0835C212.863 48.0418 211.011 47.0001 209.157 45.9623L209.163 45.9525C209.633 45.2173 210.365 44.6656 211.199 44.414C220.268 41.8166 229.354 39.2798 238.458 36.8081Z" fill="#DCD6E3"/>
<path fill-rule="evenodd" clip-rule="evenodd" d="M242.761 22.3496C242.761 28.0715 238.123 32.71 232.401 32.71C226.679 32.71 222.041 28.0715 222.041 22.3496C222.041 16.6277 226.679 11.9893 232.401 11.9893C238.123 11.9893 242.761 16.6277 242.761 22.3496Z" fill="black"/>
<path fill-rule="evenodd" clip-rule="evenodd" d="M243.297 20.2508C242.328 15.1978 237.554 11.3014 232.47 11.2531C232.375 11.2528 232.28 11.2534 232.184 11.2548C227.003 11.37 222.365 15.4141 221.476 20.3872C220.585 25.3679 223.551 30.7222 228.206 32.6254C232.225 34.269 237.087 33.2787 240.149 30.2883C242.768 27.7309 243.985 23.8383 243.297 20.2508ZM222.959 20.468C223.821 16.1241 227.942 12.7664 232.337 12.7246C232.42 12.7243 232.503 12.7249 232.586 12.7264C238.37 12.8548 242.702 18.4226 241.921 23.7542C241.339 27.7273 238.031 31.1194 234.103 31.822C227.252 33.0471 221.775 26.4368 222.959 20.468Z" fill="#EDF3C2"/>
<path d="M232.15 18.5254C233.068 18.5254 233.766 18.7151 234.245 19.0942C234.724 19.4733 234.964 19.982 234.964 20.6206C234.964 21.0035 234.862 21.329 234.659 21.5962C234.455 21.8637 234.214 22.0651 233.934 22.2006C234.102 22.2646 234.257 22.3444 234.401 22.4401C234.545 22.5359 234.672 22.6555 234.784 22.7992C234.895 22.9429 234.983 23.1106 235.047 23.302C235.111 23.4938 235.143 23.7171 235.143 23.9724C235.143 24.3156 235.069 24.6231 234.922 24.8944C234.774 25.1657 234.568 25.3972 234.305 25.5887C234.042 25.7802 233.728 25.926 233.365 26.0255C233.002 26.1254 232.605 26.1755 232.174 26.1755C231.344 26.1755 230.718 26.0597 230.295 25.8282C229.872 25.5967 229.66 25.3015 229.66 24.9424C229.66 24.7268 229.712 24.5412 229.816 24.3857C229.919 24.2299 230.047 24.1082 230.199 24.0205C230.359 24.1324 230.572 24.2499 230.839 24.3736C231.107 24.4974 231.456 24.5592 231.887 24.5592C232.294 24.5592 232.595 24.4873 232.791 24.3436C232.986 24.2001 233.084 24.0125 233.084 23.781C233.084 23.5497 233.006 23.3739 232.851 23.2543C232.695 23.1344 232.426 23.0746 232.043 23.0746H230.917C230.861 22.9868 230.814 22.8793 230.774 22.7515C230.734 22.6239 230.714 22.4722 230.714 22.2964C230.714 22.1132 230.732 21.9553 230.768 21.8236C230.804 21.6919 230.853 21.5824 230.917 21.4946H232.043C232.617 21.4946 232.905 21.2748 232.905 20.8359C232.905 20.6286 232.813 20.461 232.629 20.3331C232.446 20.2056 232.17 20.1417 231.803 20.1417C231.476 20.1417 231.188 20.1797 230.941 20.2554C230.694 20.3314 230.49 20.425 230.331 20.5367C230.195 20.4409 230.083 20.3234 229.995 20.1835C229.908 20.0439 229.863 19.8783 229.863 19.6866C229.863 19.2877 230.071 18.9943 230.486 18.8067C230.901 18.6194 231.456 18.5254 232.15 18.5254Z" fill="#D6F318"/>
<path fill-rule="evenodd" clip-rule="evenodd" d="M227.763 67.8135C227.763 81.5656 216.614 92.7133 202.863 92.7133C189.111 92.7133 177.963 81.5656 177.963 67.8135C177.963 54.0619 189.111 42.9136 202.863 42.9136C216.614 42.9136 227.763 54.0619 227.763 67.8135Z" fill="#D6F318"/>
<path fill-rule="evenodd" clip-rule="evenodd" d="M228.819 62.9455C226.581 50.8729 215.162 41.4759 203.011 41.3602H202.669C195.919 41.4245 189.315 44.1235 184.5 48.7688C178.517 54.5416 175.523 63.2491 176.676 71.473C177.943 80.5253 184.274 88.678 192.708 92.1871C202.319 96.1861 213.864 93.8533 221.18 86.7944C227.452 80.7432 230.402 71.4832 228.819 62.9455ZM179.549 63.1408C181.674 52.4234 191.836 44.139 202.686 44.0356C206.155 44.0249 209.691 44.7697 212.869 46.2539C222.07 50.5532 227.802 61.2187 226.332 71.2481C225.142 79.3671 219.407 86.6632 211.811 89.7691C203.166 93.3034 192.802 91.1585 186.256 84.7667C180.618 79.2611 178.021 70.846 179.549 63.1408Z" fill="black"/>
<path fill-rule="evenodd" clip-rule="evenodd" d="M195.081 72.1616C194.717 71.7311 194.335 71.2899 193.799 71.2642C191.82 71.253 190.656 73.6243 190.792 75.5432C191.081 79.6209 196.588 80.4021 198.497 77.7004C199.235 76.6553 198.539 75.7601 198.539 75.7601C197.309 74.6362 196.161 73.4273 195.081 72.1616ZM194.212 76.8908C193.202 76.3923 192.919 74.974 193.573 74.1174L193.579 74.1099C194.374 75.026 195.208 75.9089 196.079 76.7543C196.079 76.7543 194.922 77.2415 194.212 76.8908Z" fill="black"/>
<path d="M213.493 68.5198C212.678 70.313 210.896 72.038 210.531 72.4612C209.49 73.6855 208.376 75.0681 207.98 77.4565C207.702 79.1444 207.463 79.6173 207.042 80.2589C206.62 80.9043 205.55 81.4892 204.422 81.2915C204.034 81.2238 203.66 81.1189 203.302 80.9731C202.941 80.8268 202.595 80.6428 202.272 80.4227C202.201 80.3845 200.283 79.3606 197.56 76.7991C196.375 75.6933 195.038 74.2829 193.636 72.5371C193.479 72.3471 193.326 72.1538 193.171 71.9534C192.185 70.6844 191.17 69.2542 190.16 67.6374C189.953 67.3005 189.786 66.9406 189.653 66.5671C189.52 66.1936 189.425 65.8004 189.372 65.4024C189.212 64.2398 189.803 63.1548 190.442 62.7365C191.079 62.3182 191.545 62.084 193.187 61.8394C195.519 61.4953 196.89 60.3852 198.103 59.3422C198.526 58.9808 200.25 57.1941 202.012 56.399C203.775 55.6039 206.052 55.4931 208.103 56.1364C208.662 56.3635 209.175 56.6316 209.64 56.9172C209.979 57.1291 210.292 57.3513 210.583 57.5812C211.534 58.3359 212.238 59.1752 212.743 59.9298C212.943 60.2225 213.111 60.5037 213.253 60.7631C213.663 61.5232 213.852 62.0867 213.895 62.2325C213.899 62.2369 213.898 62.2402 213.898 62.2402C213.905 62.2593 213.908 62.2669 213.908 62.2669C214.48 64.39 214.314 66.7238 213.493 68.5198Z" fill="#E9F3AA"/>
<path fill-rule="evenodd" clip-rule="evenodd" d="M215.312 61.8631C213.858 57.6504 209.781 54.8331 205.692 54.7753C205.636 54.775 205.608 54.7749 205.58 54.7749C205.552 54.775 205.524 54.7753 205.467 54.7758C202.712 54.8229 200.261 56.162 198.224 57.9615C196.629 59.383 195.232 60.4373 192.685 60.8592C186.736 61.8449 187.809 66.1105 189.446 68.6189C192.108 72.6966 195.357 76.5388 199.306 79.5376C200.372 80.3472 201.872 81.2413 201.872 81.2413C203.566 82.3437 205.82 82.6639 207.4 81.592C208.548 80.813 209.075 79.354 209.348 77.9539C209.809 75.4776 211.195 73.8151 212.704 72.1468C213.083 71.7281 213.446 71.296 213.785 70.8446C216.598 67.0882 215.312 61.8631 215.312 61.8631ZM199.371 60.1284C201.261 58.6665 203.125 57.225 205.496 57.1844C206.644 57.1769 208.016 57.5458 208.016 57.5458C209.878 58.3168 211.462 59.6934 212.463 61.4297C212.669 61.7874 212.85 62.1595 212.996 62.545C213.003 62.5615 213.008 62.5752 213.014 62.5885C213.036 62.6418 213.056 62.6896 213.107 62.8909C213.128 62.9765 213.148 63.0622 213.167 63.1479C213.815 66.1087 212.509 68.849 210.537 70.9408C208.586 72.9931 207.637 74.8301 206.864 78.0506C206.151 81.0209 204.156 79.8188 202.675 78.926C202.658 78.9159 202.641 78.9059 202.625 78.896C198.115 76.1798 194.528 71.9469 191.557 67.4446C190.794 66.279 190.286 64.4693 191.2 63.8733C191.833 63.4717 192.551 63.3457 193.361 63.2037C193.597 63.1623 193.841 63.1195 194.093 63.0681C196.098 62.6593 197.744 61.3863 199.371 60.1284Z" fill="black"/>
<path d="M184.119 22.6881C184.522 22.7154 184.688 23.4129 184.2 23.5447C183.111 23.8139 181.876 24.4703 181.691 23.7738C181.519 23.1229 182.903 22.9463 184.009 22.6964C184.041 22.6906 184.044 22.6859 184.119 22.6881Z" fill="#DCD6E3"/>
<path d="M149.378 163.851C150.132 163.899 149.437 165.538 149.036 166.406C148.822 166.825 148.027 166.671 148.319 165.827C148.448 165.46 148.581 165.094 148.719 164.729C148.878 164.311 149.001 163.843 149.378 163.851Z" fill="#DCD6E3"/>
<path d="M75.8887 62.2777C76.3243 62.3406 76.5422 62.814 75.7379 63.2711C71.5409 65.6702 67.7574 68.7647 64.4019 72.2461C64.4019 72.2461 64.0782 72.4746 63.8338 72.3039C63.2267 71.8793 64.5524 70.8262 65.5365 69.8845C68.548 67.002 71.8859 64.4458 75.5247 62.3922C75.5247 62.3922 75.6864 62.2689 75.8887 62.2777Z" fill="black"/>
<path d="M159.667 120.33C160.03 120.381 160.143 120.75 159.867 121.222C157.39 125.408 153.689 130.006 149.343 129.136C148.733 129.014 148.673 128.101 149.474 128.274C151.92 128.777 154.261 126.867 155.801 125.252C156.145 124.891 156.474 124.517 156.79 124.133C157.712 123.011 158.518 121.8 159.246 120.547C159.246 120.547 159.383 120.318 159.667 120.33Z" fill="black"/>
<path fill-rule="evenodd" clip-rule="evenodd" d="M150.556 97.2461C150.556 97.2461 149.811 97.4695 148.498 98.0112C147.566 98.3967 146.353 98.9415 144.913 99.6777V99.6806C144.82 99.7299 144.723 99.7791 144.626 99.8284C144.4 99.9446 144.169 100.066 143.934 100.194C143.676 100.333 143.41 100.478 143.14 100.628C142.879 100.773 142.612 100.924 142.343 101.08C140.584 102.092 138.943 103.176 137.571 104.147C137.553 104.158 137.539 104.17 137.521 104.182C136.694 104.761 135.967 105.297 135.372 105.752C135.088 105.967 134.833 106.164 134.613 106.338C133.977 106.836 133.617 107.138 133.617 107.138C132.195 104.28 130.41 100.324 130.287 100.124C130.29 100.139 130.26 100.999 130.275 101.037L128.376 138.619H78.6802L78.6069 137.204L76.6782 100.336C76.6782 100.336 75.5995 103.306 73.6063 107.375C73.5975 107.37 73.5916 107.361 73.5829 107.355C73.3454 107.161 73.064 106.944 72.7416 106.706C72.5481 106.567 72.3459 106.419 72.129 106.265C72.0733 106.222 72.0117 106.181 71.9531 106.138C71.871 106.083 71.789 106.025 71.7098 105.967C70.8803 105.384 69.913 104.732 68.8666 104.066C67.8993 103.451 66.8675 102.831 65.8123 102.246C65.3374 101.985 64.8596 101.73 64.3789 101.486C64.2587 101.425 64.1385 101.364 64.0213 101.307C63.6637 101.13 63.3061 100.959 62.9485 100.799C62.9016 100.776 62.8547 100.756 62.8078 100.736C62.7609 100.712 62.714 100.692 62.6671 100.672C62.3593 100.536 61.905 100.341 61.3803 100.115C60.7765 99.8574 60.0847 99.5589 59.4223 99.2777C59.2992 99.2256 59.176 99.1734 59.0559 99.1212C57.816 98.5909 56.7695 98.1474 56.7695 98.1474C56.7695 98.1474 56.8692 97.9619 57.0568 97.6228C57.4056 96.991 58.0593 95.8172 58.9474 94.2869C59.091 94.0377 59.2405 93.7798 59.3959 93.5131C59.9763 92.5277 60.6358 91.4206 61.3598 90.2323C61.7643 89.5657 62.1922 88.873 62.6378 88.16C65.9559 82.8678 70.253 76.567 74.3801 72.1993C78.9059 67.4056 84.2758 65.8724 88.7459 65.6116C91.0088 65.4783 93.043 65.6724 94.6142 65.9333C96.2674 66.2057 97.9323 66.4028 99.6001 66.5332C101.268 66.6608 102.945 66.7216 104.621 66.7216C106.896 66.7216 109.168 66.5883 111.427 66.3188C112.922 66.1391 114.965 65.9826 117.278 66.0376C117.492 66.0434 117.706 66.0492 117.926 66.0579C123.246 66.2695 129.803 67.652 134.388 72.4109C139.08 77.2829 143.284 83.8445 146.227 88.9976C148.917 93.7102 150.556 97.2461 150.556 97.2461Z" fill="#D6F318"/>
<path fill-rule="evenodd" clip-rule="evenodd" d="M93.3554 65.0183C92.3415 64.9017 91.3208 64.8423 90.3005 64.8374C90.1616 64.8374 90.0226 64.838 89.8837 64.8397C83.5256 64.9354 77.5401 67.662 73.355 72.2268C67.6225 78.4795 63.0902 85.8101 58.7641 93.1435L58.6474 93.3441C58.0706 94.3379 57.4972 95.3335 56.9353 96.3354C56.4877 97.1338 56.041 98.0859 56.041 98.0859L56.0803 98.381L56.2365 98.6357L56.6657 98.8844C57.2057 99.1138 57.7435 99.3393 58.2814 99.5647C59.7188 100.167 61.1564 100.77 62.6374 101.448C65.8684 102.927 68.9658 104.868 71.693 106.84C71.7782 106.901 71.8635 106.963 71.9488 107.024C72.357 107.317 72.7646 107.609 73.1501 107.935L73.4672 108.08L73.7859 108.072L74.0708 107.931C74.0929 107.904 74.1158 107.877 74.1387 107.85C74.1842 107.796 74.2296 107.742 74.2683 107.684C74.2703 107.681 74.3717 107.473 74.4236 107.366C74.4411 107.329 74.453 107.305 74.4536 107.304C75.0363 106.1 75.5906 104.889 76.1209 103.66L77.8772 137.235L77.9505 138.649C78.0531 139.061 78.3195 139.268 78.6824 139.337H128.378C128.799 139.257 129.022 139.004 129.11 138.648L130.904 103.151L131.049 103.461L131.177 103.735C131.74 104.934 132.308 106.133 132.894 107.315C133.341 108.217 134.089 107.687 134.089 107.687C136.9 105.359 139.977 103.239 143.209 101.417C144.173 100.874 145.268 100.307 145.268 100.307C147.011 99.4183 148.787 98.5847 150.651 97.9712C150.692 97.9578 150.734 97.9442 150.777 97.9314L151.046 97.7807L151.228 97.5338L151.291 97.2347L151.204 96.8942C147.085 88.1414 141.982 79.3869 135.255 72.2555C129.269 65.91 120.155 64.6148 111.633 65.5591C105.406 66.2723 99.3969 65.7127 93.3554 65.0183ZM129.736 99.6423L129.557 100.152C129.554 100.079 129.523 100.668 129.543 101.045L127.681 137.888H79.3788L79.3413 137.161L77.4126 100.292C77.229 99.574 76.9563 99.5889 76.6877 99.6036C76.6736 99.6044 76.6595 99.6052 76.6455 99.6058C76.2345 99.6252 75.9798 100.115 75.9798 100.115C75.206 102.196 74.3011 104.232 73.3432 106.239L73.1796 106.117C73.1796 106.117 72.4925 105.618 71.9778 105.259C68.3141 102.701 64.3221 100.578 60.2158 98.8198C60.0652 98.7555 59.9145 98.6912 59.7638 98.6269C59.109 98.3474 58.4541 98.0679 57.7991 97.7892L57.8466 97.7031C60.1428 93.5737 62.6027 89.4773 65.2176 85.4838C68.347 80.7043 71.5411 75.9331 75.5914 72.0051C80.5319 67.2143 87.6046 65.5852 94.2036 66.595C99.675 67.4476 105.183 67.6873 110.659 67.1279C118.617 66.2843 128.375 67.0882 134.183 73.2444C140.579 80.024 145.391 88.2371 149.547 96.8189C148.805 97.0898 148.074 97.3889 147.351 97.7069C146.1 98.257 144.505 99.0699 144.505 99.0699C141.523 100.607 138.648 102.431 135.926 104.426C134.964 105.131 133.871 105.989 133.871 105.989C133.323 104.861 132.794 103.724 132.264 102.587C131.869 101.74 131.474 100.894 131.072 100.05C131.06 100.025 131.05 100.003 131.041 99.9828C131.015 99.9256 130.992 99.8741 130.926 99.7591C130.473 99.2366 130.09 99.3685 129.736 99.6423Z" fill="black"/>
<path d="M148.123 93.9969L149.546 96.818C149.546 96.818 148.221 97.2806 145.731 98.4967C145.731 98.4967 144.547 95.9918 142.551 91.8478C140.555 87.7042 134.119 76.1112 127.683 71.671C121.272 67.2486 113.289 66.8367 113.289 66.8367C113.289 66.8367 117.41 66.3924 122.403 67.2805C127.396 68.1685 131.774 70.3515 134.88 73.9775C137.986 77.6035 140.752 81.1138 145.841 89.8005L148.083 93.9169L148.123 93.9969Z" fill="black" fill-opacity="0.25" style="mix-blend-mode:overlay"/>
<path d="M121.674 137.915L127.694 137.865L128.08 129.959L128.766 116.553L129.565 100.286L127.981 96.5244C127.981 96.5244 124.966 116.233 124.218 121.894C123.493 127.378 121.674 137.915 121.674 137.915Z" fill="black" fill-opacity="0.25" style="mix-blend-mode:overlay"/>
<path fill-rule="evenodd" clip-rule="evenodd" d="M109.647 73.7887C105.973 74.8764 101.849 74.7231 97.4574 73.7122C90.8651 72.1993 88.7318 67.6954 88.7462 65.6116C91.0093 65.4783 93.0433 65.6724 94.6144 65.9333C96.2676 66.2057 97.9328 66.4028 99.6007 66.5332C101.269 66.6608 102.945 66.7216 104.622 66.7216C106.896 66.7216 109.168 66.5883 111.428 66.3188C112.923 66.1391 114.966 65.9826 117.279 66.0376C117.492 66.0434 117.707 66.0492 117.926 66.0579C117.7 67.7824 116.131 70.2253 114.463 71.4281C114.256 71.5776 114.047 71.7214 113.836 71.8591" fill="#FFCE93"/>
<path d="M90.3014 64.8418C91.3226 64.8467 92.3426 64.9061 93.356 65.0227C99.3968 65.7174 105.407 66.277 111.634 65.5635C113.714 65.3331 115.795 65.2551 117.874 65.3287C117.874 65.3287 118.157 65.3226 118.363 65.4719C119.064 65.9814 118.473 67.2949 117.849 68.4832C117.037 70.0274 115.86 71.3809 114.407 72.3526C113.975 72.6422 113.455 72.6506 113.203 72.2187C112.826 71.5707 113.864 71.0171 114.449 70.5114C115.595 69.5196 116.49 68.2302 116.991 66.8077C116.991 66.8077 116.758 66.7512 116.633 66.75C115.435 66.7425 114.237 66.7862 113.044 66.883C107.001 67.3729 100.974 67.6766 94.8107 66.697C93.0892 66.4231 91.346 66.2585 89.6049 66.2988L89.5562 66.2999C90.299 69.8645 94.1714 72.2512 98.0292 73.0949C101.748 73.9081 105.639 74.1641 109.275 73.1404L109.531 73.0717C109.937 73.0317 110.04 73.1308 110.197 73.3047C110.566 73.714 110.307 74.3568 109.589 74.5585C105.134 75.7877 100.273 75.386 96.057 74.0843C92.3453 72.9387 88.8173 70.2711 88.1038 66.5066C88.0628 66.2901 88.0341 66.071 88.0221 65.851C87.9927 65.3168 88.2114 64.9088 89.0313 64.869C89.4548 64.8505 89.8787 64.8415 90.3014 64.8418Z" fill="black"/>
<path d="M148.939 95.6097C148.939 95.6097 137.111 98.7903 133.047 104.278L132.239 102.551L132.13 102.326L131.395 100.736C136.241 95.0159 147.366 92.5732 147.366 92.5732L147.768 93.3288L148.333 94.4018L148.939 95.6097Z" fill="#EDF3C2"/>
<path d="M59.5986 94.6081L60.4188 93.2144C60.4188 93.2144 70.741 95.408 75.5874 101.127L74.8523 102.895L74.8247 102.965L74.0175 104.773C69.9528 99.2856 58.6445 96.2853 58.6445 96.2853L59.5081 94.7687L59.5986 94.6081Z" fill="#EDF3C2"/>
<path d="M128.368 94.7902C128.651 94.8068 128.902 94.9812 129.018 95.2429L130.95 99.8796C131.221 100.577 130.04 101.395 129.612 100.437L127.681 95.8002C127.627 95.6605 127.624 95.6086 127.624 95.5155C127.624 95.1186 127.836 94.7858 128.368 94.7902Z" fill="black"/>
<path d="M78.4583 95.1962C78.7861 95.2256 78.821 95.307 78.9173 95.4024C79.1213 95.604 79.1977 95.869 79.0823 96.1889L77.2371 100.935C76.9421 101.64 75.5703 101.287 75.8865 100.409L77.7317 95.6638C77.8557 95.3673 78.0634 95.181 78.4583 95.1962Z" fill="black"/>
<path fill-rule="evenodd" clip-rule="evenodd" d="M69.4357 40.1862C69.4302 40.2511 69.4246 40.3157 69.4187 40.3801C68.7999 47.2226 72.7732 53.6173 79.0544 55.7945C79.6732 56.0089 80.3198 56.2257 80.9958 56.4443C83.759 57.3372 86.7916 58.2432 90.1584 58.7678C94.3632 59.4298 99.0153 59.721 103.968 59.721C108.769 59.721 113.284 59.4463 117.384 58.8284C120.746 58.3229 123.825 57.587 126.549 56.5816C137.896 52.3986 143.093 43.5653 136.853 27.3602C136.637 26.8026 136.416 26.256 136.187 25.7233C134.65 22.1277 132.925 19.1066 131.098 16.5741C127.428 11.4874 123.336 8.35898 119.466 6.45279C113.855 3.6951 108.71 3.50845 105.98 3.67597C104.616 3.75857 103.258 3.75857 101.894 3.67597C99.1179 3.50555 93.8285 3.70611 88.0998 6.6093C84.2318 8.57316 80.158 11.7731 76.5213 16.9312C76.5213 16.9312 70.7592 24.3461 69.4357 40.1862Z" fill="#ACC5F5"/>
<path fill-rule="evenodd" clip-rule="evenodd" d="M129.183 13.0236C123.656 6.85847 115.729 2.93538 107.511 2.90234H107.345C106.708 2.90591 106.074 2.92139 105.443 2.93681C104.176 2.96773 102.919 2.99843 101.662 2.93249C91.0871 2.44152 81.1386 8.45338 75.4457 17.1963C71.0049 24.0156 69.4021 32.1707 68.6966 40.2157C68.0549 47.5306 72.6314 54.389 79.5247 56.7175C86.2046 58.9735 92.9645 60.1241 99.8364 60.3693C107.256 60.6336 114.736 60.3794 121.941 58.6958C127.646 57.3626 133.421 54.9342 136.919 50.3422C139.789 46.5759 140.605 41.6564 140.106 37.0366C139.214 28.7678 135.26 19.8018 129.183 13.0236ZM105.512 4.37596C106.123 4.3665 106.735 4.35705 107.351 4.35362C111.056 4.34493 114.74 5.13355 118.12 6.62412C124.949 9.63541 129.993 15.3386 133.422 21.6661C136.809 27.9159 140.049 36.0098 138.393 43.6752C137.218 49.1132 133.048 52.9319 128.297 55.0804C123.21 57.3816 117.549 58.2743 111.926 58.707C100.647 59.5747 89.3767 58.5867 79.2967 55.1079C73.1118 52.9449 69.6011 46.5815 70.1566 40.343C70.632 34.8352 71.6594 29.367 73.6286 24.2006C74.5513 21.7794 75.5969 19.3457 77.1135 17.354C82.6825 9.48615 91.727 4.05655 101.245 4.36754C102.697 4.41947 104.104 4.39772 105.512 4.37596Z" fill="black"/>
<path d="M80.7752 41.3066C81.3293 41.3908 80.9921 42.2809 80.8269 42.9957C80.2233 45.6063 80.8101 48.4255 82.3897 50.6529C82.3897 50.6529 82.5751 51.4307 81.9757 51.3434C81.5948 51.2878 81.3242 50.654 81.0669 50.2098C79.6055 47.6878 79.3605 44.5621 80.2768 41.7293C80.2768 41.7293 80.4146 41.2845 80.7752 41.3066Z" fill="black"/>
<path d="M101.93 0.000602515C102.406 0.0498729 102.764 0.53678 103.141 0.956738C103.608 1.47726 103.971 2.08851 104.194 2.7496C104.194 2.7496 105.359 1.89461 105.691 0.987459C105.691 0.987459 105.795 0.774727 105.974 0.71995C106.341 0.608077 106.737 0.971519 106.371 1.58189C105.835 2.47629 105.028 3.20695 104.241 3.94484C104.241 3.94484 103.605 4.22076 103.474 3.46953C103.274 2.38413 102.54 1.43292 101.639 0.78603C101.639 0.78603 101.487 0.664304 101.462 0.495625C101.425 0.235361 101.587 -0.0138888 101.93 0.000602515Z" fill="black"/>
<path d="M83.7423 27.52C84.5369 27.5693 84.8257 28.827 83.3589 29.0401C81.9605 29.2428 80.5341 29.2636 79.1172 29.2154C79.1172 29.2154 78.5884 29.1154 78.4521 28.7327C78.2617 28.1982 78.7763 27.7588 79.5706 27.7789C80.9051 27.8071 82.2584 27.8124 83.5608 27.5359C83.5608 27.5359 83.5608 27.5179 83.7423 27.52Z" fill="black"/>
<path d="M123.149 27.5471C123.149 27.5471 123.37 27.5812 123.563 27.611C124.895 27.8127 126.239 27.9413 127.586 27.9929C127.586 27.9929 128.285 28.1783 128.292 28.7094C128.296 29.0889 127.965 29.4279 127.568 29.4414C127.494 29.4404 127.494 29.4395 127.418 29.4368C125.935 29.3748 124.456 29.2323 122.997 28.9879C122.997 28.9879 122.501 28.8566 122.39 28.4622C122.264 28.015 122.569 27.5184 123.149 27.5471Z" fill="black"/>
<path d="M116.274 9.08958C117.066 9.15131 118.685 10.1724 119.99 11.1844C119.99 11.1844 120.208 11.4102 120.143 11.6432C119.958 12.2968 118.816 11.3395 117.774 10.743C117.231 10.432 116.667 10.1605 116.086 9.9263C116.086 9.9263 115.8 9.75704 115.813 9.50171C115.825 9.26898 115.944 9.08204 116.274 9.08958Z" fill="black"/>
<path d="M121.235 57.4649C121.235 57.4649 121.355 57.433 121.564 57.3753C122.476 57.1244 125.213 56.458 126.842 55.768C128.844 54.9194 134.101 52.7506 136.712 48.1835C139.735 42.8933 138.69 37.3823 138.69 37.3823C138.69 37.3823 138.332 30.3581 132.992 20.8472C126.92 10.0311 119.404 7.3291 119.404 7.3291C119.404 7.3291 131.65 16.5514 134.62 36.4279C135.31 41.0442 133.601 47.0158 130.657 50.663C128.513 53.3181 125.873 55.0269 121.564 57.3753" fill="black" fill-opacity="0.25" style="mix-blend-mode:overlay"/>
<path d="M111.034 17.5399C111.397 17.5922 111.327 17.6772 111.524 18.0446C113.977 22.5238 118.593 25.8125 123.269 27.9295C123.269 27.9295 123.678 28.2698 123.447 28.587C123.268 28.8317 122.904 28.7211 122.589 28.5757C117.929 26.4078 113.599 23.2578 110.977 18.8417C110.815 18.5692 110.604 18.1583 110.604 18.1583C110.486 17.8705 110.695 17.5269 111.034 17.5399Z" fill="black"/>
<path d="M126.126 41.3048C126.614 41.3643 126.694 42.1484 126.843 42.7926C127.491 45.5937 126.893 48.6312 125.251 51.0055C125.008 51.357 124.406 51.5025 124.354 50.9509C124.321 50.6046 124.77 50.1752 125.006 49.7668C126.365 47.4209 126.556 44.5018 125.68 41.8853C125.68 41.8853 125.678 41.2913 126.126 41.3048Z" fill="black"/>
<path fill-rule="evenodd" clip-rule="evenodd" d="M112.597 58.957V66.5852C112.597 66.6518 112.591 66.7185 112.579 66.7797C112.517 67.0961 112.324 67.3834 112.03 67.6039C111.969 67.6503 111.91 67.6912 111.842 67.7288C108.974 69.3661 106.127 69.8999 103.584 69.868C103.479 69.868 103.37 69.8651 103.264 69.8593C99.5272 69.7547 96.492 68.4575 95.0888 67.7491C95.0416 67.723 94.9889 67.697 94.9478 67.6619C94.801 67.5778 94.6805 67.4706 94.5808 67.3573C94.5603 67.337 94.5457 67.3167 94.5336 67.2961C94.4516 67.2092 94.3988 67.1103 94.3607 67.006C94.3457 66.9915 94.3399 66.977 94.3399 66.9596C94.3135 66.9043 94.2988 66.8434 94.2842 66.7797C94.2666 66.7098 94.2578 66.6374 94.2578 66.5649V58.9512C94.2578 58.9512 94.2607 58.9512 94.2607 58.9541C95.5261 59.6273 96.7854 60.2079 97.9567 60.6869C100.349 61.6709 102.395 62.2195 103.432 62.2195C104.001 62.2195 104.876 62.0569 105.945 61.7434C107.771 61.2124 110.178 60.2487 112.597 58.957Z" fill="#FFD0C2"/>
<path fill-rule="evenodd" clip-rule="evenodd" d="M94.6332 58.3299L94.3245 58.2293C93.8825 58.2099 93.544 58.5371 93.5234 58.9507V66.5699C93.5334 67.2237 93.7362 67.4758 93.9334 67.7209C93.9517 67.7436 93.97 67.7663 93.988 67.7892C93.988 67.7892 94.3067 68.1353 94.6402 68.3315C94.7166 68.3763 94.7959 68.4155 94.8753 68.4547C94.8821 68.4581 94.889 68.4614 94.8958 68.4648C99.1839 70.5837 104.518 71.2767 109.136 69.734C110.987 69.1158 113.309 68.3272 113.328 66.5885V58.9565C113.312 58.6403 113.107 58.3522 112.807 58.2627C112.538 58.1827 112.248 58.3183 112.248 58.3183C110.378 59.3133 108.437 60.1816 106.425 60.8355C106.404 60.8422 106.384 60.849 106.363 60.8559C105.226 61.2253 104.025 61.6154 102.851 61.445C99.9671 61.027 97.2378 59.7098 94.6332 58.3299ZM95.3506 67.0843C95.2153 67.0582 94.9968 67.016 94.9897 66.5572V60.1425L94.9968 60.146C96.725 60.9963 98.5019 61.7525 100.342 62.3232C101.566 62.7025 102.83 63.0515 104.072 62.8982C106.767 62.5652 109.365 61.3885 111.863 60.1492V66.5792C111.863 66.5792 111.74 66.9401 111.492 67.0896C108.968 68.5361 106.024 69.2381 103.117 69.1274C100.463 69.0262 97.8139 68.3031 95.4306 67.1064C95.4117 67.0961 95.3836 67.0907 95.3506 67.0843Z" fill="black"/>
<path d="M108.029 68.5501C109.128 68.2176 110.006 67.8846 111.186 67.2777C111.238 67.2513 111.575 67.0606 111.619 67.0253C111.75 66.9178 111.79 66.8615 111.852 66.6566C111.866 66.6076 111.856 66.3233 111.856 66.2674V60.126C110.742 60.7482 109.706 61.1111 108.716 61.5589L108.728 66.4369C108.728 66.8966 108.661 67.356 108.505 67.7945C108.382 68.1428 108.283 68.3614 108.029 68.5501Z" fill="black" fill-opacity="0.25" style="mix-blend-mode:overlay"/>
<path fill-rule="evenodd" clip-rule="evenodd" d="M83.701 34.2V42.595C82.5151 42.6785 81.2444 42.2867 80.2047 41.416C78.2484 39.771 77.8621 37.0498 79.3371 35.3309C80.3867 34.1098 82.0959 33.7278 83.701 34.2Z" fill="#FFD0C2"/>
<path fill-rule="evenodd" clip-rule="evenodd" d="M83.864 33.4915C83.3938 33.3593 82.9084 33.2863 82.4207 33.2785C81.0641 33.2675 79.7228 33.8016 78.8355 34.7925C75.8106 38.1702 79.3341 43.2123 83.2285 43.327C83.6538 43.3395 84.0827 43.3111 84.2964 43.0126C84.3088 42.9952 84.3205 42.9807 84.3315 42.9671C84.3869 42.8983 84.4221 42.8545 84.4312 42.5938V34.1987C84.4154 33.7321 83.864 33.4915 83.864 33.4915ZM79.1899 37.451C79.3547 35.9016 80.8071 34.7426 82.3395 34.7295C82.4986 34.7295 82.6575 34.7388 82.8155 34.7568C82.8656 34.7629 82.9155 34.7698 82.9653 34.7774L82.9392 41.8566C80.7376 41.5888 78.9718 39.5035 79.1899 37.451Z" fill="black"/>
<path d="M81.5535 37.1818C82.3517 37.2524 81.5646 39.505 83.397 40.0214C83.397 40.0214 83.6043 40.0983 83.6771 40.2801C83.8289 40.6587 83.4167 40.9852 82.8043 40.751C81.5966 40.2887 80.902 38.8394 81.1012 37.5377C81.145 37.3235 81.2885 37.1719 81.5535 37.1818Z" fill="black"/>
<path fill-rule="evenodd" clip-rule="evenodd" d="M126.6 41.4869C125.56 42.3576 124.29 42.7494 123.104 42.6659V34.2708C124.709 33.7984 126.418 34.181 127.468 35.4017C128.943 37.1207 128.556 39.8419 126.6 41.4869Z" fill="#FFD0C2"/>
<path fill-rule="evenodd" clip-rule="evenodd" d="M129.071 38.1999C129.26 35.6164 127.01 33.3594 124.487 33.3482C123.63 33.3519 122.418 33.5121 122.389 34.2801L122.352 42.6929C122.367 43.2058 122.739 43.4041 123.158 43.4212C126.118 43.5424 128.862 41.0518 129.071 38.1999ZM123.849 34.8513C123.849 34.8513 124.18 34.8058 124.412 34.801C125.456 34.788 126.481 35.242 127.066 36.0624C128.748 38.4156 126.517 41.5433 123.939 41.9327C123.899 41.9384 123.858 41.9438 123.818 41.9484L123.849 34.8513Z" fill="black"/>
<path d="M125.251 37.2563C126.085 37.3092 125.733 39.4454 124.792 40.3134C124.247 40.8164 123.365 41.1903 123.108 40.734C122.834 40.249 123.881 40.04 124.307 39.5679C124.741 39.0867 124.87 38.3967 124.798 37.7576C124.765 37.495 124.933 37.252 125.251 37.2563Z" fill="black"/>
<path fill-rule="evenodd" clip-rule="evenodd" d="M132.04 184.065H74.3926L77.7957 147.874L78.6663 138.617H128.359L129.766 155.969L130.088 159.963L132.04 184.065Z" fill="#7BA4F5"/>
<path fill-rule="evenodd" clip-rule="evenodd" d="M129.092 138.561C129.017 138.11 128.986 138.031 128.483 137.904L128.362 137.895H78.6694C78.0269 137.947 77.9398 138.552 77.9398 138.552L77.0692 147.809L73.6661 184C73.6623 184.396 73.7678 184.501 73.9434 184.637C73.9568 184.647 73.9684 184.657 73.9795 184.667C74.0455 184.724 74.0956 184.767 74.3957 184.792H132.043C132.439 184.759 132.535 184.647 132.656 184.464C132.666 184.45 132.675 184.438 132.683 184.427C132.734 184.357 132.773 184.305 132.774 184.009L130.822 159.907L130.499 155.914L129.092 138.561ZM78.5289 147.945L79.3376 139.346H127.686L129.039 156.031L129.361 160.025L131.25 183.344H75.2002L78.5289 147.945Z" fill="black"/>
<rect width="4.93935" height="17.7594" transform="matrix(-1 0 0 1 105.885 139.351)" fill="black" fill-opacity="0.25" style="mix-blend-mode:overlay"/>
<path d="M119.3 141.435C119.733 141.468 119.876 142.259 119.3 142.303C118.321 142.328 117.34 142.304 116.36 142.304C115.928 142.293 115.703 141.435 116.36 141.435C117.34 141.434 118.321 141.41 119.3 141.435Z" fill="black"/>
<path d="M113.935 141.443C114.375 141.56 114.379 142.261 113.859 142.306H78.4402C77.9803 142.266 77.8748 141.486 78.4402 141.437H113.859C113.885 141.439 113.91 141.441 113.935 141.443Z" fill="black"/>
<path d="M89.571 144.651C90.2219 144.739 89.6875 145.853 89.2165 146.692C87.3436 150.027 84.1006 152.75 80.254 153.249C80.254 153.249 79.87 153.245 79.7727 152.965C79.6791 152.695 79.7804 152.443 80.2784 152.364C84.2052 151.707 87.5209 148.575 89.1265 144.915C89.1265 144.915 89.3096 144.64 89.571 144.651Z" fill="black"/>
<path d="M116.943 144.651C117.329 144.703 117.328 144.961 117.415 145.154C119.078 148.778 122.348 151.912 126.296 152.384C126.296 152.384 126.706 152.527 126.685 152.85C126.65 153.399 125.668 153.188 124.917 152.968C121.212 151.883 118.15 148.947 116.544 145.34C116.544 145.34 116.419 144.627 116.943 144.651Z" fill="black"/>
<path d="M122.522 183.347H131.141L127.586 139.318H121.674L122.522 183.347Z" fill="black" fill-opacity="0.25" style="mix-blend-mode:overlay"/>
<path fill-rule="evenodd" clip-rule="evenodd" d="M123.134 28.2866V43.7245C123.134 49.9117 117.831 55.4123 112.638 58.974C112.638 58.974 112.635 58.974 112.635 58.9769V58.9711C110.215 60.2617 107.809 61.2256 105.982 61.7575C104.915 62.0702 104.038 62.2336 103.47 62.2336C102.433 62.2336 100.386 61.6853 97.9935 60.7022C96.8228 60.2228 95.5651 59.6414 94.2988 58.9685C94.2988 58.9656 94.2961 58.9656 94.2961 58.9656C89.1003 55.401 83.8004 49.9033 83.8004 43.7245L83.75 28.2588C93.515 26.4303 100.938 20.0628 102.906 18.2329C103.167 17.9903 103.571 17.99 103.832 18.2326C105.81 20.0709 113.298 26.4917 123.134 28.2866Z" fill="#FFD0C2"/>
<path fill-rule="evenodd" clip-rule="evenodd" d="M103.401 17.3248C103.828 17.3393 104.191 17.5723 104.531 17.8839C109.796 22.6648 116.194 26.2674 123.268 27.5724C123.268 27.5724 123.82 27.6884 123.867 28.2848C123.867 29.999 123.869 31.7132 123.87 33.4274V33.4274V33.4299C123.874 36.8867 123.878 40.3434 123.866 43.8001C123.814 48.9161 120.324 53.5345 116.609 56.8083C115.48 57.8033 114.343 58.7974 113.041 59.5767C113.041 59.5767 112.771 59.7196 112.521 59.8495C109.932 61.1833 107.222 62.4367 104.346 62.8796C101.116 63.3771 97.677 61.566 94.7853 60.0431C94.5855 59.9379 94.3883 59.834 94.1939 59.7324C94.0966 59.6814 92.3757 58.5371 90.9236 57.3149C90.3162 56.8037 89.7259 56.2722 89.1573 55.7192C85.8207 52.4746 83.0838 48.4312 83.068 43.725L83.0176 28.2593C83.0629 27.6542 83.2818 27.6113 83.8941 27.4912L83.9479 27.4806C90.6654 26.1297 96.8977 22.6396 101.982 18.0882L102.024 18.0503C102.426 17.6894 102.839 17.3186 103.401 17.3248ZM103.309 18.8505C98.0152 23.7051 91.5133 27.3824 84.4851 28.8513C84.4905 30.5041 84.4922 32.1569 84.4939 33.8097C84.4974 37.1593 84.5008 40.5088 84.5344 43.8581C84.6053 48.1177 87.3454 51.9541 90.2939 54.7918C91.6249 56.0728 93.0756 57.2316 94.5948 58.2865L94.6895 58.3517C97.2889 59.7278 100.005 61.0402 102.891 61.4581C104.066 61.6283 105.266 61.2383 106.403 60.8685L106.403 60.8685L106.465 60.8483C108.477 60.1939 110.415 59.3261 112.282 58.3346C112.381 58.2663 112.48 58.1976 112.579 58.1283C117.498 54.6562 122.12 50.0048 122.39 44.1958C122.397 44.0378 122.4 43.8799 122.401 43.7219V28.8823C115.267 27.4239 108.7 23.6825 103.43 18.8508C103.43 18.8508 103.424 18.7447 103.309 18.8505ZM93.582 59.1442L93.6192 59.234C93.6192 59.234 93.5515 58.8891 93.582 59.1442Z" fill="black"/>
<path d="M122.397 28.8413C122.411 28.9813 122.397 29.125 122.397 29.2598L122.379 43.2158C122.403 47.6266 120.335 51.066 117.367 54.0889C114.531 56.9773 111.932 59.3054 105.27 61.1276C108.255 60.3613 112.564 56.4443 114.607 54.2787C117.175 51.5555 119.392 47.8924 119.393 43.225L119.369 28.0811C119.369 28.0811 120.311 28.3552 120.755 28.4671C121.199 28.579 121.964 28.7471 122.141 28.7882C122.316 28.8294 122.397 28.8413 122.397 28.8413Z" fill="black" fill-opacity="0.25" style="mix-blend-mode:overlay"/>
<path d="M94.282 37.1231C95.9795 37.1231 95.9821 34.5146 94.282 34.5146C92.5845 34.5146 92.5816 37.1231 94.282 37.1231Z" fill="black"/>
<path d="M112.602 37.128C114.3 37.128 114.303 34.5195 112.602 34.5195C110.905 34.5195 110.902 37.128 112.602 37.128Z" fill="black"/>
<path d="M104.464 40.288C105.027 40.3201 105.35 41.1779 104.408 41.5048C103.448 41.8379 101.832 41.7178 101.964 40.7914C102.023 40.3843 102.508 40.2468 102.938 40.4166C103.5 40.6309 104.135 40.2808 104.464 40.288Z" fill="black"/>
<path d="M97.7411 25.992C98.4202 26.039 98.8293 27.1633 97.8764 27.4207L92.046 28.8242C91.3254 28.9768 90.6997 27.6875 91.7069 27.4153L97.5373 26.0118C97.6205 25.9942 97.644 25.9906 97.7411 25.992Z" fill="black"/>
<path d="M110.03 26.2496C110.07 26.2538 110.109 26.2598 110.148 26.2679L115.594 27.5744C116.152 27.7243 116.11 27.9125 116.15 28.1771C116.219 28.6394 115.757 29.0896 115.256 28.9836L109.81 27.6771C109.277 27.5344 109.312 27.3603 109.261 27.1134C109.171 26.6729 109.464 26.2226 110.03 26.2496Z" fill="black"/>
<path d="M95.8455 42.2943C95.8455 43.564 94.2571 44.5932 92.2976 44.5932C90.3384 44.5932 88.75 43.5637 88.75 42.294C88.75 41.0243 90.3384 39.9951 92.2979 39.9951C94.2574 39.9951 95.8455 41.0246 95.8455 42.2943Z" fill="white" fill-opacity="0.3"/>
<path d="M118.012 42.2943C118.012 43.564 116.423 44.5932 114.464 44.5932C112.504 44.5932 110.916 43.5637 110.916 42.294C110.916 41.0243 112.504 39.9951 114.464 39.9951C116.423 39.9951 118.012 41.0246 118.012 42.2943Z" fill="white" fill-opacity="0.3"/>
<path d="M117.852 35.7268C117.852 38.8702 115.275 41.4184 112.098 41.4184C111.734 41.4184 111.378 41.385 111.034 41.3187C110.768 41.2714 110.507 41.205 110.255 41.1193C109.925 41.0085 109.608 40.87 109.311 40.7065C108.818 40.4379 108.373 40.0999 107.983 39.7066C106.969 38.6818 106.342 37.275 106.342 35.7268C106.342 32.7273 108.689 30.2679 111.667 30.0546C111.81 30.0407 111.953 30.0352 112.098 30.0352C112.521 30.0352 112.936 30.0795 113.333 30.1682C113.672 30.2401 114 30.3427 114.314 30.4757C114.563 30.5754 114.801 30.6945 115.031 30.8328C116.72 31.8216 117.852 33.6441 117.852 35.7268Z" fill="black" fill-opacity="0.25" style="mix-blend-mode:overlay"/>
<path d="M100.277 35.7268C100.277 38.8702 97.7001 41.4184 94.5239 41.4184C94.1595 41.4184 93.804 41.385 93.4592 41.3187C93.1934 41.2714 92.9328 41.205 92.6807 41.1193C92.3501 41.0085 92.0335 40.87 91.7366 40.7065C91.2438 40.4379 90.7983 40.0999 90.409 39.7066C89.3951 38.6818 88.7676 37.275 88.7676 35.7268C88.7676 32.7273 91.1149 30.2679 94.0924 30.0546C94.2354 30.0407 94.3782 30.0352 94.5239 30.0352C94.9468 30.0352 95.3613 30.0795 95.7591 30.1682C96.0979 30.2401 96.4256 30.3427 96.7395 30.4757C96.9887 30.5754 97.2267 30.6945 97.4565 30.8328C99.1455 31.8216 100.277 33.6441 100.277 35.7268Z" fill="black" fill-opacity="0.25" style="mix-blend-mode:overlay"/>
<path d="M113.334 30.1679L109.312 40.7063C108.819 40.4376 108.374 40.0999 107.984 39.7066L111.668 30.0543C111.811 30.0407 111.954 30.0352 112.099 30.0352C112.522 30.0352 112.937 30.0792 113.334 30.1679Z" fill="white" fill-opacity="0.3"/>
<path d="M115.034 30.8327L111.037 41.3185C110.77 41.2713 110.51 41.2049 110.258 41.1191L114.317 30.4756C114.566 30.575 114.804 30.6941 115.034 30.8327Z" fill="white" fill-opacity="0.3"/>
<path d="M95.7621 30.1679L91.7396 40.7063C91.2469 40.4376 90.8014 40.0999 90.4121 39.7066L94.0954 30.0543C94.2385 30.0407 94.3812 30.0352 94.5269 30.0352C94.9499 30.0352 95.3644 30.0792 95.7621 30.1679Z" fill="white" fill-opacity="0.3"/>
<path d="M97.4594 30.8327L93.4621 41.3185C93.1963 41.2713 92.9357 41.2049 92.6836 41.1191L96.7424 30.4756C96.9916 30.575 97.2296 30.6941 97.4594 30.8327Z" fill="white" fill-opacity="0.3"/>
<path fill-rule="evenodd" clip-rule="evenodd" d="M100.91 34.5045C100.346 31.5355 97.582 29.2711 94.6505 29.243C94.609 29.243 94.5676 29.243 94.5264 29.2436C90.3141 29.3113 87.3941 33.706 88.4264 37.4682C89.4197 41.0879 93.6572 43.0879 96.9609 41.7694C99.7224 40.6673 101.468 37.4471 100.91 34.5045ZM89.7377 34.7511C90.1857 32.466 92.322 30.7316 94.5772 30.7099C94.6412 30.7099 94.7056 30.7105 94.7696 30.7125C97.9849 30.8257 100.2 34.2176 99.3874 37.1072C98.7907 39.2297 96.708 40.7829 94.545 40.7554C91.5914 40.7176 89.1757 37.6175 89.7377 34.7511Z" fill="black"/>
<path fill-rule="evenodd" clip-rule="evenodd" d="M118.484 34.5409C117.921 31.5719 115.16 29.3075 112.225 29.2794C112.183 29.2794 112.142 29.2794 112.1 29.28C107.934 29.3468 104.948 33.7624 106.011 37.5433C107.037 41.1938 111.321 43.1351 114.607 41.7762C117.333 40.6492 119.037 37.4574 118.484 34.5409ZM107.312 34.7853C107.76 32.5004 109.896 30.7658 112.152 30.7441C112.216 30.7441 112.28 30.7446 112.344 30.7467C115.568 30.8601 117.76 34.2336 116.97 37.1118C116.382 39.2557 114.29 40.8171 112.119 40.7896C109.152 40.7514 106.751 37.6476 107.312 34.7853Z" fill="black"/>
<path d="M103.419 34.4693C104.703 34.4864 106.058 34.9565 106.94 35.7941C107.473 36.3002 106.779 37.4612 105.847 36.7888C104.419 35.7738 102.406 35.6414 100.932 36.7622C100.328 37.2215 100.352 37.1682 99.9599 36.9439C99.4071 36.628 99.6389 35.8353 100.452 35.3295C101.345 34.7737 102.322 34.4627 103.419 34.4693Z" fill="black"/>
<path d="M83.7416 31.5411C83.8675 31.5537 83.9433 31.5661 84.0996 31.6656L89.2592 35.1472C89.8745 35.5858 89.3048 36.8943 88.4487 36.3484L83.289 32.8668C82.7526 32.4843 82.911 31.5006 83.7416 31.5411Z" fill="black"/>
<path d="M123.131 31.5183C123.741 31.5521 124.111 32.4149 123.507 32.8458L118.347 36.3279C117.724 36.7253 116.639 35.7666 117.537 35.1267L122.697 31.6446C122.818 31.5667 122.818 31.5172 123.131 31.5183Z" fill="black"/>
<path d="M103.569 45.4128C104.976 45.4337 106.456 45.7916 107.413 46.7718C107.961 47.3341 107.13 48.4806 106.277 47.701C104.788 46.3866 101.804 46.5599 100.614 47.7914C100.614 47.7914 100.308 48.0598 99.9687 48.0065C99.4123 47.9184 99.1395 47.1706 99.6785 46.6683C100.642 45.7707 102.059 45.4331 103.416 45.4128C103.493 45.4125 103.493 45.4125 103.569 45.4128Z" fill="black"/>
<path fill-rule="evenodd" clip-rule="evenodd" d="M71.7112 105.963C71.7112 105.963 70.9784 107.287 69.6711 109.252C67.5929 112.376 64.0696 117.127 59.7461 120.761C60.0128 120.532 60.2825 120.251 60.561 119.921C60.5639 119.918 60.5639 119.915 60.5668 119.912C63.7941 116.046 63.6563 109.023 62.9499 100.795C63.3075 100.955 63.6651 101.126 64.0227 101.302C64.1429 101.36 64.2631 101.421 64.3803 101.482C64.861 101.725 65.3388 101.98 65.8137 102.241C66.8689 102.827 67.9007 103.447 68.868 104.061C69.9144 104.728 70.8817 105.38 71.7112 105.963Z" fill="#FFD0C2"/>
<path fill-rule="evenodd" clip-rule="evenodd" d="M63.2299 100.132C63.1937 100.117 63.1527 100.1 63.0305 100.08C62.3455 100.038 62.2171 100.86 62.2171 100.86C62.4909 104.084 62.7303 107.318 62.5891 110.553C62.4419 113.918 61.904 117.693 59.4366 120.062C58.9233 120.543 58.8972 121.172 59.4307 121.421C59.9044 121.642 60.4244 121.143 60.4244 121.143C65.187 117.063 69.0767 111.98 72.2104 106.563C72.6724 105.756 71.9742 105.265 71.9742 105.265C69.2068 103.339 66.3477 101.529 63.25 100.14C63.2432 100.137 63.2366 100.134 63.2299 100.132ZM63.1776 116.413C64.5485 111.851 64.1636 106.9 63.7879 102.083C63.7852 102.05 63.782 102 63.782 102C66.2536 103.232 68.5162 104.651 70.7415 106.182L70.7233 106.213C68.5619 109.859 66.0446 113.314 63.167 116.448L63.1776 116.413Z" fill="black"/>
<path fill-rule="evenodd" clip-rule="evenodd" d="M58.2812 79.4061C59.0011 82.1325 59.6797 84.8696 60.3087 87.6177C61.1491 91.2913 61.82 93.2377 62.4165 96.9985C62.5314 97.7231 62.9893 100.728 63.0505 101.441C63.7572 109.669 63.8214 116.045 60.5942 119.911C60.5913 119.914 60.5913 119.917 60.5883 119.92C60.3099 120.25 60.0402 120.531 59.7735 120.76L59.7031 120.821C59.6826 120.842 59.6621 120.859 59.6416 120.87V120.873C57.7568 122.421 56.171 121.662 55.0748 120.784C50.0302 116.746 47.9839 106.468 47.5296 99.3644C47.3115 95.9577 46.9067 90.3887 46.856 84.0221L46.3419 67.5253C46.2677 66.3005 46.2495 66.1651 46.1191 65.3495C45.8216 63.4862 45.0987 62.9391 43.9567 62.4116C43.9468 62.4069 43.9365 62.4023 43.9266 62.3977C41.7501 61.4096 38.8348 60.0611 35.3833 56.9941C34.1959 55.9418 34.2006 55.6488 33.7747 54.799C33.6642 54.584 33.4472 54.4611 33.2913 54.3669C32.997 54.1834 32.7502 53.9289 32.5858 53.6252C31.583 51.7509 31.0199 47.7554 30.9795 47.4516C30.9751 47.4406 30.9716 47.4305 30.9672 47.4195C30.2681 46.3639 29.6229 44.782 29.7481 44.081C29.9325 43.0593 30.6919 43.3265 30.9012 43.4442C30.9091 43.4494 30.915 43.4509 30.9235 43.4532C30.9645 43.4642 31.0126 43.4491 31.0372 43.4155C31.2025 43.1996 31.4707 43.0758 31.7445 43.1054C33.2051 43.2468 33.2218 45.1852 33.216 45.5179C33.2136 45.5483 33.228 45.5768 33.2503 45.5985C33.6671 45.9753 33.7295 47.2175 33.7366 47.4453C33.7368 47.467 33.7456 47.491 33.7629 47.5079C33.9218 47.6832 34.8873 48.6553 37.8311 50.2806C40.3265 51.6567 42.2851 51.9584 43.066 52.0207C43.1729 52.0306 43.2222 51.8955 43.1354 51.8352C41.6637 50.8151 39.7789 49.2767 39.5887 47.9635C39.2739 45.7753 40.8928 46.4969 41.4573 46.963C42.0192 47.4284 46.9307 51.3107 49.8901 52.9369C52.4689 54.3506 54.1154 57.0657 53.4526 60.8404C53.3647 61.3407 55.9345 70.5099 56.0614 70.9985L58.2812 79.4061Z" fill="#FFD0C2"/>
<path fill-rule="evenodd" clip-rule="evenodd" d="M33.9454 45.2664C33.8865 43.9201 33.0127 42.4203 31.6969 42.38C31.1971 42.3733 30.8029 42.6426 30.8029 42.6426C29.8162 42.4299 29.0377 43.2767 29.0014 44.1975C28.9518 45.4556 30.2794 47.7363 30.2794 47.7363C30.4086 48.6118 30.5669 49.4836 30.7583 50.3482C30.7813 50.4519 30.8039 50.5555 30.8266 50.659C31.1154 51.9781 31.3987 53.2724 32.1307 54.2716C32.2605 54.4489 32.4127 54.6104 32.5815 54.7518C32.6424 54.8028 32.7171 54.8445 32.7934 54.8871C32.9346 54.9658 33.081 55.0475 33.1543 55.1967C33.465 55.83 33.8056 56.4719 34.3042 56.9808C36.7265 59.4534 39.7351 61.2581 42.875 62.718C43.0111 62.7809 43.1489 62.8403 43.286 62.8994C43.8062 63.1236 44.318 63.3441 44.7002 63.7436C45.4334 64.5099 45.5153 65.9293 45.5913 67.2478C45.5974 67.3532 45.6035 67.4579 45.6098 67.5615L46.1233 84.0396L46.126 84.3303C46.1702 88.513 46.3687 92.7025 46.6342 96.8815C47.0554 103.439 47.7903 110.21 50.6787 116.103C51.9256 118.648 53.5507 121.178 55.9888 122.19C57.3187 122.743 58.8852 122.399 60.0099 121.514L60.0205 121.506C60.0639 121.472 60.0886 121.452 60.2024 121.355C60.5375 121.069 60.8074 120.81 61.2404 120.277C62.6441 118.551 63.3907 116.417 63.7735 114.265C64.484 110.271 64.1713 106.188 63.8453 102.151C63.4767 97.7071 62.5504 93.85 61.6104 89.9362C61.4531 89.281 61.2954 88.6243 61.1398 87.9629C59.8064 82.2507 58.2814 76.5657 56.7551 70.8761C56.1763 68.7186 55.5973 66.5604 55.0286 64.3998C54.5971 62.7603 54.1908 60.8732 54.1908 60.8732C54.6877 57.8141 53.5785 54.6231 51.1322 52.8645C50.8912 52.6911 50.7854 52.6152 50.3765 52.3796C47.5382 50.7765 44.9045 48.7715 42.3186 46.7248C41.6735 46.2115 40.8053 45.5649 39.8984 45.7866C39.4264 45.9017 39.0712 46.2724 38.9237 46.7132C38.4331 48.1817 39.3362 49.4738 40.2935 50.4546C40.613 50.7757 40.5291 50.7073 40.5291 50.7073C39.2746 50.2615 38.1068 49.6343 36.973 48.9515C35.7472 48.2133 34.4516 47.1169 34.4516 47.1169C34.376 46.199 33.9454 45.2664 33.9454 45.2664ZM31.5364 43.9276C31.572 43.8773 31.6027 43.8339 31.6641 43.8311C31.7072 43.8308 32.1941 44.0864 32.3233 44.4403C32.3395 44.4841 32.3538 44.5287 32.3667 44.5733C32.5937 45.3538 32.5418 45.6035 32.5144 45.7352C32.4889 45.858 32.4846 45.8784 32.7472 46.1303C32.7865 46.168 32.9465 46.7398 32.9867 47.1809C33.042 47.8528 33.0467 47.8563 33.1248 47.9132C33.1481 47.9302 33.178 47.9519 33.2177 47.9976C33.2177 47.9976 33.456 48.2393 33.6315 48.3918C36.1333 50.5629 39.3664 52.3641 42.8302 52.7322C43.5533 52.8047 43.9675 52.365 43.9089 51.8341C43.9074 51.8208 43.9061 51.808 43.9049 51.7954C43.8894 51.6404 43.8781 51.5276 43.614 51.29C43.614 51.29 43.0424 50.8884 42.657 50.5904C41.5103 49.7038 39.982 48.4248 40.3079 47.198C40.3079 47.198 40.9498 47.4968 41.2647 47.7484C43.7116 49.703 46.2365 51.6248 48.9373 53.2336C50.8013 54.335 52.5072 56.0635 52.8027 58.2383C52.8747 58.7684 52.8349 59.2978 52.7953 59.8235C52.75 60.4261 52.7051 61.0237 52.8294 61.6116C53.7029 65.7426 54.8371 69.7691 55.969 73.7876C56.5376 75.8062 57.1056 77.8227 57.6398 79.8495C57.8832 80.7766 58.1273 81.6952 58.3696 82.6067C60.0833 89.0538 61.7042 95.1517 62.3182 101.478C62.5269 103.797 62.6876 106.116 62.7104 108.44C62.7444 111.912 62.5803 115.644 60.6436 118.623C60.1002 119.459 59.1992 120.302 59.1992 120.302C59.4398 120.1 58.8424 120.64 58.2899 120.87C57.3288 121.268 56.3234 120.845 55.5829 120.263C55.4938 120.193 55.4062 120.121 55.32 120.047C52.028 117.234 50.6439 112.836 49.6335 108.611C47.7246 100.629 47.6621 92.9363 47.5999 85.2783C47.5964 84.8566 47.593 84.435 47.5893 84.0134L47.0746 67.4977C46.9043 64.7157 46.2184 62.6799 44.3239 61.787C41.7779 60.603 39.2923 59.2562 37.1144 57.5091C37.0012 57.4184 36.887 57.3283 36.7729 57.2382C36.109 56.7145 35.4449 56.1906 34.9734 55.5276C34.6144 55.0226 34.5918 54.9367 34.5591 54.8124C34.5404 54.7412 34.5183 54.6575 34.4279 54.4752C34.2843 54.2072 34.0533 54.0412 33.8245 53.8768C33.6658 53.7627 33.5082 53.6494 33.3815 53.5034C33.3372 53.4524 33.2971 53.398 33.2622 53.3406C32.3706 51.8793 32.0934 49.9946 31.8292 48.1975C31.801 48.006 31.773 47.8155 31.7444 47.6267C31.7312 47.538 31.7183 47.4493 31.7063 47.3606L31.5217 46.9372C31.0471 46.1885 30.64 45.386 30.4916 44.5354C30.3955 43.9834 30.5374 44.0216 30.7786 44.0866C30.9611 44.1357 31.2005 44.2001 31.4367 44.036C31.4817 44.0047 31.5104 43.9643 31.5364 43.9276Z" fill="black"/>
<path d="M43.9397 55.9109C44.1425 55.9289 44.166 55.9808 44.2504 56.0173C44.9257 56.301 45.6808 56.2715 46.4092 56.1086C46.7648 56.0324 46.8331 56.0257 47.0377 56.0008C48.5121 55.8208 49.9228 56.4083 51.1797 57.3624C51.6203 57.6922 51.3119 58.5518 50.6466 58.0536C49.4234 57.1253 47.9915 56.6636 46.3242 57.0195C45.4478 57.1981 44.525 57.1297 43.7292 56.7378C43.3848 56.5683 43.3869 55.9451 43.9054 55.9106C43.9168 55.9106 43.9283 55.9106 43.9397 55.9109Z" fill="black"/>
<path d="M31.095 42.6951C31.2404 42.7105 31.2832 42.7296 31.3612 42.7676C31.9169 43.0386 31.6669 43.8692 31.6291 44.648C32.1705 44.3868 32.2356 44.4805 32.4838 44.5034C32.9349 44.5448 33.3629 44.7509 33.7161 45.0381C33.7161 45.0381 34.0846 45.4331 33.9447 45.8348C33.7867 46.289 33.1683 46.4466 32.7462 46.1264C32.5278 45.9655 32.3531 45.6676 32.1769 46.3342C31.9633 47.1437 31.9336 47.9989 31.9392 48.8487C31.9392 48.8487 31.8058 49.5179 31.2856 49.5736C30.8283 49.6228 30.5214 49.2359 30.4273 48.6079C30.1673 46.8376 29.9155 45.0169 30.3191 43.2693C30.3191 43.2693 30.4637 42.6624 31.095 42.6951Z" fill="black"/>
<path d="M35.0305 49.1875C36.3654 49.2284 36.8153 51.1578 36.7227 52.3739C36.6966 52.7167 36.6195 53.2065 36.6195 53.2065C36.6641 53.2506 36.708 53.2949 36.7517 53.3396C37.0097 53.6051 37.3573 53.9911 37.3573 53.9911C37.3892 53.9981 37.4212 54.0059 37.4529 54.014C38.5054 54.2885 39.8101 54.736 39.4361 55.5941C39.2678 55.9799 38.776 56.1176 38.3489 55.9135C37.3051 55.4144 37.4757 55.535 36.8948 55.371C36.3226 55.1962 35.9729 54.6241 35.5265 54.1751C35.5265 54.1751 35.0894 53.5242 35.197 52.8237C35.3189 52.0035 35.3219 50.9584 35.0077 50.6555C34.3259 51.5841 34.0471 53.3289 34.4686 54.5681C34.4686 54.5681 34.5677 55.0837 34.2485 55.3515C33.844 55.6909 33.1988 55.4727 33.01 54.8093C32.5548 53.21 32.9529 51.3917 33.6769 50.0347C33.9378 49.546 34.4402 49.1835 35.0305 49.1875Z" fill="black"/>
<path d="M33.774 46.6916C34.0992 46.7139 34.379 46.9546 34.4522 47.277C34.646 48.3271 34.7973 49.3846 34.9695 50.4388C35.0721 51.1607 33.7766 51.7242 33.5447 50.7021C33.3509 49.652 33.1999 48.5944 33.0278 47.5403C32.964 47.0939 33.2555 46.6783 33.774 46.6916Z" fill="black"/>
<path d="M69.4422 105.309L70.7445 106.182C70.7445 106.182 70.0654 107.348 68.96 108.998L68.8993 109.091C67.4223 111.296 65.2731 114.26 63.1738 116.433L63.6513 114.507L63.7073 114.113L63.8571 113.015C67.2995 107.465 68.3134 104.578 68.3134 104.578L69.3243 105.23L69.4422 105.309Z" fill="black" fill-opacity="0.25" style="mix-blend-mode:overlay"/>
<path d="M61.9236 115.627C60.9769 118.389 60.5518 118.761 59.3794 120.117C58.2069 121.473 56.6856 121.102 55.8385 120.511C64.8343 114.572 57.6541 83.9293 56.9098 80.9467C56.1073 77.7302 52.8692 62.1225 52.7754 61.5342C53.0539 62.5891 55.0764 70.2695 55.2376 70.9564C55.4135 71.6984 57.9079 80.996 58.2333 82.3292C58.5557 83.6595 60.4522 91.5054 60.4522 91.5054C60.4522 91.5054 61.1703 94.2845 61.824 98.3626C62.4219 102.093 62.5714 105.118 62.6213 106.649C62.6213 106.649 62.8733 112.866 61.9236 115.627Z" fill="black" fill-opacity="0.25" style="mix-blend-mode:overlay"/>
<path fill-rule="evenodd" clip-rule="evenodd" d="M53.4358 60.8335C53.4358 60.8335 52.9535 62.0544 52.2074 62.8044L53.4358 60.8335Z" fill="#FFD0C2"/>
<path d="M53.4488 60.0939C54.0981 60.1152 54.2483 60.8681 53.8168 61.7121C53.3685 62.5897 52.74 63.802 51.9249 63.4735C51.4611 63.2867 51.35 62.6513 51.7708 62.1959C52.4625 61.4275 52.596 60.0939 53.4488 60.0939Z" fill="black"/>
<path d="M58.5516 118.137C58.941 118.159 59.1257 118.643 58.6847 119.029C58.0578 119.577 57.0694 119.807 56.3433 119.276C56.0007 119.025 55.9626 118.39 56.5051 118.402C56.7749 118.408 56.9489 118.706 57.257 118.741C57.8016 118.802 58.1083 118.131 58.5516 118.137Z" fill="black"/>
<path d="M148.539 118.191C149.103 118.232 149.446 119.121 150.316 118.527C150.734 118.268 151.579 118.895 150.47 119.48C149.735 119.867 148.758 119.549 148.183 118.906C147.962 118.637 148.143 118.18 148.539 118.191Z" fill="black"/>
<path fill-rule="evenodd" clip-rule="evenodd" d="M147.086 120.763C142.991 117.32 139.612 112.877 137.501 109.761C135.983 107.518 135.121 105.964 135.121 105.964C135.206 105.904 135.291 105.831 135.373 105.75C135.968 105.295 136.695 104.759 137.522 104.179C137.539 104.168 137.554 104.156 137.572 104.145C138.943 103.174 140.585 102.089 142.344 101.078C142.613 100.922 142.88 100.771 143.141 100.626C143.411 100.475 143.677 100.331 143.935 100.191C143.915 100.417 143.897 100.626 143.882 100.797C143.188 108.892 143.044 115.819 146.113 119.723C146.163 119.787 146.213 119.85 146.265 119.914C146.268 119.917 146.268 119.92 146.271 119.923C146.55 120.253 146.819 120.534 147.086 120.763Z" fill="#FFD0C2"/>
<path fill-rule="evenodd" clip-rule="evenodd" d="M144.614 100.853C144.667 100.231 144.591 99.5627 144.022 99.4671C143.767 99.4508 143.583 99.5512 143.413 99.6438C143.405 99.6482 143.397 99.6526 143.389 99.6569C140.941 100.985 138.599 102.494 136.347 104.119C135.67 104.606 134.861 105.229 134.861 105.229C134.338 105.736 134.492 106.329 134.492 106.329C137.589 111.827 141.532 116.935 146.32 121.062C146.945 121.597 147.623 121.508 147.789 120.969C147.909 120.576 147.547 120.193 147.547 120.193C145.717 118.591 144.967 116.22 144.576 113.891C143.865 109.661 144.229 105.383 144.591 101.123C144.599 101.033 144.606 100.943 144.614 100.853ZM136.166 106.056C138.369 104.403 140.638 102.883 143.012 101.526C143.04 101.51 143.089 101.487 143.089 101.487C143.082 101.573 143.075 101.659 143.068 101.745C142.672 106.638 142.271 111.577 143.593 116.199C143.617 116.279 143.64 116.36 143.665 116.44L143.601 116.37C140.748 113.239 138.218 109.781 136.065 106.132L136.166 106.056Z" fill="black"/>
<path fill-rule="evenodd" clip-rule="evenodd" d="M175.895 47.4207C175.889 47.4323 175.886 47.441 175.881 47.4526C175.842 47.7569 175.277 51.7507 174.274 53.6259C174.11 53.9302 173.864 54.1853 173.571 54.3679C173.412 54.4606 173.196 54.5852 173.087 54.7997C172.662 55.6489 172.665 55.9416 171.478 56.9966C168.025 60.0629 165.111 61.4106 162.933 62.3989C162.925 62.4018 162.913 62.4076 162.904 62.4134C161.943 62.8569 161.277 63.3148 160.914 64.5581C160.846 64.7929 160.788 65.0537 160.741 65.3494C160.612 66.1667 160.594 66.3 160.518 67.526L160.504 68.0013L160.005 84.0228C159.955 90.3903 159.551 95.9579 159.331 99.3662C158.877 106.47 156.831 116.747 151.786 120.784C150.69 121.663 149.104 122.422 147.219 120.874V120.871C147.199 120.86 147.178 120.842 147.158 120.822L147.087 120.761C146.821 120.532 146.551 120.251 146.273 119.921C146.27 119.918 146.27 119.915 146.267 119.912C146.214 119.848 146.164 119.784 146.114 119.72C143.045 115.817 143.189 108.89 143.884 100.795C143.898 100.624 143.916 100.415 143.936 100.189C143.963 99.8995 143.992 99.5775 144.025 99.2619C144.074 98.7895 144.127 98.3257 144.18 97.9953C144.699 94.7116 145.478 92.0539 146.229 88.9934C146.337 88.5441 146.448 88.0891 146.554 87.6196C147.181 84.8691 147.861 82.1332 148.58 79.4059L150.801 70.9981C150.869 70.7372 151.634 67.9955 152.32 65.4218C152.651 64.1814 152.962 62.9815 153.167 62.1178C153.331 61.4222 153.428 60.9469 153.41 60.8426C152.745 57.0661 154.392 54.3505 156.971 52.939C159.929 51.3102 164.842 47.4294 165.404 46.9628C165.967 46.4991 167.588 45.7774 167.272 47.9656C167.081 49.2785 165.196 50.8146 163.725 51.8348C163.64 51.8956 163.687 52.0319 163.795 52.0203C164.575 51.9594 166.536 51.658 169.03 50.2813C171.973 48.6554 172.941 47.6845 173.099 47.5077C173.117 47.4932 173.125 47.4671 173.125 47.4468C173.131 47.2179 173.193 45.9774 173.612 45.5977C173.632 45.5774 173.647 45.5485 173.644 45.5195C173.638 45.1862 173.656 43.2472 175.116 43.1052C175.391 43.0762 175.658 43.2009 175.825 43.4153C175.848 43.4501 175.895 43.4646 175.936 43.453C175.945 43.453 175.951 43.4501 175.96 43.4443C176.168 43.3284 176.93 43.0589 177.112 44.0819C177.238 44.7833 176.593 46.3658 175.895 47.4207Z" fill="#FFD0C2"/>
<path fill-rule="evenodd" clip-rule="evenodd" d="M167.405 49.454C168.457 47.9139 168.05 45.8094 166.649 45.7466C165.994 45.7321 165.527 45.9746 165.051 46.3178C164.513 46.7197 163.969 47.1335 163.418 47.5527C161.211 49.2314 158.892 50.9957 156.418 52.4189C153.547 54.1031 152.212 57.3463 152.613 60.5019C152.619 60.5443 152.624 60.5822 152.629 60.6164C152.669 60.9028 152.672 60.9293 152.634 61.1253C152.35 62.5898 151.951 64.0321 151.553 65.4737C151.441 65.8777 151.329 66.2816 151.22 66.6859C148.78 75.6873 146.456 84.5965 144.302 93.6591C143.191 98.3395 142.845 102.899 142.748 107.465C142.655 111.89 142.844 116.65 145.456 120.069C145.904 120.656 146.77 121.454 146.849 121.515C147.365 121.922 147.957 122.248 148.603 122.399C149.91 122.705 151.224 122.168 152.245 121.351C154.973 119.166 156.612 115.667 157.743 112.188C160.566 103.51 160.651 93.6837 160.734 84.198L160.735 84.0404L161.233 68.0269C161.235 67.9785 161.236 67.9302 161.237 67.8818C161.24 67.7754 161.243 67.669 161.248 67.5626C161.248 67.5446 161.271 67.1893 161.273 67.1641C161.31 66.5955 161.373 66.0286 161.462 65.4657C161.696 63.9888 162.62 63.3439 163.656 62.87C166.247 61.6832 168.712 60.2355 170.907 58.4409C170.973 58.387 171.039 58.3331 171.105 58.2792C171.803 57.7111 172.503 57.1417 173.031 56.4333C173.168 56.2504 173.249 56.0694 173.33 55.8882C173.477 55.5593 173.624 55.2298 174.104 54.8871C175.285 54.0447 175.616 52.5354 175.928 51.1158C175.966 50.9416 176.004 50.7689 176.043 50.5988C176.337 49.3242 176.613 47.6545 176.613 47.6545C178.293 44.9542 177.768 42.3483 176.126 42.6289C176.077 42.6385 175.966 42.6049 175.822 42.5608C175.545 42.4763 175.142 42.3534 174.799 42.4237C173.058 42.7816 172.907 45.3043 172.907 45.3043C172.442 45.9793 172.39 47.1861 172.39 47.1861C170.736 48.7028 168.662 49.8459 166.512 50.6426C166.439 50.6692 166.366 50.6956 166.292 50.7211C166.7 50.3328 167.088 49.9189 167.405 49.454ZM174.373 45.5656C174.373 45.5656 174.219 43.9229 175.19 43.829C175.213 43.8271 175.245 43.8582 175.289 43.9027C175.377 43.9906 175.518 44.1309 175.759 44.1727C175.929 44.2023 175.939 44.1983 175.96 44.19C175.972 44.1852 175.987 44.1791 176.037 44.177C176.037 44.177 176.342 43.7832 176.389 44.2278C176.487 45.1735 175.839 46.1713 175.277 47.0298L175.145 47.3999C174.888 49.2789 174.562 51.1865 173.803 52.9159C173.602 53.3747 173.314 53.6013 173.038 53.8177C172.872 53.9485 172.71 54.0755 172.575 54.2479C172.399 54.4731 172.399 54.4772 172.397 54.5045C172.395 54.5217 172.394 54.548 172.347 54.6444C172.11 55.14 171.847 55.6255 171.466 56.0092C169.503 57.9864 167.112 59.5442 164.605 60.8073C163.678 61.2742 162.551 61.7782 162.551 61.7782C160.184 62.8763 159.924 65.2271 159.782 67.4959L159.767 67.9822L159.269 84.0119C159.21 90.7558 159.082 97.6922 158.033 104.467C157.214 109.753 155.957 115.21 152.52 119.077C151.751 119.943 150.803 120.965 149.532 121.041C148.604 121.096 147.603 120.259 147.603 120.259C147.803 120.392 147.52 120.125 147.241 119.861C147.063 119.693 146.887 119.526 146.836 119.463C145.855 118.26 145.229 116.776 144.853 115.259C143.756 110.836 144.167 106.033 144.568 101.353C144.582 101.188 144.596 101.024 144.61 100.859C144.917 97.2611 145.727 94.02 146.537 90.7757C146.713 90.0706 146.89 89.3652 147.061 88.656C147.102 88.4824 147.144 88.3088 147.184 88.1349C148.393 82.9083 149.813 77.6256 151.235 72.3369C151.98 69.5654 152.726 66.7922 153.442 64.0246C153.848 62.454 154.131 60.7348 154.131 60.7348C153.641 57.887 154.799 55.0264 157.213 53.6373C160.188 51.9606 163.003 49.8234 165.709 47.6538C165.963 47.4483 166.238 47.2344 166.55 47.1976C166.55 47.1976 166.582 47.4535 166.569 47.6274C166.565 47.6787 166.56 47.73 166.554 47.7813C166.385 49.1643 165.051 50.0626 163.811 50.8974C163.632 51.0181 163.455 51.1376 163.283 51.2569C162.557 51.8229 163.053 52.8179 163.935 52.7388C165.542 52.5939 167.099 52.0548 168.551 51.3491C170.597 50.3548 173.111 48.4105 173.552 48.0697C173.582 48.0467 173.602 48.031 173.612 48.0234C173.59 48.0261 173.832 47.6353 173.832 47.6353C173.883 47.3774 173.892 47.2026 173.901 47.0442C173.908 46.9129 173.915 46.7927 173.943 46.6458C173.984 46.4319 174.079 46.2631 174.169 46.102C174.266 45.9296 174.357 45.766 174.373 45.5656Z" fill="black"/>
<path d="M162.988 55.9122C163.311 55.9592 163.297 56.0481 163.352 56.1896C163.667 57.0078 161.506 57.1988 160.089 56.922C158.687 56.662 157.453 57.1396 156.13 58.1137C155.703 58.4212 155.039 57.8462 155.715 57.3335C157.057 56.3009 158.707 55.7267 160.449 56.1078C161.212 56.2748 161.995 56.3067 162.752 55.9516C162.752 55.9516 162.826 55.9012 162.988 55.9122Z" fill="black"/>
<path d="M175.844 42.6939C175.973 42.7011 176.008 42.7136 176.076 42.7385C176.561 42.9153 176.622 43.5854 176.671 44.2044C176.796 45.7898 176.627 47.3896 176.377 48.9663C176.377 48.9663 176.136 49.6053 175.614 49.5775C174.417 49.5143 175.158 47.0978 174.543 45.95L174.086 46.1483C173.637 46.5106 172.847 46.1758 172.876 45.5657C172.914 44.7447 174.304 44.2021 175.23 44.6487C175.227 44.5809 175.223 44.5131 175.219 44.4456C175.191 44.0294 174.911 43.6767 175.15 43.1306C175.267 42.8634 175.391 42.693 175.844 42.6939Z" fill="black"/>
<path d="M171.902 49.1877C172.955 49.2329 173.445 50.504 173.746 51.601C174.049 52.7015 174.163 53.886 173.795 54.9891C173.548 55.7296 172.08 55.6056 172.431 54.4463C172.795 53.1939 172.524 51.6996 171.864 50.6716C171.684 50.4009 171.529 51.9787 171.7 53.0502C171.7 53.0502 171.657 53.8443 171.162 54.3471C170.897 54.6196 170.533 55.0253 170.533 55.0253C170.01 55.5487 169.174 55.5876 168.423 55.9562C168.423 55.9562 167.732 56.1388 167.46 55.6644C167.056 54.959 168.276 54.2822 169.486 53.9947C169.486 53.9947 169.865 53.5823 170.221 53.2264C170.221 53.2264 170.059 52.0349 170.145 51.2367C170.224 50.5119 170.487 49.7375 171.194 49.3497C171.333 49.2732 171.637 49.1833 171.902 49.1877Z" fill="black"/>
<path d="M173.16 46.692C173.57 46.7156 173.893 47.0962 173.851 47.5111C173.701 48.5682 173.508 49.619 173.335 50.6731C173.199 51.4109 171.808 51.386 171.901 50.4695C172.051 49.4123 172.245 48.3616 172.417 47.3075C172.483 46.9488 172.739 46.6855 173.16 46.692Z" fill="black"/>
<path d="M160.227 64.3372C160.227 64.3372 159.727 64.9867 159.017 69.6114C158.305 74.2365 157.632 88.111 156.697 96.991C156.494 98.9131 155.798 109.311 152.019 116.563C150.146 120.158 146.893 119.56 146.893 119.56C148.996 121.703 149.886 121.447 151.832 119.782C153.778 118.117 154.9 115.491 156.173 112.197C157.445 108.905 158.081 103.947 158.38 101.764C158.68 99.5809 159.129 88.5921 159.129 88.5921C159.129 88.5921 159.578 73.3113 159.727 69.0196C159.877 64.7276 160.298 64.1729 160.298 64.1729" fill="black" fill-opacity="0.25" style="mix-blend-mode:overlay"/>
<path fill-rule="evenodd" clip-rule="evenodd" d="M160.914 64.5605C160.847 64.7952 160.788 65.0561 160.741 65.3517C160.613 66.169 160.595 66.3023 160.519 67.5283L160.504 68.0036L152.32 65.4241C152.652 64.1837 152.962 62.9838 153.167 62.1201L160.914 64.5605Z" fill="#0053F5"/>
<path fill-rule="evenodd" clip-rule="evenodd" d="M153.391 61.4308C153.308 61.4076 153.287 61.4039 153.201 61.3975C152.714 61.3917 152.455 61.9543 152.455 61.9543C152.266 62.7472 152.062 63.5364 151.856 64.325C151.836 64.3976 151.816 64.4716 151.795 64.5464C151.638 65.1047 151.471 65.703 151.885 66.0069C151.889 66.0103 151.894 66.0136 151.898 66.0168C151.944 66.0505 151.971 66.0706 152.099 66.1156L160.283 68.695C160.619 68.7889 160.848 68.7011 161.038 68.502C161.051 68.4887 161.063 68.477 161.075 68.4657C161.144 68.4009 161.199 68.3484 161.235 68.0739C161.235 68.0739 161.243 67.7774 161.252 67.5627C161.253 67.5503 161.265 67.3515 161.273 67.2392C161.275 67.1995 161.277 67.1707 161.277 67.1645C161.309 66.6884 161.377 66.2353 161.438 65.8249C161.589 64.8185 161.702 64.0694 161.138 63.8712L153.391 61.4308ZM153.213 64.9162C153.364 64.3429 153.513 63.7693 153.658 63.1949C153.668 63.1538 153.678 63.1129 153.689 63.0718C153.691 63.0637 153.693 63.0555 153.695 63.0474L160.048 65.0619C159.936 65.6961 159.89 66.0688 159.848 66.5899C159.837 66.7354 159.827 66.8812 159.817 67.027L153.213 64.9162Z" fill="black"/>
<path d="M113.895 116.526C114.019 116.535 114.13 116.589 114.214 116.681L118.11 121.264C118.401 121.629 117.868 122.291 117.448 121.827L113.552 117.245C113.063 116.631 113.6 116.524 113.895 116.526Z" fill="black"/>
<path d="M116.584 116.709C117.015 116.732 117.433 117.471 117.873 118.005C118.146 118.359 117.562 118.944 117.211 118.568C116.6 117.872 115.751 117.051 116.381 116.751C116.445 116.72 116.481 116.706 116.584 116.709Z" fill="black"/>
<path d="M113.114 118.586C113.225 118.597 113.326 118.645 113.404 118.725C114.121 119.53 114.801 120.368 115.499 121.189C115.781 121.537 115.215 122.141 114.85 121.767C114.133 120.963 113.453 120.125 112.755 119.304C112.531 119.028 112.702 118.565 113.114 118.586Z" fill="black"/>
<path fill-rule="evenodd" clip-rule="evenodd" d="M73.6085 107.374C73.6085 107.374 72.6294 110.009 69.6719 109.255C70.9792 107.29 71.712 105.966 71.712 105.966C71.7911 106.024 71.8732 106.082 71.9553 106.137C72.0139 106.18 72.0755 106.221 72.1311 106.264C72.3481 106.418 72.5503 106.566 72.7438 106.705C73.0662 106.943 73.3476 107.16 73.585 107.354C73.5938 107.36 73.5997 107.368 73.6085 107.374Z" fill="#5DBBFF"/>
<path fill-rule="evenodd" clip-rule="evenodd" d="M72.5994 105.684C72.3453 105.469 72.1018 105.263 71.7353 105.241C71.2988 105.235 71.0676 105.614 71.0676 105.614C70.5496 106.538 69.9833 107.437 69.405 108.327C68.6866 109.426 69.0694 109.88 69.7608 110.019C71.6125 110.391 73.4213 109.43 74.1893 107.859C74.4472 107.332 74.2315 106.937 73.8534 106.638C73.6306 106.462 73.4043 106.291 73.176 106.121L72.8746 105.904C72.7778 105.834 72.688 105.758 72.5994 105.684ZM70.9612 108.608C71.2921 108.088 71.6169 107.564 71.9323 107.035C71.9824 106.95 72.6627 107.581 72.6627 107.581C72.0677 108.446 70.9612 108.608 70.9612 108.608Z" fill="black"/>
<path fill-rule="evenodd" clip-rule="evenodd" d="M137.163 109.256C134.14 109.256 133.617 107.135 133.617 107.135C133.617 107.135 133.978 106.834 134.614 106.335C134.834 106.161 135.089 105.964 135.373 105.75C135.291 105.831 135.206 105.903 135.121 105.964C135.121 105.964 135.644 107.013 137.163 109.256Z" fill="#5DBBFF"/>
<path fill-rule="evenodd" clip-rule="evenodd" d="M136.022 106.089C136.257 105.626 135.91 105.062 135.407 105.028C135.161 105.022 135.069 105.074 134.928 105.176C134.928 105.176 134.487 105.512 134.158 105.77C134.049 105.856 133.93 105.941 133.81 106.026C133.326 106.371 132.827 106.726 132.89 107.226C133.048 108.484 134.25 109.363 135.441 109.738C136.451 110.055 137.738 110.137 137.883 109.395C137.935 109.126 137.773 108.856 137.773 108.856C137.161 107.951 136.561 107.034 136.022 106.089ZM134.513 107.346C134.513 107.346 134.701 107.195 134.847 107.08C134.926 107.018 134.94 107.136 134.94 107.136C135.258 107.672 135.62 108.26 135.62 108.26C135.169 108.067 134.77 107.756 134.513 107.346Z" fill="black"/>
</svg>
