<svg width="16" height="16" viewBox="0 0 16 16" fill="none" xmlns="http://www.w3.org/2000/svg">
<path d="M8 4.29297V6.51297" stroke="#0053F5" stroke-width="1.5" stroke-miterlimit="10" stroke-linecap="round"/>
<path d="M8.01522 1.33398C5.56189 1.33398 3.57522 3.32065 3.57522 5.77398V7.17398C3.57522 7.62732 3.38855 8.30732 3.15522 8.69398L2.30855 10.1073C1.78855 10.9807 2.14855 11.954 3.10855 12.274C6.29522 13.334 9.74188 13.334 12.9286 12.274C13.8286 11.974 14.2152 10.9207 13.7286 10.1073L12.8819 8.69398C12.6486 8.30732 12.4619 7.62065 12.4619 7.17398L12.4619 5.77398C12.4552 3.33398 10.4552 1.33398 8.01522 1.33398Z" stroke="#0053F5" stroke-width="1.5" stroke-miterlimit="10" stroke-linecap="round"/>
<path d="M10.2213 12.5469C10.2213 13.7669 9.22125 14.7669 8.00125 14.7669C7.39458 14.7669 6.83458 14.5135 6.43458 14.1135C6.03458 13.7135 5.78125 13.1535 5.78125 12.5469" stroke="#0053F5" stroke-width="1.5" stroke-miterlimit="10"/>
</svg>
