<svg width="20" height="20" viewBox="0 0 20 20" fill="none" xmlns="http://www.w3.org/2000/svg">
<path d="M18.0583 5.7915C17.525 3.98317 16.0167 2.47484 14.2083 1.94151C12.8333 1.54151 11.8833 1.57484 11.225 2.06651C10.4333 2.65817 10.3417 3.72484 10.3417 4.48317V6.55817C10.3417 8.60817 11.275 9.64984 13.1083 9.64984H15.5C16.25 9.64984 17.325 9.55817 17.9167 8.76651C18.425 8.11651 18.4667 7.16651 18.0583 5.7915Z" fill="#0053F5"/>
<path d="M15.7584 11.133C15.5417 10.883 15.225 10.7413 14.9 10.7413H11.9167C10.45 10.7413 9.25837 9.54964 9.25837 8.08297V5.09964C9.25837 4.77464 9.1167 4.45797 8.8667 4.2413C8.62504 4.02464 8.2917 3.92464 7.97504 3.9663C6.0167 4.2163 4.2167 5.2913 3.0417 6.90797C1.85837 8.53297 1.42504 10.5163 1.80004 12.4996C2.3417 15.3663 4.63337 17.658 7.50837 18.1996C7.9667 18.2913 8.42504 18.333 8.88337 18.333C10.3917 18.333 11.85 17.8663 13.0917 16.958C14.7084 15.783 15.7834 13.983 16.0334 12.0246C16.075 11.6996 15.975 11.3746 15.7584 11.133Z" fill="#7BA4F5"/>
</svg>
