<svg width="311" height="311" viewBox="0 0 311 311" fill="none" xmlns="http://www.w3.org/2000/svg">
<path d="M194.375 111.766H184.656V136.062H194.375V111.766Z" fill="black"/>
<path d="M213.812 111.766H204.094V136.062H213.812V111.766Z" fill="black"/>
<path d="M194.375 145.781H184.656V155.5H194.375V145.781Z" fill="black"/>
<path d="M213.812 145.781H204.094V155.5H213.812V145.781Z" fill="black"/>
<path d="M160.359 165.219H150.641V174.938H160.359V165.219Z" fill="black"/>
<path d="M136.062 262.406H126.344V272.125H136.062V262.406Z" fill="black"/>
<path d="M213.812 165.219H204.094V174.938H213.812V165.219Z" fill="black"/>
<path d="M194.375 184.656H184.656V194.375H194.375V184.656Z" fill="black"/>
<path d="M213.812 184.656H204.094V194.375H213.812V184.656Z" fill="black"/>
<path d="M19.4375 24.2969V82.6094C19.4375 85.2917 21.6145 87.4688 24.2969 87.4688H82.6094C85.2917 87.4688 87.4688 85.2917 87.4688 82.6094V24.2969C87.4688 21.6145 85.2917 19.4375 82.6094 19.4375H24.2969C21.6145 19.4375 19.4375 21.6145 19.4375 24.2969ZM29.1562 29.1562H77.75V77.75H29.1562V29.1562Z" fill="black"/>
<path d="M63.1719 38.875H43.7344C41.052 38.875 38.875 41.052 38.875 43.7344V63.1719C38.875 65.8542 41.052 68.0312 43.7344 68.0312H63.1719C65.8542 68.0312 68.0312 65.8542 68.0312 63.1719V43.7344C68.0312 41.052 65.8542 38.875 63.1719 38.875Z" fill="#D6F318"/>
<path d="M228.391 87.4688H286.703C289.385 87.4688 291.562 85.2917 291.562 82.6094V24.2969C291.562 21.6145 289.385 19.4375 286.703 19.4375H228.391C225.708 19.4375 223.531 21.6145 223.531 24.2969V82.6094C223.531 85.2917 225.708 87.4688 228.391 87.4688ZM233.25 29.1562H281.844V77.75H233.25V29.1562Z" fill="black"/>
<path d="M267.266 38.875H247.828C245.146 38.875 242.969 41.052 242.969 43.7344V63.1719C242.969 65.8542 245.146 68.0312 247.828 68.0312H267.266C269.948 68.0312 272.125 65.8542 272.125 63.1719V43.7344C272.125 41.052 269.948 38.875 267.266 38.875Z" fill="#E3F37A"/>
<path d="M82.6094 223.531H24.2969C21.6145 223.531 19.4375 225.708 19.4375 228.391V286.703C19.4375 289.385 21.6145 291.562 24.2969 291.562H82.6094C85.2917 291.562 87.4688 289.385 87.4688 286.703V228.391C87.4688 225.708 85.2917 223.531 82.6094 223.531ZM77.75 281.844H29.1562V233.25H77.75V281.844Z" fill="black"/>
<path d="M43.7344 272.125H63.1719C65.8542 272.125 68.0312 269.948 68.0312 267.266V247.828C68.0312 245.146 65.8542 242.969 63.1719 242.969H43.7344C41.052 242.969 38.875 245.146 38.875 247.828V267.266C38.875 269.948 41.052 272.125 43.7344 272.125Z" fill="#E9F3AA"/>
<path d="M213.812 92.3281H179.797V34.0156H170.078V97.1875C170.078 99.8699 172.255 102.047 174.938 102.047H213.812V92.3281Z" fill="black"/>
<path d="M140.922 58.3125H106.906V68.0312H140.922V58.3125Z" fill="black"/>
<path d="M160.359 38.875H126.344V48.5938H160.359V38.875Z" fill="black"/>
<path d="M29.1562 92.3281H19.4375V136.062H29.1562V92.3281Z" fill="black"/>
<path d="M87.4688 121.484H38.875V131.203H82.6094V150.641H92.3281V126.344C92.3281 123.661 90.1511 121.484 87.4688 121.484Z" fill="black"/>
<path d="M53.4531 97.1875H43.7344V106.906H53.4531V97.1875Z" fill="black"/>
<path d="M111.766 87.4688H102.047V126.344H111.766V87.4688Z" fill="black"/>
<path d="M145.781 136.062H102.047V145.781H145.781V136.062Z" fill="black"/>
<path d="M296.422 140.922H286.703V189.516H272.125V199.234H291.562C294.245 199.234 296.422 197.057 296.422 194.375V140.922Z" fill="black"/>
<path d="M136.062 87.4688H126.344V97.1875H136.062V87.4688Z" fill="black"/>
<path d="M29.1562 160.359H19.4375V199.234H29.1562V160.359Z" fill="black"/>
<path d="M63.1719 204.094H19.4375V213.812H63.1719V204.094Z" fill="black"/>
<path d="M242.969 136.062H252.688V116.625C252.688 113.943 250.51 111.766 247.828 111.766H223.531V121.484H242.969V136.062Z" fill="black"/>
<path d="M53.4531 160.359H43.7344V170.078H53.4531V160.359Z" fill="black"/>
<path d="M106.906 155.5H97.1875V194.375H106.906V155.5Z" fill="black"/>
<path d="M140.922 204.094H97.1875V213.812H140.922V204.094Z" fill="black"/>
<path d="M82.6094 184.656H38.875V194.375H82.6094V184.656Z" fill="black"/>
<path d="M111.766 252.688H102.047V272.125H111.766V252.688Z" fill="black"/>
<path d="M140.922 233.25H97.1875V242.969H140.922V233.25Z" fill="black"/>
<path d="M174.938 213.812V189.516C174.938 186.833 172.76 184.656 170.078 184.656H121.484V194.375H165.219V213.812H174.938Z" fill="black"/>
<path d="M136.062 155.5H126.344V165.219H136.062V155.5Z" fill="black"/>
<path d="M82.6094 165.219H72.8906V174.938H82.6094V165.219Z" fill="black"/>
<path d="M296.422 257.547H286.703V291.562H296.422V257.547Z" fill="black"/>
<path d="M276.984 281.844H262.406V291.562H276.984V281.844Z" fill="black"/>
<path d="M272.125 252.688H262.406V272.125H272.125V252.688Z" fill="black"/>
<path d="M296.422 213.812C296.422 211.13 294.245 208.953 291.562 208.953H238.109V218.672H286.703V247.828H296.422V213.812Z" fill="black"/>
<path d="M233.25 272.125V247.828C233.25 245.146 231.073 242.969 228.391 242.969H174.938V252.688H223.531V272.125H233.25Z" fill="black"/>
<path d="M276.984 228.391H242.969V238.109H276.984V228.391Z" fill="black"/>
<path d="M131.203 281.844H97.1875V291.562H131.203V281.844Z" fill="black"/>
<path d="M155.5 247.828H145.781V291.562H155.5V247.828Z" fill="black"/>
<path d="M174.938 223.531H155.5V233.25H174.938V223.531Z" fill="black"/>
<path d="M228.391 174.938H252.688V165.219H233.25V136.062H223.531V170.078C223.531 172.76 225.708 174.938 228.391 174.938Z" fill="black"/>
<path d="M267.266 145.781H242.969V155.5H267.266V145.781Z" fill="black"/>
<path d="M276.984 97.1875H262.406V106.906H276.984V97.1875Z" fill="black"/>
<path d="M296.422 97.1875H286.703V121.484H296.422V97.1875Z" fill="black"/>
<path d="M272.125 121.484H262.406V131.203H272.125V121.484Z" fill="black"/>
<path d="M189.516 82.6094H208.953C211.635 82.6094 213.812 80.4324 213.812 77.75V14.5781H204.094V72.8906H189.516V82.6094Z" fill="black"/>
<path d="M116.625 24.2969H189.516V14.5781H111.766C109.083 14.5781 106.906 16.7551 106.906 19.4375V43.7344H116.625V24.2969Z" fill="black"/>
<path d="M121.484 116.625H155.5C158.182 116.625 160.359 114.448 160.359 111.766V72.8906H150.641V106.906H121.484V116.625Z" fill="black"/>
<path d="M174.938 111.766H165.219V131.203H174.938V111.766Z" fill="black"/>
<path d="M208.953 262.406H174.938V272.125H208.953V262.406Z" fill="black"/>
<path d="M218.672 281.844H174.938V291.562H218.672V281.844Z" fill="black"/>
<path d="M242.969 281.844H233.25V291.562H247.828C250.51 291.562 252.688 289.385 252.688 286.703V247.828H242.969V281.844Z" fill="black"/>
<path d="M87.4688 204.094H77.75V213.812H87.4688V204.094Z" fill="black"/>
<path d="M208.953 204.094H189.516V213.812H208.953V204.094Z" fill="black"/>
<path d="M233.25 184.656H223.531V199.234H233.25V184.656Z" fill="black"/>
<path d="M228.391 208.953H218.672V218.672H228.391V208.953Z" fill="black"/>
<path d="M204.094 223.531H189.516V233.25H204.094V223.531Z" fill="black"/>
<path d="M252.688 184.656H242.969V194.375H252.688V184.656Z" fill="black"/>
<path d="M276.984 165.219H262.406V174.938H276.984V165.219Z" fill="black"/>
<path d="M194.375 165.219H170.078V174.938H194.375V165.219Z" fill="black"/>
<path d="M174.938 140.922H165.219V155.5H174.938V140.922Z" fill="black"/>
</svg>
