<svg width="250" height="186" viewBox="0 0 250 186" fill="none" xmlns="http://www.w3.org/2000/svg">
<path d="M88.9192 68.1515C89.3756 68.1937 89.4551 68.7288 88.7614 69.2382C88.0575 69.7578 87.39 70.3585 86.7187 70.8445C86.3207 71.1057 85.6902 70.5463 86.3273 70.0139C87.091 69.3818 87.8302 68.7273 88.6627 68.2118C88.7407 68.1685 88.828 68.1473 88.9192 68.1515Z" fill="black"/>
<path d="M84.1534 72.1853C84.4879 72.2488 84.6468 72.6811 84.4042 72.9443C80.9403 76.3384 78.0974 80.2541 75.7425 84.473C75.7425 84.473 75.0407 84.9505 74.9176 84.3447C74.8703 84.1112 75.0568 83.8749 75.1793 83.6575C77.5023 79.5671 80.2696 75.7765 83.6103 72.4762C83.8473 72.2418 83.9264 72.1658 84.1534 72.1853Z" fill="black"/>
<path fill-rule="evenodd" clip-rule="evenodd" d="M98.1641 100.468C98.0632 100.631 96.158 108.134 93.1309 115.864C93.122 115.891 91.9409 115.728 91.3058 115.638C91.0802 115.606 90.923 115.585 90.9141 115.582L77.5357 113.819L77.3903 113.799L76.589 113.695C76.046 113.624 75.675 113.101 75.7907 112.564C76.0311 111.457 76.2804 110.377 76.5416 109.324C77.3577 106.017 78.2717 102.967 79.2629 100.153C83.1773 89.0483 88.3025 81.6143 93.4099 76.5781C95.3864 80.1836 98.7458 88.2233 98.1641 100.468Z" fill="#D6F318"/>
<path fill-rule="evenodd" clip-rule="evenodd" d="M94.1279 76.3308C94.0147 76.0876 93.9302 75.906 93.4647 75.8379C93.0785 75.8366 92.8931 76.0299 92.6436 76.29C92.6055 76.3297 92.566 76.371 92.524 76.4133C83.7375 85.2716 78.6408 97.4619 75.6746 109.744C75.607 110.024 75.5281 110.308 75.4495 110.591C75.1046 111.831 74.7659 113.048 75.4141 113.833C75.8393 114.348 76.5751 114.443 77.2914 114.535C77.3395 114.542 77.3875 114.548 77.4354 114.554C78.923 114.75 80.4146 114.922 81.9061 115.093C84.8818 115.435 87.8573 115.776 90.8018 116.316C91.0683 116.356 91.326 116.409 91.5753 116.46C92.2111 116.591 92.7931 116.711 93.3309 116.579C93.3309 116.579 93.6256 116.429 93.7369 116.292L93.9636 115.77C95.657 111.388 97.0972 106.882 98.3795 102.392C98.5831 101.675 98.8499 100.748 98.8499 100.748C98.7813 100.928 98.9119 100.358 98.9119 100.358C99.271 92.1777 98.0317 83.6471 94.2052 76.4887C94.1758 76.4338 94.1512 76.381 94.1279 76.3308ZM76.7424 111.697C79.551 99.2608 84.4213 86.9939 93.1062 77.9403C93.1454 77.9 93.2329 77.8374 93.2329 77.8374C96.6511 84.6678 97.7251 92.314 97.447 99.8686C97.4453 99.9116 97.4451 99.9503 97.4449 99.9878C97.4441 100.135 97.4433 100.264 97.3544 100.569C95.9543 105.429 94.471 110.341 92.6429 115.071C92.6429 115.071 91.7022 114.951 91.0463 114.852C88.0877 114.31 85.098 113.967 82.1083 113.623C80.6162 113.452 79.1241 113.28 77.6359 113.084C77.6359 113.084 77.0961 113.018 76.6792 112.958C76.4613 112.92 76.5233 112.66 76.5827 112.41C76.5907 112.376 76.5987 112.343 76.6059 112.31C76.6507 112.106 76.6964 111.901 76.7424 111.697Z" fill="black"/>
<path fill-rule="evenodd" clip-rule="evenodd" d="M173.576 113.653L172.647 113.775L172.312 113.819L159.275 115.537L158.934 115.582L157.741 115.748C157.242 115.819 156.767 115.529 156.604 115.054C153.268 105.337 151.865 99.2893 151.767 99.1321C151.767 99.135 151.767 99.1558 151.764 99.2003C151.241 87.8667 154.099 80.1507 156.088 76.2334C161.275 81.2399 166.507 88.6888 170.499 99.9155C169.057 99.7909 167.211 100.189 166.958 101.972C166.958 101.972 166.884 103.355 169.137 103.717C170.739 103.975 171.531 105.56 172.277 106.821C172.277 106.821 172.505 107.453 173.054 108.326C173.14 108.655 173.223 108.988 173.306 109.323C173.591 110.475 173.864 111.662 174.122 112.875C174.202 113.243 173.947 113.602 173.576 113.653Z" fill="#D6F318"/>
<path fill-rule="evenodd" clip-rule="evenodd" d="M156.75 75.8187C156.667 75.7062 156.591 75.6026 156.23 75.5045C155.588 75.4262 155.378 75.9915 155.378 75.9915C151.844 83.0418 150.719 90.9166 151 98.6985C151.016 99.1127 151.131 99.5885 151.131 99.5885C152.531 104.7 154.067 109.933 155.824 115.066C156.346 116.591 157.729 116.498 159.033 116.316L159.372 116.272C160.968 116.062 162.566 115.86 164.165 115.659C167.352 115.257 170.54 114.855 173.713 114.382C174.281 114.281 174.751 113.821 174.855 113.264C174.988 112.554 174.78 111.901 174.572 111.247C174.489 110.987 174.406 110.727 174.344 110.463C174.077 109.322 173.684 107.933 173.684 107.933C173.281 107.286 172.847 106.326 172.847 106.326C172.821 106.282 172.796 106.238 172.77 106.194C172.17 105.164 171.537 104.076 170.495 103.443C170.369 103.366 170.237 103.297 170.102 103.236C169.962 103.174 169.818 103.121 169.671 103.078C169.52 103.033 169.345 103.002 169.161 102.968C168.527 102.853 167.802 102.721 167.703 102.012C167.835 101.283 168.511 100.855 169.171 100.717C169.258 100.699 169.347 100.684 169.435 100.673C169.687 100.639 169.942 100.631 170.196 100.639C171.253 100.685 171.387 100.19 171.103 99.4015C171.04 99.2261 170.977 99.051 170.913 98.8762C167.81 90.4067 163.3 82.2809 156.85 75.939C156.808 75.8977 156.778 75.8577 156.75 75.8187ZM152.497 98.967C152.138 91.7807 153.212 84.16 156.281 77.5331L156.302 77.4871C162.356 83.6217 166.493 91.1679 169.443 99.1786L169.404 99.1824C168.119 99.3195 166.822 100.03 166.386 101.214C166.368 101.265 166.347 101.313 166.327 101.361C166.215 101.63 166.11 101.883 166.299 102.516C166.651 103.692 167.662 104.046 168.655 104.394C169.37 104.645 170.076 104.892 170.519 105.441C170.932 105.953 171.595 107.116 171.595 107.116C171.852 107.77 172.368 108.635 172.368 108.635C172.735 110.059 173.069 111.492 173.376 112.93L172.551 113.038C167.979 113.645 163.408 114.25 158.835 114.846L157.641 115.012C157.372 115.048 157.278 114.752 157.189 114.475C157.177 114.436 157.164 114.398 157.152 114.361C155.733 110.202 154.407 105.952 153.232 101.683C153.124 101.286 153.004 100.893 152.894 100.529C152.687 99.8498 152.512 99.2729 152.497 98.967Z" fill="black"/>
<path fill-rule="evenodd" clip-rule="evenodd" d="M151.764 99.2003C151.76 99.2033 151.764 99.2065 151.764 99.2122C151.651 101.067 149.449 136.644 149.449 137.798H100.399C100.399 137.632 100.355 136.792 100.283 135.462C99.8204 127.254 98.1614 100.48 98.1644 100.468C98.7461 88.2228 95.3866 80.1834 93.4102 76.5776C98.9775 71.0844 104.524 68.4432 108.474 67.0039C112.623 65.4933 115.445 65.0066 119.11 64.5377C121.072 64.2885 123.004 64.1341 124.924 64.1074C126.844 64.1341 128.776 64.2885 130.737 64.5377C134.403 65.0066 137.225 65.4933 141.374 67.0039C145.241 68.4135 150.639 70.9746 156.087 76.2334C154.099 80.1507 151.241 87.8667 151.764 99.2003Z" fill="#E9F3AA"/>
<path fill-rule="evenodd" clip-rule="evenodd" d="M156.343 75.4547C148.068 67.5927 136.649 63.6039 125.118 63.3721C125.085 63.3717 125.052 63.3711 125.02 63.3706C124.988 63.3701 124.956 63.3696 124.924 63.3691C121.62 63.422 118.338 63.7938 115.092 64.4001C107.204 65.8742 99.8169 69.6111 93.9498 75.0399C93.8407 75.1407 93.7264 75.2422 93.6129 75.3429C93.2903 75.6292 92.974 75.9098 92.8019 76.1566C92.5692 76.4902 92.8048 77.0208 92.8048 77.0208C96.5414 83.9239 97.7368 91.9966 97.4475 99.8723C97.4344 100.204 97.4285 100.593 97.4285 100.593C97.6679 104.551 97.9199 108.499 98.1716 112.443C98.702 120.755 99.2312 129.049 99.64 137.376C99.6649 137.909 99.6988 138.153 99.8777 138.33C99.8914 138.343 99.9034 138.357 99.9149 138.369C99.987 138.448 100.043 138.509 100.399 138.544H149.449C150.162 138.474 150.191 137.783 150.191 137.783C150.202 137.349 150.222 137.024 150.242 136.681C150.249 136.563 150.256 136.444 150.263 136.317C150.752 127.367 151.314 118.38 151.875 109.391C152.086 106.014 152.297 102.637 152.504 99.2612L152.499 99.0386C152.179 91.5621 153.228 83.8916 156.471 77.135C156.905 76.2385 156.839 75.9254 156.343 75.4547ZM94.3279 76.7225C102.461 68.9204 113.522 65.0808 124.757 64.855L124.924 64.8523C127.977 64.9013 131.018 65.2455 134.021 65.7744C141.995 67.1778 149.383 70.9533 155.18 76.396L155.085 76.5931C151.868 83.3535 150.724 91.0564 151 98.7023C151.007 98.8712 151.014 99.04 151.021 99.2089L150.979 99.8959C150.766 103.346 150.547 106.797 150.328 110.247C149.76 119.199 149.192 128.146 148.738 137.059L101.109 137.032C100.679 128.63 100.136 120.046 99.5959 111.493C99.3868 108.185 99.178 104.882 98.9762 101.596C98.9444 101.08 98.9124 100.361 98.9124 100.361C99.2608 92.4221 98.1173 84.2203 94.5074 77.0712C94.4481 76.9548 94.3884 76.8385 94.3279 76.7225Z" fill="black"/>
<path d="M153.832 79.5035C145.105 68.629 134.965 65.9658 134.965 65.9658C134.965 65.9658 137.39 66.4585 138.981 66.9888C139.948 67.3114 141.195 67.7598 142.025 68.0616C142.659 68.2928 145.473 69.5941 146.078 69.8933C147.982 70.8346 149.961 72.1235 152.392 73.9976C153.299 74.6967 154.238 75.5108 155.182 76.4106C155.182 76.4106 154.754 77.2178 154.526 77.7733C154.299 78.3292 153.832 79.5035 153.832 79.5035Z" fill="black" fill-opacity="0.25" style="mix-blend-mode:overlay"/>
<path d="M154.926 80.8678C154.926 80.8678 155.321 79.7564 155.549 79.2134C155.776 78.6706 156.306 77.5215 156.306 77.5215C158.432 79.6909 160.526 82.238 162.28 84.8333C162.28 84.8333 167.357 93.2437 169.213 98.5478C171.069 103.852 172.521 108.827 173.393 112.969L170.004 113.367L165.831 101.391C164.205 96.723 162.172 92.2047 159.708 87.92C157.788 84.5813 156.217 82.4208 154.926 80.9216" fill="black" fill-opacity="0.25" style="mix-blend-mode:overlay"/>
<path d="M90.1567 111.919L94.3001 112.471C94.7639 112.547 94.7917 113.416 94.1823 113.354L90.0658 112.805C89.6161 112.731 89.544 111.893 90.1567 111.919Z" fill="black"/>
<path d="M76.3139 110.07L86.3573 111.412C86.7219 111.513 86.7096 111.69 86.7027 111.864C86.6928 112.11 86.4519 112.309 86.1989 112.287L76.1962 110.953C75.7457 110.871 75.6311 110.011 76.3139 110.07Z" fill="black"/>
<path d="M173.533 110.255C173.97 110.332 174.096 111.033 173.539 111.138L156.143 113.354C155.254 113.413 155.622 112.549 156.031 112.471L173.48 110.252C173.498 110.253 173.515 110.254 173.533 110.255Z" fill="black"/>
<path d="M135.207 112.336C135.333 112.344 135.447 112.399 135.531 112.492L139.476 117.132C139.766 117.496 139.213 118.166 138.798 117.708L134.853 113.069C134.358 112.447 134.906 112.335 135.207 112.336Z" fill="black"/>
<path d="M137.929 112.497C138.369 112.519 138.79 113.268 139.236 113.809C139.5 114.152 138.982 114.839 138.557 114.385C137.942 113.684 137.076 112.877 137.709 112.547C137.778 112.512 137.82 112.495 137.929 112.497Z" fill="black"/>
<path d="M134.417 114.431C134.53 114.441 134.632 114.49 134.712 114.571C135.438 115.386 136.126 116.234 136.833 117.065C137.111 117.408 136.592 118.091 136.168 117.657C135.442 116.843 134.754 115.995 134.047 115.163C133.821 114.885 134 114.412 134.417 114.431Z" fill="black"/>
<path d="M151 99.3701L148.709 137.027L145.256 137.062L151 99.3701Z" fill="black" fill-opacity="0.25" style="mix-blend-mode:overlay"/>
<path d="M124.737 83.8121C124.963 83.8266 125.148 84.0057 125.166 84.235C125.193 85.5217 125.287 86.8306 125.135 88.0777C125.083 88.4982 124.291 88.5884 124.248 88.0456C124.222 86.782 124.266 85.5178 124.276 84.2536C124.285 84.0058 124.434 83.8099 124.737 83.8121Z" fill="black"/>
<path d="M124.894 67.4019C125.115 67.4386 125.279 67.6194 125.289 67.8477L125.194 80.4793C125.138 81.4149 124.323 80.892 124.304 80.4725L124.399 67.8409C124.414 67.5849 124.622 67.3856 124.894 67.4019Z" fill="black"/>
<path fill-rule="evenodd" clip-rule="evenodd" d="M100.399 137.798L99.7991 146.481C89.2311 142.748 75.01 137.026 74.4936 131.797C74.0841 127.66 75.5323 120.989 77.3901 113.798L77.5355 113.819L90.9138 115.582C90.9227 115.585 91.08 115.606 91.3055 115.638C89.4923 121.903 87.8808 127.53 87.6879 129.394C87.6879 129.394 93.9052 132.174 100.283 135.462C100.354 136.792 100.399 137.632 100.399 137.798Z" fill="#FFD0C2"/>
<path fill-rule="evenodd" clip-rule="evenodd" d="M77.6349 113.088L77.4928 113.068C76.852 113.02 76.6707 113.617 76.6707 113.617C76.273 115.16 75.8852 116.705 75.5216 118.256C75.4774 118.445 75.433 118.634 75.3886 118.823C74.3904 123.071 73.3777 127.381 73.7357 131.667C73.9856 134.664 76.7962 136.649 79.4455 138.326C85.6156 142.232 92.6505 144.744 99.5507 147.185C100.032 147.32 100.476 146.997 100.538 146.537L101.14 137.823C101.14 137.823 101.14 137.761 101.135 137.61C101.111 137.053 101.081 136.498 101.051 135.943C101.041 135.771 101.032 135.599 101.023 135.427C100.981 135.08 100.621 134.807 100.621 134.807C96.6322 132.754 92.606 130.812 88.5005 128.951L88.5186 128.848C89.1294 125.503 90.1247 122.188 91.1189 118.878C91.4222 117.868 91.7254 116.858 92.0175 115.848C92.154 115.225 91.8285 114.975 91.0453 114.856C88.3593 114.365 85.648 114.037 82.9343 113.723C81.3983 113.203 80.0172 112.912 79.0769 113.271C78.5959 113.212 78.1152 113.151 77.6349 113.088ZM79.0769 113.271C78.5251 113.481 78.1251 113.916 77.9346 114.658C77.7531 115.37 77.566 116.082 77.3786 116.796C76.0966 121.677 74.8019 126.607 75.2138 131.543C75.3619 133.316 76.9048 134.68 78.4845 135.868C81.6991 138.285 85.4051 139.976 89.1213 141.574C92.3828 142.976 95.7051 144.233 99.0467 145.431L99.125 145.458L99.6551 137.781C99.6494 137.346 99.6225 136.911 99.5955 136.475C99.5843 136.294 99.573 136.112 99.5634 135.931C95.5914 133.895 91.5444 131.95 87.4537 130.106C87.4537 130.106 86.8724 129.77 86.9973 128.947C87.4777 125.785 88.4205 122.684 89.368 119.567C89.6678 118.581 89.9681 117.593 90.2543 116.602L90.3532 116.26C88.9787 116.079 87.2616 115.395 85.5432 114.711C84.6584 114.359 83.7733 114.007 82.9343 113.723C82.6584 113.691 82.3825 113.659 82.1066 113.627C81.0963 113.511 80.086 113.395 79.0769 113.271Z" fill="black"/>
<path d="M84.7805 127.945C85.8809 128.026 86.9798 128.261 87.9909 128.718C87.9909 128.718 88.6958 129.328 88.2617 129.862C88.0234 130.155 87.6146 130.166 87.2164 129.998C86.4083 129.666 85.5384 129.505 84.6715 129.424C84.6715 129.424 83.8252 129.107 84.0347 128.458C84.1365 128.142 84.3872 127.931 84.7805 127.945Z" fill="black"/>
<path d="M90.3515 116.264C88.8303 121.539 87.0253 127.937 87.1052 128.326C87.1052 128.326 85.0489 127.869 84.593 127.963L87.4793 115.9L90.3515 116.264Z" fill="black" fill-opacity="0.25" style="mix-blend-mode:overlay"/>
<path d="M77.2565 134.856C78.0172 135.554 79.1624 136.453 81.3196 137.702C85.794 140.293 92.0564 142.993 97.5727 144.881C98.1197 145.068 98.6503 145.253 99.1628 145.433L99.275 143.219L89.6187 138.847C74.3224 132.128 75.1815 129.548 75.1815 129.548C75.1815 129.548 75.1536 130.556 75.1726 130.854C75.1916 131.152 75.2103 131.502 75.2391 131.768C75.2724 132.076 75.3955 132.39 75.3955 132.39C75.494 132.684 75.6261 132.964 75.8027 133.208C76.0802 133.59 76.2472 133.921 77.0642 134.671L77.2565 134.856Z" fill="black" fill-opacity="0.25" style="mix-blend-mode:overlay"/>
<path d="M77.1395 131.11C77.6058 131.142 77.4271 131.861 77.5523 132.201C77.7309 132.686 78.4156 132.718 78.639 133.007C78.8787 133.316 78.555 133.848 78.0444 133.666C77.1781 133.348 76.4761 132.541 76.6537 131.592C76.7015 131.336 76.8603 131.102 77.1395 131.11Z" fill="black"/>
<path fill-rule="evenodd" clip-rule="evenodd" d="M173.053 108.327C172.504 107.455 172.275 106.823 172.275 106.823C171.531 105.562 170.738 103.977 169.136 103.719C166.883 103.357 166.957 101.974 166.957 101.974C167.21 100.19 169.055 99.7924 170.498 99.917C170.527 99.9971 170.557 100.074 170.584 100.154C171.474 102.683 172.302 105.401 173.053 108.327Z" fill="#7C76BB"/>
<path fill-rule="evenodd" clip-rule="evenodd" d="M171.366 100.146C171.024 99.1651 170.627 99.1577 170.051 99.1524C168.229 99.1461 166.322 100.286 166.215 101.945C166.215 101.945 166.229 102.291 166.297 102.516C166.662 103.735 167.59 104.019 168.532 104.306C169.199 104.509 169.872 104.715 170.357 105.254C170.858 105.811 171.593 107.116 171.593 107.116C171.788 107.615 172.042 108.09 172.318 108.549C172.37 108.634 172.37 108.634 172.422 108.718L172.422 108.718C172.773 109.241 173.477 109.123 173.712 108.664C173.821 108.451 173.77 108.14 173.77 108.14C173.313 106.368 172.815 104.603 172.265 102.855C171.979 101.947 171.68 101.043 171.366 100.146ZM167.701 102.012C167.865 101.053 168.979 100.652 169.95 100.636H169.966C170.132 101.113 170.295 101.591 170.453 102.071C170.645 102.652 170.832 103.236 171.011 103.82L170.949 103.768C170.569 103.457 170.137 103.214 169.669 103.077C168.391 102.704 167.688 102.083 167.701 102.012Z" fill="black"/>
<path d="M153.557 184.335H97.1934L99.799 146.482L100.398 137.799H149.448L153.557 184.335Z" fill="#3174F5"/>
<path fill-rule="evenodd" clip-rule="evenodd" d="M150.187 137.732C150.108 137.273 150.077 137.193 149.57 137.065C149.549 137.064 149.529 137.062 149.509 137.06C149.489 137.059 149.468 137.057 149.448 137.055H100.398C99.7336 137.111 99.6582 137.746 99.6582 137.746L99.0588 146.429L96.4531 184.282C96.4535 184.311 96.4537 184.339 96.4538 184.366C96.4565 184.783 96.4579 185.015 97.1933 185.075H153.557C153.96 185.042 154.057 184.926 154.18 184.737C154.189 184.723 154.198 184.71 154.207 184.698C154.259 184.627 154.298 184.573 154.296 184.268L150.187 137.732ZM100.539 146.531L101.091 138.538H148.769L152.747 183.591H97.9879L100.539 146.531Z" fill="black"/>
<path d="M148.127 183.601L152.686 183.604L148.773 138.548L145.282 138.548L148.127 183.601Z" fill="black" fill-opacity="0.25" style="mix-blend-mode:overlay"/>
<path d="M178.298 87.1364C178.671 87.1887 178.947 87.4279 178.962 87.8742V97.1767C178.922 98.3386 178.111 98.0326 177.764 97.7613C177.587 97.6233 177.489 97.4812 177.479 97.1767V87.8742C177.484 87.7151 177.498 87.689 177.523 87.6205C177.659 87.248 178.215 87.1305 178.298 87.1364Z" fill="black"/>
<path d="M181.615 86.5542C181.77 86.57 181.794 86.5854 181.86 86.6139C182.124 86.7287 182.296 86.9982 182.306 87.2944V96.0146C182.266 97.1866 181.439 96.8693 181.096 96.5901C180.926 96.4518 180.832 96.3126 180.822 96.0146V87.2944C180.828 87.1389 180.841 87.1131 180.865 87.046C180.995 86.6807 181.533 86.5513 181.615 86.5542Z" fill="black"/>
<path d="M184.948 90.7622C185.082 90.7738 185.119 90.7883 185.19 90.8177C185.463 90.9308 185.638 91.1477 185.648 91.503V97.4695C185.627 98.2212 184.193 98.5257 184.164 97.4695V91.503C184.168 91.3676 184.18 91.3302 184.206 91.2581C184.333 90.8928 184.877 90.7604 184.948 90.7622Z" fill="black"/>
<path fill-rule="evenodd" clip-rule="evenodd" d="M188.435 104.954C188.435 104.954 188.444 108.218 187.058 110.373C186.85 110.696 186.651 111.026 186.464 111.358C185.98 112.222 185.663 113.162 185.476 114.133C184.85 117.362 182.431 126.873 178.22 133.479C176.95 135.476 175.466 136.957 174.359 137.839C173.184 138.776 171.51 138.788 170.338 137.845C166.18 134.497 161.71 127.712 158.531 115.637L172.311 113.821L172.647 113.777L173.335 116.831L173.596 117.988C175.184 115.578 175.952 112.961 176.261 111.661C176.199 111.622 176.134 111.578 176.074 111.533C175.003 110.782 174.196 109.916 173.608 109.135C173.395 108.853 173.211 108.58 173.053 108.328C172.504 107.456 172.276 106.823 172.276 106.823C171.531 105.562 170.739 103.977 169.136 103.719C166.884 103.357 166.958 101.974 166.958 101.974C167.21 100.191 169.056 99.7929 170.498 99.9176C170.632 99.9295 170.762 99.9443 170.887 99.9651C171.338 100.039 171.723 100.164 171.97 100.303C172.949 100.864 173.546 101.413 173.979 101.485C174.015 101.49 174.053 101.493 174.089 101.493C174.591 101.493 174.976 101.045 174.973 100.544L174.878 87.8777C174.878 86.9518 175.626 86.2039 176.549 86.2039C177.012 86.2039 177.431 86.3938 177.73 86.6936C178.033 86.9963 178.22 87.4118 178.22 87.8777V85.2721C178.22 84.3105 178.998 83.4855 179.959 83.5211C180.395 83.5389 180.787 83.7229 181.075 84.0108C181.378 84.3135 181.565 84.7319 181.565 85.1919V87.296C181.565 86.3701 182.312 85.6223 183.235 85.6223C183.698 85.6223 184.117 85.8092 184.417 86.1119C184.719 86.4146 184.906 86.8331 184.906 87.296V91.5042C184.906 90.5813 185.657 89.8334 186.577 89.8334C187.04 89.8334 187.458 90.0204 187.761 90.3201C188.064 90.6228 188.251 91.0412 188.251 91.5042L188.435 104.954Z" fill="#FFD0C2"/>
<path fill-rule="evenodd" clip-rule="evenodd" d="M182.303 85.0342C182.216 83.8026 181.125 82.7945 179.922 82.7749C179.212 82.7731 178.633 83.0459 178.178 83.5225C177.444 84.2923 177.465 85.6387 177.465 85.6387C175.877 84.9983 174.167 86.2904 174.138 87.8434C174.125 89.9503 174.155 92.0571 174.185 94.164C174.216 96.2926 174.246 98.4212 174.232 100.55C174.229 100.675 174.094 100.757 173.969 100.691C173.538 100.461 173.259 100.265 172.998 100.082C172.817 99.9553 172.645 99.8345 172.437 99.7124C170.822 98.7669 166.827 99.1105 166.271 101.607C166.265 101.633 166.258 101.658 166.251 101.684C166.208 101.847 166.157 102.039 166.299 102.515C166.664 103.734 167.593 104.018 168.535 104.305C169.201 104.508 169.874 104.714 170.36 105.253C170.861 105.81 171.595 107.115 171.595 107.115C172.326 108.981 173.65 110.601 175.232 111.83C175.578 112.096 175.387 112.085 175.387 112.085C175.021 113.427 174.534 114.737 173.904 115.974L173.371 113.61C173.232 113.166 173.191 113.092 172.672 113.032L172.215 113.082L158.435 114.898C157.498 115.103 157.89 116.107 157.89 116.107C158.378 117.929 158.919 119.737 159.534 121.521C161.668 127.711 164.563 133.896 169.467 138.082C170.667 139.107 172.315 139.576 173.761 139.023C175.611 138.315 177.142 136.355 178.406 134.536C182.333 128.891 184.569 121.888 186.064 114.961C186.284 113.92 186.509 112.878 186.993 111.94C188.14 109.716 189.162 107.434 189.178 104.948C189.157 103.45 189.133 101.952 189.109 100.455C189.06 97.4599 189.011 94.4649 188.993 91.4696C188.961 89.819 187.182 88.7201 185.749 89.2347C185.716 89.2471 185.682 89.2602 185.649 89.2741V87.2905C185.645 86.5593 185.299 85.8441 184.729 85.3933C183.787 84.6493 182.303 85.0342 182.303 85.0342ZM178.962 85.2704C178.966 84.7538 179.375 84.2709 179.883 84.2582C180.91 84.2462 180.873 85.4353 180.837 86.632C180.83 86.8543 180.823 87.0769 180.823 87.292C180.893 88.1384 182.044 88.1702 182.266 87.5366C182.286 87.4789 182.289 87.4173 182.293 87.3466C182.298 87.2318 182.305 87.0929 182.389 86.9074C182.799 85.9981 184.13 86.4667 184.164 87.2549C184.193 88.2 184.184 89.1458 184.174 90.0915C184.17 90.5611 184.165 91.0307 184.165 91.5002C184.243 92.4451 185.579 92.2935 185.649 91.5047C185.649 91.5047 185.839 90.7636 186.291 90.6164C186.866 90.4295 187.501 90.9046 187.509 91.5076C187.53 93.0011 187.56 94.4946 187.591 95.988C187.651 98.9849 187.712 101.982 187.693 104.979C187.658 107.277 186.827 108.977 186.042 110.583C185.538 111.615 185.052 112.608 184.808 113.698C184.787 113.794 184.787 113.794 184.767 113.891L184.767 113.891C184.02 117.686 182.896 121.413 181.509 125.037C180.178 128.516 178.671 131.957 176.347 134.802C174.994 136.461 173.393 138.182 171.685 137.714C170.564 137.406 169.658 136.373 168.805 135.4C168.696 135.277 168.589 135.154 168.482 135.034C163.791 129.773 161.311 123.012 159.468 116.258L172.073 114.597L172.612 116.99L172.873 118.147C173.209 119.211 174.255 118.333 174.255 118.333C175.292 116.736 176.065 114.98 176.621 113.16C176.657 113.043 176.696 112.926 176.734 112.809C176.942 112.179 177.147 111.558 176.83 111.18C176.778 111.118 176.765 111.109 176.636 111.018C176.603 110.994 176.561 110.965 176.51 110.928C175.447 110.166 174.516 109.211 173.798 108.112C173.306 107.357 172.847 106.326 172.847 106.326C172.821 106.281 172.795 106.236 172.768 106.191C172.169 105.161 171.536 104.075 170.495 103.442C170.368 103.365 170.237 103.296 170.102 103.235C169.876 103.134 169.602 103.026 169.321 102.914C168.52 102.597 167.662 102.256 167.703 102.011C167.903 100.824 169.319 100.546 170.478 100.657C171.273 100.733 171.848 101.123 172.4 101.498C172.852 101.805 173.288 102.101 173.816 102.205C174.792 102.397 175.71 101.509 175.716 100.539C175.705 99.1319 175.682 97.7243 175.66 96.3166C175.614 93.494 175.568 90.6713 175.621 87.8494C175.651 86.9083 177.008 86.7483 177.372 87.4386C177.441 87.568 177.467 87.7182 177.494 87.8666C177.531 88.0764 177.568 88.2828 177.721 88.4218C178.158 88.8213 178.913 88.4702 178.962 87.8737V85.2704Z" fill="black"/>
<path fill-rule="evenodd" clip-rule="evenodd" d="M178.699 112.911C178.314 112.776 178.115 112.654 178.115 112.654C177.139 112.267 176.305 111.768 175.598 111.224" fill="#FFD0C2"/>
<path d="M175.628 110.483C176.135 110.513 176.546 111.014 177.054 111.313C177.482 111.564 177.93 111.781 178.391 111.965L178.977 112.223C179.686 112.526 179.415 113.962 178.373 113.583C178.076 113.472 177.629 113.228 177.793 113.324C177.844 113.354 176.085 112.661 175.102 111.775C175.064 111.741 175.03 111.704 175 111.663C174.681 111.229 174.921 110.469 175.628 110.483Z" fill="black"/>
<path d="M178.298 87.282C178.671 87.3342 178.947 87.5734 178.962 88.0197V97.3222C178.922 98.4841 178.111 98.1781 177.764 97.9069C177.587 97.7689 177.489 97.6267 177.479 97.3222V88.0197C177.484 87.8606 177.498 87.8345 177.523 87.766C177.659 87.3935 178.215 87.276 178.298 87.282Z" fill="black"/>
<path d="M181.644 86.7024C182.017 86.7546 182.292 86.9938 182.308 87.4401V96.7492C182.294 97.1501 182.152 97.2329 182.023 97.3338C181.587 97.6742 180.847 97.4059 180.824 96.7492V87.4401C180.83 87.2811 180.844 87.2549 180.869 87.1864C181.005 86.8139 181.56 86.6964 181.644 86.7024Z" fill="black"/>
<path d="M184.949 90.9053C185.084 90.9169 185.121 90.9314 185.192 90.9608C185.465 91.0739 185.64 91.2908 185.65 91.6463V97.6129C185.628 98.372 184.195 98.6394 184.166 97.6129V91.6463C184.17 91.5107 184.182 91.4733 184.208 91.4012C184.335 91.0359 184.879 90.9035 184.949 90.9053Z" fill="black"/>
<path d="M174.641 115.564C174.825 115.589 174.872 115.617 174.961 115.672C175.701 116.133 174.91 117.325 174.219 118.426C172.215 121.615 169.366 124.202 168.485 127.787C168.485 127.787 168.294 128.268 167.897 128.34C167.36 128.438 166.898 127.979 167.102 127.205C168.276 122.837 172.181 119.616 173.898 115.985C173.898 115.985 174.211 115.539 174.641 115.564Z" fill="black"/>
<path d="M181.116 99.6486C182.203 99.6574 183.281 99.8996 184.255 100.384C184.255 100.384 184.816 101.156 184.1 101.225C183.661 101.268 183.205 100.87 182.647 100.729C181.331 100.396 179.896 100.486 178.658 100.967C178.291 101.115 178.242 100.992 178.125 100.856C177.915 100.611 178.061 100.237 178.435 100.099C179.305 99.7856 180.084 99.6485 181.116 99.6486Z" fill="black"/>
<path d="M186.802 110.103C187.443 110.149 187.707 110.884 187.063 111.673C186.915 111.855 186.76 112.031 186.597 112.199C185.862 112.965 184.945 113.643 183.912 113.655C183.912 113.655 183.042 113.422 183.177 112.764C183.309 112.121 184.163 112.255 184.805 111.805C185.343 111.427 185.787 110.919 186.175 110.393C186.175 110.393 186.428 110.091 186.802 110.103Z" fill="black"/>
<path d="M184.055 116.991C183.547 118.996 182.895 121.241 182.423 122.552C181.514 125.078 180.114 128.947 178.7 131.321C177.286 133.695 175.821 135.514 175.114 136.17C174.407 136.827 173.584 137.637 172.74 137.798C171.603 138.014 170.518 137.079 170.518 137.079C170.518 137.079 172.083 138.14 173.7 136.221C174.891 134.806 177.084 130.058 178.954 126.219C180.822 122.38 183.59 113.573 183.59 113.573C183.59 113.573 183.87 113.804 184.87 113.463C184.87 113.463 184.582 114.908 184.112 116.764L184.055 116.991Z" fill="black" fill-opacity="0.25" style="mix-blend-mode:overlay"/>
<path d="M184.057 112.177C184.334 112.177 184.941 111.798 185.335 111.419C185.73 111.041 186.355 110.232 186.936 108.944C187.517 107.656 187.719 104.954 187.719 104.954L187.593 98.0332C187.593 98.0332 187.618 92.0471 187.466 91.2894C187.315 90.5318 186.557 90.5822 186.557 90.5822C186.557 90.5822 187.012 90.903 187.062 92.094C187.113 93.2849 186.959 101.693 186.838 103.888C186.744 105.598 186.38 108.363 185.749 109.98C185.117 111.596 184.057 112.177 184.057 112.177Z" fill="black" fill-opacity="0.25" style="mix-blend-mode:overlay"/>
<path d="M172.82 117.853L172.093 114.61L169.553 114.924L170.985 120.464L172.07 118.986L172.82 117.853Z" fill="black" fill-opacity="0.25" style="mix-blend-mode:overlay"/>
<rect width="4.88719" height="17.5718" transform="matrix(-1 0 0 1 126.996 138.47)" fill="black" fill-opacity="0.25" style="mix-blend-mode:overlay"/>
<path d="M140.273 140.535C140.701 140.567 140.842 141.35 140.273 141.394C139.303 141.418 138.333 141.394 137.363 141.394C136.936 141.383 136.713 140.534 137.363 140.534C138.333 140.534 139.303 140.51 140.273 140.535Z" fill="black"/>
<path d="M134.961 140.539C135.396 140.655 135.399 141.349 134.885 141.393H99.8404C99.3854 141.354 99.281 140.581 99.8404 140.533H134.885C134.911 140.535 134.936 140.537 134.961 140.539Z" fill="black"/>
<path d="M110.853 143.716C111.497 143.803 110.968 144.905 110.502 145.735C108.649 149.035 105.44 151.729 101.634 152.223C101.634 152.223 101.254 152.219 101.158 151.942C101.066 151.675 101.166 151.425 101.659 151.348C105.544 150.697 108.824 147.598 110.413 143.977C110.413 143.977 110.594 143.705 110.853 143.716Z" fill="black"/>
<path d="M137.938 143.715C138.32 143.767 138.319 144.022 138.406 144.213C140.051 147.798 143.287 150.9 147.192 151.366C147.192 151.366 147.598 151.507 147.578 151.827C147.543 152.37 146.572 152.162 145.828 151.944C142.162 150.87 139.132 147.966 137.543 144.397C137.543 144.397 137.42 143.691 137.938 143.715Z" fill="black"/>
<path fill-rule="evenodd" clip-rule="evenodd" d="M148.021 9.05817C152.84 13.8112 159.116 22.2451 158.664 42.4188L158.636 45.8438C158.631 46.6119 158.602 47.374 158.553 48.1292C158.013 56.2933 151.139 62.5943 142.957 62.5943H108.508C99.7992 62.5943 92.7088 55.4805 92.8679 46.7733C92.869 46.7151 92.8702 46.657 92.8714 46.5988C92.9293 29.4761 96.349 19.989 100.074 14.7315C103.803 9.47128 107.837 8.44624 109.129 8.24532C109.448 8.19843 109.754 8.0827 110.008 7.88712C110.154 7.77138 110.297 7.64734 110.432 7.50934C114.137 3.75878 129.992 -4.4258 143.813 5.40851" fill="#7BA4F5"/>
<path d="M129.34 0.00011188C134.538 0.030679 139.669 1.62195 143.994 4.62851C144.496 4.97781 144.862 6.02718 143.904 6.145C143.578 6.18536 143.267 5.92717 142.91 5.68412C134.766 0.176393 123.545 0.329228 114.537 5.45412C113.219 6.20406 111.957 7.0632 110.871 8.1197C110.84 8.14908 110.809 8.17816 110.778 8.20695C110.317 8.6245 109.758 8.8904 109.128 8.99754C108.81 9.05511 108.772 9.06817 108.61 9.10853C103.812 10.3066 100.288 14.9092 98.1412 19.6503C94.4185 27.8738 93.6668 37.2315 93.6148 46.4022C93.6148 46.4022 93.5772 49.4041 94.385 51.7803C96.3534 57.5682 102.169 61.7927 108.411 61.8523C119.957 61.8894 131.503 61.8873 143.049 61.8523C150.312 61.787 157.157 55.8591 157.792 48.3532C157.863 47.5166 157.887 46.6768 157.895 45.8375L157.923 42.4083C158.166 30.891 156.495 19.0476 148.402 10.5048C147.99 10.0704 147.412 9.48068 147.412 9.48068C147.022 8.78921 147.811 7.80275 148.658 8.64409C151.312 11.2818 153.554 14.3741 155.168 17.7665C158.775 25.348 159.584 34.0139 159.407 42.4297C159.377 46.1538 159.495 49.9347 158.098 53.2905C155.656 59.1582 149.502 63.2783 143.058 63.3361C131.506 63.3712 119.954 63.3732 108.401 63.3361C101.687 63.272 95.2316 58.7457 93.013 52.3533C92.0268 49.5115 92.0939 46.4426 92.18 43.4559C92.4346 34.6096 93.3504 25.6335 97.4957 17.5753C99.8636 12.9722 103.529 8.67377 108.54 7.60124C109.1 7.48165 109.519 7.34573 110.156 6.74388C112.942 4.14894 116.591 2.51404 120.327 1.37178C123.244 0.47969 126.327 -0.00849441 129.34 0.00011188Z" fill="black"/>
<path d="M143.558 28.0812C143.806 28.1364 143.839 28.2165 143.908 28.3569C145.207 31.6095 146.839 34.7193 147.183 38.1678C147.557 41.9231 146.653 45.7238 145.004 49.1242C144.975 49.1847 144.946 49.2456 144.918 49.3067C144.854 49.4497 144.794 49.594 144.739 49.7406C144.694 49.8602 144.652 49.9812 144.615 50.1035C144.233 51.355 144.495 53.0368 146.087 53.5374C146.087 53.5374 146.776 54.1728 146.104 54.3897C145.787 54.4921 145.416 54.2517 145.062 54.0318C144.328 53.5763 143.775 52.8385 143.601 51.9773C143.235 50.1768 144.387 48.5152 145.007 46.9687C146.632 42.9092 146.977 38.2215 145.321 34.1771C144.58 32.4031 143.854 30.6183 143.139 28.8309C143.139 28.8309 142.944 28.0391 143.558 28.0812Z" fill="black"/>
<path d="M106.539 28.0865C107.264 28.2901 106.534 29.8057 105.937 31.1186C105.688 31.664 105.42 32.2 105.132 32.7256C104.105 34.5988 102.737 36.3729 102.793 38.647C102.894 42.8246 107.18 46.3523 106.631 51.4351C106.611 51.6223 106.583 51.8084 106.547 51.993C106.244 53.5374 105.251 55.2144 103.375 55.247C103.375 55.247 102.641 54.9746 102.994 54.5265C103.232 54.2247 103.724 54.3906 104.195 54.146C105.511 53.4629 105.815 51.7565 105.781 50.4323C105.772 50.1082 105.743 49.7847 105.697 49.4636C105.262 46.4206 103.373 43.752 102.34 40.79C100.953 36.8124 104.811 32.4962 106.008 28.4557C106.008 28.4557 106.099 28.0313 106.539 28.0865Z" fill="black"/>
<path d="M139.375 24.7438C139.375 24.7438 142.319 25.9201 146.892 25.9202L139.375 24.7438Z" fill="#42CEB8"/>
<path d="M139.416 24.0016C139.691 24.0251 139.72 24.0799 139.831 24.1192C142.082 24.8994 144.509 25.172 146.894 25.1767C146.894 25.1767 148.134 25.6837 147.432 26.4276C147.21 26.664 146.852 26.6614 146.565 26.6586C144.113 26.6243 141.646 26.3298 139.34 25.5196C138.593 25.2569 138.38 23.9774 139.416 24.0016Z" fill="black"/>
<path fill-rule="evenodd" clip-rule="evenodd" d="M107.822 24.9746C107.822 24.9746 105.455 26.7629 103.344 26.9036L107.822 24.9746Z" fill="#FFD0C2"/>
<path d="M107.859 24.2347C108.528 24.2836 108.804 25.1968 108.086 25.7005C106.691 26.6802 105.115 27.5096 103.453 27.6405C102.648 27.704 102.121 26.2788 103.419 26.154C104.866 25.9985 106.22 25.2419 107.381 24.38C107.381 24.38 107.539 24.227 107.859 24.2347Z" fill="black"/>
<path d="M111.802 15.1485C112.196 15.9104 112.677 16.6562 113.264 17.3416L111.802 15.1485Z" fill="#42CEB8"/>
<path d="M111.825 14.406C112.753 14.451 113.174 15.9344 113.876 16.9206C114.28 17.5302 113.421 18.6948 112.584 17.6848C112.489 17.5692 112.396 17.4519 112.305 17.3327C111.496 16.2728 110.551 14.9634 111.459 14.4897C111.572 14.4308 111.696 14.4041 111.825 14.406Z" fill="black"/>
<path d="M136.402 18.4078C136.858 18.4724 136.958 19.0254 137.227 19.457C138.846 22.0511 141.197 24.2624 144.005 25.3259C144.005 25.3259 144.373 25.5723 144.269 25.883C144.07 26.4807 142.884 25.8615 141.969 25.331C139.437 23.863 137.378 21.6253 135.968 19.0654C135.968 19.0654 135.806 18.3717 136.402 18.4078Z" fill="black"/>
<path d="M108.733 5.09825C109.658 5.21548 109.767 6.9581 109.946 8.08553C109.946 8.08553 109.648 8.90846 109.198 8.47637C109.024 8.31018 107.724 7.62524 106.416 7.43441C105.748 7.33707 105.073 7.30176 104.399 7.29998C104.399 7.29998 104.163 7.28366 104.041 7.11806C103.816 6.8112 104.02 6.40314 104.681 6.41175C106.106 6.43757 107.554 6.6005 108.834 7.19285C108.834 7.19285 108.836 6.32331 108.411 5.88706C108.411 5.88706 108.137 5.06323 108.733 5.09825Z" fill="black"/>
<path d="M121.223 14.7074C121.698 14.7895 121.622 15.5205 121.719 16.1505C122.268 19.7101 124.763 22.9492 127.932 24.5804C127.932 24.5804 128.177 24.7388 128.173 24.9823C128.169 25.315 127.783 25.5136 127.407 25.3095C123.833 23.3344 121.122 19.6336 120.753 15.5787C120.746 15.4981 120.739 15.4174 120.734 15.3367C120.712 15.0305 120.831 14.7088 121.183 14.704C121.196 14.7052 121.21 14.7062 121.223 14.7074Z" fill="black"/>
<path fill-rule="evenodd" clip-rule="evenodd" d="M133.617 57.4807V64.7332C133.617 64.7967 133.611 64.8602 133.6 64.9181C133.542 65.219 133.36 65.492 133.084 65.7018C133.026 65.746 132.971 65.7846 132.907 65.8205C130.211 67.3771 127.534 67.8848 125.144 67.8543C125.045 67.8543 124.943 67.8516 124.844 67.846C121.331 67.7468 118.477 66.5132 117.158 65.8398C117.114 65.8149 117.064 65.7903 117.025 65.757C116.887 65.6769 116.774 65.5748 116.681 65.4674C116.661 65.4481 116.647 65.4285 116.636 65.4092C116.559 65.3264 116.509 65.2326 116.474 65.1335C116.46 65.1196 116.454 65.1056 116.454 65.0893C116.429 65.0368 116.416 64.9789 116.402 64.9181C116.385 64.8519 116.377 64.7827 116.377 64.7139V57.4751C116.377 57.4751 116.38 57.4751 116.38 57.4781C117.569 58.1182 118.753 58.6702 119.854 59.1254C122.103 60.0611 124.027 60.5826 125.001 60.5826C125.536 60.5826 126.359 60.4282 127.363 60.13C129.08 59.6252 131.343 58.7088 133.617 57.4807Z" fill="#FFD0C2"/>
<path fill-rule="evenodd" clip-rule="evenodd" d="M118.252 57.5997L116.46 56.7396C116.008 56.7099 115.655 57.0456 115.635 57.4768V64.7212C115.648 65.6177 116.954 66.5698 116.954 66.5698C119.497 67.8337 122.316 68.5759 125.139 68.5979C127.335 68.6151 129.543 68.1949 131.562 67.3268C132.945 66.7318 134.345 65.9955 134.358 64.7387V57.4824C134.343 57.1515 134.121 56.8479 133.805 56.7648C133.54 56.6951 133.265 56.8289 133.265 56.8289C131.537 57.7587 129.743 58.5722 127.884 59.1906C127.845 59.2034 127.807 59.2163 127.768 59.2292C126.707 59.5829 125.599 59.9521 124.518 59.8035C122.326 59.5025 120.26 58.563 118.252 57.5997ZM117.229 65.0464C117.134 65.0189 117.124 65.016 117.119 64.7099V58.6974L117.162 58.7184C119.268 59.7586 121.456 60.7118 123.752 61.1763C126.723 61.7778 129.671 60.3049 132.459 58.9116C132.598 58.8421 132.737 58.7727 132.875 58.7039V64.731C132.875 64.731 132.763 65.0369 132.562 65.1645C130.309 66.5341 127.565 67.2084 124.875 67.1063C122.308 67.0087 119.787 66.3442 117.506 65.1859C117.46 65.1607 117.406 65.1218 117.406 65.1218C117.327 65.0746 117.27 65.0582 117.229 65.0464Z" fill="black"/>
<path d="M129.324 66.599C130.357 66.283 131.182 65.9666 132.292 65.3894C132.34 65.3642 132.658 65.1831 132.698 65.1493C132.823 65.0472 132.859 64.9935 132.917 64.7991C132.931 64.7522 132.922 64.4822 132.922 64.4291L132.922 58.5898C131.875 59.1813 130.901 59.5264 129.97 59.9523L129.981 64.5899C129.981 65.027 129.918 65.4636 129.772 65.8806C129.655 66.2117 129.563 66.4198 129.324 66.599Z" fill="black" fill-opacity="0.25" style="mix-blend-mode:overlay"/>
<path fill-rule="evenodd" clip-rule="evenodd" d="M106.452 33.9428V41.9244C105.337 42.0039 104.143 41.6311 103.165 40.8035C101.327 39.2395 100.963 36.6523 102.35 35.018C103.336 33.8573 104.943 33.4938 106.452 33.9428Z" fill="#FFD0C2"/>
<path fill-rule="evenodd" clip-rule="evenodd" d="M107.194 33.9418C107.17 33.1853 106.11 33.0281 105.251 33.0138C103.963 33.0037 102.656 33.5314 101.813 34.5039C99.5189 37.1481 101.384 41.2379 104.341 42.3427C105.351 42.7202 106.637 42.9823 107.069 42.3356C107.08 42.3182 107.091 42.3037 107.102 42.2902C107.153 42.2221 107.186 42.1789 107.194 41.9234V33.9418ZM102.266 37.0369C102.418 35.5904 103.76 34.509 105.175 34.4968C105.214 34.4968 105.252 34.4974 105.291 34.4983C105.431 34.5028 105.571 34.5144 105.71 34.5351L105.656 41.1557C103.69 40.8649 102.063 38.9766 102.266 37.0369Z" fill="black"/>
<path d="M104.436 36.7732C105.257 36.8424 104.46 38.9709 106.176 39.443C106.176 39.443 106.409 39.5382 106.471 39.7326C106.671 40.3522 105.254 40.4215 104.482 39.3629C104.031 38.7454 103.886 37.9481 103.964 37.1929C103.993 36.9516 104.147 36.7627 104.436 36.7732Z" fill="black"/>
<path fill-rule="evenodd" clip-rule="evenodd" d="M146.781 40.8713C145.804 41.699 144.609 42.0718 143.494 41.9922V34.0106C145.003 33.5616 146.61 33.9252 147.596 35.0858C148.983 36.7201 148.62 39.3074 146.781 40.8713Z" fill="#FFD0C2"/>
<path fill-rule="evenodd" clip-rule="evenodd" d="M149.17 37.7646C149.339 35.2857 147.184 33.1069 144.779 33.0859C144.008 33.0856 143.002 33.1456 142.791 33.7799C142.789 33.7851 142.787 33.79 142.786 33.7947C142.768 33.8484 142.757 33.8798 142.753 34.0143L142.753 41.9958C142.771 42.5489 143.188 42.7311 143.628 42.7456C146.424 42.8382 148.985 40.4757 149.17 37.7646ZM144.237 34.6087C144.237 34.6087 144.51 34.574 144.713 34.5706C145.651 34.563 146.603 34.9743 147.153 35.7246C148.771 37.9315 146.639 40.9413 144.237 41.2367L144.237 34.6087Z" fill="black"/>
<path d="M145.5 36.8392C146.551 36.9018 145.936 39.9244 143.933 40.3723C143.933 40.3723 143.502 40.3632 143.417 40.0536C143.27 39.5185 144.27 39.4457 144.662 38.9458C145.016 38.4931 145.102 37.8813 145.041 37.3221C145.041 37.3221 145.067 36.8343 145.5 36.8392Z" fill="black"/>
<path d="M141.566 61.8935C141.566 61.8935 142.106 62.0107 143.888 61.8935C145.67 61.7762 147.523 61.1898 147.523 61.1898C147.523 61.1898 149.376 60.5568 151.017 59.5419C152.659 58.5266 153.714 57.4378 154.769 56.1011C155.825 54.7645 156.247 53.8264 156.95 52.3257C157.654 50.8246 157.912 47.729 157.912 47.729C157.865 47.0491 158.061 43.5793 157.912 37.059C157.754 30.1562 156.903 27.9601 156.012 24.1846C155.121 20.4088 154.019 18.8143 153.691 17.9934C153.362 17.1725 152.283 15.2732 150.243 12.5996C148.203 9.92634 146.984 9.05859 146.984 9.05859C146.984 9.05859 150.709 13.219 152.917 20.2212C154.246 24.4368 155.59 33.3411 155.402 39.9371C155.215 46.5333 155.198 49.3526 152.565 53.8264C148.44 60.8367 141.566 61.8935 141.566 61.8935Z" fill="black" fill-opacity="0.25" style="mix-blend-mode:overlay"/>
<path fill-rule="evenodd" clip-rule="evenodd" d="M143.492 25.7116L143.489 32.1046L143.486 42.9829C143.486 48.8657 138.502 54.096 133.619 57.4824C133.619 57.4824 133.616 57.4824 133.616 57.4851V57.4795C131.343 58.7057 129.081 59.6233 127.364 60.1275C126.359 60.4252 125.534 60.5822 125 60.5822C124.027 60.5822 122.101 60.0587 119.853 59.1244C118.753 58.6701 117.571 58.116 116.381 57.4768C116.381 57.4741 116.378 57.4741 116.378 57.4741C111.493 54.0847 106.511 48.8577 106.511 42.9829L106.488 32.1458L106.477 26.4897C106.476 25.9831 106.882 25.6872 107.291 25.3881C109.423 23.828 112.49 20.3608 113.264 17.3403C113.264 17.3403 117.67 24.2126 127.598 25.5988C127.893 25.6401 128.15 25.3976 128.116 25.1026C127.94 23.4742 127.667 18.834 130.012 17.3403C130.012 17.3403 134.744 24.8008 143.492 25.7116Z" fill="#FFD0C2"/>
<path fill-rule="evenodd" clip-rule="evenodd" d="M130.788 17.1647C130.536 16.803 130.397 16.6673 130.116 16.6068C129.77 16.5825 129.69 16.6465 129.603 16.7161C129.585 16.7308 129.566 16.7458 129.545 16.7602C127.293 18.2678 127.082 21.8308 127.342 24.8122C122.161 23.999 117.082 21.3397 114.025 17.1377C113.227 16.0213 112.546 17.1535 112.546 17.1535C111.792 20.033 109.622 22.5977 107.188 24.5347C107.176 24.5439 107.164 24.5531 107.153 24.5624C106.479 25.0932 105.743 25.6725 105.734 26.4874C105.738 28.355 105.741 30.2236 105.744 32.0928C105.751 35.746 105.757 39.4017 105.769 43.0575C105.771 43.229 105.775 43.4002 105.784 43.5715C106.053 48.7011 109.379 52.7194 113.172 55.9476C114.517 57.0923 116.162 58.2025 116.257 58.2526C116.449 58.3541 116.644 58.4583 116.843 58.5643C119.502 59.9817 122.736 61.7062 125.757 61.2621C128.498 60.8591 131.067 59.6495 133.534 58.3642C133.747 58.2523 134.027 58.1016 134.027 58.1016C135.25 57.3608 136.324 56.4132 137.388 55.4654C140.886 52.3469 144.179 47.9435 144.228 43.0578C144.24 39.2783 144.237 35.4993 144.235 31.723C144.234 29.7188 144.233 27.7153 144.234 25.7128C144.188 25.0902 143.571 24.9748 143.571 24.9748C138.356 24.4157 133.74 21.3432 130.788 17.1647ZM128.857 25.0566C128.624 22.683 128.5 20.0967 129.88 18.4386C129.892 18.4252 129.903 18.4456 129.919 18.4761C129.929 18.496 129.942 18.5202 129.959 18.5422C129.99 18.5821 130.02 18.6218 130.051 18.6614L130.051 18.6618C133.181 22.6652 137.783 25.651 142.75 26.3686L142.747 32.1057C142.747 33.3101 142.747 34.5144 142.748 35.7188C142.75 38.162 142.752 40.6052 142.744 43.0485C142.687 48.6966 138.249 53.2718 133.533 56.6381C133.441 56.7028 133.35 56.7672 133.258 56.8313C131.507 57.7723 129.688 58.5959 127.801 59.2158C127.773 59.2251 127.744 59.2344 127.716 59.2438C126.663 59.5899 125.552 59.9552 124.464 59.7951C121.769 59.3986 119.213 58.1522 116.773 56.8467L116.689 56.788C115.262 55.7861 113.901 54.6865 112.652 53.4704C109.866 50.7594 107.293 47.1017 107.253 43.0482C107.247 41.401 107.237 39.7538 107.226 38.1067C107.201 34.2312 107.176 30.3565 107.218 26.4849C107.223 26.3628 107.368 26.2556 107.491 26.1654C107.512 26.1499 107.532 26.1349 107.551 26.1205C110.018 24.2556 112.181 21.8399 113.456 19.0111C113.578 18.7348 113.6 18.9847 113.6 18.9847C116.661 22.5186 120.879 24.9144 125.42 25.954C125.496 25.9716 125.574 25.9895 125.651 26.0075C126.869 26.29 128.173 26.5928 128.68 25.7854C128.879 25.4688 128.857 25.0566 128.857 25.0566Z" fill="black"/>
<path d="M134.002 56.3641C135.515 55.256 136.808 54.1378 138.056 52.829C140.8 49.9533 142.837 46.7055 142.814 42.5116L142.805 26.3234L142.093 26.2092C142.093 26.2092 141.596 26.108 140.963 25.9584C140.33 25.8091 140.035 25.6904 140.035 25.6904L140.007 42.5208C140.007 46.958 137.922 50.4406 135.508 53.0296C133.588 55.0886 129.537 58.8125 126.73 59.5413C129.732 58.711 131.808 57.6963 133.535 56.7119L134.002 56.3641Z" fill="black" fill-opacity="0.25" style="mix-blend-mode:overlay"/>
<path d="M125.965 39.6909C126.554 39.7154 126.809 40.6234 125.934 40.9303C125.124 41.2144 123.946 41.1394 123.643 40.5657C123.399 40.1019 123.922 39.5723 124.565 39.8207C125.08 40.0123 125.648 39.6885 125.965 39.6909Z" fill="black"/>
<path d="M117.869 41.6398C117.869 42.8471 116.376 43.8258 114.534 43.8255C112.692 43.8255 111.199 42.8468 111.199 41.6398C111.199 40.4325 112.692 39.4538 114.534 39.4541C116.376 39.4541 117.869 40.4328 117.869 41.6398Z" fill="white" fill-opacity="0.3"/>
<path d="M138.708 41.6401C138.708 42.8474 137.214 43.8258 135.372 43.8258C133.53 43.8258 132.037 42.8471 132.037 41.6401C132.037 40.4328 133.53 39.4541 135.372 39.4541C137.215 39.4544 138.708 40.4328 138.708 41.6401Z" fill="white" fill-opacity="0.3"/>
<path d="M126.245 43.918C126.709 43.9213 127.174 43.9551 127.63 44.0432C128.096 44.1334 128.551 44.4712 128.458 44.9638C128.375 45.398 127.91 45.6191 127.408 45.5122C125.872 45.198 124.178 45.4282 122.839 46.109C122.839 46.109 122.614 46.2058 122.425 46.1856C121.767 46.1159 121.468 45.1021 122.377 44.6839C123.576 44.1328 124.914 43.9156 126.245 43.918Z" fill="black"/>
<path d="M119.844 28.5448C120.39 28.602 120.388 28.7831 120.479 29.0146C120.645 29.4403 120.34 29.9651 119.856 30.0235L113.851 30.5784C113.029 30.6311 113.007 30.2508 113.043 29.7832C113.069 29.4362 113.359 29.1439 113.714 29.1009L119.72 28.5459C119.767 28.543 119.735 28.5397 119.844 28.5448Z" fill="black"/>
<path d="M130.079 28.5434L136.125 29.101C136.67 29.1668 136.666 29.3476 136.753 29.5807C136.925 30.0449 136.525 30.6129 135.989 30.5785L129.984 30.0236C129.317 29.9432 129.341 29.7192 129.312 29.3413C129.281 28.9265 129.645 28.54 130.079 28.5434Z" fill="black"/>
<path d="M116.792 36.3965C118.511 36.3965 118.514 33.7256 116.792 33.7256C115.073 33.7256 115.07 36.3965 116.792 36.3965Z" fill="black"/>
<path d="M132.852 36.3965C134.571 36.3965 134.574 33.7256 132.852 33.7256C131.134 33.7256 131.131 36.3965 132.852 36.3965Z" fill="black"/>
<path d="M125.303 54.2489C125.82 54.2592 126.334 54.3284 126.825 54.486C126.825 54.486 127.048 54.5774 127.112 54.7706C127.221 55.103 126.9 55.4324 126.426 55.295C125.521 55.0415 124.539 55.1145 123.638 55.3439C123.638 55.3439 123.309 55.3656 123.169 55.1573C123.006 54.9127 123.15 54.5539 123.467 54.4679C124.065 54.3118 124.686 54.2432 125.303 54.2489Z" fill="black"/>
<path d="M249.3 183.597C250.099 183.7 250.028 184.189 249.963 184.493C249.891 184.825 249.67 185.06 249.237 185.079H235.254C234.971 185.067 234.873 184.999 234.74 184.872C234.323 184.473 234.499 183.627 235.254 183.595H249.237C249.258 183.596 249.279 183.597 249.3 183.597Z" fill="#3B1B6A"/>
<path d="M228.161 183.596C228.644 183.691 228.738 183.89 228.847 184.053C228.847 184.053 229.262 184.477 228.445 185.023L228.161 185.079C172.866 185.078 117.571 185.079 62.2752 185.079L18.3454 185.079L18.0614 185.023L17.8208 184.862L17.6599 184.621L17.6035 184.337L17.6599 184.053L17.8208 183.813C18.0599 183.653 18.0635 183.652 18.3454 183.596C88.284 183.595 158.223 183.594 228.161 183.596Z" fill="#3B1B6A"/>
<path d="M12.8947 183.597C13.507 183.672 13.536 183.955 13.5716 184.247C13.6224 184.667 13.3497 185.058 12.8351 185.079H0.734037C0.169287 185.056 0.176409 184.892 0.063637 184.655C-0.149146 184.206 0.196292 183.616 0.734037 183.595H12.8351C12.855 183.596 12.8748 183.596 12.8947 183.597Z" fill="#3B1B6A"/>
</svg>
