<svg width="20" height="20" viewBox="0 0 20 20" fill="none" xmlns="http://www.w3.org/2000/svg">
<path d="M5.83464 1.66797H5.0013C2.5013 1.66797 1.66797 3.15964 1.66797 5.0013V5.83464V17.5013C1.66797 18.193 2.4513 18.5846 3.0013 18.168L4.4263 17.1013C4.75964 16.8513 5.2263 16.8846 5.5263 17.1846L6.90964 18.5763C7.23464 18.9013 7.76797 18.9013 8.09297 18.5763L9.49297 17.1763C9.78464 16.8846 10.2513 16.8513 10.5763 17.1013L12.0013 18.168C12.5513 18.5763 13.3346 18.1846 13.3346 17.5013V3.33464C13.3346 2.41797 14.0846 1.66797 15.0013 1.66797H5.83464ZM5.4763 6.69297C5.93464 6.69297 6.30964 7.06797 6.30964 7.5263C6.30964 7.98464 5.93464 8.35964 5.4763 8.35964C5.01797 8.35964 4.64297 7.98464 4.64297 7.5263C4.64297 7.06797 5.01797 6.69297 5.4763 6.69297ZM9.5263 11.7346C9.05964 11.7346 8.69297 11.3596 8.69297 10.9013C8.69297 10.443 9.06797 10.068 9.5263 10.068C9.98464 10.068 10.3596 10.443 10.3596 10.9013C10.3596 11.3596 9.98464 11.7346 9.5263 11.7346ZM10.218 7.33464L5.66797 11.8846C5.54297 12.0096 5.38464 12.068 5.2263 12.068C5.06797 12.068 4.90964 12.0096 4.78464 11.8846C4.54297 11.643 4.54297 11.243 4.78464 11.0013L9.33464 6.4513C9.5763 6.20964 9.9763 6.20964 10.218 6.4513C10.4596 6.69297 10.4596 7.09297 10.218 7.33464Z" fill="#027A48"/>
<path d="M15.007 1.66797V2.91797C15.557 2.91797 16.082 3.14297 16.4654 3.51797C16.8654 3.9263 17.082 4.4513 17.082 5.0013V7.01797C17.082 7.63464 16.807 7.91797 16.182 7.91797H14.582V3.34297C14.582 3.10964 14.7737 2.91797 15.007 2.91797V1.66797ZM15.007 1.66797C14.082 1.66797 13.332 2.41797 13.332 3.34297V9.16797H16.182C17.4987 9.16797 18.332 8.33464 18.332 7.01797V5.0013C18.332 4.08464 17.957 3.2513 17.357 2.64297C16.7487 2.04297 15.9237 1.6763 15.007 1.66797C15.0154 1.66797 15.007 1.66797 15.007 1.66797Z" fill="#027A48"/>
</svg>
