<svg width="25" height="24" viewBox="0 0 25 24" fill="none" xmlns="http://www.w3.org/2000/svg">
<path opacity="0.4" d="M11.51 20.02C16.4861 20.02 20.52 15.9861 20.52 11.01C20.52 6.03391 16.4861 2 11.51 2C6.53391 2 2.5 6.03391 2.5 11.01C2.5 15.9861 6.53391 20.02 11.51 20.02Z" fill="#D6F318"/>
<path d="M22.4901 18.95C22.1601 18.34 21.4601 18 20.5201 18C19.8101 18 19.2001 18.29 18.8401 18.79C18.4801 19.29 18.4001 19.96 18.6201 20.63C19.0501 21.93 19.8001 22.22 20.2101 22.27C20.2701 22.28 20.3301 22.28 20.4001 22.28C20.8401 22.28 21.5201 22.09 22.1801 21.1C22.7101 20.33 22.8101 19.56 22.4901 18.95Z" fill="#D6F318"/>
</svg>
