<svg width="248" height="185" viewBox="0 0 248 185" fill="none" xmlns="http://www.w3.org/2000/svg">
<path d="M210.735 49.6093H129.931C127.375 49.6093 125.304 47.5377 125.304 44.983V31.9472C125.304 29.3921 127.375 27.3209 129.931 27.3209H210.735C213.29 27.3209 215.361 29.3921 215.361 31.9472V44.983C215.361 47.5377 213.29 49.6093 210.735 49.6093Z" fill="white"/>
<path fill-rule="evenodd" clip-rule="evenodd" d="M215.874 31.8813C215.821 29.1117 213.445 26.8568 210.799 26.8067C183.821 26.6338 156.841 26.6338 129.863 26.8067C127.085 26.8596 124.839 29.2246 124.788 31.8813C124.761 36.2704 124.761 40.6603 124.788 45.0495C124.84 47.7834 127.213 50.0735 129.863 50.124C156.841 50.2939 183.821 50.2939 210.799 50.124C213.577 50.0711 215.823 47.6962 215.874 45.0495C215.901 40.6603 215.901 36.2704 215.874 31.8813ZM125.817 31.894C125.859 29.6745 127.789 27.8494 129.93 27.8357C138.908 27.8357 147.886 27.8165 156.864 27.7974C174.838 27.7592 192.812 27.7209 210.786 27.836C212.977 27.8775 214.803 29.7672 214.844 31.894C214.871 36.2746 214.871 40.6555 214.844 45.0361C214.801 47.2556 212.906 49.0539 210.786 49.0941C183.816 49.264 156.845 49.264 129.875 49.0941C127.656 49.0519 125.857 47.1557 125.817 45.0361C125.79 40.6555 125.79 36.2746 125.817 31.894Z" fill="#DCD6E3"/>
<path d="M203.602 33.3924C203.984 33.4277 203.975 33.541 204.044 33.7054C204.176 34.016 203.938 34.4096 203.57 34.4209H198.505C198.122 34.4093 198.124 34.2953 198.044 34.1358C197.89 33.8255 198.12 33.4034 198.505 33.3914C200.204 33.3914 201.904 33.3399 203.602 33.3924Z" fill="#DCD6E3"/>
<path d="M194.56 33.4029C195.038 33.5581 195.126 34.3505 194.453 34.4212H135.336C134.798 34.3646 134.663 33.4623 135.336 33.3916H194.453C194.488 33.3954 194.524 33.3992 194.56 33.4029Z" fill="#DCD6E3"/>
<path d="M203.638 37.9544C204.168 38.0642 204.168 38.9383 203.568 38.9792H177.736C177.189 38.9418 176.96 38.0028 177.736 37.9496H203.568C203.592 37.9513 203.615 37.9527 203.638 37.9544Z" fill="#DCD6E3"/>
<path d="M163.108 37.9547C163.607 38.0632 163.754 38.9277 163.035 38.9792H135.335C134.798 38.9407 134.656 37.998 135.335 37.9496H163.035C163.06 37.9513 163.084 37.953 163.108 37.9547Z" fill="#DCD6E3"/>
<path d="M193.03 42.4354C193.511 42.5916 193.56 43.3867 192.923 43.4537H135.335C134.784 43.3957 134.698 42.491 135.335 42.4241H192.923C192.958 42.4278 192.994 42.4316 193.03 42.4354Z" fill="#DCD6E3"/>
<path d="M85.967 177.762H5.16328C2.60817 177.762 0.536621 175.691 0.536621 173.136V160.1C0.536621 157.545 2.60817 155.474 5.16328 155.474H85.967C88.5221 155.474 90.5934 157.545 90.5934 160.1V173.136C90.5934 175.691 88.5221 177.762 85.967 177.762Z" fill="white"/>
<path fill-rule="evenodd" clip-rule="evenodd" d="M91.1062 160.034C91.0537 157.264 88.6726 155.01 86.0317 154.96C59.0535 154.79 32.0736 154.79 5.09547 154.96C2.31762 155.013 0.0706989 157.391 0.0205919 160.034C-0.00686398 164.423 -0.00686398 168.813 0.0205919 173.202C0.0731013 175.972 2.45078 178.227 5.09547 178.277C32.0736 178.447 59.0535 178.446 86.0317 178.277C88.8089 178.224 91.0561 175.847 91.1062 173.202C91.1337 168.813 91.1337 164.423 91.1062 160.034ZM1.04945 160.046C1.09167 157.827 3.02387 156.002 5.16269 155.988C14.1405 155.988 23.1185 155.97 32.0964 155.951C50.0704 155.913 68.0445 155.875 86.0179 155.989C88.2092 156.03 90.0358 157.924 90.0759 160.046C90.1034 164.427 90.1034 168.808 90.0759 173.188C90.0337 175.408 88.1385 177.206 86.0179 177.246C59.0483 177.416 32.0774 177.417 5.10778 177.246C2.91611 177.205 1.08961 175.31 1.04945 173.188C1.022 168.808 1.022 164.427 1.04945 160.046Z" fill="#DCD6E3"/>
<path d="M20.4896 166.617C20.4896 170.077 17.6849 172.882 14.2255 172.882C10.7657 172.882 7.96143 170.077 7.96143 166.617C7.96143 163.158 10.7657 160.353 14.2255 160.353C17.6849 160.353 20.4896 163.158 20.4896 166.617Z" fill="white"/>
<path fill-rule="evenodd" clip-rule="evenodd" d="M20.9397 167.565C21.4847 163.673 18.1636 159.913 14.3139 159.839C14.2701 159.839 14.2483 159.839 14.2265 159.839C14.2048 159.839 14.183 159.839 14.1392 159.839C10.921 159.901 8.09994 162.364 7.55357 165.419C6.83525 169.436 10.3167 173.397 14.2264 173.397C17.472 173.397 20.4922 170.758 20.9397 167.565ZM9.04305 169.109C7.26287 165.418 10.3548 160.942 14.1509 160.869C14.1881 160.869 14.2066 160.869 14.2252 160.869C14.2437 160.869 14.2622 160.869 14.2995 160.869C16.3964 160.909 18.3554 162.126 19.3133 163.94C20.8522 166.856 19.3297 170.743 16.3971 171.943C13.7102 173.041 10.3002 171.717 9.04305 169.109Z" fill="#DCD6E3"/>
<path d="M75.7967 161.257C76.2649 161.301 76.2511 161.438 76.2779 161.724C76.3043 162.011 76.0637 162.277 75.7652 162.286H70.7002C70.1559 162.269 69.9785 161.279 70.7002 161.256C72.3991 161.256 74.0989 161.205 75.7967 161.257Z" fill="#DCD6E3"/>
<path d="M66.7383 161.265C67.236 161.398 67.27 162.232 66.6491 162.286H26.9733C26.4097 162.237 26.3257 161.313 26.9733 161.257H66.6491C66.679 161.26 66.7088 161.262 66.7383 161.265Z" fill="#DCD6E3"/>
<path d="M75.8348 165.82C76.352 165.927 76.3963 166.801 75.7648 166.844H49.9329C49.7037 166.829 49.6446 166.775 49.5568 166.681C49.2894 166.395 49.4837 165.846 49.9329 165.815H75.7648C75.7881 165.816 75.8115 165.818 75.8348 165.82Z" fill="#DCD6E3"/>
<path d="M45.6226 165.818C46.1377 165.909 46.2891 166.802 45.5628 166.844H26.9718C26.4319 166.813 26.2253 165.858 26.9718 165.815H45.5628C45.5828 165.816 45.6027 165.817 45.6226 165.818Z" fill="#DCD6E3"/>
<path d="M57.6079 170.295C58.1278 170.414 58.1549 171.272 57.531 171.319H26.9719C26.4272 171.278 26.2807 170.341 26.9719 170.289H57.531C57.5567 170.291 57.5821 170.293 57.6079 170.295Z" fill="#DCD6E3"/>
<path fill-rule="evenodd" clip-rule="evenodd" d="M14.2797 90.5529C26.0806 100.776 66.1717 109.992 66.173 109.993C66.173 109.991 62.7088 63.0651 49.4479 61.8924C49.4479 61.8924 49.1531 61.879 48.6926 61.9212C46.9179 62.0853 45.3797 63.1701 44.5337 64.7385C43.9437 65.8323 42.9069 67.0884 41.3299 66.8166C39.9784 66.5836 38.6063 65.6281 37.5722 64.7306C35.5172 62.947 33.3722 61.2729 31.1009 59.7745C23.4012 54.6962 13.4639 49.204 5.42274 51.8998C5.42274 51.9002 -2.26732 57.8897 18.9547 71.4803C18.9547 71.4803 24.842 76.5731 20.414 76.9355C18.1616 77.1198 14.7221 77.4873 12.3715 78.9082C10.3195 80.1482 9.44777 82.6491 10.2251 84.9173C10.7279 86.3834 11.8368 88.4368 14.2797 90.5529Z" fill="#E3F37A"/>
<path fill-rule="evenodd" clip-rule="evenodd" d="M32.327 59.5643C25.5011 54.892 18.053 50.4222 10.1265 50.3323C8.0196 50.3206 4.84707 51.2627 4.84707 51.2627C2.61422 53.1942 2.9708 56.3204 4.04502 58.6624C6.47315 63.9576 11.3908 67.4019 16.1143 70.6304C17.1847 71.3621 18.4498 72.1782 18.4498 72.1782C19.2906 72.9322 20.0933 73.7394 20.7162 74.6719C21.654 76.076 21.2346 76.0708 20.734 76.0646C20.6323 76.0633 20.5271 76.062 20.4293 76.0725C17.7846 76.3285 15.0692 76.6058 12.685 77.7638C9.83443 79.1483 8.42869 82.6036 9.52453 85.5022C11.8538 91.6613 18.5644 94.8939 24.7718 97.7026C37.5831 103.5 51.4318 107.36 65.2734 110.662C65.9011 110.811 66.6081 110.927 66.9056 110.44C67.115 110.097 67.0052 109.623 67.0052 109.623C66.7515 106.529 66.4059 103.44 66.003 100.356C64.6481 89.9837 63.0419 79.1448 58.4297 69.5311C56.9714 66.4907 55.077 63.2376 51.9106 61.7076C49.4001 60.4944 46.6531 61.0878 44.9121 62.8137C44.4933 63.229 44.1879 63.7311 43.8946 64.2134C43.4192 64.9952 42.9755 65.7249 42.1318 65.9481C40.8503 66.2874 39.6832 65.3445 38.6666 64.5232C38.6158 64.4821 38.5653 64.4413 38.5152 64.401C38.128 64.0865 37.7413 63.7691 37.3538 63.4512C35.7207 62.1112 34.0745 60.7604 32.327 59.5643ZM5.87158 52.6558C7.18465 52.2433 8.55093 52.0569 9.92029 52.0477C12.0447 52.0463 14.1344 52.4495 16.1559 53.0663C22.7765 55.0863 29.217 59.0602 34.8829 63.6021C35.3019 63.9381 35.7112 64.2896 36.1191 64.64C37.5106 65.8351 38.8862 67.0165 40.5786 67.5194C42.401 68.0606 44.1437 67.0324 45.0889 65.4949C46.0907 63.8297 47.8214 62.577 49.4712 62.7568C50.8986 62.9123 52.1557 63.715 53.1815 64.7168C56.5322 67.9892 58.1634 72.7738 59.587 77.3568C62.7527 87.5464 64.2696 98.2079 65.2199 108.885L65.0243 108.838C57.9029 107.115 50.8265 105.161 43.8276 102.949C35.1766 100.214 26.4474 97.3176 18.7316 92.6604C15.6085 90.7752 12.5114 88.3862 11.1809 85.0284C10.5387 83.4092 10.7985 81.5638 11.9332 80.355C13.7641 78.4045 16.743 78.1309 19.4666 77.8808C19.5881 77.8696 19.7091 77.8585 19.8295 77.8473C19.9171 77.8394 20.0048 77.8321 20.0925 77.8249C20.6283 77.7807 21.1614 77.7366 21.6543 77.5408C22.8757 77.0552 23.0902 75.5969 22.6283 74.5769C21.9127 72.9962 19.4183 70.7585 19.4183 70.7585C15.0968 67.982 10.721 64.9447 7.49662 60.9159C6.05759 59.1179 4.60689 56.9022 4.97205 54.5331C5.11997 53.5756 5.87158 52.6558 5.87158 52.6558Z" fill="#101828"/>
<path d="M28.0015 67.573C28.4827 67.7395 28.546 67.9044 28.8045 68.081C43.6406 78.2492 56.5397 91.449 65.3287 107.269C65.7835 108.087 66.2284 108.912 66.631 109.755C66.631 109.755 66.7528 110.14 66.5395 110.355C66.2647 110.632 65.8453 110.489 65.5824 109.952C62.8141 104.379 59.2333 99.2323 55.3638 94.3135C47.5923 84.4335 38.246 75.7534 27.9065 68.7146L27.5184 68.4424C27.2182 68.0966 27.4441 67.4844 28.0015 67.573Z" fill="#101828"/>
<path d="M43.7192 71.5011C44.2072 71.5787 44.1796 71.9286 44.2818 72.2137C45.4483 75.5091 46.8405 78.8734 46.7049 82.3398C46.6903 82.7108 46.5717 83.233 46.5717 83.233C46.2052 84.2919 45.4672 83.429 45.6097 82.8471C46.0895 80.7606 45.164 78.4421 44.4621 76.0815C44.0941 74.8439 43.6901 73.6168 43.2552 72.4011C43.2552 72.4011 43.1275 72.1574 43.1502 71.9554C43.1804 71.6864 43.4316 71.4823 43.7192 71.5011Z" fill="#101828"/>
<path d="M36.7218 87.3826C42.2284 87.416 47.7259 88.5634 53.0251 90.0063C53.0251 90.0063 53.4692 90.1954 53.4348 90.5606C53.3937 90.995 52.8322 91.0191 52.287 90.875C46.5157 89.366 40.487 88.0179 34.7822 88.4823C34.7822 88.4823 34.0774 88.4912 34.0615 88.0005C34.0368 87.237 35.6102 87.3794 36.7218 87.3826Z" fill="#101828"/>
<path d="M13.9361 81.2061C14.1709 81.2192 14.2019 81.2791 14.2706 81.3424C14.739 81.7741 13.9893 82.4919 13.9132 83.3653C13.8475 84.1165 14.0218 84.8658 14.2937 85.5617C14.2937 85.5617 14.3735 85.8516 14.2333 86.0483C14.0058 86.3674 13.4859 86.3319 13.2972 85.8394C12.7606 84.4109 12.6736 82.7661 13.4832 81.4508C13.4832 81.4508 13.6343 81.206 13.9361 81.2061Z" fill="#101828"/>
<path fill-rule="evenodd" clip-rule="evenodd" d="M219.419 96.4022C233.29 100.758 234.418 112.814 227.702 112.836C218.746 112.866 198.16 110.833 197.13 117.768C196.1 124.703 212.612 123.183 200.048 133.961C194.551 138.677 187.29 140.504 180.86 141.067C174.139 141.656 167.368 140.909 160.887 139.033L156.296 137.704C156.296 137.704 168.655 99.5497 201.118 95.3431C206.218 94.6821 210.606 94.7288 214.335 95.2648" fill="#E3F37A"/>
<path d="M219.419 96.4022C233.29 100.758 234.418 112.814 227.702 112.836C218.746 112.866 198.16 110.833 197.13 117.768C196.1 124.703 212.612 123.183 200.048 133.961C194.551 138.677 187.29 140.504 180.86 141.067C174.139 141.656 167.368 140.909 160.887 139.033L156.296 137.704C156.296 137.704 168.655 99.5497 201.118 95.3431C206.218 94.6821 210.606 94.7288 214.335 95.2648" fill="black" fill-opacity="0.25" style="mix-blend-mode:overlay"/>
<path d="M208.45 93.9968C210.406 94.0058 212.353 94.1224 214.279 94.3901C214.888 94.4746 215.542 95.2739 214.942 95.8724C214.581 96.2314 214 96.0818 213.523 96.0214C202.605 94.6897 191.378 97.3022 182.264 103.488C170.497 111.475 162.235 124.136 157.493 136.897L157.406 137.132C161.289 138.256 165.18 139.374 169.179 139.918C180.662 141.478 193.146 139.772 201.251 131.692C203.015 129.933 205.25 127.688 202.973 125.584C200.708 123.492 197.116 122.52 196.356 119.455C196.029 118.138 196.327 116.683 197.157 115.614C199.081 113.134 202.706 112.537 206.154 112.131C213.219 111.299 220.469 111.977 227.491 111.978C229.063 111.979 230.514 110.978 230.773 109.416C231.219 106.725 229.541 103.962 227.441 101.913C225.15 99.6775 222.181 98.1784 219.16 97.2198C219.16 97.2198 218.274 96.5787 218.704 95.9287C219.112 95.3116 220.04 95.6812 220.98 96.0272C222.032 96.4147 223.061 96.867 224.052 97.3918C227.957 99.4588 231.433 102.81 232.348 106.88C232.888 109.285 232.241 112.169 229.887 113.244C228.741 113.769 227.425 113.703 226.12 113.682C218.461 113.56 210.703 112.637 203.186 114.365C200.595 114.961 197.384 116.107 198.003 118.965C198.398 120.784 200.545 121.834 202.286 122.949C203.983 124.047 205.795 125.418 205.636 127.647C205.406 130.872 202.387 133.121 200.406 134.783C195.627 138.794 189.415 140.862 183.108 141.685C175.604 142.666 167.926 141.952 160.651 139.857L156.059 138.528C155.648 138.369 155.658 138.295 155.577 138.171C155.023 137.316 155.969 136.036 156.435 134.867C159.299 127.685 163.228 120.784 167.978 114.734C175.698 104.9 186.407 96.9868 199.093 94.7824C202.18 94.246 205.309 93.9958 208.45 93.9968Z" fill="#101828"/>
<path d="M214.823 104.649C215.664 104.652 216.507 104.673 217.34 104.775C217.34 104.775 217.672 104.852 217.771 105.092C217.942 105.507 217.549 105.822 216.843 105.758C210.054 105.185 203.173 106.881 196.655 109.268C181.206 114.924 167.863 125.742 156.679 138.05C156.679 138.05 156.361 138.297 156.086 138.173C155.795 138.042 155.703 137.65 155.917 137.358C167.853 124.222 182.191 112.675 199.266 107.291C204.303 105.702 209.532 104.648 214.823 104.649Z" fill="#101828"/>
<path d="M203.161 100.669C203.435 100.712 203.464 100.796 203.53 100.893C203.917 101.469 202.618 102.053 201.754 102.65C199.217 104.403 196.739 106.574 195.793 109.391C195.793 109.391 195.623 109.721 195.34 109.74C194.538 109.795 195.089 108.119 195.888 106.902C197.597 104.302 200.173 102.264 202.83 100.743C202.83 100.743 202.98 100.656 203.161 100.669Z" fill="#101828"/>
<path d="M175.392 124.512C180.748 124.549 186.12 125.82 191.063 127.843C191.063 127.843 191.381 127.988 191.418 128.269C191.472 128.679 191.128 128.977 190.471 128.714C184.55 126.375 178.034 124.848 171.854 125.783C170.538 125.982 169.242 126.323 168.015 126.843C168.015 126.843 167.762 126.931 167.56 126.817C167.224 126.627 167.169 126.119 167.613 125.895C168.105 125.687 168.153 125.674 168.397 125.586C170.627 124.779 173.034 124.506 175.392 124.512Z" fill="#101828"/>
<path d="M199.554 128.333C200.003 128.374 200.158 128.861 199.702 129.474C198.974 130.452 198.138 131.407 197.238 132.136C196.798 132.46 196.074 131.82 196.68 131.252C196.772 131.165 196.797 131.141 196.888 131.054C197.715 130.258 198.408 129.323 199.141 128.496C199.249 128.386 199.394 128.326 199.554 128.333Z" fill="#101828"/>
<path fill-rule="evenodd" clip-rule="evenodd" d="M161.984 129.209V100.695C161.984 100.695 163.414 92.4047 168.274 93.691C168.274 93.691 172.276 95.1204 170.704 100.266C169.131 105.412 166.472 108.395 167.036 110.844C167.562 113.126 169.008 112.711 169.987 113.029C170.928 113.335 171.903 114.438 171.98 115.878C172.087 117.88 168.952 121.255 167.934 122.464L161.984 129.209Z" fill="#E3F37A"/>
<path d="M161.984 129.209V100.695C161.984 100.695 163.414 92.4047 168.274 93.691C168.274 93.691 172.276 95.1204 170.704 100.266C169.131 105.412 166.472 108.395 167.036 110.844C167.562 113.126 169.008 112.711 169.987 113.029C170.928 113.335 171.903 114.438 171.98 115.878C172.087 117.88 168.952 121.255 167.934 122.464L161.984 129.209Z" fill="white" fill-opacity="0.3"/>
<path d="M161.984 129.209V100.695C161.984 100.695 163.414 92.4047 168.274 93.691C168.274 93.691 172.276 95.1204 170.704 100.266C169.131 105.412 166.472 108.395 167.036 110.844C167.562 113.126 169.008 112.711 169.987 113.029C170.928 113.335 171.903 114.438 171.98 115.878C172.087 117.88 168.952 121.255 167.934 122.464L161.984 129.209Z" fill="white" fill-opacity="0.3"/>
<path fill-rule="evenodd" clip-rule="evenodd" d="M171.599 100.258C172.643 96.509 170.491 92.7873 167.368 92.6984C167.198 92.696 167.03 92.7012 166.861 92.7177C163.253 93.0722 161.882 96.9462 161.182 100.32C161.177 100.348 161.171 100.369 161.165 100.39C161.149 100.448 161.134 100.505 161.125 100.695V129.209C161.208 130.506 162.627 129.777 162.627 129.777L168.582 123.025L168.636 122.961C168.796 122.774 168.956 122.587 169.117 122.4C170.334 120.984 171.56 119.558 172.34 117.887C173.82 114.719 171.508 112.457 169.03 111.979C167.722 111.726 167.652 110.02 168.108 108.688C168.53 107.453 169.103 106.234 169.682 105.003C170.408 103.458 171.144 101.895 171.599 100.258ZM163.948 97.347C164.541 96.0926 165.641 94.4391 167.253 94.4134C167.617 94.413 167.986 94.4782 168.298 94.6522C169.983 95.5936 170.437 97.6442 170.05 99.3801C169.644 101.201 168.834 102.814 168.051 104.373C167.176 106.116 166.335 107.792 166.129 109.617C165.86 112.009 167.505 113.474 169.363 113.768C170.682 113.977 171.375 115.489 170.997 116.634C170.451 118.285 169.253 119.649 168.067 120.999C167.802 121.3 167.538 121.6 167.282 121.903L162.84 126.939L162.842 100.764C163.073 99.585 163.437 98.4298 163.948 97.347Z" fill="#101828"/>
<path d="M166.579 117.366C167.681 117.448 167.024 118.2 166.699 118.392C164.752 119.559 163.379 121.624 162.455 123.741C162.455 123.741 162.318 123.982 162.107 124.035C161.697 124.136 161.34 123.711 161.601 123.127C162.634 120.841 164.072 118.642 166.307 117.43C166.307 117.43 166.367 117.364 166.579 117.366Z" fill="#101828"/>
<path d="M165.979 101.867C166.297 101.918 166.501 102.236 166.407 102.549C165.17 106.069 164.067 109.649 162.469 113.035C162.469 113.035 162.19 113.469 161.824 113.351C161.093 113.115 161.843 111.935 162.293 110.789C163.358 108.074 164.333 105.326 165.305 102.577C165.305 102.577 165.41 101.828 165.979 101.867Z" fill="#101828"/>
<path fill-rule="evenodd" clip-rule="evenodd" d="M64.6733 119.118C64.6733 119.118 46.7233 101.609 27.5378 108.738C9.48418 115.445 12.9628 128.75 17.9262 126.158C22.8895 123.567 33.6862 116.445 36.276 119.982C38.8658 123.519 29.2881 127.487 39.3782 129.791C43.7927 130.798 48.3422 129.694 52.0631 128.133C55.9529 126.502 59.4817 124.116 62.5204 121.191L64.6733 119.118Z" fill="#E3F37A"/>
<path d="M64.6733 119.118C64.6733 119.118 46.7233 101.609 27.5378 108.738C9.48418 115.445 12.9628 128.75 17.9262 126.158C22.8895 123.567 33.6862 116.445 36.276 119.982C38.8658 123.519 29.2881 127.487 39.3782 129.791C43.7927 130.798 48.3422 129.694 52.0631 128.133C55.9529 126.502 59.4817 124.116 62.5204 121.191L64.6733 119.118Z" fill="white" fill-opacity="0.3"/>
<path d="M64.6733 119.118C64.6733 119.118 46.7233 101.609 27.5378 108.738C9.48418 115.445 12.9628 128.75 17.9262 126.158C22.8895 123.567 33.6862 116.445 36.276 119.982C38.8658 123.519 29.2881 127.487 39.3782 129.791C43.7927 130.798 48.3422 129.694 52.0631 128.133C55.9529 126.502 59.4817 124.116 62.5204 121.191L64.6733 119.118Z" fill="white" fill-opacity="0.3"/>
<path fill-rule="evenodd" clip-rule="evenodd" d="M64.1005 117.449C56.7522 111.125 47.2408 106.245 37.2397 106.174C34.7882 106.166 32.3652 106.455 30.0109 107.063C23.9486 108.628 17.4934 112.031 14.4743 117.517C12.795 120.569 12.3955 124.577 14.6225 126.549C15.682 127.486 17.1543 127.522 18.3215 126.92C19.6111 126.244 20.8784 125.513 22.1436 124.784C25.3193 122.953 28.4812 121.131 31.9458 120.194C32.0241 120.173 32.1042 120.15 32.1857 120.128C33.2295 119.839 34.517 119.482 35.4125 120.299C36.3962 121.196 35.6809 122.425 34.9178 123.736C34.6176 124.252 34.3101 124.781 34.0956 125.307C33.2946 127.271 34.5871 128.919 36.0862 129.629C36.2403 129.702 36.3964 129.77 36.5543 129.834C36.7547 129.916 36.9579 129.992 37.1625 130.063C44.4846 132.593 52.6682 129.775 59.0826 125.172C61.212 123.644 63.1067 121.818 65.0074 119.988C65.0941 119.904 65.1809 119.82 65.2677 119.737C65.2769 119.727 65.2861 119.716 65.2952 119.706C65.6222 119.343 65.8217 119.121 65.2694 118.502C65.2694 118.502 64.5813 117.863 64.1005 117.449ZM20.5458 113.357C25.2531 109.877 31.141 107.913 37.0238 107.889C41.9693 107.887 46.7013 109.162 51.1197 111.161C55.5905 113.183 59.7295 115.85 63.4213 119.133L61.8559 120.64C56.0425 126.191 47.6866 130.57 39.9595 129.037C37.9058 128.63 35.233 127.879 35.5326 126.435C35.6278 125.976 35.9394 125.386 36.289 124.724C37.0893 123.209 38.0892 121.317 37.1504 119.749C35.8881 117.64 33.1539 118.026 31.0175 118.675C27.5587 119.725 24.369 121.546 21.1854 123.364C20.0866 123.991 18.9886 124.618 17.8805 125.212C16.7922 125.792 15.7736 125.499 15.3099 124.697C15.2698 124.627 15.2324 124.556 15.1977 124.483C15.1534 124.39 15.1133 124.294 15.0776 124.197C15.0323 124.075 14.9935 123.95 14.9606 123.825C14.9194 123.668 14.8871 123.51 14.8628 123.351C14.2278 119.234 17.3187 115.742 20.5458 113.357Z" fill="#101828"/>
<path d="M40.7421 113.89C48.8767 113.95 56.9774 115.79 64.6805 118.573C64.6805 118.573 65.062 118.68 65.1575 118.942C65.2879 119.3 64.9358 119.719 64.498 119.602C53.1369 115.472 40.8257 113.203 29.1521 116.306C26.5682 116.994 23.9713 117.853 21.7923 119.365C21.7923 119.365 21.2115 119.574 21.0209 119.172C20.754 118.608 21.7827 118.124 22.6387 117.675C28.1115 114.804 34.4756 113.87 40.7421 113.89Z" fill="#101828"/>
<path d="M28.2121 112.032C30.718 112.14 33.356 112.663 35.1272 114.328C35.1272 114.328 35.4154 114.653 35.2561 114.962C34.9435 115.568 34.0331 114.667 33.2142 114.246C31.6525 113.444 29.8339 113.117 28.1241 113.059C28.1241 113.059 27.5562 112.893 27.6345 112.455C27.6808 112.194 27.7726 112.017 28.2121 112.032Z" fill="#101828"/>
<path d="M55.0563 115.689C55.6002 115.774 55.7548 116.641 54.8379 116.733C50.16 117.245 46.0631 120.891 43.194 124.345C43.194 124.345 42.898 124.604 42.6167 124.498C42.26 124.364 42.1577 123.969 42.5622 123.499C45.7776 119.788 49.8593 116.341 54.5007 115.736C54.6853 115.712 54.8711 115.678 55.0563 115.689Z" fill="#101828"/>
<path d="M126.867 66.1687C126.867 74.7061 123.426 82.4421 117.848 88.0579C116.944 88.9705 115.982 89.8305 114.967 90.6267C109.681 94.7818 103.018 97.257 95.7752 97.257C88.5351 97.257 81.8722 94.7818 76.5859 90.6295C75.5714 89.8336 74.6063 88.9732 73.7024 88.0579C68.1271 82.439 64.6865 74.7061 64.6865 66.1687C64.6865 57.6313 68.1271 49.8983 73.6993 44.2795C74.6063 43.3611 75.5714 42.5037 76.5859 41.7048C81.8722 37.5528 88.5351 35.0773 95.7752 35.0773C103.018 35.0773 109.684 37.5528 114.97 41.7079C115.985 42.5068 116.947 43.3641 117.851 44.2795C123.426 49.8983 126.867 57.6313 126.867 66.1687Z" fill="white"/>
<path fill-rule="evenodd" clip-rule="evenodd" d="M124.419 52.7946C119.346 41.9506 107.855 34.6583 95.9469 34.5629C95.7747 34.5625 95.6024 34.5629 95.4301 34.5642C87.2808 34.673 79.4116 37.9533 73.6812 43.5705C66.1068 50.9945 62.7734 62.0181 64.7488 72.2149C66.6676 82.1182 73.6648 90.8986 82.8604 95.0211C93.6499 99.8578 106.877 97.9716 115.859 90.5695C126.945 81.4339 130.256 65.2702 124.419 52.7946ZM71.5422 47.5241C77.2969 40.0571 86.3677 35.6666 95.6083 35.5925C95.7751 35.5921 95.9419 35.5925 96.1087 35.5938C103.876 35.6975 111.599 38.8621 117.148 44.3066C126.24 53.2264 128.757 67.4849 123.641 78.772C118.708 89.6566 107.313 96.8044 95.6083 96.7419C84.049 96.6801 73.0481 89.5907 68.1445 79.2734C63.3421 69.1693 64.7008 56.4016 71.5422 47.5241Z" fill="#DCD6E3"/>
<path d="M95.9358 34.5871C96.1448 34.6801 96.2669 34.8421 96.2913 35.0765V97.2583C96.2319 97.8259 95.33 97.9073 95.2617 97.2583V35.0765C95.3146 34.5761 95.4615 34.4862 95.9358 34.5871Z" fill="#DCD6E3"/>
<path d="M126.974 65.6643C127.463 65.8228 127.504 66.6156 126.867 66.6826H64.6856C64.118 66.6228 64.037 65.7213 64.6856 65.653H126.867C126.903 65.6567 126.939 65.6605 126.974 65.6643Z" fill="#DCD6E3"/>
<path d="M95.8623 34.6847C100.573 34.7489 104.557 38.6088 106.875 42.3463C109.146 46.0089 110.571 50.1709 111.484 54.3596C111.484 54.3596 111.592 54.7683 111.354 54.9832C111.089 55.2234 110.631 55.0927 110.506 54.7097C109.259 48.9096 107.192 43.022 102.77 38.8401C100.598 36.7864 97.6188 35.3639 94.587 35.7991C90.8221 36.3393 87.7526 39.3807 85.6199 42.7825C79.7526 52.1408 78.8582 64.2108 80.5488 74.9313C81.6189 81.7177 83.7292 88.7557 88.8333 93.5409C91.0112 95.5829 94.0067 96.9966 97.0649 96.5205C100.789 95.9412 103.813 92.9341 105.934 89.5519C109.6 83.7041 111.148 76.673 111.571 69.692C111.782 66.2085 111.679 62.7086 111.261 59.233C111.261 59.233 111.283 58.8308 111.555 58.7045C112.334 58.3434 112.442 60.3426 112.555 61.9189C113.333 72.7115 111.916 84.2447 105.021 92.5844C104.797 92.8562 104.565 93.1222 104.326 93.3813C101.749 96.177 97.9281 98.2327 94.0015 97.4808C89.7483 96.6664 86.4034 93.0563 84.1469 89.0934C79.1585 80.3332 78.0538 69.6419 79.2254 59.4897C80.0721 52.1515 81.9669 44.739 87.1389 39.0495C89.3059 36.6656 92.2467 34.7561 95.6084 34.6857C95.6931 34.6847 95.7776 34.6844 95.8623 34.6847Z" fill="#DCD6E3"/>
<path fill-rule="evenodd" clip-rule="evenodd" d="M118.043 43.7438C112.251 37.9715 104.135 34.6288 95.9461 34.5629C95.7738 34.5625 95.6015 34.5629 95.4292 34.5642C87.7038 34.6675 80.312 37.5755 74.6671 42.6449C74.6375 42.6714 74.6076 42.6982 74.5774 42.7253C73.8148 43.4088 72.8951 44.2331 73.3464 44.6553C74.0508 45.3143 74.9687 45.7041 75.8662 46.0852C76.063 46.1688 76.2587 46.2519 76.451 46.3373C82.2168 48.8993 88.5989 49.7357 94.8997 49.8211C102.431 49.9231 110.188 49.0441 116.699 45.5562C116.813 45.4952 116.931 45.4349 117.049 45.3745C117.915 44.9318 118.788 44.4861 118.043 43.7438ZM74.5721 44.1398C80.204 38.7286 87.8168 35.6549 95.6074 35.5925C95.7742 35.5921 95.941 35.5925 96.1078 35.5938C103.797 35.6964 111.508 38.8384 117.026 44.1879C110.494 48.0753 102.791 48.8461 95.3431 48.796C88.125 48.7473 80.6494 47.834 74.5227 44.1879L74.5721 44.1398Z" fill="#DCD6E3"/>
<path fill-rule="evenodd" clip-rule="evenodd" d="M117.437 87.1958C111.128 83.469 103.406 82.5454 95.9981 82.5077C92.3475 82.5015 88.6835 82.7819 85.0882 83.4443C81.0727 84.1839 77.0913 85.3078 73.6483 87.4813C73.2643 87.7239 73.175 88.2569 73.4235 88.5068C76.2165 91.3117 79.5335 93.5717 83.159 95.1521C94.7138 100.19 109.015 97.4667 117.955 88.6798C118.723 87.9185 118.331 87.703 117.879 87.4551C117.81 87.4175 117.74 87.379 117.673 87.3378C117.595 87.2898 117.516 87.2428 117.437 87.1958L117.437 87.1958ZM74.5274 88.1492C80.615 84.5236 88.2189 83.5747 95.563 83.5373C102.752 83.5249 110.717 84.3922 117.025 88.1492L116.977 88.1952C114.393 90.6772 111.394 92.7007 108.129 94.1449C97.0083 99.0629 83.1722 96.5281 74.527 88.1495L74.5274 88.1492Z" fill="#DCD6E3"/>
<path d="M184.268 11.3594C184.748 11.3951 184.942 12.2113 184.37 12.3724C183.291 12.6196 182.201 12.813 181.116 13.033C180.616 13.1215 180.18 12.2291 180.887 12.0298C181.966 11.7826 183.056 11.5892 184.14 11.3691C184.177 11.3629 184.181 11.3574 184.268 11.3594Z" fill="#DCD6E3"/>
<path d="M176.812 3.56489C177.112 3.58764 177.342 3.87917 177.29 4.17854C177.065 5.18926 176.793 6.18894 176.545 7.19405C176.411 7.68448 175.416 7.68421 175.54 6.97081C175.764 5.96009 176.036 4.96041 176.285 3.9553C176.35 3.71791 176.513 3.55637 176.812 3.56489Z" fill="#DCD6E3"/>
<path d="M181.203 6.5731C181.601 6.59457 181.85 7.13208 181.555 7.44752C180.748 8.23847 179.906 8.99459 179.082 9.768C178.718 10.0948 177.845 9.58468 178.361 9.0328C179.169 8.24185 180.01 7.48573 180.834 6.71233C180.937 6.62019 181.016 6.57124 181.203 6.5731Z" fill="#DCD6E3"/>
<path d="M64.6224 0.00583438C65.1358 0.122865 65.1543 0.983951 64.5455 1.0296C61.0527 1.0296 57.56 1.01861 54.0673 1.02994C48.0445 1.08691 42.4953 6.29015 42.4747 12.6939V31.1916C42.4339 31.7387 41.4918 31.8156 41.4451 31.1916C41.4451 24.9983 41.4256 18.8045 41.4455 12.6112C41.5083 6.00358 47.1875 0.0223079 54.1421 0H64.5455C64.5712 0.00205919 64.5966 0.00377519 64.6224 0.00583438Z" fill="#101828"/>
<path d="M42.0012 34.2835C42.2531 34.3103 42.4539 34.5162 42.4741 34.7692C42.5067 36.0006 42.4748 37.233 42.4748 38.4647C42.4607 38.9957 41.497 39.1312 41.4459 38.4922C41.4133 37.2608 41.4452 36.0284 41.4452 34.7966C41.4531 34.5011 41.649 34.2647 42.0012 34.2835Z" fill="#101828"/>
<path d="M159.926 81.0034V169.38C159.926 177.558 153.297 184.188 145.119 184.188H84.0753C75.8972 184.188 69.2676 177.558 69.2676 169.38V41.0566C69.2676 32.2037 76.4442 25.0271 85.2971 25.0271H143.897C152.75 25.0271 159.926 32.2037 159.926 41.0566V73.5591" fill="white"/>
<path d="M144.005 24.2622C150.829 24.327 157.427 28.9072 159.74 35.475C160.371 37.2648 160.684 39.1611 160.69 41.0549V73.5586C160.591 74.056 160.386 74.1526 160.218 74.2652L159.925 74.3233L159.633 74.2652L159.385 74.0994C159.22 73.8529 159.219 73.8492 159.161 73.5586C159.161 62.6914 159.196 51.8242 159.16 40.9573C159.089 33.3059 152.669 26.1651 144.585 25.8066C144.388 25.7978 144.191 25.7935 143.995 25.7916C124.396 25.7298 104.796 25.7298 85.1972 25.7916C77.5456 25.8644 70.4051 32.2833 70.0466 40.3675C70.0377 40.5642 70.0334 40.7606 70.0316 40.9573C69.8967 83.7948 69.8939 126.633 70.0316 169.471C70.0998 176.678 76.2734 183.349 83.9834 183.423C104.392 183.486 124.8 183.486 145.209 183.423C152.444 183.354 159.137 177.087 159.161 169.379V81.0028C159.2 80.804 159.211 80.578 159.633 80.2962L159.925 80.2381L160.218 80.2962L160.466 80.462C160.631 80.7086 160.632 80.7122 160.69 81.0028C160.69 110.495 160.782 139.988 160.69 169.48C160.615 177.357 153.973 184.627 145.719 184.941C145.552 184.947 145.385 184.951 145.218 184.952C124.804 185.016 104.388 185.016 83.9736 184.952C76.1216 184.877 68.883 178.323 68.5174 170.081C68.5085 169.881 68.5039 169.681 68.5021 169.48C68.3645 126.636 68.3672 83.7917 68.5021 40.9475C68.5826 32.5424 75.6509 24.6727 84.5399 24.2787C84.7555 24.2689 84.9715 24.2643 85.1874 24.2622C104.793 24.2004 124.399 24.2004 144.005 24.2622Z" fill="#101828"/>
<path fill-rule="evenodd" clip-rule="evenodd" d="M147.604 173.529H81.5911C78.7967 173.529 76.5312 171.264 76.5312 168.469V39.8677C76.5312 35.8562 79.7832 32.6042 83.7947 32.6042H145.4C149.411 32.6042 152.663 35.8562 152.663 39.8677V168.469C152.663 171.264 150.398 173.529 147.604 173.529Z" fill="#0053F5"/>
<path fill-rule="evenodd" clip-rule="evenodd" d="M153.425 39.8161C153.385 35.425 149.603 31.8791 145.449 31.8399C142.078 31.8292 138.707 31.8168 135.335 31.8043C118.12 31.7409 100.904 31.6775 83.6888 31.8402C79.365 31.9087 75.8307 35.6354 75.7649 39.7641C75.3633 82.6891 75.4951 125.619 75.7649 168.544C75.8246 171.69 78.5703 174.275 81.5864 174.293C88.9187 174.293 96.2511 174.309 103.583 174.324C118.281 174.355 132.979 174.385 147.676 174.293C150.814 174.234 153.407 171.489 153.426 168.472C153.426 154.187 153.441 139.903 153.456 125.618C153.486 97.0176 153.516 68.4167 153.425 39.8161ZM77.2934 39.8252C77.3264 36.3135 80.4096 33.3794 83.7934 33.3687C90.6403 33.3687 97.4874 33.3472 104.335 33.3257C118.05 33.2826 131.766 33.2395 145.481 33.3693C148.988 33.4247 151.842 36.4497 151.895 39.783C152.288 82.6951 152.165 125.611 151.896 168.525C151.852 170.844 149.875 172.721 147.657 172.763C125.616 172.902 103.574 172.902 81.5328 172.763C79.2135 172.719 77.3359 170.738 77.2937 168.525C77.0242 125.626 77.1573 82.7248 77.2934 39.8252Z" fill="#101828"/>
<path d="M119.772 177.626C120.23 177.69 120.378 178.511 119.73 178.541H109.464C108.566 178.5 108.994 177.645 109.464 177.624H119.73C119.744 177.624 119.758 177.625 119.772 177.626Z" fill="#101828"/>
<path d="M118.489 29.0213C118.721 29.0482 118.735 29.1048 118.797 29.1736C119.027 29.4324 118.849 29.9227 118.454 29.9377H111.638C111.381 29.9279 111.366 29.8634 111.295 29.7842C111.065 29.5254 111.243 29.035 111.638 29.02C113.922 29.02 116.207 28.9338 118.489 29.0213Z" fill="#101828"/>
<path fill-rule="evenodd" clip-rule="evenodd" d="M87.6784 51.8836L87.2037 53.9961C86.4175 58.1226 82.8373 61.2534 78.5117 61.358C74.2472 61.4608 70.4223 58.4499 69.4443 54.298C69.1268 52.9481 69.1495 51.6526 69.3994 50.4728C69.4281 50.2996 69.47 50.1363 69.5086 49.9726L72.0894 45.6666L79.4416 33.3834C79.4446 33.3803 79.4446 33.3769 79.448 33.3769C79.7395 32.8896 80.2718 32.6042 80.8395 32.6042H94.3634L87.6784 51.8836Z" fill="#D6F318"/>
<path fill-rule="evenodd" clip-rule="evenodd" d="M87.952 54.1524L88.4148 52.0931L95.4378 31.8392H80.8363C80.2762 31.8435 79.7222 32.0371 79.2945 32.395C79.2806 32.4067 79.2674 32.4177 79.2546 32.4283C79.1111 32.5474 79.034 32.6114 78.8385 32.9089L71.4331 45.2732L68.7917 49.6802C68.713 50.0103 68.639 50.341 68.5812 50.6781C67.803 55.2105 70.6408 59.8677 74.8419 61.4807C80.3465 63.5941 86.874 59.7249 87.952 54.1524ZM79.964 33.9995C79.964 33.9995 80.3198 33.3727 80.8429 33.3687H93.2891L86.9562 51.6327L87.6787 51.8833L86.9326 51.7156L86.4554 53.8392L86.4352 53.941C85.5934 58.0544 81.5024 60.9567 77.5 60.5557C72.6253 60.0672 69.1195 54.9061 70.2256 50.2645L72.7458 46.0593L79.964 33.9995Z" fill="#101828"/>
<path fill-rule="evenodd" clip-rule="evenodd" d="M107.887 32.6042L105.614 51.8836L105.528 52.6082C105.521 52.4993 105.521 52.3965 105.521 52.2876C105.521 52.4351 105.521 52.5856 105.515 52.7364L105.502 52.8037C105.236 57.5747 101.283 61.3614 96.4476 61.3614C92.0036 61.3614 88.3022 58.1728 87.5127 53.9554C87.383 53.2634 87.4479 52.5486 87.6785 51.8836L94.3635 32.6042H107.887Z" fill="#EDF3C2"/>
<path fill-rule="evenodd" clip-rule="evenodd" d="M106.263 52.8981L106.374 51.9736C107.165 45.262 107.957 38.5507 108.748 31.8394H93.8198L86.9558 51.6341C86.754 52.2239 86.6576 52.8491 86.6882 53.4704C86.6958 53.6276 86.7114 53.7845 86.735 53.9402C87.459 58.7027 92.0637 62.2645 96.7536 62.1214C101.655 61.9715 105.978 57.7385 106.263 52.8981ZM92.725 39.6167C93.4557 37.5349 94.1863 35.4531 94.9091 33.3687H107.029L104.856 51.7931L104.797 52.2868C104.797 52.2868 104.798 52.1981 104.717 53.0668C104.258 58.0232 99.0427 61.4777 94.4644 60.3587C90.696 59.4374 87.3318 55.4231 88.385 52.1852C89.7891 47.9812 91.2571 43.7989 92.725 39.6167Z" fill="#101828"/>
<path fill-rule="evenodd" clip-rule="evenodd" d="M123.671 52.5247C123.543 57.4303 119.525 61.3611 114.604 61.3611C109.698 61.3611 105.7 57.4784 105.53 52.6208V52.6079L107.89 32.6042H121.414L123.671 52.5247Z" fill="#D6F318"/>
<path fill-rule="evenodd" clip-rule="evenodd" d="M116.194 61.9972C120.725 61.2582 124.302 57.0542 124.436 52.4924L122.096 31.8394H107.209L104.764 52.5628C104.764 52.6934 104.772 52.824 104.78 52.9546C105.158 58.6721 110.854 62.8684 116.194 61.9972ZM106.294 52.6413L108.568 33.3687H120.729L122.903 52.5572C122.75 56.8813 119.003 60.463 114.865 60.5921C110.468 60.7292 106.457 56.9195 106.294 52.6413Z" fill="#101828"/>
<path fill-rule="evenodd" clip-rule="evenodd" d="M141.826 52.2876C141.826 57.3022 137.76 61.3614 132.752 61.3614C128.356 61.3614 124.685 58.2287 123.848 54.0735L123.841 54.0478L123.684 52.5923L123.668 52.5247L121.411 32.6042H134.704L141.826 52.2876Z" fill="#EDF3C2"/>
<path fill-rule="evenodd" clip-rule="evenodd" d="M136.471 61.3989C140.087 59.922 142.58 56.1262 142.592 52.1544L135.242 31.8394H120.556L122.915 52.6558L123.088 54.1822L123.121 54.3296C123.642 56.7416 125.086 58.9214 127.097 60.3371C129.782 62.2266 133.436 62.6383 136.471 61.3989ZM124.424 52.3932L122.268 33.3687H134.169L141.06 52.4486C140.964 56.7583 137.364 60.3214 133.287 60.5796C129.267 60.8341 125.395 57.828 124.595 53.9037L124.424 52.3932Z" fill="#101828"/>
<path fill-rule="evenodd" clip-rule="evenodd" d="M159.742 54.3169C158.751 58.4692 154.92 61.4734 150.652 61.358C146.062 61.2317 142.321 57.7011 141.871 53.1998C141.805 52.5428 141.683 51.8927 141.458 51.2715L134.704 32.6042H148.375C148.938 32.6042 149.461 32.8997 149.751 33.3831L157.094 45.6601C157.103 45.6601 157.103 45.6666 157.103 45.6666L159.681 49.9723C159.681 49.9885 159.687 49.995 159.687 49.995C159.729 50.1519 159.765 50.3091 159.79 50.4728C160.04 51.659 160.066 52.9606 159.742 54.3169Z" fill="#D6F318"/>
<path fill-rule="evenodd" clip-rule="evenodd" d="M150.408 32.9874C149.989 32.3015 149.221 31.8598 148.416 31.84C145.123 31.8126 141.83 31.8216 138.538 31.8307C136.897 31.8351 135.257 31.8396 133.617 31.8396L140.741 51.5301C140.949 52.1149 141.033 52.7339 141.116 53.351C141.13 53.4588 141.145 53.5666 141.16 53.6741C141.865 58.6605 146.837 62.538 151.765 62.0862C156.804 61.6243 160.925 56.8719 160.742 51.9433C160.702 50.8541 160.396 49.6739 160.396 49.6739L157.788 45.3164L157.72 45.1996L150.408 32.9874ZM137.939 39.2696C137.224 37.3033 136.509 35.3369 135.797 33.3694C137.195 33.3694 138.594 33.358 139.992 33.3467C142.797 33.3239 145.602 33.3012 148.406 33.37C148.676 33.381 148.934 33.5248 149.084 33.7539C150.839 36.5181 152.495 39.3435 154.151 42.1689C154.977 43.5778 155.803 44.9868 156.641 46.3882L158.972 50.2716L159.066 50.7332C159.848 54.7538 157.275 58.862 153.533 60.1523C150.03 61.3602 145.89 59.8528 143.909 56.7755C143.088 55.4987 142.793 53.9683 142.549 52.4645C142.503 52.1748 142.442 51.8873 142.366 51.604C142.361 51.5849 142.356 51.5674 142.352 51.551C142.318 51.4234 142.301 51.3591 142.204 51.077C140.799 47.135 139.369 43.2023 137.939 39.2696Z" fill="#101828"/>
<rect x="69.3174" y="51.4044" width="90.665" height="1.52947" fill="#101828"/>
<path d="M129.24 122.507H100.059C95.4099 122.507 91.6416 118.739 91.6416 114.09V84.9088C91.6416 80.2607 95.4099 76.4921 100.059 76.4921H129.24C133.888 76.4921 137.656 80.2607 137.656 84.9088V114.09C137.656 118.739 133.888 122.507 129.24 122.507Z" fill="white" fill-opacity="0.3"/>
<path d="M129.24 122.507H100.059C95.4099 122.507 91.6416 118.739 91.6416 114.09V84.9088C91.6416 80.2607 95.4099 76.4921 100.059 76.4921H129.24C133.888 76.4921 137.656 80.2607 137.656 84.9088V114.09C137.656 118.739 133.888 122.507 129.24 122.507Z" fill="white" fill-opacity="0.3"/>
<path d="M123.799 115.053H105.5C101.963 115.053 99.0957 112.186 99.0957 108.649V90.3496C99.0957 86.8126 101.963 83.9454 105.5 83.9454H123.799C127.336 83.9454 130.203 86.8126 130.203 90.3496V108.649C130.203 112.186 127.336 115.053 123.799 115.053Z" fill="white"/>
<path fill-rule="evenodd" clip-rule="evenodd" d="M130.89 90.3039C130.854 86.4738 127.512 83.2925 123.843 83.2574C117.713 83.2378 111.583 83.2378 105.452 83.2574C101.628 83.2941 98.464 86.6094 98.4062 90.2584C98.3483 96.4188 98.3483 102.58 98.4062 108.74C98.4667 112.56 101.768 115.683 105.407 115.741C110.574 115.79 115.743 115.771 120.911 115.752C121.888 115.748 122.866 115.745 123.843 115.742C127.673 115.705 130.831 112.402 130.889 108.74C130.938 103.572 130.919 98.404 130.9 93.2358C130.896 92.2585 130.893 91.2812 130.89 90.3039ZM99.7823 90.3133C99.8119 87.1804 102.522 84.6439 105.499 84.6344C107.537 84.6344 109.574 84.6322 111.611 84.63C115.685 84.6257 119.76 84.6213 123.834 84.6344C126.924 84.6641 129.466 87.3336 129.513 90.2763C129.561 95.4368 129.543 100.598 129.524 105.759C129.52 106.735 129.516 107.71 129.513 108.686C129.484 111.78 126.818 114.318 123.871 114.365C118.711 114.414 113.55 114.395 108.389 114.376C107.413 114.372 106.437 114.369 105.461 114.366C102.368 114.336 99.8294 111.664 99.7829 108.723C99.7343 103.563 99.7531 98.4017 99.772 93.2408C99.7756 92.265 99.7791 91.2891 99.7823 90.3133Z" fill="#101828"/>
<path d="M106.453 95.3838H121.946L120.49 102.766L107.909 101.415L106.453 95.3838Z" fill="#DDE5F5"/>
<path fill-rule="evenodd" clip-rule="evenodd" d="M122.548 95.502C122.6 95.1487 122.358 94.8266 122.008 94.7749C121.989 94.7737 121.969 94.7728 121.95 94.772L121.948 94.7719H106.455C106.069 94.7911 105.789 95.1505 105.86 95.5271L107.316 101.558C107.389 101.807 107.593 101.983 107.845 102.023L120.427 103.375C120.746 103.393 121.017 103.188 121.092 102.884L122.548 95.502ZM108.405 100.852L107.233 95.9958H121.204L120.001 102.098L108.405 100.852Z" fill="#101828"/>
<path d="M125.978 90.4099C126.568 90.5213 126.736 91.4353 126.014 91.6167C125.15 91.7852 124.276 91.914 123.42 92.1226C123.289 92.1575 123.185 92.2679 123.158 92.4025L121.072 102.98L121.071 105.375C121.036 106.305 120.246 107.108 119.284 107.121H107.805C107.17 107.086 106.874 105.948 107.805 105.897C111.635 105.897 115.465 105.947 119.295 105.897C119.592 105.885 119.844 105.628 119.848 105.325V102.921C119.851 102.861 119.851 102.861 119.86 102.802C120.561 99.246 121.23 95.6835 121.964 92.1336C122.101 91.5304 122.6 91.041 123.204 90.9177L125.781 90.4157C125.856 90.4053 125.806 90.3961 125.978 90.4099Z" fill="#101828"/>
<path d="M111.159 107.971C111.159 108.502 110.728 108.933 110.197 108.933C109.666 108.933 109.235 108.502 109.235 107.971C109.235 107.44 109.666 107.009 110.197 107.009C110.728 107.009 111.159 107.44 111.159 107.971Z" fill="white"/>
<path fill-rule="evenodd" clip-rule="evenodd" d="M110.81 109.421C112.459 108.723 111.583 106.449 110.238 106.398C109.543 106.389 109.045 106.737 108.779 107.288C108.136 108.622 109.69 109.895 110.81 109.421ZM110.428 108.236C109.903 108.69 109.782 107.636 110.19 107.621C110.413 107.618 110.584 107.839 110.542 108.042C110.535 108.075 110.523 108.107 110.507 108.137C110.487 108.174 110.46 108.208 110.428 108.236Z" fill="#101828"/>
<path d="M118.774 107.971C118.774 108.502 118.343 108.933 117.812 108.933C117.281 108.933 116.85 108.502 116.85 107.971C116.85 107.44 117.281 107.009 117.812 107.009C118.343 107.009 118.774 107.44 118.774 107.971Z" fill="white"/>
<path fill-rule="evenodd" clip-rule="evenodd" d="M119.158 108.787C119.773 107.776 118.941 106.439 117.853 106.398C117.118 106.388 116.586 106.791 116.349 107.394C115.591 109.313 118.395 110.043 119.158 108.787ZM118.042 108.235C117.517 108.69 117.396 107.636 117.804 107.621C118.027 107.618 118.198 107.838 118.156 108.042C118.149 108.075 118.138 108.107 118.121 108.137C118.101 108.174 118.074 108.207 118.042 108.235Z" fill="#101828"/>
<path d="M111.299 94.7739C111.6 94.806 111.821 94.9818 111.863 95.3314L112.412 101.711C112.438 102.183 112.29 102.194 112.098 102.3C111.743 102.494 111.245 102.252 111.193 101.816L110.644 95.4364C110.637 95.316 110.645 95.2953 110.658 95.2417C110.739 94.9019 111.234 94.7709 111.299 94.7739Z" fill="#101828"/>
<path d="M117.287 94.9762C117.414 94.9844 117.449 94.999 117.515 95.0282C117.758 95.1358 117.905 95.3421 117.874 95.666L117.052 102.017C116.949 102.648 115.756 102.705 115.838 101.86L116.66 95.5089C116.679 95.3901 116.692 95.3714 116.716 95.3217C116.817 95.1113 117.035 94.976 117.287 94.9762Z" fill="#101828"/>
<path d="M169.004 45.0659C169.233 45.0852 169.417 45.2691 169.436 45.4982C169.472 46.7707 169.569 48.098 169.434 49.2952C169.386 49.7204 168.57 49.8563 168.52 49.2699C168.485 48.0218 168.52 46.7725 168.52 45.5239C168.527 45.2654 168.685 45.0571 169.004 45.0659Z" fill="#101828"/>
<path d="M150.995 18.1211C158.577 18.1933 165.893 23.2919 168.425 30.6221C169.096 32.567 169.43 34.6226 169.437 36.6825V41.2669C169.404 41.756 168.566 41.9503 168.519 41.2669C168.519 37.7124 168.682 34.1133 167.522 30.8194C165.124 24.0123 158.229 19.0617 150.873 19.0385C150.873 19.0385 150.624 19.0217 150.499 18.843C150.287 18.5405 150.551 18.1199 150.995 18.1211Z" fill="#101828"/>
<path fill-rule="evenodd" clip-rule="evenodd" d="M119.948 83.5805C133.044 66.042 157.879 62.4405 175.417 75.5363L181.302 80.9224C192.583 93.5573 194.636 112.248 186.029 127.112C185.833 127.454 185.63 127.794 185.422 128.13C184.817 129.108 184.162 130.069 183.462 131.006C182.762 131.944 182.026 132.845 181.261 133.703C180.957 134.042 180.65 134.375 180.336 134.7C166.694 148.99 144.221 151.169 127.991 139.051C110.453 125.955 106.851 101.119 119.948 83.5805ZM132.243 133.358C146.64 144.108 167.021 141.153 177.771 126.756C188.518 112.362 185.565 91.9789 171.168 81.2292C156.774 70.4809 136.389 73.4372 125.641 87.8313C114.891 102.228 117.849 122.611 132.243 133.358Z" fill="#D5D4EA"/>
<path fill-rule="evenodd" clip-rule="evenodd" d="M151.829 66.7997C160.248 66.8309 168.627 69.5645 175.407 74.4616C175.458 74.4989 175.511 74.5358 175.565 74.5729L175.565 74.5729C175.836 74.7608 176.112 74.9525 176.218 75.2208C176.488 75.9027 175.612 76.6536 174.908 76.2246C161.541 66.2763 141.785 66.0584 128.168 76.4679C120.162 82.5872 114.686 91.9091 113.296 101.935C111.568 114.408 116.298 127.59 125.723 136.078C134.807 144.259 147.896 147.767 159.848 145.205C170.827 142.85 180.628 135.61 186.048 125.308C190.743 116.385 191.731 105.597 188.788 95.9476C187.161 90.6139 184.36 85.654 180.663 81.492C180.663 81.492 180.169 80.1522 181.236 80.0671C181.722 80.0283 182.062 80.4466 182.423 80.8892L182.423 80.8897C182.484 80.9645 182.546 81.04 182.609 81.1142C192.946 93.2943 195.269 111.824 187.375 126.468C179.841 140.444 163.77 149.185 147.676 147.59C132.684 146.104 118.938 135.608 113.683 121.225C109.996 111.133 110.518 99.5577 115.148 89.8692C121.627 76.3125 135.847 66.9761 151.343 66.8017C151.505 66.8004 151.667 66.7997 151.829 66.7997ZM151.808 73.9049C164.946 73.9537 177.659 82.3645 182.664 94.7738C186.816 105.07 185.498 117.407 178.904 126.66C171.45 137.118 157.657 142.675 144.804 139.968C132.559 137.388 122.134 127.418 119.206 114.938C117.102 105.973 118.885 96.1871 124.082 88.5427C130.112 79.6717 140.528 74.0288 151.407 73.9063C151.541 73.9053 151.675 73.9046 151.808 73.9049ZM121.494 97.7565C125.63 84.6583 138.372 75.6898 151.612 75.6205C151.633 75.6205 151.655 75.6205 151.676 75.6204C151.718 75.6204 151.76 75.6203 151.803 75.6205C160.511 75.6528 168.974 79.3909 174.852 85.6673C182.646 93.9902 185.323 106.496 181.797 117.2C177.551 130.089 164.845 138.958 151.705 138.967C143.101 138.973 134.597 135.286 128.696 129.063C120.898 120.842 118.123 108.435 121.494 97.7565Z" fill="#101828"/>
<path d="M206.502 141.669L200.117 150.222L179.945 135.162C180.299 134.798 180.642 134.422 180.984 134.04C181.849 133.076 182.674 132.061 183.461 131.006C184.252 129.95 184.988 128.869 185.668 127.771C185.904 127.389 186.133 127.009 186.353 126.624L206.502 141.669Z" fill="#D5D4EA"/>
<path fill-rule="evenodd" clip-rule="evenodd" d="M186.499 125.779C186.484 125.777 186.467 125.775 186.45 125.772C185.859 125.736 185.609 126.196 185.609 126.196C184.113 128.793 182.345 131.233 180.344 133.467C180.333 133.48 180.321 133.493 180.31 133.505C179.608 134.289 178.732 135.268 179.431 135.85L199.603 150.91C199.999 151.174 200.506 151.094 200.804 150.736L207.189 142.182C207.453 141.787 207.374 141.279 207.015 140.981L186.866 125.937C186.665 125.803 186.595 125.793 186.499 125.779ZM181.232 135.046C183.234 132.845 185.029 130.464 186.577 127.931C186.586 127.915 186.596 127.899 186.605 127.883L186.605 127.883L205.302 141.843L199.943 149.021L181.232 135.046Z" fill="#101828"/>
<path fill-rule="evenodd" clip-rule="evenodd" d="M244.225 175.925L243.789 176.506C240.226 181.28 233.463 182.262 228.688 178.695L198.747 156.339C197.613 155.494 197.379 153.886 198.225 152.752L200.116 150.222L206.502 141.669L208.507 138.985C209.353 137.851 210.96 137.618 212.094 138.463L242.035 160.819C246.81 164.387 247.792 171.149 244.225 175.925Z" fill="#7BA4F5"/>
<path fill-rule="evenodd" clip-rule="evenodd" d="M212.571 137.749C211.999 137.339 211.306 137.109 210.6 137.097C209.456 137.091 208.475 137.603 207.82 138.469C205.591 141.452 203.364 144.436 201.137 147.42C200.567 148.183 199.998 148.946 199.428 149.708L197.51 152.274C196.436 153.776 196.81 155.923 198.198 157C208.165 164.535 218.199 171.981 228.234 179.427C230.666 181.209 233.73 181.988 236.677 181.597C240.003 181.155 242.938 179.097 244.956 176.377C248.723 171.235 247.394 163.824 242.607 160.177C232.621 152.667 222.633 145.158 212.571 137.749ZM209.208 139.48C209.526 139.071 210.026 138.823 210.541 138.813C210.902 138.811 211.253 138.921 211.545 139.125C219.028 144.488 226.368 150.046 233.708 155.604C236.328 157.587 238.947 159.571 241.573 161.545C243.511 163.022 244.868 165.196 245.329 167.572C245.898 170.499 244.907 173.591 243.063 176.044C239.738 180.412 233.372 181.064 229.253 178.046C226.542 176.034 223.824 174.032 221.106 172.03C213.766 166.622 206.426 161.214 199.224 155.624C198.717 155.221 198.472 154.526 198.618 153.897C198.772 153.237 199.413 152.457 200.066 151.661C200.319 151.353 200.574 151.042 200.804 150.735L207.189 142.182L209.208 139.48Z" fill="#101828"/>
<path d="M212.468 158.542C212.776 158.579 212.755 158.601 212.915 158.71L227.415 169.538C228.106 170.098 227.421 171.621 226.389 170.913L211.888 160.085C211.713 159.943 211.682 159.882 211.627 159.768C211.377 159.246 211.702 158.57 212.399 158.54C212.422 158.541 212.445 158.542 212.468 158.542Z" fill="#101828"/>
<path fill-rule="evenodd" clip-rule="evenodd" d="M201.36 158.284L203.252 155.754L209.637 147.2L210.266 146.385" fill="#FF9490"/>
<path d="M210.359 145.532C210.561 145.561 210.614 145.592 210.712 145.652C211.127 145.905 211.285 146.432 210.945 146.909L210.321 147.718L203.939 156.267L202.047 158.797C201.565 159.395 201.418 159.269 200.98 159.053C200.528 158.829 200.368 158.21 200.673 157.77L202.564 155.24L208.953 146.681L209.586 145.861C209.774 145.634 210.052 145.51 210.359 145.532Z" fill="#101828"/>
<path d="M183.5 136.743C183.5 136.743 187.1 134.928 188.974 129.652L186.603 127.883C184.742 130.817 183.173 132.804 182.217 133.933L182.184 133.969C181.564 134.7 181.229 135.048 181.229 135.048L183.5 136.743Z" fill="black" fill-opacity="0.25" style="mix-blend-mode:overlay"/>
<path d="M244.443 164.933C246.135 168.175 245.91 172.261 243.38 175.635L242.789 176.368C242.159 177.202 241.652 177.585 240.85 178.176C242.997 173.781 241.657 168.569 237.579 165.538L208.604 144.007C207.817 143.423 206.799 143.373 205.983 143.792L206.803 142.7L208.745 140.116L209.241 139.441C209.799 138.68 210.88 138.539 211.615 139.132L212.215 139.615L241.03 161.1C242.29 162.037 243.212 162.899 243.936 164.116C244.069 164.34 244.2 164.566 244.344 164.784L244.443 164.933Z" fill="black" fill-opacity="0.25" style="mix-blend-mode:overlay"/>
<path d="M214.84 139.634C215.458 139.666 215.894 140.429 215.511 140.989C214.721 142.055 213.892 143.09 213.082 144.14C212.567 144.783 210.982 144.173 211.704 143.118C212.494 142.053 213.323 141.018 214.133 139.968C214.307 139.751 214.493 139.629 214.84 139.634Z" fill="#101828"/>
<path d="M217.768 150.544C218.085 150.577 218.063 150.6 218.228 150.712L233.152 161.857C233.332 162.003 233.363 162.066 233.417 162.184C233.725 162.849 232.848 163.726 232.125 163.232L217.201 152.087C216.827 151.783 216.861 151.625 216.856 151.417C216.847 150.964 217.136 150.577 217.697 150.542C217.721 150.543 217.744 150.543 217.768 150.544Z" fill="#101828"/>
<path d="M242.386 166.103C242.907 166.133 242.986 166.856 243.068 167.408C243.234 168.507 243.144 169.638 242.814 170.708C242.814 170.708 241.969 171.615 241.797 170.711C241.731 170.362 241.957 169.996 242.026 169.6C242.191 168.657 242.134 167.678 241.875 166.757C241.875 166.757 241.819 166.102 242.386 166.103Z" fill="#101828"/>
<path d="M132.501 75.6904C133.022 75.7342 133.171 76.3403 132.46 76.8432C130.914 77.9488 129.451 79.1598 128.075 80.4737C128.075 80.4737 127.644 80.7341 127.369 80.4788C126.927 80.0682 127.689 79.4065 128.372 78.7953C129.576 77.7165 130.848 76.7144 132.178 75.7828C132.178 75.7828 132.269 75.6847 132.501 75.6904Z" fill="#101828"/>
<path d="M177.426 125.725C176.627 126.86 175.706 127.877 174.762 128.847C177.062 123.914 178.099 118.661 178.263 114.742C178.833 101.207 174.026 85.711 153.505 75.7178C159.644 75.9395 165.358 77.8772 170.654 81.8315C184.505 92.1755 187.561 111.327 177.426 125.725Z" fill="#D5D4EA"/>
<path d="M177.426 125.725C176.627 126.86 175.706 127.877 174.762 128.847C177.062 123.914 178.099 118.661 178.263 114.742C178.833 101.207 174.026 85.711 153.505 75.7178C159.644 75.9395 165.358 77.8772 170.654 81.8315C184.505 92.1755 187.561 111.327 177.426 125.725Z" fill="white" fill-opacity="0.3"/>
<path d="M177.426 125.725C176.627 126.86 175.706 127.877 174.762 128.847C177.062 123.914 178.099 118.661 178.263 114.742C178.833 101.207 174.026 85.711 153.505 75.7178C159.644 75.9395 165.358 77.8772 170.654 81.8315C184.505 92.1755 187.561 111.327 177.426 125.725Z" fill="white" fill-opacity="0.3"/>
<path d="M162.545 97.4622C162.965 97.4937 163.188 98.1111 162.821 98.3917C161.914 99.0235 160.978 99.6139 160.056 100.225C159.607 100.508 158.986 99.7491 159.468 99.3802C160.376 98.7483 161.312 98.1579 162.234 97.5469C162.327 97.4883 162.378 97.4572 162.545 97.4622Z" fill="#101828"/>
<path d="M152.69 93.0414C152.928 93.0534 153.131 93.225 153.182 93.4583C153.354 94.4797 153.477 95.5084 153.624 96.5334C153.685 97.0488 152.75 97.3491 152.609 96.7043C152.437 95.6829 152.314 94.6541 152.167 93.6292C152.13 93.3214 152.322 93.0405 152.69 93.0414Z" fill="#101828"/>
<path d="M157.921 94.1759C158.253 94.207 158.481 94.5672 158.363 94.8822C157.914 95.9208 157.415 96.9371 156.942 97.9643C156.716 98.424 155.749 98.2152 155.997 97.556C156.446 96.5174 156.944 95.5011 157.418 94.4739C157.512 94.2813 157.652 94.1636 157.921 94.1759Z" fill="#101828"/>
</svg>
