<svg width="23" height="24" viewBox="0 0 23 24" fill="none" xmlns="http://www.w3.org/2000/svg">
<path fill-rule="evenodd" clip-rule="evenodd" d="M16.7273 9.81818C16.7273 14.0356 13.4508 17.4545 9.40909 17.4545C5.36736 17.4545 2.09091 14.0356 2.09091 9.81818C2.09091 5.60073 5.36736 2.18182 9.40909 2.18182C13.4508 2.18182 16.7273 5.60073 16.7273 9.81818ZM15.2821 17.4892C13.6725 18.833 11.6307 19.6364 9.40909 19.6364C4.2126 19.6364 0 15.2406 0 9.81818C0 4.39575 4.2126 0 9.40909 0C14.6056 0 18.8182 4.39575 18.8182 9.81818C18.8182 12.1364 18.0483 14.2669 16.7605 15.9466L22.6939 22.1376C23.102 22.5637 23.102 23.2545 22.6939 23.6806C22.2855 24.1065 21.6236 24.1065 21.2152 23.6806L15.2821 17.4892Z" fill="#B2B2B2"/>
</svg>
