<svg width="26" height="26" viewBox="0 0 26 26" fill="none" xmlns="http://www.w3.org/2000/svg">
<path d="M13.0171 9.64059C12.2807 9.57022 11.5399 9.72182 10.8961 10.0746C10.2522 10.4274 9.73677 10.9642 9.42032 11.6115C9.10388 12.2587 9.0019 12.9848 9.12835 13.6903C9.2548 14.3958 9.60349 15.0463 10.1267 15.5526C10.6499 16.0589 11.322 16.3964 12.051 16.5187C12.7801 16.6411 13.5303 16.5424 14.1992 16.2362C14.868 15.9299 15.4227 15.4311 15.7873 14.808C16.1518 14.1849 16.3085 13.468 16.2358 12.7555C16.1528 11.9566 15.7871 11.2101 15.2005 10.6425C14.6139 10.0748 13.8425 9.72083 13.0171 9.64059ZM21.6582 13.0968C21.6559 13.4743 21.6272 13.8512 21.5724 14.225L24.1075 16.1492C24.2179 16.2378 24.2923 16.3614 24.3175 16.498C24.3426 16.6346 24.3169 16.7754 24.2449 16.8954L21.8466 20.9111C21.7738 21.0299 21.6599 21.1201 21.5251 21.1656C21.3903 21.2112 21.2432 21.2093 21.1098 21.1602L18.592 20.179C18.4532 20.1255 18.3028 20.1062 18.1543 20.1228C18.0059 20.1394 17.864 20.1913 17.7414 20.274C17.3571 20.5301 16.9533 20.7576 16.5335 20.9545C16.4015 21.0166 16.2874 21.1091 16.2011 21.224C16.1148 21.3389 16.0591 21.4726 16.0389 21.6133L15.6615 24.2121C15.6368 24.3493 15.5635 24.474 15.4543 24.5647C15.345 24.6555 15.2066 24.7067 15.0627 24.7097H10.266C10.1245 24.7073 9.98796 24.6584 9.87899 24.5709C9.77003 24.4834 9.69512 24.3626 9.66659 24.2284L9.28977 21.6334C9.26861 21.4911 9.21147 21.3562 9.12342 21.2405C9.03538 21.1248 8.91916 21.032 8.7851 20.9702C8.36578 20.7744 7.96337 20.5462 7.58173 20.2881C7.45954 20.2058 7.31812 20.1543 7.17021 20.1381C7.02229 20.1219 6.87254 20.1415 6.73444 20.1953L4.21725 21.1759C4.08385 21.2251 3.9368 21.2271 3.80202 21.1816C3.66723 21.1362 3.55334 21.0461 3.48042 20.9274L1.08211 16.9117C1.01 16.7917 0.984234 16.6509 1.00939 16.5142C1.03455 16.3776 1.109 16.254 1.21949 16.1655L3.36211 14.5375C3.47949 14.4474 3.57175 14.3303 3.6305 14.1968C3.68926 14.0634 3.71265 13.9179 3.69855 13.7735C3.67837 13.5472 3.66603 13.3215 3.66603 13.0952C3.66603 12.8689 3.67781 12.6464 3.69855 12.425C3.71111 12.2815 3.68657 12.1372 3.62715 12.0051C3.56773 11.8731 3.4753 11.7574 3.35818 11.6685L1.21669 10.0405C1.10799 9.95159 1.03511 9.82846 1.01081 9.69273C0.986511 9.557 1.01235 9.41732 1.08379 9.29818L3.48211 5.2825C3.55494 5.16365 3.66879 5.0735 3.80358 5.02793C3.93838 4.98236 4.08547 4.98431 4.21893 5.03342L6.73669 6.01455C6.87553 6.06805 7.02592 6.08737 7.17438 6.0708C7.32284 6.05423 7.46473 6.00227 7.58734 5.91958C7.97159 5.66351 8.37537 5.43603 8.79519 5.23909C8.92718 5.17701 9.04134 5.08443 9.1276 4.96954C9.21385 4.85464 9.26955 4.72096 9.28977 4.5803L9.66715 1.9815C9.69194 1.84426 9.76521 1.7196 9.87444 1.62883C9.98368 1.53807 10.1221 1.48684 10.266 1.48389H15.0627C15.2042 1.48626 15.3407 1.53522 15.4497 1.62272C15.5587 1.71021 15.6336 1.83102 15.6621 1.96523L16.0389 4.56022C16.0601 4.70243 16.1172 4.83738 16.2053 4.95307C16.2933 5.06876 16.4095 5.16161 16.5436 5.22335C16.9629 5.41923 17.3653 5.64733 17.747 5.90547C17.8692 5.98775 18.0106 6.03931 18.1585 6.05551C18.3064 6.07171 18.4562 6.05203 18.5943 5.99827L21.1115 5.01768C21.2448 4.96852 21.3919 4.9665 21.5267 5.01196C21.6615 5.05743 21.7754 5.14747 21.8483 5.26622L24.2466 9.2819C24.3187 9.40187 24.3445 9.54272 24.3193 9.67936C24.2941 9.816 24.2197 9.93956 24.1092 10.0281L21.9666 11.656C21.8487 11.7459 21.7559 11.8629 21.6966 11.9963C21.6374 12.1298 21.6136 12.2755 21.6273 12.4201C21.6458 12.6448 21.6582 12.8705 21.6582 13.0968Z" stroke="#0053F5" stroke-width="2" stroke-linecap="round" stroke-linejoin="round"/>
</svg>
