<svg width="20" height="20" viewBox="0 0 20 20" fill="none" xmlns="http://www.w3.org/2000/svg">
<path d="M12.825 4.34297L13.9999 6.69296C14.1583 7.01796 14.5833 7.32629 14.9416 7.39296L17.0666 7.74296C18.425 7.96796 18.7416 8.95129 17.7666 9.93463L16.1083 11.593C15.8333 11.868 15.675 12.4096 15.7666 12.8013L16.2416 14.8513C16.6166 16.468 15.75 17.1013 14.325 16.2513L12.3333 15.068C11.9749 14.8513 11.375 14.8513 11.0166 15.068L9.02495 16.2513C7.59995 17.093 6.73329 16.468 7.10829 14.8513L7.5833 12.8013C7.67496 12.418 7.51663 11.8763 7.24163 11.593L5.5833 9.93463C4.6083 8.95963 4.92497 7.97629 6.2833 7.74296L8.40829 7.39296C8.76662 7.33463 9.19163 7.01796 9.34996 6.69296L10.525 4.34297C11.15 3.06797 12.1833 3.06797 12.825 4.34297Z" stroke="#101828" stroke-width="1.5" stroke-linecap="round" stroke-linejoin="round"/>
<path d="M6.66663 4.16797H1.66663" stroke="#101828" stroke-width="1.5" stroke-linecap="round" stroke-linejoin="round"/>
<path d="M4.16663 15.832H1.66663" stroke="#101828" stroke-width="1.5" stroke-linecap="round" stroke-linejoin="round"/>
<path d="M2.49996 10H1.66663" stroke="#292D32" stroke-width="1.5" stroke-linecap="round" stroke-linejoin="round"/>
</svg>
