<svg width="24" height="24" viewBox="0 0 24 24" fill="none" xmlns="http://www.w3.org/2000/svg">
<path opacity="0.4" d="M12 22.0117C17.5228 22.0117 22 17.5346 22 12.0117C22 6.48887 17.5228 2.01172 12 2.01172C6.47715 2.01172 2 6.48887 2 12.0117C2 17.5346 6.47715 22.0117 12 22.0117Z" fill="#D6F318"/>
<path d="M12 6.9375C9.93 6.9375 8.25 8.6175 8.25 10.6875C8.25 12.7175 9.84 14.3675 11.95 14.4275C11.98 14.4275 12.02 14.4275 12.04 14.4275C12.06 14.4275 12.09 14.4275 12.11 14.4275C12.12 14.4275 12.13 14.4275 12.13 14.4275C14.15 14.3575 15.74 12.7175 15.75 10.6875C15.75 8.6175 14.07 6.9375 12 6.9375Z" fill="#D6F318"/>
<path d="M18.7797 19.3583C16.9997 20.9983 14.6197 22.0083 11.9997 22.0083C9.37973 22.0083 6.99973 20.9983 5.21973 19.3583C5.45973 18.4483 6.10973 17.6183 7.05973 16.9783C9.78973 15.1583 14.2297 15.1583 16.9397 16.9783C17.8997 17.6183 18.5397 18.4483 18.7797 19.3583Z" fill="#D6F318"/>
</svg>
