<svg width="25" height="24" viewBox="0 0 25 24" fill="none" xmlns="http://www.w3.org/2000/svg">
<path opacity="0.4" d="M18.03 10.77C17.96 10.76 17.89 10.76 17.82 10.77C16.27 10.72 15.04 9.45 15.04 7.89C15.04 6.3 16.33 5 17.93 5C19.52 5 20.82 6.29 20.82 7.89C20.81 9.45 19.58 10.72 18.03 10.77Z" fill="#D6F318"/>
<path opacity="0.4" d="M21.2896 17.7004C20.1696 18.4504 18.5996 18.7304 17.1496 18.5404C17.5296 17.7204 17.7296 16.8104 17.7396 15.8504C17.7396 14.8504 17.5196 13.9004 17.0996 13.0704C18.5796 12.8704 20.1496 13.1504 21.2796 13.9004C22.8596 14.9404 22.8596 16.6504 21.2896 17.7004Z" fill="#D6F318"/>
<path opacity="0.4" d="M6.94039 10.77C7.01039 10.76 7.08039 10.76 7.15039 10.77C8.70039 10.72 9.93039 9.45 9.93039 7.89C9.93039 6.3 8.64039 5 7.04039 5C5.45039 5 4.15039 6.29 4.15039 7.89C4.16039 9.45 5.39039 10.72 6.94039 10.77Z" fill="#D6F318"/>
<path opacity="0.4" d="M7.05012 15.8506C7.05012 16.8206 7.26012 17.7406 7.64012 18.5706C6.23012 18.7206 4.76012 18.4206 3.68012 17.7106C2.10012 16.6606 2.10012 14.9506 3.68012 13.9006C4.75012 13.1806 6.26012 12.8906 7.68012 13.0506C7.27012 13.8906 7.05012 14.8406 7.05012 15.8506Z" fill="#D6F318"/>
<path d="M12.6198 15.87C12.5398 15.86 12.4498 15.86 12.3598 15.87C10.5198 15.81 9.0498 14.3 9.0498 12.44C9.0498 10.54 10.5798 9 12.4898 9C14.3898 9 15.9298 10.54 15.9298 12.44C15.9298 14.3 14.4698 15.81 12.6198 15.87Z" fill="#D6F318"/>
<path d="M9.3698 17.9406C7.8598 18.9506 7.8598 20.6106 9.3698 21.6106C11.0898 22.7606 13.9098 22.7606 15.6298 21.6106C17.1398 20.6006 17.1398 18.9406 15.6298 17.9406C13.9198 16.7906 11.0998 16.7906 9.3698 17.9406Z" fill="#D6F318"/>
</svg>
