<svg width="25" height="24" viewBox="0 0 25 24" fill="none" xmlns="http://www.w3.org/2000/svg">
<path d="M18.5001 10.16C18.4401 10.15 18.3701 10.15 18.3101 10.16C16.9301 10.11 15.8301 8.98 15.8301 7.58C15.8301 6.15 16.9801 5 18.4101 5C19.8401 5 20.9901 6.16 20.9901 7.58C20.9801 8.98 19.8801 10.11 18.5001 10.16Z" stroke="#667085" stroke-width="1.5" stroke-linecap="round" stroke-linejoin="round"/>
<path d="M17.4704 17.4402C18.8404 17.6702 20.3504 17.4302 21.4104 16.7202C22.8204 15.7802 22.8204 14.2402 21.4104 13.3002C20.3404 12.5902 18.8104 12.3502 17.4404 12.5902" stroke="#667085" stroke-width="1.5" stroke-linecap="round" stroke-linejoin="round"/>
<path d="M6.46949 10.16C6.52949 10.15 6.59949 10.15 6.65949 10.16C8.03949 10.11 9.13949 8.98 9.13949 7.58C9.13949 6.15 7.98949 5 6.55949 5C5.12949 5 3.97949 6.16 3.97949 7.58C3.98949 8.98 5.08949 10.11 6.46949 10.16Z" stroke="#667085" stroke-width="1.5" stroke-linecap="round" stroke-linejoin="round"/>
<path d="M7.49945 17.4402C6.12945 17.6702 4.61945 17.4302 3.55945 16.7202C2.14945 15.7802 2.14945 14.2402 3.55945 13.3002C4.62945 12.5902 6.15945 12.3502 7.52945 12.5902" stroke="#667085" stroke-width="1.5" stroke-linecap="round" stroke-linejoin="round"/>
<path d="M12.5001 14.6288C12.4401 14.6188 12.3701 14.6188 12.3101 14.6288C10.9301 14.5788 9.83008 13.4488 9.83008 12.0488C9.83008 10.6188 10.9801 9.46875 12.4101 9.46875C13.8401 9.46875 14.9901 10.6288 14.9901 12.0488C14.9801 13.4488 13.8801 14.5888 12.5001 14.6288Z" stroke="#667085" stroke-width="1.5" stroke-linecap="round" stroke-linejoin="round"/>
<path d="M9.58973 17.7794C8.17973 18.7194 8.17973 20.2594 9.58973 21.1994C11.1897 22.2694 13.8097 22.2694 15.4097 21.1994C16.8197 20.2594 16.8197 18.7194 15.4097 17.7794C13.8197 16.7194 11.1897 16.7194 9.58973 17.7794Z" stroke="#667085" stroke-width="1.5" stroke-linecap="round" stroke-linejoin="round"/>
</svg>
