<svg width="25" height="24" viewBox="0 0 25 24" fill="none" xmlns="http://www.w3.org/2000/svg">
<path d="M12.6601 10.87C12.5601 10.86 12.4401 10.86 12.3301 10.87C9.95006 10.79 8.06006 8.84 8.06006 6.44C8.06006 3.99 10.0401 2 12.5001 2C14.9501 2 16.9401 3.99 16.9401 6.44C16.9301 8.84 15.0401 10.79 12.6601 10.87Z" stroke="#101828" stroke-width="1.5" stroke-linecap="round" stroke-linejoin="round"/>
<path d="M17.63 4C19.57 4 21.13 5.57 21.13 7.5C21.13 9.39 19.63 10.93 17.76 11C17.68 10.99 17.59 10.99 17.5 11" stroke="#101828" stroke-width="1.5" stroke-linecap="round" stroke-linejoin="round"/>
<path d="M7.65997 14.56C5.23997 16.18 5.23997 18.82 7.65997 20.43C10.41 22.27 14.92 22.27 17.67 20.43C20.09 18.81 20.09 16.17 17.67 14.56C14.93 12.73 10.42 12.73 7.65997 14.56Z" stroke="#101828" stroke-width="1.5" stroke-linecap="round" stroke-linejoin="round"/>
<path d="M19.5601 20C20.2801 19.85 20.9601 19.56 21.5201 19.13C23.0801 17.96 23.0801 16.03 21.5201 14.86C20.9701 14.44 20.3001 14.16 19.5901 14" stroke="#101828" stroke-width="1.5" stroke-linecap="round" stroke-linejoin="round"/>
<path d="M5.62988 20C4.90988 19.85 4.22988 19.56 3.66988 19.13C2.10988 17.96 2.10988 16.03 3.66988 14.86C4.21988 14.44 4.88988 14.16 5.59988 14" stroke="#101828" stroke-width="1.5" stroke-linecap="round" stroke-linejoin="round"/>
<path d="M7.55994 4C5.61994 4 4.05994 5.57 4.05994 7.5C4.05994 9.39 5.55994 10.93 7.42994 11C7.50994 10.99 7.59994 10.99 7.68994 11" stroke="#101828" stroke-width="1.5" stroke-linecap="round" stroke-linejoin="round"/>
</svg>
