<svg width="34" height="26" viewBox="0 0 34 26" fill="none" xmlns="http://www.w3.org/2000/svg">
<path d="M25 25H33V21.8C33 19.149 30.851 17 28.2 17C26.671 17 25.309 17.7149 24.4301 18.8286M25 25H9M25 25V21.8C25 20.7501 24.7978 19.7472 24.4301 18.8286M24.4301 18.8286C23.2504 15.8816 20.3683 13.8 17 13.8C13.6317 13.8 10.7496 15.8816 9.57 18.8286M9 25H1V21.8C1 19.149 3.14904 17 5.8 17C7.32898 17 8.69098 17.7149 9.57 18.8286M9 25V21.8C9 20.7501 9.20227 19.7472 9.57 18.8286M21.8 5.8C21.8 8.45096 19.651 10.6 17 10.6C14.349 10.6 12.2 8.45096 12.2 5.8C12.2 3.14904 14.349 1 17 1C19.651 1 21.8 3.14904 21.8 5.8ZM31.4 10.6C31.4 12.3674 29.9674 13.8 28.2 13.8C26.4326 13.8 25 12.3674 25 10.6C25 8.83269 26.4326 7.4 28.2 7.4C29.9674 7.4 31.4 8.83269 31.4 10.6ZM9 10.6C9 12.3674 7.56731 13.8 5.8 13.8C4.03269 13.8 2.6 12.3674 2.6 10.6C2.6 8.83269 4.03269 7.4 5.8 7.4C7.56731 7.4 9 8.83269 9 10.6Z" stroke="#B2B2B2" stroke-width="2" stroke-linecap="round" stroke-linejoin="round"/>
</svg>
