<svg width="20" height="20" viewBox="0 0 20 20" fill="none" xmlns="http://www.w3.org/2000/svg">
<path d="M10.0021 11.668H10.8354C11.7521 11.668 12.5021 10.918 12.5021 10.0013V1.66797H5.00208C3.75208 1.66797 2.66042 2.35963 2.09375 3.37629" stroke="#0053F5" stroke-width="1.5" stroke-linecap="round" stroke-linejoin="round"/>
<path d="M1.66406 14.168C1.66406 15.5513 2.78073 16.668 4.16406 16.668H4.9974C4.9974 15.7513 5.7474 15.0013 6.66406 15.0013C7.58073 15.0013 8.33073 15.7513 8.33073 16.668H11.6641C11.6641 15.7513 12.4141 15.0013 13.3307 15.0013C14.2474 15.0013 14.9974 15.7513 14.9974 16.668H15.8307C17.2141 16.668 18.3307 15.5513 18.3307 14.168V11.668H15.8307C15.3724 11.668 14.9974 11.293 14.9974 10.8346V8.33464C14.9974 7.8763 15.3724 7.5013 15.8307 7.5013H16.9057L15.4807 5.00964C15.1807 4.49298 14.6308 4.16797 14.0308 4.16797H12.4974V10.0013C12.4974 10.918 11.7474 11.668 10.8307 11.668H9.9974" stroke="#0053F5" stroke-width="1.5" stroke-linecap="round" stroke-linejoin="round"/>
<path d="M6.66667 18.3333C7.58714 18.3333 8.33333 17.5871 8.33333 16.6667C8.33333 15.7462 7.58714 15 6.66667 15C5.74619 15 5 15.7462 5 16.6667C5 17.5871 5.74619 18.3333 6.66667 18.3333Z" stroke="#0053F5" stroke-width="1.5" stroke-linecap="round" stroke-linejoin="round"/>
<path d="M13.3307 18.3333C14.2512 18.3333 14.9974 17.5871 14.9974 16.6667C14.9974 15.7462 14.2512 15 13.3307 15C12.4103 15 11.6641 15.7462 11.6641 16.6667C11.6641 17.5871 12.4103 18.3333 13.3307 18.3333Z" stroke="#0053F5" stroke-width="1.5" stroke-linecap="round" stroke-linejoin="round"/>
<path d="M18.3333 10V11.6667H15.8333C15.375 11.6667 15 11.2917 15 10.8333V8.33333C15 7.875 15.375 7.5 15.8333 7.5H16.9083L18.3333 10Z" stroke="#0053F5" stroke-width="1.5" stroke-linecap="round" stroke-linejoin="round"/>
<path d="M1.66406 6.66797H6.66406" stroke="#0053F5" stroke-width="1.5" stroke-linecap="round" stroke-linejoin="round"/>
<path d="M1.66406 9.16797H4.9974" stroke="#0053F5" stroke-width="1.5" stroke-linecap="round" stroke-linejoin="round"/>
<path d="M1.66406 11.668H3.33073" stroke="#0053F5" stroke-width="1.5" stroke-linecap="round" stroke-linejoin="round"/>
</svg>
