<svg width="30" height="19" viewBox="0 0 30 19" fill="none" xmlns="http://www.w3.org/2000/svg">
<path fill-rule="evenodd" clip-rule="evenodd" d="M28.049 0.00579381L20.7834 0.00390625C20.7825 0.00390625 20.7815 0.00390625 20.7815 0.00390625C20.7759 0.00390625 20.7704 0.00491379 20.7649 0.00491379C19.7668 0.0357384 18.5237 0.84273 18.2973 1.83782L14.8613 17.1636C14.6349 18.1679 15.2508 18.9852 16.2417 19.0002H23.8745C24.8503 18.9516 25.7985 18.1539 26.021 17.1701L29.4571 1.84423C29.6871 0.829644 29.0563 0.00579381 28.049 0.00579381Z" fill="#01798A"/>
<path fill-rule="evenodd" clip-rule="evenodd" d="M14.8607 17.1635L18.2966 1.83775C18.523 0.842664 19.7662 0.0356727 20.7643 0.00484823L17.8755 0.00296067L12.6708 0.00195312C11.6699 0.0225873 10.4106 0.835241 10.1843 1.83775L6.7473 17.1635C6.52005 18.1679 7.1369 18.9851 8.12716 19.0002H16.2411C15.2502 18.9851 14.6343 18.1679 14.8607 17.1635Z" fill="#024381"/>
<path fill-rule="evenodd" clip-rule="evenodd" d="M6.74738 17.1633L10.1844 1.83756C10.4107 0.835048 11.67 0.0223958 12.6709 0.00176164L6.00339 0C4.99689 0 3.70644 0.821964 3.47642 1.83756L0.0394426 17.1633C0.0185269 17.2568 0.0069231 17.3485 0 17.4382V17.7225C0.0672816 18.4547 0.621966 18.9878 1.4193 19H8.12724C7.13698 18.985 6.52013 18.1677 6.74738 17.1633Z" fill="#DD0228"/>
<path fill-rule="evenodd" clip-rule="evenodd" d="M12.8114 11.1695H12.9375C13.0535 11.1695 13.1315 11.1303 13.1681 11.0527L13.496 10.558H14.374L14.1909 10.8834H15.2437L15.1102 11.3819H13.8574C13.7131 11.6007 13.5355 11.7035 13.322 11.6914H12.6694L12.8114 11.1695ZM12.6672 11.884H14.9737L14.8267 12.4255H13.8991L13.7576 12.9482H14.6602L14.5132 13.4896H13.6105L13.4008 14.262C13.3489 14.3911 13.4172 14.4492 13.6045 14.436H14.3402L14.2039 14.9392H12.7915C12.5238 14.9392 12.4319 14.7848 12.5159 14.4753L12.784 13.4896H12.207L12.3536 12.9482H12.9307L13.0721 12.4255H12.5205L12.6672 11.884ZM16.3487 10.5543L16.3123 10.8713C16.3123 10.8713 16.7474 10.542 17.1426 10.542H18.6028L18.0444 12.5797C17.9981 12.8126 17.7995 12.9284 17.4488 12.9284H15.7937L15.4061 14.3593C15.3837 14.4359 15.4153 14.4753 15.4988 14.4753H15.8244L15.7047 14.9194H14.8769C14.5591 14.9194 14.4269 14.8231 14.4793 14.6296L15.5748 10.5543H16.3487ZM17.5852 11.1303H16.2819L16.126 11.6801C16.126 11.6801 16.343 11.5221 16.7057 11.5165C17.0675 11.5108 17.4803 11.5165 17.4803 11.5165L17.5852 11.1303ZM17.113 12.4058C17.2094 12.419 17.2633 12.3805 17.2698 12.2898L17.3495 12H16.0442L15.9348 12.4058H17.113ZM16.2326 13.0641H16.985L16.971 13.3923H17.1713C17.2725 13.3923 17.3227 13.3596 17.3227 13.2951L17.382 13.0828H18.0073L17.9238 13.3923C17.8532 13.6504 17.6659 13.7851 17.3616 13.7983H16.9609L16.959 14.3593C16.9516 14.4491 17.0323 14.4949 17.1983 14.4949H17.575L17.4534 14.9391H16.5499C16.2966 14.9513 16.1724 14.8296 16.1751 14.5716L16.2326 13.0641Z" fill="white"/>
<path fill-rule="evenodd" clip-rule="evenodd" d="M7.11589 7.8389C7.01384 8.34295 6.77729 8.73009 6.41035 9.00501C6.04675 9.27528 5.57776 9.41082 5.00359 9.41082C4.46324 9.41082 4.0671 9.27242 3.8143 8.99469C3.63898 8.79736 3.55176 8.54676 3.55176 8.24376C3.55176 8.11849 3.56664 7.98383 3.59633 7.8389L4.2081 4.86523H5.13206L4.52861 7.80523C4.51004 7.88661 4.50263 7.96235 4.5036 8.03062C4.50263 8.18121 4.53972 8.30461 4.61486 8.40088C4.72432 8.544 4.90198 8.61503 5.14921 8.61503C5.4335 8.61503 5.66776 8.54495 5.84958 8.40369C6.03143 8.26343 6.15015 8.06429 6.20348 7.80523L6.80883 4.86523H7.72811L7.11589 7.8389Z" fill="white"/>
<path fill-rule="evenodd" clip-rule="evenodd" d="M10.9961 6.66905H11.7197L11.1529 9.32297H10.4307L10.9961 6.66905ZM11.2239 5.70215H11.9539L11.8175 6.34633H11.0875L11.2239 5.70215Z" fill="white"/>
<path fill-rule="evenodd" clip-rule="evenodd" d="M12.36 9.12072C12.1707 8.93839 12.0751 8.69245 12.0742 8.38012C12.0742 8.32679 12.0774 8.26604 12.0845 8.1996C12.0914 8.13226 12.1003 8.0668 12.1127 8.00606C12.1985 7.57498 12.3813 7.23272 12.6628 6.98021C12.9439 6.7268 13.283 6.59961 13.6801 6.59961C14.0052 6.59961 14.2631 6.69127 14.4519 6.87455C14.6406 7.05879 14.7352 7.30748 14.7352 7.62365C14.7352 7.6778 14.7311 7.74047 14.7241 7.80779C14.7157 7.87606 14.7056 7.94152 14.6939 8.00606C14.61 8.43059 14.4278 8.76912 14.1462 9.01697C13.8647 9.26664 13.5265 9.39092 13.1323 9.39092C12.8057 9.39092 12.5488 9.30119 12.36 9.12072ZM13.739 8.59519C13.8665 8.45586 13.9579 8.24448 14.0135 7.96306C14.0219 7.91913 14.0293 7.87328 14.0339 7.82747C14.0385 7.78255 14.0404 7.74048 14.0404 7.70214C14.0404 7.53848 13.9991 7.41134 13.9161 7.32155C13.8336 7.23082 13.7162 7.18599 13.5646 7.18599C13.3641 7.18599 13.2009 7.25696 13.073 7.39915C12.9439 7.54134 12.8525 7.75639 12.795 8.04254C12.7871 8.08648 12.7806 8.13046 12.7747 8.17347C12.77 8.2174 12.7687 8.25854 12.7695 8.29594C12.7695 8.45867 12.8108 8.58399 12.8938 8.6728C12.9764 8.76166 13.0932 8.8056 13.2468 8.8056C13.4481 8.8056 13.6114 8.73547 13.739 8.59519Z" fill="white"/>
<path fill-rule="evenodd" clip-rule="evenodd" d="M19.4305 11.1915L19.605 10.5725H20.4871L20.4491 10.7996C20.4491 10.7996 20.8999 10.5725 21.2245 10.5725C21.5493 10.5725 22.3154 10.5725 22.3154 10.5725L22.142 11.1915H21.9704L21.1475 14.111H21.3191L21.1559 14.6908H20.9843L20.9129 14.9423H20.0585L20.1298 14.6908H18.4443L18.6086 14.111H18.7775L19.6011 11.1915H19.4305ZM20.3823 11.1916L20.1578 11.9817C20.1578 11.9817 20.5419 11.8331 20.873 11.791C20.9462 11.5151 21.0418 11.1916 21.0418 11.1916L20.3823 11.1916ZM20.0538 12.352L19.8285 13.1796C19.8285 13.1796 20.2542 12.9683 20.5464 12.9505C20.6308 12.6306 20.7153 12.352 20.7153 12.352L20.0538 12.352ZM20.2189 14.111L20.3878 13.5107H19.7293L19.5595 14.111H20.2189ZM22.3526 10.5342H23.182L23.2172 10.8427C23.2117 10.9212 23.258 10.9587 23.3563 10.9587H23.5028L23.3546 11.4814H22.745C22.5122 11.4935 22.3925 11.4038 22.3814 11.2102L22.3526 10.5342ZM22.1096 11.6554H24.796L24.6384 12.2165H23.7831L23.6364 12.7382H24.4909L24.3322 13.2984H23.3805L23.1652 13.6267H23.631L23.7386 14.284C23.7515 14.3495 23.809 14.3813 23.9074 14.3813H24.052L23.9 14.9226H23.3879C23.1225 14.9358 22.9854 14.846 22.9741 14.6525L22.8507 14.0521L22.4268 14.6908C22.3266 14.8713 22.1726 14.9555 21.9649 14.9423H21.1828L21.335 14.4008H21.579C21.6792 14.4008 21.7626 14.356 21.8377 14.2653L22.5011 13.2984H21.6458L21.8043 12.7382H22.732L22.8795 12.2165H21.9509L22.1096 11.6554Z" fill="white"/>
<path fill-rule="evenodd" clip-rule="evenodd" d="M7.96688 6.66792H8.61946L8.54482 7.05131L8.63848 6.94191C8.85002 6.71377 9.10696 6.60059 9.41032 6.60059C9.68491 6.60059 9.88295 6.68105 10.0073 6.84278C10.1297 7.00458 10.1631 7.2281 10.1052 7.51518L9.74565 9.3237H9.07497L9.39964 7.68444C9.43309 7.51518 9.42382 7.38892 9.37224 7.30753C9.32129 7.22619 9.22382 7.18603 9.08331 7.18603C8.91077 7.18603 8.76558 7.24019 8.6473 7.34778C8.52853 7.45624 8.45019 7.60683 8.41167 7.7985L8.11251 9.3237H7.44043L7.96688 6.66792Z" fill="white"/>
<path fill-rule="evenodd" clip-rule="evenodd" d="M15.4511 6.66792H16.1043L16.0301 7.05131L16.1228 6.94191C16.3344 6.71377 16.5923 6.60059 16.8947 6.60059C17.1693 6.60059 17.3678 6.68105 17.4911 6.84278C17.6128 7.00458 17.648 7.2281 17.5886 7.51518L17.2305 9.3237H16.5588L16.8836 7.68444C16.9169 7.51518 16.9077 7.38892 16.8567 7.30753C16.8037 7.22619 16.7081 7.18603 16.5682 7.18603C16.3956 7.18603 16.2509 7.24019 16.1312 7.34778C16.0124 7.45624 15.9337 7.60683 15.8966 7.7985L15.596 9.3237H14.9248L15.4511 6.66792" fill="white"/>
<path fill-rule="evenodd" clip-rule="evenodd" d="M18.6795 5.02246H20.5757C20.9402 5.02246 21.2222 5.10575 21.416 5.26931C21.609 5.43489 21.7056 5.67243 21.7056 5.98194V5.99125C21.7056 6.05014 21.7017 6.11657 21.6962 6.18853C21.6869 6.25962 21.6748 6.33159 21.6592 6.40645C21.5757 6.81605 21.3817 7.14523 21.0822 7.39491C20.7815 7.64363 20.4254 7.76896 20.0154 7.76896H18.9985L18.6841 9.32409H17.8037L18.6795 5.02246ZM19.1534 7.02088H19.9968C20.2166 7.02088 20.3909 6.96937 20.5181 6.8675C20.6443 6.76463 20.7278 6.60756 20.7741 6.39436C20.7815 6.35498 20.7861 6.3195 20.7917 6.28679C20.7946 6.25596 20.7982 6.22501 20.7982 6.19519C20.7982 6.0427 20.7445 5.93236 20.6368 5.86316C20.5292 5.79295 20.3605 5.75936 20.1266 5.75936H19.4104L19.1534 7.02088Z" fill="white"/>
<path fill-rule="evenodd" clip-rule="evenodd" d="M25.6454 9.83722C25.3671 10.4338 25.1019 10.7816 24.9461 10.9434C24.7901 11.1034 24.4813 11.4755 23.7373 11.4474L23.8013 10.9921C24.4274 10.7976 24.766 9.92127 24.959 9.53325L24.7289 6.67549L25.2132 6.66895H25.6195L25.6632 8.4616L26.4246 6.66895H27.1956L25.6454 9.83722Z" fill="white"/>
<path fill-rule="evenodd" clip-rule="evenodd" d="M23.4896 6.88572L23.1833 7.09804C22.8633 6.84557 22.5711 6.68938 22.0072 6.95306C21.239 7.31213 20.5971 10.0661 22.7122 9.15903L22.8327 9.30303L23.6648 9.32456L24.2113 6.82212L23.4896 6.88572ZM23.0164 8.25381C22.8828 8.65127 22.5842 8.91401 22.3504 8.83922C22.1167 8.76628 22.0332 8.38283 22.1686 7.98449C22.3021 7.5861 22.6027 7.32429 22.8346 7.3991C23.0684 7.47204 23.1527 7.85543 23.0164 8.25381Z" fill="white"/>
</svg>
