<svg width="20" height="19" viewBox="0 0 20 19" fill="none" xmlns="http://www.w3.org/2000/svg">
<path d="M9.90041 11.3436C9.64659 11.3436 9.40316 11.2427 9.22368 11.0633C9.0442 10.8838 8.94337 10.6404 8.94337 10.3865V7.5154C8.94337 7.26157 9.0442 7.01814 9.22368 6.83866C9.40316 6.65918 9.64659 6.55835 9.90041 6.55835C10.1542 6.55835 10.3977 6.65918 10.5771 6.83866C10.7566 7.01814 10.8575 7.26157 10.8575 7.5154V10.3865C10.8575 10.6404 10.7566 10.8838 10.5771 11.0633C10.3977 11.2427 10.1542 11.3436 9.90041 11.3436ZM8.46484 13.7362C8.46484 13.3555 8.61609 12.9903 8.88531 12.7211C9.15453 12.4519 9.51968 12.3006 9.90041 12.3006C10.2811 12.3006 10.6463 12.4519 10.9155 12.7211C11.1847 12.9903 11.336 13.3555 11.336 13.7362C11.336 14.1169 11.1847 14.4821 10.9155 14.7513C10.6463 15.0205 10.2811 15.1718 9.90041 15.1718C9.51968 15.1718 9.15453 15.0205 8.88531 14.7513C8.61609 14.4821 8.46484 14.1169 8.46484 13.7362Z" fill="#CD402B"/>
<path d="M8.20712 1.02284C8.92491 -0.340948 10.8773 -0.340948 11.5951 1.02284L19.5797 16.1939C20.2506 17.4687 19.328 19 17.8857 19H1.91646C0.476106 19 -0.447444 17.4687 0.222488 16.1949L8.20712 1.02284ZM17.8867 17.0859L9.9011 1.91385L1.9155 17.0859H17.8867Z" fill="#CD402B"/>
</svg>
