<svg width="18" height="26" viewBox="0 0 18 26" fill="none" xmlns="http://www.w3.org/2000/svg">
<path d="M17 25H1ZM17 25V21.8C17 20.7501 16.7978 19.7472 16.4301 18.8286M1 25V21.8C1 20.7501 1.20227 19.7472 1.57 18.8286M1.57 18.8286C2.7496 15.8816 5.63171 13.8 9 13.8C12.3683 13.8 15.2504 15.8816 16.4301 18.8286M13.8 5.8C13.8 8.45096 11.651 10.6 9 10.6C6.34896 10.6 4.2 8.45096 4.2 5.8C4.2 3.14904 6.34896 1 9 1C11.651 1 13.8 3.14904 13.8 5.8Z" stroke="#B2B2B2" stroke-width="2" stroke-linecap="round" stroke-linejoin="round"/>
</svg>
