<svg width="20" height="20" viewBox="0 0 20 20" fill="none" xmlns="http://www.w3.org/2000/svg">
<path d="M10.0026 9.99935C12.3038 9.99935 14.1693 8.13387 14.1693 5.83268C14.1693 3.5315 12.3038 1.66602 10.0026 1.66602C7.70142 1.66602 5.83594 3.5315 5.83594 5.83268C5.83594 8.13387 7.70142 9.99935 10.0026 9.99935Z" stroke="#101828" stroke-width="1.5" stroke-linecap="round" stroke-linejoin="round"/>
<path d="M16.0066 13.1162L13.0566 16.0662C12.9399 16.1829 12.8316 16.3995 12.8066 16.5579L12.6482 17.6828C12.5899 18.0912 12.8732 18.3745 13.2816 18.3162L14.4066 18.1579C14.5649 18.1329 14.7899 18.0245 14.8982 17.9079L17.8482 14.9579C18.3566 14.4495 18.5982 13.8579 17.8482 13.1079C17.1066 12.3662 16.5149 12.6079 16.0066 13.1162Z" stroke="#101828" stroke-width="1.5" stroke-miterlimit="10" stroke-linecap="round" stroke-linejoin="round"/>
<path d="M15.5781 13.541C15.8281 14.441 16.5281 15.141 17.4281 15.391" stroke="#101828" stroke-width="1.5" stroke-miterlimit="10" stroke-linecap="round" stroke-linejoin="round"/>
<path d="M2.84375 18.3333C2.84375 15.1083 6.05211 12.5 10.0021 12.5C10.8688 12.5 11.7021 12.625 12.4771 12.8583" stroke="#101828" stroke-width="1.5" stroke-linecap="round" stroke-linejoin="round"/>
</svg>
